<svg width="35" height="35" viewBox="0 0 35 35" fill="none" xmlns="http://www.w3.org/2000/svg">
    <g clip-path="url(#pwfwzw7xma)" fill="#fff">
        <path d="M10.96 17.501a6.547 6.547 0 0 0 6.54 6.54 6.547 6.547 0 0 0 6.54-6.54 6.547 6.547 0 0 0-6.54-6.54 6.548 6.548 0 0 0-6.54 6.54z"/>
        <path d="M32.56 8.868c.05-.09.05-.2-.003-.288a17.608 17.608 0 0 0-6.27-6.215A17.488 17.488 0 0 0 17.5.001 17.424 17.424 0 0 0 3.82 6.59a.287.287 0 0 0-.025.323l4.927 8.532a.287.287 0 0 0 .526-.072 8.521 8.521 0 0 1 9.017-6.359H32.31a.287.287 0 0 0 .25-.145z"/>
        <path d="M20.086 25.812a.287.287 0 0 0-.304-.1c-.74.206-1.508.31-2.282.31a8.565 8.565 0 0 1-7.729-4.932L2.744 8.92a.286.286 0 0 0-.249-.144h-.001a.287.287 0 0 0-.248.146 17.51 17.51 0 0 0 2.039 20.052 17.497 17.497 0 0 0 10.604 5.834.287.287 0 0 0 .29-.14l4.929-8.535a.287.287 0 0 0-.022-.32z"/>
        <path d="M33.529 10.928h-9.866a.287.287 0 0 0-.201.491 8.455 8.455 0 0 1 2.56 6.082 8.46 8.46 0 0 1-1.535 4.875l-7.04 12.192a.287.287 0 0 0 .248.43h.004a17.394 17.394 0 0 0 12.24-5.189A17.391 17.391 0 0 0 35 17.501c0-2.205-.405-4.355-1.204-6.391a.287.287 0 0 0-.267-.182z"/>
    </g>
    <defs>
        <clipPath id="pwfwzw7xma">
            <path fill="#fff" d="M0 0h35v35H0z"/>
        </clipPath>
    </defs>
</svg>
