<svg width="299" height="299" viewBox="0 0 299 299" fill="none" xmlns="http://www.w3.org/2000/svg">
    <path style="mix-blend-mode:overlay" opacity=".43" d="M243.377 209.767H58.617l69.06-149.466h46.64l69.06 149.466z" fill="url(#f82bgk2doa)"/>
    <path d="m54.586 167.97 2.342-11.16 12.309-2.791" stroke="#283035" stroke-width="2" stroke-linecap="round" stroke-linejoin="round"/>
    <path d="M45.883 210.731h14.681a2.09 2.09 0 0 0 2.076-1.828l3.922-30.768H39.887l3.921 30.768a2.09 2.09 0 0 0 2.075 1.828z" fill="#EAD57D"/>
    <path d="m43.968 178.136 3.11 28.416a2.385 2.385 0 0 0 2.373 2.127h13.22l-.029.224a2.09 2.09 0 0 1-2.076 1.828H45.885a2.09 2.09 0 0 1-2.076-1.828l-3.922-30.767h4.08z" fill="#E5C66E"/>
    <path d="M45.883 210.731h14.681a2.09 2.09 0 0 0 2.076-1.828l3.922-30.768H39.887l3.921 30.768a2.09 2.09 0 0 0 2.075 1.828z" stroke="#283035" stroke-linecap="round" stroke-linejoin="round"/>
    <path d="m65.556 201.874 1.896-14.881H38.996l1.896 14.881h24.664z" fill="#5CBF84"/>
    <path d="m65.556 201.874 1.896-14.881H38.996l1.896 14.881h24.664z" fill="#4FB277"/>
    <path d="m65.438 200.155 1.59-13.162H43.165l1.466 12.117a1.187 1.187 0 0 0 1.178 1.045h19.629z" fill="#5CBF84"/>
    <path d="m65.556 201.874 1.896-14.881H38.996l1.896 14.881h24.664z" stroke="#283035" stroke-linecap="round" stroke-linejoin="round"/>
    <path d="M38.173 178.136h30.102a3.289 3.289 0 1 0 0-6.578H38.173a3.29 3.29 0 0 0 0 6.578z" fill="#5CBF84"/>
    <path d="M38.173 178.136h30.102a3.289 3.289 0 1 0 0-6.578H38.173a3.29 3.29 0 0 0 0 6.578z" fill="#4FB277"/>
    <path d="M41.574 176.716h27.411a2.58 2.58 0 0 0 0-5.158H41.574a2.58 2.58 0 0 0 0 5.158z" fill="#5CBF84"/>
    <path d="M38.173 178.136h30.102a3.289 3.289 0 1 0 0-6.578H38.173a3.29 3.29 0 0 0 0 6.578z" stroke="#283035" stroke-linecap="round" stroke-linejoin="round"/>
    <path d="M41.264 171.558h23.92l-.474-3.588H41.737l-.473 3.588z" fill="#5CBF84"/>
    <path d="M41.737 167.97h7.018l-1.66 3.588h-5.831l.473-3.588z" fill="#54AF79"/>
    <path d="M41.264 171.558h23.92l-.474-3.588H41.737l-.473 3.588z" stroke="#283035" stroke-linecap="round" stroke-linejoin="round"/>
    <path d="M92.9 130.32h100.995a5.116 5.116 0 0 1 5.117 5.117v66.643H87.784v-66.643a5.117 5.117 0 0 1 5.115-5.117z" fill="#D2DCE6"/>
    <path d="M92.9 130.32h100.995a5.116 5.116 0 0 1 5.117 5.117v66.643H87.784v-66.643a5.117 5.117 0 0 1 5.115-5.117z" stroke="#283035" stroke-linecap="round" stroke-linejoin="round"/>
    <path d="M190.64 193.793v-55.016H96.156v55.016h94.484z" fill="#FF5C5C"/>
    <path opacity=".3" d="M150.997 185.016h15.548" stroke="#fff" stroke-width="6" stroke-linecap="round" stroke-linejoin="round"/>
    <g opacity=".3" fill="#fff">
        <path opacity=".3" d="M188.902 167.914a1.338 1.338 0 0 1 1.36.94v-3.425a3.685 3.685 0 0 0-1.011-.148h-.349c-.752 0-1.128.377-1.128 1.129v.402c0 .726.376 1.102 1.128 1.102zM190.262 184.332a1.34 1.34 0 0 1-1.36.933c-.752 0-1.128.375-1.128 1.127v.403c0 .752.376 1.128 1.128 1.129h.349a3.685 3.685 0 0 0 1.011-.148v-3.444z"/>
    </g>
    <path d="M190.64 193.793v-55.016H96.156v55.016h94.484z" stroke="#283035" stroke-linecap="round" stroke-linejoin="round"/>
    <path d="M75.51 202.124h135.776a1.196 1.196 0 0 1 1.196 1.196v1.433a5.983 5.983 0 0 1-5.98 5.98H80.294a5.978 5.978 0 0 1-5.98-5.98v-1.433a1.197 1.197 0 0 1 1.197-1.196z" fill="#E5E5E5"/>
    <path d="M206.501 208.04H80.293a5.976 5.976 0 0 1-5.908-5.109 1.185 1.185 0 0 0-.07.389v1.432a5.978 5.978 0 0 0 5.98 5.98h126.207a5.98 5.98 0 0 0 5.98-5.98v-1.432a1.177 1.177 0 0 0-.07-.389 5.976 5.976 0 0 1-5.911 5.109z" fill="#CFD1D0"/>
    <path d="M75.51 202.124h135.776a1.196 1.196 0 0 1 1.196 1.196v1.433a5.983 5.983 0 0 1-5.98 5.98H80.294a5.978 5.978 0 0 1-5.98-5.98v-1.433a1.197 1.197 0 0 1 1.197-1.196z" stroke="#283035" stroke-linecap="round" stroke-linejoin="round"/>
    <path d="M130.84 202.08h25.116a2.39 2.39 0 0 1-2.392 2.392h-20.332a2.392 2.392 0 0 1-2.392-2.392z" fill="#686B6D"/>
    <path d="M130.84 202.08h25.116a2.39 2.39 0 0 1-2.392 2.392h-20.332a2.392 2.392 0 0 1-2.392-2.392z" stroke="#283035" stroke-linecap="round" stroke-linejoin="round"/>
    <path d="M143.163 136.828a2.393 2.393 0 1 0-.001-4.785 2.393 2.393 0 0 0 .001 4.785z" fill="#686B6D"/>
    <path d="M143.163 136.828a2.393 2.393 0 1 0-.001-4.785 2.393 2.393 0 0 0 .001 4.785z" stroke="#283035" stroke-linecap="round" stroke-linejoin="round"/>
    <path d="M215.619 210.761a8.67 8.67 0 0 1 14.779-6.096 8.67 8.67 0 0 1 2.557 6.096h-17.336z" fill="#E5E5E5"/>
    <path d="M224.287 208.023a8.686 8.686 0 0 0 6.571-2.911 8.653 8.653 0 0 0-6.571-3.019 8.663 8.663 0 0 0-6.571 3.019 8.686 8.686 0 0 0 6.571 2.911z" fill="#CFD1D0"/>
    <path d="M215.619 210.761a8.67 8.67 0 0 1 14.779-6.096 8.67 8.67 0 0 1 2.557 6.096h-17.336z" stroke="#283035" stroke-linecap="round" stroke-linejoin="round"/>
    <path d="M157.572 149.435h-45.443a2.394 2.394 0 0 0-2.394 2.394v35.277a2.394 2.394 0 0 0 2.394 2.395h45.443a2.395 2.395 0 0 0 2.395-2.395v-35.277a2.394 2.394 0 0 0-2.395-2.394z" fill="#000" style="mix-blend-mode:multiply" opacity=".14"/>
    <path d="M155.231 147.342h-45.444a2.394 2.394 0 0 0-2.394 2.394v35.277a2.394 2.394 0 0 0 2.394 2.395h45.444a2.394 2.394 0 0 0 2.394-2.395v-35.277a2.394 2.394 0 0 0-2.394-2.394z" fill="#353F49"/>
    <path d="M155.231 147.342h-45.444a2.394 2.394 0 0 0-2.394 2.394v35.277a2.394 2.394 0 0 0 2.394 2.395h45.444a2.394 2.394 0 0 0 2.394-2.395v-35.277a2.394 2.394 0 0 0-2.394-2.394z" stroke="#283035" stroke-linecap="round" stroke-linejoin="round"/>
    <path d="M109.787 147.342h45.444a2.394 2.394 0 0 1 2.394 2.394v3.586h-50.232v-3.586a2.394 2.394 0 0 1 2.394-2.394z" fill="#EAEEEF"/>
    <path d="M109.787 147.342h45.444a2.394 2.394 0 0 1 2.394 2.394v3.586h-50.232v-3.586a2.394 2.394 0 0 1 2.394-2.394z" stroke="#283035" stroke-linecap="round" stroke-linejoin="round"/>
    <path opacity=".35" d="M111.679 151.266a.934.934 0 1 0 0-1.868.934.934 0 0 0 0 1.868zM114.618 151.266a.934.934 0 1 0 .002-1.868.934.934 0 0 0-.002 1.868zM117.409 151.266a.934.934 0 1 0 .002-1.868.934.934 0 0 0-.002 1.868z" fill="#283035"/>
    <path d="M109.735 155.415h3.289M114.22 155.415h8.97" stroke="#46BB86" stroke-width="3" stroke-miterlimit="10"/>
    <path d="M109.735 157.807h13.455" stroke="#389ABE" stroke-width="3" stroke-miterlimit="10"/>
    <path d="M112.426 160.198h6.578" stroke="#E5C689" stroke-width="3" stroke-miterlimit="10"/>
    <path d="M120.2 160.198h7.176M116.014 162.591h13.754" stroke="#F2F3F4" stroke-width="3" stroke-miterlimit="10"/>
    <path d="M116.014 164.983h10.166" stroke="#FFA49F" stroke-width="3" stroke-miterlimit="10"/>
    <path d="M112.426 167.375h14.95" stroke="#F2F3F4" stroke-width="3" stroke-miterlimit="10"/>
    <path d="M109.735 169.468h8.073" stroke="#389ABE" stroke-width="3" stroke-miterlimit="10"/>
    <path opacity=".3" d="M179.293 181.051c0-1.182-.456-2.014-1.37-2.524-.644-.35-.913-.618-.913-1.236v-1.046c0-.725.323-.887.886-1.263.941-.403 1.397-1.262 1.397-2.551v-2.283c0-1.827.672-3.17 1.639-3.734a4.495 4.495 0 0 1 2.471-.832h.349c.752 0 1.128.376 1.128 1.128v.401c0 .725-.376 1.101-1.128 1.101-1.047 0-1.558.752-1.558 2.283v2.82a3.568 3.568 0 0 1-.492 1.953 3.567 3.567 0 0 1-1.469 1.378l-.241.08v.054c.275.081.531.219.752.403.671.403 1.45 1.343 1.45 2.981v3.143c0 1.504.51 2.256 1.558 2.256.752 0 1.128.376 1.128 1.128v.403c0 .752-.376 1.128-1.128 1.128h-.349a4.489 4.489 0 0 1-2.471-.833c-.967-.564-1.639-1.933-1.639-3.733v-2.605z" fill="#fff"/>
    <path d="m44.528 195.451.598-.582a12.738 12.738 0 0 0 16.045 0l.748.731M51.315 192.436a1.28 1.28 0 0 0-2.56 0v1.173M55.132 192.436a1.28 1.28 0 0 1 2.56 0v1.173" stroke="#283035" stroke-linecap="round" stroke-linejoin="round"/>
    <path d="m271.632 207.482-2.962.412 1.893 2.755 1.069-3.167z" fill="#E5E5E5"/>
    <path d="m271.632 207.482-2.962.412 1.893 2.755 1.069-3.167z" stroke="#283035" stroke-linecap="round" stroke-linejoin="round"/>
    <path d="M263.312 171.891H240.05a2.72 2.72 0 0 0-2.721 2.721v33.428a2.72 2.72 0 0 0 2.721 2.721h23.262a2.721 2.721 0 0 0 2.721-2.721v-33.428a2.721 2.721 0 0 0-2.721-2.721z" fill="#E5E5E5"/>
    <path d="M263.312 171.891h-.345c.05.206.075.416.076.628v33.428a2.723 2.723 0 0 1-2.721 2.721h-22.916c.141.595.48 1.126.959 1.506.48.379 1.074.586 1.686.587h23.263a2.725 2.725 0 0 0 2.721-2.721v-33.428a2.718 2.718 0 0 0-.798-1.925 2.726 2.726 0 0 0-1.925-.796z" fill="#CFD1D0"/>
    <path d="M263.312 171.891H240.05a2.72 2.72 0 0 0-2.721 2.721v33.428a2.72 2.72 0 0 0 2.721 2.721h23.262a2.721 2.721 0 0 0 2.721-2.721v-33.428a2.721 2.721 0 0 0-2.721-2.721z" stroke="#283035" stroke-linecap="round" stroke-linejoin="round"/>
    <path d="M256.464 169.635h-2.392v-.897a2.393 2.393 0 0 0-4.784 0v.897h-2.392a2.39 2.39 0 0 0-2.392 2.392 2.392 2.392 0 0 0 2.392 2.392h9.568c.635 0 1.243-.252 1.692-.7a2.395 2.395 0 0 0 0-3.383 2.392 2.392 0 0 0-1.692-.701z" fill="#F7B66F"/>
    <path d="M257.576 169.91a2.382 2.382 0 0 1-1.247 2.769c-.33.163-.693.247-1.06.245h-9.568c-.387 0-.769-.094-1.112-.274a2.395 2.395 0 0 0 2.308 1.769h9.568c.534 0 1.053-.18 1.474-.509a2.396 2.396 0 0 0 .705-2.863 2.391 2.391 0 0 0-1.068-1.137zM252.877 167.243v.897h1.117a2.39 2.39 0 0 0-1.202-1.519c.056.203.084.412.085.622z" fill="#EDA762"/>
    <path d="M256.464 169.635h-2.392v-.897a2.393 2.393 0 0 0-4.784 0v.897h-2.392a2.39 2.39 0 0 0-2.392 2.392 2.392 2.392 0 0 0 2.392 2.392h9.568c.635 0 1.243-.252 1.692-.7a2.395 2.395 0 0 0 0-3.383 2.392 2.392 0 0 0-1.692-.701z" stroke="#283035" stroke-linecap="round" stroke-linejoin="round"/>
    <path d="M251.681 183.09a2.49 2.49 0 1 0 0-4.981 2.49 2.49 0 0 0 0 4.981z" fill="#8EAFBF"/>
    <path d="M251.681 183.09a2.49 2.49 0 1 0 0-4.981 2.49 2.49 0 0 0 0 4.981zM242.179 188.273h5.98M242.179 196.396h5.98M242.179 204.519h5.98" stroke="#283035" stroke-linecap="round" stroke-linejoin="round"/>
    <path d="m252.11 187.953 1.559 2.074 4.666-3.507M252.11 196.076l1.559 2.074 4.666-3.508" stroke="#8BAFC1" stroke-linecap="round" stroke-linejoin="round"/>
    <path d="m268.994 188.529-2.962.412 2.638 18.953 2.961-.412-2.637-18.953z" fill="#3BBC88"/>
    <path d="m268.994 188.529-2.962.412 2.638 18.953 2.961-.412-2.637-18.953z" stroke="#283035" stroke-linecap="round" stroke-linejoin="round"/>
    <path d="m267.9 185.518-1.776.248.412 2.96 1.776-.247-.412-2.961z" fill="#E5E5E5"/>
    <path d="m267.9 185.518-1.776.248.412 2.96 1.776-.247-.412-2.961zM271.671 196.008a5.61 5.61 0 0 1-.701-1.789c-.331-1.625.485-2.553.044-3.478-.176-.369-.261-.872-1.582-1.063M275.304 210.761h7.699M70.065 210.761H271.94M34.31 210.761h32.252M24.02 210.761h6.927" stroke="#283035" stroke-linecap="round" stroke-linejoin="round"/>
    <path d="M150.997 68.047a7.175 7.175 0 0 0 7.176-7.176 7.176 7.176 0 1 0-7.176 7.176z" fill="#fff"/>
    <path d="M130.397 62.491a2.583 2.583 0 0 1-2.553-2.898c1.395-11.843 11.229-21.022 23.153-21.022s21.758 9.18 23.152 21.022a2.574 2.574 0 0 1-.624 2.023 2.587 2.587 0 0 1-1.929.875h-41.199z" fill="#F7B66F"/>
    <path d="M154.585 38.853c-.077-.012-.155-.02-.232-.032-.272-.04-.545-.076-.82-.107-.125-.014-.251-.025-.376-.037a18.742 18.742 0 0 0-.684-.054c-.133-.008-.265-.018-.398-.024a22.97 22.97 0 0 0-1.077-.028c-.358 0-.717.01-1.072.028-.165.008-.327.02-.491.032a22.446 22.446 0 0 0-1.483.15c-10.771 1.442-19.234 10.416-20.186 21.602a1.93 1.93 0 0 0 1.146 1.943c.246.108.511.164.779.165h42.613a1.926 1.926 0 0 0 1.929-2.076c-.924-11.014-9.125-19.895-19.648-21.562zm-18.83 17.039a23.714 23.714 0 0 1 15.022-16.086 23.703 23.703 0 0 1 15.038 16.086 3.223 3.223 0 0 1-1.688 3.728c-.445.219-.934.331-1.429.33h-23.826a3.215 3.215 0 0 1-3.167-2.593 3.224 3.224 0 0 1 .05-1.465z" fill="#EFAA65"/>
    <path d="M130.417 62.491a2.6 2.6 0 0 1-2.571-2.918c1.404-11.834 11.234-21.002 23.151-21.002s21.747 9.168 23.15 21.002a2.593 2.593 0 0 1-.629 2.038 2.596 2.596 0 0 1-1.942.88h-41.159z" stroke="#283035" stroke-linecap="round" stroke-linejoin="round"/>
    <path d="M150.997 0v38.571" stroke="#283035" stroke-linejoin="round"/>
    <defs>
        <linearGradient id="f82bgk2doa" x1="150.997" y1="58.223" x2="150.997" y2="215.042" gradientUnits="userSpaceOnUse">
            <stop stop-color="#fff"/>
            <stop offset=".093" stop-color="#fff" stop-opacity=".864"/>
            <stop offset=".284" stop-color="#fff" stop-opacity=".605"/>
            <stop offset=".466" stop-color="#fff" stop-opacity=".389"/>
            <stop offset=".633" stop-color="#fff" stop-opacity=".221"/>
            <stop offset=".784" stop-color="#fff" stop-opacity=".1"/>
            <stop offset=".911" stop-color="#fff" stop-opacity=".026"/>
            <stop offset="1" stop-color="#fff" stop-opacity="0"/>
        </linearGradient>
    </defs>
</svg>
