<svg width="389" height="390" viewBox="0 0 389 390" fill="none" xmlns="http://www.w3.org/2000/svg">
    <g clip-path="url(#139lgql7ia)">
        <g opacity=".39" fill="#fff">
            <path opacity=".39" d="M69.224 187.072a7.925 7.925 0 0 0 7.923-7.927c0-4.378-3.547-7.928-7.923-7.928a7.926 7.926 0 0 0-7.923 7.928 7.925 7.925 0 0 0 7.923 7.927z"/>
            <path opacity=".39" d="M69.224 182.543a3.397 3.397 0 0 0 3.396-3.398 3.397 3.397 0 1 0-6.791 0 3.397 3.397 0 0 0 3.395 3.398z"/>
            <path opacity=".39" d="m81.56 167.772-4.9 2.832.007.012a11.534 11.534 0 0 0-1.13-.868l.013.004 1.465-5.47a1.698 1.698 0 0 0-1.2-2.08l-3.827-1.026a1.698 1.698 0 0 0-2.08 1.201l-1.464 5.47h.008c-.47.032-.936.093-1.398.184l.006-.004-2.83-4.904a1.705 1.705 0 0 0-1.692-.835 1.705 1.705 0 0 0-.627.213l-3.43 1.983a1.702 1.702 0 0 0-.622 2.321l2.83 4.903.005-.003c-.31.355-.596.73-.86 1.121l.003-.007-5.467-1.466a1.698 1.698 0 0 0-2.08 1.201l-1.024 3.829a1.7 1.7 0 0 0 1.2 2.08l5.467 1.466.003-.013c.033.474.095.946.187 1.412l-.008-.012-4.9 2.831a1.698 1.698 0 0 0-.623 2.32l1.982 3.433a1.709 1.709 0 0 0 1.031.792 1.694 1.694 0 0 0 1.289-.17l4.9-2.831-.01-.019c.362.317.744.61 1.144.877l-.024-.006-1.465 5.469a1.7 1.7 0 0 0 1.2 2.081l3.827 1.026a1.701 1.701 0 0 0 2.08-1.201l1.464-5.47-.029-.008a11.25 11.25 0 0 0 1.44-.189l-.025.015 2.83 4.903a1.709 1.709 0 0 0 1.031.792 1.687 1.687 0 0 0 1.288-.17l3.431-1.983a1.698 1.698 0 0 0 .622-2.32l-2.83-4.904-.025.014c.32-.364.615-.75.884-1.153l-.008.029 5.467 1.466a1.713 1.713 0 0 0 1.288-.17 1.705 1.705 0 0 0 .791-1.032l1.025-3.828a1.692 1.692 0 0 0-.17-1.289 1.709 1.709 0 0 0-1.03-.792l-5.47-1.463-.007.023c-.031-.48-.094-.957-.187-1.429l.011.019 4.902-2.831a1.7 1.7 0 0 0 .621-2.321l-1.982-3.433a1.698 1.698 0 0 0-2.318-.622z"/>
        </g>
        <path opacity=".39" d="M117.65 106.698c11.063 0 20.032-8.974 20.032-20.043 0-11.07-8.969-20.044-20.032-20.044-11.064 0-20.032 8.974-20.032 20.044s8.968 20.043 20.032 20.043z" fill="#fff"/>
        <path d="m117.375 86.872 10.821-6.292-.033 11.772-10.822 6.292.034-11.772z" stroke="#1E223B" stroke-linecap="round" stroke-linejoin="round"/>
        <path d="m107.136 80.958 10.822-6.292 10.238 5.914-10.821 6.292-10.239-5.914z" stroke="#1E223B" stroke-linecap="round" stroke-linejoin="round"/>
        <path d="m107.136 80.958 10.822-6.292 10.238 5.914-10.821 6.292-10.239-5.914z" fill="#028B9E" stroke="#1E223B" stroke-linecap="round" stroke-linejoin="round"/>
        <path opacity=".4" d="m117.375 86.872-.034 11.772-10.238-5.915.033-11.77 10.239 5.913z" fill="#028B9E" stroke="#1E223B" stroke-linecap="round" stroke-linejoin="round"/>
        <path d="m117.375 86.872-.034 11.772-10.238-5.915.033-11.77 10.239 5.913z" stroke="#1E223B" stroke-linecap="round" stroke-linejoin="round"/>
        <path d="M117.65 106.698c11.063 0 20.032-8.974 20.032-20.043 0-11.07-8.969-20.044-20.032-20.044-11.064 0-20.032 8.974-20.032 20.044s8.968 20.043 20.032 20.043z" stroke="#1E223B" stroke-linecap="round" stroke-linejoin="round"/>
        <g style="mix-blend-mode:multiply" opacity=".11">
            <path d="M257.066 242.53H147.478a6.997 6.997 0 0 0-6.995 6.999v78.544a6.997 6.997 0 0 0 6.995 6.999h109.588a6.996 6.996 0 0 0 6.995-6.999v-78.544a6.996 6.996 0 0 0-6.995-6.999z" fill="#161616"/>
            <path d="M257.066 242.53H147.478a6.997 6.997 0 0 0-6.995 6.999v78.544a6.997 6.997 0 0 0 6.995 6.999h109.588a6.996 6.996 0 0 0 6.995-6.999v-78.544a6.996 6.996 0 0 0-6.995-6.999z" stroke="#1E223B" stroke-miterlimit="10"/>
        </g>
        <g style="mix-blend-mode:multiply" opacity=".11">
            <path d="M261.341 237.086H143.203a2.721 2.721 0 0 0 0 5.444h118.138a2.721 2.721 0 0 0 0-5.444z" fill="#161616"/>
            <path d="M261.341 237.086H143.203a2.721 2.721 0 0 0 0 5.444h118.138a2.721 2.721 0 0 0 0-5.444z" stroke="#1E223B" stroke-miterlimit="10"/>
        </g>
        <path d="M253.18 239.419H143.592a6.997 6.997 0 0 0-6.995 6.999v78.545a6.997 6.997 0 0 0 6.995 6.999H253.18a6.997 6.997 0 0 0 6.995-6.999v-78.545a6.997 6.997 0 0 0-6.995-6.999z" fill="#2F4584"/>
        <path d="M253.18 239.419H143.592a6.997 6.997 0 0 0-6.995 6.999v76.212a6.997 6.997 0 0 0 6.995 6.999H253.18a6.997 6.997 0 0 0 6.995-6.999v-76.212a6.997 6.997 0 0 0-6.995-6.999z" fill="#fff"/>
        <g style="mix-blend-mode:multiply" opacity=".11">
            <path d="M216.845 324.118h-.583a2.332 2.332 0 0 0-2.331 2.333v2.789a1.166 1.166 0 1 1-2.332 0v-2.789a2.334 2.334 0 0 0-2.332-2.333h-.583a2.332 2.332 0 0 0-2.331 2.333v2.789a1.166 1.166 0 1 1-2.332 0v-2.789a2.334 2.334 0 0 0-2.332-2.333h-.583a2.332 2.332 0 0 0-2.331 2.333v2.789a1.166 1.166 0 1 1-2.332 0v-17.497a2.336 2.336 0 0 0-2.332-2.333h-.583a2.332 2.332 0 0 0-2.331 2.333v30.497l-4.472-7.751a2.317 2.317 0 0 0-2.325-1.148c-.304.04-.597.14-.862.293l-.505.292a2.326 2.326 0 0 0-1.148 2.326c.04.304.14.597.293.862l9.344 16.193a4.665 4.665 0 0 0 4.335 2.955h.777v9.586H195.1v9.669h-.752a2.524 2.524 0 0 0-2.52 2.522v11.767h26.72v-11.767a2.524 2.524 0 0 0-2.521-2.522h-.755v-9.669h-1.536v-9.586h.777a4.663 4.663 0 0 0 4.664-4.666v-25.145a2.334 2.334 0 0 0-2.332-2.333z" fill="#161616"/>
            <path d="M216.845 324.118h-.583a2.332 2.332 0 0 0-2.331 2.333v2.789a1.166 1.166 0 1 1-2.332 0v-2.789a2.334 2.334 0 0 0-2.332-2.333h-.583a2.332 2.332 0 0 0-2.331 2.333v2.789a1.166 1.166 0 1 1-2.332 0v-2.789a2.334 2.334 0 0 0-2.332-2.333h-.583a2.332 2.332 0 0 0-2.331 2.333v2.789a1.166 1.166 0 1 1-2.332 0v-17.497a2.336 2.336 0 0 0-2.332-2.333h-.583a2.332 2.332 0 0 0-2.331 2.333v30.497l-4.472-7.751a2.317 2.317 0 0 0-2.325-1.148c-.304.04-.597.14-.862.293l-.505.292a2.326 2.326 0 0 0-1.148 2.326c.04.304.14.597.293.862l9.344 16.193a4.665 4.665 0 0 0 4.335 2.955h.777v9.586H195.1v9.669h-.752a2.524 2.524 0 0 0-2.52 2.522v11.767h26.72v-11.767a2.524 2.524 0 0 0-2.521-2.522h-.755v-9.669h-1.536v-9.586h.777a4.663 4.663 0 0 0 4.664-4.666v-25.145a2.334 2.334 0 0 0-2.332-2.333z" stroke="#1E223B" stroke-miterlimit="10"/>
        </g>
        <g style="mix-blend-mode:multiply" opacity=".11">
            <path d="M172.18 322.63a4.661 4.661 0 0 0 4.642-4.25l8.597-14.899a2.334 2.334 0 0 0-.855-3.188l-.505-.292a2.344 2.344 0 0 0-1.771-.233 2.334 2.334 0 0 0-1.416 1.089l-4.032 6.988V278.11a2.333 2.333 0 0 0-2.331-2.333h-.583a2.33 2.33 0 0 0-2.332 2.333v17.497a1.169 1.169 0 0 1-1.166 1.167 1.166 1.166 0 0 1-1.166-1.167v-20.878c0-.619-.245-1.212-.682-1.65a2.335 2.335 0 0 0-1.649-.683h-.583a2.335 2.335 0 0 0-2.332 2.333v20.879a1.166 1.166 0 0 1-2.331 0V278.11a2.336 2.336 0 0 0-2.332-2.333h-.583a2.335 2.335 0 0 0-2.332 2.333v17.498a1.166 1.166 0 0 1-2.331 0v-11.957a2.336 2.336 0 0 0-2.332-2.333h-.583a2.335 2.335 0 0 0-2.332 2.333v34.313a4.67 4.67 0 0 0 4.664 4.666h1.002v9.585h-1.76v9.669h-.755a2.52 2.52 0 0 0-2.521 2.522v45.4h26.72v-45.4a2.519 2.519 0 0 0-2.52-2.522h-.756v-9.669h-1.309v-9.585h.555z" fill="#161616"/>
            <path d="M172.18 322.63a4.661 4.661 0 0 0 4.642-4.25l8.597-14.899a2.334 2.334 0 0 0-.855-3.188l-.505-.292a2.344 2.344 0 0 0-1.771-.233 2.334 2.334 0 0 0-1.416 1.089l-4.032 6.988V278.11a2.333 2.333 0 0 0-2.331-2.333h-.583a2.33 2.33 0 0 0-2.332 2.333v17.497a1.169 1.169 0 0 1-1.166 1.167 1.166 1.166 0 0 1-1.166-1.167v-20.878c0-.619-.245-1.212-.682-1.65a2.335 2.335 0 0 0-1.649-.683h-.583a2.335 2.335 0 0 0-2.332 2.333v20.879a1.166 1.166 0 0 1-2.331 0V278.11a2.336 2.336 0 0 0-2.332-2.333h-.583a2.335 2.335 0 0 0-2.332 2.333v17.498a1.166 1.166 0 0 1-2.331 0v-11.957a2.336 2.336 0 0 0-2.332-2.333h-.583a2.335 2.335 0 0 0-2.332 2.333v34.313a4.67 4.67 0 0 0 4.664 4.666h1.002v9.585h-1.76v9.669h-.755a2.52 2.52 0 0 0-2.521 2.522v45.4h26.72v-45.4a2.519 2.519 0 0 0-2.52-2.522h-.756v-9.669h-1.309v-9.585h.555z" stroke="#1E223B" stroke-miterlimit="10"/>
        </g>
        <path opacity=".15" d="M252.986 246.224h-109.2c-.858 0-1.554.696-1.554 1.555v43.938c0 .859.696 1.556 1.554 1.556h109.2c.859 0 1.555-.697 1.555-1.556v-43.938c0-.859-.696-1.555-1.555-1.555z" fill="#1E223B" stroke="#1E223B" stroke-miterlimit="11"/>
        <path d="M253.18 239.419H143.592a6.997 6.997 0 0 0-6.995 6.999v76.212a6.997 6.997 0 0 0 6.995 6.999H253.18a6.997 6.997 0 0 0 6.995-6.999v-76.212a6.997 6.997 0 0 0-6.995-6.999z" stroke="#1E223B" stroke-linecap="round" stroke-linejoin="round"/>
        <path d="M253.18 239.419H143.592a6.997 6.997 0 0 0-6.995 6.999v78.545a6.997 6.997 0 0 0 6.995 6.999H253.18a6.997 6.997 0 0 0 6.995-6.999v-78.545a6.997 6.997 0 0 0-6.995-6.999z" stroke="#1E223B" stroke-linecap="round" stroke-linejoin="round"/>
        <path d="M253.18 149.21H143.592a6.996 6.996 0 0 0-6.995 6.999v76.211a6.996 6.996 0 0 0 6.995 6.999H253.18a6.997 6.997 0 0 0 6.995-6.999v-76.211a6.997 6.997 0 0 0-6.995-6.999z" fill="#2F4584"/>
        <path d="M253.18 149.21H143.592a6.996 6.996 0 0 0-6.995 6.999v76.211a6.996 6.996 0 0 0 6.995 6.999H253.18a6.997 6.997 0 0 0 6.995-6.999v-76.211a6.997 6.997 0 0 0-6.995-6.999z" stroke="#1E223B" stroke-linecap="round" stroke-linejoin="round"/>
        <path d="M257.844 232.42v-76.211a4.665 4.665 0 0 0-4.664-4.666H143.592a4.665 4.665 0 0 0-4.663 4.666v76.211a4.665 4.665 0 0 0 4.663 4.666H253.18a4.665 4.665 0 0 0 4.664-4.666z" fill="#fff"/>
        <path d="M248.518 227.754v-66.879H148.256v66.879h100.262z" fill="#FF5855" stroke="#1E223B" stroke-miterlimit="10"/>
        <path d="M257.844 232.42v-76.211a4.665 4.665 0 0 0-4.664-4.666H143.592a4.665 4.665 0 0 0-4.663 4.666v76.211a4.665 4.665 0 0 0 4.663 4.666H253.18a4.665 4.665 0 0 0 4.664-4.666z" stroke="#1E223B" stroke-linecap="round" stroke-linejoin="round"/>
        <path d="M248.518 227.754v-66.879H148.256v66.879h100.262z" stroke="#1E223B" stroke-linecap="round" stroke-linejoin="round"/>
        <path opacity=".1" d="M213.445 296.967h-30.118c-.912 0-1.651.74-1.651 1.652v20.025c0 .913.739 1.653 1.651 1.653h30.118c.912 0 1.651-.74 1.651-1.653v-20.025c0-.912-.739-1.652-1.651-1.652z" fill="#1E223B"/>
        <path d="M213.445 296.967h-30.118c-.912 0-1.651.74-1.651 1.652v20.025c0 .913.739 1.653 1.651 1.653h30.118c.912 0 1.651-.74 1.651-1.653v-20.025c0-.912-.739-1.652-1.651-1.652z" stroke="#1E223B" stroke-linecap="round" stroke-linejoin="round"/>
        <path d="M213.347 328.851h-29.534v3.11h29.534v-3.11z" fill="#263C72"/>
        <path d="M213.347 328.851h-29.534v3.11h29.534v-3.11z" stroke="#1E223B" stroke-linecap="round" stroke-linejoin="round"/>
        <g style="mix-blend-mode:multiply" opacity=".11">
            <path d="M237.636 139.878h-73.059a2.333 2.333 0 0 0-2.332 2.333v82.433a2.333 2.333 0 0 0 2.332 2.333h73.059a2.332 2.332 0 0 0 2.331-2.333v-82.433a2.332 2.332 0 0 0-2.331-2.333z" fill="#161616"/>
            <path d="M237.636 139.878h-73.059a2.333 2.333 0 0 0-2.332 2.333v82.433a2.333 2.333 0 0 0 2.332 2.333h73.059a2.332 2.332 0 0 0 2.331-2.333v-82.433a2.332 2.332 0 0 0-2.331-2.333z" stroke="#1E223B" stroke-miterlimit="10"/>
        </g>
        <path d="M235.499 138.322H162.44a2.333 2.333 0 0 0-2.332 2.333v82.433a2.332 2.332 0 0 0 2.332 2.333h73.059a2.332 2.332 0 0 0 2.331-2.333v-82.433a2.333 2.333 0 0 0-2.331-2.333z" fill="#fff"/>
        <path d="M160.108 212.201h77.722v10.887a2.33 2.33 0 0 1-2.331 2.333H162.44a2.332 2.332 0 0 1-2.332-2.333v-10.887z" fill="#EFEFEF"/>
        <path d="M235.499 138.322H162.44a2.333 2.333 0 0 0-2.332 2.333v82.433a2.332 2.332 0 0 0 2.332 2.333h73.059a2.332 2.332 0 0 0 2.331-2.333v-82.433a2.333 2.333 0 0 0-2.331-2.333z" stroke="#1E223B" stroke-linecap="round" stroke-linejoin="round"/>
        <path d="M162.217 138.322h73.504a2.105 2.105 0 0 1 1.492.619 2.116 2.116 0 0 1 .617 1.492v4.889h-77.722v-4.889a2.117 2.117 0 0 1 .617-1.492 2.113 2.113 0 0 1 1.492-.619z" fill="#363D56"/>
        <path d="M162.217 138.322h73.504a2.105 2.105 0 0 1 1.492.619 2.116 2.116 0 0 1 .617 1.492v4.889h-77.722v-4.889a2.117 2.117 0 0 1 .617-1.492 2.113 2.113 0 0 1 1.492-.619z" stroke="#1E223B" stroke-linecap="round" stroke-linejoin="round"/>
        <path d="M237.83 145.321h-77.722v3.111h77.722v-3.111z" fill="#424960"/>
        <path d="M237.83 145.321h-77.722v3.111h77.722v-3.111z" stroke="#1E223B" stroke-linecap="round" stroke-linejoin="round"/>
        <path d="M164.448 142.988a1.166 1.166 0 1 0-.001-2.331 1.166 1.166 0 0 0 .001 2.331z" fill="#F73E39"/>
        <path d="M164.448 142.988a1.166 1.166 0 1 0-.001-2.331 1.166 1.166 0 0 0 .001 2.331z" stroke="#1E223B" stroke-linecap="round" stroke-linejoin="round"/>
        <path d="M169.215 142.988a1.166 1.166 0 1 0 0-2.332 1.166 1.166 0 0 0 0 2.332z" fill="#383838"/>
        <path d="M169.215 142.988a1.166 1.166 0 1 0 0-2.332 1.166 1.166 0 0 0 0 2.332z" stroke="#1E223B" stroke-linecap="round" stroke-linejoin="round"/>
        <path d="M173.578 142.988a1.166 1.166 0 1 0 0-2.332 1.166 1.166 0 0 0 0 2.332z" fill="#C6C6C6"/>
        <path d="M173.578 142.988a1.166 1.166 0 1 0 0-2.332 1.166 1.166 0 0 0 0 2.332z" stroke="#1E223B" stroke-linecap="round" stroke-linejoin="round"/>
        <path opacity=".28" d="M204.215 140.655h-24.094a1.166 1.166 0 0 0 0 2.333h24.094a1.166 1.166 0 1 0 0-2.333z" fill="#8289A3"/>
        <path d="M69.224 187.072a7.925 7.925 0 0 0 7.923-7.927c0-4.378-3.547-7.928-7.923-7.928a7.926 7.926 0 0 0-7.923 7.928 7.925 7.925 0 0 0 7.923 7.927z" stroke="#1E223B" stroke-linecap="round" stroke-linejoin="round"/>
        <path d="M69.224 182.543a3.397 3.397 0 0 0 3.396-3.398 3.397 3.397 0 1 0-6.791 0 3.397 3.397 0 0 0 3.395 3.398z" stroke="#1E223B" stroke-linecap="round" stroke-linejoin="round"/>
        <path d="m81.56 167.772-4.9 2.832.007.012a11.534 11.534 0 0 0-1.13-.868l.013.004 1.465-5.47a1.698 1.698 0 0 0-1.2-2.08l-3.827-1.026a1.698 1.698 0 0 0-2.08 1.201l-1.464 5.47h.008c-.47.032-.936.093-1.398.184l.006-.004-2.83-4.904a1.705 1.705 0 0 0-1.692-.835 1.705 1.705 0 0 0-.627.213l-3.43 1.983a1.702 1.702 0 0 0-.622 2.321l2.83 4.903.005-.003c-.31.355-.596.73-.86 1.121l.003-.007-5.467-1.466a1.698 1.698 0 0 0-2.08 1.201l-1.024 3.829a1.7 1.7 0 0 0 1.2 2.08l5.467 1.466.003-.013c.033.474.095.946.187 1.412l-.008-.012-4.9 2.831a1.698 1.698 0 0 0-.623 2.32l1.982 3.433a1.709 1.709 0 0 0 1.031.792 1.694 1.694 0 0 0 1.289-.17l4.9-2.831-.01-.019c.362.317.744.61 1.144.877l-.024-.006-1.465 5.469a1.7 1.7 0 0 0 1.2 2.081l3.827 1.026a1.701 1.701 0 0 0 2.08-1.201l1.464-5.47-.029-.008a11.25 11.25 0 0 0 1.44-.189l-.025.015 2.83 4.903a1.709 1.709 0 0 0 1.031.792 1.687 1.687 0 0 0 1.288-.17l3.431-1.983a1.698 1.698 0 0 0 .622-2.32l-2.83-4.904-.025.014c.32-.364.615-.75.884-1.153l-.008.029 5.467 1.466a1.713 1.713 0 0 0 1.288-.17 1.705 1.705 0 0 0 .791-1.032l1.025-3.828a1.692 1.692 0 0 0-.17-1.289 1.709 1.709 0 0 0-1.03-.792l-5.47-1.463-.007.023c-.031-.48-.094-.957-.187-1.429l.011.019 4.902-2.831a1.7 1.7 0 0 0 .621-2.321l-1.982-3.433a1.698 1.698 0 0 0-2.318-.622z" stroke="#1E223B" stroke-linecap="round" stroke-linejoin="round"/>
        <g opacity=".32" stroke="#1E223B" stroke-linecap="round" stroke-linejoin="round">
            <path opacity=".32" d="M175.629 164.481a3.001 3.001 0 1 0 0-6.002 3.001 3.001 0 0 0 0 6.002z"/>
            <path opacity=".32" d="M175.63 162.766a1.287 1.287 0 1 0-.001-2.573 1.287 1.287 0 0 0 .001 2.573z"/>
            <path opacity=".32" d="m181.976 161.74-2.07-.555v.005a4.212 4.212 0 0 0-.07-.535l.003.004 1.856-1.072a.645.645 0 0 0 .233-.878l-.75-1.3a.636.636 0 0 0-.641-.316.646.646 0 0 0-.237.08l-1.856 1.073v.002a4.336 4.336 0 0 0-.424-.326h.002l.555-2.071a.644.644 0 0 0-.454-.788l-1.45-.389a.642.642 0 0 0-.787.455l-.554 2.071h.002a4.295 4.295 0 0 0-.53.07h.003l-1.072-1.856a.642.642 0 0 0-.878-.236l-1.299.75a.64.64 0 0 0-.299.391.64.64 0 0 0 .064.488l1.071 1.857.004-.002a4.395 4.395 0 0 0-.328.427v-.005l-2.069-.555a.644.644 0 0 0-.788.455l-.388 1.449a.648.648 0 0 0 .454.789l2.07.555.002-.009c.013.182.037.363.072.542l-.005-.008-1.856 1.072a.633.633 0 0 0-.299.39.644.644 0 0 0 .064.489l.75 1.299a.68.68 0 0 0 .165.189.644.644 0 0 0 .713.047l1.856-1.072-.005-.01c.138.121.283.232.436.335l-.011-.003-.554 2.071a.644.644 0 0 0 .454.788l1.449.389a.64.64 0 0 0 .787-.455l.557-2.071-.01-.003c.182-.012.364-.037.544-.072l-.01.006 1.071 1.857a.646.646 0 0 0 .879.235l1.299-.75a.643.643 0 0 0 .235-.879l-1.071-1.857-.008.005c.12-.138.231-.282.332-.433v.008l2.07.555a.645.645 0 0 0 .787-.455l.389-1.45a.645.645 0 0 0-.455-.787z"/>
        </g>
        <g opacity=".49" fill="#fff">
            <path opacity=".49" d="M323.391 105.267a7.423 7.423 0 0 0 7.421-7.425c0-4.1-3.323-7.425-7.421-7.425a7.424 7.424 0 0 0-7.421 7.425 7.423 7.423 0 0 0 7.421 7.425z"/>
            <path opacity=".49" d="M323.391 101.024a3.181 3.181 0 1 0 0-6.363 3.181 3.181 0 0 0 0 6.363z"/>
            <path opacity=".49" d="m334.946 87.19-4.59 2.652.007.012a10.528 10.528 0 0 0-1.059-.813l.013.004 1.372-5.123a1.592 1.592 0 0 0-1.125-1.949l-3.584-.96a1.583 1.583 0 0 0-1.673.567 1.593 1.593 0 0 0-.275.557l-1.371 5.123.007.002c-.44.03-.878.088-1.311.173l.005-.004-2.65-4.593a1.59 1.59 0 0 0-2.172-.583l-3.214 1.856a1.581 1.581 0 0 0-.741.966 1.597 1.597 0 0 0 .158 1.208l2.651 4.593.005-.004c-.29.333-.559.684-.805 1.05v-.007l-5.12-1.373a1.587 1.587 0 0 0-1.947 1.125l-.961 3.586a1.595 1.595 0 0 0 1.125 1.949l5.12 1.372.003-.012c.03.444.089.886.175 1.322l-.007-.011-4.591 2.651a1.577 1.577 0 0 0-.466.41 1.601 1.601 0 0 0-.117 1.764l1.856 3.215a1.588 1.588 0 0 0 2.172.583l4.59-2.652-.01-.018c.339.297.697.571 1.071.822l-.022-.006-1.371 5.123a1.6 1.6 0 0 0 .158 1.207 1.607 1.607 0 0 0 .966.742l3.584.96a1.596 1.596 0 0 0 1.207-.159 1.596 1.596 0 0 0 .741-.966l1.371-5.122-.026-.008c.452-.03.903-.089 1.348-.177l-.023.013 2.65 4.593a1.578 1.578 0 0 0 .965.742 1.601 1.601 0 0 0 1.208-.158l3.213-1.857a1.578 1.578 0 0 0 .782-1.585 1.573 1.573 0 0 0-.2-.588l-2.65-4.593-.023.013c.299-.342.575-.702.828-1.08l-.007.027 5.12 1.373a1.589 1.589 0 0 0 1.947-1.125l.96-3.586a1.592 1.592 0 0 0-1.124-1.949l-5.12-1.372-.006.022c-.029-.45-.088-.897-.175-1.34l.01.018 4.591-2.652a1.589 1.589 0 0 0 .782-1.585 1.576 1.576 0 0 0-.2-.588l-1.85-3.214a1.596 1.596 0 0 0-1.587-.783 1.585 1.585 0 0 0-.588.2z"/>
        </g>
        <path d="M323.394 105.267a7.423 7.423 0 0 0 7.421-7.425c0-4.1-3.323-7.425-7.421-7.425a7.423 7.423 0 0 0-7.421 7.425 7.423 7.423 0 0 0 7.421 7.425z" stroke="#1E223B" stroke-linecap="round" stroke-linejoin="round"/>
        <path d="M323.394 101.024a3.181 3.181 0 0 0 3.18-3.182 3.181 3.181 0 1 0-3.18 3.182z" stroke="#1E223B" stroke-linecap="round" stroke-linejoin="round"/>
        <path d="m339.092 98.485-5.12-1.372-.004.013c-.03-.445-.088-.886-.174-1.323l.007.011 4.59-2.651a1.592 1.592 0 0 0 .583-2.174l-1.854-3.216a1.592 1.592 0 0 0-2.172-.583l-4.591 2.651.004.008c-.332-.291-.683-.56-1.049-.807h.006l1.372-5.123a1.592 1.592 0 0 0-1.124-1.949l-3.584-.96a1.592 1.592 0 0 0-1.948 1.124l-1.372 5.123h.007c-.441.03-.879.088-1.312.173l.007-.004-2.65-4.592a1.59 1.59 0 0 0-2.173-.584l-3.213 1.857a1.585 1.585 0 0 0-.782 1.585c.027.207.094.407.199.588l2.65 4.593.011-.006a10.5 10.5 0 0 0-.812 1.059l.004-.013-5.12-1.373a1.59 1.59 0 0 0-1.948 1.125l-.96 3.586a1.592 1.592 0 0 0 1.124 1.949l5.12 1.372.006-.02c.03.45.089.898.177 1.34l-.012-.02-4.59 2.652a1.578 1.578 0 0 0-.742.965 1.601 1.601 0 0 0 .159 1.208l1.855 3.215a1.592 1.592 0 0 0 2.172.583l4.591-2.651-.014-.025c.342.299.702.576 1.079.829l-.026-.007-1.372 5.123a1.596 1.596 0 0 0 .159 1.207 1.578 1.578 0 0 0 .965.742l3.584.961a1.58 1.58 0 0 0 1.207-.159 1.603 1.603 0 0 0 .741-.966l1.372-5.123-.026-.007c.453-.031.903-.09 1.348-.178l-.024.014 2.651 4.593c.104.18.243.339.408.467a1.577 1.577 0 0 0 1.176.315 1.59 1.59 0 0 0 .588-.199l3.213-1.856a1.607 1.607 0 0 0 .742-.966 1.596 1.596 0 0 0-.159-1.208l-2.65-4.593-.02.012c.297-.339.571-.697.822-1.071l-.005.019 5.12 1.373a1.592 1.592 0 0 0 1.948-1.125l.96-3.586a1.592 1.592 0 0 0-1.125-1.945z" stroke="#1E223B" stroke-linecap="round" stroke-linejoin="round"/>
        <path d="M228.297 98.487h-10.181l-10.625 7.087v-7.087h-7.526a3.54 3.54 0 0 1-3.541-3.544v-19.49a3.545 3.545 0 0 1 3.541-3.543h28.332a3.54 3.54 0 0 1 3.542 3.544v19.49a3.547 3.547 0 0 1-3.542 3.543z" fill="#fff"/>
        <path d="M228.297 98.487h-10.181l-10.625 7.087v-7.087h-7.526a3.54 3.54 0 0 1-3.541-3.544v-19.49a3.545 3.545 0 0 1 3.541-3.543h28.332a3.54 3.54 0 0 1 3.542 3.544v19.49a3.547 3.547 0 0 1-3.542 3.543z" stroke="#1E223B" stroke-linecap="round" stroke-linejoin="round"/>
        <path d="M252.583 315.721a5.144 5.144 0 0 1-6.145 5.046 5.146 5.146 0 0 1-1.853-9.324 5.13 5.13 0 0 1 4.824-.475 5.136 5.136 0 0 1 3.174 4.753z" fill="#DD4814"/>
        <path d="M243.945 315.033a.691.691 0 0 0-.635.423.692.692 0 0 0 .148.749.69.69 0 0 0 .748.15.693.693 0 0 0 .309-.252.692.692 0 0 0-.084-.868.701.701 0 0 0-.223-.15.7.7 0 0 0-.263-.052zm4.902 3.122a.685.685 0 0 0-.174 1.047.691.691 0 0 0 .737.198.693.693 0 0 0 .465-.605.688.688 0 0 0-1.028-.639v-.001zm-3.411-2.435a1.997 1.997 0 0 1 .853-1.642l-.502-.841a2.987 2.987 0 0 0-1.233 1.735.962.962 0 0 1 .262 1.162.98.98 0 0 1-.262.334c.184.71.623 1.328 1.233 1.735l.502-.842a2.006 2.006 0 0 1-.853-1.64v-.001zm2.006-2.007a2.008 2.008 0 0 1 1.997 1.828l.978-.015a2.975 2.975 0 0 0-.886-1.935.957.957 0 0 1-.823-.068.962.962 0 0 1-.47-.68 2.976 2.976 0 0 0-2.118.201l.477.855c.264-.122.553-.185.845-.185v-.001zm0 4.013a1.987 1.987 0 0 1-.845-.186l-.477.855a2.98 2.98 0 0 0 2.118.2.97.97 0 0 1 .47-.68.942.942 0 0 1 .404-.126.952.952 0 0 1 .419.059 2.977 2.977 0 0 0 .886-1.936l-.978-.014a2.007 2.007 0 0 1-1.997 1.83v-.002zm1.405-4.441a.692.692 0 0 0 .761-.05.692.692 0 0 0 .034-1.062.69.69 0 0 0-.756-.099.688.688 0 0 0-.039 1.212v-.001z" fill="#fff"/>
        <path d="m75.053 269.368 10.904-6.34-.034 11.86-10.904 6.34.034-11.86z" fill="#777BB4"/>
        <path d="m75.053 269.368 10.904-6.34-.034 11.86-10.904 6.34.034-11.86z" stroke="#1E223B" stroke-linecap="round" stroke-linejoin="round"/>
        <path opacity=".88" d="m64.738 263.409 10.903-6.341 10.316 5.96-10.903 6.34-10.316-5.959z" fill="#FF5855" stroke="#1E223B" stroke-miterlimit="10"/>
        <path d="m75.053 269.368-.034 11.86-10.315-5.959.033-11.86 10.316 5.959z" fill="#0270BB"/>
        <path d="m64.738 263.409 10.903-6.341 10.316 5.96-10.903 6.34-10.316-5.959zM75.053 269.368l-.034 11.86-10.315-5.959.033-11.86 10.316 5.959z" stroke="#1E223B" stroke-linecap="round" stroke-linejoin="round"/>
        <path opacity=".59" d="M67.053 252.64a2.333 2.333 0 1 0-.002-4.665 2.333 2.333 0 0 0 .002 4.665z" fill="#fff"/>
        <path d="M67.053 252.64a2.333 2.333 0 1 0-.002-4.665 2.333 2.333 0 0 0 .002 4.665z" stroke="#1E223B" stroke-linecap="round" stroke-linejoin="round"/>
        <path opacity=".59" d="M75.02 252.64a2.333 2.333 0 1 0-.002-4.665 2.333 2.333 0 0 0 .002 4.665z" fill="#fff"/>
        <path d="M75.02 252.64a2.333 2.333 0 1 0-.002-4.665 2.333 2.333 0 0 0 .002 4.665z" stroke="#1E223B" stroke-linecap="round" stroke-linejoin="round"/>
        <path opacity=".59" d="M82.986 252.64a2.333 2.333 0 1 0-.002-4.665 2.333 2.333 0 0 0 .002 4.665z" fill="#fff"/>
        <path opacity=".32" d="M348.682 217.937c8.477 0 15.35-6.876 15.35-15.359 0-8.482-6.873-15.359-15.35-15.359-8.478 0-15.35 6.877-15.35 15.359 0 8.483 6.872 15.359 15.35 15.359z" fill="#fff"/>
        <path d="M82.986 252.64a2.333 2.333 0 1 0-.002-4.665 2.333 2.333 0 0 0 .002 4.665z" stroke="#1E223B" stroke-linecap="round" stroke-linejoin="round"/>
        <path opacity=".12" d="m348.892 202.745-8.292-4.821.025 9.02 8.293 4.821-.026-9.02z" fill="#0270BB"/>
        <path d="m348.892 202.745-8.292-4.821.025 9.02 8.293 4.821-.026-9.02z" stroke="#1E223B" stroke-linecap="round" stroke-linejoin="round"/>
        <path opacity=".47" d="m356.738 198.213-8.293-4.822-7.845 4.533 8.292 4.821 7.846-4.532z" fill="#0270BB"/>
        <path d="m356.738 198.213-8.293-4.822-7.845 4.533 8.292 4.821 7.846-4.532z" stroke="#1E223B" stroke-linecap="round" stroke-linejoin="round"/>
        <path d="m348.892 202.745.026 9.02 7.845-4.532-.026-9.02-7.845 4.532z" fill="#fff" stroke="#1E223B" stroke-linecap="round" stroke-linejoin="round"/>
        <path d="m348.892 202.745.026 9.02 7.845-4.532-.026-9.02-7.845 4.532z" stroke="#1E223B" stroke-linecap="round" stroke-linejoin="round"/>
        <path d="M348.682 217.937c8.477 0 15.35-6.876 15.35-15.359 0-8.482-6.873-15.359-15.35-15.359-8.478 0-15.35 6.877-15.35 15.359 0 8.483 6.872 15.359 15.35 15.359z" stroke="#1E223B" stroke-linecap="round" stroke-linejoin="round"/>
        <path d="M310.88 106.727h-34.811a4.62 4.62 0 0 0-4.62 4.622v13.868a4.621 4.621 0 0 0 4.62 4.623h34.811c2.552 0 4.62-2.07 4.62-4.623v-13.868a4.62 4.62 0 0 0-4.62-4.622z" fill="#777BB4"/>
        <path d="M310.88 106.727h-34.811a4.62 4.62 0 0 0-4.62 4.622v13.868a4.621 4.621 0 0 0 4.62 4.623h34.811c2.552 0 4.62-2.07 4.62-4.623v-13.868a4.62 4.62 0 0 0-4.62-4.622z" stroke="#1E223B" stroke-linecap="round" stroke-linejoin="round"/>
        <path d="M340.283 212.105h-27.201a3.515 3.515 0 0 0-3.514 3.516v10.547a3.515 3.515 0 0 0 3.514 3.516h27.201a3.515 3.515 0 0 0 3.513-3.516v-10.547a3.515 3.515 0 0 0-3.513-3.516z" fill="#0270BB"/>
        <path d="M340.283 212.105h-27.201a3.515 3.515 0 0 0-3.514 3.516v10.547a3.515 3.515 0 0 0 3.514 3.516h27.201a3.515 3.515 0 0 0 3.513-3.516v-10.547a3.515 3.515 0 0 0-3.513-3.516z" stroke="#1E223B" stroke-linecap="round" stroke-linejoin="round"/>
        <path d="M314.847 220.788c0-2.513 1.865-4.209 4.266-4.209a3.653 3.653 0 0 1 3.255 1.818l-1.207.634a2.396 2.396 0 0 0-2.048-1.183c-1.609 0-2.804 1.22-2.804 2.94 0 1.695 1.195 2.939 2.804 2.939a2.44 2.44 0 0 0 2.048-1.183l1.219.61a3.72 3.72 0 0 1-3.267 1.842c-2.401 0-4.266-1.708-4.266-4.208z" fill="#fff"/>
        <path d="M225.03 215.798c.11.158.176.145.261.109.085-.036 4.457-1.513 4.591-1.561.134-.049.091-.091.048-.158-.042-.067-1.499-2.047-1.572-2.163-.073-.115-.109-.091-.225-.055l-4.634 1.206s1.422 2.463 1.531 2.621v.001zM230.252 213.781v-2.319l-1.441.384c.393.526 1.007 1.349 1.441 1.935zM228.807 208.991c-.072.016-1.653.303-1.749.315-.096.013-.065.069-.026.124l1.392 1.911s1.701-.423 1.806-.445l.024-.006v-.253a202.595 202.595 0 0 1-1.225-1.561c-.087-.12-.149-.101-.221-.085h-.001z" fill="#F35045"/>
        <path d="M218.856 205.99c.342-.016.373.063.523.286l3.781 6.323 4.753-1.139c-.263-.374-1.459-2.07-1.575-2.231-.129-.182.003-.267.214-.303.211-.035 2.03-.341 2.186-.363.156-.023.279-.078.533.227.129.156.569.703.981 1.217v-2.958a2.629 2.629 0 0 0-2.623-2.625h-8.744a2.534 2.534 0 0 0-1.853.77 2.588 2.588 0 0 0-.63.987c.857-.07 2.215-.18 2.454-.191z" fill="#F35045"/>
        <path d="M225.459 216.649c-.401.121-.581.182-.842-.183-.194-.272-1.253-2.178-1.771-3.118-.981.257-2.777.726-3.295.851a.638.638 0 0 1-.804-.369c-.058-.131-1.54-3.328-2.485-5.378v7.346a2.628 2.628 0 0 0 2.623 2.624h8.744a2.628 2.628 0 0 0 2.623-2.624v-.863c-1.073.392-4.523 1.633-4.793 1.714z" fill="#F35045"/>
        <path d="M219.565 213.462c.142-.032 2.804-.67 2.861-.682.057-.012.094-.045.033-.15l-3.549-6.129c-.032-.055-.023-.074-.11-.069-.078.004-2.052.18-2.509.218a2.85 2.85 0 0 0-.025.292c.464.95 3.126 6.443 3.141 6.488.015.044.016.065.158.032z" fill="#F35045"/>
        <path opacity=".32" d="M184.396 160.097h36.529M184.396 163.208h23.317" stroke="#1E223B" stroke-linecap="round" stroke-linejoin="round"/>
        <path opacity=".15" d="M173.515 178.372h36.53" stroke="#1E223B" stroke-linecap="round" stroke-linejoin="round"/>
        <path opacity=".32" d="M173.515 181.742h23.317M192.168 185.112h13.602" stroke="#1E223B" stroke-linecap="round" stroke-linejoin="round"/>
        <path opacity=".26" d="M173.515 185.112h16.322" stroke="#1E223B" stroke-linecap="round" stroke-linejoin="round"/>
        <path opacity=".15" d="M173.515 188.482h13.99" stroke="#1E223B" stroke-linecap="round" stroke-linejoin="round"/>
        <path d="M175.07 194.833a1.555 1.555 0 1 0 0 3.111h31.348v-3.111H175.07z" fill="#4AD3A5" stroke="#1E223B" stroke-miterlimit="10"/>
        <path d="M224.035 194.833H175.07a1.556 1.556 0 0 0 0 3.111h48.965a1.555 1.555 0 0 0 0-3.111z" stroke="#1E223B" stroke-linecap="round" stroke-linejoin="round"/>
        <path d="M251.529 235.531H145.244a.875.875 0 0 0-.875.875v3.305c0 .483.391.875.875.875h106.285a.874.874 0 0 0 .874-.875v-3.305a.874.874 0 0 0-.874-.875z" fill="#263C72"/>
        <path d="M252.403 235.531H144.369v5.055h108.034v-5.055z" stroke="#1E223B" stroke-linecap="round" stroke-linejoin="round"/>
        <path d="M251.237 247.974h-6.218c-.644 0-1.165.522-1.165 1.166v2.333c0 .644.521 1.167 1.165 1.167h6.218c.644 0 1.166-.523 1.166-1.167v-2.333c0-.644-.522-1.166-1.166-1.166zM238.802 247.974h-6.218c-.644 0-1.166.522-1.166 1.166v2.333c0 .644.522 1.167 1.166 1.167h6.218c.644 0 1.165-.523 1.165-1.167v-2.333c0-.644-.521-1.166-1.165-1.166zM226.366 247.974h-6.218c-.644 0-1.166.522-1.166 1.166v2.333c0 .644.522 1.167 1.166 1.167h6.218c.644 0 1.166-.523 1.166-1.167v-2.333c0-.644-.522-1.166-1.166-1.166zM213.93 247.974h-6.217c-.644 0-1.166.522-1.166 1.166v2.333c0 .644.522 1.167 1.166 1.167h6.217c.644 0 1.166-.523 1.166-1.167v-2.333c0-.644-.522-1.166-1.166-1.166zM201.495 247.974h-6.218c-.644 0-1.166.522-1.166 1.166v2.333c0 .644.522 1.167 1.166 1.167h6.218c.644 0 1.166-.523 1.166-1.167v-2.333c0-.644-.522-1.166-1.166-1.166zM189.059 247.974h-6.217c-.644 0-1.166.522-1.166 1.166v2.333c0 .644.522 1.167 1.166 1.167h6.217c.644 0 1.166-.523 1.166-1.167v-2.333c0-.644-.522-1.166-1.166-1.166zM176.624 247.974h-6.218c-.644 0-1.166.522-1.166 1.166v2.333c0 .644.522 1.167 1.166 1.167h6.218c.644 0 1.166-.523 1.166-1.167v-2.333c0-.644-.522-1.166-1.166-1.166zM164.188 247.974h-6.217c-.644 0-1.166.522-1.166 1.166v2.333c0 .644.522 1.167 1.166 1.167h6.217c.644 0 1.166-.523 1.166-1.167v-2.333c0-.644-.522-1.166-1.166-1.166zM151.753 247.974h-6.218c-.644 0-1.166.522-1.166 1.166v2.333c0 .644.522 1.167 1.166 1.167h6.218c.644 0 1.166-.523 1.166-1.167v-2.333c0-.644-.522-1.166-1.166-1.166zM226.366 257.88h-6.218c-.644 0-1.166.522-1.166 1.166v6.222c0 .644.522 1.166 1.166 1.166h6.218c.644 0 1.166-.522 1.166-1.166v-6.222c0-.644-.522-1.166-1.166-1.166zM213.93 257.88h-6.217c-.644 0-1.166.522-1.166 1.166v6.222c0 .644.522 1.166 1.166 1.166h6.217c.644 0 1.166-.522 1.166-1.166v-6.222c0-.644-.522-1.166-1.166-1.166zM201.495 257.88h-6.218c-.644 0-1.166.522-1.166 1.166v6.222c0 .644.522 1.166 1.166 1.166h6.218c.644 0 1.166-.522 1.166-1.166v-6.222c0-.644-.522-1.166-1.166-1.166zM189.059 257.88h-6.217c-.644 0-1.166.522-1.166 1.166v6.222c0 .644.522 1.166 1.166 1.166h6.217c.644 0 1.166-.522 1.166-1.166v-6.222c0-.644-.522-1.166-1.166-1.166zM176.624 257.88h-6.218c-.644 0-1.166.522-1.166 1.166v6.222c0 .644.522 1.166 1.166 1.166h6.218c.644 0 1.166-.522 1.166-1.166v-6.222c0-.644-.522-1.166-1.166-1.166zM164.188 257.88h-6.217c-.644 0-1.166.522-1.166 1.166v6.222c0 .644.522 1.166 1.166 1.166h6.217c.644 0 1.166-.522 1.166-1.166v-6.222c0-.644-.522-1.166-1.166-1.166zM151.753 257.88h-6.218c-.644 0-1.166.522-1.166 1.166v6.222c0 .644.522 1.166 1.166 1.166h6.218c.644 0 1.166-.522 1.166-1.166v-6.222c0-.644-.522-1.166-1.166-1.166zM251.237 257.88h-6.218c-.644 0-1.165.522-1.165 1.166v18.475c0 .644.521 1.166 1.165 1.166h6.218c.644 0 1.166-.522 1.166-1.166v-18.475c0-.644-.522-1.166-1.166-1.166z" fill="#363D56"/>
        <path d="M238.802 257.88h-6.218c-.31 0-.606.123-.824.342a1.163 1.163 0 0 0-.342.824v9.92a1.166 1.166 0 0 1-1.166 1.167h-10.104c-.309 0-.606.123-.824.342a1.163 1.163 0 0 0-.342.824v6.222c0 .309.123.606.342.824.218.219.515.342.824.342h18.654a1.165 1.165 0 0 0 1.165-1.166v-18.475a1.162 1.162 0 0 0-1.165-1.166zM213.93 270.133h-6.217c-.644 0-1.166.522-1.166 1.166v6.222c0 .644.522 1.166 1.166 1.166h6.217c.644 0 1.166-.522 1.166-1.166v-6.222c0-.644-.522-1.166-1.166-1.166zM201.495 270.133h-6.218c-.644 0-1.166.522-1.166 1.166v6.222c0 .644.522 1.166 1.166 1.166h6.218c.644 0 1.166-.522 1.166-1.166v-6.222c0-.644-.522-1.166-1.166-1.166zM189.059 270.133h-6.217c-.644 0-1.166.522-1.166 1.166v6.222c0 .644.522 1.166 1.166 1.166h6.217c.644 0 1.166-.522 1.166-1.166v-6.222c0-.644-.522-1.166-1.166-1.166zM176.624 270.133h-6.218c-.644 0-1.166.522-1.166 1.166v6.222c0 .644.522 1.166 1.166 1.166h6.218c.644 0 1.166-.522 1.166-1.166v-6.222c0-.644-.522-1.166-1.166-1.166zM164.188 270.133h-18.653c-.644 0-1.166.522-1.166 1.166v6.222c0 .644.522 1.166 1.166 1.166h18.653c.644 0 1.166-.522 1.166-1.166v-6.222c0-.644-.522-1.166-1.166-1.166zM251.237 282.385h-6.218c-.644 0-1.165.522-1.165 1.167v6.221c0 .644.521 1.167 1.165 1.167h6.218c.644 0 1.166-.523 1.166-1.167v-6.221c0-.645-.522-1.167-1.166-1.167zM238.802 282.385h-6.218c-.644 0-1.166.522-1.166 1.167v6.221c0 .644.522 1.167 1.166 1.167h6.218c.644 0 1.165-.523 1.165-1.167v-6.221c0-.645-.521-1.167-1.165-1.167zM226.366 282.385h-6.218c-.644 0-1.166.522-1.166 1.167v6.221c0 .644.522 1.167 1.166 1.167h6.218c.644 0 1.166-.523 1.166-1.167v-6.221c0-.645-.522-1.167-1.166-1.167zM213.931 282.385h-31.089c-.644 0-1.166.522-1.166 1.167v6.221c0 .644.522 1.167 1.166 1.167h31.089c.643 0 1.165-.523 1.165-1.167v-6.221c0-.645-.522-1.167-1.165-1.167zM176.624 282.385h-6.218c-.644 0-1.166.522-1.166 1.167v6.221c0 .644.522 1.167 1.166 1.167h6.218c.644 0 1.166-.523 1.166-1.167v-6.221c0-.645-.522-1.167-1.166-1.167zM164.188 282.385h-6.217c-.644 0-1.166.522-1.166 1.167v6.221c0 .644.522 1.167 1.166 1.167h6.217c.644 0 1.166-.523 1.166-1.167v-6.221c0-.645-.522-1.167-1.166-1.167zM151.753 282.385h-6.218c-.644 0-1.166.522-1.166 1.167v6.221c0 .644.522 1.167 1.166 1.167h6.218c.644 0 1.166-.523 1.166-1.167v-6.221c0-.645-.522-1.167-1.166-1.167z" fill="#363D56"/>
        <path d="M251.237 247.974h-6.218c-.644 0-1.165.522-1.165 1.166v2.333c0 .644.521 1.167 1.165 1.167h6.218c.644 0 1.166-.523 1.166-1.167v-2.333c0-.644-.522-1.166-1.166-1.166zM238.802 247.974h-6.218c-.644 0-1.166.522-1.166 1.166v2.333c0 .644.522 1.167 1.166 1.167h6.218c.644 0 1.165-.523 1.165-1.167v-2.333c0-.644-.521-1.166-1.165-1.166zM226.366 247.974h-6.218c-.644 0-1.166.522-1.166 1.166v2.333c0 .644.522 1.167 1.166 1.167h6.218c.644 0 1.166-.523 1.166-1.167v-2.333c0-.644-.522-1.166-1.166-1.166zM213.93 247.974h-6.217c-.644 0-1.166.522-1.166 1.166v2.333c0 .644.522 1.167 1.166 1.167h6.217c.644 0 1.166-.523 1.166-1.167v-2.333c0-.644-.522-1.166-1.166-1.166zM201.495 247.974h-6.218c-.644 0-1.166.522-1.166 1.166v2.333c0 .644.522 1.167 1.166 1.167h6.218c.644 0 1.166-.523 1.166-1.167v-2.333c0-.644-.522-1.166-1.166-1.166zM189.059 247.974h-6.217c-.644 0-1.166.522-1.166 1.166v2.333c0 .644.522 1.167 1.166 1.167h6.217c.644 0 1.166-.523 1.166-1.167v-2.333c0-.644-.522-1.166-1.166-1.166zM176.624 247.974h-6.218c-.644 0-1.166.522-1.166 1.166v2.333c0 .644.522 1.167 1.166 1.167h6.218c.644 0 1.166-.523 1.166-1.167v-2.333c0-.644-.522-1.166-1.166-1.166zM164.188 247.974h-6.217c-.644 0-1.166.522-1.166 1.166v2.333c0 .644.522 1.167 1.166 1.167h6.217c.644 0 1.166-.523 1.166-1.167v-2.333c0-.644-.522-1.166-1.166-1.166zM151.753 247.974h-6.218c-.644 0-1.166.522-1.166 1.166v2.333c0 .644.522 1.167 1.166 1.167h6.218c.644 0 1.166-.523 1.166-1.167v-2.333c0-.644-.522-1.166-1.166-1.166zM226.366 257.88h-6.218c-.644 0-1.166.522-1.166 1.166v6.222c0 .644.522 1.166 1.166 1.166h6.218c.644 0 1.166-.522 1.166-1.166v-6.222c0-.644-.522-1.166-1.166-1.166zM213.93 257.88h-6.217c-.644 0-1.166.522-1.166 1.166v6.222c0 .644.522 1.166 1.166 1.166h6.217c.644 0 1.166-.522 1.166-1.166v-6.222c0-.644-.522-1.166-1.166-1.166zM201.495 257.88h-6.218c-.644 0-1.166.522-1.166 1.166v6.222c0 .644.522 1.166 1.166 1.166h6.218c.644 0 1.166-.522 1.166-1.166v-6.222c0-.644-.522-1.166-1.166-1.166zM189.059 257.88h-6.217c-.644 0-1.166.522-1.166 1.166v6.222c0 .644.522 1.166 1.166 1.166h6.217c.644 0 1.166-.522 1.166-1.166v-6.222c0-.644-.522-1.166-1.166-1.166zM176.624 257.88h-6.218c-.644 0-1.166.522-1.166 1.166v6.222c0 .644.522 1.166 1.166 1.166h6.218c.644 0 1.166-.522 1.166-1.166v-6.222c0-.644-.522-1.166-1.166-1.166zM164.188 257.88h-6.217c-.644 0-1.166.522-1.166 1.166v6.222c0 .644.522 1.166 1.166 1.166h6.217c.644 0 1.166-.522 1.166-1.166v-6.222c0-.644-.522-1.166-1.166-1.166zM151.753 257.88h-6.218c-.644 0-1.166.522-1.166 1.166v6.222c0 .644.522 1.166 1.166 1.166h6.218c.644 0 1.166-.522 1.166-1.166v-6.222c0-.644-.522-1.166-1.166-1.166zM251.237 257.88h-6.218c-.644 0-1.165.522-1.165 1.166v18.475c0 .644.521 1.166 1.165 1.166h6.218c.644 0 1.166-.522 1.166-1.166v-18.475c0-.644-.522-1.166-1.166-1.166z" stroke="#1E223B" stroke-linecap="round" stroke-linejoin="round"/>
        <path d="M238.802 257.88h-6.218c-.31 0-.606.123-.824.342a1.163 1.163 0 0 0-.342.824v9.92a1.166 1.166 0 0 1-1.166 1.167h-10.104c-.309 0-.606.123-.824.342a1.163 1.163 0 0 0-.342.824v6.222c0 .309.123.606.342.824.218.219.515.342.824.342h18.654a1.165 1.165 0 0 0 1.165-1.166v-18.475a1.162 1.162 0 0 0-1.165-1.166zM213.93 270.133h-6.217c-.644 0-1.166.522-1.166 1.166v6.222c0 .644.522 1.166 1.166 1.166h6.217c.644 0 1.166-.522 1.166-1.166v-6.222c0-.644-.522-1.166-1.166-1.166zM201.495 270.133h-6.218c-.644 0-1.166.522-1.166 1.166v6.222c0 .644.522 1.166 1.166 1.166h6.218c.644 0 1.166-.522 1.166-1.166v-6.222c0-.644-.522-1.166-1.166-1.166zM189.059 270.133h-6.217c-.644 0-1.166.522-1.166 1.166v6.222c0 .644.522 1.166 1.166 1.166h6.217c.644 0 1.166-.522 1.166-1.166v-6.222c0-.644-.522-1.166-1.166-1.166zM176.624 270.133h-6.218c-.644 0-1.166.522-1.166 1.166v6.222c0 .644.522 1.166 1.166 1.166h6.218c.644 0 1.166-.522 1.166-1.166v-6.222c0-.644-.522-1.166-1.166-1.166zM164.188 270.133h-18.653c-.644 0-1.166.522-1.166 1.166v6.222c0 .644.522 1.166 1.166 1.166h18.653c.644 0 1.166-.522 1.166-1.166v-6.222c0-.644-.522-1.166-1.166-1.166zM251.237 282.385h-6.218c-.644 0-1.165.522-1.165 1.167v6.221c0 .644.521 1.167 1.165 1.167h6.218c.644 0 1.166-.523 1.166-1.167v-6.221c0-.645-.522-1.167-1.166-1.167zM238.802 282.385h-6.218c-.644 0-1.166.522-1.166 1.167v6.221c0 .644.522 1.167 1.166 1.167h6.218c.644 0 1.165-.523 1.165-1.167v-6.221c0-.645-.521-1.167-1.165-1.167zM226.366 282.385h-6.218c-.644 0-1.166.522-1.166 1.167v6.221c0 .644.522 1.167 1.166 1.167h6.218c.644 0 1.166-.523 1.166-1.167v-6.221c0-.645-.522-1.167-1.166-1.167zM213.931 282.385h-31.089c-.644 0-1.166.522-1.166 1.167v6.221c0 .644.522 1.167 1.166 1.167h31.089c.643 0 1.165-.523 1.165-1.167v-6.221c0-.645-.522-1.167-1.165-1.167zM176.624 282.385h-6.218c-.644 0-1.166.522-1.166 1.167v6.221c0 .644.522 1.167 1.166 1.167h6.218c.644 0 1.166-.523 1.166-1.167v-6.221c0-.645-.522-1.167-1.166-1.167zM164.188 282.385h-6.217c-.644 0-1.166.522-1.166 1.167v6.221c0 .644.522 1.167 1.166 1.167h6.217c.644 0 1.166-.523 1.166-1.167v-6.221c0-.645-.522-1.167-1.166-1.167zM151.753 282.385h-6.218c-.644 0-1.166.522-1.166 1.167v6.221c0 .644.522 1.167 1.166 1.167h6.218c.644 0 1.166-.523 1.166-1.167v-6.221c0-.645-.522-1.167-1.166-1.167z" stroke="#1E223B" stroke-linecap="round" stroke-linejoin="round"/>
        <path d="M169.685 318.689h-17.099v15.554h17.099v-15.554z" fill="#F2A197"/>
        <path d="M169.685 318.689h-17.099v15.554h17.099v-15.554z" stroke="#1E223B" stroke-linecap="round" stroke-linejoin="round"/>
        <path d="M170.994 330.743h-20.168v9.921h20.168v-9.921z" fill="#fff"/>
        <path d="M170.994 330.743h-20.168v9.921h20.168v-9.921z" stroke="#1E223B" stroke-linecap="round" stroke-linejoin="round"/>
        <path d="M150.083 340.476h21.765c.671 0 1.315.275 1.79.764.475.488.741 1.151.741 1.843V390h-26.827v-46.917c0-.692.267-1.355.741-1.844a2.499 2.499 0 0 1 1.79-.763z" fill="#1E223B"/>
        <path d="M150.083 340.476h21.765c.671 0 1.315.275 1.79.764.475.488.741 1.151.741 1.843V390h-26.827v-46.917c0-.692.267-1.355.741-1.844a2.499 2.499 0 0 1 1.79-.763z" stroke="#1E223B" stroke-linecap="round" stroke-linejoin="round"/>
        <path opacity=".2" d="M167.392 337.637a1.933 1.933 0 1 0 0-3.866 1.933 1.933 0 0 0 0 3.866z" fill="#1E223B"/>
        <path d="M167.392 337.637a1.933 1.933 0 1 0 0-3.866 1.933 1.933 0 0 0 0 3.866z" stroke="#1E223B" stroke-linecap="round" stroke-linejoin="round"/>
        <path d="m182.118 298.53.504.292a2.33 2.33 0 0 1 .854 3.187l-9.91 17.174-4.543-2.625 9.91-17.174a2.33 2.33 0 0 1 3.185-.854z" fill="#F2A197"/>
        <path d="m182.118 298.53.504.292a2.33 2.33 0 0 1 .854 3.187l-9.91 17.174-4.543-2.625 9.91-17.174a2.33 2.33 0 0 1 3.185-.854z" stroke="#1E223B" stroke-linecap="round" stroke-linejoin="round"/>
        <path d="M172.569 274.305h-.583a2.331 2.331 0 0 0-2.332 2.333v17.497a1.169 1.169 0 0 1-1.166 1.167 1.165 1.165 0 0 1-1.165-1.167v-20.88a2.334 2.334 0 0 0-2.332-2.333h-.583a2.331 2.331 0 0 0-2.332 2.333v20.88a1.169 1.169 0 0 1-1.166 1.167 1.165 1.165 0 0 1-1.165-1.167v-17.497a2.334 2.334 0 0 0-2.332-2.333h-.583a2.331 2.331 0 0 0-2.332 2.333v17.497a1.165 1.165 0 1 1-2.331 0v-11.957a2.334 2.334 0 0 0-2.332-2.333h-.583a2.332 2.332 0 0 0-2.332 2.333v34.313a4.67 4.67 0 0 0 4.664 4.666h18.653a4.666 4.666 0 0 0 4.663-4.666v-39.853a2.34 2.34 0 0 0-.682-1.65 2.329 2.329 0 0 0-1.649-.683z" fill="#FDB3A6"/>
        <path d="M172.569 274.305h-.583a2.331 2.331 0 0 0-2.332 2.333v17.497a1.169 1.169 0 0 1-1.166 1.167 1.165 1.165 0 0 1-1.165-1.167v-20.88a2.334 2.334 0 0 0-2.332-2.333h-.583a2.331 2.331 0 0 0-2.332 2.333v20.88a1.169 1.169 0 0 1-1.166 1.167 1.165 1.165 0 0 1-1.165-1.167v-17.497a2.334 2.334 0 0 0-2.332-2.333h-.583a2.331 2.331 0 0 0-2.332 2.333v17.497a1.165 1.165 0 1 1-2.331 0v-11.957a2.334 2.334 0 0 0-2.332-2.333h-.583a2.332 2.332 0 0 0-2.332 2.333v34.313a4.67 4.67 0 0 0 4.664 4.666h18.653a4.666 4.666 0 0 0 4.663-4.666v-39.853a2.34 2.34 0 0 0-.682-1.65 2.329 2.329 0 0 0-1.649-.683z" stroke="#1E223B" stroke-linecap="round" stroke-linejoin="round"/>
        <path d="M211.794 353.016h-17.099v15.554h17.099v-15.554z" fill="#F2A197"/>
        <path d="M211.794 353.016h-17.099v15.554h17.099v-15.554z" stroke="#1E223B" stroke-linecap="round" stroke-linejoin="round"/>
        <path d="m194.692 350.885-4.544 2.625-9.909-17.174a2.335 2.335 0 0 1 .853-3.187l.505-.292a2.333 2.333 0 0 1 3.185.854l9.91 17.174z" fill="#F2A197"/>
        <path d="m194.692 350.885-4.544 2.625-9.909-17.174a2.335 2.335 0 0 1 .853-3.187l.505-.292a2.333 2.333 0 0 1 3.185.854l9.91 17.174z" stroke="#1E223B" stroke-linecap="round" stroke-linejoin="round"/>
        <path d="M191.586 308.632h.582a2.328 2.328 0 0 1 2.332 2.333v17.497a1.166 1.166 0 1 0 2.332 0v-2.789a2.33 2.33 0 0 1 2.331-2.333h.583a2.334 2.334 0 0 1 2.332 2.333v2.789a1.166 1.166 0 1 0 2.332 0v-2.789a2.33 2.33 0 0 1 2.331-2.333h.583a2.334 2.334 0 0 1 2.332 2.333v2.789a1.166 1.166 0 1 0 2.332 0v-2.789a2.333 2.333 0 0 1 2.331-2.333h.583a2.334 2.334 0 0 1 2.332 2.333v25.145a4.668 4.668 0 0 1-4.663 4.666h-18.654a4.668 4.668 0 0 1-4.663-4.666v-39.853a2.34 2.34 0 0 1 .683-1.65 2.335 2.335 0 0 1 1.649-.683z" fill="#FDB3A6"/>
        <path d="M191.586 308.632h.582a2.328 2.328 0 0 1 2.332 2.333v17.497a1.166 1.166 0 1 0 2.332 0v-2.789a2.33 2.33 0 0 1 2.331-2.333h.583a2.334 2.334 0 0 1 2.332 2.333v2.789a1.166 1.166 0 1 0 2.332 0v-2.789a2.33 2.33 0 0 1 2.331-2.333h.583a2.334 2.334 0 0 1 2.332 2.333v2.789a1.166 1.166 0 1 0 2.332 0v-2.789a2.333 2.333 0 0 1 2.331-2.333h.583a2.334 2.334 0 0 1 2.332 2.333v25.145a4.668 4.668 0 0 1-4.663 4.666h-18.654a4.668 4.668 0 0 1-4.663-4.666v-39.853a2.34 2.34 0 0 1 .683-1.65 2.335 2.335 0 0 1 1.649-.683z" stroke="#1E223B" stroke-linecap="round" stroke-linejoin="round"/>
        <path d="M213.329 365.07h-20.168v9.921h20.168v-9.921z" fill="#fff"/>
        <path d="M213.329 365.07h-20.168v9.921h20.168v-9.921z" stroke="#1E223B" stroke-linecap="round" stroke-linejoin="round"/>
        <path d="M192.388 374.524h21.765c.672 0 1.315.287 1.79.8.475.512.742 1.207.742 1.932V390h-26.828v-12.745c0-.724.267-1.419.741-1.931a2.443 2.443 0 0 1 1.79-.8z" fill="#1E223B"/>
        <path d="M192.405 374.739h21.679a2.52 2.52 0 0 1 2.521 2.522v12.799h-26.72v-12.799a2.525 2.525 0 0 1 2.52-2.522zM197.426 371.964a1.933 1.933 0 1 0-.002-3.866 1.933 1.933 0 0 0 .002 3.866z" stroke="#1E223B" stroke-linecap="round" stroke-linejoin="round"/>
        <path opacity=".2" d="M197.426 371.964a1.933 1.933 0 1 0-.002-3.866 1.933 1.933 0 0 0 .002 3.866z" fill="#1E223B"/>
        <path d="M204.021 79.71h20.985M204.021 84.96h16.322M204.021 90.21h9.327M231.839 85.4h1.166" stroke="#1E223B" stroke-linecap="round" stroke-linejoin="round"/>
        <path d="M236.09 85.4h8.633c4.098 0 8.028 1.628 10.926 4.528a15.462 15.462 0 0 1-10.926 26.394h-25.479a17.346 17.346 0 0 0-12.276 5.087 17.377 17.377 0 0 0-5.084 12.283v1.921" stroke="#1E223B" stroke-linecap="round" stroke-linejoin="round" stroke-dasharray="5.95 7.94"/>
        <path d="M201.884 137.156v1.166" stroke="#1E223B" stroke-linecap="round" stroke-linejoin="round"/>
        <path d="M87.188 181.912h48.787" stroke="#1E223B" stroke-linecap="round" stroke-linejoin="round" stroke-dasharray="6 8"/>
        <path d="M85.936 270.133h10.202c4.649 0 9.108-1.848 12.396-5.138a17.544 17.544 0 0 0 5.135-12.404v-7.385a17.46 17.46 0 0 1 5.108-12.34 17.442 17.442 0 0 1 12.333-5.112h5.487" stroke="#1E223B" stroke-linecap="round" stroke-linejoin="round"/>
        <path d="M137.682 86.655h5.268c3.675 0 7.199 1.46 9.797 4.06a13.869 13.869 0 0 1 4.058 9.803 13.858 13.858 0 0 0 4.058 9.803 13.858 13.858 0 0 0 9.797 4.059h7.654a13.857 13.857 0 0 1 13.855 13.864v10.078" stroke="#1E223B" stroke-linecap="round" stroke-linejoin="round" stroke-dasharray="6 8"/>
        <path d="M260.175 179.148h20.415a13.508 13.508 0 0 0 13.511-13.517V129.84M344.759 297.554c6.548 0 11.856-5.312 11.856-11.864 0-6.552-5.308-11.863-11.856-11.863s-11.857 5.311-11.857 11.863 5.309 11.864 11.857 11.864z" stroke="#1E223B" stroke-linecap="round" stroke-linejoin="round"/>
        <path d="M260.175 202.745h73.156" stroke="#1E223B" stroke-linecap="round" stroke-linejoin="round" stroke-dasharray="6 8"/>
        <path d="M333.962 306.206c7.595 0 13.752-6.16 13.752-13.759 0-7.6-6.157-13.76-13.752-13.76-7.595 0-13.752 6.16-13.752 13.76 0 7.599 6.157 13.759 13.752 13.759z" fill="#fff"/>
        <path d="M333.962 306.206c7.595 0 13.752-6.16 13.752-13.759 0-7.6-6.157-13.76-13.752-13.76-7.595 0-13.752 6.16-13.752 13.76 0 7.599 6.157 13.759 13.752 13.759z" stroke="#1E223B" stroke-linecap="round" stroke-linejoin="round"/>
        <path d="M320.21 292.447h-60.035" stroke="#1E223B" stroke-linecap="round" stroke-linejoin="round" stroke-dasharray="6 8"/>
        <path d="m328.087 304.89 5.875-12.443 13.594 2.087" stroke="#1E223B" stroke-linecap="round" stroke-linejoin="round"/>
        <path d="M329.569 265.62h-27.2a3.515 3.515 0 0 0-3.514 3.516v10.547a3.515 3.515 0 0 0 3.514 3.516h27.2a3.515 3.515 0 0 0 3.514-3.516v-10.547a3.515 3.515 0 0 0-3.514-3.516z" fill="#F73E59"/>
        <path d="M329.569 265.62h-27.2a3.515 3.515 0 0 0-3.514 3.516v10.547a3.515 3.515 0 0 0 3.514 3.516h27.2a3.515 3.515 0 0 0 3.514-3.516v-10.547a3.515 3.515 0 0 0-3.514-3.516z" stroke="#1E223B" stroke-linecap="round" stroke-linejoin="round"/>
        <path d="m303.294 277.484.83-1.144a3.602 3.602 0 0 0 2.652 1.169c1.205 0 1.671-.591 1.671-1.157 0-1.761-4.876-.666-4.876-3.747 0-1.396 1.204-2.466 3.054-2.466a4.354 4.354 0 0 1 3.13 1.182l-.83 1.095a3.405 3.405 0 0 0-2.439-.968c-.855 0-1.407.427-1.407 1.043 0 1.572 4.877.604 4.877 3.723 0 1.396-.993 2.603-3.243 2.603a4.6 4.6 0 0 1-3.419-1.333z" fill="#fff"/>
        <path d="M105.074 94.436H63.619a4.194 4.194 0 0 0-4.193 4.195v11.907a4.194 4.194 0 0 0 4.193 4.195h41.455a4.194 4.194 0 0 0 4.193-4.195V98.631a4.194 4.194 0 0 0-4.193-4.195z" fill="#E44D26" stroke="#1E223B" stroke-miterlimit="10"/>
        <path d="M105.074 94.436H63.619a4.194 4.194 0 0 0-4.193 4.195v11.907a4.194 4.194 0 0 0 4.193 4.195h41.455a4.194 4.194 0 0 0 4.193-4.195V98.631a4.194 4.194 0 0 0-4.193-4.195z" stroke="#1E223B" stroke-linecap="round" stroke-linejoin="round"/>
        <path d="M71.699 109.184v-4.027h-4.783v4.027h-1.612v-9.199h1.612v3.751H71.7v-3.751h1.612v9.199H71.7z" fill="#fff"/>
    </g>
    <defs>
        <clipPath id="139lgql7ia">
            <path fill="#fff" d="M0 0h389v390H0z"/>
        </clipPath>
    </defs>
</svg>
