<svg width="35" height="35" viewBox="0 0 35 35" fill="none" xmlns="http://www.w3.org/2000/svg">
    <g clip-path="url(#x2gxmxmvna)">
        <path d="M16.265 21.247c0 2.944-1.534 4.797-3.984 4.797s-3.984-1.863-3.984-4.797c0-2.954 1.534-4.807 3.984-4.807s3.984 1.853 3.984 4.807zm3.417-10.387-1.07.072c-.608.041-.875.258-.875.649 0 .412.34.638.813.638.648 0 1.132-.422 1.132-.988v-.37zM35 17.5C35 27.27 27.27 35 17.5 35S0 27.27 0 17.5 7.73 0 17.5 0 35 7.73 35 17.5zm-13.444-6.856c0 1.42.782 2.285 2.059 2.285 1.08 0 1.76-.607 1.873-1.472h-.844c-.113.474-.484.731-1.03.731-.72 0-1.163-.587-1.163-1.544 0-.947.443-1.513 1.164-1.513.576 0 .937.33 1.03.751h.843c-.113-.844-.772-1.482-1.873-1.482-1.277-.01-2.06.854-2.06 2.244zM9.79 8.482v4.365h.864v-2.676c0-.567.402-1.02.927-1.02.515 0 .844.31.844.803v2.893h.844v-2.759c0-.525.36-.937.927-.937.566 0 .844.289.844.896v2.8h.864V9.831c0-.906-.514-1.441-1.4-1.441-.607 0-1.111.309-1.327.782h-.073c-.195-.473-.607-.782-1.204-.782-.587 0-1.03.288-1.215.782h-.062v-.7l-.833.01zm8.009 12.765c0-3.799-2.121-6.187-5.518-6.187s-5.518 2.388-5.518 6.187c0 3.799 2.12 6.177 5.518 6.177 3.397 0 5.518-2.389 5.518-6.177zm.535-8.328c.576 0 1.05-.247 1.317-.69h.073v.618h.833V9.862c0-.916-.617-1.462-1.719-1.462-.998 0-1.698.484-1.79 1.215h.833c.093-.32.432-.494.916-.494.587 0 .896.267.896.751v.38l-1.184.073c-1.04.062-1.627.515-1.627 1.307-.01.783.608 1.287 1.452 1.287zm9.44 10.902c0-1.699-.989-2.687-3.48-3.233l-1.328-.288c-1.637-.36-2.275-1.009-2.275-1.946 0-1.214 1.153-1.945 2.646-1.945 1.564 0 2.594.803 2.728 2.12h1.492c-.072-2.027-1.79-3.458-4.18-3.458-2.48 0-4.22 1.39-4.22 3.356 0 1.698 1.04 2.79 3.439 3.314l1.328.288c1.657.36 2.326 1.03 2.326 2.028 0 1.174-1.184 2.028-2.8 2.028-1.72 0-2.913-.782-3.088-2.069h-1.493c.144 2.07 1.884 3.408 4.499 3.408 2.666 0 4.405-1.39 4.405-3.603z" fill="#fff"/>
    </g>
    <defs>
        <clipPath id="x2gxmxmvna">
            <path fill="#fff" d="M0 0h35v35H0z"/>
        </clipPath>
    </defs>
</svg>
