<svg width="46" height="34" viewBox="0 0 46 34" fill="none" xmlns="http://www.w3.org/2000/svg">
<g clip-path="url(#clip0_168_4884)">
<path d="M0 32.007C0 25.84 0 19.673 0 13.506C1.51322 13.506 3.02643 13.4676 4.53965 13.5252C5.29626 13.554 5.86372 13.4291 6.0979 12.5742C6.11592 12.5166 6.16095 12.4685 6.19698 12.4109C7.89035 9.70203 10.0881 7.55031 12.6642 5.85967C15.4024 4.06336 18.2217 2.40154 21.0139 0.701288C21.4913 0.413111 22.0227 0.220992 22.5541 0.0769036C23.7161 -0.240092 24.7969 0.307446 25.3013 1.40252C25.8148 2.51681 25.5806 3.79439 24.6618 4.60129C24.2745 4.9471 23.8512 5.27371 23.4188 5.53307C21.4462 6.73381 19.4556 7.90573 17.4741 9.10647C17.2038 9.26977 16.7805 9.34662 16.8886 9.82691C16.9967 10.3264 17.411 10.1631 17.7172 10.1631C26.1931 10.1823 34.6779 10.1823 43.1627 10.1823C43.4329 10.1823 43.7031 10.1919 43.9734 10.2304C45.1713 10.4033 45.9369 11.3446 46.009 12.6991C46.0721 13.9863 45.3335 15.1102 44.2076 15.3791C43.8923 15.456 43.55 15.456 43.2258 15.456C38.1187 15.456 33.0025 15.456 27.8954 15.456C27.7603 15.456 27.6252 15.456 27.4901 15.456C27.2109 15.4656 26.9857 15.6097 27.0488 15.9171C27.0848 16.09 27.31 16.2437 27.4811 16.3397C27.5802 16.3974 27.7423 16.3493 27.8774 16.3493C29.9491 16.3493 32.0117 16.3301 34.0834 16.3589C35.5426 16.3781 36.6054 17.6365 36.5154 19.1831C36.4433 20.5471 35.3534 21.6038 33.9663 21.623C32.291 21.6422 30.6066 21.623 28.9313 21.623C28.643 21.623 28.3638 21.6326 28.0756 21.623C27.7693 21.6134 27.4631 21.6326 27.4631 22.0552C27.4631 22.4683 27.7513 22.5067 28.0666 22.5067C29.2916 22.4971 30.5255 22.4971 31.7505 22.5067C32.0568 22.5067 32.381 22.5548 32.6693 22.6604C33.8042 23.0735 34.4707 24.2838 34.2816 25.5326C34.0924 26.8102 33.1106 27.7516 31.8947 27.7708C30.4715 27.79 29.0484 27.7804 27.6252 27.7708C27.31 27.7708 27.0217 27.8092 27.0217 28.2222C27.0217 28.6449 27.337 28.6545 27.6342 28.6545C28.2918 28.6449 28.9493 28.6353 29.6158 28.6545C30.6877 28.6833 31.4803 29.2117 31.9217 30.2683C32.6603 32.055 31.4173 33.9282 29.4987 33.9282C23.5089 33.9378 17.5101 33.9282 11.5203 33.9186C11.2951 33.9186 11.0609 33.8225 10.8447 33.7264C9.99804 33.371 9.17838 32.9291 8.30468 32.6506C5.58449 31.8053 2.78324 31.9397 0 32.007Z" fill="black"/>
</g>
<defs>
<clipPath id="clip0_168_4884">
<rect width="46" height="33.9569" rx="4" fill="white"/>
</clipPath>
</defs>
</svg>
