<svg width="59" height="40" viewBox="0 0 59 40" fill="none" xmlns="http://www.w3.org/2000/svg">
<path d="M0 37.7314C0 30.4642 0 23.1971 0 15.9299C1.90867 15.9299 3.81734 15.8846 5.726 15.9525C6.68034 15.9865 7.39609 15.8393 7.69148 14.8319C7.7142 14.764 7.77101 14.7074 7.81645 14.6395C9.95234 11.4474 12.7245 8.91177 15.9737 6.91953C19.4275 4.80277 22.9835 2.84449 26.5055 0.840923C27.1076 0.501336 27.7779 0.274945 28.4482 0.105151C29.9138 -0.268394 31.2772 0.376821 31.9134 1.66725C32.561 2.98032 32.2656 4.48582 31.1067 5.43667C30.6182 5.84417 30.0842 6.22903 29.5389 6.53466C27.0508 7.94961 24.54 9.3306 22.0406 10.7455C21.6997 10.938 21.1658 11.0285 21.3021 11.5945C21.4384 12.1831 21.961 11.9907 22.3473 11.9907C33.0381 12.0133 43.7403 12.0133 54.4425 12.0133C54.7833 12.0133 55.1242 12.0247 55.465 12.0699C56.976 12.2737 57.9417 13.383 58.0326 14.9791C58.1121 16.4959 57.1805 17.8203 55.7604 18.1372C55.3627 18.2278 54.931 18.2278 54.522 18.2278C48.0803 18.2278 41.6271 18.2278 35.1854 18.2278C35.015 18.2278 34.8446 18.2278 34.6741 18.2278C34.3219 18.2391 34.0379 18.4089 34.1174 18.7711C34.1629 18.9749 34.4469 19.156 34.6628 19.2692C34.7878 19.3371 34.9923 19.2805 35.1627 19.2805C37.7757 19.2805 40.3774 19.2579 42.9905 19.2918C44.831 19.3145 46.1716 20.7973 46.058 22.6198C45.9671 24.2271 44.5924 25.4723 42.8428 25.4949C40.7296 25.5176 38.6051 25.4949 36.4919 25.4949C36.1284 25.4949 35.7762 25.5063 35.4126 25.4949C35.0263 25.4836 34.6401 25.5063 34.6401 26.0043C34.6401 26.4911 35.0036 26.5363 35.4013 26.5363C36.9464 26.525 38.5028 26.525 40.0479 26.5363C40.4342 26.5363 40.8432 26.5929 41.2068 26.7174C42.6383 27.2042 43.479 28.6304 43.2404 30.102C43.0018 31.6075 41.7635 32.7168 40.2297 32.7395C38.4347 32.7621 36.6396 32.7508 34.8446 32.7395C34.4469 32.7395 34.0834 32.7847 34.0834 33.2715C34.0834 33.7695 34.481 33.7809 34.8559 33.7809C35.6853 33.7695 36.5146 33.7582 37.3554 33.7809C38.7073 33.8148 39.7071 34.4374 40.2638 35.6825C41.1954 37.788 39.6276 39.9953 37.2077 39.9953C29.6525 40.0066 22.086 39.9953 14.5309 39.984C14.2468 39.984 13.9515 39.8708 13.6788 39.7576C12.6108 39.3388 11.577 38.8181 10.475 38.4898C7.04389 37.4937 3.51059 37.6521 0 37.7314Z" fill="white"/>
</svg>
