<svg width="41" height="29" viewBox="0 0 41 29" fill="none" xmlns="http://www.w3.org/2000/svg">
<path d="M41 28.9402C40.7409 28.9601 40.5814 29 40.422 29C34.5819 28.9801 28.7419 29.0199 22.9217 28.8804C20.0117 28.8007 17.1813 28.123 14.8294 26.2495C14.1118 25.6914 13.4341 24.9938 12.9956 24.1966C8.71026 16.3835 4.48469 8.55052 0.259115 0.717527C0.139524 0.498283 0.0398639 0.259107 0 0C1.65435 1.57457 3.48809 2.83024 5.60088 3.66735C7.85319 4.54433 10.1852 4.88316 12.597 4.88316C21.8853 4.92302 31.1536 4.98282 40.4419 5.04261C40.6014 5.04261 40.7608 5.08248 40.9801 5.10241C41 13.0351 41 20.9478 41 28.9402Z" fill="#E2E3DE"/>
</svg>
