<svg width="45" height="34" viewBox="0 0 45 34" fill="none" xmlns="http://www.w3.org/2000/svg">
<path d="M26.9881 0C27.4042 0.0400707 27.8402 0.120212 28.2563 0.120212C33.8243 0.120212 39.3923 0.120212 45 0.360636C44.8811 0.440778 44.8018 0.56099 44.6631 0.581025C40.066 1.96346 36.9155 5.00884 34.6169 9.17619C30.1387 17.3105 25.5812 25.4249 21.0634 33.5392C20.9841 33.6794 20.8851 33.7996 20.7662 34C13.8309 30.1131 6.93527 26.2463 0 22.3595C0.832232 20.8368 1.62483 19.3742 2.43725 17.9316C4.51783 14.185 6.51915 10.3983 8.69881 6.73188C10.2048 4.16735 12.1664 1.94343 14.9604 0.681202C15.5152 0.420743 16.1096 0.240424 16.7041 0.0200354C20.1321 0 23.5601 0 26.9881 0Z" fill="#E2E3DE"/>
</svg>
