<svg width="377" height="378" viewBox="0 0 377 378" fill="none" xmlns="http://www.w3.org/2000/svg">
<g clip-path="url(#clip0_6_13304)">
<g opacity="0.39">
<path opacity="0.39" d="M67.0891 181.316C71.3298 181.316 74.7677 177.876 74.7677 173.633C74.7677 169.389 71.3298 165.949 67.0891 165.949C62.8483 165.949 59.4105 169.389 59.4105 173.633C59.4105 177.876 62.8483 181.316 67.0891 181.316Z" fill="white"/>
<path opacity="0.39" d="M67.0891 176.926C68.9066 176.926 70.38 175.452 70.38 173.633C70.38 171.814 68.9066 170.34 67.0891 170.34C65.2715 170.34 63.7981 171.814 63.7981 173.633C63.7981 175.452 65.2715 176.926 67.0891 176.926Z" fill="white"/>
<path opacity="0.39" d="M79.045 162.61L74.295 165.354L74.3022 165.367C73.9553 165.064 73.5896 164.782 73.2073 164.525L73.2201 164.529L74.6396 159.227C74.7526 158.806 74.6935 158.356 74.475 157.978C74.257 157.6 73.8977 157.324 73.4762 157.211L69.7676 156.217C69.3462 156.103 68.8972 156.163 68.5191 156.381C68.1413 156.599 67.8657 156.959 67.7527 157.381L66.3332 162.682H66.3411C65.8858 162.713 65.4331 162.773 64.9852 162.861L64.9913 162.857L62.2491 158.104C62.141 157.917 61.9971 157.753 61.8258 157.621C61.6544 157.489 61.4589 157.393 61.2499 157.337C61.0412 157.281 60.8236 157.266 60.6093 157.295C60.395 157.323 60.1886 157.393 60.0014 157.501L56.6766 159.423C56.4894 159.531 56.3252 159.675 56.1937 159.847C56.0623 160.018 55.9655 160.214 55.9098 160.423C55.8536 160.632 55.8393 160.849 55.8676 161.064C55.8958 161.278 55.9659 161.485 56.074 161.672L58.8162 166.425L58.8222 166.422C58.522 166.766 58.2441 167.13 57.9891 167.509L57.9914 167.501L52.6934 166.08C52.2719 165.967 51.8226 166.027 51.4449 166.245C51.0671 166.464 50.7914 166.823 50.6785 167.245L49.6845 170.956C49.5716 171.377 49.6311 171.827 49.8491 172.205C50.0672 172.583 50.4269 172.859 50.8483 172.972L56.1459 174.393L56.1493 174.38C56.1805 174.84 56.2408 175.297 56.3297 175.749L56.3229 175.737L51.5729 178.481C51.1952 178.699 50.9191 179.059 50.8061 179.481C50.6931 179.902 50.7523 180.352 50.9703 180.73L52.8911 184.057C52.9992 184.244 53.1431 184.409 53.3144 184.54C53.4858 184.672 53.6813 184.769 53.8903 184.824C54.0989 184.88 54.3166 184.895 54.5309 184.867C54.7452 184.838 54.9516 184.768 55.1388 184.66L59.8884 181.916L59.8779 181.898C60.2289 182.205 60.5995 182.488 60.9866 182.748L60.9637 182.742L59.5442 188.043C59.4312 188.464 59.4903 188.914 59.7084 189.292C59.9268 189.67 60.2861 189.946 60.7076 190.059L64.4162 191.054C64.8376 191.167 65.2865 191.107 65.6647 190.889C66.0424 190.671 66.3181 190.311 66.4311 189.889L67.8506 184.588L67.8227 184.58C68.2916 184.55 68.7579 184.489 69.2185 184.397L69.194 184.411L71.9366 189.164C72.0447 189.351 72.1885 189.516 72.3599 189.647C72.5313 189.779 72.7267 189.875 72.9358 189.931C73.1444 189.987 73.3621 190.002 73.5764 189.973C73.7907 189.945 73.9971 189.875 74.1843 189.767L77.5091 187.845C77.8869 187.627 78.1629 187.267 78.2759 186.845C78.3889 186.424 78.3298 185.974 78.1117 185.596L75.3695 180.843L75.345 180.857C75.6546 180.504 75.9408 180.13 76.2018 179.739L76.1943 179.767L81.4919 181.188C81.7005 181.244 81.9182 181.258 82.1325 181.23C82.3468 181.202 82.5536 181.131 82.7408 181.023C82.9276 180.915 83.0918 180.771 83.2232 180.6C83.3547 180.428 83.4515 180.232 83.5072 180.023L84.5007 176.313C84.5569 176.104 84.5712 175.886 84.5429 175.672C84.5147 175.457 84.4446 175.25 84.3365 175.063C84.2284 174.876 84.0846 174.712 83.9132 174.58C83.7418 174.449 83.546 174.352 83.3373 174.296L78.0364 172.878L78.03 172.901C77.9991 172.435 77.9388 171.972 77.8488 171.515L77.8594 171.533L82.6093 168.789C82.9871 168.571 83.2632 168.211 83.3761 167.789C83.4891 167.368 83.43 166.918 83.2119 166.54L81.2912 163.213C81.0731 162.835 80.7138 162.56 80.2927 162.447C79.8717 162.333 79.4227 162.392 79.045 162.61Z" fill="white"/>
</g>
<path opacity="0.39" d="M114.02 103.415C124.743 103.415 133.435 94.7175 133.435 83.9884C133.435 73.2589 124.743 64.5615 114.02 64.5615C103.298 64.5615 94.6063 73.2589 94.6063 83.9884C94.6063 94.7175 103.298 103.415 114.02 103.415Z" fill="white"/>
<path d="M113.754 84.1994L124.242 78.1009L124.209 89.5099L113.721 95.6087L113.754 84.1994Z" stroke="#1E223B" stroke-linecap="round" stroke-linejoin="round"/>
<path d="M103.831 78.4672L114.319 72.3683L124.242 78.1009L113.754 84.1994L103.831 78.4672Z" stroke="#1E223B" stroke-linecap="round" stroke-linejoin="round"/>
<path d="M103.831 78.4672L114.319 72.3683L124.242 78.1009L113.754 84.1994L103.831 78.4672Z" fill="#028B9E" stroke="#1E223B" stroke-linecap="round" stroke-linejoin="round"/>
<path opacity="0.4" d="M113.754 84.1994L113.721 95.6088L103.799 89.8762L103.831 78.4672L113.754 84.1994Z" fill="#028B9E" stroke="#1E223B" stroke-linecap="round" stroke-linejoin="round"/>
<path d="M113.754 84.1994L113.721 95.6088L103.799 89.8762L103.831 78.4672L113.754 84.1994Z" stroke="#1E223B" stroke-linecap="round" stroke-linejoin="round"/>
<path d="M114.02 103.415C124.743 103.415 133.435 94.7175 133.435 83.9884C133.435 73.2589 124.743 64.5615 114.02 64.5615C103.298 64.5615 94.6063 73.2589 94.6063 83.9884C94.6063 94.7175 103.298 103.415 114.02 103.415Z" stroke="#1E223B" stroke-linecap="round" stroke-linejoin="round"/>
<g style="mix-blend-mode:multiply" opacity="0.11">
<path d="M249.136 235.067H142.929C139.185 235.067 136.149 238.105 136.149 241.851V317.979C136.149 321.725 139.185 324.762 142.929 324.762H249.136C252.88 324.762 255.916 321.725 255.916 317.979V241.851C255.916 238.105 252.88 235.067 249.136 235.067Z" fill="#161616"/>
<path d="M249.136 235.067H142.929C139.185 235.067 136.149 238.105 136.149 241.851V317.979C136.149 321.725 139.185 324.762 142.929 324.762H249.136C252.88 324.762 255.916 321.725 255.916 317.979V241.851C255.916 238.105 252.88 235.067 249.136 235.067Z" stroke="#1E223B" stroke-miterlimit="10"/>
</g>
<g style="mix-blend-mode:multiply" opacity="0.11">
<path d="M253.279 229.791H138.786C137.33 229.791 136.149 230.972 136.149 232.429C136.149 233.886 137.33 235.067 138.786 235.067H253.279C254.735 235.067 255.916 233.886 255.916 232.429C255.916 230.972 254.735 229.791 253.279 229.791Z" fill="#161616"/>
<path d="M253.279 229.791H138.786C137.33 229.791 136.149 230.972 136.149 232.429C136.149 233.886 137.33 235.067 138.786 235.067H253.279C254.735 235.067 255.916 233.886 255.916 232.429C255.916 230.972 254.735 229.791 253.279 229.791Z" stroke="#1E223B" stroke-miterlimit="10"/>
</g>
<path d="M245.37 232.052H139.162C135.418 232.052 132.383 235.09 132.383 238.836V314.964C132.383 318.71 135.418 321.747 139.162 321.747H245.37C249.114 321.747 252.149 318.71 252.149 314.964V238.836C252.149 235.09 249.114 232.052 245.37 232.052Z" fill="#2F4584"/>
<path d="M245.37 232.052H139.162C135.418 232.052 132.383 235.09 132.383 238.836V312.702C132.383 316.449 135.418 319.486 139.162 319.486H245.37C249.114 319.486 252.149 316.449 252.149 312.702V238.836C252.149 235.09 249.114 232.052 245.37 232.052Z" fill="white"/>
<g style="mix-blend-mode:multiply" opacity="0.11">
<path d="M210.156 314.145H209.591C208.992 314.145 208.417 314.384 207.993 314.808C207.569 315.232 207.331 315.807 207.331 316.407V319.11C207.331 319.41 207.212 319.697 207 319.909C206.788 320.121 206.501 320.24 206.201 320.24C205.902 320.24 205.614 320.121 205.403 319.909C205.19 319.697 205.071 319.41 205.071 319.11V316.407C205.071 315.807 204.833 315.232 204.41 314.808C203.986 314.384 203.411 314.145 202.812 314.145H202.247C201.648 314.145 201.073 314.384 200.649 314.808C200.225 315.232 199.987 315.807 199.987 316.407V319.11C199.987 319.41 199.868 319.697 199.656 319.909C199.444 320.121 199.157 320.24 198.857 320.24C198.557 320.24 198.27 320.121 198.058 319.909C197.846 319.697 197.727 319.41 197.727 319.11V316.407C197.727 315.807 197.489 315.232 197.066 314.808C196.641 314.384 196.067 314.145 195.468 314.145H194.903C194.303 314.145 193.729 314.384 193.305 314.808C192.881 315.232 192.643 315.807 192.643 316.407V319.11C192.643 319.41 192.524 319.697 192.312 319.909C192.1 320.121 191.813 320.24 191.513 320.24C191.213 320.24 190.926 320.121 190.714 319.909C190.502 319.697 190.383 319.41 190.383 319.11V302.15C190.383 301.551 190.145 300.976 189.721 300.552C189.297 300.127 188.723 299.889 188.123 299.889H187.558C186.959 299.889 186.385 300.127 185.96 300.552C185.537 300.976 185.299 301.551 185.299 302.15V331.71L180.965 324.197C180.816 323.94 180.619 323.714 180.383 323.533C180.148 323.352 179.879 323.219 179.592 323.143C179.305 323.065 179.006 323.046 178.712 323.084C178.417 323.123 178.133 323.22 177.876 323.368L177.387 323.651C177.129 323.799 176.904 323.997 176.723 324.233C176.542 324.468 176.409 324.737 176.332 325.024C176.255 325.311 176.236 325.611 176.274 325.905C176.313 326.2 176.41 326.484 176.558 326.741L185.614 342.436C185.946 343.28 186.525 344.004 187.274 344.516C188.023 345.026 188.909 345.3 189.815 345.3H190.568V354.591H189.081V363.962H188.353C187.705 363.962 187.084 364.22 186.626 364.678C186.168 365.137 185.91 365.759 185.91 366.407V377.812H211.806V366.407C211.806 365.759 211.549 365.137 211.09 364.678C210.632 364.22 210.011 363.962 209.363 363.962H208.631V354.591H207.143V345.3H207.896C209.095 345.3 210.244 344.824 211.092 343.976C211.94 343.128 212.416 341.977 212.416 340.778V316.407C212.416 315.807 212.178 315.232 211.754 314.808C211.33 314.384 210.755 314.145 210.156 314.145Z" fill="#161616"/>
<path d="M210.156 314.145H209.591C208.992 314.145 208.417 314.384 207.993 314.808C207.569 315.232 207.331 315.807 207.331 316.407V319.11C207.331 319.41 207.212 319.697 207 319.909C206.788 320.121 206.501 320.24 206.201 320.24C205.902 320.24 205.614 320.121 205.403 319.909C205.19 319.697 205.071 319.41 205.071 319.11V316.407C205.071 315.807 204.833 315.232 204.41 314.808C203.986 314.384 203.411 314.145 202.812 314.145H202.247C201.648 314.145 201.073 314.384 200.649 314.808C200.225 315.232 199.987 315.807 199.987 316.407V319.11C199.987 319.41 199.868 319.697 199.656 319.909C199.444 320.121 199.157 320.24 198.857 320.24C198.557 320.24 198.27 320.121 198.058 319.909C197.846 319.697 197.727 319.41 197.727 319.11V316.407C197.727 315.807 197.489 315.232 197.066 314.808C196.641 314.384 196.067 314.145 195.468 314.145H194.903C194.303 314.145 193.729 314.384 193.305 314.808C192.881 315.232 192.643 315.807 192.643 316.407V319.11C192.643 319.41 192.524 319.697 192.312 319.909C192.1 320.121 191.813 320.24 191.513 320.24C191.213 320.24 190.926 320.121 190.714 319.909C190.502 319.697 190.383 319.41 190.383 319.11V302.15C190.383 301.551 190.145 300.976 189.721 300.552C189.297 300.127 188.723 299.889 188.123 299.889H187.558C186.959 299.889 186.385 300.127 185.96 300.552C185.537 300.976 185.299 301.551 185.299 302.15V331.71L180.965 324.197C180.816 323.94 180.619 323.714 180.383 323.533C180.148 323.352 179.879 323.219 179.592 323.143C179.305 323.065 179.006 323.046 178.712 323.084C178.417 323.123 178.133 323.22 177.876 323.368L177.387 323.651C177.129 323.799 176.904 323.997 176.723 324.233C176.542 324.468 176.409 324.737 176.332 325.024C176.255 325.311 176.236 325.611 176.274 325.905C176.313 326.2 176.41 326.484 176.558 326.741L185.614 342.436C185.946 343.28 186.525 344.004 187.274 344.516C188.023 345.026 188.909 345.3 189.815 345.3H190.568V354.591H189.081V363.962H188.353C187.705 363.962 187.084 364.22 186.626 364.678C186.168 365.137 185.91 365.759 185.91 366.407V377.812H211.806V366.407C211.806 365.759 211.549 365.137 211.09 364.678C210.632 364.22 210.011 363.962 209.363 363.962H208.631V354.591H207.143V345.3H207.896C209.095 345.3 210.244 344.824 211.092 343.976C211.94 343.128 212.416 341.977 212.416 340.778V316.407C212.416 315.807 212.178 315.232 211.754 314.808C211.33 314.384 210.755 314.145 210.156 314.145Z" stroke="#1E223B" stroke-miterlimit="10"/>
</g>
<g style="mix-blend-mode:multiply" opacity="0.11">
<path d="M166.868 312.702C167.997 312.702 169.084 312.279 169.917 311.517C170.75 310.754 171.267 309.708 171.368 308.583L179.699 294.144C179.847 293.886 179.944 293.602 179.983 293.308C180.021 293.013 180.002 292.713 179.925 292.427C179.848 292.139 179.715 291.871 179.534 291.635C179.353 291.399 179.128 291.202 178.87 291.053L178.381 290.771C178.124 290.622 177.84 290.526 177.546 290.487C177.251 290.448 176.952 290.468 176.665 290.544C176.378 290.622 176.109 290.754 175.874 290.935C175.638 291.117 175.441 291.342 175.293 291.6L171.385 298.372V269.552C171.385 268.953 171.147 268.377 170.723 267.953C170.299 267.529 169.725 267.291 169.125 267.291H168.56C167.961 267.291 167.386 267.529 166.962 267.953C166.539 268.377 166.301 268.953 166.301 269.552V286.512C166.301 286.812 166.182 287.099 165.97 287.311C165.758 287.523 165.471 287.642 165.171 287.642C164.871 287.642 164.584 287.523 164.372 287.311C164.16 287.099 164.041 286.812 164.041 286.512V266.276C164.041 265.676 163.803 265.101 163.379 264.677C162.955 264.253 162.38 264.015 161.781 264.015H161.216C160.617 264.015 160.042 264.253 159.618 264.677C159.195 265.101 158.957 265.676 158.957 266.276V286.512C158.957 286.812 158.838 287.099 158.625 287.311C158.414 287.523 158.126 287.643 157.827 287.643C157.527 287.643 157.24 287.523 157.028 287.311C156.816 287.099 156.697 286.812 156.697 286.512V269.553C156.697 268.953 156.459 268.378 156.035 267.954C155.611 267.53 155.036 267.292 154.437 267.292H153.872C153.273 267.292 152.698 267.53 152.274 267.954C151.85 268.378 151.612 268.953 151.612 269.553V286.512C151.612 286.812 151.493 287.099 151.281 287.311C151.07 287.523 150.782 287.643 150.483 287.643C150.183 287.643 149.895 287.523 149.684 287.311C149.472 287.099 149.353 286.812 149.353 286.512V274.923C149.353 274.324 149.115 273.748 148.691 273.324C148.267 272.9 147.692 272.662 147.093 272.662H146.528C145.929 272.662 145.354 272.9 144.93 273.324C144.506 273.748 144.268 274.324 144.268 274.923V308.18C144.268 309.379 144.744 310.53 145.592 311.378C146.439 312.226 147.589 312.702 148.788 312.702H149.759V321.993H148.054V331.364H147.322C146.674 331.364 146.053 331.622 145.594 332.08C145.136 332.539 144.879 333.16 144.879 333.809V377.812H170.775V333.809C170.775 333.16 170.517 332.539 170.059 332.08C169.601 331.622 168.979 331.364 168.331 331.364H167.6V321.993H166.331V312.702H166.868Z" fill="#161616"/>
<path d="M166.868 312.702C167.997 312.702 169.084 312.279 169.917 311.517C170.75 310.754 171.267 309.708 171.368 308.583L179.699 294.144C179.847 293.886 179.944 293.602 179.983 293.308C180.021 293.013 180.002 292.713 179.925 292.427C179.848 292.139 179.715 291.871 179.534 291.635C179.353 291.399 179.128 291.202 178.87 291.053L178.381 290.771C178.124 290.622 177.84 290.526 177.546 290.487C177.251 290.448 176.952 290.468 176.665 290.544C176.378 290.622 176.109 290.754 175.874 290.935C175.638 291.117 175.441 291.342 175.293 291.6L171.385 298.372V269.552C171.385 268.953 171.147 268.377 170.723 267.953C170.299 267.529 169.725 267.291 169.125 267.291H168.56C167.961 267.291 167.386 267.529 166.962 267.953C166.539 268.377 166.301 268.953 166.301 269.552V286.512C166.301 286.812 166.182 287.099 165.97 287.311C165.758 287.523 165.471 287.642 165.171 287.642C164.871 287.642 164.584 287.523 164.372 287.311C164.16 287.099 164.041 286.812 164.041 286.512V266.276C164.041 265.676 163.803 265.101 163.379 264.677C162.955 264.253 162.38 264.015 161.781 264.015H161.216C160.617 264.015 160.042 264.253 159.618 264.677C159.195 265.101 158.957 265.676 158.957 266.276V286.512C158.957 286.812 158.838 287.099 158.625 287.311C158.414 287.523 158.126 287.643 157.827 287.643C157.527 287.643 157.24 287.523 157.028 287.311C156.816 287.099 156.697 286.812 156.697 286.512V269.553C156.697 268.953 156.459 268.378 156.035 267.954C155.611 267.53 155.036 267.292 154.437 267.292H153.872C153.273 267.292 152.698 267.53 152.274 267.954C151.85 268.378 151.612 268.953 151.612 269.553V286.512C151.612 286.812 151.493 287.099 151.281 287.311C151.07 287.523 150.782 287.643 150.483 287.643C150.183 287.643 149.895 287.523 149.684 287.311C149.472 287.099 149.353 286.812 149.353 286.512V274.923C149.353 274.324 149.115 273.748 148.691 273.324C148.267 272.9 147.692 272.662 147.093 272.662H146.528C145.929 272.662 145.354 272.9 144.93 273.324C144.506 273.748 144.268 274.324 144.268 274.923V308.18C144.268 309.379 144.744 310.53 145.592 311.378C146.439 312.226 147.589 312.702 148.788 312.702H149.759V321.993H148.054V331.364H147.322C146.674 331.364 146.053 331.622 145.594 332.08C145.136 332.539 144.879 333.16 144.879 333.809V377.812H170.775V333.809C170.775 333.16 170.517 332.539 170.059 332.08C169.601 331.622 168.979 331.364 168.331 331.364H167.6V321.993H166.331V312.702H166.868Z" stroke="#1E223B" stroke-miterlimit="10"/>
</g>
<path opacity="0.15" d="M245.182 238.648H139.351C138.519 238.648 137.844 239.323 137.844 240.155V282.741C137.844 283.574 138.519 284.249 139.351 284.249H245.182C246.014 284.249 246.688 283.574 246.688 282.741V240.155C246.688 239.323 246.014 238.648 245.182 238.648Z" fill="#1E223B" stroke="#1E223B" stroke-miterlimit="11"/>
<path d="M245.37 232.052H139.162C135.418 232.052 132.383 235.09 132.383 238.836V312.702C132.383 316.449 135.418 319.486 139.162 319.486H245.37C249.114 319.486 252.149 316.449 252.149 312.702V238.836C252.149 235.09 249.114 232.052 245.37 232.052Z" stroke="#1E223B" stroke-linecap="round" stroke-linejoin="round"/>
<path d="M245.37 232.052H139.162C135.418 232.052 132.383 235.09 132.383 238.836V314.964C132.383 318.71 135.418 321.747 139.162 321.747H245.37C249.114 321.747 252.149 318.71 252.149 314.964V238.836C252.149 235.09 249.114 232.052 245.37 232.052Z" stroke="#1E223B" stroke-linecap="round" stroke-linejoin="round"/>
<path d="M245.37 144.619H139.162C135.418 144.619 132.383 147.656 132.383 151.402V225.269C132.383 229.015 135.418 232.052 139.162 232.052H245.37C249.114 232.052 252.149 229.015 252.149 225.269V151.402C252.149 147.656 249.114 144.619 245.37 144.619Z" fill="#2F4584"/>
<path d="M245.37 144.619H139.162C135.418 144.619 132.383 147.656 132.383 151.402V225.269C132.383 229.015 135.418 232.052 139.162 232.052H245.37C249.114 232.052 252.149 229.015 252.149 225.269V151.402C252.149 147.656 249.114 144.619 245.37 144.619Z" stroke="#1E223B" stroke-linecap="round" stroke-linejoin="round"/>
<path d="M249.89 225.269V151.402C249.89 148.905 247.866 146.88 245.371 146.88H139.163C136.667 146.88 134.643 148.905 134.643 151.402V225.269C134.643 227.767 136.667 229.791 139.163 229.791H245.371C247.866 229.791 249.89 227.767 249.89 225.269Z" fill="white"/>
<path d="M240.851 220.746V155.925H143.682V220.746H240.851Z" fill="#FF5855" stroke="#1E223B" stroke-miterlimit="10"/>
<path d="M249.89 225.269V151.402C249.89 148.905 247.866 146.88 245.371 146.88H139.163C136.667 146.88 134.643 148.905 134.643 151.402V225.269C134.643 227.767 136.667 229.791 139.163 229.791H245.371C247.866 229.791 249.89 227.767 249.89 225.269Z" stroke="#1E223B" stroke-linecap="round" stroke-linejoin="round"/>
<path d="M240.851 220.746V155.925H143.682V220.746H240.851Z" stroke="#1E223B" stroke-linecap="round" stroke-linejoin="round"/>
<g opacity="0.1">
<path opacity="0.1" d="M206.86 287.829H177.672C176.788 287.829 176.071 288.546 176.071 289.431V308.84C176.071 309.724 176.788 310.441 177.672 310.441H206.86C207.744 310.441 208.461 309.724 208.461 308.84V289.431C208.461 288.546 207.744 287.829 206.86 287.829Z" fill="#1E223B"/>
</g>
<path d="M206.86 287.829H177.672C176.788 287.829 176.071 288.546 176.071 289.431V308.84C176.071 309.724 176.788 310.441 177.672 310.441H206.86C207.744 310.441 208.461 309.724 208.461 308.84V289.431C208.461 288.546 207.744 287.829 206.86 287.829Z" stroke="#1E223B" stroke-linecap="round" stroke-linejoin="round"/>
<path d="M206.766 318.732H178.143V321.747H206.766V318.732Z" fill="#263C72"/>
<path d="M206.766 318.732H178.143V321.747H206.766V318.732Z" stroke="#1E223B" stroke-linecap="round" stroke-linejoin="round"/>
<g style="mix-blend-mode:multiply" opacity="0.11">
<path d="M230.305 135.574H159.5C158.252 135.574 157.24 136.587 157.24 137.835V217.731C157.24 218.98 158.252 219.993 159.5 219.993H230.305C231.553 219.993 232.565 218.98 232.565 217.731V137.835C232.565 136.587 231.553 135.574 230.305 135.574Z" fill="#161616"/>
<path d="M230.305 135.574H159.5C158.252 135.574 157.24 136.587 157.24 137.835V217.731C157.24 218.98 158.252 219.993 159.5 219.993H230.305C231.553 219.993 232.565 218.98 232.565 217.731V137.835C232.565 136.587 231.553 135.574 230.305 135.574Z" stroke="#1E223B" stroke-miterlimit="10"/>
</g>
<path d="M228.234 134.066H157.429C156.18 134.066 155.169 135.079 155.169 136.328V216.224C155.169 217.473 156.18 218.485 157.429 218.485H228.234C229.482 218.485 230.493 217.473 230.493 216.224V136.328C230.493 135.079 229.482 134.066 228.234 134.066Z" fill="white"/>
<path d="M155.169 205.672H230.493V216.224C230.493 216.824 230.255 217.399 229.832 217.823C229.408 218.247 228.833 218.485 228.234 218.485H157.429C156.829 218.485 156.255 218.247 155.831 217.823C155.407 217.399 155.169 216.824 155.169 216.224V205.672Z" fill="#EFEFEF"/>
<path d="M228.234 134.066H157.429C156.18 134.066 155.169 135.079 155.169 136.328V216.224C155.169 217.473 156.18 218.485 157.429 218.485H228.234C229.482 218.485 230.494 217.473 230.494 216.224V136.328C230.494 135.079 229.482 134.066 228.234 134.066Z" stroke="#1E223B" stroke-linecap="round" stroke-linejoin="round"/>
<path d="M157.213 134.066H228.45C228.718 134.066 228.984 134.12 229.232 134.222C229.48 134.325 229.705 134.476 229.895 134.666C230.085 134.856 230.235 135.081 230.338 135.329C230.441 135.578 230.493 135.844 230.493 136.112V140.85H155.169V136.112C155.169 135.844 155.222 135.578 155.324 135.329C155.427 135.081 155.577 134.856 155.767 134.666C155.957 134.476 156.182 134.325 156.431 134.222C156.678 134.12 156.944 134.066 157.213 134.066Z" fill="#363D56"/>
<path d="M157.213 134.066H228.45C228.718 134.066 228.984 134.12 229.232 134.222C229.48 134.325 229.705 134.476 229.895 134.666C230.085 134.856 230.235 135.081 230.338 135.329C230.441 135.578 230.494 135.844 230.494 136.112V140.85H155.169V136.112C155.169 135.844 155.222 135.578 155.324 135.329C155.427 135.081 155.577 134.856 155.767 134.666C155.957 134.476 156.182 134.325 156.431 134.222C156.678 134.12 156.944 134.066 157.213 134.066Z" stroke="#1E223B" stroke-linecap="round" stroke-linejoin="round"/>
<path d="M230.493 140.85H155.169V143.865H230.493V140.85Z" fill="#424960"/>
<path d="M230.494 140.85H155.169V143.865H230.494V140.85Z" stroke="#1E223B" stroke-linecap="round" stroke-linejoin="round"/>
<path d="M159.375 138.589C159.999 138.589 160.504 138.083 160.504 137.458C160.504 136.834 159.999 136.328 159.375 136.328C158.75 136.328 158.245 136.834 158.245 137.458C158.245 138.083 158.75 138.589 159.375 138.589Z" fill="#F73E39"/>
<path d="M159.375 138.589C159.999 138.589 160.504 138.083 160.504 137.458C160.504 136.834 159.999 136.328 159.375 136.328C158.75 136.328 158.245 136.834 158.245 137.458C158.245 138.083 158.75 138.589 159.375 138.589Z" stroke="#1E223B" stroke-linecap="round" stroke-linejoin="round"/>
<path d="M163.995 138.589C164.619 138.589 165.125 138.083 165.125 137.458C165.125 136.834 164.619 136.328 163.995 136.328C163.371 136.328 162.865 136.834 162.865 137.458C162.865 138.083 163.371 138.589 163.995 138.589Z" fill="#383838"/>
<path d="M163.995 138.589C164.619 138.589 165.125 138.083 165.125 137.458C165.125 136.834 164.619 136.328 163.995 136.328C163.371 136.328 162.865 136.834 162.865 137.458C162.865 138.083 163.371 138.589 163.995 138.589Z" stroke="#1E223B" stroke-linecap="round" stroke-linejoin="round"/>
<path d="M168.223 138.589C168.847 138.589 169.353 138.083 169.353 137.458C169.353 136.834 168.847 136.328 168.223 136.328C167.599 136.328 167.094 136.834 167.094 137.458C167.094 138.083 167.599 138.589 168.223 138.589Z" fill="#C6C6C6"/>
<path d="M168.223 138.589C168.847 138.589 169.353 138.083 169.353 137.458C169.353 136.834 168.847 136.328 168.223 136.328C167.599 136.328 167.094 136.834 167.094 137.458C167.094 138.083 167.599 138.589 168.223 138.589Z" stroke="#1E223B" stroke-linecap="round" stroke-linejoin="round"/>
<path opacity="0.28" d="M197.916 136.328H174.565C173.941 136.328 173.435 136.834 173.435 137.458C173.435 138.083 173.941 138.589 174.565 138.589H197.916C198.54 138.589 199.045 138.083 199.045 137.458C199.045 136.834 198.54 136.328 197.916 136.328Z" fill="#8289A3"/>
<path d="M67.0891 181.316C71.3298 181.316 74.7677 177.876 74.7677 173.633C74.7677 169.389 71.3298 165.949 67.0891 165.949C62.8483 165.949 59.4105 169.389 59.4105 173.633C59.4105 177.876 62.8483 181.316 67.0891 181.316Z" stroke="#1E223B" stroke-linecap="round" stroke-linejoin="round"/>
<path d="M67.0891 176.926C68.9066 176.926 70.38 175.452 70.38 173.633C70.38 171.814 68.9066 170.34 67.0891 170.34C65.2715 170.34 63.7981 171.814 63.7981 173.633C63.7981 175.452 65.2715 176.926 67.0891 176.926Z" stroke="#1E223B" stroke-linecap="round" stroke-linejoin="round"/>
<path d="M79.045 162.61L74.295 165.354L74.3022 165.367C73.9553 165.064 73.5896 164.782 73.2073 164.525L73.2201 164.529L74.6396 159.227C74.7526 158.806 74.6935 158.356 74.475 157.978C74.257 157.6 73.8977 157.324 73.4762 157.211L69.7676 156.217C69.3462 156.103 68.8972 156.163 68.5191 156.381C68.1413 156.599 67.8657 156.959 67.7527 157.381L66.3332 162.682H66.3411C65.8858 162.713 65.433 162.773 64.9852 162.861L64.9913 162.857L62.2491 158.104C62.141 157.917 61.9971 157.753 61.8258 157.621C61.6544 157.489 61.4589 157.393 61.2499 157.337C61.0412 157.281 60.8236 157.266 60.6093 157.295C60.395 157.323 60.1886 157.393 60.0014 157.501L56.6766 159.423C56.4894 159.531 56.3252 159.675 56.1937 159.847C56.0623 160.018 55.9655 160.214 55.9098 160.423C55.8536 160.632 55.8393 160.849 55.8676 161.064C55.8958 161.278 55.9659 161.485 56.074 161.672L58.8162 166.425L58.8222 166.422C58.522 166.766 58.2441 167.13 57.9891 167.509L57.9914 167.501L52.6934 166.08C52.2719 165.967 51.8226 166.027 51.4449 166.245C51.0671 166.464 50.7914 166.823 50.6785 167.245L49.6845 170.956C49.5716 171.377 49.6311 171.827 49.8491 172.205C50.0672 172.583 50.4269 172.859 50.8483 172.972L56.1459 174.393L56.1493 174.38C56.1805 174.84 56.2408 175.297 56.3297 175.749L56.3229 175.737L51.5729 178.481C51.1952 178.699 50.9191 179.059 50.8061 179.481C50.6931 179.902 50.7523 180.352 50.9703 180.73L52.8911 184.057C52.9992 184.244 53.1431 184.409 53.3144 184.54C53.4858 184.672 53.6813 184.769 53.8903 184.824C54.0989 184.88 54.3166 184.895 54.5309 184.867C54.7452 184.838 54.9516 184.768 55.1388 184.66L59.8884 181.916L59.8779 181.898C60.2289 182.205 60.5995 182.488 60.9866 182.748L60.9637 182.742L59.5442 188.043C59.4312 188.464 59.4903 188.914 59.7084 189.292C59.9268 189.67 60.2861 189.946 60.7076 190.059L64.4162 191.054C64.8376 191.167 65.2865 191.107 65.6647 190.889C66.0424 190.671 66.3181 190.311 66.4311 189.889L67.8506 184.588L67.8227 184.58C68.2916 184.55 68.7579 184.489 69.2185 184.397L69.194 184.411L71.9366 189.164C72.0447 189.351 72.1885 189.516 72.3599 189.647C72.5313 189.779 72.7267 189.875 72.9358 189.931C73.1444 189.987 73.3621 190.002 73.5764 189.973C73.7907 189.945 73.9971 189.875 74.1843 189.767L77.5091 187.845C77.8869 187.627 78.1629 187.267 78.2759 186.845C78.3889 186.424 78.3298 185.974 78.1117 185.596L75.3695 180.843L75.345 180.857C75.6546 180.504 75.9408 180.13 76.2018 179.739L76.1943 179.767L81.4919 181.188C81.7005 181.244 81.9182 181.258 82.1325 181.23C82.3468 181.202 82.5536 181.131 82.7408 181.023C82.9276 180.915 83.0918 180.771 83.2232 180.6C83.3547 180.428 83.4515 180.232 83.5072 180.023L84.5007 176.313C84.5569 176.104 84.5712 175.886 84.5429 175.672C84.5147 175.457 84.4446 175.25 84.3365 175.063C84.2284 174.876 84.0846 174.712 83.9132 174.58C83.7418 174.449 83.546 174.352 83.3373 174.296L78.0364 172.878L78.03 172.901C77.9991 172.435 77.9388 171.972 77.8488 171.515L77.8594 171.533L82.6093 168.789C82.9871 168.571 83.2632 168.211 83.3761 167.789C83.4891 167.368 83.43 166.918 83.2119 166.54L81.2912 163.213C81.0731 162.835 80.7138 162.56 80.2927 162.447C79.8717 162.333 79.4227 162.392 79.045 162.61Z" stroke="#1E223B" stroke-linecap="round" stroke-linejoin="round"/>
<g opacity="0.32">
<path opacity="0.32" d="M170.212 159.42C171.818 159.42 173.119 158.118 173.119 156.511C173.119 154.904 171.818 153.601 170.212 153.601C168.606 153.601 167.304 154.904 167.304 156.511C167.304 158.118 168.606 159.42 170.212 159.42Z" stroke="#1E223B" stroke-linecap="round" stroke-linejoin="round"/>
<path opacity="0.32" d="M170.212 157.758C170.9 157.758 171.458 157.2 171.458 156.511C171.458 155.822 170.9 155.264 170.212 155.264C169.523 155.264 168.966 155.822 168.966 156.511C168.966 157.2 169.523 157.758 170.212 157.758Z" stroke="#1E223B" stroke-linecap="round" stroke-linejoin="round"/>
<path opacity="0.32" d="M176.363 156.763L174.357 156.225V156.23C174.345 156.056 174.322 155.883 174.289 155.712L174.291 155.716L176.09 154.677C176.233 154.594 176.337 154.458 176.379 154.298C176.421 154.138 176.399 153.968 176.316 153.825L175.589 152.566C175.548 152.495 175.494 152.432 175.429 152.383C175.364 152.333 175.29 152.296 175.211 152.275C175.132 152.254 175.049 152.248 174.968 152.259C174.887 152.27 174.809 152.296 174.738 152.337L172.939 153.376V153.379C172.809 153.265 172.672 153.16 172.528 153.063H172.531L173.068 151.056C173.111 150.896 173.089 150.726 173.006 150.582C172.924 150.439 172.788 150.335 172.628 150.292L171.224 149.915C171.064 149.872 170.894 149.895 170.751 149.977C170.608 150.06 170.503 150.196 170.461 150.356L169.923 152.363H169.926C169.753 152.375 169.581 152.398 169.412 152.431H169.414L168.376 150.632C168.293 150.488 168.157 150.384 167.997 150.341C167.838 150.298 167.668 150.32 167.525 150.403L166.266 151.131C166.123 151.213 166.018 151.35 165.976 151.509C165.933 151.669 165.955 151.839 166.038 151.982L167.076 153.782L167.08 153.78C166.966 153.911 166.86 154.049 166.762 154.194V154.189L164.757 153.651C164.677 153.63 164.595 153.624 164.514 153.635C164.433 153.646 164.355 153.672 164.284 153.713C164.213 153.754 164.151 153.809 164.101 153.874C164.051 153.939 164.015 154.013 163.994 154.092L163.617 155.497C163.574 155.657 163.597 155.827 163.679 155.97C163.762 156.113 163.898 156.218 164.058 156.261L166.063 156.799L166.066 156.791C166.077 156.967 166.101 157.142 166.135 157.315L166.13 157.308L164.332 158.347C164.261 158.388 164.199 158.442 164.149 158.507C164.099 158.572 164.062 158.646 164.041 158.725C164.02 158.804 164.015 158.887 164.026 158.968C164.036 159.049 164.063 159.127 164.104 159.199L164.831 160.458C164.872 160.529 164.926 160.591 164.991 160.641C165.056 160.691 165.13 160.728 165.209 160.749C165.288 160.77 165.37 160.775 165.452 160.765C165.533 160.754 165.611 160.727 165.682 160.687L167.48 159.648L167.475 159.638C167.609 159.755 167.75 159.863 167.898 159.963L167.887 159.96L167.35 161.968C167.329 162.046 167.323 162.129 167.334 162.21C167.345 162.291 167.371 162.37 167.412 162.44C167.453 162.511 167.508 162.574 167.573 162.623C167.637 162.673 167.712 162.71 167.791 162.731L169.195 163.108C169.354 163.151 169.524 163.128 169.667 163.045C169.81 162.963 169.915 162.826 169.958 162.667L170.497 160.659L170.487 160.657C170.664 160.645 170.841 160.621 171.015 160.587L171.005 160.593L172.043 162.392C172.126 162.535 172.262 162.64 172.422 162.682C172.581 162.725 172.752 162.703 172.895 162.621L174.154 161.893C174.297 161.81 174.401 161.674 174.444 161.515C174.487 161.355 174.464 161.185 174.382 161.042L173.343 159.242L173.336 159.246C173.452 159.113 173.559 158.973 173.658 158.827V158.834L175.664 159.372C175.823 159.415 175.993 159.392 176.136 159.31C176.279 159.227 176.384 159.091 176.427 158.931L176.803 157.526C176.846 157.366 176.824 157.196 176.741 157.053C176.658 156.91 176.522 156.806 176.363 156.763Z" stroke="#1E223B" stroke-linecap="round" stroke-linejoin="round"/>
</g>
<g opacity="0.49">
<path opacity="0.49" d="M313.415 102.028C317.387 102.028 320.607 98.8061 320.607 94.8313C320.607 90.8568 317.387 87.6346 313.415 87.6346C309.443 87.6346 306.223 90.8568 306.223 94.8313C306.223 98.8061 309.443 102.028 313.415 102.028Z" fill="white"/>
<path opacity="0.49" d="M313.415 97.9156C315.117 97.9156 316.497 96.5348 316.497 94.8313C316.497 93.1279 315.117 91.747 313.415 91.747C311.713 91.747 310.333 93.1279 310.333 94.8313C310.333 96.5348 311.713 97.9156 313.415 97.9156Z" fill="white"/>
<path opacity="0.49" d="M324.614 84.5077L320.164 87.0779L320.171 87.0893C319.846 86.8051 319.504 86.542 319.146 86.3016L319.158 86.305L320.487 81.3394C320.593 80.944 320.538 80.5234 320.333 80.1692C320.129 79.8149 319.792 79.5568 319.398 79.4509L315.924 78.5196C315.729 78.4669 315.525 78.4537 315.324 78.48C315.123 78.5064 314.93 78.572 314.755 78.6734C314.579 78.7748 314.425 78.9093 314.302 79.0702C314.179 79.2308 314.089 79.4143 314.036 79.6099L312.707 84.5752L312.714 84.5774C312.287 84.6061 311.863 84.6618 311.443 84.7444L311.449 84.741L308.88 80.2894C308.676 79.9348 308.339 79.6762 307.945 79.5703C307.549 79.4644 307.129 79.5195 306.775 79.7241L303.66 81.5233C303.485 81.6243 303.331 81.7592 303.208 81.9197C303.085 82.0803 302.994 82.2638 302.942 82.4594C302.89 82.655 302.876 82.8589 302.902 83.0598C302.929 83.2606 302.994 83.4543 303.096 83.63L305.664 88.0815L305.67 88.0782C305.388 88.4004 305.128 88.7403 304.889 89.0957V89.0885L299.927 87.7578C299.533 87.6519 299.112 87.7073 298.758 87.912C298.404 88.1162 298.146 88.4531 298.04 88.8485L297.109 92.3243C297.003 92.7193 297.059 93.1403 297.263 93.4941C297.468 93.8484 297.804 94.1069 298.199 94.2128L303.161 95.5432L303.164 95.5315C303.193 95.9615 303.25 96.3896 303.333 96.8129L303.327 96.8016L298.878 99.3718C298.702 99.4728 298.549 99.6073 298.425 99.7683C298.302 99.9288 298.211 100.112 298.159 100.308C298.107 100.503 298.093 100.707 298.12 100.908C298.146 101.109 298.211 101.303 298.313 101.478L300.111 104.594C300.315 104.949 300.652 105.207 301.046 105.313C301.441 105.419 301.862 105.364 302.216 105.16L306.665 102.59L306.655 102.572C306.984 102.859 307.331 103.125 307.693 103.369L307.672 103.362L306.342 108.328C306.29 108.524 306.276 108.728 306.303 108.928C306.329 109.129 306.395 109.323 306.496 109.498C306.597 109.674 306.732 109.827 306.893 109.951C307.053 110.074 307.237 110.164 307.432 110.217L310.906 111.148C311.101 111.2 311.305 111.213 311.506 111.187C311.706 111.161 311.9 111.095 312.075 110.994C312.25 110.892 312.404 110.758 312.527 110.597C312.65 110.436 312.741 110.253 312.793 110.058L314.123 105.092L314.097 105.085C314.535 105.056 314.972 104.999 315.404 104.913L315.381 104.926L317.95 109.378C318.051 109.553 318.185 109.707 318.346 109.831C318.507 109.954 318.69 110.044 318.885 110.097C319.081 110.15 319.285 110.163 319.485 110.136C319.686 110.11 319.879 110.044 320.055 109.943L323.169 108.144C323.344 108.043 323.498 107.908 323.621 107.747C323.745 107.587 323.835 107.404 323.887 107.208C323.94 107.012 323.953 106.808 323.927 106.607C323.901 106.406 323.835 106.213 323.734 106.037L321.165 101.586L321.143 101.599C321.432 101.267 321.7 100.918 321.945 100.552L321.938 100.578L326.9 101.909C327.295 102.014 327.715 101.959 328.069 101.754C328.423 101.55 328.682 101.213 328.788 100.818L329.718 97.3427C329.824 96.9474 329.768 96.5264 329.564 96.1722C329.36 95.8179 329.023 95.5598 328.628 95.4539L323.666 94.1235L323.661 94.145C323.632 93.709 323.575 93.2756 323.491 92.8471L323.501 92.864L327.95 90.2938C328.125 90.1924 328.279 90.0579 328.402 89.8973C328.525 89.7364 328.616 89.5532 328.668 89.3576C328.721 89.162 328.734 88.9578 328.708 88.7573C328.681 88.5564 328.616 88.3627 328.515 88.1874L326.721 85.0722C326.619 84.8966 326.485 84.7425 326.324 84.6192C326.163 84.4956 325.98 84.4052 325.784 84.3528C325.588 84.3004 325.384 84.2868 325.183 84.3136C324.983 84.34 324.789 84.4059 324.614 84.5077Z" fill="white"/>
</g>
<path d="M313.418 102.028C317.39 102.028 320.61 98.8061 320.61 94.8313C320.61 90.8568 317.39 87.6346 313.418 87.6346C309.445 87.6346 306.226 90.8568 306.226 94.8313C306.226 98.8061 309.445 102.028 313.418 102.028Z" stroke="#1E223B" stroke-linecap="round" stroke-linejoin="round"/>
<path d="M313.418 97.9155C315.12 97.9155 316.5 96.5347 316.5 94.8312C316.5 93.1278 315.12 91.7469 313.418 91.7469C311.715 91.7469 310.335 93.1278 310.335 94.8312C310.335 96.5347 311.715 97.9155 313.418 97.9155Z" stroke="#1E223B" stroke-linecap="round" stroke-linejoin="round"/>
<path d="M328.631 95.455L323.669 94.1246L323.666 94.1371C323.637 93.7067 323.581 93.2789 323.498 92.8557L323.504 92.8663L327.953 90.296C328.128 90.1946 328.282 90.0601 328.405 89.8996C328.528 89.739 328.619 89.5555 328.671 89.3599C328.724 89.1643 328.737 88.9604 328.711 88.7595C328.684 88.5587 328.619 88.3649 328.518 88.1897L326.721 85.0722C326.516 84.718 326.18 84.4591 325.785 84.3532C325.39 84.2473 324.969 84.3023 324.615 84.5069L320.166 87.0772L320.17 87.084C319.848 86.8021 319.508 86.5409 319.153 86.3023H319.16L320.489 81.3367C320.595 80.9414 320.539 80.5208 320.335 80.1665C320.131 79.8123 319.794 79.5541 319.399 79.4482L315.926 78.517C315.731 78.4646 315.527 78.451 315.326 78.4774C315.125 78.5038 314.932 78.5697 314.757 78.6707C314.581 78.7721 314.427 78.907 314.304 79.0676C314.181 79.2281 314.091 79.4117 314.038 79.6073L312.709 84.5725H312.715C312.288 84.6015 311.864 84.6577 311.444 84.7402L311.451 84.7364L308.882 80.2849C308.678 79.9306 308.341 79.6717 307.946 79.5658C307.551 79.4599 307.131 79.5153 306.777 79.7196L303.662 81.5187C303.487 81.6197 303.333 81.7547 303.21 81.9152C303.087 82.0757 302.996 82.2593 302.944 82.4549C302.891 82.6505 302.878 82.8547 302.904 83.0552C302.931 83.2561 302.996 83.4498 303.097 83.6254L305.666 88.077L305.677 88.071C305.393 88.3962 305.13 88.7388 304.89 89.0972L304.893 89.0848L299.931 87.754C299.536 87.6481 299.116 87.7035 298.762 87.9082C298.408 88.1128 298.149 88.4494 298.044 88.8447L297.113 92.3202C297.007 92.7152 297.062 93.1361 297.267 93.4904C297.471 93.8446 297.808 94.1032 298.202 94.2091L303.165 95.5394L303.17 95.5206C303.2 95.9562 303.257 96.3896 303.342 96.8181L303.331 96.7989L298.882 99.3692C298.706 99.4702 298.552 99.6051 298.429 99.7656C298.306 99.9262 298.215 100.109 298.163 100.305C298.111 100.501 298.097 100.705 298.123 100.906C298.15 101.107 298.215 101.3 298.317 101.475L300.115 104.592C300.319 104.946 300.655 105.205 301.05 105.311C301.445 105.417 301.866 105.361 302.22 105.157L306.669 102.587L306.655 102.563C306.986 102.853 307.336 103.122 307.701 103.367L307.676 103.36L306.346 108.325C306.294 108.521 306.28 108.725 306.307 108.925C306.333 109.126 306.399 109.32 306.5 109.495C306.601 109.671 306.736 109.824 306.896 109.948C307.057 110.071 307.24 110.162 307.436 110.214L310.909 111.145C311.105 111.198 311.309 111.211 311.509 111.185C311.71 111.158 311.904 111.092 312.079 110.991C312.254 110.89 312.408 110.755 312.531 110.595C312.654 110.434 312.744 110.251 312.797 110.055L314.126 105.09L314.101 105.083C314.54 105.053 314.977 104.996 315.408 104.91L315.385 104.924L317.953 109.375C318.054 109.551 318.189 109.705 318.35 109.828C318.51 109.952 318.693 110.042 318.889 110.094C319.084 110.147 319.289 110.16 319.489 110.134C319.69 110.108 319.883 110.042 320.059 109.941L323.173 108.142C323.348 108.04 323.502 107.906 323.625 107.745C323.748 107.584 323.839 107.401 323.891 107.205C323.944 107.009 323.957 106.806 323.931 106.605C323.904 106.404 323.839 106.21 323.738 106.035L321.169 101.583L321.15 101.595C321.438 101.266 321.703 100.919 321.947 100.556L321.942 100.576L326.904 101.906C327.299 102.012 327.719 101.956 328.073 101.752C328.427 101.547 328.686 101.211 328.791 100.816L329.722 97.3401C329.827 96.9451 329.771 96.5253 329.566 96.1718C329.362 95.8187 329.025 95.5605 328.631 95.455Z" stroke="#1E223B" stroke-linecap="round" stroke-linejoin="round"/>
<path d="M221.255 95.4565H211.387L201.09 102.326V95.4565H193.797C192.887 95.4565 192.013 95.0947 191.37 94.4507C190.726 93.8066 190.365 92.933 190.365 92.0221V73.1323C190.365 72.2218 190.726 71.3482 191.37 70.7041C192.013 70.06 192.887 69.6979 193.797 69.6979H221.255C221.706 69.6979 222.152 69.7868 222.569 69.9594C222.985 70.132 223.363 70.3849 223.682 70.7037C224.001 71.0226 224.254 71.4013 224.426 71.8181C224.599 72.235 224.687 72.6816 224.687 73.1323V92.0221C224.687 92.4732 224.599 92.9198 224.426 93.3366C224.254 93.7535 224.001 94.1318 223.682 94.451C223.363 94.7699 222.985 95.0227 222.569 95.1954C222.152 95.368 221.706 95.4569 221.255 95.4565Z" fill="white"/>
<path d="M221.255 95.4565H211.387L201.09 102.326V95.4565H193.797C192.887 95.4565 192.013 95.0947 191.37 94.4507C190.726 93.8066 190.365 92.933 190.365 92.0221V73.1323C190.365 72.2218 190.726 71.3482 191.37 70.7041C192.013 70.06 192.887 69.6979 193.797 69.6979H221.255C221.706 69.6979 222.152 69.7868 222.569 69.9594C222.985 70.132 223.363 70.3849 223.682 70.7037C224.001 71.0226 224.254 71.4013 224.426 71.8181C224.599 72.235 224.687 72.6816 224.687 73.1323V92.0221C224.687 92.4732 224.599 92.9198 224.426 93.3366C224.254 93.7535 224.001 94.1318 223.682 94.451C223.363 94.7699 222.985 95.0227 222.569 95.1954C222.152 95.368 221.706 95.4569 221.255 95.4565Z" stroke="#1E223B" stroke-linecap="round" stroke-linejoin="round"/>
<path opacity="0.5" d="M221.605 66.1997H227.995L234.661 70.6468V66.1997H239.382C239.971 66.1997 240.536 65.9657 240.953 65.5485C241.37 65.1317 241.604 64.566 241.604 63.9762V51.7442C241.604 51.1547 241.37 50.5891 240.953 50.1719C240.536 49.755 239.971 49.5206 239.382 49.5206H221.605C221.016 49.5206 220.451 49.755 220.034 50.1719C219.617 50.5891 219.383 51.1547 219.383 51.7442V63.9755C219.383 64.2675 219.44 64.557 219.552 64.8268C219.664 65.0966 219.827 65.342 220.034 65.5485C220.24 65.755 220.485 65.9186 220.755 66.0305C221.024 66.1425 221.313 66.1997 221.605 66.1997Z" fill="white"/>
<path d="M221.605 66.1997H227.995L234.661 70.6468V66.1997H239.382C239.971 66.1997 240.536 65.9657 240.953 65.5485C241.37 65.1317 241.604 64.566 241.604 63.9762V51.7442C241.604 51.1547 241.37 50.5891 240.953 50.1719C240.536 49.755 239.971 49.5206 239.382 49.5206H221.605C221.016 49.5206 220.451 49.755 220.034 50.1719C219.617 50.5891 219.383 51.1547 219.383 51.7442V63.9755C219.383 64.2675 219.44 64.557 219.552 64.8268C219.664 65.0966 219.827 65.342 220.034 65.5485C220.24 65.755 220.485 65.9186 220.755 66.0305C221.024 66.1425 221.313 66.1997 221.605 66.1997Z" stroke="#1E223B" stroke-linecap="round" stroke-linejoin="round"/>
<path d="M244.792 306.007C244.792 306.993 244.499 307.957 243.952 308.777C243.404 309.597 242.626 310.236 241.715 310.613C240.804 310.991 239.802 311.09 238.836 310.897C237.869 310.705 236.981 310.23 236.284 309.532C235.587 308.835 235.113 307.946 234.92 306.979C234.728 306.012 234.827 305.009 235.204 304.098C235.581 303.187 236.22 302.408 237.04 301.86C237.859 301.312 238.823 301.02 239.808 301.02C240.463 301.02 241.111 301.149 241.715 301.399C242.32 301.65 242.869 302.017 243.332 302.48C243.795 302.943 244.162 303.493 244.412 304.098C244.663 304.703 244.792 305.352 244.792 306.007Z" fill="#DD4814"/>
<path d="M236.419 305.34C236.288 305.34 236.159 305.378 236.049 305.452C235.94 305.525 235.855 305.629 235.804 305.75C235.754 305.872 235.741 306.006 235.766 306.135C235.791 306.264 235.855 306.383 235.948 306.476C236.041 306.569 236.159 306.633 236.288 306.659C236.417 306.684 236.551 306.671 236.673 306.621C236.794 306.571 236.898 306.486 236.972 306.376C237.045 306.267 237.084 306.138 237.084 306.007C237.084 305.919 237.067 305.833 237.034 305.752C237.001 305.67 236.952 305.597 236.89 305.535C236.828 305.473 236.755 305.424 236.674 305.39C236.593 305.357 236.507 305.34 236.419 305.34ZM241.17 308.365C241.056 308.431 240.964 308.529 240.906 308.647C240.848 308.765 240.826 308.898 240.843 309.029C240.86 309.159 240.915 309.282 241.002 309.381C241.089 309.479 241.203 309.551 241.33 309.585C241.457 309.619 241.591 309.614 241.716 309.572C241.84 309.53 241.95 309.452 242.03 309.347C242.11 309.243 242.158 309.117 242.166 308.986C242.175 308.854 242.144 308.723 242.078 308.609C241.99 308.457 241.845 308.345 241.674 308.3C241.504 308.254 241.323 308.278 241.17 308.367V308.365ZM237.865 306.005C237.864 305.693 237.939 305.386 238.083 305.109C238.227 304.832 238.436 304.593 238.691 304.414L238.204 303.599C237.613 303.993 237.188 304.592 237.009 305.28C237.117 305.368 237.204 305.479 237.263 305.604C237.323 305.729 237.354 305.866 237.354 306.006C237.354 306.144 237.323 306.281 237.263 306.407C237.204 306.532 237.117 306.642 237.009 306.73C237.188 307.419 237.613 308.017 238.204 308.412L238.691 307.596C238.436 307.417 238.227 307.179 238.084 306.902C237.94 306.626 237.865 306.318 237.865 306.006V306.005ZM239.808 304.06C240.294 304.06 240.761 304.243 241.12 304.57C241.478 304.898 241.7 305.348 241.744 305.832L242.692 305.818C242.647 305.108 242.341 304.44 241.833 303.942C241.704 303.991 241.565 304.01 241.427 303.999C241.289 303.988 241.155 303.946 241.035 303.877C240.915 303.807 240.812 303.712 240.734 303.598C240.655 303.484 240.602 303.354 240.58 303.217C239.895 303.027 239.164 303.096 238.527 303.412L238.989 304.241C239.246 304.122 239.525 304.061 239.808 304.062V304.06ZM239.808 307.95C239.525 307.951 239.246 307.889 238.989 307.769L238.527 308.598C239.164 308.913 239.895 308.982 240.58 308.792C240.602 308.656 240.655 308.526 240.734 308.411C240.812 308.297 240.915 308.202 241.035 308.133C241.155 308.064 241.289 308.022 241.427 308.01C241.565 307.999 241.704 308.019 241.833 308.068C242.341 307.57 242.647 306.902 242.692 306.192L241.744 306.178C241.701 306.662 241.478 307.113 241.12 307.441C240.762 307.769 240.294 307.951 239.808 307.951V307.95ZM241.17 303.645C241.284 303.711 241.415 303.741 241.546 303.733C241.677 303.724 241.803 303.677 241.907 303.597C242.012 303.516 242.09 303.407 242.132 303.282C242.174 303.158 242.179 303.023 242.145 302.896C242.111 302.769 242.04 302.655 241.941 302.568C241.842 302.481 241.719 302.426 241.589 302.409C241.458 302.392 241.326 302.414 241.208 302.472C241.09 302.53 240.992 302.622 240.926 302.736C240.882 302.812 240.854 302.895 240.842 302.982C240.831 303.069 240.837 303.157 240.859 303.242C240.882 303.326 240.921 303.405 240.974 303.475C241.028 303.545 241.094 303.603 241.17 303.646V303.645Z" fill="white"/>
<path d="M72.738 261.08L83.3049 254.934L83.2726 266.43L72.7053 272.575L72.738 261.08Z" fill="#777BB4"/>
<path d="M72.738 261.08L83.3049 254.934L83.2726 266.43L72.7053 272.575L72.738 261.08Z" stroke="#1E223B" stroke-linecap="round" stroke-linejoin="round"/>
<path opacity="0.88" d="M62.7406 255.304L73.3075 249.159L83.305 254.934L72.738 261.08L62.7406 255.304Z" fill="#FF5855" stroke="#1E223B" stroke-miterlimit="10"/>
<path d="M72.738 261.08L72.7053 272.575L62.7078 266.799L62.7406 255.304L72.738 261.08Z" fill="#0270BB"/>
<path d="M62.7406 255.304L73.3075 249.159L83.305 254.934L72.738 261.08L62.7406 255.304Z" stroke="#1E223B" stroke-linecap="round" stroke-linejoin="round"/>
<path d="M72.738 261.08L72.7053 272.575L62.7078 266.799L62.7406 255.304L72.738 261.08Z" stroke="#1E223B" stroke-linecap="round" stroke-linejoin="round"/>
<path opacity="0.59" d="M64.9845 244.866C66.2326 244.866 67.2442 243.854 67.2442 242.605C67.2442 241.356 66.2326 240.344 64.9845 240.344C63.7363 240.344 62.7247 241.356 62.7247 242.605C62.7247 243.854 63.7363 244.866 64.9845 244.866Z" fill="white"/>
<path d="M64.9845 244.866C66.2326 244.866 67.2442 243.854 67.2442 242.605C67.2442 241.356 66.2326 240.344 64.9845 240.344C63.7363 240.344 62.7247 241.356 62.7247 242.605C62.7247 243.854 63.7363 244.866 64.9845 244.866Z" stroke="#1E223B" stroke-linecap="round" stroke-linejoin="round"/>
<path opacity="0.59" d="M72.7053 244.866C73.9534 244.866 74.965 243.854 74.965 242.605C74.965 241.356 73.9534 240.344 72.7053 240.344C71.4571 240.344 70.4455 241.356 70.4455 242.605C70.4455 243.854 71.4571 244.866 72.7053 244.866Z" fill="white"/>
<path d="M72.7053 244.866C73.9534 244.866 74.965 243.854 74.965 242.605C74.965 241.356 73.9534 240.344 72.7053 240.344C71.4571 240.344 70.4455 241.356 70.4455 242.605C70.4455 243.854 71.4571 244.866 72.7053 244.866Z" stroke="#1E223B" stroke-linecap="round" stroke-linejoin="round"/>
<path opacity="0.59" d="M80.426 244.866C81.6742 244.866 82.6858 243.854 82.6858 242.605C82.6858 241.356 81.6742 240.344 80.426 240.344C79.1779 240.344 78.1663 241.356 78.1663 242.605C78.1663 243.854 79.1779 244.866 80.426 244.866Z" fill="white"/>
<path opacity="0.32" d="M337.925 211.232C346.141 211.232 352.802 204.567 352.802 196.345C352.802 188.124 346.141 181.459 337.925 181.459C329.709 181.459 323.049 188.124 323.049 196.345C323.049 204.567 329.709 211.232 337.925 211.232Z" fill="white"/>
<path d="M80.426 244.866C81.6742 244.866 82.6858 243.854 82.6858 242.605C82.6858 241.356 81.6742 240.344 80.426 240.344C79.1779 240.344 78.1663 241.356 78.1663 242.605C78.1663 243.854 79.1779 244.866 80.426 244.866Z" stroke="#1E223B" stroke-linecap="round" stroke-linejoin="round"/>
<path opacity="0.12" d="M338.129 196.507L330.093 191.834L330.117 200.576L338.154 205.249L338.129 196.507Z" fill="#0270BB"/>
<path d="M338.129 196.507L330.093 191.834L330.117 200.576L338.154 205.249L338.129 196.507Z" stroke="#1E223B" stroke-linecap="round" stroke-linejoin="round"/>
<path opacity="0.47" d="M345.733 192.114L337.696 187.441L330.093 191.834L338.129 196.507L345.733 192.114Z" fill="#0270BB"/>
<path d="M345.733 192.114L337.696 187.441L330.093 191.834L338.129 196.507L345.733 192.114Z" stroke="#1E223B" stroke-linecap="round" stroke-linejoin="round"/>
<path d="M338.129 196.507L338.154 205.249L345.758 200.857L345.733 192.114L338.129 196.507Z" fill="white" stroke="#1E223B" stroke-linecap="round" stroke-linejoin="round"/>
<path d="M338.129 196.507L338.154 205.249L345.758 200.857L345.733 192.114L338.129 196.507Z" stroke="#1E223B" stroke-linecap="round" stroke-linejoin="round"/>
<path d="M337.925 211.232C346.141 211.232 352.802 204.567 352.802 196.345C352.802 188.124 346.141 181.459 337.925 181.459C329.709 181.459 323.049 188.124 323.049 196.345C323.049 204.567 329.709 211.232 337.925 211.232Z" stroke="#1E223B" stroke-linecap="round" stroke-linejoin="round"/>
<path d="M301.29 103.443H267.553C265.08 103.443 263.075 105.448 263.075 107.923V121.364C263.075 123.839 265.08 125.845 267.553 125.845H301.29C303.763 125.845 305.767 123.839 305.767 121.364V107.923C305.767 105.448 303.763 103.443 301.29 103.443Z" fill="#777BB4"/>
<path d="M301.29 103.443H267.553C265.08 103.443 263.075 105.448 263.075 107.923V121.364C263.075 123.839 265.08 125.845 267.553 125.845H301.29C303.763 125.845 305.767 123.839 305.767 121.364V107.923C305.767 105.448 303.763 103.443 301.29 103.443Z" stroke="#1E223B" stroke-linecap="round" stroke-linejoin="round"/>
<path d="M329.786 205.578H303.424C301.543 205.578 300.019 207.104 300.019 208.986V219.209C300.019 221.091 301.543 222.616 303.424 222.616H329.786C331.667 222.616 333.191 221.091 333.191 219.209V208.986C333.191 207.104 331.667 205.578 329.786 205.578Z" fill="#0270BB"/>
<path d="M329.786 205.578H303.424C301.543 205.578 300.019 207.104 300.019 208.986V219.209C300.019 221.091 301.543 222.616 303.424 222.616H329.786C331.667 222.616 333.191 221.091 333.191 219.209V208.986C333.191 207.104 331.667 205.578 329.786 205.578Z" stroke="#1E223B" stroke-linecap="round" stroke-linejoin="round"/>
<path d="M305.134 213.994C305.134 211.559 306.942 209.915 309.269 209.915C309.905 209.898 310.533 210.052 311.088 210.362C311.644 210.672 312.105 211.126 312.424 211.677L311.254 212.292C311.05 211.945 310.76 211.658 310.412 211.457C310.065 211.256 309.671 211.148 309.269 211.145C307.71 211.145 306.552 212.327 306.552 213.994C306.552 215.637 307.71 216.843 309.269 216.843C309.67 216.837 310.063 216.728 310.41 216.527C310.758 216.327 311.048 216.041 311.254 215.696L312.435 216.288C312.113 216.839 311.651 217.296 311.094 217.609C310.538 217.923 309.908 218.083 309.269 218.073C306.942 218.073 305.134 216.418 305.134 213.994Z" fill="white"/>
<path d="M313.911 216.819L314.691 215.744C315.008 216.09 315.393 216.366 315.822 216.556C316.251 216.745 316.715 216.843 317.184 216.843C318.318 216.843 318.755 216.288 318.755 215.755C318.755 214.1 314.171 215.129 314.171 212.233C314.171 210.92 315.305 209.916 317.042 209.916C317.582 209.897 318.119 209.985 318.624 210.176C319.13 210.367 319.592 210.656 319.984 211.027L319.204 212.055C318.901 211.76 318.542 211.527 318.149 211.371C317.755 211.215 317.335 211.138 316.912 211.145C316.109 211.145 315.589 211.547 315.589 212.125C315.589 213.603 320.173 212.692 320.173 215.624C320.173 216.937 319.239 218.071 317.125 218.071C316.532 218.095 315.94 217.997 315.387 217.781C314.834 217.566 314.332 217.238 313.911 216.819Z" fill="white"/>
<path d="M321.814 216.819L322.594 215.744C322.911 216.09 323.296 216.366 323.725 216.556C324.154 216.745 324.618 216.843 325.087 216.843C326.221 216.843 326.658 216.288 326.658 215.755C326.658 214.1 322.074 215.129 322.074 212.233C322.074 210.92 323.208 209.916 324.945 209.916C325.485 209.897 326.022 209.985 326.528 210.176C327.033 210.367 327.495 210.656 327.887 211.027L327.107 212.055C326.804 211.76 326.445 211.527 326.052 211.371C325.658 211.215 325.238 211.138 324.815 211.145C324.012 211.145 323.492 211.547 323.492 212.125C323.492 213.603 328.076 212.692 328.076 215.624C328.076 216.937 327.143 218.071 325.028 218.071C324.435 218.095 323.843 217.997 323.29 217.781C322.737 217.566 322.235 217.238 321.814 216.819Z" fill="white"/>
<path d="M269.429 119.647V109.603H273.853C275.959 109.603 277.118 111.035 277.118 112.75C277.118 114.452 275.945 115.882 273.853 115.882H271.19V119.647H269.429ZM275.312 112.75C275.312 111.787 274.605 111.155 273.612 111.155H271.19V114.332H273.612C274.605 114.332 275.312 113.699 275.312 112.75H275.312Z" fill="white"/>
<path d="M286.701 119.647V115.25H281.479V119.647H279.718V109.603H281.479V113.699H286.701V109.603H288.461V119.647H286.701Z" fill="white"/>
<path d="M291.724 119.647V109.603H296.148C298.254 109.603 299.413 111.035 299.413 112.75C299.413 114.452 298.239 115.882 296.148 115.882H293.484V119.647H291.724ZM297.607 112.75C297.607 111.787 296.9 111.155 295.907 111.155H293.484V114.332H295.907C296.9 114.332 297.608 113.699 297.608 112.75H297.607Z" fill="white"/>
<path d="M218.089 209.158C218.194 209.311 218.259 209.299 218.341 209.264C218.423 209.229 222.661 207.798 222.79 207.75C222.92 207.703 222.879 207.662 222.838 207.597C222.796 207.533 221.384 205.613 221.313 205.501C221.243 205.389 221.207 205.413 221.096 205.448L216.604 206.617C216.604 206.617 217.982 209.004 218.089 209.157V209.158Z" fill="#F35045"/>
<path d="M223.149 207.203V204.956L221.752 205.328C222.133 205.837 222.728 206.635 223.149 207.203Z" fill="#F35045"/>
<path d="M221.748 202.561C221.679 202.576 220.146 202.854 220.054 202.866C219.961 202.879 219.991 202.932 220.028 202.986L221.377 204.838C221.377 204.838 223.026 204.428 223.127 204.406L223.151 204.401V204.155C222.85 203.775 222.035 202.74 221.964 202.643C221.879 202.526 221.819 202.545 221.75 202.561H221.748Z" fill="#F35045"/>
<path d="M212.104 199.652C212.436 199.637 212.466 199.713 212.612 199.929L216.276 206.057L220.882 204.953C220.627 204.591 219.468 202.948 219.356 202.791C219.231 202.614 219.359 202.532 219.564 202.498C219.768 202.464 221.531 202.167 221.682 202.145C221.833 202.123 221.953 202.07 222.198 202.366C222.324 202.516 222.75 203.047 223.149 203.545V200.678C223.148 200.004 222.88 199.357 222.403 198.881C221.927 198.404 221.281 198.135 220.607 198.134H212.133C211.799 198.129 211.467 198.193 211.158 198.321C210.849 198.45 210.569 198.64 210.337 198.881C210.063 199.149 209.854 199.476 209.727 199.837C210.557 199.769 211.874 199.662 212.104 199.652Z" fill="#F35045"/>
<path d="M218.504 209.983C218.115 210.101 217.941 210.159 217.688 209.805C217.5 209.542 216.474 207.695 215.972 206.783C215.021 207.033 213.28 207.487 212.779 207.608C212.628 207.661 212.462 207.653 212.317 207.586C212.172 207.52 212.058 207.4 211.999 207.251C211.943 207.124 210.507 204.025 209.591 202.038V209.158C209.592 209.832 209.86 210.478 210.337 210.955C210.813 211.432 211.459 211.7 212.133 211.701H220.607C221.281 211.7 221.927 211.432 222.404 210.955C222.88 210.478 223.148 209.832 223.149 209.158V208.321C222.109 208.702 218.766 209.904 218.504 209.983Z" fill="#F35045"/>
<path d="M212.792 206.894C212.93 206.862 215.51 206.245 215.565 206.233C215.62 206.221 215.655 206.19 215.596 206.087L212.157 200.147C212.126 200.094 212.135 200.075 212.05 200.08C211.975 200.084 210.062 200.255 209.619 200.292C209.606 200.386 209.598 200.48 209.595 200.574C210.044 201.495 212.624 206.819 212.639 206.862C212.653 206.906 212.654 206.926 212.792 206.894Z" fill="#F35045"/>
<path opacity="0.32" d="M178.708 155.171H214.11" stroke="#1E223B" stroke-linecap="round" stroke-linejoin="round"/>
<path opacity="0.32" d="M178.708 158.186H201.305" stroke="#1E223B" stroke-linecap="round" stroke-linejoin="round"/>
<path opacity="0.15" d="M168.162 172.884H203.565" stroke="#1E223B" stroke-linecap="round" stroke-linejoin="round"/>
<path opacity="0.32" d="M168.162 176.15H190.76" stroke="#1E223B" stroke-linecap="round" stroke-linejoin="round"/>
<path opacity="0.32" d="M186.24 179.417H199.422" stroke="#1E223B" stroke-linecap="round" stroke-linejoin="round"/>
<path opacity="0.26" d="M168.162 179.417H183.981" stroke="#1E223B" stroke-linecap="round" stroke-linejoin="round"/>
<path opacity="0.15" d="M168.162 182.683H181.721" stroke="#1E223B" stroke-linecap="round" stroke-linejoin="round"/>
<path d="M169.669 188.838C169.269 188.838 168.886 188.997 168.604 189.28C168.321 189.563 168.162 189.946 168.162 190.346C168.162 190.746 168.321 191.129 168.604 191.412C168.886 191.695 169.269 191.853 169.669 191.853H200.05V188.838H169.669Z" fill="#4AD3A5" stroke="#1E223B" stroke-miterlimit="10"/>
<path d="M217.123 188.838H169.669C168.837 188.838 168.162 189.513 168.162 190.346C168.162 191.178 168.837 191.853 169.669 191.853H217.123C217.955 191.853 218.63 191.178 218.63 190.346C218.63 189.513 217.955 188.838 217.123 188.838Z" stroke="#1E223B" stroke-linecap="round" stroke-linejoin="round"/>
<path d="M243.769 228.284H140.763C140.295 228.284 139.916 228.664 139.916 229.132V232.335C139.916 232.804 140.295 233.183 140.763 233.183H243.769C244.238 233.183 244.617 232.804 244.617 232.335V229.132C244.617 228.664 244.238 228.284 243.769 228.284Z" fill="#263C72"/>
<path d="M244.617 228.284H139.916V233.183H244.617V228.284Z" stroke="#1E223B" stroke-linecap="round" stroke-linejoin="round"/>
<path d="M243.487 240.344H237.461C236.837 240.344 236.331 240.85 236.331 241.474V243.735C236.331 244.36 236.837 244.866 237.461 244.866H243.487C244.111 244.866 244.617 244.36 244.617 243.735V241.474C244.617 240.85 244.111 240.344 243.487 240.344Z" fill="#363D56"/>
<path d="M231.435 240.344H225.409C224.785 240.344 224.279 240.85 224.279 241.474V243.735C224.279 244.36 224.785 244.866 225.409 244.866H231.435C232.059 244.866 232.565 244.36 232.565 243.735V241.474C232.565 240.85 232.059 240.344 231.435 240.344Z" fill="#363D56"/>
<path d="M219.383 240.344H213.357C212.733 240.344 212.227 240.85 212.227 241.474V243.735C212.227 244.36 212.733 244.866 213.357 244.866H219.383C220.007 244.866 220.513 244.36 220.513 243.735V241.474C220.513 240.85 220.007 240.344 219.383 240.344Z" fill="#363D56"/>
<path d="M207.331 240.344H201.305C200.681 240.344 200.175 240.85 200.175 241.474V243.735C200.175 244.36 200.681 244.866 201.305 244.866H207.331C207.955 244.866 208.461 244.36 208.461 243.735V241.474C208.461 240.85 207.955 240.344 207.331 240.344Z" fill="#363D56"/>
<path d="M195.279 240.344H189.253C188.629 240.344 188.123 240.85 188.123 241.474V243.735C188.123 244.36 188.629 244.866 189.253 244.866H195.279C195.903 244.866 196.409 244.36 196.409 243.735V241.474C196.409 240.85 195.903 240.344 195.279 240.344Z" fill="#363D56"/>
<path d="M183.227 240.344H177.201C176.577 240.344 176.071 240.85 176.071 241.474V243.735C176.071 244.36 176.577 244.866 177.201 244.866H183.227C183.851 244.866 184.357 244.36 184.357 243.735V241.474C184.357 240.85 183.851 240.344 183.227 240.344Z" fill="#363D56"/>
<path d="M171.175 240.344H165.149C164.525 240.344 164.019 240.85 164.019 241.474V243.735C164.019 244.36 164.525 244.866 165.149 244.866H171.175C171.799 244.866 172.305 244.36 172.305 243.735V241.474C172.305 240.85 171.799 240.344 171.175 240.344Z" fill="#363D56"/>
<path d="M159.123 240.344H153.097C152.473 240.344 151.968 240.85 151.968 241.474V243.735C151.968 244.36 152.473 244.866 153.097 244.866H159.123C159.747 244.866 160.253 244.36 160.253 243.735V241.474C160.253 240.85 159.747 240.344 159.123 240.344Z" fill="#363D56"/>
<path d="M147.071 240.344H141.045C140.421 240.344 139.916 240.85 139.916 241.474V243.735C139.916 244.36 140.421 244.866 141.045 244.866H147.071C147.695 244.866 148.201 244.36 148.201 243.735V241.474C148.201 240.85 147.695 240.344 147.071 240.344Z" fill="#363D56"/>
<path d="M219.383 249.945H213.357C212.733 249.945 212.227 250.451 212.227 251.076V257.106C212.227 257.73 212.733 258.236 213.357 258.236H219.383C220.007 258.236 220.513 257.73 220.513 257.106V251.076C220.513 250.451 220.007 249.945 219.383 249.945Z" fill="#363D56"/>
<path d="M207.331 249.945H201.305C200.681 249.945 200.175 250.451 200.175 251.076V257.106C200.175 257.73 200.681 258.236 201.305 258.236H207.331C207.955 258.236 208.461 257.73 208.461 257.106V251.076C208.461 250.451 207.955 249.945 207.331 249.945Z" fill="#363D56"/>
<path d="M195.279 249.945H189.253C188.629 249.945 188.123 250.451 188.123 251.076V257.106C188.123 257.73 188.629 258.236 189.253 258.236H195.279C195.903 258.236 196.409 257.73 196.409 257.106V251.076C196.409 250.451 195.903 249.945 195.279 249.945Z" fill="#363D56"/>
<path d="M183.227 249.945H177.201C176.577 249.945 176.071 250.451 176.071 251.076V257.106C176.071 257.73 176.577 258.236 177.201 258.236H183.227C183.851 258.236 184.357 257.73 184.357 257.106V251.076C184.357 250.451 183.851 249.945 183.227 249.945Z" fill="#363D56"/>
<path d="M171.175 249.945H165.149C164.525 249.945 164.019 250.451 164.019 251.076V257.106C164.019 257.73 164.525 258.236 165.149 258.236H171.175C171.799 258.236 172.305 257.73 172.305 257.106V251.076C172.305 250.451 171.799 249.945 171.175 249.945Z" fill="#363D56"/>
<path d="M159.123 249.945H153.097C152.473 249.945 151.968 250.451 151.968 251.076V257.106C151.968 257.73 152.473 258.236 153.097 258.236H159.123C159.747 258.236 160.253 257.73 160.253 257.106V251.076C160.253 250.451 159.747 249.945 159.123 249.945Z" fill="#363D56"/>
<path d="M147.071 249.945H141.045C140.421 249.945 139.916 250.451 139.916 251.076V257.106C139.916 257.73 140.421 258.236 141.045 258.236H147.071C147.695 258.236 148.201 257.73 148.201 257.106V251.076C148.201 250.451 147.695 249.945 147.071 249.945Z" fill="#363D56"/>
<path d="M243.487 249.945H237.461C236.837 249.945 236.331 250.451 236.331 251.076V268.982C236.331 269.606 236.837 270.112 237.461 270.112H243.487C244.111 270.112 244.617 269.606 244.617 268.982V251.076C244.617 250.451 244.111 249.945 243.487 249.945Z" fill="#363D56"/>
<path d="M231.435 249.945H225.409C225.109 249.945 224.822 250.064 224.61 250.276C224.398 250.488 224.279 250.776 224.279 251.076V260.69C224.279 260.99 224.16 261.278 223.948 261.49C223.737 261.702 223.449 261.821 223.149 261.821H213.357C213.057 261.821 212.77 261.94 212.558 262.152C212.346 262.364 212.227 262.652 212.227 262.952V268.982C212.227 269.281 212.346 269.569 212.558 269.781C212.77 269.993 213.057 270.112 213.357 270.112H231.435C231.735 270.112 232.022 269.993 232.234 269.781C232.446 269.569 232.565 269.281 232.565 268.982V251.076C232.565 250.776 232.446 250.488 232.234 250.276C232.022 250.064 231.735 249.945 231.435 249.945Z" fill="#363D56"/>
<path d="M207.331 261.821H201.305C200.681 261.821 200.175 262.327 200.175 262.952V268.982C200.175 269.606 200.681 270.112 201.305 270.112H207.331C207.955 270.112 208.461 269.606 208.461 268.982V262.952C208.461 262.327 207.955 261.821 207.331 261.821Z" fill="#363D56"/>
<path d="M195.279 261.821H189.253C188.629 261.821 188.123 262.327 188.123 262.952V268.982C188.123 269.606 188.629 270.112 189.253 270.112H195.279C195.903 270.112 196.409 269.606 196.409 268.982V262.952C196.409 262.327 195.903 261.821 195.279 261.821Z" fill="#363D56"/>
<path d="M183.227 261.821H177.201C176.577 261.821 176.071 262.327 176.071 262.952V268.982C176.071 269.606 176.577 270.112 177.201 270.112H183.227C183.851 270.112 184.357 269.606 184.357 268.982V262.952C184.357 262.327 183.851 261.821 183.227 261.821Z" fill="#363D56"/>
<path d="M171.175 261.821H165.149C164.525 261.821 164.019 262.327 164.019 262.952V268.982C164.019 269.606 164.525 270.112 165.149 270.112H171.175C171.799 270.112 172.305 269.606 172.305 268.982V262.952C172.305 262.327 171.799 261.821 171.175 261.821Z" fill="#363D56"/>
<path d="M159.123 261.821H141.045C140.421 261.821 139.916 262.327 139.916 262.952V268.982C139.916 269.606 140.421 270.112 141.045 270.112H159.123C159.747 270.112 160.253 269.606 160.253 268.982V262.952C160.253 262.327 159.747 261.821 159.123 261.821Z" fill="#363D56"/>
<path d="M243.487 273.697H237.461C236.837 273.697 236.331 274.203 236.331 274.827V280.857C236.331 281.482 236.837 281.988 237.461 281.988H243.487C244.111 281.988 244.617 281.482 244.617 280.857V274.827C244.617 274.203 244.111 273.697 243.487 273.697Z" fill="#363D56"/>
<path d="M231.435 273.697H225.409C224.785 273.697 224.279 274.203 224.279 274.827V280.857C224.279 281.482 224.785 281.988 225.409 281.988H231.435C232.059 281.988 232.565 281.482 232.565 280.857V274.827C232.565 274.203 232.059 273.697 231.435 273.697Z" fill="#363D56"/>
<path d="M219.383 273.697H213.357C212.733 273.697 212.227 274.203 212.227 274.827V280.857C212.227 281.482 212.733 281.988 213.357 281.988H219.383C220.007 281.988 220.513 281.482 220.513 280.857V274.827C220.513 274.203 220.007 273.697 219.383 273.697Z" fill="#363D56"/>
<path d="M207.331 273.697H177.201C176.577 273.697 176.071 274.203 176.071 274.827V280.857C176.071 281.482 176.577 281.988 177.201 281.988H207.331C207.955 281.988 208.461 281.482 208.461 280.857V274.827C208.461 274.203 207.955 273.697 207.331 273.697Z" fill="#363D56"/>
<path d="M171.175 273.697H165.149C164.525 273.697 164.019 274.203 164.019 274.827V280.857C164.019 281.482 164.525 281.988 165.149 281.988H171.175C171.799 281.988 172.305 281.482 172.305 280.857V274.827C172.305 274.203 171.799 273.697 171.175 273.697Z" fill="#363D56"/>
<path d="M159.123 273.697H153.097C152.473 273.697 151.968 274.203 151.968 274.827V280.857C151.968 281.482 152.473 281.988 153.097 281.988H159.123C159.747 281.988 160.253 281.482 160.253 280.857V274.827C160.253 274.203 159.747 273.697 159.123 273.697Z" fill="#363D56"/>
<path d="M147.071 273.697H141.045C140.421 273.697 139.916 274.203 139.916 274.827V280.857C139.916 281.482 140.421 281.988 141.045 281.988H147.071C147.695 281.988 148.201 281.482 148.201 280.857V274.827C148.201 274.203 147.695 273.697 147.071 273.697Z" fill="#363D56"/>
<path d="M243.487 240.344H237.461C236.837 240.344 236.331 240.85 236.331 241.474V243.735C236.331 244.36 236.837 244.866 237.461 244.866H243.487C244.111 244.866 244.617 244.36 244.617 243.735V241.474C244.617 240.85 244.111 240.344 243.487 240.344Z" stroke="#1E223B" stroke-linecap="round" stroke-linejoin="round"/>
<path d="M231.435 240.344H225.409C224.785 240.344 224.279 240.85 224.279 241.474V243.735C224.279 244.36 224.785 244.866 225.409 244.866H231.435C232.059 244.866 232.565 244.36 232.565 243.735V241.474C232.565 240.85 232.059 240.344 231.435 240.344Z" stroke="#1E223B" stroke-linecap="round" stroke-linejoin="round"/>
<path d="M219.383 240.344H213.357C212.733 240.344 212.227 240.85 212.227 241.474V243.735C212.227 244.36 212.733 244.866 213.357 244.866H219.383C220.007 244.866 220.513 244.36 220.513 243.735V241.474C220.513 240.85 220.007 240.344 219.383 240.344Z" stroke="#1E223B" stroke-linecap="round" stroke-linejoin="round"/>
<path d="M207.331 240.344H201.305C200.681 240.344 200.175 240.85 200.175 241.474V243.735C200.175 244.36 200.681 244.866 201.305 244.866H207.331C207.955 244.866 208.461 244.36 208.461 243.735V241.474C208.461 240.85 207.955 240.344 207.331 240.344Z" stroke="#1E223B" stroke-linecap="round" stroke-linejoin="round"/>
<path d="M195.279 240.344H189.253C188.629 240.344 188.123 240.85 188.123 241.474V243.735C188.123 244.36 188.629 244.866 189.253 244.866H195.279C195.903 244.866 196.409 244.36 196.409 243.735V241.474C196.409 240.85 195.903 240.344 195.279 240.344Z" stroke="#1E223B" stroke-linecap="round" stroke-linejoin="round"/>
<path d="M183.227 240.344H177.201C176.577 240.344 176.071 240.85 176.071 241.474V243.735C176.071 244.36 176.577 244.866 177.201 244.866H183.227C183.851 244.866 184.357 244.36 184.357 243.735V241.474C184.357 240.85 183.851 240.344 183.227 240.344Z" stroke="#1E223B" stroke-linecap="round" stroke-linejoin="round"/>
<path d="M171.175 240.344H165.149C164.525 240.344 164.019 240.85 164.019 241.474V243.735C164.019 244.36 164.525 244.866 165.149 244.866H171.175C171.799 244.866 172.305 244.36 172.305 243.735V241.474C172.305 240.85 171.799 240.344 171.175 240.344Z" stroke="#1E223B" stroke-linecap="round" stroke-linejoin="round"/>
<path d="M159.123 240.344H153.097C152.473 240.344 151.968 240.85 151.968 241.474V243.735C151.968 244.36 152.473 244.866 153.097 244.866H159.123C159.747 244.866 160.253 244.36 160.253 243.735V241.474C160.253 240.85 159.747 240.344 159.123 240.344Z" stroke="#1E223B" stroke-linecap="round" stroke-linejoin="round"/>
<path d="M147.071 240.344H141.045C140.421 240.344 139.916 240.85 139.916 241.474V243.735C139.916 244.36 140.421 244.866 141.045 244.866H147.071C147.695 244.866 148.201 244.36 148.201 243.735V241.474C148.201 240.85 147.695 240.344 147.071 240.344Z" stroke="#1E223B" stroke-linecap="round" stroke-linejoin="round"/>
<path d="M219.383 249.945H213.357C212.733 249.945 212.227 250.451 212.227 251.076V257.106C212.227 257.73 212.733 258.236 213.357 258.236H219.383C220.007 258.236 220.513 257.73 220.513 257.106V251.076C220.513 250.451 220.007 249.945 219.383 249.945Z" stroke="#1E223B" stroke-linecap="round" stroke-linejoin="round"/>
<path d="M207.331 249.945H201.305C200.681 249.945 200.175 250.451 200.175 251.076V257.106C200.175 257.73 200.681 258.236 201.305 258.236H207.331C207.955 258.236 208.461 257.73 208.461 257.106V251.076C208.461 250.451 207.955 249.945 207.331 249.945Z" stroke="#1E223B" stroke-linecap="round" stroke-linejoin="round"/>
<path d="M195.279 249.945H189.253C188.629 249.945 188.123 250.451 188.123 251.076V257.106C188.123 257.73 188.629 258.236 189.253 258.236H195.279C195.903 258.236 196.409 257.73 196.409 257.106V251.076C196.409 250.451 195.903 249.945 195.279 249.945Z" stroke="#1E223B" stroke-linecap="round" stroke-linejoin="round"/>
<path d="M183.227 249.945H177.201C176.577 249.945 176.071 250.451 176.071 251.076V257.106C176.071 257.73 176.577 258.236 177.201 258.236H183.227C183.851 258.236 184.357 257.73 184.357 257.106V251.076C184.357 250.451 183.851 249.945 183.227 249.945Z" stroke="#1E223B" stroke-linecap="round" stroke-linejoin="round"/>
<path d="M171.175 249.945H165.149C164.525 249.945 164.019 250.451 164.019 251.076V257.106C164.019 257.73 164.525 258.236 165.149 258.236H171.175C171.799 258.236 172.305 257.73 172.305 257.106V251.076C172.305 250.451 171.799 249.945 171.175 249.945Z" stroke="#1E223B" stroke-linecap="round" stroke-linejoin="round"/>
<path d="M159.123 249.945H153.097C152.473 249.945 151.968 250.451 151.968 251.076V257.106C151.968 257.73 152.473 258.236 153.097 258.236H159.123C159.747 258.236 160.253 257.73 160.253 257.106V251.076C160.253 250.451 159.747 249.945 159.123 249.945Z" stroke="#1E223B" stroke-linecap="round" stroke-linejoin="round"/>
<path d="M147.071 249.945H141.045C140.421 249.945 139.916 250.451 139.916 251.076V257.106C139.916 257.73 140.421 258.236 141.045 258.236H147.071C147.695 258.236 148.201 257.73 148.201 257.106V251.076C148.201 250.451 147.695 249.945 147.071 249.945Z" stroke="#1E223B" stroke-linecap="round" stroke-linejoin="round"/>
<path d="M243.487 249.945H237.461C236.837 249.945 236.331 250.451 236.331 251.076V268.982C236.331 269.606 236.837 270.112 237.461 270.112H243.487C244.111 270.112 244.617 269.606 244.617 268.982V251.076C244.617 250.451 244.111 249.945 243.487 249.945Z" stroke="#1E223B" stroke-linecap="round" stroke-linejoin="round"/>
<path d="M231.435 249.945H225.409C225.109 249.945 224.822 250.064 224.61 250.276C224.398 250.488 224.279 250.776 224.279 251.076V260.69C224.279 260.99 224.16 261.278 223.948 261.49C223.737 261.702 223.449 261.821 223.149 261.821H213.357C213.057 261.821 212.77 261.94 212.558 262.152C212.346 262.364 212.227 262.652 212.227 262.952V268.982C212.227 269.281 212.346 269.569 212.558 269.781C212.77 269.993 213.057 270.112 213.357 270.112H231.435C231.735 270.112 232.022 269.993 232.234 269.781C232.446 269.569 232.565 269.281 232.565 268.982V251.076C232.565 250.776 232.446 250.488 232.234 250.276C232.022 250.064 231.735 249.945 231.435 249.945Z" stroke="#1E223B" stroke-linecap="round" stroke-linejoin="round"/>
<path d="M207.331 261.821H201.305C200.681 261.821 200.175 262.327 200.175 262.952V268.982C200.175 269.606 200.681 270.112 201.305 270.112H207.331C207.955 270.112 208.461 269.606 208.461 268.982V262.952C208.461 262.327 207.955 261.821 207.331 261.821Z" stroke="#1E223B" stroke-linecap="round" stroke-linejoin="round"/>
<path d="M195.279 261.821H189.253C188.629 261.821 188.123 262.327 188.123 262.952V268.982C188.123 269.606 188.629 270.112 189.253 270.112H195.279C195.903 270.112 196.409 269.606 196.409 268.982V262.952C196.409 262.327 195.903 261.821 195.279 261.821Z" stroke="#1E223B" stroke-linecap="round" stroke-linejoin="round"/>
<path d="M183.227 261.821H177.201C176.577 261.821 176.071 262.327 176.071 262.952V268.982C176.071 269.606 176.577 270.112 177.201 270.112H183.227C183.851 270.112 184.357 269.606 184.357 268.982V262.952C184.357 262.327 183.851 261.821 183.227 261.821Z" stroke="#1E223B" stroke-linecap="round" stroke-linejoin="round"/>
<path d="M171.175 261.821H165.149C164.525 261.821 164.019 262.327 164.019 262.952V268.982C164.019 269.606 164.525 270.112 165.149 270.112H171.175C171.799 270.112 172.305 269.606 172.305 268.982V262.952C172.305 262.327 171.799 261.821 171.175 261.821Z" stroke="#1E223B" stroke-linecap="round" stroke-linejoin="round"/>
<path d="M159.123 261.821H141.045C140.421 261.821 139.916 262.327 139.916 262.952V268.982C139.916 269.606 140.421 270.112 141.045 270.112H159.123C159.747 270.112 160.253 269.606 160.253 268.982V262.952C160.253 262.327 159.747 261.821 159.123 261.821Z" stroke="#1E223B" stroke-linecap="round" stroke-linejoin="round"/>
<path d="M243.487 273.697H237.461C236.837 273.697 236.331 274.203 236.331 274.827V280.857C236.331 281.482 236.837 281.988 237.461 281.988H243.487C244.111 281.988 244.617 281.482 244.617 280.857V274.827C244.617 274.203 244.111 273.697 243.487 273.697Z" stroke="#1E223B" stroke-linecap="round" stroke-linejoin="round"/>
<path d="M231.435 273.697H225.409C224.785 273.697 224.279 274.203 224.279 274.827V280.857C224.279 281.482 224.785 281.988 225.409 281.988H231.435C232.059 281.988 232.565 281.482 232.565 280.857V274.827C232.565 274.203 232.059 273.697 231.435 273.697Z" stroke="#1E223B" stroke-linecap="round" stroke-linejoin="round"/>
<path d="M219.383 273.697H213.357C212.733 273.697 212.227 274.203 212.227 274.827V280.857C212.227 281.482 212.733 281.988 213.357 281.988H219.383C220.007 281.988 220.513 281.482 220.513 280.857V274.827C220.513 274.203 220.007 273.697 219.383 273.697Z" stroke="#1E223B" stroke-linecap="round" stroke-linejoin="round"/>
<path d="M207.331 273.697H177.201C176.577 273.697 176.071 274.203 176.071 274.827V280.857C176.071 281.482 176.577 281.988 177.201 281.988H207.331C207.955 281.988 208.461 281.482 208.461 280.857V274.827C208.461 274.203 207.955 273.697 207.331 273.697Z" stroke="#1E223B" stroke-linecap="round" stroke-linejoin="round"/>
<path d="M171.175 273.697H165.149C164.525 273.697 164.019 274.203 164.019 274.827V280.857C164.019 281.482 164.525 281.988 165.149 281.988H171.175C171.799 281.988 172.305 281.482 172.305 280.857V274.827C172.305 274.203 171.799 273.697 171.175 273.697Z" stroke="#1E223B" stroke-linecap="round" stroke-linejoin="round"/>
<path d="M159.123 273.697H153.097C152.473 273.697 151.968 274.203 151.968 274.827V280.857C151.968 281.482 152.473 281.988 153.097 281.988H159.123C159.747 281.988 160.253 281.482 160.253 280.857V274.827C160.253 274.203 159.747 273.697 159.123 273.697Z" stroke="#1E223B" stroke-linecap="round" stroke-linejoin="round"/>
<path d="M147.071 273.697H141.045C140.421 273.697 139.916 274.203 139.916 274.827V280.857C139.916 281.482 140.421 281.988 141.045 281.988H147.071C147.695 281.988 148.201 281.482 148.201 280.857V274.827C148.201 274.203 147.695 273.697 147.071 273.697Z" stroke="#1E223B" stroke-linecap="round" stroke-linejoin="round"/>
<path d="M164.45 308.884H147.879V323.958H164.45V308.884Z" fill="#F2A197"/>
<path d="M164.45 308.884H147.879V323.958H164.45V308.884Z" stroke="#1E223B" stroke-linecap="round" stroke-linejoin="round"/>
<path d="M165.719 320.567H146.173V330.182H165.719V320.567Z" fill="white"/>
<path d="M165.719 320.567H146.173V330.182H165.719V320.567Z" stroke="#1E223B" stroke-linecap="round" stroke-linejoin="round"/>
<path d="M145.453 330H166.547C167.197 330 167.821 330.266 168.282 330.74C168.742 331.214 169 331.856 169 332.526V378H143V332.526C143 331.856 143.259 331.214 143.718 330.74C144.179 330.266 144.803 330 145.453 330Z" fill="#1E223B"/>
<path d="M145.453 330H166.547C167.197 330 167.821 330.266 168.282 330.74C168.742 331.214 169 331.856 169 332.526V378H143V332.526C143 331.856 143.259 331.214 143.718 330.74C144.179 330.266 144.803 330 145.453 330Z" stroke="#1E223B" stroke-linecap="round" stroke-linejoin="round"/>
<path opacity="0.2" d="M162.228 327.248C163.263 327.248 164.101 326.409 164.101 325.374C164.101 324.339 163.263 323.5 162.228 323.5C161.194 323.5 160.355 324.339 160.355 325.374C160.355 326.409 161.194 327.248 162.228 327.248Z" fill="#1E223B"/>
<path d="M162.228 327.248C163.263 327.248 164.101 326.409 164.101 325.374C164.101 324.339 163.263 323.5 162.228 323.5C161.194 323.5 160.355 324.339 160.355 325.374C160.355 326.409 161.194 327.248 162.228 327.248Z" stroke="#1E223B" stroke-linecap="round" stroke-linejoin="round"/>
<path d="M176.5 289.345L176.989 289.628C177.508 289.927 177.887 290.421 178.042 291C178.197 291.58 178.116 292.197 177.816 292.716L168.212 309.362L163.809 306.818L173.413 290.172C173.713 289.653 174.206 289.274 174.785 289.119C175.364 288.964 175.981 289.045 176.5 289.345Z" fill="#F2A197"/>
<path d="M176.5 289.345L176.989 289.628C177.508 289.927 177.887 290.421 178.042 291C178.197 291.58 178.116 292.197 177.816 292.716L168.212 309.362L163.809 306.818L173.413 290.172C173.713 289.653 174.206 289.274 174.785 289.119C175.364 288.964 175.981 289.045 176.5 289.345Z" stroke="#1E223B" stroke-linecap="round" stroke-linejoin="round"/>
<path d="M167.245 265.864H166.68C166.081 265.864 165.506 266.103 165.082 266.527C164.659 266.951 164.421 267.526 164.421 268.126V285.085C164.421 285.385 164.302 285.672 164.09 285.884C163.878 286.096 163.591 286.215 163.291 286.215C162.991 286.215 162.704 286.096 162.492 285.884C162.28 285.672 162.161 285.385 162.161 285.085V264.847C162.161 264.247 161.923 263.672 161.499 263.248C161.075 262.824 160.5 262.586 159.901 262.586H159.336C158.737 262.586 158.162 262.824 157.738 263.248C157.314 263.672 157.076 264.247 157.076 264.847V285.085C157.076 285.385 156.957 285.672 156.745 285.884C156.534 286.096 156.246 286.215 155.947 286.215C155.647 286.215 155.359 286.096 155.148 285.884C154.936 285.672 154.817 285.385 154.817 285.085V268.126C154.817 267.526 154.579 266.951 154.155 266.527C153.731 266.103 153.156 265.864 152.557 265.864H151.992C151.393 265.864 150.818 266.103 150.394 266.527C149.97 266.951 149.732 267.526 149.732 268.126V285.085C149.732 285.385 149.613 285.672 149.401 285.884C149.19 286.096 148.902 286.215 148.602 286.215C148.303 286.215 148.015 286.096 147.804 285.884C147.592 285.672 147.473 285.385 147.473 285.085V273.496C147.473 272.896 147.235 272.321 146.811 271.897C146.387 271.473 145.812 271.235 145.213 271.235H144.648C144.049 271.235 143.474 271.473 143.05 271.897C142.626 272.321 142.388 272.896 142.388 273.496V306.753C142.388 307.952 142.864 309.103 143.712 309.951C144.559 310.799 145.709 311.275 146.908 311.275H164.986C166.184 311.275 167.334 310.799 168.181 309.951C169.029 309.103 169.505 307.952 169.505 306.753V268.126C169.505 267.829 169.447 267.535 169.333 267.26C169.22 266.986 169.053 266.737 168.843 266.527C168.634 266.317 168.384 266.15 168.11 266.037C167.836 265.923 167.542 265.864 167.245 265.864Z" fill="#FDB3A6"/>
<path d="M167.245 265.864H166.68C166.081 265.864 165.506 266.103 165.082 266.527C164.659 266.951 164.421 267.526 164.421 268.126V285.085C164.421 285.385 164.302 285.672 164.09 285.884C163.878 286.096 163.591 286.215 163.291 286.215C162.991 286.215 162.704 286.096 162.492 285.884C162.28 285.672 162.161 285.385 162.161 285.085V264.847C162.161 264.247 161.923 263.672 161.499 263.248C161.075 262.824 160.5 262.586 159.901 262.586H159.336C158.737 262.586 158.162 262.824 157.738 263.248C157.314 263.672 157.076 264.247 157.076 264.847V285.085C157.076 285.385 156.957 285.672 156.745 285.884C156.534 286.096 156.246 286.215 155.947 286.215C155.647 286.215 155.359 286.096 155.148 285.884C154.936 285.672 154.817 285.385 154.817 285.085V268.126C154.817 267.526 154.579 266.951 154.155 266.527C153.731 266.103 153.156 265.864 152.557 265.864H151.992C151.393 265.864 150.818 266.103 150.394 266.527C149.97 266.951 149.732 267.526 149.732 268.126V285.085C149.732 285.385 149.613 285.672 149.401 285.884C149.19 286.096 148.902 286.215 148.602 286.215C148.303 286.215 148.015 286.096 147.804 285.884C147.592 285.672 147.473 285.385 147.473 285.085V273.496C147.473 272.896 147.235 272.321 146.811 271.897C146.387 271.473 145.812 271.235 145.213 271.235H144.648C144.049 271.235 143.474 271.473 143.05 271.897C142.626 272.321 142.388 272.896 142.388 273.496V306.753C142.388 307.952 142.864 309.103 143.712 309.951C144.559 310.799 145.709 311.275 146.908 311.275H164.986C166.184 311.275 167.334 310.799 168.181 309.951C169.029 309.103 169.505 307.952 169.505 306.753V268.126C169.505 267.829 169.447 267.535 169.333 267.26C169.22 266.986 169.053 266.737 168.843 266.527C168.634 266.317 168.384 266.15 168.11 266.037C167.836 265.923 167.542 265.864 167.245 265.864Z" stroke="#1E223B" stroke-linecap="round" stroke-linejoin="round"/>
<path d="M205.261 342.154H188.689V357.229H205.261V342.154Z" fill="#F2A197"/>
<path d="M205.261 342.154H188.689V357.229H205.261V342.154Z" stroke="#1E223B" stroke-linecap="round" stroke-linejoin="round"/>
<path d="M188.686 340.088L184.282 342.632L174.678 325.987C174.379 325.468 174.298 324.85 174.453 324.271C174.608 323.692 174.987 323.198 175.506 322.898L175.995 322.616C176.514 322.316 177.13 322.235 177.71 322.39C178.289 322.545 178.782 322.924 179.082 323.443L188.686 340.088Z" fill="#F2A197"/>
<path d="M188.686 340.088L184.282 342.632L174.678 325.987C174.379 325.468 174.298 324.85 174.453 324.271C174.608 323.692 174.987 323.198 175.506 322.898L175.995 322.616C176.514 322.316 177.13 322.235 177.71 322.39C178.289 322.545 178.782 322.924 179.082 323.443L188.686 340.088Z" stroke="#1E223B" stroke-linecap="round" stroke-linejoin="round"/>
<path d="M185.675 299.135H186.24C186.839 299.135 187.414 299.373 187.838 299.798C188.262 300.222 188.5 300.797 188.5 301.396V318.356C188.5 318.656 188.619 318.943 188.831 319.155C189.043 319.367 189.33 319.486 189.63 319.486C189.93 319.486 190.217 319.367 190.429 319.155C190.641 318.943 190.76 318.656 190.76 318.356V315.653C190.76 315.053 190.998 314.478 191.421 314.054C191.846 313.63 192.42 313.391 193.019 313.391H193.584C194.184 313.391 194.758 313.63 195.182 314.054C195.606 314.478 195.844 315.053 195.844 315.653V318.356C195.844 318.656 195.963 318.943 196.175 319.155C196.387 319.367 196.674 319.486 196.974 319.486C197.274 319.486 197.561 319.367 197.773 319.155C197.985 318.943 198.104 318.656 198.104 318.356V315.653C198.104 315.053 198.342 314.478 198.766 314.054C199.19 313.63 199.764 313.391 200.364 313.391H200.929C201.528 313.391 202.103 313.63 202.527 314.054C202.95 314.478 203.188 315.053 203.188 315.653V318.356C203.188 318.656 203.307 318.943 203.519 319.155C203.731 319.367 204.018 319.486 204.318 319.486C204.618 319.486 204.905 319.367 205.117 319.155C205.329 318.943 205.448 318.656 205.448 318.356V315.653C205.448 315.053 205.686 314.478 206.11 314.054C206.534 313.63 207.109 313.391 207.708 313.391H208.273C208.872 313.391 209.447 313.63 209.871 314.054C210.294 314.478 210.532 315.053 210.532 315.653V340.024C210.532 341.223 210.056 342.373 209.209 343.222C208.361 344.07 207.212 344.546 206.013 344.546H187.935C186.736 344.546 185.587 344.07 184.739 343.222C183.892 342.373 183.416 341.223 183.416 340.024V301.397C183.416 301.1 183.474 300.806 183.587 300.532C183.701 300.257 183.868 300.008 184.077 299.798C184.287 299.588 184.536 299.421 184.811 299.307C185.085 299.194 185.379 299.135 185.675 299.135Z" fill="#FDB3A6"/>
<path d="M185.675 299.135H186.24C186.839 299.135 187.414 299.373 187.838 299.798C188.262 300.222 188.5 300.797 188.5 301.396V318.356C188.5 318.656 188.619 318.943 188.831 319.155C189.043 319.367 189.33 319.486 189.63 319.486C189.93 319.486 190.217 319.367 190.429 319.155C190.641 318.943 190.76 318.656 190.76 318.356V315.653C190.76 315.053 190.998 314.478 191.421 314.054C191.846 313.63 192.42 313.391 193.019 313.391H193.584C194.184 313.391 194.758 313.63 195.182 314.054C195.606 314.478 195.844 315.053 195.844 315.653V318.356C195.844 318.656 195.963 318.943 196.175 319.155C196.387 319.367 196.674 319.486 196.974 319.486C197.274 319.486 197.561 319.367 197.773 319.155C197.985 318.943 198.104 318.656 198.104 318.356V315.653C198.104 315.053 198.342 314.478 198.766 314.054C199.19 313.63 199.764 313.391 200.364 313.391H200.929C201.528 313.391 202.103 313.63 202.527 314.054C202.95 314.478 203.188 315.053 203.188 315.653V318.356C203.188 318.656 203.307 318.943 203.519 319.155C203.731 319.367 204.018 319.486 204.318 319.486C204.618 319.486 204.905 319.367 205.117 319.155C205.329 318.943 205.448 318.656 205.448 318.356V315.653C205.448 315.053 205.686 314.478 206.11 314.054C206.534 313.63 207.109 313.391 207.708 313.391H208.273C208.872 313.391 209.447 313.63 209.871 314.054C210.294 314.478 210.532 315.053 210.532 315.653V340.024C210.532 341.223 210.056 342.373 209.209 343.222C208.361 344.07 207.212 344.546 206.013 344.546H187.935C186.736 344.546 185.587 344.07 184.739 343.222C183.892 342.373 183.416 341.223 183.416 340.024V301.397C183.416 301.1 183.474 300.806 183.587 300.532C183.701 300.257 183.868 300.008 184.077 299.798C184.287 299.588 184.536 299.421 184.811 299.307C185.085 299.194 185.379 299.135 185.675 299.135Z" stroke="#1E223B" stroke-linecap="round" stroke-linejoin="round"/>
<path d="M206.748 353.837H187.202V363.453H206.748V353.837Z" fill="white"/>
<path d="M206.748 353.837H187.202V363.453H206.748V353.837Z" stroke="#1E223B" stroke-linecap="round" stroke-linejoin="round"/>
<path d="M186.453 363H207.547C208.197 363 208.821 363.279 209.282 363.776C209.742 364.272 210 364.945 210 365.648V378H184V365.647C184 364.945 184.259 364.272 184.718 363.776C185.178 363.279 185.802 363 186.453 363Z" fill="#1E223B"/>
<path d="M186.47 363.209H207.48C208.127 363.209 208.749 363.466 209.207 363.925C209.665 364.383 209.923 365.005 209.923 365.653V378.058H184.027V365.653C184.027 365.005 184.285 364.383 184.743 363.925C185.201 363.466 185.822 363.209 186.47 363.209Z" stroke="#1E223B" stroke-linecap="round" stroke-linejoin="round"/>
<path d="M191.336 360.519C192.37 360.519 193.209 359.68 193.209 358.645C193.209 357.61 192.37 356.771 191.336 356.771C190.301 356.771 189.463 357.61 189.463 358.645C189.463 359.68 190.301 360.519 191.336 360.519Z" stroke="#1E223B" stroke-linecap="round" stroke-linejoin="round"/>
<path opacity="0.2" d="M191.336 360.519C192.37 360.519 193.209 359.68 193.209 358.645C193.209 357.61 192.37 356.771 191.336 356.771C190.301 356.771 189.463 357.61 189.463 358.645C189.463 359.68 190.301 360.519 191.336 360.519Z" fill="#1E223B"/>
<path d="M197.727 77.2582H218.065" stroke="#1E223B" stroke-linecap="round" stroke-linejoin="round"/>
<path d="M197.727 82.3459H213.545" stroke="#1E223B" stroke-linecap="round" stroke-linejoin="round"/>
<path d="M197.727 87.4337H206.766" stroke="#1E223B" stroke-linecap="round" stroke-linejoin="round"/>
<path d="M224.924 55.9651H235.093" stroke="#1E223B" stroke-linecap="round" stroke-linejoin="round"/>
<path d="M224.924 58.6032H231.327" stroke="#1E223B" stroke-linecap="round" stroke-linejoin="round"/>
<path d="M224.688 82.7714H225.817" stroke="#1E223B" stroke-linecap="round" stroke-linejoin="round"/>
<path d="M228.807 82.7714H237.173C241.145 82.7714 244.954 84.3501 247.763 87.1608C250.572 89.9711 252.149 93.7828 252.149 97.7573C252.149 99.7253 251.762 101.674 251.009 103.492C250.257 105.31 249.154 106.962 247.763 108.354C246.372 109.745 244.721 110.849 242.904 111.602C241.088 112.355 239.14 112.743 237.173 112.743H212.48C210.271 112.743 208.083 113.178 206.042 114.024C204.001 114.871 202.146 116.11 200.584 117.674C199.021 119.237 197.782 121.093 196.936 123.136C196.091 125.178 195.656 127.368 195.656 129.578V131.44" stroke="#1E223B" stroke-linecap="round" stroke-linejoin="round" stroke-dasharray="5.95 7.94"/>
<path d="M195.656 132.936V134.066" stroke="#1E223B" stroke-linecap="round" stroke-linejoin="round"/>
<path d="M84.4981 176.315H131.78" stroke="#1E223B" stroke-linecap="round" stroke-linejoin="round" stroke-dasharray="6 8"/>
<path d="M83.2854 261.821H93.1717C97.678 261.821 101.999 260.03 105.186 256.841C108.372 253.653 110.162 249.328 110.162 244.819V237.661C110.162 233.175 111.943 228.873 115.113 225.701C118.283 222.529 122.583 220.747 127.066 220.746H132.383" stroke="#1E223B" stroke-linecap="round" stroke-linejoin="round"/>
<path d="M133.435 83.9883H138.54C142.101 83.9887 145.517 85.4042 148.035 87.924C150.553 90.4437 151.968 93.8616 151.968 97.4249C151.968 99.1894 152.315 100.937 152.99 102.567C153.665 104.197 154.654 105.678 155.901 106.926C157.147 108.174 158.628 109.163 160.257 109.839C161.886 110.514 163.632 110.861 165.395 110.861H172.813C176.374 110.861 179.789 112.277 182.308 114.797C184.826 117.316 186.24 120.734 186.24 124.298V134.066" stroke="#1E223B" stroke-linecap="round" stroke-linejoin="round" stroke-dasharray="6 8"/>
<path d="M252.149 173.636H271.934C273.654 173.636 275.356 173.297 276.945 172.639C278.534 171.981 279.977 171.015 281.193 169.799C282.409 168.582 283.374 167.138 284.032 165.548C284.69 163.959 285.029 162.255 285.029 160.534V125.845" stroke="#1E223B" stroke-linecap="round" stroke-linejoin="round"/>
<path d="M334.124 288.398C340.47 288.398 345.614 283.25 345.614 276.9C345.614 270.549 340.47 265.402 334.124 265.402C327.778 265.402 322.633 270.549 322.633 276.9C322.633 283.25 327.778 288.398 334.124 288.398Z" stroke="#1E223B" stroke-linecap="round" stroke-linejoin="round"/>
<path d="M252.149 196.507H323.049" stroke="#1E223B" stroke-linecap="round" stroke-linejoin="round" stroke-dasharray="6 8"/>
<path d="M323.66 296.785C331.021 296.785 336.988 290.813 336.988 283.448C336.988 276.083 331.021 270.112 323.66 270.112C316.299 270.112 310.332 276.083 310.332 283.448C310.332 290.813 316.299 296.785 323.66 296.785Z" fill="white"/>
<path d="M323.66 296.785C331.021 296.785 336.988 290.813 336.988 283.448C336.988 276.083 331.021 270.112 323.66 270.112C316.299 270.112 310.332 276.083 310.332 283.448C310.332 290.813 316.299 296.785 323.66 296.785Z" stroke="#1E223B" stroke-linecap="round" stroke-linejoin="round"/>
<path d="M310.332 283.448H252.149" stroke="#1E223B" stroke-linecap="round" stroke-linejoin="round" stroke-dasharray="6 8"/>
<path opacity="0.39" d="M254.974 56.7188C256.534 56.7188 257.799 55.4533 257.799 53.8923C257.799 52.3313 256.534 51.0658 254.974 51.0658C253.414 51.0658 252.149 52.3313 252.149 53.8923C252.149 55.4533 253.414 56.7188 254.974 56.7188Z" fill="white"/>
<path d="M254.974 56.7188C256.534 56.7188 257.799 55.4533 257.799 53.8923C257.799 52.3313 256.534 51.0658 254.974 51.0658C253.414 51.0658 252.149 52.3313 252.149 53.8923C252.149 55.4533 253.414 56.7188 254.974 56.7188Z" stroke="#1E223B" stroke-linecap="round" stroke-linejoin="round"/>
<path d="M317.967 295.509L323.66 283.448L336.835 285.472" stroke="#1E223B" stroke-linecap="round" stroke-linejoin="round"/>
<path d="M319.403 257.447H293.041C291.16 257.447 289.636 258.973 289.636 260.855V271.078C289.636 272.96 291.16 274.485 293.041 274.485H319.403C321.283 274.485 322.808 272.96 322.808 271.078V260.855C322.808 258.973 321.283 257.447 319.403 257.447Z" fill="#F73E59"/>
<path d="M319.403 257.447H293.041C291.16 257.447 289.636 258.973 289.636 260.855V271.078C289.636 272.96 291.16 274.485 293.041 274.485H319.403C321.283 274.485 322.808 272.96 322.808 271.078V260.855C322.808 258.973 321.283 257.447 319.403 257.447Z" stroke="#1E223B" stroke-linecap="round" stroke-linejoin="round"/>
<path d="M293.938 268.946L294.742 267.837C295.068 268.194 295.466 268.479 295.908 268.674C296.351 268.869 296.829 268.97 297.312 268.97C298.48 268.97 298.932 268.397 298.932 267.849C298.932 266.143 294.206 267.203 294.206 264.217C294.206 262.864 295.373 261.827 297.166 261.827C297.722 261.808 298.276 261.899 298.797 262.096C299.318 262.293 299.794 262.591 300.199 262.973L299.395 264.034C299.082 263.729 298.712 263.49 298.307 263.329C297.901 263.168 297.468 263.088 297.032 263.096C296.203 263.096 295.667 263.51 295.667 264.107C295.667 265.63 300.394 264.692 300.394 267.715C300.394 269.068 299.431 270.238 297.251 270.238C296.64 270.262 296.03 270.16 295.46 269.938C294.889 269.715 294.371 269.378 293.938 268.946Z" fill="white"/>
<path d="M302.258 266.032C302.258 263.607 303.975 261.827 306.412 261.827C308.835 261.827 310.565 263.607 310.565 266.032C310.587 267.11 310.199 268.155 309.481 268.958L310.151 269.712L309.164 270.541L308.458 269.75C307.826 270.077 307.124 270.245 306.412 270.237C303.975 270.238 302.258 268.458 302.258 266.032ZM307.556 268.726L306.545 267.58L307.544 266.751L308.555 267.897C308.926 267.347 309.118 266.695 309.103 266.031C309.103 264.35 308.044 263.094 306.412 263.094C304.767 263.094 303.719 264.35 303.719 266.031C303.719 267.702 304.767 268.971 306.412 268.971C306.806 268.975 307.197 268.891 307.556 268.727V268.726Z" fill="white"/>
<path d="M312.748 270.092V261.962H314.173V268.837H317.754V270.092L312.748 270.092Z" fill="white"/>
<path d="M101.833 91.5299H61.6563C59.412 91.5299 57.5925 93.3506 57.5925 95.5963V107.136C57.5925 109.382 59.412 111.203 61.6563 111.203H101.833C104.077 111.203 105.896 109.382 105.896 107.136V95.5963C105.896 93.3506 104.077 91.5299 101.833 91.5299Z" fill="#E44D26" stroke="#1E223B" stroke-miterlimit="10"/>
<path d="M101.833 91.5299H61.6563C59.412 91.5299 57.5925 93.3506 57.5925 95.5963V107.136C57.5925 109.382 59.412 111.203 61.6563 111.203H101.833C104.077 111.203 105.896 109.382 105.896 107.136V95.5963C105.896 93.3506 104.077 91.5299 101.833 91.5299Z" stroke="#1E223B" stroke-linecap="round" stroke-linejoin="round"/>
<path d="M69.487 105.825V101.921H64.8523V105.825H63.2893V96.9086H64.8523V100.544H69.487V96.9086H71.05V105.825H69.487Z" fill="white"/>
<path d="M76.0738 105.825V98.2875H73.3753V96.9108H80.3338V98.2875H77.6353V105.825H76.0738Z" fill="white"/>
<path d="M90.3542 105.825V98.9403L87.629 105.825H86.9624L84.2243 98.941V105.825H82.6613V96.9086H84.8653L87.2968 103.031L89.7143 96.9086H91.9183V105.825H90.3542Z" fill="white"/>
<path d="M94.7095 105.825V96.9086H96.2721V104.446H100.2V105.825H94.7095Z" fill="white"/>
</g>
<defs>
<clipPath id="clip0_6_13304">
<rect width="377" height="378" fill="white"/>
</clipPath>
</defs>
</svg>
