<svg width="217" height="136" viewBox="0 0 217 136" fill="none" xmlns="http://www.w3.org/2000/svg">
<g style="mix-blend-mode:multiply" opacity="0.33">
<g style="mix-blend-mode:multiply" opacity="0.33">
<path d="M210.513 50.5034H119.781C116.758 50.5034 114.306 52.9532 114.306 55.975V62.8059C114.306 65.8278 116.758 68.2773 119.781 68.2773H210.513C213.537 68.2773 215.988 65.8278 215.988 62.8059V55.975C215.988 52.9532 213.537 50.5034 210.513 50.5034Z" fill="#4E4E4E"/>
<path d="M210.513 50.5034H119.781C116.758 50.5034 114.306 52.9532 114.306 55.975V62.8059C114.306 65.8278 116.758 68.2773 119.781 68.2773H210.513C213.537 68.2773 215.988 65.8278 215.988 62.8059V55.975C215.988 52.9532 213.537 50.5034 210.513 50.5034Z" stroke="black" stroke-linecap="round" stroke-linejoin="round"/>
</g>
<g style="mix-blend-mode:multiply" opacity="0.33">
<path d="M210.513 50.5034H119.781C116.758 50.5034 114.306 52.9532 114.306 55.975V62.8059C114.306 65.8278 116.758 68.2773 119.781 68.2773H210.513C213.537 68.2773 215.988 65.8278 215.988 62.8059V55.975C215.988 52.9532 213.537 50.5034 210.513 50.5034Z" fill="#4E4E4E"/>
</g>
<g style="mix-blend-mode:multiply" opacity="0.17">
<path d="M119.782 50.5034H210.513C211.965 50.5034 213.358 51.08 214.385 52.1061C215.412 53.1322 215.988 54.5239 215.988 55.975V63.9628C215.988 64.8488 215.636 65.6987 215.009 66.3252C214.382 66.9517 213.532 67.3039 212.645 67.3039H117.65C116.764 67.3039 115.913 66.9517 115.286 66.3252C114.659 65.6987 114.307 64.8488 114.307 63.9628V55.975C114.307 54.5239 114.884 53.1322 115.911 52.1061C116.937 51.08 118.33 50.5034 119.782 50.5034H119.782Z" fill="#4E4E4E"/>
</g>
<g style="mix-blend-mode:multiply" opacity="0.33">
<path d="M210.513 50.5034H119.781C116.758 50.5034 114.306 52.9532 114.306 55.975V62.8059C114.306 65.8278 116.758 68.2773 119.781 68.2773H210.513C213.537 68.2773 215.988 65.8278 215.988 62.8059V55.975C215.988 52.9532 213.537 50.5034 210.513 50.5034Z" fill="#4E4E4E"/>
<path d="M210.513 50.5034H119.781C116.758 50.5034 114.306 52.9532 114.306 55.975V62.8059C114.306 65.8278 116.758 68.2773 119.781 68.2773H210.513C213.537 68.2773 215.988 65.8278 215.988 62.8059V55.975C215.988 52.9532 213.537 50.5034 210.513 50.5034Z" stroke="#46505C" stroke-linecap="round" stroke-linejoin="round"/>
</g>
<g style="mix-blend-mode:multiply" opacity="0.33">
<path d="M208.949 66.1618V52.5058H121.346V66.1618H208.949Z" fill="#4E4E4E"/>
</g>
<g style="mix-blend-mode:multiply" opacity="0.33">
<path d="M208.949 66.1618V52.5058H121.346V66.1618H208.949Z" fill="#4E4E4E"/>
<path d="M208.949 66.1618V52.5058H121.346V66.1618H208.949Z" stroke="#46505C" stroke-linecap="round" stroke-linejoin="round"/>
</g>
<g style="mix-blend-mode:multiply" opacity="0.33">
<path d="M210.513 68.2772H119.782C116.758 68.2772 114.307 70.727 114.307 73.7488V130.028C114.307 133.049 116.758 135.499 119.782 135.499H210.513C213.537 135.499 215.989 133.049 215.989 130.028V73.7488C215.989 70.727 213.537 68.2772 210.513 68.2772Z" fill="#4E4E4E"/>
</g>
<g style="mix-blend-mode:multiply" opacity="0.33">
<path d="M214.424 130.028V73.7487C214.424 71.5902 212.673 69.8404 210.513 69.8404H119.782C117.622 69.8404 115.871 71.5902 115.871 73.7487V130.028C115.871 132.186 117.622 133.936 119.782 133.936H210.513C212.673 133.936 214.424 132.186 214.424 130.028Z" fill="#4E4E4E"/>
<path d="M214.424 130.028V73.7487C214.424 71.5902 212.673 69.8404 210.513 69.8404H119.782C117.622 69.8404 115.871 71.5902 115.871 73.7487V130.028C115.871 132.186 117.622 133.936 119.782 133.936H210.513C212.673 133.936 214.424 132.186 214.424 130.028Z" stroke="#E6F3FF" stroke-miterlimit="10"/>
</g>
<g style="mix-blend-mode:multiply" opacity="0.33">
<path d="M158.87 132.442H171.424C171.839 132.442 172.237 132.607 172.53 132.9C172.823 133.193 172.988 133.591 172.988 134.005V135.498H157.306V134.005C157.306 133.591 157.471 133.193 157.764 132.9C158.057 132.607 158.455 132.442 158.87 132.442Z" fill="#4E4E4E"/>
</g>
<g style="mix-blend-mode:multiply" opacity="0.33">
<path d="M210.513 68.2772H119.782C116.758 68.2772 114.307 70.727 114.307 73.7488V130.028C114.307 133.049 116.758 135.499 119.782 135.499H210.513C213.537 135.499 215.989 133.049 215.989 130.028V73.7488C215.989 70.727 213.537 68.2772 210.513 68.2772Z" fill="#4E4E4E"/>
<path d="M210.513 68.2772H119.782C116.758 68.2772 114.307 70.727 114.307 73.7488V130.028C114.307 133.049 116.758 135.499 119.782 135.499H210.513C213.537 135.499 215.989 133.049 215.989 130.028V73.7488C215.989 70.727 213.537 68.2772 210.513 68.2772Z" stroke="#46505C" stroke-linecap="round" stroke-linejoin="round"/>
</g>
<g style="mix-blend-mode:multiply" opacity="0.33">
<path d="M208.948 73.5224H121.345C120.697 73.5224 120.172 74.0474 120.172 74.6948V108.306C120.172 108.953 120.697 109.478 121.345 109.478H208.948C209.596 109.478 210.122 108.953 210.122 108.306V74.6948C210.122 74.0474 209.596 73.5224 208.948 73.5224Z" fill="#4E4E4E"/>
</g>
<g style="mix-blend-mode:multiply" opacity="0.33">
<path d="M137.414 100.685H132.721C132.505 100.685 132.33 100.859 132.33 101.075V105.765C132.33 105.981 132.505 106.156 132.721 106.156H137.414C137.63 106.156 137.805 105.981 137.805 105.765V101.075C137.805 100.859 137.63 100.685 137.414 100.685Z" fill="#4E4E4E"/>
<path d="M137.414 100.685H132.721C132.505 100.685 132.33 100.859 132.33 101.075V105.765C132.33 105.981 132.505 106.156 132.721 106.156H137.414C137.63 106.156 137.805 105.981 137.805 105.765V101.075C137.805 100.859 137.63 100.685 137.414 100.685Z" stroke="#626C84" stroke-linecap="round" stroke-linejoin="round"/>
</g>
<g style="mix-blend-mode:multiply" opacity="0.33">
<path d="M128.951 100.685H124.258C124.042 100.685 123.867 100.859 123.867 101.075V105.765C123.867 105.981 124.042 106.156 124.258 106.156H128.951C129.167 106.156 129.342 105.981 129.342 105.765V101.075C129.342 100.859 129.167 100.685 128.951 100.685Z" fill="#4E4E4E"/>
<path d="M128.951 100.685H124.258C124.042 100.685 123.867 100.859 123.867 101.075V105.765C123.867 105.981 124.042 106.156 124.258 106.156H128.951C129.167 106.156 129.342 105.981 129.342 105.765V101.075C129.342 100.859 129.167 100.685 128.951 100.685Z" stroke="#626C84" stroke-linecap="round" stroke-linejoin="round"/>
</g>
<g style="mix-blend-mode:multiply" opacity="0.33">
<path d="M179.726 100.685H141.183C140.967 100.685 140.792 100.859 140.792 101.075V105.765C140.792 105.981 140.967 106.156 141.183 106.156H179.726C179.942 106.156 180.117 105.981 180.117 105.765V101.075C180.117 100.859 179.942 100.685 179.726 100.685Z" fill="#4E4E4E"/>
<path d="M179.726 100.685H141.183C140.967 100.685 140.792 100.859 140.792 101.075V105.765C140.792 105.981 140.967 106.156 141.183 106.156H179.726C179.942 106.156 180.117 105.981 180.117 105.765V101.075C180.117 100.859 179.942 100.685 179.726 100.685Z" stroke="#626C84" stroke-linecap="round" stroke-linejoin="round"/>
</g>
<g style="mix-blend-mode:multiply" opacity="0.33">
<path d="M188.189 100.685H183.496C183.28 100.685 183.105 100.859 183.105 101.075V105.765C183.105 105.981 183.28 106.156 183.496 106.156H188.189C188.405 106.156 188.58 105.981 188.58 105.765V101.075C188.58 100.859 188.405 100.685 188.189 100.685Z" fill="#4E4E4E"/>
<path d="M188.189 100.685H183.496C183.28 100.685 183.105 100.859 183.105 101.075V105.765C183.105 105.981 183.28 106.156 183.496 106.156H188.189C188.405 106.156 188.58 105.981 188.58 105.765V101.075C188.58 100.859 188.405 100.685 188.189 100.685Z" stroke="#626C84" stroke-linecap="round" stroke-linejoin="round"/>
</g>
<g style="mix-blend-mode:multiply" opacity="0.33">
<path d="M200.562 103.762H197.433C197.217 103.762 197.042 103.937 197.042 104.153V105.765C197.042 105.981 197.217 106.156 197.433 106.156H200.562C200.778 106.156 200.953 105.981 200.953 105.765V104.153C200.953 103.937 200.778 103.762 200.562 103.762Z" fill="#4E4E4E"/>
<path d="M200.562 103.762H197.433C197.217 103.762 197.042 103.937 197.042 104.153V105.765C197.042 105.981 197.217 106.156 197.433 106.156H200.562C200.778 106.156 200.953 105.981 200.953 105.765V104.153C200.953 103.937 200.778 103.762 200.562 103.762Z" stroke="#626C84" stroke-linecap="round" stroke-linejoin="round"/>
</g>
<g style="mix-blend-mode:multiply" opacity="0.33">
<path d="M200.562 100.685H197.433C197.217 100.685 197.042 100.859 197.042 101.075V102.688C197.042 102.904 197.217 103.078 197.433 103.078H200.562C200.778 103.078 200.953 102.904 200.953 102.688V101.075C200.953 100.859 200.778 100.685 200.562 100.685Z" fill="#4E4E4E"/>
<path d="M200.562 100.685H197.433C197.217 100.685 197.042 100.859 197.042 101.075V102.688C197.042 102.904 197.217 103.078 197.433 103.078H200.562C200.778 103.078 200.953 102.904 200.953 102.688V101.075C200.953 100.859 200.778 100.685 200.562 100.685Z" stroke="#626C84" stroke-linecap="round" stroke-linejoin="round"/>
</g>
<g style="mix-blend-mode:multiply" opacity="0.33">
<path d="M206.037 103.762H202.908C202.692 103.762 202.517 103.937 202.517 104.153V105.765C202.517 105.981 202.692 106.156 202.908 106.156H206.037C206.253 106.156 206.428 105.981 206.428 105.765V104.153C206.428 103.937 206.253 103.762 206.037 103.762Z" fill="#4E4E4E"/>
<path d="M206.037 103.762H202.908C202.692 103.762 202.517 103.937 202.517 104.153V105.765C202.517 105.981 202.692 106.156 202.908 106.156H206.037C206.253 106.156 206.428 105.981 206.428 105.765V104.153C206.428 103.937 206.253 103.762 206.037 103.762Z" stroke="#626C84" stroke-linecap="round" stroke-linejoin="round"/>
</g>
<g style="mix-blend-mode:multiply" opacity="0.33">
<path d="M195.087 103.762H191.958C191.742 103.762 191.567 103.937 191.567 104.153V105.765C191.567 105.981 191.742 106.156 191.958 106.156H195.087C195.303 106.156 195.478 105.981 195.478 105.765V104.153C195.478 103.937 195.303 103.762 195.087 103.762Z" fill="#4E4E4E"/>
<path d="M195.087 103.762H191.958C191.742 103.762 191.567 103.937 191.567 104.153V105.765C191.567 105.981 191.742 106.156 191.958 106.156H195.087C195.303 106.156 195.478 105.981 195.478 105.765V104.153C195.478 103.937 195.303 103.762 195.087 103.762Z" stroke="#626C84" stroke-linecap="round" stroke-linejoin="round"/>
</g>
<g style="mix-blend-mode:multiply" opacity="0.33">
<path d="M136.631 92.899H124.258C124.042 92.899 123.867 93.0741 123.867 93.29V97.9797C123.867 98.1956 124.042 98.3706 124.258 98.3706H136.631C136.847 98.3706 137.023 98.1956 137.023 97.9797V93.29C137.023 93.0741 136.847 92.899 136.631 92.899Z" fill="#4E4E4E"/>
<path d="M136.631 92.899H124.258C124.042 92.899 123.867 93.0741 123.867 93.29V97.9797C123.867 98.1956 124.042 98.3706 124.258 98.3706H136.631C136.847 98.3706 137.023 98.1956 137.023 97.9797V93.29C137.023 93.0741 136.847 92.899 136.631 92.899Z" stroke="#626C84" stroke-linecap="round" stroke-linejoin="round"/>
</g>
<g style="mix-blend-mode:multiply" opacity="0.33">
<path d="M145.164 92.899H140.471C140.255 92.899 140.08 93.0741 140.08 93.29V97.9797C140.08 98.1956 140.255 98.3706 140.471 98.3706H145.164C145.38 98.3706 145.555 98.1956 145.555 97.9797V93.29C145.555 93.0741 145.38 92.899 145.164 92.899Z" fill="#4E4E4E"/>
<path d="M145.164 92.899H140.471C140.255 92.899 140.08 93.0741 140.08 93.29V97.9797C140.08 98.1956 140.255 98.3706 140.471 98.3706H145.164C145.38 98.3706 145.555 98.1956 145.555 97.9797V93.29C145.555 93.0741 145.38 92.899 145.164 92.899Z" stroke="#626C84" stroke-linecap="round" stroke-linejoin="round"/>
</g>
<g style="mix-blend-mode:multiply" opacity="0.33">
<path d="M153.627 92.899H148.934C148.718 92.899 148.543 93.0741 148.543 93.29V97.9797C148.543 98.1956 148.718 98.3706 148.934 98.3706H153.627C153.843 98.3706 154.018 98.1956 154.018 97.9797V93.29C154.018 93.0741 153.843 92.899 153.627 92.899Z" fill="#4E4E4E"/>
<path d="M153.627 92.899H148.934C148.718 92.899 148.543 93.0741 148.543 93.29V97.9797C148.543 98.1956 148.718 98.3706 148.934 98.3706H153.627C153.843 98.3706 154.018 98.1956 154.018 97.9797V93.29C154.018 93.0741 153.843 92.899 153.627 92.899Z" stroke="#626C84" stroke-linecap="round" stroke-linejoin="round"/>
</g>
<g style="mix-blend-mode:multiply" opacity="0.33">
<path d="M162.089 92.899H157.396C157.18 92.899 157.005 93.0741 157.005 93.29V97.9797C157.005 98.1956 157.18 98.3706 157.396 98.3706H162.089C162.305 98.3706 162.48 98.1956 162.48 97.9797V93.29C162.48 93.0741 162.305 92.899 162.089 92.899Z" fill="#4E4E4E"/>
<path d="M162.089 92.899H157.396C157.18 92.899 157.005 93.0741 157.005 93.29V97.9797C157.005 98.1956 157.18 98.3706 157.396 98.3706H162.089C162.305 98.3706 162.48 98.1956 162.48 97.9797V93.29C162.48 93.0741 162.305 92.899 162.089 92.899Z" stroke="#626C84" stroke-linecap="round" stroke-linejoin="round"/>
</g>
<g style="mix-blend-mode:multiply" opacity="0.33">
<path d="M170.551 92.899H165.858C165.643 92.899 165.467 93.0741 165.467 93.29V97.9797C165.467 98.1956 165.643 98.3706 165.858 98.3706H170.551C170.768 98.3706 170.943 98.1956 170.943 97.9797V93.29C170.943 93.0741 170.768 92.899 170.551 92.899Z" fill="#4E4E4E"/>
<path d="M170.551 92.899H165.858C165.643 92.899 165.467 93.0741 165.467 93.29V97.9797C165.467 98.1956 165.643 98.3706 165.858 98.3706H170.551C170.768 98.3706 170.943 98.1956 170.943 97.9797V93.29C170.943 93.0741 170.768 92.899 170.551 92.899Z" stroke="#626C84" stroke-linecap="round" stroke-linejoin="round"/>
</g>
<g style="mix-blend-mode:multiply" opacity="0.33">
<path d="M179.014 92.899H174.321C174.105 92.899 173.93 93.0741 173.93 93.29V97.9797C173.93 98.1956 174.105 98.3706 174.321 98.3706H179.014C179.23 98.3706 179.405 98.1956 179.405 97.9797V93.29C179.405 93.0741 179.23 92.899 179.014 92.899Z" fill="#4E4E4E"/>
<path d="M179.014 92.899H174.321C174.105 92.899 173.93 93.0741 173.93 93.29V97.9797C173.93 98.1956 174.105 98.3706 174.321 98.3706H179.014C179.23 98.3706 179.405 98.1956 179.405 97.9797V93.29C179.405 93.0741 179.23 92.899 179.014 92.899Z" stroke="#626C84" stroke-linecap="round" stroke-linejoin="round"/>
</g>
<g style="mix-blend-mode:multiply" opacity="0.33">
<path d="M187.477 92.899H182.784C182.568 92.899 182.393 93.0741 182.393 93.29V97.9797C182.393 98.1956 182.568 98.3706 182.784 98.3706H187.477C187.693 98.3706 187.868 98.1956 187.868 97.9797V93.29C187.868 93.0741 187.693 92.899 187.477 92.899Z" fill="#4E4E4E"/>
<path d="M187.477 92.899H182.784C182.568 92.899 182.393 93.0741 182.393 93.29V97.9797C182.393 98.1956 182.568 98.3706 182.784 98.3706H187.477C187.693 98.3706 187.868 98.1956 187.868 97.9797V93.29C187.868 93.0741 187.693 92.899 187.477 92.899Z" stroke="#626C84" stroke-linecap="round" stroke-linejoin="round"/>
</g>
<g style="mix-blend-mode:multiply" opacity="0.33">
<path d="M206.037 92.899H191.958C191.742 92.899 191.567 93.0741 191.567 93.29V97.9797C191.567 98.1956 191.742 98.3706 191.958 98.3706H206.037C206.253 98.3706 206.428 98.1956 206.428 97.9797V93.29C206.428 93.0741 206.253 92.899 206.037 92.899Z" fill="#4E4E4E"/>
<path d="M206.037 92.899H191.958C191.742 92.899 191.567 93.0741 191.567 93.29V97.9797C191.567 98.1956 191.742 98.3706 191.958 98.3706H206.037C206.253 98.3706 206.428 98.1956 206.428 97.9797V93.29C206.428 93.0741 206.253 92.899 206.037 92.899Z" stroke="#626C84" stroke-linecap="round" stroke-linejoin="round"/>
</g>
<g style="mix-blend-mode:multiply" opacity="0.33">
<path d="M142.107 84.8952H137.414C137.198 84.8952 137.023 85.07 137.023 85.2858V89.9758C137.023 90.1917 137.198 90.3665 137.414 90.3665H142.107C142.323 90.3665 142.498 90.1917 142.498 89.9758V85.2858C142.498 85.07 142.323 84.8952 142.107 84.8952Z" fill="#4E4E4E"/>
<path d="M142.107 84.8952H137.414C137.198 84.8952 137.023 85.07 137.023 85.2858V89.9758C137.023 90.1917 137.198 90.3665 137.414 90.3665H142.107C142.323 90.3665 142.498 90.1917 142.498 89.9758V85.2858C142.498 85.07 142.323 84.8952 142.107 84.8952Z" stroke="#626C84" stroke-linecap="round" stroke-linejoin="round"/>
</g>
<g style="mix-blend-mode:multiply" opacity="0.33">
<path d="M133.644 84.8952H124.258C124.042 84.8952 123.867 85.07 123.867 85.2858V89.9758C123.867 90.1917 124.042 90.3665 124.258 90.3665H133.644C133.86 90.3665 134.035 90.1917 134.035 89.9758V85.2858C134.035 85.07 133.86 84.8952 133.644 84.8952Z" fill="#4E4E4E"/>
<path d="M133.644 84.8952H124.258C124.042 84.8952 123.867 85.07 123.867 85.2858V89.9758C123.867 90.1917 124.042 90.3665 124.258 90.3665H133.644C133.86 90.3665 134.035 90.1917 134.035 89.9758V85.2858C134.035 85.07 133.86 84.8952 133.644 84.8952Z" stroke="#626C84" stroke-linecap="round" stroke-linejoin="round"/>
</g>
<g style="mix-blend-mode:multiply" opacity="0.33">
<path d="M150.569 84.8952H145.876C145.66 84.8952 145.485 85.07 145.485 85.2858V89.9758C145.485 90.1917 145.66 90.3665 145.876 90.3665H150.569C150.785 90.3665 150.96 90.1917 150.96 89.9758V85.2858C150.96 85.07 150.785 84.8952 150.569 84.8952Z" fill="#4E4E4E"/>
<path d="M150.569 84.8952H145.876C145.66 84.8952 145.485 85.07 145.485 85.2858V89.9758C145.485 90.1917 145.66 90.3665 145.876 90.3665H150.569C150.785 90.3665 150.96 90.1917 150.96 89.9758V85.2858C150.96 85.07 150.785 84.8952 150.569 84.8952Z" stroke="#626C84" stroke-linecap="round" stroke-linejoin="round"/>
</g>
<g style="mix-blend-mode:multiply" opacity="0.33">
<path d="M159.032 84.8952H154.339C154.123 84.8952 153.948 85.07 153.948 85.2858V89.9758C153.948 90.1917 154.123 90.3665 154.339 90.3665H159.032C159.248 90.3665 159.423 90.1917 159.423 89.9758V85.2858C159.423 85.07 159.248 84.8952 159.032 84.8952Z" fill="#4E4E4E"/>
<path d="M159.032 84.8952H154.339C154.123 84.8952 153.948 85.07 153.948 85.2858V89.9758C153.948 90.1917 154.123 90.3665 154.339 90.3665H159.032C159.248 90.3665 159.423 90.1917 159.423 89.9758V85.2858C159.423 85.07 159.248 84.8952 159.032 84.8952Z" stroke="#626C84" stroke-linecap="round" stroke-linejoin="round"/>
</g>
<g style="mix-blend-mode:multiply" opacity="0.33">
<path d="M167.494 84.8952H162.801C162.585 84.8952 162.41 85.07 162.41 85.2858V89.9758C162.41 90.1917 162.585 90.3665 162.801 90.3665H167.494C167.71 90.3665 167.885 90.1917 167.885 89.9758V85.2858C167.885 85.07 167.71 84.8952 167.494 84.8952Z" fill="#4E4E4E"/>
<path d="M167.494 84.8952H162.801C162.585 84.8952 162.41 85.07 162.41 85.2858V89.9758C162.41 90.1917 162.585 90.3665 162.801 90.3665H167.494C167.71 90.3665 167.885 90.1917 167.885 89.9758V85.2858C167.885 85.07 167.71 84.8952 167.494 84.8952Z" stroke="#626C84" stroke-linecap="round" stroke-linejoin="round"/>
</g>
<g style="mix-blend-mode:multiply" opacity="0.33">
<path d="M175.956 84.8952H171.263C171.047 84.8952 170.872 85.07 170.872 85.2858V89.9758C170.872 90.1917 171.047 90.3665 171.263 90.3665H175.956C176.172 90.3665 176.347 90.1917 176.347 89.9758V85.2858C176.347 85.07 176.172 84.8952 175.956 84.8952Z" fill="#4E4E4E"/>
<path d="M175.956 84.8952H171.263C171.047 84.8952 170.872 85.07 170.872 85.2858V89.9758C170.872 90.1917 171.047 90.3665 171.263 90.3665H175.956C176.172 90.3665 176.347 90.1917 176.347 89.9758V85.2858C176.347 85.07 176.172 84.8952 175.956 84.8952Z" stroke="#626C84" stroke-linecap="round" stroke-linejoin="round"/>
</g>
<g style="mix-blend-mode:multiply" opacity="0.33">
<path d="M184.419 84.8952H179.726C179.51 84.8952 179.335 85.07 179.335 85.2858V89.9758C179.335 90.1917 179.51 90.3665 179.726 90.3665H184.419C184.635 90.3665 184.81 90.1917 184.81 89.9758V85.2858C184.81 85.07 184.635 84.8952 184.419 84.8952Z" fill="#4E4E4E"/>
<path d="M184.419 84.8952H179.726C179.51 84.8952 179.335 85.07 179.335 85.2858V89.9758C179.335 90.1917 179.51 90.3665 179.726 90.3665H184.419C184.635 90.3665 184.81 90.1917 184.81 89.9758V85.2858C184.81 85.07 184.635 84.8952 184.419 84.8952Z" stroke="#626C84" stroke-linecap="round" stroke-linejoin="round"/>
</g>
<g style="mix-blend-mode:multiply" opacity="0.33">
<path d="M192.881 84.8952H188.188C187.973 84.8952 187.797 85.07 187.797 85.2858V89.9758C187.797 90.1917 187.973 90.3665 188.188 90.3665H192.881C193.097 90.3665 193.273 90.1917 193.273 89.9758V85.2858C193.273 85.07 193.097 84.8952 192.881 84.8952Z" fill="#4E4E4E"/>
<path d="M192.881 84.8952H188.188C187.973 84.8952 187.797 85.07 187.797 85.2858V89.9758C187.797 90.1917 187.973 90.3665 188.188 90.3665H192.881C193.097 90.3665 193.273 90.1917 193.273 89.9758V85.2858C193.273 85.07 193.097 84.8952 192.881 84.8952Z" stroke="#626C84" stroke-linecap="round" stroke-linejoin="round"/>
</g>
<g style="mix-blend-mode:multiply" opacity="0.33">
<path d="M206.037 84.8952H196.651C196.435 84.8952 196.26 85.07 196.26 85.2858V89.9758C196.26 90.1917 196.435 90.3665 196.651 90.3665H206.037C206.253 90.3665 206.428 90.1917 206.428 89.9758V85.2858C206.428 85.07 206.253 84.8952 206.037 84.8952Z" fill="#4E4E4E"/>
<path d="M206.037 84.8952H196.651C196.435 84.8952 196.26 85.07 196.26 85.2858V89.9758C196.26 90.1917 196.435 90.3665 196.651 90.3665H206.037C206.253 90.3665 206.428 90.1917 206.428 89.9758V85.2858C206.428 85.07 206.253 84.8952 206.037 84.8952Z" stroke="#626C84" stroke-linecap="round" stroke-linejoin="round"/>
</g>
<g style="mix-blend-mode:multiply" opacity="0.33">
<path d="M137.516 77.2353H132.823C132.608 77.2353 132.432 77.4103 132.432 77.6262V82.316C132.432 82.5318 132.608 82.7069 132.823 82.7069H137.516C137.733 82.7069 137.908 82.5318 137.908 82.316V77.6262C137.908 77.4103 137.733 77.2353 137.516 77.2353Z" fill="#4E4E4E"/>
<path d="M137.516 77.2353H132.823C132.608 77.2353 132.432 77.4103 132.432 77.6262V82.316C132.432 82.5318 132.608 82.7069 132.823 82.7069H137.516C137.733 82.7069 137.908 82.5318 137.908 82.316V77.6262C137.908 77.4103 137.733 77.2353 137.516 77.2353Z" stroke="#626C84" stroke-linecap="round" stroke-linejoin="round"/>
</g>
<g style="mix-blend-mode:multiply" opacity="0.33">
<path d="M128.951 77.2353H124.258C124.042 77.2353 123.867 77.4103 123.867 77.6262V82.316C123.867 82.5318 124.042 82.7069 124.258 82.7069H128.951C129.167 82.7069 129.342 82.5318 129.342 82.316V77.6262C129.342 77.4103 129.167 77.2353 128.951 77.2353Z" fill="#4E4E4E"/>
<path d="M128.951 77.2353H124.258C124.042 77.2353 123.867 77.4103 123.867 77.6262V82.316C123.867 82.5318 124.042 82.7069 124.258 82.7069H128.951C129.167 82.7069 129.342 82.5318 129.342 82.316V77.6262C129.342 77.4103 129.167 77.2353 128.951 77.2353Z" stroke="#626C84" stroke-linecap="round" stroke-linejoin="round"/>
</g>
<g style="mix-blend-mode:multiply" opacity="0.33">
<path d="M146.081 77.2353H141.388C141.172 77.2353 140.997 77.4103 140.997 77.6262V82.316C140.997 82.5318 141.172 82.7069 141.388 82.7069H146.081C146.297 82.7069 146.472 82.5318 146.472 82.316V77.6262C146.472 77.4103 146.297 77.2353 146.081 77.2353Z" fill="#4E4E4E"/>
<path d="M146.081 77.2353H141.388C141.172 77.2353 140.997 77.4103 140.997 77.6262V82.316C140.997 82.5318 141.172 82.7069 141.388 82.7069H146.081C146.297 82.7069 146.472 82.5318 146.472 82.316V77.6262C146.472 77.4103 146.297 77.2353 146.081 77.2353Z" stroke="#626C84" stroke-linecap="round" stroke-linejoin="round"/>
</g>
<g style="mix-blend-mode:multiply" opacity="0.33">
<path d="M154.646 77.2353H149.953C149.737 77.2353 149.562 77.4103 149.562 77.6262V82.316C149.562 82.5318 149.737 82.7069 149.953 82.7069H154.646C154.862 82.7069 155.037 82.5318 155.037 82.316V77.6262C155.037 77.4103 154.862 77.2353 154.646 77.2353Z" fill="#4E4E4E"/>
<path d="M154.646 77.2353H149.953C149.737 77.2353 149.562 77.4103 149.562 77.6262V82.316C149.562 82.5318 149.737 82.7069 149.953 82.7069H154.646C154.862 82.7069 155.037 82.5318 155.037 82.316V77.6262C155.037 77.4103 154.862 77.2353 154.646 77.2353Z" stroke="#626C84" stroke-linecap="round" stroke-linejoin="round"/>
</g>
<g style="mix-blend-mode:multiply" opacity="0.33">
<path d="M163.212 77.2353H158.519C158.303 77.2353 158.127 77.4103 158.127 77.6262V82.316C158.127 82.5318 158.303 82.7069 158.519 82.7069H163.212C163.428 82.7069 163.603 82.5318 163.603 82.316V77.6262C163.603 77.4103 163.428 77.2353 163.212 77.2353Z" fill="#4E4E4E"/>
<path d="M163.212 77.2353H158.519C158.303 77.2353 158.127 77.4103 158.127 77.6262V82.316C158.127 82.5318 158.303 82.7069 158.519 82.7069H163.212C163.428 82.7069 163.603 82.5318 163.603 82.316V77.6262C163.603 77.4103 163.428 77.2353 163.212 77.2353Z" stroke="#626C84" stroke-linecap="round" stroke-linejoin="round"/>
</g>
<g style="mix-blend-mode:multiply" opacity="0.33">
<path d="M171.776 77.2353H167.083C166.867 77.2353 166.692 77.4103 166.692 77.6262V82.316C166.692 82.5318 166.867 82.7069 167.083 82.7069H171.776C171.992 82.7069 172.167 82.5318 172.167 82.316V77.6262C172.167 77.4103 171.992 77.2353 171.776 77.2353Z" fill="#4E4E4E"/>
<path d="M171.776 77.2353H167.083C166.867 77.2353 166.692 77.4103 166.692 77.6262V82.316C166.692 82.5318 166.867 82.7069 167.083 82.7069H171.776C171.992 82.7069 172.167 82.5318 172.167 82.316V77.6262C172.167 77.4103 171.992 77.2353 171.776 77.2353Z" stroke="#626C84" stroke-linecap="round" stroke-linejoin="round"/>
</g>
<g style="mix-blend-mode:multiply" opacity="0.33">
<path d="M180.342 77.2353H175.649C175.433 77.2353 175.258 77.4103 175.258 77.6262V82.316C175.258 82.5318 175.433 82.7069 175.649 82.7069H180.342C180.558 82.7069 180.733 82.5318 180.733 82.316V77.6262C180.733 77.4103 180.558 77.2353 180.342 77.2353Z" fill="#4E4E4E"/>
<path d="M180.342 77.2353H175.649C175.433 77.2353 175.258 77.4103 175.258 77.6262V82.316C175.258 82.5318 175.433 82.7069 175.649 82.7069H180.342C180.558 82.7069 180.733 82.5318 180.733 82.316V77.6262C180.733 77.4103 180.558 77.2353 180.342 77.2353Z" stroke="#626C84" stroke-linecap="round" stroke-linejoin="round"/>
</g>
<g style="mix-blend-mode:multiply" opacity="0.33">
<path d="M188.907 77.2353H184.214C183.998 77.2353 183.823 77.4103 183.823 77.6262V82.316C183.823 82.5318 183.998 82.7069 184.214 82.7069H188.907C189.123 82.7069 189.298 82.5318 189.298 82.316V77.6262C189.298 77.4103 189.123 77.2353 188.907 77.2353Z" fill="#4E4E4E"/>
<path d="M188.907 77.2353H184.214C183.998 77.2353 183.823 77.4103 183.823 77.6262V82.316C183.823 82.5318 183.998 82.7069 184.214 82.7069H188.907C189.123 82.7069 189.298 82.5318 189.298 82.316V77.6262C189.298 77.4103 189.123 77.2353 188.907 77.2353Z" stroke="#626C84" stroke-linecap="round" stroke-linejoin="round"/>
</g>
<g style="mix-blend-mode:multiply" opacity="0.33">
<path d="M197.472 77.2353H192.779C192.563 77.2353 192.387 77.4103 192.387 77.6262V82.316C192.387 82.5318 192.563 82.7069 192.779 82.7069H197.472C197.688 82.7069 197.863 82.5318 197.863 82.316V77.6262C197.863 77.4103 197.688 77.2353 197.472 77.2353Z" fill="#4E4E4E"/>
<path d="M197.472 77.2353H192.779C192.563 77.2353 192.387 77.4103 192.387 77.6262V82.316C192.387 82.5318 192.563 82.7069 192.779 82.7069H197.472C197.688 82.7069 197.863 82.5318 197.863 82.316V77.6262C197.863 77.4103 197.688 77.2353 197.472 77.2353Z" stroke="#626C84" stroke-linecap="round" stroke-linejoin="round"/>
</g>
<g style="mix-blend-mode:multiply" opacity="0.33">
<path d="M206.038 77.2353H201.345C201.128 77.2353 200.953 77.4103 200.953 77.6262V82.316C200.953 82.5318 201.128 82.7069 201.345 82.7069H206.038C206.253 82.7069 206.429 82.5318 206.429 82.316V77.6262C206.429 77.4103 206.253 77.2353 206.038 77.2353Z" fill="#4E4E4E"/>
<path d="M206.038 77.2353H201.345C201.128 77.2353 200.953 77.4103 200.953 77.6262V82.316C200.953 82.5318 201.128 82.7069 201.345 82.7069H206.038C206.253 82.7069 206.429 82.5318 206.429 82.316V77.6262C206.429 77.4103 206.253 77.2353 206.038 77.2353Z" stroke="#626C84" stroke-linecap="round" stroke-linejoin="round"/>
</g>
<g style="mix-blend-mode:multiply" opacity="0.33">
<path d="M137.414 100.685H132.721C132.505 100.685 132.33 100.859 132.33 101.075V105.765C132.33 105.981 132.505 106.156 132.721 106.156H137.414C137.63 106.156 137.805 105.981 137.805 105.765V101.075C137.805 100.859 137.63 100.685 137.414 100.685Z" fill="#4E4E4E"/>
</g>
<g style="mix-blend-mode:multiply" opacity="0.33">
<path d="M128.951 100.685H124.258C124.042 100.685 123.867 100.859 123.867 101.075V105.765C123.867 105.981 124.042 106.156 124.258 106.156H128.951C129.167 106.156 129.342 105.981 129.342 105.765V101.075C129.342 100.859 129.167 100.685 128.951 100.685Z" fill="#4E4E4E"/>
</g>
<g style="mix-blend-mode:multiply" opacity="0.33">
<path d="M179.726 100.685H141.183C140.967 100.685 140.792 100.859 140.792 101.075V105.765C140.792 105.981 140.967 106.156 141.183 106.156H179.726C179.942 106.156 180.117 105.981 180.117 105.765V101.075C180.117 100.859 179.942 100.685 179.726 100.685Z" fill="#4E4E4E"/>
</g>
<g style="mix-blend-mode:multiply" opacity="0.33">
<path d="M188.189 100.685H183.496C183.28 100.685 183.105 100.859 183.105 101.075V105.765C183.105 105.981 183.28 106.156 183.496 106.156H188.189C188.405 106.156 188.58 105.981 188.58 105.765V101.075C188.58 100.859 188.405 100.685 188.189 100.685Z" fill="#4E4E4E"/>
</g>
<g style="mix-blend-mode:multiply" opacity="0.33">
<path d="M200.562 103.762H197.433C197.217 103.762 197.042 103.937 197.042 104.153V105.765C197.042 105.981 197.217 106.156 197.433 106.156H200.562C200.778 106.156 200.953 105.981 200.953 105.765V104.153C200.953 103.937 200.778 103.762 200.562 103.762Z" fill="#4E4E4E"/>
</g>
<g style="mix-blend-mode:multiply" opacity="0.33">
<path d="M200.562 100.685H197.433C197.217 100.685 197.042 100.859 197.042 101.075V102.688C197.042 102.904 197.217 103.078 197.433 103.078H200.562C200.778 103.078 200.953 102.904 200.953 102.688V101.075C200.953 100.859 200.778 100.685 200.562 100.685Z" fill="#4E4E4E"/>
</g>
<g style="mix-blend-mode:multiply" opacity="0.33">
<path d="M206.037 103.762H202.908C202.692 103.762 202.517 103.937 202.517 104.153V105.765C202.517 105.981 202.692 106.156 202.908 106.156H206.037C206.253 106.156 206.428 105.981 206.428 105.765V104.153C206.428 103.937 206.253 103.762 206.037 103.762Z" fill="#4E4E4E"/>
</g>
<g style="mix-blend-mode:multiply" opacity="0.33">
<path d="M195.087 103.762H191.958C191.742 103.762 191.567 103.937 191.567 104.153V105.765C191.567 105.981 191.742 106.156 191.958 106.156H195.087C195.303 106.156 195.478 105.981 195.478 105.765V104.153C195.478 103.937 195.303 103.762 195.087 103.762Z" fill="#4E4E4E"/>
</g>
<g style="mix-blend-mode:multiply" opacity="0.33">
<path d="M136.631 92.899H124.258C124.042 92.899 123.867 93.0741 123.867 93.29V97.9797C123.867 98.1956 124.042 98.3706 124.258 98.3706H136.631C136.847 98.3706 137.023 98.1956 137.023 97.9797V93.29C137.023 93.0741 136.847 92.899 136.631 92.899Z" fill="#4E4E4E"/>
</g>
<g style="mix-blend-mode:multiply" opacity="0.33">
<path d="M145.164 92.899H140.471C140.255 92.899 140.08 93.0741 140.08 93.29V97.9797C140.08 98.1956 140.255 98.3706 140.471 98.3706H145.164C145.38 98.3706 145.555 98.1956 145.555 97.9797V93.29C145.555 93.0741 145.38 92.899 145.164 92.899Z" fill="#4E4E4E"/>
</g>
<g style="mix-blend-mode:multiply" opacity="0.33">
<path d="M153.627 92.899H148.934C148.718 92.899 148.543 93.0741 148.543 93.29V97.9797C148.543 98.1956 148.718 98.3706 148.934 98.3706H153.627C153.843 98.3706 154.018 98.1956 154.018 97.9797V93.29C154.018 93.0741 153.843 92.899 153.627 92.899Z" fill="#4E4E4E"/>
</g>
<g style="mix-blend-mode:multiply" opacity="0.33">
<path d="M162.089 92.899H157.396C157.18 92.899 157.005 93.0741 157.005 93.29V97.9797C157.005 98.1956 157.18 98.3706 157.396 98.3706H162.089C162.305 98.3706 162.48 98.1956 162.48 97.9797V93.29C162.48 93.0741 162.305 92.899 162.089 92.899Z" fill="#4E4E4E"/>
</g>
<g style="mix-blend-mode:multiply" opacity="0.33">
<path d="M170.551 92.899H165.858C165.643 92.899 165.467 93.0741 165.467 93.29V97.9797C165.467 98.1956 165.643 98.3706 165.858 98.3706H170.551C170.768 98.3706 170.943 98.1956 170.943 97.9797V93.29C170.943 93.0741 170.768 92.899 170.551 92.899Z" fill="#4E4E4E"/>
</g>
<g style="mix-blend-mode:multiply" opacity="0.33">
<path d="M179.014 92.899H174.321C174.105 92.899 173.93 93.0741 173.93 93.29V97.9797C173.93 98.1956 174.105 98.3706 174.321 98.3706H179.014C179.23 98.3706 179.405 98.1956 179.405 97.9797V93.29C179.405 93.0741 179.23 92.899 179.014 92.899Z" fill="#4E4E4E"/>
</g>
<g style="mix-blend-mode:multiply" opacity="0.33">
<path d="M187.477 92.899H182.784C182.568 92.899 182.393 93.0741 182.393 93.29V97.9797C182.393 98.1956 182.568 98.3706 182.784 98.3706H187.477C187.693 98.3706 187.868 98.1956 187.868 97.9797V93.29C187.868 93.0741 187.693 92.899 187.477 92.899Z" fill="#4E4E4E"/>
</g>
<g style="mix-blend-mode:multiply" opacity="0.33">
<path d="M206.037 92.899H191.958C191.742 92.899 191.567 93.0741 191.567 93.29V97.9797C191.567 98.1956 191.742 98.3706 191.958 98.3706H206.037C206.253 98.3706 206.428 98.1956 206.428 97.9797V93.29C206.428 93.0741 206.253 92.899 206.037 92.899Z" fill="#4E4E4E"/>
</g>
<g style="mix-blend-mode:multiply" opacity="0.33">
<path d="M142.107 84.8952H137.414C137.198 84.8952 137.023 85.07 137.023 85.2858V89.9758C137.023 90.1917 137.198 90.3665 137.414 90.3665H142.107C142.323 90.3665 142.498 90.1917 142.498 89.9758V85.2858C142.498 85.07 142.323 84.8952 142.107 84.8952Z" fill="#4E4E4E"/>
</g>
<g style="mix-blend-mode:multiply" opacity="0.33">
<path d="M133.644 84.8952H124.258C124.042 84.8952 123.867 85.07 123.867 85.2858V89.9758C123.867 90.1917 124.042 90.3665 124.258 90.3665H133.644C133.86 90.3665 134.035 90.1917 134.035 89.9758V85.2858C134.035 85.07 133.86 84.8952 133.644 84.8952Z" fill="#4E4E4E"/>
</g>
<g style="mix-blend-mode:multiply" opacity="0.33">
<path d="M150.569 84.8952H145.876C145.66 84.8952 145.485 85.07 145.485 85.2858V89.9758C145.485 90.1917 145.66 90.3665 145.876 90.3665H150.569C150.785 90.3665 150.96 90.1917 150.96 89.9758V85.2858C150.96 85.07 150.785 84.8952 150.569 84.8952Z" fill="#4E4E4E"/>
</g>
<g style="mix-blend-mode:multiply" opacity="0.33">
<path d="M159.032 84.8952H154.339C154.123 84.8952 153.948 85.07 153.948 85.2858V89.9758C153.948 90.1917 154.123 90.3665 154.339 90.3665H159.032C159.248 90.3665 159.423 90.1917 159.423 89.9758V85.2858C159.423 85.07 159.248 84.8952 159.032 84.8952Z" fill="#4E4E4E"/>
</g>
<g style="mix-blend-mode:multiply" opacity="0.33">
<path d="M167.494 84.8952H162.801C162.585 84.8952 162.41 85.07 162.41 85.2858V89.9758C162.41 90.1917 162.585 90.3665 162.801 90.3665H167.494C167.71 90.3665 167.885 90.1917 167.885 89.9758V85.2858C167.885 85.07 167.71 84.8952 167.494 84.8952Z" fill="#4E4E4E"/>
</g>
<g style="mix-blend-mode:multiply" opacity="0.33">
<path d="M175.956 84.8952H171.263C171.047 84.8952 170.872 85.07 170.872 85.2858V89.9758C170.872 90.1917 171.047 90.3665 171.263 90.3665H175.956C176.172 90.3665 176.347 90.1917 176.347 89.9758V85.2858C176.347 85.07 176.172 84.8952 175.956 84.8952Z" fill="#4E4E4E"/>
</g>
<g style="mix-blend-mode:multiply" opacity="0.33">
<path d="M184.419 84.8952H179.726C179.51 84.8952 179.335 85.07 179.335 85.2858V89.9758C179.335 90.1917 179.51 90.3665 179.726 90.3665H184.419C184.635 90.3665 184.81 90.1917 184.81 89.9758V85.2858C184.81 85.07 184.635 84.8952 184.419 84.8952Z" fill="#4E4E4E"/>
</g>
<g style="mix-blend-mode:multiply" opacity="0.33">
<path d="M192.881 84.8952H188.188C187.973 84.8952 187.797 85.07 187.797 85.2858V89.9758C187.797 90.1917 187.973 90.3665 188.188 90.3665H192.881C193.097 90.3665 193.273 90.1917 193.273 89.9758V85.2858C193.273 85.07 193.097 84.8952 192.881 84.8952Z" fill="#4E4E4E"/>
</g>
<g style="mix-blend-mode:multiply" opacity="0.33">
<path d="M206.037 84.8952H196.651C196.435 84.8952 196.26 85.07 196.26 85.2858V89.9758C196.26 90.1917 196.435 90.3665 196.651 90.3665H206.037C206.253 90.3665 206.428 90.1917 206.428 89.9758V85.2858C206.428 85.07 206.253 84.8952 206.037 84.8952Z" fill="#4E4E4E"/>
</g>
<g style="mix-blend-mode:multiply" opacity="0.33">
<path d="M137.516 77.2353H132.823C132.608 77.2353 132.432 77.4103 132.432 77.6262V82.316C132.432 82.5318 132.608 82.7069 132.823 82.7069H137.516C137.733 82.7069 137.908 82.5318 137.908 82.316V77.6262C137.908 77.4103 137.733 77.2353 137.516 77.2353Z" fill="#4E4E4E"/>
</g>
<g style="mix-blend-mode:multiply" opacity="0.33">
<path d="M128.951 77.2353H124.258C124.042 77.2353 123.867 77.4103 123.867 77.6262V82.316C123.867 82.5318 124.042 82.7069 124.258 82.7069H128.951C129.167 82.7069 129.342 82.5318 129.342 82.316V77.6262C129.342 77.4103 129.167 77.2353 128.951 77.2353Z" fill="#4E4E4E"/>
</g>
<g style="mix-blend-mode:multiply" opacity="0.33">
<path d="M146.081 77.2353H141.388C141.172 77.2353 140.997 77.4103 140.997 77.6262V82.316C140.997 82.5318 141.172 82.7069 141.388 82.7069H146.081C146.297 82.7069 146.472 82.5318 146.472 82.316V77.6262C146.472 77.4103 146.297 77.2353 146.081 77.2353Z" fill="#4E4E4E"/>
</g>
<g style="mix-blend-mode:multiply" opacity="0.33">
<path d="M154.646 77.2353H149.953C149.737 77.2353 149.562 77.4103 149.562 77.6262V82.316C149.562 82.5318 149.737 82.7069 149.953 82.7069H154.646C154.862 82.7069 155.037 82.5318 155.037 82.316V77.6262C155.037 77.4103 154.862 77.2353 154.646 77.2353Z" fill="#4E4E4E"/>
</g>
<g style="mix-blend-mode:multiply" opacity="0.33">
<path d="M163.212 77.2353H158.519C158.303 77.2353 158.127 77.4103 158.127 77.6262V82.316C158.127 82.5318 158.303 82.7069 158.519 82.7069H163.212C163.428 82.7069 163.603 82.5318 163.603 82.316V77.6262C163.603 77.4103 163.428 77.2353 163.212 77.2353Z" fill="#4E4E4E"/>
</g>
<g style="mix-blend-mode:multiply" opacity="0.33">
<path d="M171.776 77.2353H167.083C166.867 77.2353 166.692 77.4103 166.692 77.6262V82.316C166.692 82.5318 166.867 82.7069 167.083 82.7069H171.776C171.992 82.7069 172.167 82.5318 172.167 82.316V77.6262C172.167 77.4103 171.992 77.2353 171.776 77.2353Z" fill="#4E4E4E"/>
</g>
<g style="mix-blend-mode:multiply" opacity="0.33">
<path d="M180.342 77.2353H175.649C175.433 77.2353 175.258 77.4103 175.258 77.6262V82.316C175.258 82.5318 175.433 82.7069 175.649 82.7069H180.342C180.558 82.7069 180.733 82.5318 180.733 82.316V77.6262C180.733 77.4103 180.558 77.2353 180.342 77.2353Z" fill="#4E4E4E"/>
</g>
<g style="mix-blend-mode:multiply" opacity="0.33">
<path d="M188.907 77.2353H184.214C183.998 77.2353 183.823 77.4103 183.823 77.6262V82.316C183.823 82.5318 183.998 82.7069 184.214 82.7069H188.907C189.123 82.7069 189.298 82.5318 189.298 82.316V77.6262C189.298 77.4103 189.123 77.2353 188.907 77.2353Z" fill="#4E4E4E"/>
</g>
<g style="mix-blend-mode:multiply" opacity="0.33">
<path d="M197.472 77.2353H192.779C192.563 77.2353 192.387 77.4103 192.387 77.6262V82.316C192.387 82.5318 192.563 82.7069 192.779 82.7069H197.472C197.688 82.7069 197.863 82.5318 197.863 82.316V77.6262C197.863 77.4103 197.688 77.2353 197.472 77.2353Z" fill="#4E4E4E"/>
</g>
<g style="mix-blend-mode:multiply" opacity="0.33">
<path d="M206.038 77.2353H201.345C201.128 77.2353 200.953 77.4103 200.953 77.6262V82.316C200.953 82.5318 201.128 82.7069 201.345 82.7069H206.038C206.253 82.7069 206.429 82.5318 206.429 82.316V77.6262C206.429 77.4103 206.253 77.2353 206.038 77.2353Z" fill="#4E4E4E"/>
</g>
<g style="mix-blend-mode:multiply" opacity="0.33">
<path d="M131.905 64.7662H198.389V70.0214C198.389 70.4358 198.224 70.8336 197.931 71.1266C197.638 71.42 197.24 71.5847 196.825 71.5847H133.469C133.054 71.5847 132.656 71.42 132.363 71.1266C132.07 70.8336 131.905 70.4358 131.905 70.0214V64.7662Z" fill="#4E4E4E"/>
</g>
<g style="mix-blend-mode:multiply" opacity="0.25">
<path d="M196.825 70.0208H133.469C133.054 70.0208 132.656 69.856 132.363 69.563C132.07 69.2697 131.905 68.8722 131.905 68.4575V70.0208C131.905 70.4354 132.07 70.8331 132.363 71.1262C132.656 71.4193 133.054 71.584 133.469 71.584H196.825C197.24 71.584 197.638 71.4193 197.931 71.1262C198.224 70.8331 198.389 70.4354 198.389 70.0208V68.4575C198.389 68.8722 198.224 69.2697 197.931 69.563C197.638 69.856 197.24 70.0208 196.825 70.0208Z" fill="#4E4E4E"/>
</g>
<g style="mix-blend-mode:multiply" opacity="0.33">
<path d="M131.905 64.7662H198.389V70.0214C198.389 70.4358 198.224 70.8336 197.931 71.1266C197.638 71.42 197.24 71.5847 196.825 71.5847H133.469C133.054 71.5847 132.656 71.42 132.363 71.1266C132.07 70.8336 131.905 70.4358 131.905 70.0214V64.7662Z" fill="#4E4E4E"/>
<path d="M131.905 64.7662H198.389V70.0214C198.389 70.4358 198.224 70.8336 197.931 71.1266C197.638 71.42 197.24 71.5847 196.825 71.5847H133.469C133.054 71.5847 132.656 71.42 132.363 71.1266C132.07 70.8336 131.905 70.4358 131.905 70.0214V64.7662Z" stroke="#46505C" stroke-linecap="round" stroke-linejoin="round"/>
</g>
<g style="mix-blend-mode:multiply" opacity="0.33">
<path d="M178.836 111.432H151.46C151.028 111.432 150.677 111.782 150.677 112.214V130.583C150.677 131.014 151.028 131.364 151.46 131.364H178.836C179.268 131.364 179.618 131.014 179.618 130.583V112.214C179.618 111.782 179.268 111.432 178.836 111.432Z" fill="#4E4E4E"/>
</g>
<g style="mix-blend-mode:multiply" opacity="0.33">
<path d="M178.836 111.432H151.46C151.028 111.432 150.677 111.782 150.677 112.214V130.583C150.677 131.014 151.028 131.364 151.46 131.364H178.836C179.268 131.364 179.618 131.014 179.618 130.583V112.214C179.618 111.782 179.268 111.432 178.836 111.432Z" fill="#4E4E4E"/>
<path d="M178.836 111.432H151.46C151.028 111.432 150.677 111.782 150.677 112.214V130.583C150.677 131.014 151.028 131.364 151.46 131.364H178.836C179.268 131.364 179.618 131.014 179.618 130.583V112.214C179.618 111.782 179.268 111.432 178.836 111.432Z" stroke="#626C84" stroke-linecap="round" stroke-linejoin="round"/>
</g>
</g>
<path d="M207.404 0.501083H116.672C113.648 0.501083 111.197 2.95084 111.197 5.97267V59.1248C111.197 62.1466 113.648 64.5963 116.672 64.5963H207.404C210.427 64.5963 212.879 62.1466 212.879 59.1248V5.97267C212.879 2.95084 210.427 0.501083 207.404 0.501083Z" stroke="black" stroke-linecap="round" stroke-linejoin="round"/>
<path d="M207.404 0.501083H116.672C113.648 0.501083 111.197 2.95084 111.197 5.97267V59.1248C111.197 62.1466 113.648 64.5963 116.672 64.5963H207.404C210.427 64.5963 212.879 62.1466 212.879 59.1248V5.97267C212.879 2.95084 210.427 0.501083 207.404 0.501083Z" fill="#626C84"/>
<path d="M207.404 0.501083H116.672C113.648 0.501083 111.197 2.95084 111.197 5.97267V59.1248C111.197 62.1466 113.648 64.5963 116.672 64.5963H207.404C210.427 64.5963 212.879 62.1466 212.879 59.1248V5.97267C212.879 2.95084 210.427 0.501083 207.404 0.501083Z" fill="black"/>
<g style="mix-blend-mode:multiply" opacity="0.17">
<path d="M207.404 0.501083H116.672C113.648 0.501083 111.197 2.95084 111.197 5.97266V55.6137C111.197 58.6355 113.648 61.0853 116.672 61.0853H207.404C210.427 61.0853 212.879 58.6355 212.879 55.6137V5.97266C212.879 2.95084 210.427 0.501083 207.404 0.501083Z" fill="black"/>
</g>
<path opacity="0.1" d="M116.672 2.0631H207.404C208.856 2.0631 210.248 2.6394 211.275 3.66553C212.302 4.69166 212.879 6.08337 212.879 7.53468V59.1233V5.97121C212.879 4.52013 212.302 3.12842 211.275 2.10229C210.248 1.07616 208.856 0.49986 207.404 0.49986H116.672C115.22 0.49986 113.827 1.07616 112.8 2.10229C111.774 3.12842 111.197 4.52013 111.197 5.97121V7.53468C111.197 6.08337 111.774 4.69166 112.8 3.66553C113.827 2.6394 115.22 2.0631 116.672 2.0631Z" fill="white"/>
<g opacity="0.1">
<path opacity="0.1" d="M142.181 64.5963H148.465L195.064 0.501083H188.78L142.181 64.5963Z" fill="white"/>
<path opacity="0.1" d="M152.09 64.5963H154.024L200.623 0.501083H198.689L152.09 64.5963Z" fill="white"/>
</g>
<path d="M207.404 0.501083H116.672C113.648 0.501083 111.197 2.95084 111.197 5.97267V59.1248C111.197 62.1466 113.648 64.5963 116.672 64.5963H207.404C210.427 64.5963 212.879 62.1466 212.879 59.1248V5.97267C212.879 2.95084 210.427 0.501083 207.404 0.501083Z" stroke="black" stroke-linecap="round" stroke-linejoin="round"/>
<path d="M205.839 56.9672V7.72348H118.236V56.9672H205.839Z" fill="#2C9ACB"/>
<g opacity="0.06">
<path opacity="0.06" d="M148.119 56.9672H154.404L190.205 7.72348H183.921L148.119 56.9672Z" fill="white"/>
<path opacity="0.06" d="M158.029 56.9672H159.963L195.764 7.72348H193.831L158.029 56.9672Z" fill="white"/>
</g>
<path d="M205.839 56.9672V7.72348H118.236V56.9672H205.839Z" stroke="#46505C" stroke-linecap="round" stroke-linejoin="round"/>
<path d="M207.404 64.5964H116.672C113.648 64.5964 111.197 67.0462 111.197 70.068V126.347C111.197 129.368 113.648 131.818 116.672 131.818H207.404C210.427 131.818 212.879 129.368 212.879 126.347V70.068C212.879 67.0462 210.427 64.5964 207.404 64.5964Z" fill="#E6F3FF"/>
<path d="M211.315 126.347V70.0679C211.315 67.9096 209.564 66.1598 207.404 66.1598H116.672C114.512 66.1598 112.761 67.9096 112.761 70.0679V126.347C112.761 128.505 114.512 130.255 116.672 130.255H207.404C209.564 130.255 211.315 128.505 211.315 126.347Z" fill="#CFD1D0" stroke="#E6F3FF" stroke-miterlimit="10"/>
<path d="M155.761 128.762H168.315C168.729 128.762 169.127 128.927 169.421 129.22C169.714 129.513 169.879 129.911 169.879 130.325V131.818H154.196V130.325C154.196 129.911 154.361 129.513 154.655 129.22C154.948 128.927 155.346 128.762 155.761 128.762Z" fill="#E6F3FF"/>
<path d="M207.404 64.5964H116.672C113.648 64.5964 111.197 67.0462 111.197 70.068V126.347C111.197 129.368 113.648 131.818 116.672 131.818H207.404C210.427 131.818 212.879 129.368 212.879 126.347V70.068C212.879 67.0462 210.427 64.5964 207.404 64.5964Z" stroke="#46505C" stroke-linecap="round" stroke-linejoin="round"/>
<path d="M205.839 69.8409H118.236C117.588 69.8409 117.063 70.3658 117.063 71.0134V104.624C117.063 105.272 117.588 105.797 118.236 105.797H205.839C206.487 105.797 207.013 105.272 207.013 104.624V71.0134C207.013 70.3658 206.487 69.8409 205.839 69.8409Z" fill="#E6F3FF"/>
<path d="M134.304 97.0031H129.611C129.395 97.0031 129.22 97.1782 129.22 97.394V102.084C129.22 102.3 129.395 102.475 129.611 102.475H134.304C134.52 102.475 134.695 102.3 134.695 102.084V97.394C134.695 97.1782 134.52 97.0031 134.304 97.0031Z" fill="#626C84"/>
<path d="M125.842 97.0031H121.149C120.932 97.0031 120.757 97.1782 120.757 97.394V102.084C120.757 102.3 120.932 102.475 121.149 102.475H125.842C126.057 102.475 126.233 102.3 126.233 102.084V97.394C126.233 97.1782 126.057 97.0031 125.842 97.0031Z" fill="#626C84"/>
<path d="M176.617 97.0031H138.074C137.858 97.0031 137.683 97.1782 137.683 97.394V102.084C137.683 102.3 137.858 102.475 138.074 102.475H176.617C176.833 102.475 177.008 102.3 177.008 102.084V97.394C177.008 97.1782 176.833 97.0031 176.617 97.0031Z" fill="#626C84"/>
<path d="M185.079 97.0031H180.386C180.17 97.0031 179.995 97.1782 179.995 97.394V102.084C179.995 102.3 180.17 102.475 180.386 102.475H185.079C185.295 102.475 185.47 102.3 185.47 102.084V97.394C185.47 97.1782 185.295 97.0031 185.079 97.0031Z" fill="#626C84"/>
<path d="M197.452 100.081H194.324C194.108 100.081 193.933 100.256 193.933 100.472V102.084C193.933 102.3 194.108 102.475 194.324 102.475H197.452C197.668 102.475 197.844 102.3 197.844 102.084V100.472C197.844 100.256 197.668 100.081 197.452 100.081Z" fill="#626C84"/>
<path d="M197.452 97.0031H194.324C194.108 97.0031 193.933 97.1782 193.933 97.394V99.0061C193.933 99.222 194.108 99.397 194.324 99.397H197.452C197.668 99.397 197.844 99.222 197.844 99.0061V97.394C197.844 97.1782 197.668 97.0031 197.452 97.0031Z" fill="#626C84"/>
<path d="M202.928 100.081H199.799C199.583 100.081 199.408 100.256 199.408 100.472V102.084C199.408 102.3 199.583 102.475 199.799 102.475H202.928C203.144 102.475 203.319 102.3 203.319 102.084V100.472C203.319 100.256 203.144 100.081 202.928 100.081Z" fill="#626C84"/>
<path d="M191.977 100.081H188.849C188.633 100.081 188.458 100.256 188.458 100.472V102.084C188.458 102.3 188.633 102.475 188.849 102.475H191.977C192.193 102.475 192.369 102.3 192.369 102.084V100.472C192.369 100.256 192.193 100.081 191.977 100.081Z" fill="#626C84"/>
<path d="M133.522 89.2185H121.149C120.932 89.2185 120.757 89.3935 120.757 89.6094V94.2994C120.757 94.5152 120.932 94.69 121.149 94.69H133.522C133.738 94.69 133.913 94.5152 133.913 94.2994V89.6094C133.913 89.3935 133.738 89.2185 133.522 89.2185Z" fill="#626C84"/>
<path d="M142.055 89.2185H137.362C137.146 89.2185 136.971 89.3935 136.971 89.6094V94.2994C136.971 94.5152 137.146 94.69 137.362 94.69H142.055C142.271 94.69 142.446 94.5152 142.446 94.2994V89.6094C142.446 89.3935 142.271 89.2185 142.055 89.2185Z" fill="#626C84"/>
<path d="M150.517 89.2185H145.824C145.608 89.2185 145.433 89.3935 145.433 89.6094V94.2994C145.433 94.5152 145.608 94.69 145.824 94.69H150.517C150.733 94.69 150.908 94.5152 150.908 94.2994V89.6094C150.908 89.3935 150.733 89.2185 150.517 89.2185Z" fill="#626C84"/>
<path d="M158.98 89.2185H154.287C154.071 89.2185 153.896 89.3935 153.896 89.6094V94.2994C153.896 94.5152 154.071 94.69 154.287 94.69H158.98C159.196 94.69 159.371 94.5152 159.371 94.2994V89.6094C159.371 89.3935 159.196 89.2185 158.98 89.2185Z" fill="#626C84"/>
<path d="M167.442 89.2185H162.749C162.533 89.2185 162.358 89.3935 162.358 89.6094V94.2994C162.358 94.5152 162.533 94.69 162.749 94.69H167.442C167.658 94.69 167.833 94.5152 167.833 94.2994V89.6094C167.833 89.3935 167.658 89.2185 167.442 89.2185Z" fill="#626C84"/>
<path d="M175.905 89.2185H171.212C170.996 89.2185 170.821 89.3935 170.821 89.6094V94.2994C170.821 94.5152 170.996 94.69 171.212 94.69H175.905C176.121 94.69 176.296 94.5152 176.296 94.2994V89.6094C176.296 89.3935 176.121 89.2185 175.905 89.2185Z" fill="#626C84"/>
<path d="M184.368 89.2185H179.675C179.459 89.2185 179.284 89.3935 179.284 89.6094V94.2994C179.284 94.5152 179.459 94.69 179.675 94.69H184.368C184.584 94.69 184.759 94.5152 184.759 94.2994V89.6094C184.759 89.3935 184.584 89.2185 184.368 89.2185Z" fill="#626C84"/>
<path d="M202.928 89.2185H188.849C188.633 89.2185 188.458 89.3935 188.458 89.6094V94.2994C188.458 94.5152 188.633 94.69 188.849 94.69H202.928C203.144 94.69 203.319 94.5152 203.319 94.2994V89.6094C203.319 89.3935 203.144 89.2185 202.928 89.2185Z" fill="#626C84"/>
<path d="M138.997 81.2141H134.304C134.088 81.2141 133.913 81.3892 133.913 81.605V86.2948C133.913 86.5106 134.088 86.6857 134.304 86.6857H138.997C139.213 86.6857 139.388 86.5106 139.388 86.2948V81.605C139.388 81.3892 139.213 81.2141 138.997 81.2141Z" fill="#626C84"/>
<path d="M130.535 81.2141H121.149C120.932 81.2141 120.757 81.3892 120.757 81.605V86.2948C120.757 86.5106 120.932 86.6857 121.149 86.6857H130.535C130.75 86.6857 130.926 86.5106 130.926 86.2948V81.605C130.926 81.3892 130.75 81.2141 130.535 81.2141Z" fill="#626C84"/>
<path d="M147.46 81.2141H142.767C142.551 81.2141 142.376 81.3892 142.376 81.605V86.2948C142.376 86.5106 142.551 86.6857 142.767 86.6857H147.46C147.676 86.6857 147.851 86.5106 147.851 86.2948V81.605C147.851 81.3892 147.676 81.2141 147.46 81.2141Z" fill="#626C84"/>
<path d="M155.921 81.2141H151.228C151.012 81.2141 150.837 81.3892 150.837 81.605V86.2948C150.837 86.5106 151.012 86.6857 151.228 86.6857H155.921C156.137 86.6857 156.312 86.5106 156.312 86.2948V81.605C156.312 81.3892 156.137 81.2141 155.921 81.2141Z" fill="#626C84"/>
<path d="M164.385 81.2141H159.692C159.476 81.2141 159.301 81.3892 159.301 81.605V86.2948C159.301 86.5106 159.476 86.6857 159.692 86.6857H164.385C164.601 86.6857 164.776 86.5106 164.776 86.2948V81.605C164.776 81.3892 164.601 81.2141 164.385 81.2141Z" fill="#626C84"/>
<path d="M172.847 81.2141H168.154C167.938 81.2141 167.763 81.3892 167.763 81.605V86.2948C167.763 86.5106 167.938 86.6857 168.154 86.6857H172.847C173.063 86.6857 173.238 86.5106 173.238 86.2948V81.605C173.238 81.3892 173.063 81.2141 172.847 81.2141Z" fill="#626C84"/>
<path d="M181.309 81.2141H176.616C176.4 81.2141 176.225 81.3892 176.225 81.605V86.2948C176.225 86.5106 176.4 86.6857 176.616 86.6857H181.309C181.525 86.6857 181.7 86.5106 181.7 86.2948V81.605C181.7 81.3892 181.525 81.2141 181.309 81.2141Z" fill="#626C84"/>
<path d="M189.772 81.2141H185.079C184.863 81.2141 184.688 81.3892 184.688 81.605V86.2948C184.688 86.5106 184.863 86.6857 185.079 86.6857H189.772C189.988 86.6857 190.163 86.5106 190.163 86.2948V81.605C190.163 81.3892 189.988 81.2141 189.772 81.2141Z" fill="#626C84"/>
<path d="M202.927 81.2141H193.541C193.325 81.2141 193.15 81.3892 193.15 81.605V86.2948C193.15 86.5106 193.325 86.6857 193.541 86.6857H202.927C203.143 86.6857 203.318 86.5106 203.318 86.2948V81.605C203.318 81.3892 203.143 81.2141 202.927 81.2141Z" fill="#626C84"/>
<path d="M134.407 73.5538H129.714C129.498 73.5538 129.323 73.7286 129.323 73.9445V78.6344C129.323 78.8503 129.498 79.0251 129.714 79.0251H134.407C134.623 79.0251 134.798 78.8503 134.798 78.6344V73.9445C134.798 73.7286 134.623 73.5538 134.407 73.5538Z" fill="#626C84"/>
<path d="M125.842 73.5538H121.149C120.932 73.5538 120.757 73.7286 120.757 73.9445V78.6344C120.757 78.8503 120.932 79.0251 121.149 79.0251H125.842C126.057 79.0251 126.233 78.8503 126.233 78.6344V73.9445C126.233 73.7286 126.057 73.5538 125.842 73.5538Z" fill="#626C84"/>
<path d="M142.972 73.5538H138.279C138.063 73.5538 137.888 73.7286 137.888 73.9445V78.6344C137.888 78.8503 138.063 79.0251 138.279 79.0251H142.972C143.188 79.0251 143.363 78.8503 143.363 78.6344V73.9445C143.363 73.7286 143.188 73.5538 142.972 73.5538Z" fill="#626C84"/>
<path d="M151.537 73.5538H146.844C146.628 73.5538 146.453 73.7286 146.453 73.9445V78.6344C146.453 78.8503 146.628 79.0251 146.844 79.0251H151.537C151.753 79.0251 151.928 78.8503 151.928 78.6344V73.9445C151.928 73.7286 151.753 73.5538 151.537 73.5538Z" fill="#626C84"/>
<path d="M160.102 73.5538H155.409C155.192 73.5538 155.017 73.7286 155.017 73.9445V78.6344C155.017 78.8503 155.192 79.0251 155.409 79.0251H160.102C160.317 79.0251 160.493 78.8503 160.493 78.6344V73.9445C160.493 73.7286 160.317 73.5538 160.102 73.5538Z" fill="#626C84"/>
<path d="M168.667 73.5538H163.974C163.758 73.5538 163.583 73.7286 163.583 73.9445V78.6344C163.583 78.8503 163.758 79.0251 163.974 79.0251H168.667C168.883 79.0251 169.058 78.8503 169.058 78.6344V73.9445C169.058 73.7286 168.883 73.5538 168.667 73.5538Z" fill="#626C84"/>
<path d="M177.232 73.5538H172.539C172.323 73.5538 172.148 73.7286 172.148 73.9445V78.6344C172.148 78.8503 172.323 79.0251 172.539 79.0251H177.232C177.448 79.0251 177.623 78.8503 177.623 78.6344V73.9445C177.623 73.7286 177.448 73.5538 177.232 73.5538Z" fill="#626C84"/>
<path d="M185.798 73.5538H181.105C180.889 73.5538 180.713 73.7286 180.713 73.9445V78.6344C180.713 78.8503 180.889 79.0251 181.105 79.0251H185.798C186.014 79.0251 186.189 78.8503 186.189 78.6344V73.9445C186.189 73.7286 186.014 73.5538 185.798 73.5538Z" fill="#626C84"/>
<path d="M194.362 73.5538H189.669C189.453 73.5538 189.278 73.7286 189.278 73.9445V78.6344C189.278 78.8503 189.453 79.0251 189.669 79.0251H194.362C194.578 79.0251 194.753 78.8503 194.753 78.6344V73.9445C194.753 73.7286 194.578 73.5538 194.362 73.5538Z" fill="#626C84"/>
<path d="M202.927 73.5538H198.234C198.018 73.5538 197.843 73.7286 197.843 73.9445V78.6344C197.843 78.8503 198.018 79.0251 198.234 79.0251H202.927C203.143 79.0251 203.318 78.8503 203.318 78.6344V73.9445C203.318 73.7286 203.143 73.5538 202.927 73.5538Z" fill="#626C84"/>
<path d="M128.796 61.0854H195.28V66.3404C195.28 66.755 195.115 67.1525 194.822 67.4458C194.529 67.7389 194.131 67.9036 193.716 67.9036H130.36C129.945 67.9036 129.547 67.7389 129.254 67.4458C128.961 67.1525 128.796 66.755 128.796 66.3404V61.0854Z" fill="#626C84"/>
<path opacity="0.12" d="M195.28 61.0854H128.796V61.867H195.28V61.0854Z" fill="white"/>
<g style="mix-blend-mode:multiply" opacity="0.25">
<path d="M193.716 66.3402H130.36C129.945 66.3402 129.547 66.1755 129.254 65.8822C128.961 65.5891 128.796 65.1914 128.796 64.7767V66.3402C128.796 66.7546 128.961 67.1523 129.254 67.4454C129.547 67.7387 129.945 67.9034 130.36 67.9034H193.716C194.131 67.9034 194.529 67.7387 194.822 67.4454C195.115 67.1523 195.28 66.7546 195.28 66.3402V64.7767C195.28 65.1914 195.115 65.5891 194.822 65.8822C194.529 66.1755 194.131 66.3402 193.716 66.3402Z" fill="#626C84"/>
</g>
<path d="M128.796 61.0854H195.28V66.3404C195.28 66.755 195.115 67.1525 194.822 67.4458C194.529 67.7389 194.131 67.9036 193.716 67.9036H130.36C129.945 67.9036 129.547 67.7389 129.254 67.4458C128.961 67.1525 128.796 66.755 128.796 66.3404V61.0854Z" stroke="#46505C" stroke-linecap="round" stroke-linejoin="round"/>
<path d="M175.726 107.751H148.35C147.918 107.751 147.568 108.101 147.568 108.533V126.901C147.568 127.333 147.918 127.683 148.35 127.683H175.726C176.158 127.683 176.508 127.333 176.508 126.901V108.533C176.508 108.101 176.158 107.751 175.726 107.751Z" fill="#E6F3FF"/>
<path d="M175.726 107.751H148.35C147.918 107.751 147.568 108.101 147.568 108.533V126.901C147.568 127.333 147.918 127.683 148.35 127.683H175.726C176.158 127.683 176.508 127.333 176.508 126.901V108.533C176.508 108.101 176.158 107.751 175.726 107.751Z" stroke="#626C84" stroke-linecap="round" stroke-linejoin="round"/>
<path opacity="0.52" d="M162.038 5.63958C162.686 5.63958 163.211 5.11467 163.211 4.46703C163.211 3.81963 162.686 3.29472 162.038 3.29472C161.39 3.29472 160.865 3.81963 160.865 4.46703C160.865 5.11467 161.39 5.63958 162.038 5.63958Z" fill="white"/>
<path d="M162.038 5.63958C162.686 5.63958 163.211 5.11467 163.211 4.46703C163.211 3.81963 162.686 3.29472 162.038 3.29472C161.39 3.29472 160.865 3.81963 160.865 4.46703C160.865 5.11467 161.39 5.63958 162.038 5.63958Z" stroke="#46505C" stroke-width="1.66667" stroke-linecap="round" stroke-linejoin="round"/>
<path d="M186.426 12.7045H181.733C181.517 12.7045 181.342 12.8795 181.342 13.0954C181.342 13.3113 181.517 13.4861 181.733 13.4861H186.426C186.642 13.4861 186.817 13.3113 186.817 13.0954C186.817 12.8795 186.642 12.7045 186.426 12.7045Z" fill="white"/>
<path d="M196.584 12.7045H191.891C191.675 12.7045 191.5 12.8795 191.5 13.0954C191.5 13.3113 191.675 13.4861 191.891 13.4861H196.584C196.8 13.4861 196.975 13.3113 196.975 13.0954C196.975 12.8795 196.8 12.7045 196.584 12.7045Z" fill="white"/>
<path d="M176.268 12.7045H171.575C171.359 12.7045 171.184 12.8795 171.184 13.0954C171.184 13.3113 171.359 13.4861 171.575 13.4861H176.268C176.484 13.4861 176.659 13.3113 176.659 13.0954C176.659 12.8795 176.484 12.7045 176.268 12.7045Z" fill="white"/>
<path d="M125.758 15.1896C126.803 15.1896 127.65 14.3432 127.65 13.2993C127.65 12.2553 126.803 11.4089 125.758 11.4089C124.714 11.4089 123.867 12.2553 123.867 13.2993C123.867 14.3432 124.714 15.1896 125.758 15.1896Z" fill="white"/>
<g opacity="0.72">
<path opacity="0.72" d="M181.81 33.9971H142.219V35.4216H181.81V33.9971Z" fill="white"/>
<path opacity="0.72" d="M176.803 29.2691H147.226V30.7143H176.803V29.2691Z" fill="white"/>
</g>
<path d="M168.845 45.0715H157.577C156.394 45.0715 155.434 46.0306 155.434 47.2137C155.434 48.3965 156.394 49.3558 157.577 49.3558H168.845C170.029 49.3558 170.988 48.3965 170.988 47.2137C170.988 46.0306 170.029 45.0715 168.845 45.0715Z" stroke="white" stroke-width="1.66667" stroke-miterlimit="10"/>
<path d="M93.2222 87.5593C92.9837 87.8931 92.7011 88.2238 92.497 88.5773C89.7655 93.3085 87.034 98.0396 84.0768 102.685C84.0664 102.545 84.0021 102.418 84.053 102.29C85.1224 97.6992 84.0559 93.5141 81.609 89.4973C76.8287 81.6639 72.1044 73.7731 67.3608 65.916C67.2794 65.7792 67.2249 65.6355 67.1113 65.4352C73.8475 61.4672 80.547 57.5229 87.2832 53.5549C88.181 55.0161 89.0467 56.4139 89.8854 57.8186C92.0784 61.4418 94.3446 65.0176 96.4202 68.6853C97.8811 71.2349 98.8263 74.003 98.5384 77.0021C98.4896 77.6025 98.3527 78.1969 98.2501 78.8111C96.5856 81.7338 94.9039 84.6466 93.2222 87.5593Z" fill="#F08222"/>
<path d="M72.1882 24.9883C74.7575 28.8677 77.3439 32.757 79.9032 36.6535C80.1307 37.013 80.3681 37.3554 80.6373 37.7619C83.0462 36.8023 85.374 35.8643 87.901 34.8587C87.7279 35.238 87.6608 35.4731 87.5422 35.6785C84.1947 41.5956 80.8372 47.5299 77.4896 53.447C77.2327 53.892 77.0278 54.2073 76.3815 54.1764C69.1516 53.9272 61.9093 53.7392 54.6695 53.5071C54.554 53.5088 54.4239 53.4565 54.0898 53.4006C56.1531 52.1273 58.0686 50.9513 60.0409 49.7168C59.8576 49.36 59.716 49.05 59.5473 48.7472C57.286 44.6121 55.0518 40.4697 52.7708 36.3688C52.4578 35.8002 52.4639 35.393 52.7973 34.8552C54.5754 31.9341 56.226 28.9165 58.8968 26.6704C62.1096 23.9615 65.846 22.9239 70.0409 23.9082C70.1194 23.9308 70.2277 23.902 70.326 23.8903C70.9344 24.2644 71.5699 24.6313 72.1882 24.9883Z" fill="white"/>
<path d="M17.6943 41.8928C17.8023 41.6657 17.8447 41.5121 17.9218 41.3785C20.7639 36.496 23.5538 31.5834 26.4905 26.7778C27.9675 24.38 29.9271 22.3499 32.6975 21.3223C33.531 21.002 34.4667 20.7853 35.3737 20.8191C44.2558 21.1604 53.1264 21.5619 61.997 21.9634C62.2459 21.9735 62.5026 22.0104 62.7477 22.1074C60.5752 22.701 58.5939 23.6054 56.8424 24.9541C54.9887 26.3997 53.5655 28.1829 52.3989 30.2033C47.8717 37.9645 43.3367 45.699 38.7921 53.4502C38.715 53.5838 38.6031 53.6973 38.4797 53.8709C31.5564 49.896 24.6601 45.9145 17.6943 41.8928Z" fill="#F08222"/>
<path d="M3.29834 84.6676C5.09322 86.0899 6.98237 87.2714 9.16356 87.9858C11.3349 88.7173 13.5508 88.9068 15.8373 88.8193C24.8431 88.4792 33.8559 88.1658 42.8687 87.8524C43.0521 87.8447 43.2325 87.8807 43.4927 87.8947C43.7082 95.693 43.9167 103.464 44.1449 111.202C44.0455 111.258 43.9894 111.316 43.9362 111.331C38.22 111.55 32.508 111.839 26.7976 111.971C24.0341 112.032 21.2787 111.577 18.9553 109.986C17.9815 109.31 17.0586 108.391 16.4648 107.367C12.1766 100.078 7.96122 92.7405 3.71929 85.4101C3.5701 85.1651 3.43769 84.9297 3.29834 84.6676Z" fill="#F08222"/>
<path d="M60.4571 86.7209C63.2731 86.7535 65.9904 86.7973 68.6905 86.8311C71.0696 86.8618 73.4488 86.8925 75.8355 86.9503C76.1563 86.9534 76.6229 87.0634 76.7539 87.2756C78.7115 90.4317 80.6864 93.5976 81.4204 97.2763C82.1172 100.82 81.3725 104.145 79.275 107.1C78.1239 108.734 76.4515 109.635 74.4204 109.76C70.3583 110.009 66.2986 110.215 62.2464 110.447C61.8885 110.468 61.5307 110.489 61.1013 110.515C60.8001 113.072 60.4939 115.558 60.1756 118.265C59.8989 117.946 59.7211 117.775 59.6074 117.573C55.9788 111.722 52.3578 105.899 48.7662 100.024C48.5784 99.7109 48.5309 99.1144 48.6985 98.8242C52.3601 92.562 56.0464 86.3368 59.7426 80.0945C59.7918 80.0091 59.8658 79.9608 60.0754 79.7176C60.2282 82.1275 60.3364 84.3751 60.4571 86.7209Z" fill="white"/>
<path d="M33.3153 74.5828C31.1087 73.4828 29.1389 72.5194 27.0846 71.5073C26.8963 71.8334 26.7268 72.1269 26.5668 72.4041C24.379 76.2716 22.1912 80.1391 20.0109 84.0327C19.6983 84.6131 19.3334 84.8155 18.6659 84.7997C15.2909 84.786 11.9101 84.8994 8.60919 83.8197C5.06015 82.662 2.46527 80.3595 0.888393 77.0359C-0.14972 74.8496 0.385839 72.7891 1.38767 70.7805C2.96388 67.5816 4.47244 64.3437 6.01482 61.1253C6.09204 60.9525 6.14293 60.7863 6.24281 60.4961C4.22641 59.0276 2.19311 57.5493 6.54656e-05 55.957C0.409998 55.9111 0.637536 55.8685 0.87258 55.852C7.54575 55.6611 14.2358 55.48 20.909 55.2891C21.3697 55.2725 21.7156 55.2983 22.0142 55.7968C25.6629 61.8601 29.3474 67.9005 33.0055 73.9474C33.0938 74.1071 33.1407 74.2211 33.3153 74.5828Z" fill="white"/>
</svg>
