<svg width="389" height="390" viewBox="0 0 389 390" fill="none" xmlns="http://www.w3.org/2000/svg">
<g clip-path="url(#clip0_6_13305)">
<g opacity="0.39">
<path opacity="0.39" d="M69.2243 187.072C73.6 187.072 77.1473 183.523 77.1473 179.145C77.1473 174.767 73.6 171.217 69.2243 171.217C64.8485 171.217 61.3013 174.767 61.3013 179.145C61.3013 183.523 64.8485 187.072 69.2243 187.072Z" fill="white"/>
<path opacity="0.39" d="M69.2243 182.543C71.0997 182.543 72.62 181.021 72.62 179.145C72.62 177.268 71.0997 175.747 69.2243 175.747C67.3489 175.747 65.8286 177.268 65.8286 179.145C65.8286 181.021 67.3489 182.543 69.2243 182.543Z" fill="white"/>
<path opacity="0.39" d="M81.5608 167.772L76.6596 170.604L76.667 170.616C76.3091 170.304 75.9317 170.014 75.5373 169.748L75.5505 169.752L77.0152 164.282C77.1318 163.847 77.0708 163.383 76.8454 162.993C76.6204 162.603 76.2496 162.318 75.8148 162.202L71.9881 161.176C71.5532 161.059 71.09 161.12 70.6999 161.346C70.3101 161.571 70.0256 161.942 69.909 162.377L68.4444 167.847H68.4525C67.9827 167.879 67.5156 167.94 67.0535 168.031L67.0597 168.027L64.2303 163.123C64.1187 162.93 63.9703 162.761 63.7935 162.625C63.6166 162.489 63.415 162.389 63.1993 162.332C62.984 162.274 62.7594 162.259 62.5382 162.288C62.3171 162.317 62.1042 162.39 61.911 162.501L58.4804 164.484C58.2872 164.596 58.1178 164.744 57.9822 164.921C57.8465 165.098 57.7467 165.3 57.6892 165.516C57.6312 165.731 57.6165 165.956 57.6456 166.177C57.6748 166.398 57.7471 166.611 57.8586 166.805L60.6881 171.708L60.6943 171.705C60.3846 172.06 60.0978 172.435 59.8347 172.826L59.837 172.819L54.3704 171.353C53.9356 171.236 53.4719 171.297 53.0822 171.523C52.6924 171.748 52.4079 172.119 52.2913 172.554L51.2658 176.383C51.1492 176.818 51.2106 177.282 51.4356 177.672C51.6606 178.062 52.0317 178.347 52.4666 178.463L57.9328 179.929L57.9363 179.916C57.9686 180.39 58.0307 180.862 58.1225 181.328L58.1155 181.316L53.2143 184.147C52.8245 184.372 52.5397 184.743 52.4231 185.178C52.3065 185.614 52.3675 186.077 52.5925 186.467L54.5744 189.9C54.686 190.093 54.8344 190.263 55.0112 190.399C55.1881 190.535 55.3897 190.634 55.6054 190.692C55.8207 190.75 56.0453 190.764 56.2664 190.735C56.4876 190.706 56.7005 190.634 56.8937 190.522L61.7944 187.691L61.7836 187.672C62.1457 187.989 62.5281 188.282 62.9276 188.549L62.9039 188.543L61.4393 194.012C61.3227 194.447 61.3837 194.911 61.6087 195.301C61.8341 195.692 62.2048 195.976 62.6397 196.093L66.4663 197.119C66.9012 197.235 67.3644 197.174 67.7546 196.949C68.1444 196.724 68.4288 196.353 68.5454 195.918L70.0101 190.448L69.9813 190.44C70.4651 190.408 70.9462 190.345 71.4215 190.251L71.3963 190.266L74.2261 195.169C74.3377 195.362 74.4861 195.532 74.6629 195.668C74.8397 195.804 75.0414 195.903 75.2571 195.961C75.4724 196.019 75.697 196.034 75.9181 196.004C76.1393 195.975 76.3522 195.903 76.5454 195.791L79.976 193.808C80.3658 193.583 80.6506 193.212 80.7672 192.777C80.8838 192.342 80.8228 191.878 80.5978 191.488L77.7683 186.584L77.7431 186.598C78.0625 186.234 78.3578 185.848 78.6271 185.445L78.6194 185.474L84.0856 186.94C84.3009 186.997 84.5255 187.012 84.7466 186.983C84.9677 186.954 85.1811 186.882 85.3742 186.77C85.567 186.658 85.7364 186.51 85.872 186.333C86.0076 186.156 86.1075 185.954 86.165 185.738L87.1902 181.91C87.2481 181.695 87.2629 181.47 87.2337 181.249C87.2046 181.027 87.1323 180.814 87.0208 180.621C86.9092 180.428 86.7608 180.258 86.584 180.122C86.4071 179.987 86.2051 179.887 85.9898 179.829L80.5201 178.366L80.5135 178.389C80.4816 177.909 80.4194 177.432 80.3265 176.96L80.3374 176.979L85.2386 174.148C85.6284 173.923 85.9132 173.551 86.0298 173.116C86.1464 172.681 86.0854 172.217 85.8604 171.827L83.8784 168.394C83.6534 168.004 83.2827 167.72 82.8482 167.604C82.4138 167.487 81.9505 167.548 81.5608 167.772Z" fill="white"/>
</g>
<path opacity="0.39" d="M117.65 106.698C128.713 106.698 137.682 97.7244 137.682 86.6547C137.682 75.5846 128.713 66.6111 117.65 66.6111C106.586 66.6111 97.6177 75.5846 97.6177 86.6547C97.6177 97.7244 106.586 106.698 117.65 106.698Z" fill="white"/>
<path d="M117.375 86.8724L128.196 80.5803L128.163 92.3515L117.341 98.644L117.375 86.8724Z" stroke="#1E223B" stroke-linecap="round" stroke-linejoin="round"/>
<path d="M107.136 80.9583L117.958 74.6658L128.196 80.5803L117.375 86.8724L107.136 80.9583Z" stroke="#1E223B" stroke-linecap="round" stroke-linejoin="round"/>
<path d="M107.136 80.9583L117.958 74.6658L128.196 80.5803L117.375 86.8724L107.136 80.9583Z" fill="#028B9E" stroke="#1E223B" stroke-linecap="round" stroke-linejoin="round"/>
<path opacity="0.4" d="M117.375 86.8724L117.341 98.644L107.103 92.7294L107.136 80.9583L117.375 86.8724Z" fill="#028B9E" stroke="#1E223B" stroke-linecap="round" stroke-linejoin="round"/>
<path d="M117.375 86.8724L117.341 98.644L107.103 92.7294L107.136 80.9583L117.375 86.8724Z" stroke="#1E223B" stroke-linecap="round" stroke-linejoin="round"/>
<path d="M117.65 106.698C128.713 106.698 137.682 97.7244 137.682 86.6547C137.682 75.5846 128.713 66.6111 117.65 66.6111C106.586 66.6111 97.6177 75.5846 97.6177 86.6547C97.6177 97.7244 106.586 106.698 117.65 106.698Z" stroke="#1E223B" stroke-linecap="round" stroke-linejoin="round"/>
<g style="mix-blend-mode:multiply" opacity="0.11">
<path d="M257.066 242.53H147.478C143.615 242.53 140.483 245.663 140.483 249.529V328.073C140.483 331.939 143.615 335.072 147.478 335.072H257.066C260.93 335.072 264.061 331.939 264.061 328.073V249.529C264.061 245.663 260.93 242.53 257.066 242.53Z" fill="#161616"/>
<path d="M257.066 242.53H147.478C143.615 242.53 140.483 245.663 140.483 249.529V328.073C140.483 331.939 143.615 335.072 147.478 335.072H257.066C260.93 335.072 264.061 331.939 264.061 328.073V249.529C264.061 245.663 260.93 242.53 257.066 242.53Z" stroke="#1E223B" stroke-miterlimit="10"/>
</g>
<g style="mix-blend-mode:multiply" opacity="0.11">
<path d="M261.341 237.086H143.203C141.701 237.086 140.483 238.305 140.483 239.808C140.483 241.311 141.701 242.53 143.203 242.53H261.341C262.843 242.53 264.061 241.311 264.061 239.808C264.061 238.305 262.843 237.086 261.341 237.086Z" fill="#161616"/>
<path d="M261.341 237.086H143.203C141.701 237.086 140.483 238.305 140.483 239.808C140.483 241.311 141.701 242.53 143.203 242.53H261.341C262.843 242.53 264.061 241.311 264.061 239.808C264.061 238.305 262.843 237.086 261.341 237.086Z" stroke="#1E223B" stroke-miterlimit="10"/>
</g>
<path d="M253.18 239.419H143.592C139.728 239.419 136.597 242.553 136.597 246.418V324.963C136.597 328.828 139.728 331.962 143.592 331.962H253.18C257.043 331.962 260.175 328.828 260.175 324.963V246.418C260.175 242.553 257.043 239.419 253.18 239.419Z" fill="#2F4584"/>
<path d="M253.18 239.419H143.592C139.728 239.419 136.597 242.553 136.597 246.418V322.63C136.597 326.495 139.728 329.629 143.592 329.629H253.18C257.043 329.629 260.175 326.495 260.175 322.63V246.418C260.175 242.553 257.043 239.419 253.18 239.419Z" fill="white"/>
<g style="mix-blend-mode:multiply" opacity="0.11">
<path d="M216.845 324.118H216.262C215.644 324.118 215.051 324.364 214.613 324.802C214.176 325.239 213.931 325.833 213.931 326.451V329.24C213.931 329.55 213.808 329.846 213.589 330.065C213.371 330.284 213.074 330.407 212.765 330.407C212.455 330.407 212.159 330.284 211.94 330.065C211.722 329.846 211.599 329.55 211.599 329.24V326.451C211.599 325.833 211.353 325.239 210.916 324.802C210.478 324.364 209.885 324.118 209.267 324.118H208.684C208.066 324.118 207.473 324.364 207.035 324.802C206.598 325.239 206.353 325.833 206.353 326.451V329.24C206.353 329.55 206.23 329.846 206.011 330.065C205.793 330.284 205.496 330.407 205.187 330.407C204.877 330.407 204.581 330.284 204.363 330.065C204.144 329.846 204.021 329.55 204.021 329.24V326.451C204.021 325.833 203.775 325.239 203.338 324.802C202.901 324.364 202.308 324.118 201.689 324.118H201.106C200.488 324.118 199.895 324.364 199.457 324.802C199.02 325.239 198.775 325.833 198.775 326.451V329.24C198.775 329.55 198.652 329.846 198.433 330.065C198.215 330.284 197.918 330.407 197.609 330.407C197.299 330.407 197.003 330.284 196.785 330.065C196.566 329.846 196.443 329.55 196.443 329.24V311.743C196.443 311.124 196.197 310.531 195.76 310.093C195.323 309.655 194.73 309.41 194.111 309.41H193.528C192.91 309.41 192.317 309.655 191.88 310.093C191.442 310.531 191.197 311.124 191.197 311.743V342.24L186.725 334.489C186.571 334.224 186.368 333.991 186.125 333.804C185.882 333.617 185.605 333.48 185.309 333.401C185.012 333.321 184.704 333.301 184.4 333.341C184.096 333.381 183.803 333.481 183.538 333.634L183.033 333.926C182.767 334.079 182.535 334.282 182.348 334.526C182.161 334.769 182.024 335.047 181.945 335.342C181.865 335.639 181.845 335.947 181.885 336.252C181.925 336.556 182.025 336.849 182.178 337.114L191.522 353.307C191.865 354.178 192.462 354.925 193.235 355.452C194.008 355.979 194.922 356.262 195.857 356.262H196.634V365.848H195.1V375.517H194.348C193.68 375.517 193.039 375.783 192.566 376.255C192.093 376.728 191.828 377.37 191.828 378.039V389.806H218.548V378.039C218.548 377.37 218.282 376.728 217.809 376.255C217.337 375.783 216.695 375.517 216.027 375.517H215.272V365.848H213.736V356.262H214.513C215.75 356.262 216.936 355.771 217.811 354.896C218.686 354.02 219.177 352.834 219.177 351.596V326.451C219.177 325.833 218.931 325.239 218.494 324.802C218.056 324.364 217.463 324.118 216.845 324.118Z" fill="#161616"/>
<path d="M216.845 324.118H216.262C215.644 324.118 215.051 324.364 214.613 324.802C214.176 325.239 213.931 325.833 213.931 326.451V329.24C213.931 329.55 213.808 329.846 213.589 330.065C213.371 330.284 213.074 330.407 212.765 330.407C212.455 330.407 212.159 330.284 211.94 330.065C211.722 329.846 211.599 329.55 211.599 329.24V326.451C211.599 325.833 211.353 325.239 210.916 324.802C210.478 324.364 209.885 324.118 209.267 324.118H208.684C208.066 324.118 207.473 324.364 207.035 324.802C206.598 325.239 206.353 325.833 206.353 326.451V329.24C206.353 329.55 206.23 329.846 206.011 330.065C205.793 330.284 205.496 330.407 205.187 330.407C204.877 330.407 204.581 330.284 204.363 330.065C204.144 329.846 204.021 329.55 204.021 329.24V326.451C204.021 325.833 203.775 325.239 203.338 324.802C202.901 324.364 202.308 324.118 201.689 324.118H201.106C200.488 324.118 199.895 324.364 199.457 324.802C199.02 325.239 198.775 325.833 198.775 326.451V329.24C198.775 329.55 198.652 329.846 198.433 330.065C198.215 330.284 197.918 330.407 197.609 330.407C197.299 330.407 197.003 330.284 196.785 330.065C196.566 329.846 196.443 329.55 196.443 329.24V311.743C196.443 311.124 196.197 310.531 195.76 310.093C195.323 309.655 194.73 309.41 194.111 309.41H193.528C192.91 309.41 192.317 309.655 191.88 310.093C191.442 310.531 191.197 311.124 191.197 311.743V342.24L186.725 334.489C186.571 334.224 186.368 333.991 186.125 333.804C185.882 333.617 185.605 333.48 185.309 333.401C185.012 333.321 184.704 333.301 184.4 333.341C184.096 333.381 183.803 333.481 183.538 333.634L183.033 333.926C182.767 334.079 182.535 334.282 182.348 334.526C182.161 334.769 182.024 335.047 181.945 335.342C181.865 335.639 181.845 335.947 181.885 336.252C181.925 336.556 182.025 336.849 182.178 337.114L191.522 353.307C191.865 354.178 192.462 354.925 193.235 355.452C194.008 355.979 194.922 356.262 195.857 356.262H196.634V365.848H195.1V375.517H194.348C193.68 375.517 193.039 375.783 192.566 376.255C192.093 376.728 191.828 377.37 191.828 378.039V389.806H218.548V378.039C218.548 377.37 218.282 376.728 217.809 376.255C217.337 375.783 216.695 375.517 216.027 375.517H215.272V365.848H213.736V356.262H214.513C215.75 356.262 216.936 355.771 217.811 354.896C218.686 354.02 219.177 352.834 219.177 351.596V326.451C219.177 325.833 218.931 325.239 218.494 324.802C218.056 324.364 217.463 324.118 216.845 324.118Z" stroke="#1E223B" stroke-miterlimit="10"/>
</g>
<g style="mix-blend-mode:multiply" opacity="0.11">
<path d="M172.18 322.63C173.344 322.629 174.466 322.192 175.326 321.406C176.185 320.62 176.719 319.54 176.822 318.38L185.419 303.481C185.572 303.216 185.672 302.923 185.712 302.619C185.752 302.315 185.731 302.006 185.652 301.71C185.572 301.414 185.436 301.136 185.249 300.893C185.062 300.65 184.829 300.446 184.564 300.293L184.059 300.001C183.793 299.848 183.5 299.749 183.197 299.709C182.893 299.669 182.584 299.689 182.288 299.768C181.992 299.848 181.715 299.985 181.472 300.171C181.229 300.358 181.025 300.591 180.872 300.857L176.84 307.845V278.11C176.84 277.491 176.595 276.897 176.158 276.46C175.72 276.022 175.127 275.777 174.509 275.777H173.926C173.308 275.777 172.714 276.022 172.277 276.46C171.84 276.897 171.594 277.491 171.594 278.11V295.607C171.594 295.917 171.471 296.213 171.253 296.432C171.034 296.651 170.738 296.774 170.428 296.774C170.119 296.774 169.822 296.651 169.604 296.432C169.385 296.213 169.262 295.917 169.262 295.607V274.729C169.262 274.11 169.017 273.517 168.58 273.079C168.142 272.642 167.549 272.396 166.931 272.396H166.348C165.73 272.396 165.137 272.642 164.699 273.079C164.262 273.517 164.016 274.11 164.016 274.729V295.608C164.016 295.917 163.893 296.214 163.675 296.432C163.456 296.651 163.16 296.774 162.85 296.774C162.541 296.774 162.245 296.651 162.026 296.432C161.807 296.214 161.685 295.917 161.685 295.608V278.11C161.685 277.491 161.439 276.898 161.002 276.46C160.564 276.023 159.971 275.777 159.353 275.777H158.77C158.152 275.777 157.559 276.023 157.121 276.46C156.684 276.898 156.438 277.491 156.438 278.11V295.608C156.438 295.917 156.315 296.214 156.097 296.432C155.878 296.651 155.582 296.774 155.272 296.774C154.963 296.774 154.667 296.651 154.448 296.432C154.229 296.214 154.107 295.917 154.107 295.608V283.651C154.107 283.032 153.861 282.439 153.424 282.001C152.986 281.564 152.393 281.318 151.775 281.318H151.192C150.574 281.318 149.981 281.564 149.543 282.001C149.106 282.439 148.86 283.032 148.86 283.651V317.964C148.86 319.201 149.352 320.388 150.226 321.263C151.101 322.138 152.287 322.63 153.524 322.63H154.526V332.215H152.766V341.884H152.011C151.343 341.884 150.702 342.149 150.229 342.623C149.756 343.095 149.49 343.737 149.49 344.406V389.806H176.21V344.406C176.21 343.737 175.945 343.095 175.472 342.623C174.999 342.149 174.358 341.884 173.69 341.884H172.934V332.215H171.625V322.63H172.18Z" fill="#161616"/>
<path d="M172.18 322.63C173.344 322.629 174.466 322.192 175.326 321.406C176.185 320.62 176.719 319.54 176.822 318.38L185.419 303.481C185.572 303.216 185.672 302.923 185.712 302.619C185.752 302.315 185.731 302.006 185.652 301.71C185.572 301.414 185.436 301.136 185.249 300.893C185.062 300.65 184.829 300.446 184.564 300.293L184.059 300.001C183.793 299.848 183.5 299.749 183.197 299.709C182.893 299.669 182.584 299.689 182.288 299.768C181.992 299.848 181.715 299.985 181.472 300.171C181.229 300.358 181.025 300.591 180.872 300.857L176.84 307.845V278.11C176.84 277.491 176.595 276.897 176.158 276.46C175.72 276.022 175.127 275.777 174.509 275.777H173.926C173.308 275.777 172.714 276.022 172.277 276.46C171.84 276.897 171.594 277.491 171.594 278.11V295.607C171.594 295.917 171.471 296.213 171.253 296.432C171.034 296.651 170.738 296.774 170.428 296.774C170.119 296.774 169.822 296.651 169.604 296.432C169.385 296.213 169.262 295.917 169.262 295.607V274.729C169.262 274.11 169.017 273.517 168.58 273.079C168.142 272.642 167.549 272.396 166.931 272.396H166.348C165.73 272.396 165.137 272.642 164.699 273.079C164.262 273.517 164.016 274.11 164.016 274.729V295.608C164.016 295.917 163.893 296.214 163.675 296.432C163.456 296.651 163.16 296.774 162.85 296.774C162.541 296.774 162.245 296.651 162.026 296.432C161.807 296.214 161.685 295.917 161.685 295.608V278.11C161.685 277.491 161.439 276.898 161.002 276.46C160.564 276.023 159.971 275.777 159.353 275.777H158.77C158.152 275.777 157.559 276.023 157.121 276.46C156.684 276.898 156.438 277.491 156.438 278.11V295.608C156.438 295.917 156.315 296.214 156.097 296.432C155.878 296.651 155.582 296.774 155.272 296.774C154.963 296.774 154.667 296.651 154.448 296.432C154.229 296.214 154.107 295.917 154.107 295.608V283.651C154.107 283.032 153.861 282.439 153.424 282.001C152.986 281.564 152.393 281.318 151.775 281.318H151.192C150.574 281.318 149.981 281.564 149.543 282.001C149.106 282.439 148.86 283.032 148.86 283.651V317.964C148.86 319.201 149.352 320.388 150.226 321.263C151.101 322.138 152.287 322.63 153.524 322.63H154.526V332.215H152.766V341.884H152.011C151.343 341.884 150.702 342.149 150.229 342.623C149.756 343.095 149.49 343.737 149.49 344.406V389.806H176.21V344.406C176.21 343.737 175.945 343.095 175.472 342.623C174.999 342.149 174.358 341.884 173.69 341.884H172.934V332.215H171.625V322.63H172.18Z" stroke="#1E223B" stroke-miterlimit="10"/>
</g>
<path opacity="0.15" d="M252.986 246.224H143.786C142.928 246.224 142.232 246.92 142.232 247.779V291.717C142.232 292.576 142.928 293.273 143.786 293.273H252.986C253.845 293.273 254.541 292.576 254.541 291.717V247.779C254.541 246.92 253.845 246.224 252.986 246.224Z" fill="#1E223B" stroke="#1E223B" stroke-miterlimit="11"/>
<path d="M253.18 239.419H143.592C139.728 239.419 136.597 242.553 136.597 246.418V322.63C136.597 326.495 139.728 329.629 143.592 329.629H253.18C257.043 329.629 260.175 326.495 260.175 322.63V246.418C260.175 242.553 257.043 239.419 253.18 239.419Z" stroke="#1E223B" stroke-linecap="round" stroke-linejoin="round"/>
<path d="M253.18 239.419H143.592C139.728 239.419 136.597 242.553 136.597 246.418V324.963C136.597 328.828 139.728 331.962 143.592 331.962H253.18C257.043 331.962 260.175 328.828 260.175 324.963V246.418C260.175 242.553 257.043 239.419 253.18 239.419Z" stroke="#1E223B" stroke-linecap="round" stroke-linejoin="round"/>
<path d="M253.18 149.21H143.592C139.728 149.21 136.597 152.343 136.597 156.209V232.42C136.597 236.286 139.728 239.419 143.592 239.419H253.18C257.043 239.419 260.175 236.286 260.175 232.42V156.209C260.175 152.343 257.043 149.21 253.18 149.21Z" fill="#2F4584"/>
<path d="M253.18 149.21H143.592C139.728 149.21 136.597 152.343 136.597 156.209V232.42C136.597 236.286 139.728 239.419 143.592 239.419H253.18C257.043 239.419 260.175 236.286 260.175 232.42V156.209C260.175 152.343 257.043 149.21 253.18 149.21Z" stroke="#1E223B" stroke-linecap="round" stroke-linejoin="round"/>
<path d="M257.844 232.42V156.209C257.844 153.632 255.756 151.543 253.18 151.543H143.592C141.017 151.543 138.929 153.632 138.929 156.209V232.42C138.929 234.997 141.017 237.086 143.592 237.086H253.18C255.756 237.086 257.844 234.997 257.844 232.42Z" fill="white"/>
<path d="M248.518 227.754V160.875H148.256V227.754H248.518Z" fill="#FF5855" stroke="#1E223B" stroke-miterlimit="10"/>
<path d="M257.844 232.42V156.209C257.844 153.632 255.756 151.543 253.18 151.543H143.592C141.017 151.543 138.929 153.632 138.929 156.209V232.42C138.929 234.997 141.017 237.086 143.592 237.086H253.18C255.756 237.086 257.844 234.997 257.844 232.42Z" stroke="#1E223B" stroke-linecap="round" stroke-linejoin="round"/>
<path d="M248.518 227.754V160.875H148.256V227.754H248.518Z" stroke="#1E223B" stroke-linecap="round" stroke-linejoin="round"/>
<g opacity="0.1">
<path opacity="0.1" d="M213.445 296.967H183.327C182.415 296.967 181.676 297.707 181.676 298.619V318.644C181.676 319.557 182.415 320.297 183.327 320.297H213.445C214.357 320.297 215.096 319.557 215.096 318.644V298.619C215.096 297.707 214.357 296.967 213.445 296.967Z" fill="#1E223B"/>
</g>
<path d="M213.445 296.967H183.327C182.415 296.967 181.676 297.707 181.676 298.619V318.644C181.676 319.557 182.415 320.297 183.327 320.297H213.445C214.357 320.297 215.096 319.557 215.096 318.644V298.619C215.096 297.707 214.357 296.967 213.445 296.967Z" stroke="#1E223B" stroke-linecap="round" stroke-linejoin="round"/>
<path d="M213.347 328.851H183.813V331.961H213.347V328.851Z" fill="#263C72"/>
<path d="M213.347 328.851H183.813V331.961H213.347V328.851Z" stroke="#1E223B" stroke-linecap="round" stroke-linejoin="round"/>
<g style="mix-blend-mode:multiply" opacity="0.11">
<path d="M237.636 139.878H164.577C163.289 139.878 162.245 140.923 162.245 142.211V224.644C162.245 225.932 163.289 226.977 164.577 226.977H237.636C238.924 226.977 239.967 225.932 239.967 224.644V142.211C239.967 140.923 238.924 139.878 237.636 139.878Z" fill="#161616"/>
<path d="M237.636 139.878H164.577C163.289 139.878 162.245 140.923 162.245 142.211V224.644C162.245 225.932 163.289 226.977 164.577 226.977H237.636C238.924 226.977 239.967 225.932 239.967 224.644V142.211C239.967 140.923 238.924 139.878 237.636 139.878Z" stroke="#1E223B" stroke-miterlimit="10"/>
</g>
<path d="M235.499 138.322H162.44C161.152 138.322 160.108 139.367 160.108 140.655V223.088C160.108 224.377 161.152 225.421 162.44 225.421H235.499C236.786 225.421 237.83 224.377 237.83 223.088V140.655C237.83 139.367 236.786 138.322 235.499 138.322Z" fill="white"/>
<path d="M160.108 212.201H237.83V223.088C237.83 223.707 237.585 224.301 237.147 224.738C236.71 225.175 236.117 225.421 235.499 225.421H162.44C161.821 225.421 161.228 225.175 160.791 224.738C160.354 224.301 160.108 223.707 160.108 223.088V212.201Z" fill="#EFEFEF"/>
<path d="M235.499 138.322H162.44C161.152 138.322 160.108 139.367 160.108 140.655V223.088C160.108 224.377 161.152 225.421 162.44 225.421H235.499C236.786 225.421 237.83 224.377 237.83 223.088V140.655C237.83 139.367 236.786 138.322 235.499 138.322Z" stroke="#1E223B" stroke-linecap="round" stroke-linejoin="round"/>
<path d="M162.217 138.322H235.721C235.998 138.322 236.273 138.377 236.528 138.483C236.784 138.589 237.017 138.745 237.213 138.941C237.409 139.137 237.564 139.37 237.67 139.625C237.776 139.882 237.83 140.156 237.83 140.433V145.322H160.108V140.433C160.108 140.156 160.162 139.882 160.268 139.625C160.374 139.37 160.53 139.137 160.725 138.941C160.921 138.745 161.154 138.589 161.41 138.483C161.665 138.377 161.94 138.322 162.217 138.322Z" fill="#363D56"/>
<path d="M162.217 138.322H235.721C235.998 138.322 236.273 138.377 236.528 138.483C236.784 138.589 237.017 138.745 237.213 138.941C237.409 139.137 237.564 139.37 237.67 139.625C237.776 139.882 237.83 140.156 237.83 140.433V145.322H160.108V140.433C160.108 140.156 160.162 139.882 160.268 139.625C160.374 139.37 160.53 139.137 160.725 138.941C160.921 138.745 161.154 138.589 161.41 138.483C161.665 138.377 161.94 138.322 162.217 138.322Z" stroke="#1E223B" stroke-linecap="round" stroke-linejoin="round"/>
<path d="M237.83 145.321H160.108V148.432H237.83V145.321Z" fill="#424960"/>
<path d="M237.83 145.321H160.108V148.432H237.83V145.321Z" stroke="#1E223B" stroke-linecap="round" stroke-linejoin="round"/>
<path d="M164.448 142.988C165.091 142.988 165.613 142.466 165.613 141.822C165.613 141.178 165.091 140.655 164.448 140.655C163.804 140.655 163.282 141.178 163.282 141.822C163.282 142.466 163.804 142.988 164.448 142.988Z" fill="#F73E39"/>
<path d="M164.448 142.988C165.091 142.988 165.613 142.466 165.613 141.822C165.613 141.178 165.091 140.655 164.448 140.655C163.804 140.655 163.282 141.178 163.282 141.822C163.282 142.466 163.804 142.988 164.448 142.988Z" stroke="#1E223B" stroke-linecap="round" stroke-linejoin="round"/>
<path d="M169.215 142.988C169.859 142.988 170.381 142.466 170.381 141.822C170.381 141.178 169.859 140.655 169.215 140.655C168.571 140.655 168.049 141.178 168.049 141.822C168.049 142.466 168.571 142.988 169.215 142.988Z" fill="#383838"/>
<path d="M169.215 142.988C169.859 142.988 170.381 142.466 170.381 141.822C170.381 141.178 169.859 140.655 169.215 140.655C168.571 140.655 168.049 141.178 168.049 141.822C168.049 142.466 168.571 142.988 169.215 142.988Z" stroke="#1E223B" stroke-linecap="round" stroke-linejoin="round"/>
<path d="M173.578 142.988C174.222 142.988 174.744 142.466 174.744 141.822C174.744 141.178 174.222 140.655 173.578 140.655C172.934 140.655 172.412 141.178 172.412 141.822C172.412 142.466 172.934 142.988 173.578 142.988Z" fill="#C6C6C6"/>
<path d="M173.578 142.988C174.222 142.988 174.744 142.466 174.744 141.822C174.744 141.178 174.222 140.655 173.578 140.655C172.934 140.655 172.412 141.178 172.412 141.822C172.412 142.466 172.934 142.988 173.578 142.988Z" stroke="#1E223B" stroke-linecap="round" stroke-linejoin="round"/>
<path opacity="0.28" d="M204.215 140.655H180.121C179.477 140.655 178.956 141.178 178.956 141.822C178.956 142.466 179.477 142.988 180.121 142.988H204.215C204.859 142.988 205.381 142.466 205.381 141.822C205.381 141.178 204.859 140.655 204.215 140.655Z" fill="#8289A3"/>
<path d="M69.2243 187.072C73.6 187.072 77.1473 183.523 77.1473 179.145C77.1473 174.767 73.6 171.217 69.2243 171.217C64.8485 171.217 61.3013 174.767 61.3013 179.145C61.3013 183.523 64.8485 187.072 69.2243 187.072Z" stroke="#1E223B" stroke-linecap="round" stroke-linejoin="round"/>
<path d="M69.2243 182.543C71.0997 182.543 72.62 181.021 72.62 179.145C72.62 177.268 71.0997 175.747 69.2243 175.747C67.3489 175.747 65.8286 177.268 65.8286 179.145C65.8286 181.021 67.3489 182.543 69.2243 182.543Z" stroke="#1E223B" stroke-linecap="round" stroke-linejoin="round"/>
<path d="M81.5608 167.772L76.6596 170.604L76.667 170.616C76.3091 170.304 75.9317 170.014 75.5373 169.748L75.5505 169.752L77.0152 164.282C77.1318 163.847 77.0708 163.383 76.8454 162.993C76.6204 162.603 76.2496 162.318 75.8148 162.202L71.9881 161.176C71.5532 161.059 71.09 161.12 70.6999 161.346C70.3101 161.571 70.0256 161.942 69.909 162.377L68.4444 167.847H68.4525C67.9827 167.879 67.5156 167.94 67.0535 168.031L67.0597 168.027L64.2303 163.123C64.1187 162.93 63.9703 162.761 63.7935 162.625C63.6166 162.489 63.415 162.389 63.1993 162.332C62.984 162.274 62.7594 162.259 62.5382 162.288C62.3171 162.317 62.1042 162.39 61.911 162.501L58.4804 164.484C58.2872 164.596 58.1178 164.744 57.9822 164.921C57.8465 165.098 57.7467 165.3 57.6892 165.516C57.6312 165.731 57.6165 165.956 57.6456 166.177C57.6748 166.398 57.7471 166.611 57.8586 166.805L60.6881 171.708L60.6943 171.705C60.3846 172.06 60.0978 172.435 59.8347 172.826L59.837 172.819L54.3704 171.353C53.9356 171.236 53.4719 171.297 53.0822 171.523C52.6924 171.748 52.4079 172.119 52.2913 172.554L51.2658 176.383C51.1492 176.818 51.2106 177.282 51.4356 177.672C51.6606 178.062 52.0317 178.347 52.4666 178.463L57.9328 179.929L57.9363 179.916C57.9686 180.39 58.0307 180.862 58.1225 181.328L58.1155 181.316L53.2143 184.147C52.8245 184.372 52.5397 184.743 52.4231 185.178C52.3065 185.614 52.3675 186.077 52.5925 186.467L54.5744 189.9C54.686 190.093 54.8344 190.263 55.0112 190.399C55.1881 190.535 55.3897 190.634 55.6054 190.692C55.8207 190.75 56.0453 190.764 56.2664 190.735C56.4876 190.706 56.7005 190.634 56.8937 190.522L61.7944 187.691L61.7836 187.672C62.1457 187.989 62.5281 188.282 62.9276 188.549L62.9039 188.543L61.4393 194.012C61.3227 194.447 61.3837 194.911 61.6087 195.301C61.8341 195.692 62.2048 195.976 62.6397 196.093L66.4663 197.119C66.9012 197.235 67.3644 197.174 67.7546 196.949C68.1444 196.724 68.4288 196.353 68.5454 195.918L70.0101 190.448L69.9813 190.44C70.4651 190.408 70.9462 190.345 71.4215 190.251L71.3963 190.266L74.2261 195.169C74.3377 195.362 74.4861 195.532 74.6629 195.668C74.8397 195.804 75.0414 195.903 75.2571 195.961C75.4724 196.019 75.697 196.034 75.9181 196.004C76.1393 195.975 76.3522 195.903 76.5454 195.791L79.976 193.808C80.3658 193.583 80.6506 193.212 80.7672 192.777C80.8838 192.342 80.8228 191.878 80.5978 191.488L77.7683 186.584L77.7431 186.598C78.0625 186.234 78.3578 185.848 78.6271 185.445L78.6194 185.474L84.0856 186.94C84.3009 186.997 84.5255 187.012 84.7466 186.983C84.9677 186.954 85.1811 186.882 85.3742 186.77C85.567 186.658 85.7364 186.51 85.872 186.333C86.0076 186.156 86.1075 185.954 86.165 185.738L87.1902 181.91C87.2481 181.695 87.2629 181.47 87.2337 181.249C87.2046 181.027 87.1323 180.814 87.0208 180.621C86.9092 180.428 86.7608 180.258 86.584 180.122C86.4071 179.987 86.2051 179.887 85.9898 179.829L80.5201 178.366L80.5135 178.389C80.4816 177.909 80.4194 177.432 80.3265 176.96L80.3374 176.979L85.2386 174.148C85.6284 173.923 85.9132 173.551 86.0298 173.116C86.1464 172.681 86.0854 172.217 85.8604 171.827L83.8784 168.394C83.6534 168.004 83.2827 167.72 82.8482 167.604C82.4138 167.487 81.9505 167.548 81.5608 167.772Z" stroke="#1E223B" stroke-linecap="round" stroke-linejoin="round"/>
<g opacity="0.32">
<path opacity="0.32" d="M175.629 164.481C177.287 164.481 178.63 163.137 178.63 161.479C178.63 159.822 177.287 158.478 175.629 158.478C173.972 158.478 172.629 159.822 172.629 161.479C172.629 163.137 173.972 164.481 175.629 164.481Z" stroke="#1E223B" stroke-linecap="round" stroke-linejoin="round"/>
<path opacity="0.32" d="M175.63 162.766C176.34 162.766 176.916 162.19 176.916 161.479C176.916 160.769 176.34 160.193 175.63 160.193C174.919 160.193 174.344 160.769 174.344 161.479C174.344 162.19 174.919 162.766 175.63 162.766Z" stroke="#1E223B" stroke-linecap="round" stroke-linejoin="round"/>
<path opacity="0.32" d="M181.976 161.74L179.906 161.185V161.19C179.894 161.011 179.871 160.832 179.836 160.655L179.839 160.659L181.695 159.587C181.842 159.501 181.949 159.361 181.993 159.196C182.037 159.031 182.013 158.856 181.928 158.709L181.178 157.409C181.136 157.336 181.08 157.271 181.013 157.22C180.946 157.169 180.869 157.131 180.788 157.109C180.706 157.087 180.621 157.082 180.537 157.093C180.454 157.104 180.373 157.131 180.3 157.173L178.444 158.246V158.248C178.31 158.131 178.168 158.022 178.02 157.922H178.022L178.577 155.851C178.621 155.686 178.598 155.51 178.513 155.363C178.428 155.215 178.287 155.107 178.123 155.063L176.673 154.674C176.509 154.63 176.333 154.653 176.186 154.739C176.038 154.824 175.93 154.965 175.886 155.129L175.332 157.2H175.334C175.156 157.212 174.979 157.236 174.804 157.27H174.807L173.735 155.414C173.65 155.266 173.509 155.158 173.345 155.114C173.18 155.07 173.005 155.092 172.857 155.178L171.558 155.928C171.41 156.014 171.302 156.154 171.259 156.319C171.214 156.484 171.238 156.659 171.323 156.807L172.394 158.664L172.398 158.662C172.28 158.797 172.171 158.94 172.07 159.089V159.084L170.001 158.529C169.919 158.507 169.834 158.501 169.75 158.512C169.666 158.524 169.586 158.551 169.513 158.593C169.439 158.636 169.376 158.692 169.324 158.759C169.273 158.826 169.235 158.902 169.213 158.984L168.825 160.433C168.78 160.598 168.804 160.774 168.889 160.921C168.974 161.069 169.115 161.177 169.279 161.222L171.349 161.777L171.351 161.768C171.364 161.95 171.388 162.131 171.423 162.31L171.418 162.302L169.562 163.374C169.489 163.416 169.425 163.472 169.374 163.539C169.322 163.606 169.284 163.683 169.263 163.764C169.241 163.846 169.235 163.931 169.246 164.015C169.258 164.099 169.285 164.179 169.327 164.253L170.077 165.552C170.12 165.625 170.176 165.689 170.242 165.741C170.31 165.792 170.386 165.83 170.467 165.852C170.549 165.874 170.634 165.879 170.718 165.868C170.802 165.857 170.882 165.83 170.955 165.788L172.811 164.716L172.806 164.706C172.944 164.827 173.089 164.938 173.242 165.041L173.231 165.038L172.677 167.109C172.655 167.191 172.649 167.276 172.66 167.36C172.671 167.443 172.699 167.524 172.741 167.597C172.783 167.67 172.839 167.735 172.906 167.786C172.973 167.837 173.05 167.875 173.131 167.897L174.58 168.286C174.745 168.33 174.92 168.307 175.068 168.221C175.215 168.136 175.323 167.996 175.367 167.831L175.924 165.76L175.914 165.757C176.096 165.745 176.278 165.72 176.458 165.685L176.448 165.691L177.519 167.548C177.605 167.695 177.745 167.803 177.91 167.847C178.074 167.891 178.25 167.868 178.398 167.783L179.697 167.033C179.845 166.947 179.952 166.807 179.996 166.642C180.04 166.477 180.017 166.302 179.932 166.154L178.861 164.297L178.853 164.302C178.973 164.164 179.084 164.02 179.185 163.869V163.877L181.255 164.432C181.42 164.476 181.595 164.452 181.743 164.367C181.89 164.282 181.998 164.141 182.042 163.977L182.431 162.527C182.475 162.362 182.452 162.187 182.367 162.039C182.281 161.891 182.141 161.784 181.976 161.74Z" stroke="#1E223B" stroke-linecap="round" stroke-linejoin="round"/>
</g>
<g opacity="0.49">
<path opacity="0.49" d="M323.391 105.267C327.489 105.267 330.812 101.943 330.812 97.8418C330.812 93.7412 327.489 90.4166 323.391 90.4166C319.293 90.4166 315.97 93.7412 315.97 97.8418C315.97 101.943 319.293 105.267 323.391 105.267Z" fill="white"/>
<path opacity="0.49" d="M323.391 101.024C325.148 101.024 326.572 99.5993 326.572 97.8418C326.572 96.0843 325.148 94.6596 323.391 94.6596C321.635 94.6596 320.211 96.0843 320.211 97.8418C320.211 99.5993 321.635 101.024 323.391 101.024Z" fill="white"/>
<path opacity="0.49" d="M334.946 87.1905L330.356 89.8423L330.363 89.854C330.027 89.5608 329.674 89.2894 329.304 89.0413L329.317 89.0448L330.689 83.9216C330.798 83.5137 330.741 83.0797 330.53 82.7142C330.319 82.3487 329.972 82.0824 329.564 81.9731L325.98 81.0123C325.779 80.9579 325.568 80.9443 325.361 80.9715C325.154 80.9987 324.954 81.0664 324.774 81.171C324.592 81.2756 324.434 81.4144 324.307 81.5804C324.18 81.746 324.086 81.9354 324.032 82.1372L322.661 87.2601L322.668 87.2624C322.228 87.292 321.79 87.3495 321.357 87.4347L321.362 87.4312L318.712 82.8383C318.501 82.4724 318.154 82.2056 317.747 82.0964C317.339 81.9871 316.905 82.0439 316.54 82.255L313.326 84.1113C313.145 84.2155 312.987 84.3547 312.86 84.5204C312.732 84.686 312.639 84.8754 312.585 85.0772C312.531 85.279 312.517 85.4893 312.544 85.6966C312.571 85.9038 312.639 86.1037 312.743 86.2849L315.394 90.8778L315.399 90.8743C315.109 91.2068 314.84 91.5575 314.594 91.9242V91.9168L309.474 90.5438C309.067 90.4345 308.633 90.4917 308.268 90.7028C307.902 90.9136 307.636 91.2612 307.527 91.6691L306.566 95.2553C306.457 95.6628 306.515 96.0971 306.725 96.4622C306.936 96.8277 307.284 97.0945 307.691 97.2037L312.811 98.5763L312.814 98.5643C312.844 99.0079 312.903 99.4496 312.989 99.8863L312.982 99.8746L308.391 102.526C308.21 102.631 308.052 102.769 307.925 102.936C307.797 103.101 307.704 103.29 307.65 103.492C307.596 103.694 307.582 103.905 307.609 104.112C307.636 104.319 307.704 104.518 307.808 104.7L309.664 107.915C309.874 108.28 310.222 108.547 310.629 108.656C311.037 108.766 311.471 108.709 311.836 108.498L316.426 105.846L316.416 105.828C316.755 106.125 317.113 106.399 317.487 106.65L317.465 106.644L316.094 111.767C316.04 111.969 316.026 112.179 316.053 112.387C316.08 112.593 316.148 112.793 316.252 112.974C316.357 113.155 316.496 113.314 316.661 113.441C316.827 113.568 317.016 113.662 317.218 113.716L320.802 114.676C321.004 114.73 321.214 114.744 321.421 114.717C321.628 114.69 321.828 114.622 322.009 114.517C322.19 114.413 322.348 114.274 322.475 114.108C322.602 113.942 322.696 113.753 322.75 113.551L324.121 108.429L324.095 108.421C324.547 108.391 324.998 108.332 325.443 108.244L325.42 108.257L328.07 112.85C328.174 113.031 328.313 113.19 328.479 113.317C328.645 113.445 328.834 113.538 329.035 113.592C329.237 113.646 329.448 113.66 329.655 113.633C329.862 113.606 330.061 113.538 330.243 113.434L333.456 111.577C333.637 111.473 333.795 111.334 333.922 111.168C334.05 111.002 334.143 110.813 334.197 110.611C334.251 110.409 334.265 110.199 334.238 109.992C334.211 109.784 334.143 109.585 334.038 109.404L331.388 104.811L331.365 104.824C331.664 104.482 331.94 104.122 332.193 103.744L332.186 103.771L337.306 105.144C337.713 105.253 338.147 105.196 338.512 104.985C338.877 104.774 339.144 104.426 339.253 104.019L340.213 100.433C340.323 100.025 340.265 99.5908 340.055 99.2253C339.844 98.8598 339.496 98.5934 339.089 98.4842L333.969 97.1116L333.963 97.1337C333.934 96.6839 333.875 96.2367 333.788 95.7946L333.798 95.8121L338.389 93.1603C338.57 93.0557 338.728 92.9168 338.855 92.7512C338.982 92.5852 339.076 92.3962 339.13 92.1944C339.184 91.9926 339.198 91.7818 339.171 91.575C339.144 91.3677 339.076 91.1679 338.971 90.9871L337.121 87.773C337.016 87.5918 336.877 87.4327 336.711 87.3056C336.545 87.1781 336.356 87.0847 336.154 87.0307C335.952 86.9766 335.741 86.9626 335.534 86.9902C335.327 87.0175 335.127 87.0855 334.946 87.1905Z" fill="white"/>
</g>
<path d="M323.394 105.267C327.492 105.267 330.815 101.943 330.815 97.8418C330.815 93.7411 327.492 90.4166 323.394 90.4166C319.295 90.4166 315.973 93.7411 315.973 97.8418C315.973 101.943 319.295 105.267 323.394 105.267Z" stroke="#1E223B" stroke-linecap="round" stroke-linejoin="round"/>
<path d="M323.394 101.024C325.15 101.024 326.574 99.5993 326.574 97.8418C326.574 96.0842 325.15 94.6595 323.394 94.6595C321.637 94.6595 320.213 96.0842 320.213 97.8418C320.213 99.5993 321.637 101.024 323.394 101.024Z" stroke="#1E223B" stroke-linecap="round" stroke-linejoin="round"/>
<path d="M339.092 98.4853L333.972 97.1127L333.968 97.1255C333.938 96.6815 333.88 96.2402 333.794 95.8035L333.801 95.8144L338.391 93.1625C338.572 93.0579 338.731 92.9191 338.858 92.7535C338.985 92.5878 339.079 92.3985 339.133 92.1967C339.187 91.9949 339.201 91.7845 339.174 91.5773C339.146 91.37 339.079 91.1702 338.974 90.9894L337.12 87.7729C336.909 87.4074 336.562 87.1403 336.155 87.031C335.747 86.9218 335.313 86.9785 334.948 87.1897L330.357 89.8415L330.361 89.8485C330.029 89.5577 329.678 89.2882 329.312 89.0421H329.318L330.69 83.9188C330.799 83.5109 330.742 83.077 330.531 82.7115C330.32 82.346 329.973 82.0796 329.566 81.9704L325.982 81.0095C325.78 80.9555 325.57 80.9415 325.363 80.9687C325.156 80.9959 324.956 81.064 324.775 81.1682C324.594 81.2728 324.435 81.412 324.308 81.5776C324.181 81.7433 324.088 81.9326 324.034 82.1344L322.662 87.2573H322.669C322.228 87.2873 321.79 87.3452 321.357 87.4304L321.364 87.4265L318.714 82.8336C318.503 82.4681 318.156 82.2009 317.748 82.0917C317.341 81.9824 316.907 82.0396 316.541 82.2503L313.328 84.1066C313.147 84.2108 312.988 84.35 312.861 84.5157C312.734 84.6813 312.64 84.8707 312.586 85.0725C312.532 85.2743 312.518 85.485 312.546 85.6919C312.573 85.8991 312.64 86.099 312.745 86.2802L315.395 90.8731L315.406 90.8669C315.113 91.2024 314.842 91.5559 314.594 91.9257L314.598 91.9128L309.478 90.5399C309.071 90.4306 308.636 90.4878 308.271 90.6989C307.906 90.91 307.639 91.2573 307.53 91.6651L306.57 95.251C306.461 95.6585 306.518 96.0928 306.729 96.4583C306.939 96.8238 307.287 97.0905 307.694 97.1998L312.814 98.5724L312.82 98.5529C312.85 99.0024 312.909 99.4496 312.997 99.8917L312.985 99.8719L308.395 102.524C308.214 102.628 308.055 102.767 307.928 102.933C307.801 103.098 307.707 103.287 307.653 103.489C307.599 103.691 307.585 103.902 307.612 104.109C307.64 104.316 307.707 104.516 307.812 104.697L309.667 107.912C309.878 108.278 310.225 108.544 310.632 108.654C311.04 108.763 311.474 108.706 311.839 108.495L316.43 105.844L316.416 105.819C316.758 106.118 317.118 106.395 317.495 106.648L317.469 106.641L316.097 111.764C316.043 111.966 316.029 112.176 316.056 112.383C316.083 112.591 316.151 112.79 316.256 112.971C316.36 113.152 316.499 113.311 316.665 113.438C316.83 113.565 317.02 113.659 317.221 113.713L320.805 114.674C321.007 114.728 321.217 114.742 321.425 114.714C321.632 114.687 321.831 114.619 322.012 114.515C322.193 114.41 322.351 114.271 322.478 114.106C322.606 113.939 322.699 113.75 322.753 113.549L324.125 108.426L324.099 108.419C324.552 108.388 325.002 108.329 325.447 108.241L325.423 108.255L328.074 112.848C328.178 113.028 328.317 113.187 328.482 113.315C328.648 113.442 328.837 113.535 329.039 113.59C329.241 113.644 329.451 113.658 329.658 113.63C329.866 113.603 330.065 113.535 330.246 113.431L333.459 111.575C333.64 111.47 333.799 111.331 333.926 111.166C334.053 110.999 334.146 110.811 334.201 110.609C334.255 110.407 334.269 110.196 334.241 109.989C334.214 109.782 334.146 109.582 334.042 109.401L331.392 104.808L331.372 104.82C331.669 104.481 331.943 104.123 332.194 103.749L332.189 103.768L337.309 105.141C337.716 105.25 338.15 105.193 338.516 104.982C338.881 104.771 339.148 104.424 339.257 104.016L340.217 100.43C340.325 100.023 340.267 99.5896 340.056 99.2248C339.845 98.8605 339.498 98.5942 339.092 98.4853Z" stroke="#1E223B" stroke-linecap="round" stroke-linejoin="round"/>
<path d="M228.297 98.4868H218.116L207.491 105.574V98.4868H199.965C199.026 98.4868 198.125 98.1136 197.461 97.4491C196.797 96.7845 196.424 95.8832 196.424 94.9434V75.4539C196.424 74.5145 196.797 73.6132 197.461 72.9486C198.125 72.2841 199.026 71.9105 199.965 71.9105H228.297C228.763 71.9105 229.223 72.0022 229.653 72.1803C230.082 72.3584 230.473 72.6193 230.802 72.9483C231.131 73.2772 231.391 73.668 231.569 74.098C231.747 74.5281 231.839 74.9889 231.839 75.4539V94.9434C231.839 95.4088 231.747 95.8696 231.569 96.2997C231.391 96.7297 231.131 97.1201 230.802 97.4494C230.473 97.7784 230.082 98.0393 229.653 98.2174C229.223 98.3955 228.763 98.4872 228.297 98.4868Z" fill="white"/>
<path d="M228.297 98.4868H218.116L207.491 105.574V98.4868H199.965C199.026 98.4868 198.125 98.1136 197.461 97.4491C196.797 96.7845 196.424 95.8832 196.424 94.9434V75.4539C196.424 74.5145 196.797 73.6132 197.461 72.9486C198.125 72.2841 199.026 71.9105 199.965 71.9105H228.297C228.763 71.9105 229.223 72.0022 229.653 72.1803C230.082 72.3584 230.473 72.6193 230.802 72.9483C231.131 73.2772 231.391 73.668 231.569 74.098C231.747 74.5281 231.839 74.9889 231.839 75.4539V94.9434C231.839 95.4088 231.747 95.8696 231.569 96.2997C231.391 96.7297 231.131 97.1201 230.802 97.4494C230.473 97.7784 230.082 98.0393 229.653 98.2174C229.223 98.3955 228.763 98.4872 228.297 98.4868Z" stroke="#1E223B" stroke-linecap="round" stroke-linejoin="round"/>
<path d="M252.583 315.721C252.583 316.739 252.282 317.733 251.717 318.579C251.151 319.426 250.349 320.085 249.409 320.474C248.469 320.864 247.436 320.966 246.438 320.767C245.44 320.568 244.524 320.078 243.805 319.359C243.086 318.639 242.597 317.722 242.398 316.724C242.2 315.727 242.302 314.692 242.691 313.752C243.08 312.812 243.739 312.008 244.585 311.443C245.43 310.877 246.424 310.576 247.441 310.576C248.117 310.576 248.785 310.709 249.409 310.968C250.033 311.226 250.6 311.605 251.078 312.083C251.555 312.561 251.934 313.128 252.192 313.752C252.451 314.377 252.583 315.046 252.583 315.721Z" fill="#DD4814"/>
<path d="M243.945 315.033C243.809 315.033 243.676 315.073 243.563 315.148C243.45 315.224 243.362 315.331 243.31 315.456C243.258 315.582 243.245 315.72 243.271 315.853C243.297 315.987 243.362 316.109 243.458 316.205C243.554 316.301 243.676 316.367 243.81 316.394C243.943 316.42 244.081 316.407 244.206 316.355C244.332 316.303 244.439 316.215 244.515 316.103C244.59 315.99 244.631 315.857 244.631 315.721C244.631 315.631 244.614 315.542 244.579 315.458C244.545 315.374 244.494 315.298 244.431 315.235C244.367 315.171 244.291 315.12 244.208 315.085C244.124 315.051 244.035 315.033 243.945 315.033ZM248.847 318.155C248.729 318.223 248.634 318.324 248.574 318.446C248.514 318.567 248.492 318.704 248.509 318.839C248.527 318.974 248.584 319.1 248.673 319.202C248.763 319.304 248.881 319.378 249.012 319.413C249.143 319.448 249.282 319.443 249.41 319.4C249.538 319.356 249.652 319.275 249.734 319.168C249.817 319.06 249.866 318.93 249.875 318.795C249.884 318.659 249.852 318.524 249.784 318.406C249.693 318.249 249.543 318.134 249.367 318.087C249.191 318.04 249.004 318.065 248.847 318.156V318.155ZM245.436 315.72C245.436 315.398 245.513 315.08 245.662 314.795C245.81 314.509 246.025 314.263 246.289 314.078L245.787 313.237C245.177 313.644 244.738 314.262 244.554 314.972C244.665 315.062 244.754 315.176 244.816 315.306C244.877 315.435 244.909 315.576 244.909 315.72C244.909 315.863 244.877 316.005 244.816 316.134C244.754 316.263 244.665 316.377 244.554 316.468C244.738 317.178 245.177 317.796 245.787 318.203L246.289 317.361C246.025 317.177 245.811 316.931 245.662 316.645C245.514 316.36 245.436 316.043 245.436 315.721V315.72ZM247.442 313.713C247.942 313.713 248.425 313.901 248.795 314.239C249.164 314.577 249.394 315.041 249.439 315.541L250.417 315.526C250.37 314.794 250.055 314.104 249.531 313.591C249.397 313.641 249.254 313.661 249.112 313.65C248.969 313.638 248.831 313.595 248.708 313.523C248.584 313.452 248.478 313.354 248.396 313.236C248.315 313.118 248.261 312.984 248.238 312.843C247.531 312.647 246.777 312.718 246.12 313.044L246.597 313.899C246.861 313.777 247.15 313.714 247.442 313.714V313.713ZM247.442 317.726C247.15 317.727 246.861 317.663 246.597 317.54L246.12 318.395C246.777 318.72 247.531 318.791 248.238 318.595C248.261 318.454 248.315 318.32 248.396 318.202C248.478 318.084 248.584 317.986 248.708 317.915C248.831 317.843 248.969 317.8 249.112 317.789C249.254 317.777 249.397 317.797 249.531 317.848C250.055 317.334 250.37 316.645 250.417 315.912L249.439 315.898C249.395 316.397 249.165 316.862 248.795 317.201C248.426 317.54 247.943 317.728 247.442 317.728V317.726ZM248.847 313.285C248.965 313.352 249.099 313.384 249.235 313.375C249.37 313.366 249.5 313.317 249.608 313.235C249.715 313.152 249.796 313.039 249.84 312.91C249.883 312.782 249.887 312.643 249.852 312.512C249.817 312.381 249.744 312.263 249.642 312.173C249.54 312.084 249.414 312.027 249.279 312.009C249.144 311.991 249.008 312.014 248.886 312.074C248.764 312.134 248.663 312.229 248.595 312.346C248.55 312.425 248.521 312.511 248.509 312.6C248.497 312.69 248.503 312.781 248.526 312.868C248.549 312.956 248.59 313.037 248.645 313.109C248.7 313.181 248.769 313.241 248.847 313.286V313.285Z" fill="white"/>
<path d="M75.0533 269.368L85.9566 263.028L85.9232 274.888L75.0195 281.228L75.0533 269.368Z" fill="#777BB4"/>
<path d="M75.0533 269.368L85.9566 263.028L85.9232 274.888L75.0195 281.228L75.0533 269.368Z" stroke="#1E223B" stroke-linecap="round" stroke-linejoin="round"/>
<path opacity="0.88" d="M64.7378 263.409L75.6411 257.068L85.9567 263.028L75.0535 269.368L64.7378 263.409Z" fill="#FF5855" stroke="#1E223B" stroke-miterlimit="10"/>
<path d="M75.0531 269.368L75.0193 281.228L64.7036 275.269L64.7374 263.409L75.0531 269.368Z" fill="#0270BB"/>
<path d="M64.7378 263.409L75.6411 257.068L85.9567 263.028L75.0535 269.368L64.7378 263.409Z" stroke="#1E223B" stroke-linecap="round" stroke-linejoin="round"/>
<path d="M75.0531 269.368L75.0193 281.228L64.7036 275.269L64.7374 263.409L75.0531 269.368Z" stroke="#1E223B" stroke-linecap="round" stroke-linejoin="round"/>
<path opacity="0.59" d="M67.0529 252.64C68.3407 252.64 69.3845 251.595 69.3845 250.307C69.3845 249.018 68.3407 247.974 67.0529 247.974C65.765 247.974 64.7212 249.018 64.7212 250.307C64.7212 251.595 65.765 252.64 67.0529 252.64Z" fill="white"/>
<path d="M67.0529 252.64C68.3407 252.64 69.3845 251.595 69.3845 250.307C69.3845 249.018 68.3407 247.974 67.0529 247.974C65.765 247.974 64.7212 249.018 64.7212 250.307C64.7212 251.595 65.765 252.64 67.0529 252.64Z" stroke="#1E223B" stroke-linecap="round" stroke-linejoin="round"/>
<path opacity="0.59" d="M75.0197 252.64C76.3075 252.64 77.3513 251.595 77.3513 250.307C77.3513 249.018 76.3075 247.974 75.0197 247.974C73.7318 247.974 72.688 249.018 72.688 250.307C72.688 251.595 73.7318 252.64 75.0197 252.64Z" fill="white"/>
<path d="M75.0197 252.64C76.3075 252.64 77.3513 251.595 77.3513 250.307C77.3513 249.018 76.3075 247.974 75.0197 247.974C73.7318 247.974 72.688 249.018 72.688 250.307C72.688 251.595 73.7318 252.64 75.0197 252.64Z" stroke="#1E223B" stroke-linecap="round" stroke-linejoin="round"/>
<path opacity="0.59" d="M82.986 252.64C84.2738 252.64 85.3176 251.595 85.3176 250.307C85.3176 249.018 84.2738 247.974 82.986 247.974C81.6981 247.974 80.6543 249.018 80.6543 250.307C80.6543 251.595 81.6981 252.64 82.986 252.64Z" fill="white"/>
<path opacity="0.32" d="M348.682 217.937C357.159 217.937 364.032 211.061 364.032 202.578C364.032 194.096 357.159 187.219 348.682 187.219C340.204 187.219 333.332 194.096 333.332 202.578C333.332 211.061 340.204 217.937 348.682 217.937Z" fill="white"/>
<path d="M82.986 252.64C84.2738 252.64 85.3176 251.595 85.3176 250.307C85.3176 249.018 84.2738 247.974 82.986 247.974C81.6981 247.974 80.6543 249.018 80.6543 250.307C80.6543 251.595 81.6981 252.64 82.986 252.64Z" stroke="#1E223B" stroke-linecap="round" stroke-linejoin="round"/>
<path opacity="0.12" d="M348.892 202.745L340.6 197.924L340.625 206.944L348.918 211.765L348.892 202.745Z" fill="#0270BB"/>
<path d="M348.892 202.745L340.6 197.924L340.625 206.944L348.918 211.765L348.892 202.745Z" stroke="#1E223B" stroke-linecap="round" stroke-linejoin="round"/>
<path opacity="0.47" d="M356.738 198.213L348.445 193.391L340.6 197.924L348.892 202.745L356.738 198.213Z" fill="#0270BB"/>
<path d="M356.738 198.213L348.445 193.391L340.6 197.924L348.892 202.745L356.738 198.213Z" stroke="#1E223B" stroke-linecap="round" stroke-linejoin="round"/>
<path d="M348.892 202.745L348.918 211.765L356.763 207.233L356.737 198.213L348.892 202.745Z" fill="white" stroke="#1E223B" stroke-linecap="round" stroke-linejoin="round"/>
<path d="M348.892 202.745L348.918 211.765L356.763 207.233L356.737 198.213L348.892 202.745Z" stroke="#1E223B" stroke-linecap="round" stroke-linejoin="round"/>
<path d="M348.682 217.937C357.159 217.937 364.032 211.061 364.032 202.578C364.032 194.096 357.159 187.219 348.682 187.219C340.204 187.219 333.332 194.096 333.332 202.578C333.332 211.061 340.204 217.937 348.682 217.937Z" stroke="#1E223B" stroke-linecap="round" stroke-linejoin="round"/>
<path d="M310.88 106.727H276.069C273.517 106.727 271.449 108.796 271.449 111.349V125.217C271.449 127.77 273.517 129.84 276.069 129.84H310.88C313.432 129.84 315.5 127.77 315.5 125.217V111.349C315.5 108.796 313.432 106.727 310.88 106.727Z" fill="#777BB4"/>
<path d="M310.88 106.727H276.069C273.517 106.727 271.449 108.796 271.449 111.349V125.217C271.449 127.77 273.517 129.84 276.069 129.84H310.88C313.432 129.84 315.5 127.77 315.5 125.217V111.349C315.5 108.796 313.432 106.727 310.88 106.727Z" stroke="#1E223B" stroke-linecap="round" stroke-linejoin="round"/>
<path d="M340.283 212.105H313.082C311.141 212.105 309.568 213.679 309.568 215.621V226.168C309.568 228.11 311.141 229.684 313.082 229.684H340.283C342.223 229.684 343.796 228.11 343.796 226.168V215.621C343.796 213.679 342.223 212.105 340.283 212.105Z" fill="#0270BB"/>
<path d="M340.283 212.105H313.082C311.141 212.105 309.568 213.679 309.568 215.621V226.168C309.568 228.11 311.141 229.684 313.082 229.684H340.283C342.223 229.684 343.796 228.11 343.796 226.168V215.621C343.796 213.679 342.223 212.105 340.283 212.105Z" stroke="#1E223B" stroke-linecap="round" stroke-linejoin="round"/>
<path d="M314.847 220.788C314.847 218.275 316.712 216.579 319.113 216.579C319.769 216.561 320.417 216.721 320.99 217.04C321.563 217.36 322.039 217.829 322.368 218.397L321.161 219.031C320.951 218.674 320.652 218.377 320.293 218.17C319.934 217.963 319.528 217.851 319.113 217.848C317.504 217.848 316.309 219.068 316.309 220.788C316.309 222.483 317.504 223.727 319.113 223.727C319.527 223.72 319.932 223.608 320.291 223.401C320.649 223.194 320.949 222.899 321.161 222.544L322.38 223.154C322.048 223.723 321.57 224.194 320.996 224.518C320.422 224.841 319.772 225.006 319.113 224.996C316.712 224.996 314.847 223.288 314.847 220.788Z" fill="white"/>
<path d="M225.03 215.798C225.14 215.956 225.206 215.943 225.291 215.907C225.376 215.871 229.748 214.394 229.882 214.346C230.016 214.297 229.973 214.255 229.93 214.188C229.888 214.121 228.431 212.141 228.358 212.025C228.285 211.91 228.249 211.934 228.133 211.97L223.499 213.176C223.499 213.176 224.921 215.639 225.03 215.797V215.798Z" fill="#F35045"/>
<path d="M230.252 213.781V211.462L228.811 211.846C229.204 212.372 229.818 213.195 230.252 213.781Z" fill="#F35045"/>
<path d="M228.807 208.991C228.735 209.007 227.154 209.294 227.058 209.306C226.962 209.319 226.993 209.375 227.032 209.43L228.424 211.341C228.424 211.341 230.125 210.918 230.23 210.896L230.254 210.89V210.637C229.943 210.244 229.102 209.176 229.029 209.076C228.942 208.956 228.88 208.975 228.808 208.991H228.807Z" fill="#F35045"/>
<path d="M218.856 205.99C219.198 205.974 219.229 206.053 219.379 206.276L223.16 212.599L227.913 211.46C227.65 211.086 226.454 209.39 226.338 209.229C226.209 209.047 226.341 208.962 226.552 208.926C226.763 208.891 228.582 208.585 228.738 208.563C228.894 208.54 229.017 208.485 229.271 208.79C229.4 208.946 229.84 209.493 230.252 210.007V207.049C230.251 206.353 229.974 205.686 229.482 205.194C228.991 204.702 228.324 204.425 227.629 204.424H218.885C218.54 204.419 218.198 204.485 217.879 204.617C217.56 204.75 217.272 204.946 217.032 205.194C216.749 205.471 216.534 205.808 216.402 206.181C217.259 206.111 218.617 206.001 218.856 205.99Z" fill="#F35045"/>
<path d="M225.459 216.649C225.058 216.77 224.878 216.831 224.617 216.466C224.423 216.194 223.364 214.288 222.846 213.348C221.865 213.605 220.069 214.074 219.551 214.199C219.396 214.253 219.225 214.245 219.075 214.176C218.925 214.108 218.808 213.984 218.747 213.83C218.689 213.699 217.207 210.502 216.262 208.452V215.798C216.263 216.493 216.54 217.16 217.032 217.652C217.524 218.144 218.19 218.421 218.885 218.422H227.629C228.324 218.421 228.991 218.144 229.483 217.652C229.974 217.16 230.251 216.493 230.252 215.798V214.935C229.179 215.327 225.729 216.568 225.459 216.649Z" fill="#F35045"/>
<path d="M219.565 213.462C219.707 213.43 222.369 212.792 222.426 212.78C222.483 212.768 222.52 212.735 222.459 212.63L218.91 206.501C218.878 206.446 218.887 206.427 218.8 206.432C218.722 206.436 216.748 206.612 216.291 206.65C216.278 206.747 216.269 206.844 216.266 206.942C216.73 207.892 219.392 213.385 219.407 213.43C219.422 213.474 219.423 213.495 219.565 213.462Z" fill="#F35045"/>
<path opacity="0.32" d="M184.396 160.097H220.925" stroke="#1E223B" stroke-linecap="round" stroke-linejoin="round"/>
<path opacity="0.32" d="M184.396 163.208H207.713" stroke="#1E223B" stroke-linecap="round" stroke-linejoin="round"/>
<path opacity="0.15" d="M173.515 178.372H210.045" stroke="#1E223B" stroke-linecap="round" stroke-linejoin="round"/>
<path opacity="0.32" d="M173.515 181.742H196.832" stroke="#1E223B" stroke-linecap="round" stroke-linejoin="round"/>
<path opacity="0.32" d="M192.168 185.112H205.77" stroke="#1E223B" stroke-linecap="round" stroke-linejoin="round"/>
<path opacity="0.26" d="M173.515 185.112H189.837" stroke="#1E223B" stroke-linecap="round" stroke-linejoin="round"/>
<path opacity="0.15" d="M173.515 188.482H187.505" stroke="#1E223B" stroke-linecap="round" stroke-linejoin="round"/>
<path d="M175.07 194.833C174.657 194.833 174.262 194.997 173.971 195.289C173.679 195.581 173.515 195.976 173.515 196.389C173.515 196.801 173.679 197.197 173.971 197.489C174.262 197.78 174.657 197.944 175.07 197.944H206.418V194.833H175.07Z" fill="#4AD3A5" stroke="#1E223B" stroke-miterlimit="10"/>
<path d="M224.035 194.833H175.07C174.211 194.833 173.515 195.53 173.515 196.389C173.515 197.247 174.211 197.944 175.07 197.944H224.035C224.893 197.944 225.589 197.247 225.589 196.389C225.589 195.53 224.893 194.833 224.035 194.833Z" stroke="#1E223B" stroke-linecap="round" stroke-linejoin="round"/>
<path d="M251.529 235.531H145.244C144.76 235.531 144.369 235.923 144.369 236.406V239.711C144.369 240.194 144.76 240.586 145.244 240.586H251.529C252.012 240.586 252.403 240.194 252.403 239.711V236.406C252.403 235.923 252.012 235.531 251.529 235.531Z" fill="#263C72"/>
<path d="M252.403 235.531H144.369V240.586H252.403V235.531Z" stroke="#1E223B" stroke-linecap="round" stroke-linejoin="round"/>
<path d="M251.237 247.974H245.019C244.375 247.974 243.854 248.496 243.854 249.14V251.473C243.854 252.117 244.375 252.64 245.019 252.64H251.237C251.881 252.64 252.403 252.117 252.403 251.473V249.14C252.403 248.496 251.881 247.974 251.237 247.974Z" fill="#363D56"/>
<path d="M238.802 247.974H232.584C231.94 247.974 231.418 248.496 231.418 249.14V251.473C231.418 252.117 231.94 252.64 232.584 252.64H238.802C239.446 252.64 239.967 252.117 239.967 251.473V249.14C239.967 248.496 239.446 247.974 238.802 247.974Z" fill="#363D56"/>
<path d="M226.366 247.974H220.148C219.504 247.974 218.982 248.496 218.982 249.14V251.473C218.982 252.117 219.504 252.64 220.148 252.64H226.366C227.01 252.64 227.532 252.117 227.532 251.473V249.14C227.532 248.496 227.01 247.974 226.366 247.974Z" fill="#363D56"/>
<path d="M213.93 247.974H207.713C207.069 247.974 206.547 248.496 206.547 249.14V251.473C206.547 252.117 207.069 252.64 207.713 252.64H213.93C214.574 252.64 215.096 252.117 215.096 251.473V249.14C215.096 248.496 214.574 247.974 213.93 247.974Z" fill="#363D56"/>
<path d="M201.495 247.974H195.277C194.633 247.974 194.111 248.496 194.111 249.14V251.473C194.111 252.117 194.633 252.64 195.277 252.64H201.495C202.139 252.64 202.661 252.117 202.661 251.473V249.14C202.661 248.496 202.139 247.974 201.495 247.974Z" fill="#363D56"/>
<path d="M189.059 247.974H182.842C182.198 247.974 181.676 248.496 181.676 249.14V251.473C181.676 252.117 182.198 252.64 182.842 252.64H189.059C189.703 252.64 190.225 252.117 190.225 251.473V249.14C190.225 248.496 189.703 247.974 189.059 247.974Z" fill="#363D56"/>
<path d="M176.624 247.974H170.406C169.762 247.974 169.24 248.496 169.24 249.14V251.473C169.24 252.117 169.762 252.64 170.406 252.64H176.624C177.268 252.64 177.79 252.117 177.79 251.473V249.14C177.79 248.496 177.268 247.974 176.624 247.974Z" fill="#363D56"/>
<path d="M164.188 247.974H157.971C157.327 247.974 156.805 248.496 156.805 249.14V251.473C156.805 252.117 157.327 252.64 157.971 252.64H164.188C164.832 252.64 165.354 252.117 165.354 251.473V249.14C165.354 248.496 164.832 247.974 164.188 247.974Z" fill="#363D56"/>
<path d="M151.753 247.974H145.535C144.891 247.974 144.369 248.496 144.369 249.14V251.473C144.369 252.117 144.891 252.64 145.535 252.64H151.753C152.397 252.64 152.919 252.117 152.919 251.473V249.14C152.919 248.496 152.397 247.974 151.753 247.974Z" fill="#363D56"/>
<path d="M226.366 257.88H220.148C219.504 257.88 218.982 258.402 218.982 259.046V265.268C218.982 265.912 219.504 266.434 220.148 266.434H226.366C227.01 266.434 227.532 265.912 227.532 265.268V259.046C227.532 258.402 227.01 257.88 226.366 257.88Z" fill="#363D56"/>
<path d="M213.93 257.88H207.713C207.069 257.88 206.547 258.402 206.547 259.046V265.268C206.547 265.912 207.069 266.434 207.713 266.434H213.93C214.574 266.434 215.096 265.912 215.096 265.268V259.046C215.096 258.402 214.574 257.88 213.93 257.88Z" fill="#363D56"/>
<path d="M201.495 257.88H195.277C194.633 257.88 194.111 258.402 194.111 259.046V265.268C194.111 265.912 194.633 266.434 195.277 266.434H201.495C202.139 266.434 202.661 265.912 202.661 265.268V259.046C202.661 258.402 202.139 257.88 201.495 257.88Z" fill="#363D56"/>
<path d="M189.059 257.88H182.842C182.198 257.88 181.676 258.402 181.676 259.046V265.268C181.676 265.912 182.198 266.434 182.842 266.434H189.059C189.703 266.434 190.225 265.912 190.225 265.268V259.046C190.225 258.402 189.703 257.88 189.059 257.88Z" fill="#363D56"/>
<path d="M176.624 257.88H170.406C169.762 257.88 169.24 258.402 169.24 259.046V265.268C169.24 265.912 169.762 266.434 170.406 266.434H176.624C177.268 266.434 177.79 265.912 177.79 265.268V259.046C177.79 258.402 177.268 257.88 176.624 257.88Z" fill="#363D56"/>
<path d="M164.188 257.88H157.971C157.327 257.88 156.805 258.402 156.805 259.046V265.268C156.805 265.912 157.327 266.434 157.971 266.434H164.188C164.832 266.434 165.354 265.912 165.354 265.268V259.046C165.354 258.402 164.832 257.88 164.188 257.88Z" fill="#363D56"/>
<path d="M151.753 257.88H145.535C144.891 257.88 144.369 258.402 144.369 259.046V265.268C144.369 265.912 144.891 266.434 145.535 266.434H151.753C152.397 266.434 152.919 265.912 152.919 265.268V259.046C152.919 258.402 152.397 257.88 151.753 257.88Z" fill="#363D56"/>
<path d="M251.237 257.88H245.019C244.375 257.88 243.854 258.402 243.854 259.046V277.521C243.854 278.165 244.375 278.687 245.019 278.687H251.237C251.881 278.687 252.403 278.165 252.403 277.521V259.046C252.403 258.402 251.881 257.88 251.237 257.88Z" fill="#363D56"/>
<path d="M238.802 257.88H232.584C232.274 257.88 231.978 258.003 231.76 258.222C231.541 258.44 231.418 258.737 231.418 259.046V268.966C231.418 269.276 231.295 269.572 231.076 269.791C230.858 270.01 230.561 270.133 230.252 270.133H220.148C219.839 270.133 219.542 270.256 219.324 270.475C219.105 270.693 218.982 270.99 218.982 271.299V277.521C218.982 277.83 219.105 278.127 219.324 278.345C219.542 278.564 219.839 278.687 220.148 278.687H238.802C239.111 278.687 239.407 278.564 239.626 278.345C239.845 278.127 239.967 277.83 239.967 277.521V259.046C239.967 258.737 239.845 258.44 239.626 258.222C239.407 258.003 239.111 257.88 238.802 257.88Z" fill="#363D56"/>
<path d="M213.93 270.133H207.713C207.069 270.133 206.547 270.655 206.547 271.299V277.521C206.547 278.165 207.069 278.687 207.713 278.687H213.93C214.574 278.687 215.096 278.165 215.096 277.521V271.299C215.096 270.655 214.574 270.133 213.93 270.133Z" fill="#363D56"/>
<path d="M201.495 270.133H195.277C194.633 270.133 194.111 270.655 194.111 271.299V277.521C194.111 278.165 194.633 278.687 195.277 278.687H201.495C202.139 278.687 202.661 278.165 202.661 277.521V271.299C202.661 270.655 202.139 270.133 201.495 270.133Z" fill="#363D56"/>
<path d="M189.059 270.133H182.842C182.198 270.133 181.676 270.655 181.676 271.299V277.521C181.676 278.165 182.198 278.687 182.842 278.687H189.059C189.703 278.687 190.225 278.165 190.225 277.521V271.299C190.225 270.655 189.703 270.133 189.059 270.133Z" fill="#363D56"/>
<path d="M176.624 270.133H170.406C169.762 270.133 169.24 270.655 169.24 271.299V277.521C169.24 278.165 169.762 278.687 170.406 278.687H176.624C177.268 278.687 177.79 278.165 177.79 277.521V271.299C177.79 270.655 177.268 270.133 176.624 270.133Z" fill="#363D56"/>
<path d="M164.188 270.133H145.535C144.891 270.133 144.369 270.655 144.369 271.299V277.521C144.369 278.165 144.891 278.687 145.535 278.687H164.188C164.832 278.687 165.354 278.165 165.354 277.521V271.299C165.354 270.655 164.832 270.133 164.188 270.133Z" fill="#363D56"/>
<path d="M251.237 282.385H245.019C244.375 282.385 243.854 282.907 243.854 283.552V289.773C243.854 290.417 244.375 290.94 245.019 290.94H251.237C251.881 290.94 252.403 290.417 252.403 289.773V283.552C252.403 282.907 251.881 282.385 251.237 282.385Z" fill="#363D56"/>
<path d="M238.802 282.385H232.584C231.94 282.385 231.418 282.907 231.418 283.552V289.773C231.418 290.417 231.94 290.94 232.584 290.94H238.802C239.446 290.94 239.967 290.417 239.967 289.773V283.552C239.967 282.907 239.446 282.385 238.802 282.385Z" fill="#363D56"/>
<path d="M226.366 282.385H220.148C219.504 282.385 218.982 282.907 218.982 283.552V289.773C218.982 290.417 219.504 290.94 220.148 290.94H226.366C227.01 290.94 227.532 290.417 227.532 289.773V283.552C227.532 282.907 227.01 282.385 226.366 282.385Z" fill="#363D56"/>
<path d="M213.931 282.385H182.842C182.198 282.385 181.676 282.907 181.676 283.552V289.773C181.676 290.417 182.198 290.94 182.842 290.94H213.931C214.574 290.94 215.096 290.417 215.096 289.773V283.552C215.096 282.907 214.574 282.385 213.931 282.385Z" fill="#363D56"/>
<path d="M176.624 282.385H170.406C169.762 282.385 169.24 282.907 169.24 283.552V289.773C169.24 290.417 169.762 290.94 170.406 290.94H176.624C177.268 290.94 177.79 290.417 177.79 289.773V283.552C177.79 282.907 177.268 282.385 176.624 282.385Z" fill="#363D56"/>
<path d="M164.188 282.385H157.971C157.327 282.385 156.805 282.907 156.805 283.552V289.773C156.805 290.417 157.327 290.94 157.971 290.94H164.188C164.832 290.94 165.354 290.417 165.354 289.773V283.552C165.354 282.907 164.832 282.385 164.188 282.385Z" fill="#363D56"/>
<path d="M151.753 282.385H145.535C144.891 282.385 144.369 282.907 144.369 283.552V289.773C144.369 290.417 144.891 290.94 145.535 290.94H151.753C152.397 290.94 152.919 290.417 152.919 289.773V283.552C152.919 282.907 152.397 282.385 151.753 282.385Z" fill="#363D56"/>
<path d="M251.237 247.974H245.019C244.375 247.974 243.854 248.496 243.854 249.14V251.473C243.854 252.117 244.375 252.64 245.019 252.64H251.237C251.881 252.64 252.403 252.117 252.403 251.473V249.14C252.403 248.496 251.881 247.974 251.237 247.974Z" stroke="#1E223B" stroke-linecap="round" stroke-linejoin="round"/>
<path d="M238.802 247.974H232.584C231.94 247.974 231.418 248.496 231.418 249.14V251.473C231.418 252.117 231.94 252.64 232.584 252.64H238.802C239.446 252.64 239.967 252.117 239.967 251.473V249.14C239.967 248.496 239.446 247.974 238.802 247.974Z" stroke="#1E223B" stroke-linecap="round" stroke-linejoin="round"/>
<path d="M226.366 247.974H220.148C219.504 247.974 218.982 248.496 218.982 249.14V251.473C218.982 252.117 219.504 252.64 220.148 252.64H226.366C227.01 252.64 227.532 252.117 227.532 251.473V249.14C227.532 248.496 227.01 247.974 226.366 247.974Z" stroke="#1E223B" stroke-linecap="round" stroke-linejoin="round"/>
<path d="M213.93 247.974H207.713C207.069 247.974 206.547 248.496 206.547 249.14V251.473C206.547 252.117 207.069 252.64 207.713 252.64H213.93C214.574 252.64 215.096 252.117 215.096 251.473V249.14C215.096 248.496 214.574 247.974 213.93 247.974Z" stroke="#1E223B" stroke-linecap="round" stroke-linejoin="round"/>
<path d="M201.495 247.974H195.277C194.633 247.974 194.111 248.496 194.111 249.14V251.473C194.111 252.117 194.633 252.64 195.277 252.64H201.495C202.139 252.64 202.661 252.117 202.661 251.473V249.14C202.661 248.496 202.139 247.974 201.495 247.974Z" stroke="#1E223B" stroke-linecap="round" stroke-linejoin="round"/>
<path d="M189.059 247.974H182.842C182.198 247.974 181.676 248.496 181.676 249.14V251.473C181.676 252.117 182.198 252.64 182.842 252.64H189.059C189.703 252.64 190.225 252.117 190.225 251.473V249.14C190.225 248.496 189.703 247.974 189.059 247.974Z" stroke="#1E223B" stroke-linecap="round" stroke-linejoin="round"/>
<path d="M176.624 247.974H170.406C169.762 247.974 169.24 248.496 169.24 249.14V251.473C169.24 252.117 169.762 252.64 170.406 252.64H176.624C177.268 252.64 177.79 252.117 177.79 251.473V249.14C177.79 248.496 177.268 247.974 176.624 247.974Z" stroke="#1E223B" stroke-linecap="round" stroke-linejoin="round"/>
<path d="M164.188 247.974H157.971C157.327 247.974 156.805 248.496 156.805 249.14V251.473C156.805 252.117 157.327 252.64 157.971 252.64H164.188C164.832 252.64 165.354 252.117 165.354 251.473V249.14C165.354 248.496 164.832 247.974 164.188 247.974Z" stroke="#1E223B" stroke-linecap="round" stroke-linejoin="round"/>
<path d="M151.753 247.974H145.535C144.891 247.974 144.369 248.496 144.369 249.14V251.473C144.369 252.117 144.891 252.64 145.535 252.64H151.753C152.397 252.64 152.919 252.117 152.919 251.473V249.14C152.919 248.496 152.397 247.974 151.753 247.974Z" stroke="#1E223B" stroke-linecap="round" stroke-linejoin="round"/>
<path d="M226.366 257.88H220.148C219.504 257.88 218.982 258.402 218.982 259.046V265.268C218.982 265.912 219.504 266.434 220.148 266.434H226.366C227.01 266.434 227.532 265.912 227.532 265.268V259.046C227.532 258.402 227.01 257.88 226.366 257.88Z" stroke="#1E223B" stroke-linecap="round" stroke-linejoin="round"/>
<path d="M213.93 257.88H207.713C207.069 257.88 206.547 258.402 206.547 259.046V265.268C206.547 265.912 207.069 266.434 207.713 266.434H213.93C214.574 266.434 215.096 265.912 215.096 265.268V259.046C215.096 258.402 214.574 257.88 213.93 257.88Z" stroke="#1E223B" stroke-linecap="round" stroke-linejoin="round"/>
<path d="M201.495 257.88H195.277C194.633 257.88 194.111 258.402 194.111 259.046V265.268C194.111 265.912 194.633 266.434 195.277 266.434H201.495C202.139 266.434 202.661 265.912 202.661 265.268V259.046C202.661 258.402 202.139 257.88 201.495 257.88Z" stroke="#1E223B" stroke-linecap="round" stroke-linejoin="round"/>
<path d="M189.059 257.88H182.842C182.198 257.88 181.676 258.402 181.676 259.046V265.268C181.676 265.912 182.198 266.434 182.842 266.434H189.059C189.703 266.434 190.225 265.912 190.225 265.268V259.046C190.225 258.402 189.703 257.88 189.059 257.88Z" stroke="#1E223B" stroke-linecap="round" stroke-linejoin="round"/>
<path d="M176.624 257.88H170.406C169.762 257.88 169.24 258.402 169.24 259.046V265.268C169.24 265.912 169.762 266.434 170.406 266.434H176.624C177.268 266.434 177.79 265.912 177.79 265.268V259.046C177.79 258.402 177.268 257.88 176.624 257.88Z" stroke="#1E223B" stroke-linecap="round" stroke-linejoin="round"/>
<path d="M164.188 257.88H157.971C157.327 257.88 156.805 258.402 156.805 259.046V265.268C156.805 265.912 157.327 266.434 157.971 266.434H164.188C164.832 266.434 165.354 265.912 165.354 265.268V259.046C165.354 258.402 164.832 257.88 164.188 257.88Z" stroke="#1E223B" stroke-linecap="round" stroke-linejoin="round"/>
<path d="M151.753 257.88H145.535C144.891 257.88 144.369 258.402 144.369 259.046V265.268C144.369 265.912 144.891 266.434 145.535 266.434H151.753C152.397 266.434 152.919 265.912 152.919 265.268V259.046C152.919 258.402 152.397 257.88 151.753 257.88Z" stroke="#1E223B" stroke-linecap="round" stroke-linejoin="round"/>
<path d="M251.237 257.88H245.019C244.375 257.88 243.854 258.402 243.854 259.046V277.521C243.854 278.165 244.375 278.687 245.019 278.687H251.237C251.881 278.687 252.403 278.165 252.403 277.521V259.046C252.403 258.402 251.881 257.88 251.237 257.88Z" stroke="#1E223B" stroke-linecap="round" stroke-linejoin="round"/>
<path d="M238.802 257.88H232.584C232.274 257.88 231.978 258.003 231.76 258.222C231.541 258.44 231.418 258.737 231.418 259.046V268.966C231.418 269.276 231.295 269.572 231.076 269.791C230.858 270.01 230.561 270.133 230.252 270.133H220.148C219.839 270.133 219.542 270.256 219.324 270.475C219.105 270.693 218.982 270.99 218.982 271.299V277.521C218.982 277.83 219.105 278.127 219.324 278.345C219.542 278.564 219.839 278.687 220.148 278.687H238.802C239.111 278.687 239.407 278.564 239.626 278.345C239.845 278.127 239.967 277.83 239.967 277.521V259.046C239.967 258.737 239.845 258.44 239.626 258.222C239.407 258.003 239.111 257.88 238.802 257.88Z" stroke="#1E223B" stroke-linecap="round" stroke-linejoin="round"/>
<path d="M213.93 270.133H207.713C207.069 270.133 206.547 270.655 206.547 271.299V277.521C206.547 278.165 207.069 278.687 207.713 278.687H213.93C214.574 278.687 215.096 278.165 215.096 277.521V271.299C215.096 270.655 214.574 270.133 213.93 270.133Z" stroke="#1E223B" stroke-linecap="round" stroke-linejoin="round"/>
<path d="M201.495 270.133H195.277C194.633 270.133 194.111 270.655 194.111 271.299V277.521C194.111 278.165 194.633 278.687 195.277 278.687H201.495C202.139 278.687 202.661 278.165 202.661 277.521V271.299C202.661 270.655 202.139 270.133 201.495 270.133Z" stroke="#1E223B" stroke-linecap="round" stroke-linejoin="round"/>
<path d="M189.059 270.133H182.842C182.198 270.133 181.676 270.655 181.676 271.299V277.521C181.676 278.165 182.198 278.687 182.842 278.687H189.059C189.703 278.687 190.225 278.165 190.225 277.521V271.299C190.225 270.655 189.703 270.133 189.059 270.133Z" stroke="#1E223B" stroke-linecap="round" stroke-linejoin="round"/>
<path d="M176.624 270.133H170.406C169.762 270.133 169.24 270.655 169.24 271.299V277.521C169.24 278.165 169.762 278.687 170.406 278.687H176.624C177.268 278.687 177.79 278.165 177.79 277.521V271.299C177.79 270.655 177.268 270.133 176.624 270.133Z" stroke="#1E223B" stroke-linecap="round" stroke-linejoin="round"/>
<path d="M164.188 270.133H145.535C144.891 270.133 144.369 270.655 144.369 271.299V277.521C144.369 278.165 144.891 278.687 145.535 278.687H164.188C164.832 278.687 165.354 278.165 165.354 277.521V271.299C165.354 270.655 164.832 270.133 164.188 270.133Z" stroke="#1E223B" stroke-linecap="round" stroke-linejoin="round"/>
<path d="M251.237 282.385H245.019C244.375 282.385 243.854 282.907 243.854 283.552V289.773C243.854 290.417 244.375 290.94 245.019 290.94H251.237C251.881 290.94 252.403 290.417 252.403 289.773V283.552C252.403 282.907 251.881 282.385 251.237 282.385Z" stroke="#1E223B" stroke-linecap="round" stroke-linejoin="round"/>
<path d="M238.802 282.385H232.584C231.94 282.385 231.418 282.907 231.418 283.552V289.773C231.418 290.417 231.94 290.94 232.584 290.94H238.802C239.446 290.94 239.967 290.417 239.967 289.773V283.552C239.967 282.907 239.446 282.385 238.802 282.385Z" stroke="#1E223B" stroke-linecap="round" stroke-linejoin="round"/>
<path d="M226.366 282.385H220.148C219.504 282.385 218.982 282.907 218.982 283.552V289.773C218.982 290.417 219.504 290.94 220.148 290.94H226.366C227.01 290.94 227.532 290.417 227.532 289.773V283.552C227.532 282.907 227.01 282.385 226.366 282.385Z" stroke="#1E223B" stroke-linecap="round" stroke-linejoin="round"/>
<path d="M213.931 282.385H182.842C182.198 282.385 181.676 282.907 181.676 283.552V289.773C181.676 290.417 182.198 290.94 182.842 290.94H213.931C214.574 290.94 215.096 290.417 215.096 289.773V283.552C215.096 282.907 214.574 282.385 213.931 282.385Z" stroke="#1E223B" stroke-linecap="round" stroke-linejoin="round"/>
<path d="M176.624 282.385H170.406C169.762 282.385 169.24 282.907 169.24 283.552V289.773C169.24 290.417 169.762 290.94 170.406 290.94H176.624C177.268 290.94 177.79 290.417 177.79 289.773V283.552C177.79 282.907 177.268 282.385 176.624 282.385Z" stroke="#1E223B" stroke-linecap="round" stroke-linejoin="round"/>
<path d="M164.188 282.385H157.971C157.327 282.385 156.805 282.907 156.805 283.552V289.773C156.805 290.417 157.327 290.94 157.971 290.94H164.188C164.832 290.94 165.354 290.417 165.354 289.773V283.552C165.354 282.907 164.832 282.385 164.188 282.385Z" stroke="#1E223B" stroke-linecap="round" stroke-linejoin="round"/>
<path d="M151.753 282.385H145.535C144.891 282.385 144.369 282.907 144.369 283.552V289.773C144.369 290.417 144.891 290.94 145.535 290.94H151.753C152.397 290.94 152.919 290.417 152.919 289.773V283.552C152.919 282.907 152.397 282.385 151.753 282.385Z" stroke="#1E223B" stroke-linecap="round" stroke-linejoin="round"/>
<path d="M169.685 318.689H152.586V334.243H169.685V318.689Z" fill="#F2A197"/>
<path d="M169.685 318.689H152.586V334.243H169.685V318.689Z" stroke="#1E223B" stroke-linecap="round" stroke-linejoin="round"/>
<path d="M170.994 330.743H150.826V340.664H170.994V330.743Z" fill="white"/>
<path d="M170.994 330.743H150.826V340.664H170.994V330.743Z" stroke="#1E223B" stroke-linecap="round" stroke-linejoin="round"/>
<path d="M150.083 340.476H171.848C172.519 340.476 173.163 340.751 173.638 341.24C174.113 341.728 174.379 342.391 174.379 343.083V390H147.552V343.083C147.552 342.391 147.819 341.728 148.293 341.239C148.768 340.751 149.412 340.476 150.083 340.476Z" fill="#1E223B"/>
<path d="M150.083 340.476H171.848C172.519 340.476 173.163 340.751 173.638 341.24C174.113 341.728 174.379 342.391 174.379 343.083V390H147.552V343.083C147.552 342.391 147.819 341.728 148.293 341.239C148.768 340.751 149.412 340.476 150.083 340.476Z" stroke="#1E223B" stroke-linecap="round" stroke-linejoin="round"/>
<path opacity="0.2" d="M167.392 337.637C168.46 337.637 169.325 336.771 169.325 335.704C169.325 334.636 168.46 333.77 167.392 333.77C166.325 333.77 165.459 334.636 165.459 335.704C165.459 336.771 166.325 337.637 167.392 337.637Z" fill="#1E223B"/>
<path d="M167.392 337.637C168.46 337.637 169.325 336.771 169.325 335.704C169.325 334.636 168.46 333.77 167.392 333.77C166.325 333.77 165.459 334.636 165.459 335.704C165.459 336.771 166.325 337.637 167.392 337.637Z" stroke="#1E223B" stroke-linecap="round" stroke-linejoin="round"/>
<path d="M182.118 298.53L182.622 298.822C183.158 299.131 183.549 299.641 183.709 300.239C183.869 300.836 183.785 301.473 183.476 302.009L173.566 319.183L169.023 316.558L178.933 299.384C179.242 298.848 179.751 298.457 180.348 298.297C180.946 298.137 181.582 298.221 182.118 298.53Z" fill="#F2A197"/>
<path d="M182.118 298.53L182.622 298.822C183.158 299.131 183.549 299.641 183.709 300.239C183.869 300.836 183.785 301.473 183.476 302.009L173.566 319.183L169.023 316.558L178.933 299.384C179.242 298.848 179.751 298.457 180.348 298.297C180.946 298.137 181.582 298.221 182.118 298.53Z" stroke="#1E223B" stroke-linecap="round" stroke-linejoin="round"/>
<path d="M172.569 274.305H171.986C171.368 274.305 170.775 274.55 170.337 274.988C169.9 275.425 169.654 276.019 169.654 276.638V294.135C169.654 294.445 169.531 294.741 169.313 294.96C169.094 295.179 168.798 295.302 168.488 295.302C168.179 295.302 167.882 295.179 167.664 294.96C167.445 294.741 167.323 294.445 167.323 294.135V273.255C167.323 272.636 167.077 272.042 166.64 271.605C166.202 271.167 165.609 270.922 164.991 270.922H164.408C163.79 270.922 163.197 271.167 162.759 271.605C162.322 272.042 162.076 272.636 162.076 273.255V294.135C162.076 294.445 161.953 294.741 161.735 294.96C161.516 295.179 161.22 295.302 160.91 295.302C160.601 295.302 160.305 295.179 160.086 294.96C159.867 294.741 159.745 294.445 159.745 294.135V276.638C159.745 276.019 159.499 275.425 159.062 274.988C158.624 274.55 158.031 274.305 157.413 274.305H156.83C156.212 274.305 155.619 274.55 155.181 274.988C154.744 275.425 154.498 276.019 154.498 276.638V294.135C154.498 294.445 154.376 294.741 154.157 294.96C153.938 295.179 153.642 295.302 153.332 295.302C153.023 295.302 152.727 295.179 152.508 294.96C152.289 294.741 152.167 294.445 152.167 294.135V282.178C152.167 281.56 151.921 280.966 151.484 280.529C151.046 280.091 150.453 279.845 149.835 279.845H149.252C148.634 279.845 148.041 280.091 147.603 280.529C147.166 280.966 146.92 281.56 146.92 282.178V316.491C146.92 317.728 147.412 318.915 148.286 319.79C149.161 320.666 150.347 321.157 151.584 321.157H170.237C171.474 321.157 172.66 320.666 173.534 319.79C174.409 318.915 174.9 317.728 174.9 316.491V276.638C174.9 276.332 174.84 276.028 174.723 275.745C174.606 275.462 174.434 275.205 174.218 274.988C174.001 274.771 173.744 274.599 173.461 274.482C173.178 274.365 172.875 274.305 172.569 274.305Z" fill="#FDB3A6"/>
<path d="M172.569 274.305H171.986C171.368 274.305 170.775 274.55 170.337 274.988C169.9 275.425 169.654 276.019 169.654 276.638V294.135C169.654 294.445 169.531 294.741 169.313 294.96C169.094 295.179 168.798 295.302 168.488 295.302C168.179 295.302 167.883 295.179 167.664 294.96C167.445 294.741 167.323 294.445 167.323 294.135V273.255C167.323 272.636 167.077 272.042 166.64 271.605C166.202 271.167 165.609 270.922 164.991 270.922H164.408C163.79 270.922 163.197 271.167 162.759 271.605C162.322 272.042 162.076 272.636 162.076 273.255V294.135C162.076 294.445 161.953 294.741 161.735 294.96C161.516 295.179 161.22 295.302 160.91 295.302C160.601 295.302 160.305 295.179 160.086 294.96C159.867 294.741 159.745 294.445 159.745 294.135V276.638C159.745 276.019 159.499 275.425 159.062 274.988C158.624 274.55 158.031 274.305 157.413 274.305H156.83C156.212 274.305 155.619 274.55 155.181 274.988C154.744 275.425 154.498 276.019 154.498 276.638V294.135C154.498 294.445 154.376 294.741 154.157 294.96C153.938 295.179 153.642 295.302 153.332 295.302C153.023 295.302 152.727 295.179 152.508 294.96C152.289 294.741 152.167 294.445 152.167 294.135V282.178C152.167 281.56 151.921 280.966 151.484 280.529C151.046 280.091 150.453 279.845 149.835 279.845H149.252C148.634 279.845 148.041 280.091 147.603 280.529C147.166 280.966 146.92 281.56 146.92 282.178V316.491C146.92 317.728 147.412 318.915 148.286 319.79C149.161 320.666 150.347 321.157 151.584 321.157H170.237C171.474 321.157 172.66 320.666 173.534 319.79C174.409 318.915 174.9 317.728 174.9 316.491V276.638C174.9 276.332 174.84 276.028 174.723 275.745C174.606 275.462 174.434 275.205 174.218 274.988C174.001 274.771 173.744 274.599 173.461 274.482C173.178 274.365 172.875 274.305 172.569 274.305Z" stroke="#1E223B" stroke-linecap="round" stroke-linejoin="round"/>
<path d="M211.794 353.016H194.695V368.57H211.794V353.016Z" fill="#F2A197"/>
<path d="M211.794 353.016H194.695V368.57H211.794V353.016Z" stroke="#1E223B" stroke-linecap="round" stroke-linejoin="round"/>
<path d="M194.692 350.885L190.148 353.51L180.239 336.336C179.93 335.8 179.846 335.163 180.006 334.566C180.166 333.968 180.557 333.458 181.092 333.149L181.597 332.857C182.133 332.548 182.769 332.464 183.366 332.624C183.964 332.784 184.473 333.175 184.782 333.711L194.692 350.885Z" fill="#F2A197"/>
<path d="M194.692 350.885L190.148 353.51L180.239 336.336C179.93 335.8 179.846 335.163 180.006 334.566C180.166 333.968 180.557 333.458 181.092 333.149L181.597 332.857C182.133 332.548 182.769 332.464 183.366 332.624C183.964 332.784 184.473 333.175 184.782 333.711L194.692 350.885Z" stroke="#1E223B" stroke-linecap="round" stroke-linejoin="round"/>
<path d="M191.586 308.632H192.168C192.787 308.632 193.38 308.877 193.817 309.315C194.255 309.753 194.5 310.346 194.5 310.965V328.462C194.5 328.772 194.623 329.068 194.842 329.287C195.06 329.506 195.357 329.629 195.666 329.629C195.975 329.629 196.272 329.506 196.49 329.287C196.709 329.068 196.832 328.772 196.832 328.462V325.673C196.832 325.055 197.077 324.461 197.515 324.024C197.952 323.586 198.545 323.34 199.163 323.34H199.746C200.365 323.34 200.958 323.586 201.395 324.024C201.832 324.461 202.078 325.055 202.078 325.673V328.462C202.078 328.772 202.201 329.068 202.42 329.287C202.638 329.506 202.935 329.629 203.244 329.629C203.553 329.629 203.85 329.506 204.068 329.287C204.287 329.068 204.41 328.772 204.41 328.462V325.673C204.41 325.055 204.655 324.461 205.093 324.024C205.53 323.586 206.123 323.34 206.741 323.34H207.324C207.943 323.34 208.536 323.586 208.973 324.024C209.41 324.461 209.656 325.055 209.656 325.673V328.462C209.656 328.772 209.779 329.068 209.998 329.287C210.216 329.506 210.512 329.629 210.822 329.629C211.131 329.629 211.428 329.506 211.646 329.287C211.865 329.068 211.988 328.772 211.988 328.462V325.673C211.988 325.055 212.233 324.461 212.67 324.024C213.108 323.586 213.701 323.34 214.319 323.34H214.902C215.521 323.34 216.114 323.586 216.551 324.024C216.988 324.461 217.234 325.055 217.234 325.673V350.818C217.234 352.056 216.743 353.242 215.868 354.118C214.994 354.993 213.808 355.484 212.571 355.484H193.917C192.68 355.484 191.494 354.993 190.62 354.118C189.745 353.242 189.254 352.056 189.254 350.818V310.965C189.254 310.659 189.314 310.355 189.431 310.072C189.548 309.789 189.72 309.532 189.937 309.315C190.153 309.099 190.41 308.927 190.693 308.809C190.976 308.692 191.279 308.632 191.586 308.632Z" fill="#FDB3A6"/>
<path d="M191.586 308.632H192.168C192.787 308.632 193.38 308.877 193.817 309.315C194.255 309.753 194.5 310.346 194.5 310.965V328.462C194.5 328.772 194.623 329.068 194.842 329.287C195.06 329.506 195.357 329.629 195.666 329.629C195.975 329.629 196.272 329.506 196.49 329.287C196.709 329.068 196.832 328.772 196.832 328.462V325.673C196.832 325.055 197.077 324.461 197.515 324.024C197.952 323.586 198.545 323.34 199.163 323.34H199.746C200.365 323.34 200.958 323.586 201.395 324.024C201.832 324.461 202.078 325.055 202.078 325.673V328.462C202.078 328.772 202.201 329.068 202.42 329.287C202.638 329.506 202.935 329.629 203.244 329.629C203.553 329.629 203.85 329.506 204.068 329.287C204.287 329.068 204.41 328.772 204.41 328.462V325.673C204.41 325.055 204.655 324.461 205.093 324.024C205.53 323.586 206.123 323.34 206.741 323.34H207.324C207.943 323.34 208.536 323.586 208.973 324.024C209.41 324.461 209.656 325.055 209.656 325.673V328.462C209.656 328.772 209.779 329.068 209.998 329.287C210.216 329.506 210.512 329.629 210.822 329.629C211.131 329.629 211.428 329.506 211.646 329.287C211.865 329.068 211.988 328.772 211.988 328.462V325.673C211.988 325.055 212.233 324.461 212.67 324.024C213.108 323.586 213.701 323.34 214.319 323.34H214.902C215.521 323.34 216.114 323.586 216.551 324.024C216.988 324.461 217.234 325.055 217.234 325.673V350.818C217.234 352.056 216.743 353.242 215.868 354.118C214.994 354.993 213.808 355.484 212.571 355.484H193.917C192.68 355.484 191.494 354.993 190.62 354.118C189.745 353.242 189.254 352.056 189.254 350.818V310.965C189.254 310.659 189.314 310.355 189.431 310.072C189.548 309.789 189.72 309.532 189.937 309.315C190.153 309.099 190.41 308.927 190.693 308.809C190.976 308.692 191.279 308.632 191.586 308.632Z" stroke="#1E223B" stroke-linecap="round" stroke-linejoin="round"/>
<path d="M213.329 365.07H193.161V374.991H213.329V365.07Z" fill="white"/>
<path d="M213.329 365.07H193.161V374.991H213.329V365.07Z" stroke="#1E223B" stroke-linecap="round" stroke-linejoin="round"/>
<path d="M192.388 374.524H214.153C214.825 374.524 215.468 374.811 215.943 375.324C216.418 375.836 216.685 376.531 216.685 377.256V390H189.857V377.255C189.857 376.531 190.124 375.836 190.598 375.324C191.073 374.812 191.717 374.524 192.388 374.524Z" fill="#1E223B"/>
<path d="M192.405 374.739H214.084C214.752 374.739 215.393 375.005 215.866 375.478C216.339 375.951 216.605 376.592 216.605 377.261V390.06H189.885V377.261C189.885 376.592 190.151 375.951 190.623 375.478C191.096 375.005 191.737 374.739 192.405 374.739Z" stroke="#1E223B" stroke-linecap="round" stroke-linejoin="round"/>
<path d="M197.426 371.964C198.493 371.964 199.358 371.098 199.358 370.031C199.358 368.962 198.493 368.097 197.426 368.097C196.358 368.097 195.493 368.962 195.493 370.031C195.493 371.098 196.358 371.964 197.426 371.964Z" stroke="#1E223B" stroke-linecap="round" stroke-linejoin="round"/>
<path opacity="0.2" d="M197.426 371.964C198.493 371.964 199.358 371.098 199.358 370.031C199.358 368.962 198.493 368.097 197.426 368.097C196.358 368.097 195.493 368.962 195.493 370.031C195.493 371.098 196.358 371.964 197.426 371.964Z" fill="#1E223B"/>
<path d="M204.021 79.7109H225.006" stroke="#1E223B" stroke-linecap="round" stroke-linejoin="round"/>
<path d="M204.021 84.9601H220.343" stroke="#1E223B" stroke-linecap="round" stroke-linejoin="round"/>
<path d="M204.021 90.2094H213.348" stroke="#1E223B" stroke-linecap="round" stroke-linejoin="round"/>
<path d="M231.839 85.3991H233.005" stroke="#1E223B" stroke-linecap="round" stroke-linejoin="round"/>
<path d="M236.09 85.3991H244.723C248.821 85.3991 252.751 87.0279 255.649 89.9279C258.548 92.8274 260.176 96.7601 260.176 100.861C260.176 102.891 259.776 104.902 258.999 106.778C258.223 108.653 257.084 110.358 255.649 111.794C254.215 113.229 252.511 114.368 250.636 115.145C248.762 115.922 246.752 116.322 244.723 116.322H219.244C216.964 116.322 214.707 116.771 212.601 117.644C210.494 118.517 208.58 119.796 206.968 121.409C205.356 123.022 204.078 124.937 203.205 127.045C202.333 129.152 201.884 131.411 201.884 133.692V135.613" stroke="#1E223B" stroke-linecap="round" stroke-linejoin="round" stroke-dasharray="5.95 7.94"/>
<path d="M201.884 137.156V138.322" stroke="#1E223B" stroke-linecap="round" stroke-linejoin="round"/>
<path d="M87.1875 181.912H135.975" stroke="#1E223B" stroke-linecap="round" stroke-linejoin="round" stroke-dasharray="6 8"/>
<path d="M85.9365 270.133H96.1376C100.787 270.133 105.246 268.285 108.534 264.995C111.822 261.706 113.669 257.244 113.669 252.591V245.206C113.669 240.577 115.507 236.139 118.777 232.866C122.048 229.593 126.485 227.755 131.11 227.754H136.597" stroke="#1E223B" stroke-linecap="round" stroke-linejoin="round"/>
<path d="M137.682 86.6547H142.95C146.625 86.6551 150.149 88.1155 152.747 90.7152C155.345 93.315 156.805 96.8413 156.805 100.518C156.805 102.338 157.163 104.141 157.86 105.823C158.556 107.505 159.576 109.033 160.863 110.321C162.149 111.608 163.677 112.629 165.358 113.326C167.039 114.022 168.841 114.381 170.66 114.38H178.314C181.988 114.381 185.512 115.841 188.111 118.441C190.709 121.041 192.169 124.567 192.169 128.244V138.322" stroke="#1E223B" stroke-linecap="round" stroke-linejoin="round" stroke-dasharray="6 8"/>
<path d="M260.175 179.148H280.59C282.364 179.148 284.121 178.799 285.76 178.12C287.399 177.44 288.889 176.444 290.143 175.189C291.398 173.934 292.394 172.444 293.072 170.804C293.752 169.164 294.101 167.406 294.101 165.631V129.84" stroke="#1E223B" stroke-linecap="round" stroke-linejoin="round"/>
<path d="M344.759 297.554C351.307 297.554 356.615 292.242 356.615 285.69C356.615 279.138 351.307 273.827 344.759 273.827C338.211 273.827 332.902 279.138 332.902 285.69C332.902 292.242 338.211 297.554 344.759 297.554Z" stroke="#1E223B" stroke-linecap="round" stroke-linejoin="round"/>
<path d="M260.175 202.745H333.331" stroke="#1E223B" stroke-linecap="round" stroke-linejoin="round" stroke-dasharray="6 8"/>
<path d="M333.962 306.206C341.557 306.206 347.714 300.046 347.714 292.447C347.714 284.847 341.557 278.687 333.962 278.687C326.367 278.687 320.21 284.847 320.21 292.447C320.21 300.046 326.367 306.206 333.962 306.206Z" fill="white"/>
<path d="M333.962 306.206C341.557 306.206 347.714 300.046 347.714 292.447C347.714 284.847 341.557 278.687 333.962 278.687C326.367 278.687 320.21 284.847 320.21 292.447C320.21 300.046 326.367 306.206 333.962 306.206Z" stroke="#1E223B" stroke-linecap="round" stroke-linejoin="round"/>
<path d="M320.21 292.447H260.175" stroke="#1E223B" stroke-linecap="round" stroke-linejoin="round" stroke-dasharray="6 8"/>
<path d="M328.087 304.89L333.962 292.447L347.556 294.534" stroke="#1E223B" stroke-linecap="round" stroke-linejoin="round"/>
<path d="M329.569 265.62H302.369C300.428 265.62 298.855 267.194 298.855 269.136V279.683C298.855 281.625 300.428 283.199 302.369 283.199H329.569C331.51 283.199 333.083 281.625 333.083 279.683V269.136C333.083 267.194 331.51 265.62 329.569 265.62Z" fill="#F73E59"/>
<path d="M329.569 265.62H302.369C300.428 265.62 298.855 267.194 298.855 269.136V279.683C298.855 281.625 300.428 283.199 302.369 283.199H329.569C331.51 283.199 333.083 281.625 333.083 279.683V269.136C333.083 267.194 331.51 265.62 329.569 265.62Z" stroke="#1E223B" stroke-linecap="round" stroke-linejoin="round"/>
<path d="M303.294 277.484L304.124 276.34C304.461 276.708 304.871 277.002 305.327 277.203C305.784 277.404 306.277 277.508 306.776 277.509C307.981 277.509 308.447 276.918 308.447 276.352C308.447 274.591 303.571 275.686 303.571 272.605C303.571 271.209 304.775 270.139 306.625 270.139C307.199 270.119 307.771 270.214 308.308 270.417C308.845 270.62 309.337 270.927 309.755 271.321L308.925 272.416C308.602 272.102 308.22 271.854 307.802 271.688C307.384 271.522 306.936 271.44 306.486 271.448C305.631 271.448 305.079 271.875 305.079 272.491C305.079 274.063 309.956 273.095 309.956 276.214C309.956 277.61 308.963 278.817 306.713 278.817C306.082 278.842 305.453 278.736 304.864 278.507C304.276 278.278 303.741 277.929 303.294 277.484Z" fill="white"/>
<path d="M105.074 94.4356H63.6189C61.3032 94.4356 59.4258 96.3141 59.4258 98.6311V110.538C59.4258 112.855 61.3032 114.733 63.6189 114.733H105.074C107.39 114.733 109.267 112.855 109.267 110.538V98.6311C109.267 96.3141 107.39 94.4356 105.074 94.4356Z" fill="#E44D26" stroke="#1E223B" stroke-miterlimit="10"/>
<path d="M105.074 94.4356H63.6189C61.3032 94.4356 59.4258 96.3141 59.4258 98.6311V110.538C59.4258 112.855 61.3032 114.733 63.6189 114.733H105.074C107.39 114.733 109.267 112.855 109.267 110.538V98.6311C109.267 96.3141 107.39 94.4356 105.074 94.4356Z" stroke="#1E223B" stroke-linecap="round" stroke-linejoin="round"/>
<path d="M71.6987 109.184V105.157H66.9164V109.184H65.3037V99.985H66.9164V103.736H71.6987V99.985H73.3114V109.184H71.6987Z" fill="white"/>
</g>
<defs>
<clipPath id="clip0_6_13305">
<rect width="389" height="390" fill="white"/>
</clipPath>
</defs>
</svg>
