<svg width="217" height="136" viewBox="0 0 217 136" fill="none" xmlns="http://www.w3.org/2000/svg">
<g style="mix-blend-mode:multiply" opacity="0.33">
<g style="mix-blend-mode:multiply" opacity="0.33">
<path d="M210.513 50.5034H119.781C116.757 50.5034 114.306 52.9531 114.306 55.975V62.8059C114.306 65.8277 116.757 68.2772 119.781 68.2772H210.513C213.537 68.2772 215.988 65.8277 215.988 62.8059V55.975C215.988 52.9531 213.537 50.5034 210.513 50.5034Z" fill="#4E4E4E"/>
<path d="M210.513 50.5034H119.781C116.757 50.5034 114.306 52.9531 114.306 55.975V62.8059C114.306 65.8277 116.757 68.2772 119.781 68.2772H210.513C213.537 68.2772 215.988 65.8277 215.988 62.8059V55.975C215.988 52.9531 213.537 50.5034 210.513 50.5034Z" stroke="black" stroke-linecap="round" stroke-linejoin="round"/>
</g>
<g style="mix-blend-mode:multiply" opacity="0.33">
<path d="M210.513 50.5034H119.781C116.757 50.5034 114.306 52.9531 114.306 55.975V62.8059C114.306 65.8277 116.757 68.2772 119.781 68.2772H210.513C213.537 68.2772 215.988 65.8277 215.988 62.8059V55.975C215.988 52.9531 213.537 50.5034 210.513 50.5034Z" fill="#4E4E4E"/>
</g>
<g style="mix-blend-mode:multiply" opacity="0.17">
<path d="M119.781 50.5034H210.513C211.965 50.5034 213.358 51.0799 214.384 52.1061C215.411 53.1322 215.988 54.5239 215.988 55.975V63.9627C215.988 64.8487 215.636 65.6986 215.009 66.3252C214.382 66.9517 213.531 67.3039 212.645 67.3039H117.65C116.763 67.3039 115.913 66.9517 115.286 66.3252C114.659 65.6986 114.307 64.8487 114.307 63.9627V55.975C114.307 54.5239 114.884 53.1322 115.91 52.1061C116.937 51.0799 118.33 50.5034 119.782 50.5034H119.781Z" fill="#4E4E4E"/>
</g>
<g style="mix-blend-mode:multiply" opacity="0.33">
<path d="M210.513 50.5034H119.781C116.757 50.5034 114.306 52.9531 114.306 55.975V62.8059C114.306 65.8277 116.757 68.2772 119.781 68.2772H210.513C213.537 68.2772 215.988 65.8277 215.988 62.8059V55.975C215.988 52.9531 213.537 50.5034 210.513 50.5034Z" fill="#4E4E4E"/>
<path d="M210.513 50.5034H119.781C116.757 50.5034 114.306 52.9531 114.306 55.975V62.8059C114.306 65.8277 116.757 68.2772 119.781 68.2772H210.513C213.537 68.2772 215.988 65.8277 215.988 62.8059V55.975C215.988 52.9531 213.537 50.5034 210.513 50.5034Z" stroke="#46505C" stroke-linecap="round" stroke-linejoin="round"/>
</g>
<g style="mix-blend-mode:multiply" opacity="0.33">
<path d="M208.949 66.1617V52.5058H121.346V66.1617H208.949Z" fill="#4E4E4E"/>
</g>
<g style="mix-blend-mode:multiply" opacity="0.33">
<path d="M208.949 66.1617V52.5058H121.346V66.1617H208.949Z" fill="#4E4E4E"/>
<path d="M208.949 66.1617V52.5058H121.346V66.1617H208.949Z" stroke="#46505C" stroke-linecap="round" stroke-linejoin="round"/>
</g>
<g style="mix-blend-mode:multiply" opacity="0.33">
<path d="M210.513 68.2771H119.782C116.758 68.2771 114.307 70.7269 114.307 73.7487V130.027C114.307 133.049 116.758 135.499 119.782 135.499H210.513C213.537 135.499 215.988 133.049 215.988 130.027V73.7487C215.988 70.7269 213.537 68.2771 210.513 68.2771Z" fill="#4E4E4E"/>
</g>
<g style="mix-blend-mode:multiply" opacity="0.33">
<path d="M214.424 130.027V73.7486C214.424 71.59 212.673 69.8402 210.513 69.8402H119.781C117.621 69.8402 115.87 71.59 115.87 73.7486V130.027C115.87 132.186 117.621 133.935 119.781 133.935H210.513C212.673 133.935 214.424 132.186 214.424 130.027Z" fill="#4E4E4E"/>
<path d="M214.424 130.027V73.7486C214.424 71.59 212.673 69.8402 210.513 69.8402H119.781C117.621 69.8402 115.87 71.59 115.87 73.7486V130.027C115.87 132.186 117.621 133.935 119.781 133.935H210.513C212.673 133.935 214.424 132.186 214.424 130.027Z" stroke="#E6F3FF" stroke-miterlimit="10"/>
</g>
<g style="mix-blend-mode:multiply" opacity="0.33">
<path d="M158.87 132.442H171.424C171.839 132.442 172.236 132.606 172.53 132.9C172.823 133.193 172.988 133.59 172.988 134.005V135.498H157.306V134.005C157.306 133.59 157.47 133.193 157.764 132.9C158.057 132.606 158.455 132.442 158.87 132.442Z" fill="#4E4E4E"/>
</g>
<g style="mix-blend-mode:multiply" opacity="0.33">
<path d="M210.513 68.2771H119.782C116.758 68.2771 114.307 70.7269 114.307 73.7487V130.027C114.307 133.049 116.758 135.499 119.782 135.499H210.513C213.537 135.499 215.988 133.049 215.988 130.027V73.7487C215.988 70.7269 213.537 68.2771 210.513 68.2771Z" fill="#4E4E4E"/>
<path d="M210.513 68.2771H119.782C116.758 68.2771 114.307 70.7269 114.307 73.7487V130.027C114.307 133.049 116.758 135.499 119.782 135.499H210.513C213.537 135.499 215.988 133.049 215.988 130.027V73.7487C215.988 70.7269 213.537 68.2771 210.513 68.2771Z" stroke="#46505C" stroke-linecap="round" stroke-linejoin="round"/>
</g>
<g style="mix-blend-mode:multiply" opacity="0.33">
<path d="M208.948 73.5224H121.345C120.697 73.5224 120.172 74.0473 120.172 74.6947V108.306C120.172 108.953 120.697 109.478 121.345 109.478H208.948C209.596 109.478 210.121 108.953 210.121 108.306V74.6947C210.121 74.0473 209.596 73.5224 208.948 73.5224Z" fill="#4E4E4E"/>
</g>
<g style="mix-blend-mode:multiply" opacity="0.33">
<path d="M137.414 100.685H132.721C132.505 100.685 132.33 100.859 132.33 101.075V105.765C132.33 105.981 132.505 106.156 132.721 106.156H137.414C137.63 106.156 137.805 105.981 137.805 105.765V101.075C137.805 100.859 137.63 100.685 137.414 100.685Z" fill="#4E4E4E"/>
<path d="M137.414 100.685H132.721C132.505 100.685 132.33 100.859 132.33 101.075V105.765C132.33 105.981 132.505 106.156 132.721 106.156H137.414C137.63 106.156 137.805 105.981 137.805 105.765V101.075C137.805 100.859 137.63 100.685 137.414 100.685Z" stroke="#626C84" stroke-linecap="round" stroke-linejoin="round"/>
</g>
<g style="mix-blend-mode:multiply" opacity="0.33">
<path d="M128.951 100.685H124.258C124.042 100.685 123.867 100.859 123.867 101.075V105.765C123.867 105.981 124.042 106.156 124.258 106.156H128.951C129.167 106.156 129.342 105.981 129.342 105.765V101.075C129.342 100.859 129.167 100.685 128.951 100.685Z" fill="#4E4E4E"/>
<path d="M128.951 100.685H124.258C124.042 100.685 123.867 100.859 123.867 101.075V105.765C123.867 105.981 124.042 106.156 124.258 106.156H128.951C129.167 106.156 129.342 105.981 129.342 105.765V101.075C129.342 100.859 129.167 100.685 128.951 100.685Z" stroke="#626C84" stroke-linecap="round" stroke-linejoin="round"/>
</g>
<g style="mix-blend-mode:multiply" opacity="0.33">
<path d="M179.725 100.685H141.182C140.967 100.685 140.791 100.859 140.791 101.075V105.765C140.791 105.981 140.967 106.156 141.182 106.156H179.725C179.941 106.156 180.117 105.981 180.117 105.765V101.075C180.117 100.859 179.941 100.685 179.725 100.685Z" fill="#4E4E4E"/>
<path d="M179.725 100.685H141.182C140.967 100.685 140.791 100.859 140.791 101.075V105.765C140.791 105.981 140.967 106.156 141.182 106.156H179.725C179.941 106.156 180.117 105.981 180.117 105.765V101.075C180.117 100.859 179.941 100.685 179.725 100.685Z" stroke="#626C84" stroke-linecap="round" stroke-linejoin="round"/>
</g>
<g style="mix-blend-mode:multiply" opacity="0.33">
<path d="M188.189 100.685H183.496C183.28 100.685 183.105 100.859 183.105 101.075V105.765C183.105 105.981 183.28 106.156 183.496 106.156H188.189C188.405 106.156 188.58 105.981 188.58 105.765V101.075C188.58 100.859 188.405 100.685 188.189 100.685Z" fill="#4E4E4E"/>
<path d="M188.189 100.685H183.496C183.28 100.685 183.105 100.859 183.105 101.075V105.765C183.105 105.981 183.28 106.156 183.496 106.156H188.189C188.405 106.156 188.58 105.981 188.58 105.765V101.075C188.58 100.859 188.405 100.685 188.189 100.685Z" stroke="#626C84" stroke-linecap="round" stroke-linejoin="round"/>
</g>
<g style="mix-blend-mode:multiply" opacity="0.33">
<path d="M200.562 103.762H197.433C197.217 103.762 197.042 103.937 197.042 104.153V105.765C197.042 105.981 197.217 106.156 197.433 106.156H200.562C200.778 106.156 200.953 105.981 200.953 105.765V104.153C200.953 103.937 200.778 103.762 200.562 103.762Z" fill="#4E4E4E"/>
<path d="M200.562 103.762H197.433C197.217 103.762 197.042 103.937 197.042 104.153V105.765C197.042 105.981 197.217 106.156 197.433 106.156H200.562C200.778 106.156 200.953 105.981 200.953 105.765V104.153C200.953 103.937 200.778 103.762 200.562 103.762Z" stroke="#626C84" stroke-linecap="round" stroke-linejoin="round"/>
</g>
<g style="mix-blend-mode:multiply" opacity="0.33">
<path d="M200.562 100.685H197.433C197.217 100.685 197.042 100.859 197.042 101.075V102.688C197.042 102.904 197.217 103.078 197.433 103.078H200.562C200.778 103.078 200.953 102.904 200.953 102.688V101.075C200.953 100.859 200.778 100.685 200.562 100.685Z" fill="#4E4E4E"/>
<path d="M200.562 100.685H197.433C197.217 100.685 197.042 100.859 197.042 101.075V102.688C197.042 102.904 197.217 103.078 197.433 103.078H200.562C200.778 103.078 200.953 102.904 200.953 102.688V101.075C200.953 100.859 200.778 100.685 200.562 100.685Z" stroke="#626C84" stroke-linecap="round" stroke-linejoin="round"/>
</g>
<g style="mix-blend-mode:multiply" opacity="0.33">
<path d="M206.037 103.762H202.908C202.692 103.762 202.517 103.937 202.517 104.153V105.765C202.517 105.981 202.692 106.156 202.908 106.156H206.037C206.253 106.156 206.428 105.981 206.428 105.765V104.153C206.428 103.937 206.253 103.762 206.037 103.762Z" fill="#4E4E4E"/>
<path d="M206.037 103.762H202.908C202.692 103.762 202.517 103.937 202.517 104.153V105.765C202.517 105.981 202.692 106.156 202.908 106.156H206.037C206.253 106.156 206.428 105.981 206.428 105.765V104.153C206.428 103.937 206.253 103.762 206.037 103.762Z" stroke="#626C84" stroke-linecap="round" stroke-linejoin="round"/>
</g>
<g style="mix-blend-mode:multiply" opacity="0.33">
<path d="M195.086 103.762H191.958C191.742 103.762 191.567 103.937 191.567 104.153V105.765C191.567 105.981 191.742 106.156 191.958 106.156H195.086C195.303 106.156 195.478 105.981 195.478 105.765V104.153C195.478 103.937 195.303 103.762 195.086 103.762Z" fill="#4E4E4E"/>
<path d="M195.086 103.762H191.958C191.742 103.762 191.567 103.937 191.567 104.153V105.765C191.567 105.981 191.742 106.156 191.958 106.156H195.086C195.303 106.156 195.478 105.981 195.478 105.765V104.153C195.478 103.937 195.303 103.762 195.086 103.762Z" stroke="#626C84" stroke-linecap="round" stroke-linejoin="round"/>
</g>
<g style="mix-blend-mode:multiply" opacity="0.33">
<path d="M136.631 92.8989H124.258C124.042 92.8989 123.867 93.074 123.867 93.2899V97.9796C123.867 98.1955 124.042 98.3705 124.258 98.3705H136.631C136.847 98.3705 137.022 98.1955 137.022 97.9796V93.2899C137.022 93.074 136.847 92.8989 136.631 92.8989Z" fill="#4E4E4E"/>
<path d="M136.631 92.8989H124.258C124.042 92.8989 123.867 93.074 123.867 93.2899V97.9796C123.867 98.1955 124.042 98.3705 124.258 98.3705H136.631C136.847 98.3705 137.022 98.1955 137.022 97.9796V93.2899C137.022 93.074 136.847 92.8989 136.631 92.8989Z" stroke="#626C84" stroke-linecap="round" stroke-linejoin="round"/>
</g>
<g style="mix-blend-mode:multiply" opacity="0.33">
<path d="M145.164 92.8989H140.471C140.255 92.8989 140.08 93.074 140.08 93.2899V97.9796C140.08 98.1955 140.255 98.3705 140.471 98.3705H145.164C145.38 98.3705 145.555 98.1955 145.555 97.9796V93.2899C145.555 93.074 145.38 92.8989 145.164 92.8989Z" fill="#4E4E4E"/>
<path d="M145.164 92.8989H140.471C140.255 92.8989 140.08 93.074 140.08 93.2899V97.9796C140.08 98.1955 140.255 98.3705 140.471 98.3705H145.164C145.38 98.3705 145.555 98.1955 145.555 97.9796V93.2899C145.555 93.074 145.38 92.8989 145.164 92.8989Z" stroke="#626C84" stroke-linecap="round" stroke-linejoin="round"/>
</g>
<g style="mix-blend-mode:multiply" opacity="0.33">
<path d="M153.627 92.8989H148.934C148.718 92.8989 148.543 93.074 148.543 93.2899V97.9796C148.543 98.1955 148.718 98.3705 148.934 98.3705H153.627C153.843 98.3705 154.018 98.1955 154.018 97.9796V93.2899C154.018 93.074 153.843 92.8989 153.627 92.8989Z" fill="#4E4E4E"/>
<path d="M153.627 92.8989H148.934C148.718 92.8989 148.543 93.074 148.543 93.2899V97.9796C148.543 98.1955 148.718 98.3705 148.934 98.3705H153.627C153.843 98.3705 154.018 98.1955 154.018 97.9796V93.2899C154.018 93.074 153.843 92.8989 153.627 92.8989Z" stroke="#626C84" stroke-linecap="round" stroke-linejoin="round"/>
</g>
<g style="mix-blend-mode:multiply" opacity="0.33">
<path d="M162.089 92.8989H157.396C157.18 92.8989 157.005 93.074 157.005 93.2899V97.9796C157.005 98.1955 157.18 98.3705 157.396 98.3705H162.089C162.305 98.3705 162.481 98.1955 162.481 97.9796V93.2899C162.481 93.074 162.305 92.8989 162.089 92.8989Z" fill="#4E4E4E"/>
<path d="M162.089 92.8989H157.396C157.18 92.8989 157.005 93.074 157.005 93.2899V97.9796C157.005 98.1955 157.18 98.3705 157.396 98.3705H162.089C162.305 98.3705 162.481 98.1955 162.481 97.9796V93.2899C162.481 93.074 162.305 92.8989 162.089 92.8989Z" stroke="#626C84" stroke-linecap="round" stroke-linejoin="round"/>
</g>
<g style="mix-blend-mode:multiply" opacity="0.33">
<path d="M170.551 92.8989H165.858C165.642 92.8989 165.467 93.074 165.467 93.2899V97.9796C165.467 98.1955 165.642 98.3705 165.858 98.3705H170.551C170.767 98.3705 170.942 98.1955 170.942 97.9796V93.2899C170.942 93.074 170.767 92.8989 170.551 92.8989Z" fill="#4E4E4E"/>
<path d="M170.551 92.8989H165.858C165.642 92.8989 165.467 93.074 165.467 93.2899V97.9796C165.467 98.1955 165.642 98.3705 165.858 98.3705H170.551C170.767 98.3705 170.942 98.1955 170.942 97.9796V93.2899C170.942 93.074 170.767 92.8989 170.551 92.8989Z" stroke="#626C84" stroke-linecap="round" stroke-linejoin="round"/>
</g>
<g style="mix-blend-mode:multiply" opacity="0.33">
<path d="M179.014 92.8989H174.321C174.105 92.8989 173.93 93.074 173.93 93.2899V97.9796C173.93 98.1955 174.105 98.3705 174.321 98.3705H179.014C179.23 98.3705 179.405 98.1955 179.405 97.9796V93.2899C179.405 93.074 179.23 92.8989 179.014 92.8989Z" fill="#4E4E4E"/>
<path d="M179.014 92.8989H174.321C174.105 92.8989 173.93 93.074 173.93 93.2899V97.9796C173.93 98.1955 174.105 98.3705 174.321 98.3705H179.014C179.23 98.3705 179.405 98.1955 179.405 97.9796V93.2899C179.405 93.074 179.23 92.8989 179.014 92.8989Z" stroke="#626C84" stroke-linecap="round" stroke-linejoin="round"/>
</g>
<g style="mix-blend-mode:multiply" opacity="0.33">
<path d="M187.477 92.8989H182.784C182.568 92.8989 182.393 93.074 182.393 93.2899V97.9796C182.393 98.1955 182.568 98.3705 182.784 98.3705H187.477C187.693 98.3705 187.868 98.1955 187.868 97.9796V93.2899C187.868 93.074 187.693 92.8989 187.477 92.8989Z" fill="#4E4E4E"/>
<path d="M187.477 92.8989H182.784C182.568 92.8989 182.393 93.074 182.393 93.2899V97.9796C182.393 98.1955 182.568 98.3705 182.784 98.3705H187.477C187.693 98.3705 187.868 98.1955 187.868 97.9796V93.2899C187.868 93.074 187.693 92.8989 187.477 92.8989Z" stroke="#626C84" stroke-linecap="round" stroke-linejoin="round"/>
</g>
<g style="mix-blend-mode:multiply" opacity="0.33">
<path d="M206.037 92.8989H191.958C191.742 92.8989 191.567 93.074 191.567 93.2899V97.9796C191.567 98.1955 191.742 98.3705 191.958 98.3705H206.037C206.253 98.3705 206.428 98.1955 206.428 97.9796V93.2899C206.428 93.074 206.253 92.8989 206.037 92.8989Z" fill="#4E4E4E"/>
<path d="M206.037 92.8989H191.958C191.742 92.8989 191.567 93.074 191.567 93.2899V97.9796C191.567 98.1955 191.742 98.3705 191.958 98.3705H206.037C206.253 98.3705 206.428 98.1955 206.428 97.9796V93.2899C206.428 93.074 206.253 92.8989 206.037 92.8989Z" stroke="#626C84" stroke-linecap="round" stroke-linejoin="round"/>
</g>
<g style="mix-blend-mode:multiply" opacity="0.33">
<path d="M142.107 84.8952H137.414C137.198 84.8952 137.023 85.07 137.023 85.2859V89.9758C137.023 90.1917 137.198 90.3665 137.414 90.3665H142.107C142.323 90.3665 142.498 90.1917 142.498 89.9758V85.2859C142.498 85.07 142.323 84.8952 142.107 84.8952Z" fill="#4E4E4E"/>
<path d="M142.107 84.8952H137.414C137.198 84.8952 137.023 85.07 137.023 85.2859V89.9758C137.023 90.1917 137.198 90.3665 137.414 90.3665H142.107C142.323 90.3665 142.498 90.1917 142.498 89.9758V85.2859C142.498 85.07 142.323 84.8952 142.107 84.8952Z" stroke="#626C84" stroke-linecap="round" stroke-linejoin="round"/>
</g>
<g style="mix-blend-mode:multiply" opacity="0.33">
<path d="M133.644 84.8952H124.258C124.042 84.8952 123.867 85.07 123.867 85.2859V89.9758C123.867 90.1917 124.042 90.3665 124.258 90.3665H133.644C133.86 90.3665 134.035 90.1917 134.035 89.9758V85.2859C134.035 85.07 133.86 84.8952 133.644 84.8952Z" fill="#4E4E4E"/>
<path d="M133.644 84.8952H124.258C124.042 84.8952 123.867 85.07 123.867 85.2859V89.9758C123.867 90.1917 124.042 90.3665 124.258 90.3665H133.644C133.86 90.3665 134.035 90.1917 134.035 89.9758V85.2859C134.035 85.07 133.86 84.8952 133.644 84.8952Z" stroke="#626C84" stroke-linecap="round" stroke-linejoin="round"/>
</g>
<g style="mix-blend-mode:multiply" opacity="0.33">
<path d="M150.569 84.8952H145.876C145.66 84.8952 145.485 85.07 145.485 85.2859V89.9758C145.485 90.1917 145.66 90.3665 145.876 90.3665H150.569C150.785 90.3665 150.96 90.1917 150.96 89.9758V85.2859C150.96 85.07 150.785 84.8952 150.569 84.8952Z" fill="#4E4E4E"/>
<path d="M150.569 84.8952H145.876C145.66 84.8952 145.485 85.07 145.485 85.2859V89.9758C145.485 90.1917 145.66 90.3665 145.876 90.3665H150.569C150.785 90.3665 150.96 90.1917 150.96 89.9758V85.2859C150.96 85.07 150.785 84.8952 150.569 84.8952Z" stroke="#626C84" stroke-linecap="round" stroke-linejoin="round"/>
</g>
<g style="mix-blend-mode:multiply" opacity="0.33">
<path d="M159.032 84.8952H154.339C154.123 84.8952 153.948 85.07 153.948 85.2859V89.9758C153.948 90.1917 154.123 90.3665 154.339 90.3665H159.032C159.248 90.3665 159.423 90.1917 159.423 89.9758V85.2859C159.423 85.07 159.248 84.8952 159.032 84.8952Z" fill="#4E4E4E"/>
<path d="M159.032 84.8952H154.339C154.123 84.8952 153.948 85.07 153.948 85.2859V89.9758C153.948 90.1917 154.123 90.3665 154.339 90.3665H159.032C159.248 90.3665 159.423 90.1917 159.423 89.9758V85.2859C159.423 85.07 159.248 84.8952 159.032 84.8952Z" stroke="#626C84" stroke-linecap="round" stroke-linejoin="round"/>
</g>
<g style="mix-blend-mode:multiply" opacity="0.33">
<path d="M167.494 84.8952H162.801C162.585 84.8952 162.41 85.07 162.41 85.2859V89.9758C162.41 90.1917 162.585 90.3665 162.801 90.3665H167.494C167.71 90.3665 167.885 90.1917 167.885 89.9758V85.2859C167.885 85.07 167.71 84.8952 167.494 84.8952Z" fill="#4E4E4E"/>
<path d="M167.494 84.8952H162.801C162.585 84.8952 162.41 85.07 162.41 85.2859V89.9758C162.41 90.1917 162.585 90.3665 162.801 90.3665H167.494C167.71 90.3665 167.885 90.1917 167.885 89.9758V85.2859C167.885 85.07 167.71 84.8952 167.494 84.8952Z" stroke="#626C84" stroke-linecap="round" stroke-linejoin="round"/>
</g>
<g style="mix-blend-mode:multiply" opacity="0.33">
<path d="M175.956 84.8952H171.263C171.047 84.8952 170.872 85.07 170.872 85.2859V89.9758C170.872 90.1917 171.047 90.3665 171.263 90.3665H175.956C176.172 90.3665 176.347 90.1917 176.347 89.9758V85.2859C176.347 85.07 176.172 84.8952 175.956 84.8952Z" fill="#4E4E4E"/>
<path d="M175.956 84.8952H171.263C171.047 84.8952 170.872 85.07 170.872 85.2859V89.9758C170.872 90.1917 171.047 90.3665 171.263 90.3665H175.956C176.172 90.3665 176.347 90.1917 176.347 89.9758V85.2859C176.347 85.07 176.172 84.8952 175.956 84.8952Z" stroke="#626C84" stroke-linecap="round" stroke-linejoin="round"/>
</g>
<g style="mix-blend-mode:multiply" opacity="0.33">
<path d="M184.419 84.8952H179.726C179.51 84.8952 179.335 85.07 179.335 85.2859V89.9758C179.335 90.1917 179.51 90.3665 179.726 90.3665H184.419C184.635 90.3665 184.81 90.1917 184.81 89.9758V85.2859C184.81 85.07 184.635 84.8952 184.419 84.8952Z" fill="#4E4E4E"/>
<path d="M184.419 84.8952H179.726C179.51 84.8952 179.335 85.07 179.335 85.2859V89.9758C179.335 90.1917 179.51 90.3665 179.726 90.3665H184.419C184.635 90.3665 184.81 90.1917 184.81 89.9758V85.2859C184.81 85.07 184.635 84.8952 184.419 84.8952Z" stroke="#626C84" stroke-linecap="round" stroke-linejoin="round"/>
</g>
<g style="mix-blend-mode:multiply" opacity="0.33">
<path d="M192.881 84.8952H188.188C187.973 84.8952 187.797 85.07 187.797 85.2859V89.9758C187.797 90.1917 187.973 90.3665 188.188 90.3665H192.881C193.097 90.3665 193.273 90.1917 193.273 89.9758V85.2859C193.273 85.07 193.097 84.8952 192.881 84.8952Z" fill="#4E4E4E"/>
<path d="M192.881 84.8952H188.188C187.973 84.8952 187.797 85.07 187.797 85.2859V89.9758C187.797 90.1917 187.973 90.3665 188.188 90.3665H192.881C193.097 90.3665 193.273 90.1917 193.273 89.9758V85.2859C193.273 85.07 193.097 84.8952 192.881 84.8952Z" stroke="#626C84" stroke-linecap="round" stroke-linejoin="round"/>
</g>
<g style="mix-blend-mode:multiply" opacity="0.33">
<path d="M206.037 84.8952H196.651C196.435 84.8952 196.259 85.07 196.259 85.2859V89.9758C196.259 90.1917 196.435 90.3665 196.651 90.3665H206.037C206.253 90.3665 206.428 90.1917 206.428 89.9758V85.2859C206.428 85.07 206.253 84.8952 206.037 84.8952Z" fill="#4E4E4E"/>
<path d="M206.037 84.8952H196.651C196.435 84.8952 196.259 85.07 196.259 85.2859V89.9758C196.259 90.1917 196.435 90.3665 196.651 90.3665H206.037C206.253 90.3665 206.428 90.1917 206.428 89.9758V85.2859C206.428 85.07 206.253 84.8952 206.037 84.8952Z" stroke="#626C84" stroke-linecap="round" stroke-linejoin="round"/>
</g>
<g style="mix-blend-mode:multiply" opacity="0.33">
<path d="M137.517 77.2352H132.824C132.608 77.2352 132.433 77.4103 132.433 77.6262V82.3159C132.433 82.5318 132.608 82.7068 132.824 82.7068H137.517C137.733 82.7068 137.908 82.5318 137.908 82.3159V77.6262C137.908 77.4103 137.733 77.2352 137.517 77.2352Z" fill="#4E4E4E"/>
<path d="M137.517 77.2352H132.824C132.608 77.2352 132.433 77.4103 132.433 77.6262V82.3159C132.433 82.5318 132.608 82.7068 132.824 82.7068H137.517C137.733 82.7068 137.908 82.5318 137.908 82.3159V77.6262C137.908 77.4103 137.733 77.2352 137.517 77.2352Z" stroke="#626C84" stroke-linecap="round" stroke-linejoin="round"/>
</g>
<g style="mix-blend-mode:multiply" opacity="0.33">
<path d="M128.951 77.2352H124.258C124.042 77.2352 123.867 77.4103 123.867 77.6262V82.3159C123.867 82.5318 124.042 82.7068 124.258 82.7068H128.951C129.167 82.7068 129.342 82.5318 129.342 82.3159V77.6262C129.342 77.4103 129.167 77.2352 128.951 77.2352Z" fill="#4E4E4E"/>
<path d="M128.951 77.2352H124.258C124.042 77.2352 123.867 77.4103 123.867 77.6262V82.3159C123.867 82.5318 124.042 82.7068 124.258 82.7068H128.951C129.167 82.7068 129.342 82.5318 129.342 82.3159V77.6262C129.342 77.4103 129.167 77.2352 128.951 77.2352Z" stroke="#626C84" stroke-linecap="round" stroke-linejoin="round"/>
</g>
<g style="mix-blend-mode:multiply" opacity="0.33">
<path d="M146.081 77.2352H141.388C141.172 77.2352 140.997 77.4103 140.997 77.6262V82.3159C140.997 82.5318 141.172 82.7068 141.388 82.7068H146.081C146.297 82.7068 146.472 82.5318 146.472 82.3159V77.6262C146.472 77.4103 146.297 77.2352 146.081 77.2352Z" fill="#4E4E4E"/>
<path d="M146.081 77.2352H141.388C141.172 77.2352 140.997 77.4103 140.997 77.6262V82.3159C140.997 82.5318 141.172 82.7068 141.388 82.7068H146.081C146.297 82.7068 146.472 82.5318 146.472 82.3159V77.6262C146.472 77.4103 146.297 77.2352 146.081 77.2352Z" stroke="#626C84" stroke-linecap="round" stroke-linejoin="round"/>
</g>
<g style="mix-blend-mode:multiply" opacity="0.33">
<path d="M154.646 77.2352H149.953C149.737 77.2352 149.562 77.4103 149.562 77.6262V82.3159C149.562 82.5318 149.737 82.7068 149.953 82.7068H154.646C154.862 82.7068 155.037 82.5318 155.037 82.3159V77.6262C155.037 77.4103 154.862 77.2352 154.646 77.2352Z" fill="#4E4E4E"/>
<path d="M154.646 77.2352H149.953C149.737 77.2352 149.562 77.4103 149.562 77.6262V82.3159C149.562 82.5318 149.737 82.7068 149.953 82.7068H154.646C154.862 82.7068 155.037 82.5318 155.037 82.3159V77.6262C155.037 77.4103 154.862 77.2352 154.646 77.2352Z" stroke="#626C84" stroke-linecap="round" stroke-linejoin="round"/>
</g>
<g style="mix-blend-mode:multiply" opacity="0.33">
<path d="M163.211 77.2352H158.518C158.303 77.2352 158.127 77.4103 158.127 77.6262V82.3159C158.127 82.5318 158.303 82.7068 158.518 82.7068H163.211C163.428 82.7068 163.603 82.5318 163.603 82.3159V77.6262C163.603 77.4103 163.428 77.2352 163.211 77.2352Z" fill="#4E4E4E"/>
<path d="M163.211 77.2352H158.518C158.303 77.2352 158.127 77.4103 158.127 77.6262V82.3159C158.127 82.5318 158.303 82.7068 158.518 82.7068H163.211C163.428 82.7068 163.603 82.5318 163.603 82.3159V77.6262C163.603 77.4103 163.428 77.2352 163.211 77.2352Z" stroke="#626C84" stroke-linecap="round" stroke-linejoin="round"/>
</g>
<g style="mix-blend-mode:multiply" opacity="0.33">
<path d="M171.776 77.2352H167.083C166.867 77.2352 166.692 77.4103 166.692 77.6262V82.3159C166.692 82.5318 166.867 82.7068 167.083 82.7068H171.776C171.992 82.7068 172.167 82.5318 172.167 82.3159V77.6262C172.167 77.4103 171.992 77.2352 171.776 77.2352Z" fill="#4E4E4E"/>
<path d="M171.776 77.2352H167.083C166.867 77.2352 166.692 77.4103 166.692 77.6262V82.3159C166.692 82.5318 166.867 82.7068 167.083 82.7068H171.776C171.992 82.7068 172.167 82.5318 172.167 82.3159V77.6262C172.167 77.4103 171.992 77.2352 171.776 77.2352Z" stroke="#626C84" stroke-linecap="round" stroke-linejoin="round"/>
</g>
<g style="mix-blend-mode:multiply" opacity="0.33">
<path d="M180.342 77.2352H175.649C175.433 77.2352 175.258 77.4103 175.258 77.6262V82.3159C175.258 82.5318 175.433 82.7068 175.649 82.7068H180.342C180.558 82.7068 180.733 82.5318 180.733 82.3159V77.6262C180.733 77.4103 180.558 77.2352 180.342 77.2352Z" fill="#4E4E4E"/>
<path d="M180.342 77.2352H175.649C175.433 77.2352 175.258 77.4103 175.258 77.6262V82.3159C175.258 82.5318 175.433 82.7068 175.649 82.7068H180.342C180.558 82.7068 180.733 82.5318 180.733 82.3159V77.6262C180.733 77.4103 180.558 77.2352 180.342 77.2352Z" stroke="#626C84" stroke-linecap="round" stroke-linejoin="round"/>
</g>
<g style="mix-blend-mode:multiply" opacity="0.33">
<path d="M188.907 77.2352H184.214C183.998 77.2352 183.822 77.4103 183.822 77.6262V82.3159C183.822 82.5318 183.998 82.7068 184.214 82.7068H188.907C189.123 82.7068 189.298 82.5318 189.298 82.3159V77.6262C189.298 77.4103 189.123 77.2352 188.907 77.2352Z" fill="#4E4E4E"/>
<path d="M188.907 77.2352H184.214C183.998 77.2352 183.822 77.4103 183.822 77.6262V82.3159C183.822 82.5318 183.998 82.7068 184.214 82.7068H188.907C189.123 82.7068 189.298 82.5318 189.298 82.3159V77.6262C189.298 77.4103 189.123 77.2352 188.907 77.2352Z" stroke="#626C84" stroke-linecap="round" stroke-linejoin="round"/>
</g>
<g style="mix-blend-mode:multiply" opacity="0.33">
<path d="M197.471 77.2352H192.778C192.563 77.2352 192.387 77.4103 192.387 77.6262V82.3159C192.387 82.5318 192.563 82.7068 192.778 82.7068H197.471C197.688 82.7068 197.863 82.5318 197.863 82.3159V77.6262C197.863 77.4103 197.688 77.2352 197.471 77.2352Z" fill="#4E4E4E"/>
<path d="M197.471 77.2352H192.778C192.563 77.2352 192.387 77.4103 192.387 77.6262V82.3159C192.387 82.5318 192.563 82.7068 192.778 82.7068H197.471C197.688 82.7068 197.863 82.5318 197.863 82.3159V77.6262C197.863 77.4103 197.688 77.2352 197.471 77.2352Z" stroke="#626C84" stroke-linecap="round" stroke-linejoin="round"/>
</g>
<g style="mix-blend-mode:multiply" opacity="0.33">
<path d="M206.037 77.2352H201.344C201.128 77.2352 200.953 77.4103 200.953 77.6262V82.3159C200.953 82.5318 201.128 82.7068 201.344 82.7068H206.037C206.253 82.7068 206.429 82.5318 206.429 82.3159V77.6262C206.429 77.4103 206.253 77.2352 206.037 77.2352Z" fill="#4E4E4E"/>
<path d="M206.037 77.2352H201.344C201.128 77.2352 200.953 77.4103 200.953 77.6262V82.3159C200.953 82.5318 201.128 82.7068 201.344 82.7068H206.037C206.253 82.7068 206.429 82.5318 206.429 82.3159V77.6262C206.429 77.4103 206.253 77.2352 206.037 77.2352Z" stroke="#626C84" stroke-linecap="round" stroke-linejoin="round"/>
</g>
<g style="mix-blend-mode:multiply" opacity="0.33">
<path d="M137.414 100.685H132.721C132.505 100.685 132.33 100.859 132.33 101.075V105.765C132.33 105.981 132.505 106.156 132.721 106.156H137.414C137.63 106.156 137.805 105.981 137.805 105.765V101.075C137.805 100.859 137.63 100.685 137.414 100.685Z" fill="#4E4E4E"/>
</g>
<g style="mix-blend-mode:multiply" opacity="0.33">
<path d="M128.951 100.685H124.258C124.042 100.685 123.867 100.859 123.867 101.075V105.765C123.867 105.981 124.042 106.156 124.258 106.156H128.951C129.167 106.156 129.342 105.981 129.342 105.765V101.075C129.342 100.859 129.167 100.685 128.951 100.685Z" fill="#4E4E4E"/>
</g>
<g style="mix-blend-mode:multiply" opacity="0.33">
<path d="M179.725 100.685H141.182C140.967 100.685 140.791 100.859 140.791 101.075V105.765C140.791 105.981 140.967 106.156 141.182 106.156H179.725C179.941 106.156 180.117 105.981 180.117 105.765V101.075C180.117 100.859 179.941 100.685 179.725 100.685Z" fill="#4E4E4E"/>
</g>
<g style="mix-blend-mode:multiply" opacity="0.33">
<path d="M188.189 100.685H183.496C183.28 100.685 183.105 100.859 183.105 101.075V105.765C183.105 105.981 183.28 106.156 183.496 106.156H188.189C188.405 106.156 188.58 105.981 188.58 105.765V101.075C188.58 100.859 188.405 100.685 188.189 100.685Z" fill="#4E4E4E"/>
</g>
<g style="mix-blend-mode:multiply" opacity="0.33">
<path d="M200.562 103.762H197.433C197.217 103.762 197.042 103.937 197.042 104.153V105.765C197.042 105.981 197.217 106.156 197.433 106.156H200.562C200.778 106.156 200.953 105.981 200.953 105.765V104.153C200.953 103.937 200.778 103.762 200.562 103.762Z" fill="#4E4E4E"/>
</g>
<g style="mix-blend-mode:multiply" opacity="0.33">
<path d="M200.562 100.685H197.433C197.217 100.685 197.042 100.859 197.042 101.075V102.688C197.042 102.904 197.217 103.078 197.433 103.078H200.562C200.778 103.078 200.953 102.904 200.953 102.688V101.075C200.953 100.859 200.778 100.685 200.562 100.685Z" fill="#4E4E4E"/>
</g>
<g style="mix-blend-mode:multiply" opacity="0.33">
<path d="M206.037 103.762H202.908C202.692 103.762 202.517 103.937 202.517 104.153V105.765C202.517 105.981 202.692 106.156 202.908 106.156H206.037C206.253 106.156 206.428 105.981 206.428 105.765V104.153C206.428 103.937 206.253 103.762 206.037 103.762Z" fill="#4E4E4E"/>
</g>
<g style="mix-blend-mode:multiply" opacity="0.33">
<path d="M195.086 103.762H191.958C191.742 103.762 191.567 103.937 191.567 104.153V105.765C191.567 105.981 191.742 106.156 191.958 106.156H195.086C195.303 106.156 195.478 105.981 195.478 105.765V104.153C195.478 103.937 195.303 103.762 195.086 103.762Z" fill="#4E4E4E"/>
</g>
<g style="mix-blend-mode:multiply" opacity="0.33">
<path d="M136.631 92.8989H124.258C124.042 92.8989 123.867 93.074 123.867 93.2899V97.9796C123.867 98.1955 124.042 98.3705 124.258 98.3705H136.631C136.847 98.3705 137.022 98.1955 137.022 97.9796V93.2899C137.022 93.074 136.847 92.8989 136.631 92.8989Z" fill="#4E4E4E"/>
</g>
<g style="mix-blend-mode:multiply" opacity="0.33">
<path d="M145.164 92.8989H140.471C140.255 92.8989 140.08 93.074 140.08 93.2899V97.9796C140.08 98.1955 140.255 98.3705 140.471 98.3705H145.164C145.38 98.3705 145.555 98.1955 145.555 97.9796V93.2899C145.555 93.074 145.38 92.8989 145.164 92.8989Z" fill="#4E4E4E"/>
</g>
<g style="mix-blend-mode:multiply" opacity="0.33">
<path d="M153.627 92.8989H148.934C148.718 92.8989 148.543 93.074 148.543 93.2899V97.9796C148.543 98.1955 148.718 98.3705 148.934 98.3705H153.627C153.843 98.3705 154.018 98.1955 154.018 97.9796V93.2899C154.018 93.074 153.843 92.8989 153.627 92.8989Z" fill="#4E4E4E"/>
</g>
<g style="mix-blend-mode:multiply" opacity="0.33">
<path d="M162.089 92.8989H157.396C157.18 92.8989 157.005 93.074 157.005 93.2899V97.9796C157.005 98.1955 157.18 98.3705 157.396 98.3705H162.089C162.305 98.3705 162.481 98.1955 162.481 97.9796V93.2899C162.481 93.074 162.305 92.8989 162.089 92.8989Z" fill="#4E4E4E"/>
</g>
<g style="mix-blend-mode:multiply" opacity="0.33">
<path d="M170.551 92.8989H165.858C165.642 92.8989 165.467 93.074 165.467 93.2899V97.9796C165.467 98.1955 165.642 98.3705 165.858 98.3705H170.551C170.767 98.3705 170.942 98.1955 170.942 97.9796V93.2899C170.942 93.074 170.767 92.8989 170.551 92.8989Z" fill="#4E4E4E"/>
</g>
<g style="mix-blend-mode:multiply" opacity="0.33">
<path d="M179.014 92.8989H174.321C174.105 92.8989 173.93 93.074 173.93 93.2899V97.9796C173.93 98.1955 174.105 98.3705 174.321 98.3705H179.014C179.23 98.3705 179.405 98.1955 179.405 97.9796V93.2899C179.405 93.074 179.23 92.8989 179.014 92.8989Z" fill="#4E4E4E"/>
</g>
<g style="mix-blend-mode:multiply" opacity="0.33">
<path d="M187.477 92.8989H182.784C182.568 92.8989 182.393 93.074 182.393 93.2899V97.9796C182.393 98.1955 182.568 98.3705 182.784 98.3705H187.477C187.693 98.3705 187.868 98.1955 187.868 97.9796V93.2899C187.868 93.074 187.693 92.8989 187.477 92.8989Z" fill="#4E4E4E"/>
</g>
<g style="mix-blend-mode:multiply" opacity="0.33">
<path d="M206.037 92.8989H191.958C191.742 92.8989 191.567 93.074 191.567 93.2899V97.9796C191.567 98.1955 191.742 98.3705 191.958 98.3705H206.037C206.253 98.3705 206.428 98.1955 206.428 97.9796V93.2899C206.428 93.074 206.253 92.8989 206.037 92.8989Z" fill="#4E4E4E"/>
</g>
<g style="mix-blend-mode:multiply" opacity="0.33">
<path d="M142.107 84.8952H137.414C137.198 84.8952 137.023 85.07 137.023 85.2859V89.9758C137.023 90.1917 137.198 90.3665 137.414 90.3665H142.107C142.323 90.3665 142.498 90.1917 142.498 89.9758V85.2859C142.498 85.07 142.323 84.8952 142.107 84.8952Z" fill="#4E4E4E"/>
</g>
<g style="mix-blend-mode:multiply" opacity="0.33">
<path d="M133.644 84.8952H124.258C124.042 84.8952 123.867 85.07 123.867 85.2859V89.9758C123.867 90.1917 124.042 90.3665 124.258 90.3665H133.644C133.86 90.3665 134.035 90.1917 134.035 89.9758V85.2859C134.035 85.07 133.86 84.8952 133.644 84.8952Z" fill="#4E4E4E"/>
</g>
<g style="mix-blend-mode:multiply" opacity="0.33">
<path d="M150.569 84.8952H145.876C145.66 84.8952 145.485 85.07 145.485 85.2859V89.9758C145.485 90.1917 145.66 90.3665 145.876 90.3665H150.569C150.785 90.3665 150.96 90.1917 150.96 89.9758V85.2859C150.96 85.07 150.785 84.8952 150.569 84.8952Z" fill="#4E4E4E"/>
</g>
<g style="mix-blend-mode:multiply" opacity="0.33">
<path d="M159.032 84.8952H154.339C154.123 84.8952 153.948 85.07 153.948 85.2859V89.9758C153.948 90.1917 154.123 90.3665 154.339 90.3665H159.032C159.248 90.3665 159.423 90.1917 159.423 89.9758V85.2859C159.423 85.07 159.248 84.8952 159.032 84.8952Z" fill="#4E4E4E"/>
</g>
<g style="mix-blend-mode:multiply" opacity="0.33">
<path d="M167.494 84.8952H162.801C162.585 84.8952 162.41 85.07 162.41 85.2859V89.9758C162.41 90.1917 162.585 90.3665 162.801 90.3665H167.494C167.71 90.3665 167.885 90.1917 167.885 89.9758V85.2859C167.885 85.07 167.71 84.8952 167.494 84.8952Z" fill="#4E4E4E"/>
</g>
<g style="mix-blend-mode:multiply" opacity="0.33">
<path d="M175.956 84.8952H171.263C171.047 84.8952 170.872 85.07 170.872 85.2859V89.9758C170.872 90.1917 171.047 90.3665 171.263 90.3665H175.956C176.172 90.3665 176.347 90.1917 176.347 89.9758V85.2859C176.347 85.07 176.172 84.8952 175.956 84.8952Z" fill="#4E4E4E"/>
</g>
<g style="mix-blend-mode:multiply" opacity="0.33">
<path d="M184.419 84.8952H179.726C179.51 84.8952 179.335 85.07 179.335 85.2859V89.9758C179.335 90.1917 179.51 90.3665 179.726 90.3665H184.419C184.635 90.3665 184.81 90.1917 184.81 89.9758V85.2859C184.81 85.07 184.635 84.8952 184.419 84.8952Z" fill="#4E4E4E"/>
</g>
<g style="mix-blend-mode:multiply" opacity="0.33">
<path d="M192.881 84.8952H188.188C187.973 84.8952 187.797 85.07 187.797 85.2859V89.9758C187.797 90.1917 187.973 90.3665 188.188 90.3665H192.881C193.097 90.3665 193.273 90.1917 193.273 89.9758V85.2859C193.273 85.07 193.097 84.8952 192.881 84.8952Z" fill="#4E4E4E"/>
</g>
<g style="mix-blend-mode:multiply" opacity="0.33">
<path d="M206.037 84.8952H196.651C196.435 84.8952 196.259 85.07 196.259 85.2859V89.9758C196.259 90.1917 196.435 90.3665 196.651 90.3665H206.037C206.253 90.3665 206.428 90.1917 206.428 89.9758V85.2859C206.428 85.07 206.253 84.8952 206.037 84.8952Z" fill="#4E4E4E"/>
</g>
<g style="mix-blend-mode:multiply" opacity="0.33">
<path d="M137.517 77.2352H132.824C132.608 77.2352 132.433 77.4103 132.433 77.6262V82.3159C132.433 82.5318 132.608 82.7068 132.824 82.7068H137.517C137.733 82.7068 137.908 82.5318 137.908 82.3159V77.6262C137.908 77.4103 137.733 77.2352 137.517 77.2352Z" fill="#4E4E4E"/>
</g>
<g style="mix-blend-mode:multiply" opacity="0.33">
<path d="M128.951 77.2352H124.258C124.042 77.2352 123.867 77.4103 123.867 77.6262V82.3159C123.867 82.5318 124.042 82.7068 124.258 82.7068H128.951C129.167 82.7068 129.342 82.5318 129.342 82.3159V77.6262C129.342 77.4103 129.167 77.2352 128.951 77.2352Z" fill="#4E4E4E"/>
</g>
<g style="mix-blend-mode:multiply" opacity="0.33">
<path d="M146.081 77.2352H141.388C141.172 77.2352 140.997 77.4103 140.997 77.6262V82.3159C140.997 82.5318 141.172 82.7068 141.388 82.7068H146.081C146.297 82.7068 146.472 82.5318 146.472 82.3159V77.6262C146.472 77.4103 146.297 77.2352 146.081 77.2352Z" fill="#4E4E4E"/>
</g>
<g style="mix-blend-mode:multiply" opacity="0.33">
<path d="M154.646 77.2352H149.953C149.737 77.2352 149.562 77.4103 149.562 77.6262V82.3159C149.562 82.5318 149.737 82.7068 149.953 82.7068H154.646C154.862 82.7068 155.037 82.5318 155.037 82.3159V77.6262C155.037 77.4103 154.862 77.2352 154.646 77.2352Z" fill="#4E4E4E"/>
</g>
<g style="mix-blend-mode:multiply" opacity="0.33">
<path d="M163.211 77.2352H158.518C158.303 77.2352 158.127 77.4103 158.127 77.6262V82.3159C158.127 82.5318 158.303 82.7068 158.518 82.7068H163.211C163.428 82.7068 163.603 82.5318 163.603 82.3159V77.6262C163.603 77.4103 163.428 77.2352 163.211 77.2352Z" fill="#4E4E4E"/>
</g>
<g style="mix-blend-mode:multiply" opacity="0.33">
<path d="M171.776 77.2352H167.083C166.867 77.2352 166.692 77.4103 166.692 77.6262V82.3159C166.692 82.5318 166.867 82.7068 167.083 82.7068H171.776C171.992 82.7068 172.167 82.5318 172.167 82.3159V77.6262C172.167 77.4103 171.992 77.2352 171.776 77.2352Z" fill="#4E4E4E"/>
</g>
<g style="mix-blend-mode:multiply" opacity="0.33">
<path d="M180.342 77.2352H175.649C175.433 77.2352 175.258 77.4103 175.258 77.6262V82.3159C175.258 82.5318 175.433 82.7068 175.649 82.7068H180.342C180.558 82.7068 180.733 82.5318 180.733 82.3159V77.6262C180.733 77.4103 180.558 77.2352 180.342 77.2352Z" fill="#4E4E4E"/>
</g>
<g style="mix-blend-mode:multiply" opacity="0.33">
<path d="M188.907 77.2352H184.214C183.998 77.2352 183.822 77.4103 183.822 77.6262V82.3159C183.822 82.5318 183.998 82.7068 184.214 82.7068H188.907C189.123 82.7068 189.298 82.5318 189.298 82.3159V77.6262C189.298 77.4103 189.123 77.2352 188.907 77.2352Z" fill="#4E4E4E"/>
</g>
<g style="mix-blend-mode:multiply" opacity="0.33">
<path d="M197.471 77.2352H192.778C192.563 77.2352 192.387 77.4103 192.387 77.6262V82.3159C192.387 82.5318 192.563 82.7068 192.778 82.7068H197.471C197.688 82.7068 197.863 82.5318 197.863 82.3159V77.6262C197.863 77.4103 197.688 77.2352 197.471 77.2352Z" fill="#4E4E4E"/>
</g>
<g style="mix-blend-mode:multiply" opacity="0.33">
<path d="M206.037 77.2352H201.344C201.128 77.2352 200.953 77.4103 200.953 77.6262V82.3159C200.953 82.5318 201.128 82.7068 201.344 82.7068H206.037C206.253 82.7068 206.429 82.5318 206.429 82.3159V77.6262C206.429 77.4103 206.253 77.2352 206.037 77.2352Z" fill="#4E4E4E"/>
</g>
<g style="mix-blend-mode:multiply" opacity="0.33">
<path d="M131.905 64.7661H198.389V70.0214C198.389 70.4358 198.224 70.8335 197.931 71.1266C197.637 71.4199 197.239 71.5846 196.825 71.5846H133.469C133.054 71.5846 132.656 71.4199 132.363 71.1266C132.07 70.8335 131.905 70.4358 131.905 70.0214V64.7661Z" fill="#4E4E4E"/>
</g>
<g style="mix-blend-mode:multiply" opacity="0.25">
<path d="M196.825 70.0207H133.469C133.054 70.0207 132.656 69.856 132.363 69.5629C132.07 69.2696 131.905 68.8721 131.905 68.4575V70.0207C131.905 70.4353 132.07 70.8331 132.363 71.1261C132.656 71.4192 133.054 71.5839 133.469 71.5839H196.825C197.239 71.5839 197.637 71.4192 197.931 71.1261C198.224 70.8331 198.389 70.4353 198.389 70.0207V68.4575C198.389 68.8721 198.224 69.2696 197.931 69.5629C197.637 69.856 197.239 70.0207 196.825 70.0207Z" fill="#4E4E4E"/>
</g>
<g style="mix-blend-mode:multiply" opacity="0.33">
<path d="M131.905 64.7661H198.389V70.0214C198.389 70.4358 198.224 70.8335 197.931 71.1266C197.637 71.4199 197.239 71.5846 196.825 71.5846H133.469C133.054 71.5846 132.656 71.4199 132.363 71.1266C132.07 70.8335 131.905 70.4358 131.905 70.0214V64.7661Z" fill="#4E4E4E"/>
<path d="M131.905 64.7661H198.389V70.0214C198.389 70.4358 198.224 70.8335 197.931 71.1266C197.637 71.4199 197.239 71.5846 196.825 71.5846H133.469C133.054 71.5846 132.656 71.4199 132.363 71.1266C132.07 70.8335 131.905 70.4358 131.905 70.0214V64.7661Z" stroke="#46505C" stroke-linecap="round" stroke-linejoin="round"/>
</g>
<g style="mix-blend-mode:multiply" opacity="0.33">
<path d="M178.835 111.432H151.459C151.027 111.432 150.677 111.782 150.677 112.214V130.583C150.677 131.014 151.027 131.364 151.459 131.364H178.835C179.267 131.364 179.617 131.014 179.617 130.583V112.214C179.617 111.782 179.267 111.432 178.835 111.432Z" fill="#4E4E4E"/>
</g>
<g style="mix-blend-mode:multiply" opacity="0.33">
<path d="M178.835 111.432H151.459C151.027 111.432 150.677 111.782 150.677 112.214V130.583C150.677 131.014 151.027 131.364 151.459 131.364H178.835C179.267 131.364 179.617 131.014 179.617 130.583V112.214C179.617 111.782 179.267 111.432 178.835 111.432Z" fill="#4E4E4E"/>
<path d="M178.835 111.432H151.459C151.027 111.432 150.677 111.782 150.677 112.214V130.583C150.677 131.014 151.027 131.364 151.459 131.364H178.835C179.267 131.364 179.617 131.014 179.617 130.583V112.214C179.617 111.782 179.267 111.432 178.835 111.432Z" stroke="#626C84" stroke-linecap="round" stroke-linejoin="round"/>
</g>
</g>
<path d="M207.403 0.501083H116.672C113.648 0.501083 111.196 2.95083 111.196 5.97266V59.1247C111.196 62.1465 113.648 64.5963 116.672 64.5963H207.403C210.427 64.5963 212.878 62.1465 212.878 59.1247V5.97266C212.878 2.95083 210.427 0.501083 207.403 0.501083Z" stroke="black" stroke-linecap="round" stroke-linejoin="round"/>
<path d="M207.403 0.501083H116.672C113.648 0.501083 111.196 2.95083 111.196 5.97266V59.1247C111.196 62.1465 113.648 64.5963 116.672 64.5963H207.403C210.427 64.5963 212.878 62.1465 212.878 59.1247V5.97266C212.878 2.95083 210.427 0.501083 207.403 0.501083Z" fill="#626C84"/>
<path d="M207.403 0.501083H116.672C113.648 0.501083 111.196 2.95083 111.196 5.97266V59.1247C111.196 62.1465 113.648 64.5963 116.672 64.5963H207.403C210.427 64.5963 212.878 62.1465 212.878 59.1247V5.97266C212.878 2.95083 210.427 0.501083 207.403 0.501083Z" fill="black"/>
<g style="mix-blend-mode:multiply" opacity="0.17">
<path d="M207.403 0.501083H116.672C113.648 0.501083 111.196 2.95083 111.196 5.97266V55.6136C111.196 58.6355 113.648 61.0852 116.672 61.0852H207.403C210.427 61.0852 212.878 58.6355 212.878 55.6136V5.97266C212.878 2.95083 210.427 0.501083 207.403 0.501083Z" fill="black"/>
</g>
<path opacity="0.1" d="M116.672 2.06298H207.403C208.855 2.06298 210.248 2.63928 211.275 3.6654C212.301 4.69153 212.878 6.08324 212.878 7.53455V59.1231V5.97108C212.878 4.52 212.301 3.12829 211.275 2.10217C210.248 1.07604 208.855 0.499737 207.403 0.499737H116.672C115.219 0.499737 113.827 1.07604 112.8 2.10217C111.773 3.12829 111.196 4.52 111.196 5.97108V7.53455C111.196 6.08324 111.773 4.69153 112.8 3.6654C113.827 2.63928 115.219 2.06298 116.672 2.06298Z" fill="white"/>
<g opacity="0.1">
<path opacity="0.1" d="M142.181 64.5963H148.465L195.064 0.501083H188.78L142.181 64.5963Z" fill="white"/>
<path opacity="0.1" d="M152.09 64.5963H154.023L200.623 0.501083H198.689L152.09 64.5963Z" fill="white"/>
</g>
<path d="M207.403 0.501083H116.672C113.648 0.501083 111.196 2.95083 111.196 5.97266V59.1247C111.196 62.1465 113.648 64.5963 116.672 64.5963H207.403C210.427 64.5963 212.878 62.1465 212.878 59.1247V5.97266C212.878 2.95083 210.427 0.501083 207.403 0.501083Z" stroke="black" stroke-linecap="round" stroke-linejoin="round"/>
<path d="M205.839 56.9671V7.72335H118.236V56.9671H205.839Z" fill="#2C9ACB"/>
<g opacity="0.06">
<path opacity="0.06" d="M148.119 56.9671H154.403L190.205 7.72335H183.92L148.119 56.9671Z" fill="white"/>
<path opacity="0.06" d="M158.028 56.9671H159.962L195.764 7.72335H193.83L158.028 56.9671Z" fill="white"/>
</g>
<path d="M205.839 56.9671V7.72335H118.236V56.9671H205.839Z" stroke="#46505C" stroke-linecap="round" stroke-linejoin="round"/>
<path d="M207.403 64.5962H116.672C113.648 64.5962 111.196 67.046 111.196 70.0678V126.346C111.196 129.368 113.648 131.818 116.672 131.818H207.403C210.427 131.818 212.878 129.368 212.878 126.346V70.0678C212.878 67.046 210.427 64.5962 207.403 64.5962Z" fill="#E6F3FF"/>
<path d="M211.314 126.347V70.0679C211.314 67.9096 209.563 66.1598 207.403 66.1598H116.672C114.512 66.1598 112.761 67.9096 112.761 70.0679V126.347C112.761 128.505 114.512 130.255 116.672 130.255H207.403C209.563 130.255 211.314 128.505 211.314 126.347Z" fill="#CFD1D0" stroke="#E6F3FF" stroke-miterlimit="10"/>
<path d="M155.76 128.762H168.314C168.729 128.762 169.127 128.926 169.42 129.22C169.714 129.513 169.878 129.91 169.878 130.325V131.818H154.196V130.325C154.196 129.91 154.361 129.513 154.654 129.22C154.948 128.926 155.345 128.762 155.76 128.762Z" fill="#E6F3FF"/>
<path d="M207.403 64.5962H116.672C113.648 64.5962 111.196 67.046 111.196 70.0678V126.346C111.196 129.368 113.648 131.818 116.672 131.818H207.403C210.427 131.818 212.878 129.368 212.878 126.346V70.0678C212.878 67.046 210.427 64.5962 207.403 64.5962Z" stroke="#46505C" stroke-linecap="round" stroke-linejoin="round"/>
<path d="M205.839 69.8407H118.236C117.588 69.8407 117.062 70.3656 117.062 71.0133V104.624C117.062 105.272 117.588 105.797 118.236 105.797H205.839C206.487 105.797 207.012 105.272 207.012 104.624V71.0133C207.012 70.3656 206.487 69.8407 205.839 69.8407Z" fill="#E6F3FF"/>
<path d="M134.303 97.0029H129.61C129.394 97.0029 129.219 97.1779 129.219 97.3938V102.084C129.219 102.299 129.394 102.474 129.61 102.474H134.303C134.519 102.474 134.694 102.299 134.694 102.084V97.3938C134.694 97.1779 134.519 97.0029 134.303 97.0029Z" fill="#626C84"/>
<path d="M125.841 97.0029H121.148C120.932 97.0029 120.757 97.1779 120.757 97.3938V102.084C120.757 102.299 120.932 102.474 121.148 102.474H125.841C126.057 102.474 126.232 102.299 126.232 102.084V97.3938C126.232 97.1779 126.057 97.0029 125.841 97.0029Z" fill="#626C84"/>
<path d="M176.617 97.0029H138.074C137.858 97.0029 137.683 97.1779 137.683 97.3938V102.084C137.683 102.299 137.858 102.474 138.074 102.474H176.617C176.832 102.474 177.008 102.299 177.008 102.084V97.3938C177.008 97.1779 176.832 97.0029 176.617 97.0029Z" fill="#626C84"/>
<path d="M185.079 97.0029H180.386C180.17 97.0029 179.994 97.1779 179.994 97.3938V102.084C179.994 102.299 180.17 102.474 180.386 102.474H185.079C185.294 102.474 185.47 102.299 185.47 102.084V97.3938C185.47 97.1779 185.294 97.0029 185.079 97.0029Z" fill="#626C84"/>
<path d="M197.452 100.081H194.323C194.107 100.081 193.932 100.256 193.932 100.472V102.084C193.932 102.3 194.107 102.475 194.323 102.475H197.452C197.668 102.475 197.843 102.3 197.843 102.084V100.472C197.843 100.256 197.668 100.081 197.452 100.081Z" fill="#626C84"/>
<path d="M197.452 97.0029H194.323C194.107 97.0029 193.932 97.1779 193.932 97.3938V99.0059C193.932 99.2217 194.107 99.3968 194.323 99.3968H197.452C197.668 99.3968 197.843 99.2217 197.843 99.0059V97.3938C197.843 97.1779 197.668 97.0029 197.452 97.0029Z" fill="#626C84"/>
<path d="M202.927 100.081H199.799C199.582 100.081 199.407 100.256 199.407 100.472V102.084C199.407 102.3 199.582 102.475 199.799 102.475H202.927C203.143 102.475 203.318 102.3 203.318 102.084V100.472C203.318 100.256 203.143 100.081 202.927 100.081Z" fill="#626C84"/>
<path d="M191.977 100.081H188.848C188.632 100.081 188.457 100.256 188.457 100.472V102.084C188.457 102.3 188.632 102.475 188.848 102.475H191.977C192.193 102.475 192.368 102.3 192.368 102.084V100.472C192.368 100.256 192.193 100.081 191.977 100.081Z" fill="#626C84"/>
<path d="M133.522 89.2181H121.148C120.932 89.2181 120.757 89.3932 120.757 89.6091V94.299C120.757 94.5149 120.932 94.6897 121.148 94.6897H133.522C133.738 94.6897 133.913 94.5149 133.913 94.299V89.6091C133.913 89.3932 133.738 89.2181 133.522 89.2181Z" fill="#626C84"/>
<path d="M142.054 89.2181H137.361C137.145 89.2181 136.97 89.3932 136.97 89.6091V94.299C136.97 94.5149 137.145 94.6897 137.361 94.6897H142.054C142.27 94.6897 142.445 94.5149 142.445 94.299V89.6091C142.445 89.3932 142.27 89.2181 142.054 89.2181Z" fill="#626C84"/>
<path d="M150.517 89.2181H145.824C145.608 89.2181 145.433 89.3932 145.433 89.6091V94.299C145.433 94.5149 145.608 94.6897 145.824 94.6897H150.517C150.733 94.6897 150.908 94.5149 150.908 94.299V89.6091C150.908 89.3932 150.733 89.2181 150.517 89.2181Z" fill="#626C84"/>
<path d="M158.98 89.2181H154.287C154.071 89.2181 153.896 89.3932 153.896 89.6091V94.299C153.896 94.5149 154.071 94.6897 154.287 94.6897H158.98C159.196 94.6897 159.371 94.5149 159.371 94.299V89.6091C159.371 89.3932 159.196 89.2181 158.98 89.2181Z" fill="#626C84"/>
<path d="M167.442 89.2181H162.749C162.533 89.2181 162.358 89.3932 162.358 89.6091V94.299C162.358 94.5149 162.533 94.6897 162.749 94.6897H167.442C167.658 94.6897 167.833 94.5149 167.833 94.299V89.6091C167.833 89.3932 167.658 89.2181 167.442 89.2181Z" fill="#626C84"/>
<path d="M175.905 89.2181H171.212C170.996 89.2181 170.821 89.3932 170.821 89.6091V94.299C170.821 94.5149 170.996 94.6897 171.212 94.6897H175.905C176.121 94.6897 176.296 94.5149 176.296 94.299V89.6091C176.296 89.3932 176.121 89.2181 175.905 89.2181Z" fill="#626C84"/>
<path d="M184.367 89.2181H179.674C179.458 89.2181 179.283 89.3932 179.283 89.6091V94.299C179.283 94.5149 179.458 94.6897 179.674 94.6897H184.367C184.583 94.6897 184.758 94.5149 184.758 94.299V89.6091C184.758 89.3932 184.583 89.2181 184.367 89.2181Z" fill="#626C84"/>
<path d="M202.927 89.2181H188.848C188.632 89.2181 188.457 89.3932 188.457 89.6091V94.299C188.457 94.5149 188.632 94.6897 188.848 94.6897H202.927C203.143 94.6897 203.318 94.5149 203.318 94.299V89.6091C203.318 89.3932 203.143 89.2181 202.927 89.2181Z" fill="#626C84"/>
<path d="M138.997 81.2139H134.304C134.087 81.2139 133.912 81.389 133.912 81.6048V86.2946C133.912 86.5104 134.087 86.6855 134.304 86.6855H138.997C139.212 86.6855 139.387 86.5104 139.387 86.2946V81.6048C139.387 81.389 139.212 81.2139 138.997 81.2139Z" fill="#626C84"/>
<path d="M130.534 81.2139H121.148C120.932 81.2139 120.757 81.389 120.757 81.6048V86.2946C120.757 86.5104 120.932 86.6855 121.148 86.6855H130.534C130.75 86.6855 130.925 86.5104 130.925 86.2946V81.6048C130.925 81.389 130.75 81.2139 130.534 81.2139Z" fill="#626C84"/>
<path d="M147.459 81.2139H142.766C142.55 81.2139 142.375 81.389 142.375 81.6048V86.2946C142.375 86.5104 142.55 86.6855 142.766 86.6855H147.459C147.675 86.6855 147.85 86.5104 147.85 86.2946V81.6048C147.85 81.389 147.675 81.2139 147.459 81.2139Z" fill="#626C84"/>
<path d="M155.921 81.2139H151.228C151.012 81.2139 150.837 81.389 150.837 81.6048V86.2946C150.837 86.5104 151.012 86.6855 151.228 86.6855H155.921C156.137 86.6855 156.312 86.5104 156.312 86.2946V81.6048C156.312 81.389 156.137 81.2139 155.921 81.2139Z" fill="#626C84"/>
<path d="M164.384 81.2139H159.691C159.475 81.2139 159.3 81.389 159.3 81.6048V86.2946C159.3 86.5104 159.475 86.6855 159.691 86.6855H164.384C164.6 86.6855 164.775 86.5104 164.775 86.2946V81.6048C164.775 81.389 164.6 81.2139 164.384 81.2139Z" fill="#626C84"/>
<path d="M172.847 81.2139H168.154C167.938 81.2139 167.762 81.389 167.762 81.6048V86.2946C167.762 86.5104 167.938 86.6855 168.154 86.6855H172.847C173.063 86.6855 173.238 86.5104 173.238 86.2946V81.6048C173.238 81.389 173.063 81.2139 172.847 81.2139Z" fill="#626C84"/>
<path d="M181.309 81.2139H176.616C176.4 81.2139 176.225 81.389 176.225 81.6048V86.2946C176.225 86.5104 176.4 86.6855 176.616 86.6855H181.309C181.525 86.6855 181.7 86.5104 181.7 86.2946V81.6048C181.7 81.389 181.525 81.2139 181.309 81.2139Z" fill="#626C84"/>
<path d="M189.772 81.2139H185.079C184.863 81.2139 184.688 81.389 184.688 81.6048V86.2946C184.688 86.5104 184.863 86.6855 185.079 86.6855H189.772C189.988 86.6855 190.163 86.5104 190.163 86.2946V81.6048C190.163 81.389 189.988 81.2139 189.772 81.2139Z" fill="#626C84"/>
<path d="M202.927 81.2139H193.541C193.325 81.2139 193.15 81.389 193.15 81.6048V86.2946C193.15 86.5104 193.325 86.6855 193.541 86.6855H202.927C203.143 86.6855 203.318 86.5104 203.318 86.2946V81.6048C203.318 81.389 203.143 81.2139 202.927 81.2139Z" fill="#626C84"/>
<path d="M134.406 73.5536H129.713C129.497 73.5536 129.322 73.7284 129.322 73.9443V78.6342C129.322 78.8501 129.497 79.0249 129.713 79.0249H134.406C134.622 79.0249 134.797 78.8501 134.797 78.6342V73.9443C134.797 73.7284 134.622 73.5536 134.406 73.5536Z" fill="#626C84"/>
<path d="M125.841 73.5536H121.148C120.932 73.5536 120.757 73.7284 120.757 73.9443V78.6342C120.757 78.8501 120.932 79.0249 121.148 79.0249H125.841C126.057 79.0249 126.232 78.8501 126.232 78.6342V73.9443C126.232 73.7284 126.057 73.5536 125.841 73.5536Z" fill="#626C84"/>
<path d="M142.972 73.5536H138.279C138.063 73.5536 137.888 73.7284 137.888 73.9443V78.6342C137.888 78.8501 138.063 79.0249 138.279 79.0249H142.972C143.188 79.0249 143.363 78.8501 143.363 78.6342V73.9443C143.363 73.7284 143.188 73.5536 142.972 73.5536Z" fill="#626C84"/>
<path d="M151.536 73.5536H146.843C146.627 73.5536 146.452 73.7284 146.452 73.9443V78.6342C146.452 78.8501 146.627 79.0249 146.843 79.0249H151.536C151.752 79.0249 151.927 78.8501 151.927 78.6342V73.9443C151.927 73.7284 151.752 73.5536 151.536 73.5536Z" fill="#626C84"/>
<path d="M160.101 73.5536H155.408C155.192 73.5536 155.017 73.7284 155.017 73.9443V78.6342C155.017 78.8501 155.192 79.0249 155.408 79.0249H160.101C160.317 79.0249 160.492 78.8501 160.492 78.6342V73.9443C160.492 73.7284 160.317 73.5536 160.101 73.5536Z" fill="#626C84"/>
<path d="M168.667 73.5536H163.974C163.758 73.5536 163.582 73.7284 163.582 73.9443V78.6342C163.582 78.8501 163.758 79.0249 163.974 79.0249H168.667C168.883 79.0249 169.058 78.8501 169.058 78.6342V73.9443C169.058 73.7284 168.883 73.5536 168.667 73.5536Z" fill="#626C84"/>
<path d="M177.232 73.5536H172.539C172.323 73.5536 172.148 73.7284 172.148 73.9443V78.6342C172.148 78.8501 172.323 79.0249 172.539 79.0249H177.232C177.448 79.0249 177.623 78.8501 177.623 78.6342V73.9443C177.623 73.7284 177.448 73.5536 177.232 73.5536Z" fill="#626C84"/>
<path d="M185.797 73.5536H181.104C180.888 73.5536 180.713 73.7284 180.713 73.9443V78.6342C180.713 78.8501 180.888 79.0249 181.104 79.0249H185.797C186.013 79.0249 186.188 78.8501 186.188 78.6342V73.9443C186.188 73.7284 186.013 73.5536 185.797 73.5536Z" fill="#626C84"/>
<path d="M194.362 73.5536H189.669C189.453 73.5536 189.278 73.7284 189.278 73.9443V78.6342C189.278 78.8501 189.453 79.0249 189.669 79.0249H194.362C194.578 79.0249 194.753 78.8501 194.753 78.6342V73.9443C194.753 73.7284 194.578 73.5536 194.362 73.5536Z" fill="#626C84"/>
<path d="M202.927 73.5536H198.234C198.018 73.5536 197.842 73.7284 197.842 73.9443V78.6342C197.842 78.8501 198.018 79.0249 198.234 79.0249H202.927C203.143 79.0249 203.318 78.8501 203.318 78.6342V73.9443C203.318 73.7284 203.143 73.5536 202.927 73.5536Z" fill="#626C84"/>
<path d="M128.795 61.0851H195.28V66.3401C195.28 66.7547 195.115 67.1522 194.821 67.4455C194.528 67.7386 194.13 67.9033 193.715 67.9033H130.36C129.945 67.9033 129.547 67.7386 129.254 67.4455C128.96 67.1522 128.795 66.7547 128.795 66.3401V61.0851Z" fill="#626C84"/>
<path opacity="0.12" d="M195.28 61.0851H128.795V61.8667H195.28V61.0851Z" fill="white"/>
<g style="mix-blend-mode:multiply" opacity="0.25">
<path d="M193.715 66.34H130.36C129.945 66.34 129.547 66.1753 129.254 65.882C128.96 65.5889 128.795 65.1912 128.795 64.7765V66.34C128.795 66.7544 128.96 67.1521 129.254 67.4452C129.547 67.7385 129.945 67.9033 130.36 67.9033H193.715C194.13 67.9033 194.528 67.7385 194.821 67.4452C195.115 67.1521 195.28 66.7544 195.28 66.34V64.7765C195.28 65.1912 195.115 65.5889 194.821 65.882C194.528 66.1753 194.13 66.34 193.715 66.34Z" fill="#626C84"/>
</g>
<path d="M128.795 61.0851H195.28V66.3401C195.28 66.7547 195.115 67.1522 194.821 67.4455C194.528 67.7386 194.13 67.9033 193.715 67.9033H130.36C129.945 67.9033 129.547 67.7386 129.254 67.4455C128.96 67.1522 128.795 66.7547 128.795 66.3401V61.0851Z" stroke="#46505C" stroke-linecap="round" stroke-linejoin="round"/>
<path d="M175.726 107.751H148.35C147.918 107.751 147.568 108.101 147.568 108.532V126.901C147.568 127.333 147.918 127.683 148.35 127.683H175.726C176.158 127.683 176.508 127.333 176.508 126.901V108.532C176.508 108.101 176.158 107.751 175.726 107.751Z" fill="#E6F3FF"/>
<path d="M175.726 107.751H148.35C147.918 107.751 147.568 108.101 147.568 108.532V126.901C147.568 127.333 147.918 127.683 148.35 127.683H175.726C176.158 127.683 176.508 127.333 176.508 126.901V108.532C176.508 108.101 176.158 107.751 175.726 107.751Z" stroke="#626C84" stroke-linecap="round" stroke-linejoin="round"/>
<path opacity="0.52" d="M162.037 5.63946C162.685 5.63946 163.211 5.11454 163.211 4.46691C163.211 3.81951 162.685 3.29459 162.037 3.29459C161.39 3.29459 160.864 3.81951 160.864 4.46691C160.864 5.11454 161.39 5.63946 162.037 5.63946Z" fill="white"/>
<path d="M162.037 5.63946C162.685 5.63946 163.211 5.11454 163.211 4.46691C163.211 3.81951 162.685 3.29459 162.037 3.29459C161.39 3.29459 160.864 3.81951 160.864 4.46691C160.864 5.11454 161.39 5.63946 162.037 5.63946Z" stroke="#46505C" stroke-width="1.66667" stroke-linecap="round" stroke-linejoin="round"/>
<path d="M186.425 12.7044H181.732C181.516 12.7044 181.341 12.8795 181.341 13.0954C181.341 13.3113 181.516 13.4861 181.732 13.4861H186.425C186.641 13.4861 186.816 13.3113 186.816 13.0954C186.816 12.8795 186.641 12.7044 186.425 12.7044Z" fill="white"/>
<path d="M196.584 12.7044H191.891C191.675 12.7044 191.5 12.8795 191.5 13.0954C191.5 13.3113 191.675 13.4861 191.891 13.4861H196.584C196.8 13.4861 196.975 13.3113 196.975 13.0954C196.975 12.8795 196.8 12.7044 196.584 12.7044Z" fill="white"/>
<path d="M176.268 12.7044H171.575C171.359 12.7044 171.184 12.8795 171.184 13.0954C171.184 13.3113 171.359 13.4861 171.575 13.4861H176.268C176.484 13.4861 176.659 13.3113 176.659 13.0954C176.659 12.8795 176.484 12.7044 176.268 12.7044Z" fill="white"/>
<path d="M125.758 15.1895C126.803 15.1895 127.65 14.3431 127.65 13.2991C127.65 12.2552 126.803 11.4088 125.758 11.4088C124.713 11.4088 123.866 12.2552 123.866 13.2991C123.866 14.3431 124.713 15.1895 125.758 15.1895Z" fill="white"/>
<g opacity="0.72">
<path opacity="0.72" d="M181.809 33.997H142.218V35.4216H181.809V33.997Z" fill="white"/>
<path opacity="0.72" d="M176.803 29.269H147.225V30.7143H176.803V29.269Z" fill="white"/>
</g>
<path d="M168.844 45.0714H157.577C156.393 45.0714 155.433 46.0304 155.433 47.2135C155.433 48.3964 156.393 49.3556 157.577 49.3556H168.844C170.028 49.3556 170.988 48.3964 170.988 47.2135C170.988 46.0304 170.028 45.0714 168.844 45.0714Z" stroke="white" stroke-width="1.66667" stroke-miterlimit="10"/>
<path d="M93.2219 87.5593C92.9834 87.893 92.7008 88.2237 92.4967 88.5773C89.7651 93.3084 87.0336 98.0395 84.0765 102.685C84.066 102.545 84.0018 102.418 84.0527 102.29C85.1221 97.6991 84.0556 93.514 81.6086 89.4972C76.8284 81.6638 72.1041 73.773 67.3605 65.9159C67.2791 65.7791 67.2246 65.6354 67.111 65.4352C73.8472 61.4672 80.5467 57.5229 87.2828 53.5549C88.1806 55.0161 89.0463 56.4139 89.8851 57.8185C92.0781 61.4418 94.3443 65.0175 96.4199 68.6852C97.8808 71.2348 98.826 74.003 98.538 77.002C98.4893 77.6024 98.3523 78.1968 98.2497 78.8111C96.5852 81.7338 94.9036 84.6465 93.2219 87.5593Z" fill="#F08222"/>
<path d="M72.1879 24.9881C74.7571 28.8675 77.3436 32.7568 79.9029 36.6533C80.1304 37.0129 80.3678 37.3553 80.637 37.7617C83.0459 36.8021 85.3737 35.8641 87.9007 34.8586C87.7275 35.2378 87.6605 35.4729 87.5419 35.6783C84.1943 41.5955 80.8369 47.5297 77.4893 53.4469C77.2324 53.8919 77.0275 54.2071 76.3812 54.1763C69.1513 53.927 61.909 53.739 54.6692 53.5069C54.5537 53.5087 54.4236 53.4564 54.0895 53.4004C56.1528 52.1271 58.0683 50.9512 60.0406 49.7166C59.8573 49.3598 59.7157 49.0498 59.547 48.7471C57.2857 44.6119 55.0515 40.4696 52.7705 36.3686C52.4575 35.8 52.4636 35.3928 52.797 34.8551C54.5751 31.9339 56.2258 28.9163 58.8965 26.6703C62.1093 23.9613 65.8457 22.9238 70.0406 23.9081C70.1191 23.9306 70.2274 23.9018 70.3257 23.8902C70.9341 24.2643 71.5696 24.6311 72.1879 24.9881Z" fill="white"/>
<path d="M17.6941 41.8926C17.802 41.6655 17.8444 41.5119 17.9215 41.3783C20.7636 36.4958 23.5536 31.5833 26.4902 26.7777C27.9672 24.3799 29.9268 22.3498 32.6972 21.3221C33.5307 21.0018 34.4665 20.7851 35.3734 20.8189C44.2555 21.1603 53.1261 21.5618 61.9967 21.9632C62.2456 21.9734 62.5023 22.0102 62.7474 22.1072C60.5749 22.7008 58.5936 23.6052 56.8421 24.954C54.9884 26.3996 53.5652 28.1827 52.3986 30.2032C47.8714 37.9644 43.3364 45.6989 38.7918 53.45C38.7147 53.5836 38.6028 53.6971 38.4794 53.8708C31.5561 49.8959 24.6598 45.9143 17.6941 41.8926Z" fill="#F08222"/>
<path d="M3.29809 84.6674C5.09297 86.0897 6.98212 87.2712 9.16331 87.9856C11.3347 88.7171 13.5506 88.9066 15.837 88.8191C24.8429 88.479 33.8557 88.1656 42.8685 87.8522C43.0518 87.8445 43.2322 87.8805 43.4924 87.8945C43.7079 95.6927 43.9164 103.464 44.1446 111.202C44.0452 111.258 43.9891 111.316 43.9359 111.331C38.2198 111.55 32.5077 111.839 26.7973 111.97C24.0338 112.032 21.2784 111.577 18.955 109.985C17.9812 109.31 17.0584 108.391 16.4645 107.367C12.1763 100.078 7.96097 92.7403 3.71904 85.4099C3.56986 85.1649 3.43744 84.9295 3.29809 84.6674Z" fill="#F08222"/>
<path d="M60.4568 86.7206C63.2728 86.7531 65.9901 86.797 68.6902 86.8308C71.0693 86.8615 73.4485 86.8922 75.8351 86.9499C76.156 86.9531 76.6225 87.0631 76.7535 87.2753C78.7112 90.4313 80.6861 93.5973 81.42 97.276C82.1169 100.819 81.3722 104.145 79.2747 107.099C78.1236 108.734 76.4512 109.635 74.4201 109.759C70.358 110.009 66.2983 110.214 62.2461 110.447C61.8882 110.468 61.5304 110.489 61.101 110.514C60.7998 113.072 60.4937 115.558 60.1753 118.265C59.8986 117.946 59.7208 117.775 59.6071 117.573C55.9785 111.722 52.3575 105.899 48.766 100.024C48.5781 99.7105 48.5306 99.1141 48.6982 98.8239C52.3598 92.5617 56.0461 86.3365 59.7423 80.0942C59.7915 80.0088 59.8655 79.9605 60.0751 79.7173C60.2279 82.1272 60.3361 84.3748 60.4568 86.7206Z" fill="white"/>
<path d="M33.315 74.5826C31.1084 73.4826 29.1386 72.5193 27.0843 71.5071C26.896 71.8332 26.7266 72.1267 26.5665 72.4039C24.3787 76.2714 22.1909 80.1389 20.0106 84.0325C19.6981 84.6129 19.3331 84.8153 18.6657 84.7995C15.2906 84.7858 11.9098 84.8992 8.60894 83.8195C5.0599 82.6618 2.46503 80.3593 0.888148 77.0358C-0.149964 74.8494 0.385594 72.7889 1.38742 70.7803C2.96363 67.5814 4.47219 64.3435 6.01457 61.1252C6.09179 60.9524 6.14268 60.7861 6.24256 60.4959C4.22616 59.0274 2.19286 57.5491 -0.000179204 55.9568C0.40975 55.9109 0.637291 55.8683 0.872335 55.8519C7.5455 55.661 14.2356 55.4798 20.9087 55.289C21.3694 55.2723 21.7154 55.2981 22.0139 55.7966C25.6627 61.8599 29.3471 67.9003 33.0052 73.9473C33.0935 74.1069 33.1404 74.221 33.315 74.5826Z" fill="white"/>
</svg>
