<svg width="127" height="80" viewBox="0 0 127 80" fill="none" xmlns="http://www.w3.org/2000/svg">
<g style="mix-blend-mode:multiply" opacity="0.33">
<g style="mix-blend-mode:multiply" opacity="0.33">
<path d="M123.185 29.7615H70.0922C68.3227 29.7615 66.8882 31.195 66.8882 32.9633V36.9605C66.8882 38.7288 68.3227 40.1622 70.0922 40.1622H123.185C124.955 40.1622 126.389 38.7288 126.389 36.9605V32.9633C126.389 31.195 124.955 29.7615 123.185 29.7615Z" fill="#4E4E4E"/>
<path d="M123.185 29.7615H70.0922C68.3227 29.7615 66.8882 31.195 66.8882 32.9633V36.9605C66.8882 38.7288 68.3227 40.1622 70.0922 40.1622H123.185C124.955 40.1622 126.389 38.7288 126.389 36.9605V32.9633C126.389 31.195 124.955 29.7615 123.185 29.7615Z" stroke="black" stroke-linecap="round" stroke-linejoin="round"/>
</g>
<g style="mix-blend-mode:multiply" opacity="0.33">
<path d="M123.185 29.7615H70.0922C68.3227 29.7615 66.8882 31.195 66.8882 32.9633V36.9605C66.8882 38.7288 68.3227 40.1622 70.0922 40.1622H123.185C124.955 40.1622 126.389 38.7288 126.389 36.9605V32.9633C126.389 31.195 124.955 29.7615 123.185 29.7615Z" fill="#4E4E4E"/>
</g>
<g style="mix-blend-mode:multiply" opacity="0.17">
<path d="M70.0924 29.7615H123.186C124.035 29.7615 124.85 30.0989 125.451 30.6993C126.052 31.2998 126.389 32.1142 126.389 32.9633V37.6375C126.389 38.1559 126.183 38.6533 125.816 39.0199C125.449 39.3865 124.952 39.5926 124.433 39.5926H68.8452C68.3263 39.5926 67.8287 39.3865 67.4618 39.0199C67.0949 38.6533 66.8887 38.1559 66.8887 37.6375V32.9633C66.8887 32.1142 67.2263 31.2998 67.8272 30.6993C68.4279 30.0989 69.2428 29.7615 70.0927 29.7615H70.0924Z" fill="#4E4E4E"/>
</g>
<g style="mix-blend-mode:multiply" opacity="0.33">
<path d="M123.185 29.7615H70.0922C68.3227 29.7615 66.8882 31.195 66.8882 32.9633V36.9605C66.8882 38.7288 68.3227 40.1622 70.0922 40.1622H123.185C124.955 40.1622 126.389 38.7288 126.389 36.9605V32.9633C126.389 31.195 124.955 29.7615 123.185 29.7615Z" fill="#4E4E4E"/>
<path d="M123.185 29.7615H70.0922C68.3227 29.7615 66.8882 31.195 66.8882 32.9633V36.9605C66.8882 38.7288 68.3227 40.1622 70.0922 40.1622H123.185C124.955 40.1622 126.389 38.7288 126.389 36.9605V32.9633C126.389 31.195 124.955 29.7615 123.185 29.7615Z" stroke="#46505C" stroke-linecap="round" stroke-linejoin="round"/>
</g>
<g style="mix-blend-mode:multiply" opacity="0.33">
<path d="M122.27 38.9246V30.9335H71.0078V38.9246H122.27Z" fill="#4E4E4E"/>
</g>
<g style="mix-blend-mode:multiply" opacity="0.33">
<path d="M122.27 38.9246V30.9335H71.0078V38.9246H122.27Z" fill="#4E4E4E"/>
<path d="M122.27 38.9246V30.9335H71.0078V38.9246H122.27Z" stroke="#46505C" stroke-linecap="round" stroke-linejoin="round"/>
</g>
<g style="mix-blend-mode:multiply" opacity="0.33">
<path d="M123.185 40.1622H70.0924C68.3229 40.1622 66.8884 41.5957 66.8884 43.364V76.2965C66.8884 78.0648 68.3229 79.4981 70.0924 79.4981H123.185C124.955 79.4981 126.389 78.0648 126.389 76.2965V43.364C126.389 41.5957 124.955 40.1622 123.185 40.1622Z" fill="#4E4E4E"/>
</g>
<g style="mix-blend-mode:multiply" opacity="0.33">
<path d="M125.474 76.2965V43.364C125.474 42.1009 124.449 41.0769 123.185 41.0769H70.0924C68.8285 41.0769 67.8039 42.1009 67.8039 43.364V76.2965C67.8039 77.5594 68.8285 78.5834 70.0924 78.5834H123.185C124.449 78.5834 125.474 77.5594 125.474 76.2965Z" fill="#4E4E4E"/>
<path d="M125.474 76.2965V43.364C125.474 42.1009 124.449 41.0769 123.185 41.0769H70.0924C68.8285 41.0769 67.8039 42.1009 67.8039 43.364V76.2965C67.8039 77.5594 68.8285 78.5834 70.0924 78.5834H123.185C124.449 78.5834 125.474 77.5594 125.474 76.2965Z" stroke="#E6F3FF" stroke-miterlimit="10"/>
</g>
<g style="mix-blend-mode:multiply" opacity="0.33">
<path d="M92.9655 77.7094H100.312C100.554 77.7094 100.787 77.8056 100.959 77.9773C101.13 78.1488 101.227 78.3815 101.227 78.6241V79.4977H92.0501V78.6241C92.0501 78.3815 92.1464 78.1488 92.3182 77.9773C92.4899 77.8056 92.7227 77.7094 92.9655 77.7094Z" fill="#4E4E4E"/>
</g>
<g style="mix-blend-mode:multiply" opacity="0.33">
<path d="M123.185 40.1622H70.0924C68.3229 40.1622 66.8884 41.5957 66.8884 43.364V76.2965C66.8884 78.0648 68.3229 79.4981 70.0924 79.4981H123.185C124.955 79.4981 126.389 78.0648 126.389 76.2965V43.364C126.389 41.5957 124.955 40.1622 123.185 40.1622Z" fill="#4E4E4E"/>
<path d="M123.185 40.1622H70.0924C68.3229 40.1622 66.8884 41.5957 66.8884 43.364V76.2965C66.8884 78.0648 68.3229 79.4981 70.0924 79.4981H123.185C124.955 79.4981 126.389 78.0648 126.389 76.2965V43.364C126.389 41.5957 124.955 40.1622 123.185 40.1622Z" stroke="#46505C" stroke-linecap="round" stroke-linejoin="round"/>
</g>
<g style="mix-blend-mode:multiply" opacity="0.33">
<path d="M122.27 43.2316H71.0072C70.6281 43.2316 70.3207 43.5387 70.3207 43.9176V63.5857C70.3207 63.9645 70.6281 64.2717 71.0072 64.2717H122.27C122.649 64.2717 122.956 63.9645 122.956 63.5857V43.9176C122.956 43.5387 122.649 43.2316 122.27 43.2316Z" fill="#4E4E4E"/>
</g>
<g style="mix-blend-mode:multiply" opacity="0.33">
<path d="M80.4101 59.1261H77.6639C77.5376 59.1261 77.4352 59.2284 77.4352 59.3547V62.0991C77.4352 62.2254 77.5376 62.3279 77.6639 62.3279H80.4101C80.5366 62.3279 80.639 62.2254 80.639 62.0991V59.3547C80.639 59.2284 80.5366 59.1261 80.4101 59.1261Z" fill="#4E4E4E"/>
<path d="M80.4101 59.1261H77.6639C77.5376 59.1261 77.4352 59.2284 77.4352 59.3547V62.0991C77.4352 62.2254 77.5376 62.3279 77.6639 62.3279H80.4101C80.5366 62.3279 80.639 62.2254 80.639 62.0991V59.3547C80.639 59.2284 80.5366 59.1261 80.4101 59.1261Z" stroke="#626C84" stroke-linecap="round" stroke-linejoin="round"/>
</g>
<g style="mix-blend-mode:multiply" opacity="0.33">
<path d="M75.4576 59.1261H72.7114C72.5851 59.1261 72.4827 59.2284 72.4827 59.3547V62.0991C72.4827 62.2254 72.5851 62.3279 72.7114 62.3279H75.4576C75.5841 62.3279 75.6865 62.2254 75.6865 62.0991V59.3547C75.6865 59.2284 75.5841 59.1261 75.4576 59.1261Z" fill="#4E4E4E"/>
<path d="M75.4576 59.1261H72.7114C72.5851 59.1261 72.4827 59.2284 72.4827 59.3547V62.0991C72.4827 62.2254 72.5851 62.3279 72.7114 62.3279H75.4576C75.5841 62.3279 75.6865 62.2254 75.6865 62.0991V59.3547C75.6865 59.2284 75.5841 59.1261 75.4576 59.1261Z" stroke="#626C84" stroke-linecap="round" stroke-linejoin="round"/>
</g>
<g style="mix-blend-mode:multiply" opacity="0.33">
<path d="M105.17 59.1261H82.6154C82.4891 59.1261 82.3867 59.2284 82.3867 59.3547V62.0991C82.3867 62.2254 82.4891 62.3279 82.6154 62.3279H105.17C105.296 62.3279 105.398 62.2254 105.398 62.0991V59.3547C105.398 59.2284 105.296 59.1261 105.17 59.1261Z" fill="#4E4E4E"/>
<path d="M105.17 59.1261H82.6154C82.4891 59.1261 82.3867 59.2284 82.3867 59.3547V62.0991C82.3867 62.2254 82.4891 62.3279 82.6154 62.3279H105.17C105.296 62.3279 105.398 62.2254 105.398 62.0991V59.3547C105.398 59.2284 105.296 59.1261 105.17 59.1261Z" stroke="#626C84" stroke-linecap="round" stroke-linejoin="round"/>
</g>
<g style="mix-blend-mode:multiply" opacity="0.33">
<path d="M110.122 59.1261H107.376C107.25 59.1261 107.147 59.2284 107.147 59.3547V62.0991C107.147 62.2254 107.25 62.3279 107.376 62.3279H110.122C110.248 62.3279 110.351 62.2254 110.351 62.0991V59.3547C110.351 59.2284 110.248 59.1261 110.122 59.1261Z" fill="#4E4E4E"/>
<path d="M110.122 59.1261H107.376C107.25 59.1261 107.147 59.2284 107.147 59.3547V62.0991C107.147 62.2254 107.25 62.3279 107.376 62.3279H110.122C110.248 62.3279 110.351 62.2254 110.351 62.0991V59.3547C110.351 59.2284 110.248 59.1261 110.122 59.1261Z" stroke="#626C84" stroke-linecap="round" stroke-linejoin="round"/>
</g>
<g style="mix-blend-mode:multiply" opacity="0.33">
<path d="M117.362 60.9271H115.532C115.405 60.9271 115.303 61.0295 115.303 61.1557V62.0992C115.303 62.2255 115.405 62.3278 115.532 62.3278H117.362C117.489 62.3278 117.591 62.2255 117.591 62.0992V61.1557C117.591 61.0295 117.489 60.9271 117.362 60.9271Z" fill="#4E4E4E"/>
<path d="M117.362 60.9271H115.532C115.405 60.9271 115.303 61.0295 115.303 61.1557V62.0992C115.303 62.2255 115.405 62.3278 115.532 62.3278H117.362C117.489 62.3278 117.591 62.2255 117.591 62.0992V61.1557C117.591 61.0295 117.489 60.9271 117.362 60.9271Z" stroke="#626C84" stroke-linecap="round" stroke-linejoin="round"/>
</g>
<g style="mix-blend-mode:multiply" opacity="0.33">
<path d="M117.362 59.1261H115.532C115.405 59.1261 115.303 59.2284 115.303 59.3547V60.2981C115.303 60.4245 115.405 60.5268 115.532 60.5268H117.362C117.489 60.5268 117.591 60.4245 117.591 60.2981V59.3547C117.591 59.2284 117.489 59.1261 117.362 59.1261Z" fill="#4E4E4E"/>
<path d="M117.362 59.1261H115.532C115.405 59.1261 115.303 59.2284 115.303 59.3547V60.2981C115.303 60.4245 115.405 60.5268 115.532 60.5268H117.362C117.489 60.5268 117.591 60.4245 117.591 60.2981V59.3547C117.591 59.2284 117.489 59.1261 117.362 59.1261Z" stroke="#626C84" stroke-linecap="round" stroke-linejoin="round"/>
</g>
<g style="mix-blend-mode:multiply" opacity="0.33">
<path d="M120.566 60.9271H118.735C118.609 60.9271 118.506 61.0295 118.506 61.1557V62.0992C118.506 62.2255 118.609 62.3278 118.735 62.3278H120.566C120.693 62.3278 120.795 62.2255 120.795 62.0992V61.1557C120.795 61.0295 120.693 60.9271 120.566 60.9271Z" fill="#4E4E4E"/>
<path d="M120.566 60.9271H118.735C118.609 60.9271 118.506 61.0295 118.506 61.1557V62.0992C118.506 62.2255 118.609 62.3278 118.735 62.3278H120.566C120.693 62.3278 120.795 62.2255 120.795 62.0992V61.1557C120.795 61.0295 120.693 60.9271 120.566 60.9271Z" stroke="#626C84" stroke-linecap="round" stroke-linejoin="round"/>
</g>
<g style="mix-blend-mode:multiply" opacity="0.33">
<path d="M114.158 60.9271H112.328C112.201 60.9271 112.099 61.0295 112.099 61.1557V62.0992C112.099 62.2255 112.201 62.3278 112.328 62.3278H114.158C114.285 62.3278 114.387 62.2255 114.387 62.0992V61.1557C114.387 61.0295 114.285 60.9271 114.158 60.9271Z" fill="#4E4E4E"/>
<path d="M114.158 60.9271H112.328C112.201 60.9271 112.099 61.0295 112.099 61.1557V62.0992C112.099 62.2255 112.201 62.3278 112.328 62.3278H114.158C114.285 62.3278 114.387 62.2255 114.387 62.0992V61.1557C114.387 61.0295 114.285 60.9271 114.158 60.9271Z" stroke="#626C84" stroke-linecap="round" stroke-linejoin="round"/>
</g>
<g style="mix-blend-mode:multiply" opacity="0.33">
<path d="M79.9521 54.57H72.7114C72.5851 54.57 72.4827 54.6725 72.4827 54.7988V57.5431C72.4827 57.6694 72.5851 57.7718 72.7114 57.7718H79.9521C80.0784 57.7718 80.1809 57.6694 80.1809 57.5431V54.7988C80.1809 54.6725 80.0784 54.57 79.9521 54.57Z" fill="#4E4E4E"/>
<path d="M79.9521 54.57H72.7114C72.5851 54.57 72.4827 54.6725 72.4827 54.7988V57.5431C72.4827 57.6694 72.5851 57.7718 72.7114 57.7718H79.9521C80.0784 57.7718 80.1809 57.6694 80.1809 57.5431V54.7988C80.1809 54.6725 80.0784 54.57 79.9521 54.57Z" stroke="#626C84" stroke-linecap="round" stroke-linejoin="round"/>
</g>
<g style="mix-blend-mode:multiply" opacity="0.33">
<path d="M84.9455 54.57H82.1993C82.0729 54.57 81.9704 54.6725 81.9704 54.7988V57.5431C81.9704 57.6694 82.0729 57.7718 82.1993 57.7718H84.9455C85.0718 57.7718 85.1743 57.6694 85.1743 57.5431V54.7988C85.1743 54.6725 85.0718 54.57 84.9455 54.57Z" fill="#4E4E4E"/>
<path d="M84.9455 54.57H82.1993C82.0729 54.57 81.9704 54.6725 81.9704 54.7988V57.5431C81.9704 57.6694 82.0729 57.7718 82.1993 57.7718H84.9455C85.0718 57.7718 85.1743 57.6694 85.1743 57.5431V54.7988C85.1743 54.6725 85.0718 54.57 84.9455 54.57Z" stroke="#626C84" stroke-linecap="round" stroke-linejoin="round"/>
</g>
<g style="mix-blend-mode:multiply" opacity="0.33">
<path d="M89.8975 54.57H87.1513C87.0248 54.57 86.9224 54.6725 86.9224 54.7988V57.5431C86.9224 57.6694 87.0248 57.7718 87.1513 57.7718H89.8975C90.0238 57.7718 90.1263 57.6694 90.1263 57.5431V54.7988C90.1263 54.6725 90.0238 54.57 89.8975 54.57Z" fill="#4E4E4E"/>
<path d="M89.8975 54.57H87.1513C87.0248 54.57 86.9224 54.6725 86.9224 54.7988V57.5431C86.9224 57.6694 87.0248 57.7718 87.1513 57.7718H89.8975C90.0238 57.7718 90.1263 57.6694 90.1263 57.5431V54.7988C90.1263 54.6725 90.0238 54.57 89.8975 54.57Z" stroke="#626C84" stroke-linecap="round" stroke-linejoin="round"/>
</g>
<g style="mix-blend-mode:multiply" opacity="0.33">
<path d="M94.8495 54.57H92.1033C91.9768 54.57 91.8744 54.6725 91.8744 54.7988V57.5431C91.8744 57.6694 91.9768 57.7718 92.1033 57.7718H94.8495C94.9758 57.7718 95.0784 57.6694 95.0784 57.5431V54.7988C95.0784 54.6725 94.9758 54.57 94.8495 54.57Z" fill="#4E4E4E"/>
<path d="M94.8495 54.57H92.1033C91.9768 54.57 91.8744 54.6725 91.8744 54.7988V57.5431C91.8744 57.6694 91.9768 57.7718 92.1033 57.7718H94.8495C94.9758 57.7718 95.0784 57.6694 95.0784 57.5431V54.7988C95.0784 54.6725 94.9758 54.57 94.8495 54.57Z" stroke="#626C84" stroke-linecap="round" stroke-linejoin="round"/>
</g>
<g style="mix-blend-mode:multiply" opacity="0.33">
<path d="M99.8011 54.57H97.0549C96.9286 54.57 96.8261 54.6725 96.8261 54.7988V57.5431C96.8261 57.6694 96.9286 57.7718 97.0549 57.7718H99.8011C99.9275 57.7718 100.03 57.6694 100.03 57.5431V54.7988C100.03 54.6725 99.9275 54.57 99.8011 54.57Z" fill="#4E4E4E"/>
<path d="M99.8011 54.57H97.0549C96.9286 54.57 96.8261 54.6725 96.8261 54.7988V57.5431C96.8261 57.6694 96.9286 57.7718 97.0549 57.7718H99.8011C99.9275 57.7718 100.03 57.6694 100.03 57.5431V54.7988C100.03 54.6725 99.9275 54.57 99.8011 54.57Z" stroke="#626C84" stroke-linecap="round" stroke-linejoin="round"/>
</g>
<g style="mix-blend-mode:multiply" opacity="0.33">
<path d="M104.753 54.57H102.007C101.881 54.57 101.778 54.6725 101.778 54.7988V57.5431C101.778 57.6694 101.881 57.7718 102.007 57.7718H104.753C104.88 57.7718 104.982 57.6694 104.982 57.5431V54.7988C104.982 54.6725 104.88 54.57 104.753 54.57Z" fill="#4E4E4E"/>
<path d="M104.753 54.57H102.007C101.881 54.57 101.778 54.6725 101.778 54.7988V57.5431C101.778 57.6694 101.881 57.7718 102.007 57.7718H104.753C104.88 57.7718 104.982 57.6694 104.982 57.5431V54.7988C104.982 54.6725 104.88 54.57 104.753 54.57Z" stroke="#626C84" stroke-linecap="round" stroke-linejoin="round"/>
</g>
<g style="mix-blend-mode:multiply" opacity="0.33">
<path d="M109.705 54.57H106.959C106.833 54.57 106.73 54.6725 106.73 54.7988V57.5431C106.73 57.6694 106.833 57.7718 106.959 57.7718H109.705C109.832 57.7718 109.934 57.6694 109.934 57.5431V54.7988C109.934 54.6725 109.832 54.57 109.705 54.57Z" fill="#4E4E4E"/>
<path d="M109.705 54.57H106.959C106.833 54.57 106.73 54.6725 106.73 54.7988V57.5431C106.73 57.6694 106.833 57.7718 106.959 57.7718H109.705C109.832 57.7718 109.934 57.6694 109.934 57.5431V54.7988C109.934 54.6725 109.832 54.57 109.705 54.57Z" stroke="#626C84" stroke-linecap="round" stroke-linejoin="round"/>
</g>
<g style="mix-blend-mode:multiply" opacity="0.33">
<path d="M120.566 54.57H112.328C112.201 54.57 112.099 54.6725 112.099 54.7988V57.5431C112.099 57.6694 112.201 57.7718 112.328 57.7718H120.566C120.693 57.7718 120.795 57.6694 120.795 57.5431V54.7988C120.795 54.6725 120.693 54.57 120.566 54.57Z" fill="#4E4E4E"/>
<path d="M120.566 54.57H112.328C112.201 54.57 112.099 54.6725 112.099 54.7988V57.5431C112.099 57.6694 112.201 57.7718 112.328 57.7718H120.566C120.693 57.7718 120.795 57.6694 120.795 57.5431V54.7988C120.795 54.6725 120.693 54.57 120.566 54.57Z" stroke="#626C84" stroke-linecap="round" stroke-linejoin="round"/>
</g>
<g style="mix-blend-mode:multiply" opacity="0.33">
<path d="M83.156 49.8866H80.4098C80.2835 49.8866 80.1811 49.9889 80.1811 50.1152V52.8596C80.1811 52.986 80.2835 53.0883 80.4098 53.0883H83.156C83.2825 53.0883 83.3849 52.986 83.3849 52.8596V50.1152C83.3849 49.9889 83.2825 49.8866 83.156 49.8866Z" fill="#4E4E4E"/>
<path d="M83.156 49.8866H80.4098C80.2835 49.8866 80.1811 49.9889 80.1811 50.1152V52.8596C80.1811 52.986 80.2835 53.0883 80.4098 53.0883H83.156C83.2825 53.0883 83.3849 52.986 83.3849 52.8596V50.1152C83.3849 49.9889 83.2825 49.8866 83.156 49.8866Z" stroke="#626C84" stroke-linecap="round" stroke-linejoin="round"/>
</g>
<g style="mix-blend-mode:multiply" opacity="0.33">
<path d="M78.2038 49.8866H72.7114C72.5851 49.8866 72.4827 49.9889 72.4827 50.1152V52.8596C72.4827 52.986 72.5851 53.0883 72.7114 53.0883H78.2038C78.3303 53.0883 78.4327 52.986 78.4327 52.8596V50.1152C78.4327 49.9889 78.3303 49.8866 78.2038 49.8866Z" fill="#4E4E4E"/>
<path d="M78.2038 49.8866H72.7114C72.5851 49.8866 72.4827 49.9889 72.4827 50.1152V52.8596C72.4827 52.986 72.5851 53.0883 72.7114 53.0883H78.2038C78.3303 53.0883 78.4327 52.986 78.4327 52.8596V50.1152C78.4327 49.9889 78.3303 49.8866 78.2038 49.8866Z" stroke="#626C84" stroke-linecap="round" stroke-linejoin="round"/>
</g>
<g style="mix-blend-mode:multiply" opacity="0.33">
<path d="M88.108 49.8866H85.3618C85.2355 49.8866 85.1331 49.9889 85.1331 50.1152V52.8596C85.1331 52.986 85.2355 53.0883 85.3618 53.0883H88.108C88.2345 53.0883 88.3369 52.986 88.3369 52.8596V50.1152C88.3369 49.9889 88.2345 49.8866 88.108 49.8866Z" fill="#4E4E4E"/>
<path d="M88.108 49.8866H85.3618C85.2355 49.8866 85.1331 49.9889 85.1331 50.1152V52.8596C85.1331 52.986 85.2355 53.0883 85.3618 53.0883H88.108C88.2345 53.0883 88.3369 52.986 88.3369 52.8596V50.1152C88.3369 49.9889 88.2345 49.8866 88.108 49.8866Z" stroke="#626C84" stroke-linecap="round" stroke-linejoin="round"/>
</g>
<g style="mix-blend-mode:multiply" opacity="0.33">
<path d="M93.0602 49.8866H90.314C90.1875 49.8866 90.0851 49.9889 90.0851 50.1152V52.8596C90.0851 52.986 90.1875 53.0883 90.314 53.0883H93.0602C93.1865 53.0883 93.2889 52.986 93.2889 52.8596V50.1152C93.2889 49.9889 93.1865 49.8866 93.0602 49.8866Z" fill="#4E4E4E"/>
<path d="M93.0602 49.8866H90.314C90.1875 49.8866 90.0851 49.9889 90.0851 50.1152V52.8596C90.0851 52.986 90.1875 53.0883 90.314 53.0883H93.0602C93.1865 53.0883 93.2889 52.986 93.2889 52.8596V50.1152C93.2889 49.9889 93.1865 49.8866 93.0602 49.8866Z" stroke="#626C84" stroke-linecap="round" stroke-linejoin="round"/>
</g>
<g style="mix-blend-mode:multiply" opacity="0.33">
<path d="M98.0119 49.8866H95.2657C95.1393 49.8866 95.0368 49.9889 95.0368 50.1152V52.8596C95.0368 52.986 95.1393 53.0883 95.2657 53.0883H98.0119C98.1383 53.0883 98.2407 52.986 98.2407 52.8596V50.1152C98.2407 49.9889 98.1383 49.8866 98.0119 49.8866Z" fill="#4E4E4E"/>
<path d="M98.0119 49.8866H95.2657C95.1393 49.8866 95.0368 49.9889 95.0368 50.1152V52.8596C95.0368 52.986 95.1393 53.0883 95.2657 53.0883H98.0119C98.1383 53.0883 98.2407 52.986 98.2407 52.8596V50.1152C98.2407 49.9889 98.1383 49.8866 98.0119 49.8866Z" stroke="#626C84" stroke-linecap="round" stroke-linejoin="round"/>
</g>
<g style="mix-blend-mode:multiply" opacity="0.33">
<path d="M102.964 49.8866H100.218C100.091 49.8866 99.9889 49.9889 99.9889 50.1152V52.8596C99.9889 52.986 100.091 53.0883 100.218 53.0883H102.964C103.09 53.0883 103.193 52.986 103.193 52.8596V50.1152C103.193 49.9889 103.09 49.8866 102.964 49.8866Z" fill="#4E4E4E"/>
<path d="M102.964 49.8866H100.218C100.091 49.8866 99.9889 49.9889 99.9889 50.1152V52.8596C99.9889 52.986 100.091 53.0883 100.218 53.0883H102.964C103.09 53.0883 103.193 52.986 103.193 52.8596V50.1152C103.193 49.9889 103.09 49.8866 102.964 49.8866Z" stroke="#626C84" stroke-linecap="round" stroke-linejoin="round"/>
</g>
<g style="mix-blend-mode:multiply" opacity="0.33">
<path d="M107.916 49.8866H105.17C105.044 49.8866 104.941 49.9889 104.941 50.1152V52.8596C104.941 52.986 105.044 53.0883 105.17 53.0883H107.916C108.043 53.0883 108.145 52.986 108.145 52.8596V50.1152C108.145 49.9889 108.043 49.8866 107.916 49.8866Z" fill="#4E4E4E"/>
<path d="M107.916 49.8866H105.17C105.044 49.8866 104.941 49.9889 104.941 50.1152V52.8596C104.941 52.986 105.044 53.0883 105.17 53.0883H107.916C108.043 53.0883 108.145 52.986 108.145 52.8596V50.1152C108.145 49.9889 108.043 49.8866 107.916 49.8866Z" stroke="#626C84" stroke-linecap="round" stroke-linejoin="round"/>
</g>
<g style="mix-blend-mode:multiply" opacity="0.33">
<path d="M112.868 49.8866H110.122C109.995 49.8866 109.893 49.9889 109.893 50.1152V52.8596C109.893 52.986 109.995 53.0883 110.122 53.0883H112.868C112.994 53.0883 113.097 52.986 113.097 52.8596V50.1152C113.097 49.9889 112.994 49.8866 112.868 49.8866Z" fill="#4E4E4E"/>
<path d="M112.868 49.8866H110.122C109.995 49.8866 109.893 49.9889 109.893 50.1152V52.8596C109.893 52.986 109.995 53.0883 110.122 53.0883H112.868C112.994 53.0883 113.097 52.986 113.097 52.8596V50.1152C113.097 49.9889 112.994 49.8866 112.868 49.8866Z" stroke="#626C84" stroke-linecap="round" stroke-linejoin="round"/>
</g>
<g style="mix-blend-mode:multiply" opacity="0.33">
<path d="M120.566 49.8866H115.074C114.947 49.8866 114.845 49.9889 114.845 50.1152V52.8596C114.845 52.986 114.947 53.0883 115.074 53.0883H120.566C120.692 53.0883 120.795 52.986 120.795 52.8596V50.1152C120.795 49.9889 120.692 49.8866 120.566 49.8866Z" fill="#4E4E4E"/>
<path d="M120.566 49.8866H115.074C114.947 49.8866 114.845 49.9889 114.845 50.1152V52.8596C114.845 52.986 114.947 53.0883 115.074 53.0883H120.566C120.692 53.0883 120.795 52.986 120.795 52.8596V50.1152C120.795 49.9889 120.692 49.8866 120.566 49.8866Z" stroke="#626C84" stroke-linecap="round" stroke-linejoin="round"/>
</g>
<g style="mix-blend-mode:multiply" opacity="0.33">
<path d="M80.4702 45.4043H77.724C77.5976 45.4043 77.4952 45.5068 77.4952 45.6331V48.3774C77.4952 48.5037 77.5976 48.6061 77.724 48.6061H80.4702C80.5966 48.6061 80.6991 48.5037 80.6991 48.3774V45.6331C80.6991 45.5068 80.5966 45.4043 80.4702 45.4043Z" fill="#4E4E4E"/>
<path d="M80.4702 45.4043H77.724C77.5976 45.4043 77.4952 45.5068 77.4952 45.6331V48.3774C77.4952 48.5037 77.5976 48.6061 77.724 48.6061H80.4702C80.5966 48.6061 80.6991 48.5037 80.6991 48.3774V45.6331C80.6991 45.5068 80.5966 45.4043 80.4702 45.4043Z" stroke="#626C84" stroke-linecap="round" stroke-linejoin="round"/>
</g>
<g style="mix-blend-mode:multiply" opacity="0.33">
<path d="M75.4576 45.4043H72.7114C72.5851 45.4043 72.4827 45.5068 72.4827 45.6331V48.3774C72.4827 48.5037 72.5851 48.6061 72.7114 48.6061H75.4576C75.5841 48.6061 75.6865 48.5037 75.6865 48.3774V45.6331C75.6865 45.5068 75.5841 45.4043 75.4576 45.4043Z" fill="#4E4E4E"/>
<path d="M75.4576 45.4043H72.7114C72.5851 45.4043 72.4827 45.5068 72.4827 45.6331V48.3774C72.4827 48.5037 72.5851 48.6061 72.7114 48.6061H75.4576C75.5841 48.6061 75.6865 48.5037 75.6865 48.3774V45.6331C75.6865 45.5068 75.5841 45.4043 75.4576 45.4043Z" stroke="#626C84" stroke-linecap="round" stroke-linejoin="round"/>
</g>
<g style="mix-blend-mode:multiply" opacity="0.33">
<path d="M85.482 45.4043H82.7358C82.6094 45.4043 82.507 45.5068 82.507 45.6331V48.3774C82.507 48.5037 82.6094 48.6061 82.7358 48.6061H85.482C85.6084 48.6061 85.7108 48.5037 85.7108 48.3774V45.6331C85.7108 45.5068 85.6084 45.4043 85.482 45.4043Z" fill="#4E4E4E"/>
<path d="M85.482 45.4043H82.7358C82.6094 45.4043 82.507 45.5068 82.507 45.6331V48.3774C82.507 48.5037 82.6094 48.6061 82.7358 48.6061H85.482C85.6084 48.6061 85.7108 48.5037 85.7108 48.3774V45.6331C85.7108 45.5068 85.6084 45.4043 85.482 45.4043Z" stroke="#626C84" stroke-linecap="round" stroke-linejoin="round"/>
</g>
<g style="mix-blend-mode:multiply" opacity="0.33">
<path d="M90.4937 45.4043H87.7475C87.6212 45.4043 87.5188 45.5068 87.5188 45.6331V48.3774C87.5188 48.5037 87.6212 48.6061 87.7475 48.6061H90.4937C90.6202 48.6061 90.7226 48.5037 90.7226 48.3774V45.6331C90.7226 45.5068 90.6202 45.4043 90.4937 45.4043Z" fill="#4E4E4E"/>
<path d="M90.4937 45.4043H87.7475C87.6212 45.4043 87.5188 45.5068 87.5188 45.6331V48.3774C87.5188 48.5037 87.6212 48.6061 87.7475 48.6061H90.4937C90.6202 48.6061 90.7226 48.5037 90.7226 48.3774V45.6331C90.7226 45.5068 90.6202 45.4043 90.4937 45.4043Z" stroke="#626C84" stroke-linecap="round" stroke-linejoin="round"/>
</g>
<g style="mix-blend-mode:multiply" opacity="0.33">
<path d="M95.5062 45.4043H92.76C92.6336 45.4043 92.5311 45.5068 92.5311 45.6331V48.3774C92.5311 48.5037 92.6336 48.6061 92.76 48.6061H95.5062C95.6326 48.6061 95.7351 48.5037 95.7351 48.3774V45.6331C95.7351 45.5068 95.6326 45.4043 95.5062 45.4043Z" fill="#4E4E4E"/>
<path d="M95.5062 45.4043H92.76C92.6336 45.4043 92.5311 45.5068 92.5311 45.6331V48.3774C92.5311 48.5037 92.6336 48.6061 92.76 48.6061H95.5062C95.6326 48.6061 95.7351 48.5037 95.7351 48.3774V45.6331C95.7351 45.5068 95.6326 45.4043 95.5062 45.4043Z" stroke="#626C84" stroke-linecap="round" stroke-linejoin="round"/>
</g>
<g style="mix-blend-mode:multiply" opacity="0.33">
<path d="M100.518 45.4043H97.7715C97.6452 45.4043 97.5426 45.5068 97.5426 45.6331V48.3774C97.5426 48.5037 97.6452 48.6061 97.7715 48.6061H100.518C100.644 48.6061 100.747 48.5037 100.747 48.3774V45.6331C100.747 45.5068 100.644 45.4043 100.518 45.4043Z" fill="#4E4E4E"/>
<path d="M100.518 45.4043H97.7715C97.6452 45.4043 97.5426 45.5068 97.5426 45.6331V48.3774C97.5426 48.5037 97.6452 48.6061 97.7715 48.6061H100.518C100.644 48.6061 100.747 48.5037 100.747 48.3774V45.6331C100.747 45.5068 100.644 45.4043 100.518 45.4043Z" stroke="#626C84" stroke-linecap="round" stroke-linejoin="round"/>
</g>
<g style="mix-blend-mode:multiply" opacity="0.33">
<path d="M105.53 45.4043H102.784C102.658 45.4043 102.555 45.5068 102.555 45.6331V48.3774C102.555 48.5037 102.658 48.6061 102.784 48.6061H105.53C105.657 48.6061 105.759 48.5037 105.759 48.3774V45.6331C105.759 45.5068 105.657 45.4043 105.53 45.4043Z" fill="#4E4E4E"/>
<path d="M105.53 45.4043H102.784C102.658 45.4043 102.555 45.5068 102.555 45.6331V48.3774C102.555 48.5037 102.658 48.6061 102.784 48.6061H105.53C105.657 48.6061 105.759 48.5037 105.759 48.3774V45.6331C105.759 45.5068 105.657 45.4043 105.53 45.4043Z" stroke="#626C84" stroke-linecap="round" stroke-linejoin="round"/>
</g>
<g style="mix-blend-mode:multiply" opacity="0.33">
<path d="M110.542 45.4043H107.796C107.67 45.4043 107.567 45.5068 107.567 45.6331V48.3774C107.567 48.5037 107.67 48.6061 107.796 48.6061H110.542C110.668 48.6061 110.771 48.5037 110.771 48.3774V45.6331C110.771 45.5068 110.668 45.4043 110.542 45.4043Z" fill="#4E4E4E"/>
<path d="M110.542 45.4043H107.796C107.67 45.4043 107.567 45.5068 107.567 45.6331V48.3774C107.567 48.5037 107.67 48.6061 107.796 48.6061H110.542C110.668 48.6061 110.771 48.5037 110.771 48.3774V45.6331C110.771 45.5068 110.668 45.4043 110.542 45.4043Z" stroke="#626C84" stroke-linecap="round" stroke-linejoin="round"/>
</g>
<g style="mix-blend-mode:multiply" opacity="0.33">
<path d="M115.554 45.4043H112.808C112.681 45.4043 112.579 45.5068 112.579 45.6331V48.3774C112.579 48.5037 112.681 48.6061 112.808 48.6061H115.554C115.68 48.6061 115.783 48.5037 115.783 48.3774V45.6331C115.783 45.5068 115.68 45.4043 115.554 45.4043Z" fill="#4E4E4E"/>
<path d="M115.554 45.4043H112.808C112.681 45.4043 112.579 45.5068 112.579 45.6331V48.3774C112.579 48.5037 112.681 48.6061 112.808 48.6061H115.554C115.68 48.6061 115.783 48.5037 115.783 48.3774V45.6331C115.783 45.5068 115.68 45.4043 115.554 45.4043Z" stroke="#626C84" stroke-linecap="round" stroke-linejoin="round"/>
</g>
<g style="mix-blend-mode:multiply" opacity="0.33">
<path d="M120.566 45.4043H117.82C117.694 45.4043 117.591 45.5068 117.591 45.6331V48.3774C117.591 48.5037 117.694 48.6061 117.82 48.6061H120.566C120.693 48.6061 120.795 48.5037 120.795 48.3774V45.6331C120.795 45.5068 120.693 45.4043 120.566 45.4043Z" fill="#4E4E4E"/>
<path d="M120.566 45.4043H117.82C117.694 45.4043 117.591 45.5068 117.591 45.6331V48.3774C117.591 48.5037 117.694 48.6061 117.82 48.6061H120.566C120.693 48.6061 120.795 48.5037 120.795 48.3774V45.6331C120.795 45.5068 120.693 45.4043 120.566 45.4043Z" stroke="#626C84" stroke-linecap="round" stroke-linejoin="round"/>
</g>
<g style="mix-blend-mode:multiply" opacity="0.33">
<path d="M80.4101 59.1261H77.6639C77.5376 59.1261 77.4352 59.2284 77.4352 59.3547V62.0991C77.4352 62.2254 77.5376 62.3279 77.6639 62.3279H80.4101C80.5366 62.3279 80.639 62.2254 80.639 62.0991V59.3547C80.639 59.2284 80.5366 59.1261 80.4101 59.1261Z" fill="#4E4E4E"/>
</g>
<g style="mix-blend-mode:multiply" opacity="0.33">
<path d="M75.4576 59.1261H72.7114C72.5851 59.1261 72.4827 59.2284 72.4827 59.3547V62.0991C72.4827 62.2254 72.5851 62.3279 72.7114 62.3279H75.4576C75.5841 62.3279 75.6865 62.2254 75.6865 62.0991V59.3547C75.6865 59.2284 75.5841 59.1261 75.4576 59.1261Z" fill="#4E4E4E"/>
</g>
<g style="mix-blend-mode:multiply" opacity="0.33">
<path d="M105.17 59.1261H82.6154C82.4891 59.1261 82.3867 59.2284 82.3867 59.3547V62.0991C82.3867 62.2254 82.4891 62.3279 82.6154 62.3279H105.17C105.296 62.3279 105.398 62.2254 105.398 62.0991V59.3547C105.398 59.2284 105.296 59.1261 105.17 59.1261Z" fill="#4E4E4E"/>
</g>
<g style="mix-blend-mode:multiply" opacity="0.33">
<path d="M110.122 59.1261H107.376C107.25 59.1261 107.147 59.2284 107.147 59.3547V62.0991C107.147 62.2254 107.25 62.3279 107.376 62.3279H110.122C110.248 62.3279 110.351 62.2254 110.351 62.0991V59.3547C110.351 59.2284 110.248 59.1261 110.122 59.1261Z" fill="#4E4E4E"/>
</g>
<g style="mix-blend-mode:multiply" opacity="0.33">
<path d="M117.362 60.9271H115.532C115.405 60.9271 115.303 61.0295 115.303 61.1557V62.0992C115.303 62.2255 115.405 62.3278 115.532 62.3278H117.362C117.489 62.3278 117.591 62.2255 117.591 62.0992V61.1557C117.591 61.0295 117.489 60.9271 117.362 60.9271Z" fill="#4E4E4E"/>
</g>
<g style="mix-blend-mode:multiply" opacity="0.33">
<path d="M117.362 59.1261H115.532C115.405 59.1261 115.303 59.2284 115.303 59.3547V60.2981C115.303 60.4245 115.405 60.5268 115.532 60.5268H117.362C117.489 60.5268 117.591 60.4245 117.591 60.2981V59.3547C117.591 59.2284 117.489 59.1261 117.362 59.1261Z" fill="#4E4E4E"/>
</g>
<g style="mix-blend-mode:multiply" opacity="0.33">
<path d="M120.566 60.9271H118.735C118.609 60.9271 118.506 61.0295 118.506 61.1557V62.0992C118.506 62.2255 118.609 62.3278 118.735 62.3278H120.566C120.693 62.3278 120.795 62.2255 120.795 62.0992V61.1557C120.795 61.0295 120.693 60.9271 120.566 60.9271Z" fill="#4E4E4E"/>
</g>
<g style="mix-blend-mode:multiply" opacity="0.33">
<path d="M114.158 60.9271H112.328C112.201 60.9271 112.099 61.0295 112.099 61.1557V62.0992C112.099 62.2255 112.201 62.3278 112.328 62.3278H114.158C114.285 62.3278 114.387 62.2255 114.387 62.0992V61.1557C114.387 61.0295 114.285 60.9271 114.158 60.9271Z" fill="#4E4E4E"/>
</g>
<g style="mix-blend-mode:multiply" opacity="0.33">
<path d="M79.9521 54.57H72.7114C72.5851 54.57 72.4827 54.6725 72.4827 54.7988V57.5431C72.4827 57.6694 72.5851 57.7718 72.7114 57.7718H79.9521C80.0784 57.7718 80.1809 57.6694 80.1809 57.5431V54.7988C80.1809 54.6725 80.0784 54.57 79.9521 54.57Z" fill="#4E4E4E"/>
</g>
<g style="mix-blend-mode:multiply" opacity="0.33">
<path d="M84.9455 54.57H82.1993C82.0729 54.57 81.9704 54.6725 81.9704 54.7988V57.5431C81.9704 57.6694 82.0729 57.7718 82.1993 57.7718H84.9455C85.0718 57.7718 85.1743 57.6694 85.1743 57.5431V54.7988C85.1743 54.6725 85.0718 54.57 84.9455 54.57Z" fill="#4E4E4E"/>
</g>
<g style="mix-blend-mode:multiply" opacity="0.33">
<path d="M89.8975 54.57H87.1513C87.0248 54.57 86.9224 54.6725 86.9224 54.7988V57.5431C86.9224 57.6694 87.0248 57.7718 87.1513 57.7718H89.8975C90.0238 57.7718 90.1263 57.6694 90.1263 57.5431V54.7988C90.1263 54.6725 90.0238 54.57 89.8975 54.57Z" fill="#4E4E4E"/>
</g>
<g style="mix-blend-mode:multiply" opacity="0.33">
<path d="M94.8495 54.57H92.1033C91.9768 54.57 91.8744 54.6725 91.8744 54.7988V57.5431C91.8744 57.6694 91.9768 57.7718 92.1033 57.7718H94.8495C94.9758 57.7718 95.0784 57.6694 95.0784 57.5431V54.7988C95.0784 54.6725 94.9758 54.57 94.8495 54.57Z" fill="#4E4E4E"/>
</g>
<g style="mix-blend-mode:multiply" opacity="0.33">
<path d="M99.8011 54.57H97.0549C96.9286 54.57 96.8261 54.6725 96.8261 54.7988V57.5431C96.8261 57.6694 96.9286 57.7718 97.0549 57.7718H99.8011C99.9275 57.7718 100.03 57.6694 100.03 57.5431V54.7988C100.03 54.6725 99.9275 54.57 99.8011 54.57Z" fill="#4E4E4E"/>
</g>
<g style="mix-blend-mode:multiply" opacity="0.33">
<path d="M104.753 54.57H102.007C101.881 54.57 101.778 54.6725 101.778 54.7988V57.5431C101.778 57.6694 101.881 57.7718 102.007 57.7718H104.753C104.88 57.7718 104.982 57.6694 104.982 57.5431V54.7988C104.982 54.6725 104.88 54.57 104.753 54.57Z" fill="#4E4E4E"/>
</g>
<g style="mix-blend-mode:multiply" opacity="0.33">
<path d="M109.705 54.57H106.959C106.833 54.57 106.73 54.6725 106.73 54.7988V57.5431C106.73 57.6694 106.833 57.7718 106.959 57.7718H109.705C109.832 57.7718 109.934 57.6694 109.934 57.5431V54.7988C109.934 54.6725 109.832 54.57 109.705 54.57Z" fill="#4E4E4E"/>
</g>
<g style="mix-blend-mode:multiply" opacity="0.33">
<path d="M120.566 54.57H112.328C112.201 54.57 112.099 54.6725 112.099 54.7988V57.5431C112.099 57.6694 112.201 57.7718 112.328 57.7718H120.566C120.693 57.7718 120.795 57.6694 120.795 57.5431V54.7988C120.795 54.6725 120.693 54.57 120.566 54.57Z" fill="#4E4E4E"/>
</g>
<g style="mix-blend-mode:multiply" opacity="0.33">
<path d="M83.156 49.8866H80.4098C80.2835 49.8866 80.1811 49.9889 80.1811 50.1152V52.8596C80.1811 52.986 80.2835 53.0883 80.4098 53.0883H83.156C83.2825 53.0883 83.3849 52.986 83.3849 52.8596V50.1152C83.3849 49.9889 83.2825 49.8866 83.156 49.8866Z" fill="#4E4E4E"/>
</g>
<g style="mix-blend-mode:multiply" opacity="0.33">
<path d="M78.2038 49.8866H72.7114C72.5851 49.8866 72.4827 49.9889 72.4827 50.1152V52.8596C72.4827 52.986 72.5851 53.0883 72.7114 53.0883H78.2038C78.3303 53.0883 78.4327 52.986 78.4327 52.8596V50.1152C78.4327 49.9889 78.3303 49.8866 78.2038 49.8866Z" fill="#4E4E4E"/>
</g>
<g style="mix-blend-mode:multiply" opacity="0.33">
<path d="M88.108 49.8866H85.3618C85.2355 49.8866 85.1331 49.9889 85.1331 50.1152V52.8596C85.1331 52.986 85.2355 53.0883 85.3618 53.0883H88.108C88.2345 53.0883 88.3369 52.986 88.3369 52.8596V50.1152C88.3369 49.9889 88.2345 49.8866 88.108 49.8866Z" fill="#4E4E4E"/>
</g>
<g style="mix-blend-mode:multiply" opacity="0.33">
<path d="M93.0602 49.8866H90.314C90.1875 49.8866 90.0851 49.9889 90.0851 50.1152V52.8596C90.0851 52.986 90.1875 53.0883 90.314 53.0883H93.0602C93.1865 53.0883 93.2889 52.986 93.2889 52.8596V50.1152C93.2889 49.9889 93.1865 49.8866 93.0602 49.8866Z" fill="#4E4E4E"/>
</g>
<g style="mix-blend-mode:multiply" opacity="0.33">
<path d="M98.0119 49.8866H95.2657C95.1393 49.8866 95.0368 49.9889 95.0368 50.1152V52.8596C95.0368 52.986 95.1393 53.0883 95.2657 53.0883H98.0119C98.1383 53.0883 98.2407 52.986 98.2407 52.8596V50.1152C98.2407 49.9889 98.1383 49.8866 98.0119 49.8866Z" fill="#4E4E4E"/>
</g>
<g style="mix-blend-mode:multiply" opacity="0.33">
<path d="M102.964 49.8866H100.218C100.091 49.8866 99.9889 49.9889 99.9889 50.1152V52.8596C99.9889 52.986 100.091 53.0883 100.218 53.0883H102.964C103.09 53.0883 103.193 52.986 103.193 52.8596V50.1152C103.193 49.9889 103.09 49.8866 102.964 49.8866Z" fill="#4E4E4E"/>
</g>
<g style="mix-blend-mode:multiply" opacity="0.33">
<path d="M107.916 49.8866H105.17C105.044 49.8866 104.941 49.9889 104.941 50.1152V52.8596C104.941 52.986 105.044 53.0883 105.17 53.0883H107.916C108.043 53.0883 108.145 52.986 108.145 52.8596V50.1152C108.145 49.9889 108.043 49.8866 107.916 49.8866Z" fill="#4E4E4E"/>
</g>
<g style="mix-blend-mode:multiply" opacity="0.33">
<path d="M112.868 49.8866H110.122C109.995 49.8866 109.893 49.9889 109.893 50.1152V52.8596C109.893 52.986 109.995 53.0883 110.122 53.0883H112.868C112.994 53.0883 113.097 52.986 113.097 52.8596V50.1152C113.097 49.9889 112.994 49.8866 112.868 49.8866Z" fill="#4E4E4E"/>
</g>
<g style="mix-blend-mode:multiply" opacity="0.33">
<path d="M120.566 49.8866H115.074C114.947 49.8866 114.845 49.9889 114.845 50.1152V52.8596C114.845 52.986 114.947 53.0883 115.074 53.0883H120.566C120.692 53.0883 120.795 52.986 120.795 52.8596V50.1152C120.795 49.9889 120.692 49.8866 120.566 49.8866Z" fill="#4E4E4E"/>
</g>
<g style="mix-blend-mode:multiply" opacity="0.33">
<path d="M80.4702 45.4043H77.724C77.5976 45.4043 77.4952 45.5068 77.4952 45.6331V48.3774C77.4952 48.5037 77.5976 48.6061 77.724 48.6061H80.4702C80.5966 48.6061 80.6991 48.5037 80.6991 48.3774V45.6331C80.6991 45.5068 80.5966 45.4043 80.4702 45.4043Z" fill="#4E4E4E"/>
</g>
<g style="mix-blend-mode:multiply" opacity="0.33">
<path d="M75.4576 45.4043H72.7114C72.5851 45.4043 72.4827 45.5068 72.4827 45.6331V48.3774C72.4827 48.5037 72.5851 48.6061 72.7114 48.6061H75.4576C75.5841 48.6061 75.6865 48.5037 75.6865 48.3774V45.6331C75.6865 45.5068 75.5841 45.4043 75.4576 45.4043Z" fill="#4E4E4E"/>
</g>
<g style="mix-blend-mode:multiply" opacity="0.33">
<path d="M85.482 45.4043H82.7358C82.6094 45.4043 82.507 45.5068 82.507 45.6331V48.3774C82.507 48.5037 82.6094 48.6061 82.7358 48.6061H85.482C85.6084 48.6061 85.7108 48.5037 85.7108 48.3774V45.6331C85.7108 45.5068 85.6084 45.4043 85.482 45.4043Z" fill="#4E4E4E"/>
</g>
<g style="mix-blend-mode:multiply" opacity="0.33">
<path d="M90.4937 45.4043H87.7475C87.6212 45.4043 87.5188 45.5068 87.5188 45.6331V48.3774C87.5188 48.5037 87.6212 48.6061 87.7475 48.6061H90.4937C90.6202 48.6061 90.7226 48.5037 90.7226 48.3774V45.6331C90.7226 45.5068 90.6202 45.4043 90.4937 45.4043Z" fill="#4E4E4E"/>
</g>
<g style="mix-blend-mode:multiply" opacity="0.33">
<path d="M95.5062 45.4043H92.76C92.6336 45.4043 92.5311 45.5068 92.5311 45.6331V48.3774C92.5311 48.5037 92.6336 48.6061 92.76 48.6061H95.5062C95.6326 48.6061 95.7351 48.5037 95.7351 48.3774V45.6331C95.7351 45.5068 95.6326 45.4043 95.5062 45.4043Z" fill="#4E4E4E"/>
</g>
<g style="mix-blend-mode:multiply" opacity="0.33">
<path d="M100.518 45.4043H97.7715C97.6452 45.4043 97.5426 45.5068 97.5426 45.6331V48.3774C97.5426 48.5037 97.6452 48.6061 97.7715 48.6061H100.518C100.644 48.6061 100.747 48.5037 100.747 48.3774V45.6331C100.747 45.5068 100.644 45.4043 100.518 45.4043Z" fill="#4E4E4E"/>
</g>
<g style="mix-blend-mode:multiply" opacity="0.33">
<path d="M105.53 45.4043H102.784C102.658 45.4043 102.555 45.5068 102.555 45.6331V48.3774C102.555 48.5037 102.658 48.6061 102.784 48.6061H105.53C105.657 48.6061 105.759 48.5037 105.759 48.3774V45.6331C105.759 45.5068 105.657 45.4043 105.53 45.4043Z" fill="#4E4E4E"/>
</g>
<g style="mix-blend-mode:multiply" opacity="0.33">
<path d="M110.542 45.4043H107.796C107.67 45.4043 107.567 45.5068 107.567 45.6331V48.3774C107.567 48.5037 107.67 48.6061 107.796 48.6061H110.542C110.668 48.6061 110.771 48.5037 110.771 48.3774V45.6331C110.771 45.5068 110.668 45.4043 110.542 45.4043Z" fill="#4E4E4E"/>
</g>
<g style="mix-blend-mode:multiply" opacity="0.33">
<path d="M115.554 45.4043H112.808C112.681 45.4043 112.579 45.5068 112.579 45.6331V48.3774C112.579 48.5037 112.681 48.6061 112.808 48.6061H115.554C115.68 48.6061 115.783 48.5037 115.783 48.3774V45.6331C115.783 45.5068 115.68 45.4043 115.554 45.4043Z" fill="#4E4E4E"/>
</g>
<g style="mix-blend-mode:multiply" opacity="0.33">
<path d="M120.566 45.4043H117.82C117.694 45.4043 117.591 45.5068 117.591 45.6331V48.3774C117.591 48.5037 117.694 48.6061 117.82 48.6061H120.566C120.693 48.6061 120.795 48.5037 120.795 48.3774V45.6331C120.795 45.5068 120.693 45.4043 120.566 45.4043Z" fill="#4E4E4E"/>
</g>
<g style="mix-blend-mode:multiply" opacity="0.33">
<path d="M77.1862 38.1078H116.091V41.183C116.091 41.4255 115.994 41.6582 115.823 41.8297C115.651 42.0014 115.418 42.0977 115.175 42.0977H78.1017C77.8589 42.0977 77.626 42.0014 77.4544 41.8297C77.2827 41.6582 77.1862 41.4255 77.1862 41.183V38.1078Z" fill="#4E4E4E"/>
</g>
<g style="mix-blend-mode:multiply" opacity="0.25">
<path d="M115.175 41.1826H78.1017C77.8589 41.1826 77.626 41.0862 77.4544 40.9147C77.2827 40.7431 77.1862 40.5105 77.1862 40.2678V41.1826C77.1862 41.4252 77.2827 41.6579 77.4544 41.8294C77.626 42.0009 77.8589 42.0973 78.1017 42.0973H115.175C115.418 42.0973 115.651 42.0009 115.823 41.8294C115.994 41.6579 116.091 41.4252 116.091 41.1826V40.2678C116.091 40.5105 115.994 40.7431 115.823 40.9147C115.651 41.0862 115.418 41.1826 115.175 41.1826Z" fill="#4E4E4E"/>
</g>
<g style="mix-blend-mode:multiply" opacity="0.33">
<path d="M77.1862 38.1078H116.091V41.183C116.091 41.4255 115.994 41.6582 115.823 41.8297C115.651 42.0014 115.418 42.0977 115.175 42.0977H78.1017C77.8589 42.0977 77.626 42.0014 77.4544 41.8297C77.2827 41.6582 77.1862 41.4255 77.1862 41.183V38.1078Z" fill="#4E4E4E"/>
<path d="M77.1862 38.1078H116.091V41.183C116.091 41.4255 115.994 41.6582 115.823 41.8297C115.651 42.0014 115.418 42.0977 115.175 42.0977H78.1017C77.8589 42.0977 77.626 42.0014 77.4544 41.8297C77.2827 41.6582 77.1862 41.4255 77.1862 41.183V38.1078Z" stroke="#46505C" stroke-linecap="round" stroke-linejoin="round"/>
</g>
<g style="mix-blend-mode:multiply" opacity="0.33">
<path d="M104.648 65.415H88.6291C88.3763 65.415 88.1713 65.6199 88.1713 65.8725V76.6213C88.1713 76.8738 88.3763 77.0786 88.6291 77.0786H104.648C104.901 77.0786 105.106 76.8738 105.106 76.6213V65.8725C105.106 65.6199 104.901 65.415 104.648 65.415Z" fill="#4E4E4E"/>
</g>
<g style="mix-blend-mode:multiply" opacity="0.33">
<path d="M104.648 65.415H88.6291C88.3763 65.415 88.1713 65.6199 88.1713 65.8725V76.6213C88.1713 76.8738 88.3763 77.0786 88.6291 77.0786H104.648C104.901 77.0786 105.106 76.8738 105.106 76.6213V65.8725C105.106 65.6199 104.901 65.415 104.648 65.415Z" fill="#4E4E4E"/>
<path d="M104.648 65.415H88.6291C88.3763 65.415 88.1713 65.6199 88.1713 65.8725V76.6213C88.1713 76.8738 88.3763 77.0786 88.6291 77.0786H104.648C104.901 77.0786 105.106 76.8738 105.106 76.6213V65.8725C105.106 65.6199 104.901 65.415 104.648 65.415Z" stroke="#626C84" stroke-linecap="round" stroke-linejoin="round"/>
</g>
</g>
<path d="M121.366 0.501841H68.2725C66.503 0.501841 65.0685 1.93536 65.0685 3.70363V34.8065C65.0685 36.5748 66.503 38.0083 68.2725 38.0083H121.366C123.135 38.0083 124.569 36.5748 124.569 34.8065V3.70363C124.569 1.93536 123.135 0.501841 121.366 0.501841Z" stroke="black" stroke-linecap="round" stroke-linejoin="round"/>
<path d="M121.366 0.501841H68.2725C66.503 0.501841 65.0685 1.93536 65.0685 3.70363V34.8065C65.0685 36.5748 66.503 38.0083 68.2725 38.0083H121.366C123.135 38.0083 124.569 36.5748 124.569 34.8065V3.70363C124.569 1.93536 123.135 0.501841 121.366 0.501841Z" fill="#626C84"/>
<path d="M121.366 0.501841H68.2725C66.503 0.501841 65.0685 1.93536 65.0685 3.70363V34.8065C65.0685 36.5748 66.503 38.0083 68.2725 38.0083H121.366C123.135 38.0083 124.569 36.5748 124.569 34.8065V3.70363C124.569 1.93536 123.135 0.501841 121.366 0.501841Z" fill="black"/>
<g style="mix-blend-mode:multiply" opacity="0.17">
<path d="M121.366 0.501841H68.2725C66.503 0.501841 65.0685 1.93535 65.0685 3.70363V32.7519C65.0685 34.5202 66.503 35.9537 68.2725 35.9537H121.366C123.135 35.9537 124.569 34.5202 124.569 32.7519V3.70363C124.569 1.93535 123.135 0.501841 121.366 0.501841Z" fill="black"/>
</g>
<path opacity="0.1" d="M68.2725 1.41586H121.366C122.215 1.41586 123.03 1.7531 123.631 2.35355C124.232 2.95401 124.569 3.76839 124.569 4.61765V34.8056V3.70276C124.569 2.85363 124.232 2.03925 123.631 1.4388C123.03 0.83834 122.215 0.501106 121.366 0.501106H68.2725C67.4227 0.501106 66.6079 0.83834 66.007 1.4388C65.4062 2.03925 65.0685 2.85363 65.0685 3.70276V4.61765C65.0685 3.76839 65.4062 2.95401 66.007 2.35355C66.6079 1.7531 67.4227 1.41586 68.2725 1.41586Z" fill="white"/>
<g opacity="0.1">
<path opacity="0.1" d="M83.1997 38.0083H86.8772L114.145 0.501841H110.468L83.1997 38.0083Z" fill="white"/>
<path opacity="0.1" d="M88.9983 38.0083H90.1298L117.398 0.501841H116.266L88.9983 38.0083Z" fill="white"/>
</g>
<path d="M121.366 0.501841H68.2725C66.503 0.501841 65.0685 1.93536 65.0685 3.70363V34.8065C65.0685 36.5748 66.503 38.0083 68.2725 38.0083H121.366C123.135 38.0083 124.569 36.5748 124.569 34.8065V3.70363C124.569 1.93536 123.135 0.501841 121.366 0.501841Z" stroke="black" stroke-linecap="round" stroke-linejoin="round"/>
<path d="M120.45 33.5439V4.72804H69.1879V33.5439H120.45Z" fill="#2C9ACB"/>
<g opacity="0.06">
<path opacity="0.06" d="M86.6744 33.5439H90.3518L111.302 4.72804H107.624L86.6744 33.5439Z" fill="white"/>
<path opacity="0.06" d="M92.4732 33.5439H93.6048L114.555 4.72804H113.423L92.4732 33.5439Z" fill="white"/>
</g>
<path d="M120.45 33.5439V4.72804H69.1879V33.5439H120.45Z" stroke="#46505C" stroke-linecap="round" stroke-linejoin="round"/>
<path d="M121.366 38.0083H68.2725C66.503 38.0083 65.0685 39.4418 65.0685 41.2101V74.1425C65.0685 75.9107 66.503 77.3443 68.2725 77.3443H121.366C123.135 77.3443 124.569 75.9107 124.569 74.1425V41.2101C124.569 39.4418 123.135 38.0083 121.366 38.0083Z" fill="#E6F3FF"/>
<path d="M123.654 74.1427V41.2102C123.654 39.9472 122.629 38.9233 121.366 38.9233H68.2725C67.0086 38.9233 65.984 39.9472 65.984 41.2102V74.1427C65.984 75.4058 67.0086 76.4297 68.2725 76.4297H121.366C122.629 76.4297 123.654 75.4058 123.654 74.1427Z" fill="#CFD1D0" stroke="#E6F3FF" stroke-miterlimit="10"/>
<path d="M91.1461 75.556H98.4922C98.7349 75.556 98.9677 75.6524 99.1394 75.8239C99.3111 75.9955 99.4075 76.2281 99.4075 76.4707V77.3444H90.2306V76.4707C90.2306 76.2281 90.327 75.9955 90.4988 75.8239C90.6704 75.6524 90.9033 75.556 91.1461 75.556Z" fill="#E6F3FF"/>
<path d="M121.366 38.0083H68.2725C66.503 38.0083 65.0685 39.4418 65.0685 41.2101V74.1425C65.0685 75.9107 66.503 77.3443 68.2725 77.3443H121.366C123.135 77.3443 124.569 75.9107 124.569 74.1425V41.2101C124.569 39.4418 123.135 38.0083 121.366 38.0083Z" stroke="#46505C" stroke-linecap="round" stroke-linejoin="round"/>
<path d="M120.45 41.0772H69.1878C68.8087 41.0772 68.5013 41.3844 68.5013 41.7633V61.4313C68.5013 61.8103 68.8087 62.1174 69.1878 62.1174H120.45C120.829 62.1174 121.137 61.8103 121.137 61.4313V41.7633C121.137 41.3844 120.829 41.0772 120.45 41.0772Z" fill="#E6F3FF"/>
<path d="M78.5901 56.9717H75.8439C75.7175 56.9717 75.615 57.0741 75.615 57.2004V59.9447C75.615 60.071 75.7175 60.1735 75.8439 60.1735H78.5901C78.7164 60.1735 78.8189 60.071 78.8189 59.9447V57.2004C78.8189 57.0741 78.7164 56.9717 78.5901 56.9717Z" fill="#626C84"/>
<path d="M73.6381 56.9717H70.8919C70.7655 56.9717 70.663 57.0741 70.663 57.2004V59.9447C70.663 60.071 70.7655 60.1735 70.8919 60.1735H73.6381C73.7644 60.1735 73.867 60.071 73.867 59.9447V57.2004C73.867 57.0741 73.7644 56.9717 73.6381 56.9717Z" fill="#626C84"/>
<path d="M103.35 56.9717H80.7963C80.6699 56.9717 80.5675 57.0741 80.5675 57.2004V59.9447C80.5675 60.071 80.6699 60.1735 80.7963 60.1735H103.35C103.477 60.1735 103.579 60.071 103.579 59.9447V57.2004C103.579 57.0741 103.477 56.9717 103.35 56.9717Z" fill="#626C84"/>
<path d="M108.302 56.9717H105.556C105.43 56.9717 105.327 57.0741 105.327 57.2004V59.9447C105.327 60.071 105.43 60.1735 105.556 60.1735H108.302C108.428 60.1735 108.531 60.071 108.531 59.9447V57.2004C108.531 57.0741 108.428 56.9717 108.302 56.9717Z" fill="#626C84"/>
<path d="M115.543 58.7727H113.712C113.585 58.7727 113.483 58.8751 113.483 59.0015V59.9448C113.483 60.0711 113.585 60.1735 113.712 60.1735H115.543C115.669 60.1735 115.771 60.0711 115.771 59.9448V59.0015C115.771 58.8751 115.669 58.7727 115.543 58.7727Z" fill="#626C84"/>
<path d="M115.543 56.9717H113.712C113.585 56.9717 113.483 57.0741 113.483 57.2004V58.1437C113.483 58.2701 113.585 58.3725 113.712 58.3725H115.543C115.669 58.3725 115.771 58.2701 115.771 58.1437V57.2004C115.771 57.0741 115.669 56.9717 115.543 56.9717Z" fill="#626C84"/>
<path d="M118.746 58.7727H116.916C116.789 58.7727 116.687 58.8751 116.687 59.0015V59.9448C116.687 60.0711 116.789 60.1735 116.916 60.1735H118.746C118.873 60.1735 118.975 60.0711 118.975 59.9448V59.0015C118.975 58.8751 118.873 58.7727 118.746 58.7727Z" fill="#626C84"/>
<path d="M112.339 58.7727H110.508C110.382 58.7727 110.279 58.8751 110.279 59.0015V59.9448C110.279 60.0711 110.382 60.1735 110.508 60.1735H112.339C112.465 60.1735 112.568 60.0711 112.568 59.9448V59.0015C112.568 58.8751 112.465 58.7727 112.339 58.7727Z" fill="#626C84"/>
<path d="M78.1325 52.4164H70.8919C70.7655 52.4164 70.663 52.5188 70.663 52.6452V55.3896C70.663 55.5159 70.7655 55.6182 70.8919 55.6182H78.1325C78.2589 55.6182 78.3613 55.5159 78.3613 55.3896V52.6452C78.3613 52.5188 78.2589 52.4164 78.1325 52.4164Z" fill="#626C84"/>
<path d="M83.1258 52.4164H80.3796C80.2531 52.4164 80.1507 52.5188 80.1507 52.6452V55.3896C80.1507 55.5159 80.2531 55.6182 80.3796 55.6182H83.1258C83.2521 55.6182 83.3545 55.5159 83.3545 55.3896V52.6452C83.3545 52.5188 83.2521 52.4164 83.1258 52.4164Z" fill="#626C84"/>
<path d="M88.0775 52.4164H85.3314C85.205 52.4164 85.1025 52.5188 85.1025 52.6452V55.3896C85.1025 55.5159 85.205 55.6182 85.3314 55.6182H88.0775C88.2039 55.6182 88.3064 55.5159 88.3064 55.3896V52.6452C88.3064 52.5188 88.2039 52.4164 88.0775 52.4164Z" fill="#626C84"/>
<path d="M93.0299 52.4164H90.2837C90.1574 52.4164 90.055 52.5188 90.055 52.6452V55.3896C90.055 55.5159 90.1574 55.6182 90.2837 55.6182H93.0299C93.1564 55.6182 93.2588 55.5159 93.2588 55.3896V52.6452C93.2588 52.5188 93.1564 52.4164 93.0299 52.4164Z" fill="#626C84"/>
<path d="M97.9814 52.4164H95.2352C95.1089 52.4164 95.0065 52.5188 95.0065 52.6452V55.3896C95.0065 55.5159 95.1089 55.6182 95.2352 55.6182H97.9814C98.1079 55.6182 98.2103 55.5159 98.2103 55.3896V52.6452C98.2103 52.5188 98.1079 52.4164 97.9814 52.4164Z" fill="#626C84"/>
<path d="M102.934 52.4164H100.188C100.061 52.4164 99.959 52.5188 99.959 52.6452V55.3896C99.959 55.5159 100.061 55.6182 100.188 55.6182H102.934C103.06 55.6182 103.163 55.5159 103.163 55.3896V52.6452C103.163 52.5188 103.06 52.4164 102.934 52.4164Z" fill="#626C84"/>
<path d="M107.886 52.4164H105.139C105.013 52.4164 104.911 52.5188 104.911 52.6452V55.3896C104.911 55.5159 105.013 55.6182 105.139 55.6182H107.886C108.012 55.6182 108.115 55.5159 108.115 55.3896V52.6452C108.115 52.5188 108.012 52.4164 107.886 52.4164Z" fill="#626C84"/>
<path d="M118.747 52.4164H110.508C110.382 52.4164 110.279 52.5188 110.279 52.6452V55.3896C110.279 55.5159 110.382 55.6182 110.508 55.6182H118.747C118.873 55.6182 118.975 55.5159 118.975 55.3896V52.6452C118.975 52.5188 118.873 52.4164 118.747 52.4164Z" fill="#626C84"/>
<path d="M81.3363 47.7325H78.5901C78.4636 47.7325 78.3612 47.8349 78.3612 47.9612V50.7055C78.3612 50.8318 78.4636 50.9343 78.5901 50.9343H81.3363C81.4626 50.9343 81.565 50.8318 81.565 50.7055V47.9612C81.565 47.8349 81.4626 47.7325 81.3363 47.7325Z" fill="#626C84"/>
<path d="M76.3843 47.7325H70.8919C70.7655 47.7325 70.663 47.8349 70.663 47.9612V50.7055C70.663 50.8318 70.7655 50.9343 70.8919 50.9343H76.3843C76.5106 50.9343 76.6132 50.8318 76.6132 50.7055V47.9612C76.6132 47.8349 76.5106 47.7325 76.3843 47.7325Z" fill="#626C84"/>
<path d="M86.2884 47.7325H83.5422C83.4159 47.7325 83.3134 47.8349 83.3134 47.9612V50.7055C83.3134 50.8318 83.4159 50.9343 83.5422 50.9343H86.2884C86.4148 50.9343 86.5173 50.8318 86.5173 50.7055V47.9612C86.5173 47.8349 86.4148 47.7325 86.2884 47.7325Z" fill="#626C84"/>
<path d="M91.2399 47.7325H88.4937C88.3674 47.7325 88.2649 47.8349 88.2649 47.9612V50.7055C88.2649 50.8318 88.3674 50.9343 88.4937 50.9343H91.2399C91.3663 50.9343 91.4688 50.8318 91.4688 50.7055V47.9612C91.4688 47.8349 91.3663 47.7325 91.2399 47.7325Z" fill="#626C84"/>
<path d="M96.1925 47.7325H93.4463C93.3199 47.7325 93.2174 47.8349 93.2174 47.9612V50.7055C93.2174 50.8318 93.3199 50.9343 93.4463 50.9343H96.1925C96.3188 50.9343 96.4213 50.8318 96.4213 50.7055V47.9612C96.4213 47.8349 96.3188 47.7325 96.1925 47.7325Z" fill="#626C84"/>
<path d="M101.144 47.7325H98.3981C98.2718 47.7325 98.1692 47.8349 98.1692 47.9612V50.7055C98.1692 50.8318 98.2718 50.9343 98.3981 50.9343H101.144C101.271 50.9343 101.373 50.8318 101.373 50.7055V47.9612C101.373 47.8349 101.271 47.7325 101.144 47.7325Z" fill="#626C84"/>
<path d="M106.096 47.7325H103.35C103.224 47.7325 103.121 47.8349 103.121 47.9612V50.7055C103.121 50.8318 103.224 50.9343 103.35 50.9343H106.096C106.222 50.9343 106.325 50.8318 106.325 50.7055V47.9612C106.325 47.8349 106.222 47.7325 106.096 47.7325Z" fill="#626C84"/>
<path d="M111.048 47.7325H108.302C108.176 47.7325 108.073 47.8349 108.073 47.9612V50.7055C108.073 50.8318 108.176 50.9343 108.302 50.9343H111.048C111.175 50.9343 111.277 50.8318 111.277 50.7055V47.9612C111.277 47.8349 111.175 47.7325 111.048 47.7325Z" fill="#626C84"/>
<path d="M118.746 47.7325H113.254C113.128 47.7325 113.025 47.8349 113.025 47.9612V50.7055C113.025 50.8318 113.128 50.9343 113.254 50.9343H118.746C118.873 50.9343 118.975 50.8318 118.975 50.7055V47.9612C118.975 47.8349 118.873 47.7325 118.746 47.7325Z" fill="#626C84"/>
<path d="M78.6502 43.2497H75.9041C75.7777 43.2497 75.6753 43.352 75.6753 43.4783V46.2227C75.6753 46.3491 75.7777 46.4514 75.9041 46.4514H78.6502C78.7767 46.4514 78.8791 46.3491 78.8791 46.2227V43.4783C78.8791 43.352 78.7767 43.2497 78.6502 43.2497Z" fill="#626C84"/>
<path d="M73.6381 43.2497H70.8919C70.7655 43.2497 70.663 43.352 70.663 43.4783V46.2227C70.663 46.3491 70.7655 46.4514 70.8919 46.4514H73.6381C73.7644 46.4514 73.867 46.3491 73.867 46.2227V43.4783C73.867 43.352 73.7644 43.2497 73.6381 43.2497Z" fill="#626C84"/>
<path d="M83.6624 43.2497H80.9162C80.7898 43.2497 80.6873 43.352 80.6873 43.4783V46.2227C80.6873 46.3491 80.7898 46.4514 80.9162 46.4514H83.6624C83.7888 46.4514 83.8912 46.3491 83.8912 46.2227V43.4783C83.8912 43.352 83.7888 43.2497 83.6624 43.2497Z" fill="#626C84"/>
<path d="M88.6741 43.2497H85.9279C85.8016 43.2497 85.6991 43.352 85.6991 43.4783V46.2227C85.6991 46.3491 85.8016 46.4514 85.9279 46.4514H88.6741C88.8005 46.4514 88.903 46.3491 88.903 46.2227V43.4783C88.903 43.352 88.8005 43.2497 88.6741 43.2497Z" fill="#626C84"/>
<path d="M93.686 43.2497H90.9398C90.8134 43.2497 90.7109 43.352 90.7109 43.4783V46.2227C90.7109 46.3491 90.8134 46.4514 90.9398 46.4514H93.686C93.8123 46.4514 93.9148 46.3491 93.9148 46.2227V43.4783C93.9148 43.352 93.8123 43.2497 93.686 43.2497Z" fill="#626C84"/>
<path d="M98.6983 43.2497H95.9521C95.8258 43.2497 95.7232 43.352 95.7232 43.4783V46.2227C95.7232 46.3491 95.8258 46.4514 95.9521 46.4514H98.6983C98.8248 46.4514 98.9272 46.3491 98.9272 46.2227V43.4783C98.9272 43.352 98.8248 43.2497 98.6983 43.2497Z" fill="#626C84"/>
<path d="M103.71 43.2497H100.964C100.838 43.2497 100.735 43.352 100.735 43.4783V46.2227C100.735 46.3491 100.838 46.4514 100.964 46.4514H103.71C103.837 46.4514 103.939 46.3491 103.939 46.2227V43.4783C103.939 43.352 103.837 43.2497 103.71 43.2497Z" fill="#626C84"/>
<path d="M108.722 43.2497H105.976C105.85 43.2497 105.747 43.352 105.747 43.4783V46.2227C105.747 46.3491 105.85 46.4514 105.976 46.4514H108.722C108.849 46.4514 108.951 46.3491 108.951 46.2227V43.4783C108.951 43.352 108.849 43.2497 108.722 43.2497Z" fill="#626C84"/>
<path d="M113.734 43.2497H110.988C110.862 43.2497 110.759 43.352 110.759 43.4783V46.2227C110.759 46.3491 110.862 46.4514 110.988 46.4514H113.734C113.861 46.4514 113.963 46.3491 113.963 46.2227V43.4783C113.963 43.352 113.861 43.2497 113.734 43.2497Z" fill="#626C84"/>
<path d="M118.746 43.2497H116C115.874 43.2497 115.771 43.352 115.771 43.4783V46.2227C115.771 46.3491 115.874 46.4514 116 46.4514H118.746C118.873 46.4514 118.975 46.3491 118.975 46.2227V43.4783C118.975 43.352 118.873 43.2497 118.746 43.2497Z" fill="#626C84"/>
<path d="M75.367 35.9537H114.272V39.0287C114.272 39.2713 114.175 39.5039 114.003 39.6756C113.832 39.8471 113.599 39.9435 113.356 39.9435H76.2825C76.0397 39.9435 75.8068 39.8471 75.6352 39.6756C75.4636 39.5039 75.367 39.2713 75.367 39.0287V35.9537Z" fill="#626C84"/>
<path opacity="0.12" d="M114.272 35.9537H75.367V36.411H114.272V35.9537Z" fill="white"/>
<g style="mix-blend-mode:multiply" opacity="0.25">
<path d="M113.356 39.0286H76.2825C76.0397 39.0286 75.8068 38.9322 75.6352 38.7606C75.4636 38.5891 75.367 38.3563 75.367 38.1137V39.0286C75.367 39.2711 75.4636 39.5038 75.6352 39.6753C75.8068 39.8469 76.0397 39.9433 76.2825 39.9433H113.356C113.599 39.9433 113.832 39.8469 114.003 39.6753C114.175 39.5038 114.272 39.2711 114.272 39.0286V38.1137C114.272 38.3563 114.175 38.5891 114.003 38.7606C113.832 38.9322 113.599 39.0286 113.356 39.0286Z" fill="#626C84"/>
</g>
<path d="M75.367 35.9537H114.272V39.0287C114.272 39.2713 114.175 39.5039 114.003 39.6756C113.832 39.8471 113.599 39.9435 113.356 39.9435H76.2825C76.0397 39.9435 75.8068 39.8471 75.6352 39.6756C75.4636 39.5039 75.367 39.2713 75.367 39.0287V35.9537Z" stroke="#46505C" stroke-linecap="round" stroke-linejoin="round"/>
<path d="M102.829 63.2611H86.8096C86.5568 63.2611 86.3519 63.4658 86.3519 63.7185V74.4672C86.3519 74.7199 86.5568 74.9246 86.8096 74.9246H102.829C103.082 74.9246 103.287 74.7199 103.287 74.4672V63.7185C103.287 63.4658 103.082 63.2611 102.829 63.2611Z" fill="#E6F3FF"/>
<path d="M102.829 63.2611H86.8096C86.5568 63.2611 86.3519 63.4658 86.3519 63.7185V74.4672C86.3519 74.7199 86.5568 74.9246 86.8096 74.9246H102.829C103.082 74.9246 103.287 74.7199 103.287 74.4672V63.7185C103.287 63.4658 103.082 63.2611 102.829 63.2611Z" stroke="#626C84" stroke-linecap="round" stroke-linejoin="round"/>
<path opacity="0.52" d="M94.8192 3.50864C95.1983 3.50864 95.5057 3.20147 95.5057 2.8225C95.5057 2.44366 95.1983 2.1365 94.8192 2.1365C94.4401 2.1365 94.1327 2.44366 94.1327 2.8225C94.1327 3.20147 94.4401 3.50864 94.8192 3.50864Z" fill="white"/>
<path d="M94.8192 3.50864C95.1983 3.50864 95.5057 3.20147 95.5057 2.8225C95.5057 2.44366 95.1983 2.1365 94.8192 2.1365C94.4401 2.1365 94.1327 2.44366 94.1327 2.8225C94.1327 3.20147 94.4401 3.50864 94.8192 3.50864Z" stroke="#46505C" stroke-width="1.66667" stroke-linecap="round" stroke-linejoin="round"/>
<path d="M109.09 7.64278H106.344C106.218 7.64278 106.115 7.74521 106.115 7.87154C106.115 7.99786 106.218 8.10016 106.344 8.10016H109.09C109.216 8.10016 109.319 7.99786 109.319 7.87154C109.319 7.74521 109.216 7.64278 109.09 7.64278Z" fill="white"/>
<path d="M115.034 7.64278H112.288C112.162 7.64278 112.059 7.74521 112.059 7.87154C112.059 7.99786 112.162 8.10016 112.288 8.10016H115.034C115.161 8.10016 115.263 7.99786 115.263 7.87154C115.263 7.74521 115.161 7.64278 115.034 7.64278Z" fill="white"/>
<path d="M103.146 7.64278H100.4C100.274 7.64278 100.171 7.74521 100.171 7.87154C100.171 7.99786 100.274 8.10016 100.4 8.10016H103.146C103.273 8.10016 103.375 7.99786 103.375 7.87154C103.375 7.74521 103.273 7.64278 103.146 7.64278Z" fill="white"/>
<path d="M73.5895 9.09696C74.201 9.09696 74.6965 8.60169 74.6965 7.9908C74.6965 7.37991 74.201 6.88463 73.5895 6.88463C72.9782 6.88463 72.4827 7.37991 72.4827 7.9908C72.4827 8.60169 72.9782 9.09696 73.5895 9.09696Z" fill="white"/>
<g opacity="0.72">
<path opacity="0.72" d="M106.389 20.1028H83.2218V20.9364H106.389V20.1028Z" fill="white"/>
<path opacity="0.72" d="M103.459 17.3361H86.1517V18.1817H103.459V17.3361Z" fill="white"/>
</g>
<path d="M98.8024 26.5829H92.2091C91.5163 26.5829 90.9547 27.144 90.9547 27.8364C90.9547 28.5285 91.5163 29.0899 92.2091 29.0899H98.8024C99.4951 29.0899 100.057 28.5285 100.057 27.8364C100.057 27.144 99.4951 26.5829 98.8024 26.5829Z" stroke="white" stroke-width="1.66667" stroke-miterlimit="10"/>
<path d="M54.5505 51.4453C54.4109 51.6406 54.2456 51.8341 54.1261 52.041C52.5277 54.8095 50.9293 57.578 49.1989 60.2965C49.1928 60.2142 49.1552 60.1399 49.185 60.0651C49.8108 57.3788 49.1867 54.9298 47.7548 52.5793C44.9575 47.9955 42.1931 43.378 39.4172 38.7803C39.3696 38.7002 39.3377 38.6161 39.2713 38.499C43.213 36.177 47.1334 33.869 51.0752 31.547C51.6005 32.4021 52.1071 33.22 52.5979 34.042C53.8812 36.1622 55.2073 38.2546 56.4219 40.4008C57.2767 41.8927 57.8298 43.5126 57.6613 45.2675C57.6328 45.6189 57.5527 45.9667 57.4926 46.3261C56.5186 48.0364 55.5346 49.7408 54.5505 51.4453Z" fill="#F08222"/>
<path d="M42.242 14.8309C43.7454 17.101 45.2589 19.3769 46.7565 21.657C46.8897 21.8674 47.0286 22.0678 47.1861 22.3056C48.5957 21.7441 49.9578 21.1952 51.4366 20.6068C51.3352 20.8287 51.296 20.9663 51.2266 21.0865C49.2677 24.549 47.3031 28.0215 45.3442 31.4841C45.1938 31.7444 45.0739 31.9289 44.6957 31.9109C40.465 31.765 36.227 31.655 31.9906 31.5192C31.923 31.5202 31.8468 31.4896 31.6513 31.4569C32.8587 30.7118 33.9796 30.0236 35.1337 29.3012C35.0265 29.0924 34.9436 28.911 34.8449 28.7339C33.5217 26.3141 32.2143 23.8902 30.8795 21.4904C30.6964 21.1577 30.7 20.9194 30.895 20.6047C31.9355 18.8954 32.9014 17.1296 34.4643 15.8153C36.3443 14.2301 38.5307 13.6229 40.9854 14.1989C41.0314 14.2121 41.0947 14.1953 41.1523 14.1884C41.5083 14.4073 41.8801 14.622 42.242 14.8309Z" fill="white"/>
<path d="M10.354 24.7227C10.4171 24.5898 10.4419 24.4999 10.4871 24.4217C12.1502 21.5647 13.7827 18.69 15.5012 15.8779C16.3655 14.4748 17.5122 13.2868 19.1333 12.6855C19.621 12.4981 20.1686 12.3713 20.6993 12.391C25.8969 12.5908 31.0876 12.8257 36.2784 13.0606C36.4241 13.0666 36.5743 13.0881 36.7177 13.1449C35.4464 13.4923 34.287 14.0215 33.2621 14.8107C32.1774 15.6566 31.3446 16.7001 30.662 17.8824C28.0128 22.424 25.359 26.95 22.6997 31.4857C22.6545 31.5639 22.5891 31.6303 22.5169 31.7319C18.4656 29.4059 14.4301 27.076 10.354 24.7227Z" fill="#F08222"/>
<path d="M1.92987 49.7534C2.98018 50.5856 4.08565 51.277 5.36201 51.6951C6.63261 52.1231 7.92928 52.234 9.26724 52.1828C14.5372 51.9838 19.8112 51.8004 25.0852 51.617C25.1924 51.6125 25.298 51.6336 25.4503 51.6418C25.5764 56.205 25.6984 60.7527 25.8319 65.2804C25.7737 65.3132 25.7409 65.3474 25.7098 65.356C22.3649 65.484 19.0224 65.6533 15.6809 65.7302C14.0637 65.7664 12.4514 65.4997 11.0918 64.5686C10.522 64.1732 9.98193 63.6356 9.63443 63.0364C7.12512 58.7711 4.65844 54.4774 2.1762 50.1879C2.0889 50.0445 2.01142 49.9068 1.92987 49.7534Z" fill="#F08222"/>
<path d="M35.3774 50.955C37.0252 50.974 38.6153 50.9997 40.1953 51.0195C41.5875 51.0374 42.9797 51.0554 44.3763 51.0892C44.564 51.091 44.837 51.1554 44.9137 51.2796C46.0592 53.1264 47.2149 54.979 47.6444 57.1316C48.0521 59.2051 47.6164 61.1512 46.389 62.88C45.7154 63.8364 44.7367 64.3636 43.5482 64.4366C41.1712 64.5826 38.7956 64.7028 36.4244 64.8389C36.215 64.8512 36.0056 64.8635 35.7543 64.8782C35.5781 66.3748 35.3989 67.8297 35.2127 69.4137C35.0507 69.227 34.9467 69.1269 34.8801 69.0086C32.7568 65.585 30.6379 62.1773 28.5363 58.7396C28.4263 58.5563 28.3986 58.2072 28.4966 58.0374C30.6393 54.373 32.7964 50.7302 34.9592 47.0774C34.9881 47.0275 35.0314 46.9992 35.154 46.8569C35.2434 48.2671 35.3067 49.5823 35.3774 50.955Z" fill="white"/>
<path d="M19.4949 43.852C18.2037 43.2083 17.0511 42.6446 15.8489 42.0523C15.7388 42.2431 15.6396 42.4149 15.546 42.5771C14.2657 44.8402 12.9855 47.1034 11.7097 49.3818C11.5268 49.7214 11.3132 49.8398 10.9226 49.8306C8.94767 49.8226 6.96935 49.8889 5.03777 49.2571C2.96099 48.5797 1.44256 47.2323 0.519818 45.2875C-0.0876518 44.0081 0.22574 42.8024 0.811977 41.627C1.73432 39.7551 2.61708 37.8604 3.51963 35.9771C3.56482 35.876 3.5946 35.7787 3.65304 35.6089C2.47312 34.7496 1.28329 33.8845 -1.96565e-06 32.9528C0.239876 32.9259 0.373024 32.901 0.510564 32.8914C4.41548 32.7797 8.3303 32.6737 12.2352 32.562C12.5048 32.5522 12.7072 32.5673 12.8819 32.859C15.0171 36.4071 17.1731 39.9417 19.3137 43.4802C19.3653 43.5736 19.3928 43.6404 19.4949 43.852Z" fill="white"/>
</svg>
