<svg width="220" height="250" viewBox="0 0 220 250" fill="none" xmlns="http://www.w3.org/2000/svg">
<path d="M206.816 70.4616L144.789 70.4616C143.61 70.4616 142.479 69.994 141.645 69.1615C140.812 68.329 140.343 67.2 140.343 66.0227V20.9326C140.343 19.7559 140.812 18.6273 141.645 17.7953C142.478 16.9632 143.608 16.4957 144.787 16.4957L206.818 16.4957C207.997 16.4957 209.127 16.9632 209.96 17.7953C210.794 18.6273 211.262 19.7559 211.262 20.9326V66.0227C211.262 67.2 210.793 68.329 209.96 69.1615C209.126 69.994 207.995 70.4616 206.816 70.4616Z" fill="white"/>
<path d="M140.158 66.0224V20.9323C140.158 19.7064 140.645 18.5307 141.513 17.6638C142.382 16.797 143.559 16.31 144.787 16.31H206.818C208.046 16.31 209.224 16.797 210.092 17.6638C210.96 18.5307 211.447 19.7064 211.447 20.9323V66.0224C211.447 66.6297 211.328 67.231 211.095 67.7921C210.862 68.3531 210.521 68.8629 210.091 69.2923C209.661 69.7217 209.15 70.0624 208.589 70.2948C208.027 70.5272 207.425 70.6468 206.816 70.6468H144.789C144.181 70.6468 143.578 70.5272 143.016 70.2948C142.455 70.0624 141.944 69.7217 141.514 69.2923C141.084 68.8629 140.743 68.3531 140.51 67.7921C140.277 67.231 140.158 66.6297 140.158 66.0224ZM144.787 16.6809C143.658 16.6812 142.575 17.1293 141.777 17.9265C140.979 18.7238 140.53 19.8049 140.53 20.9323V66.0224C140.53 67.1505 140.979 68.2324 141.778 69.03C142.577 69.8277 143.66 70.2759 144.79 70.2759H206.816C207.946 70.2759 209.03 69.8277 209.828 69.03C210.627 68.2324 211.076 67.1505 211.076 66.0224V20.9323C211.076 19.8047 210.627 18.7234 209.829 17.9261C209.031 17.1288 207.948 16.6809 206.818 16.6809H144.787Z" fill="#292A2E"/>
<path d="M140.344 20.9317V24.6887H211.261V20.9317C211.261 19.755 210.793 18.6264 209.96 17.7944C209.126 16.9623 207.996 16.4948 206.818 16.4948H144.787C144.203 16.4948 143.625 16.6096 143.086 16.8326C142.547 17.0556 142.057 17.3824 141.645 17.7944C141.232 18.2064 140.905 18.6955 140.682 19.2338C140.459 19.7721 140.344 20.349 140.344 20.9317Z" fill="#292A2E"/>
<path d="M164.563 30.7618H161.217C161.177 30.7618 161.14 30.7461 161.112 30.7183C161.084 30.6905 161.068 30.6527 161.068 30.6134C161.068 30.574 161.084 30.5363 161.112 30.5085C161.14 30.4807 161.177 30.465 161.217 30.465H164.563C164.603 30.465 164.64 30.4807 164.668 30.5085C164.696 30.5363 164.712 30.574 164.712 30.6134C164.712 30.6527 164.696 30.6905 164.668 30.7183C164.64 30.7461 164.603 30.7618 164.563 30.7618Z" fill="#292A2E"/>
<path d="M158.803 30.7618H157.537C157.498 30.7618 157.46 30.7461 157.432 30.7183C157.404 30.6905 157.389 30.6527 157.389 30.6134C157.389 30.574 157.404 30.5363 157.432 30.5085C157.46 30.4807 157.498 30.465 157.537 30.465H158.803C158.843 30.465 158.881 30.4807 158.908 30.5085C158.936 30.5363 158.952 30.574 158.952 30.6134C158.952 30.6527 158.936 30.6905 158.908 30.7183C158.881 30.7461 158.843 30.7618 158.803 30.7618Z" fill="#367CFF"/>
<path d="M158.803 33.4383H157.537C157.498 33.4383 157.46 33.4227 157.432 33.3949C157.404 33.3671 157.389 33.3293 157.389 33.29C157.389 33.2506 157.404 33.2129 157.432 33.1851C157.46 33.1572 157.498 33.1416 157.537 33.1416H158.803C158.843 33.1416 158.881 33.1572 158.908 33.1851C158.936 33.2129 158.952 33.2506 158.952 33.29C158.952 33.3293 158.936 33.3671 158.908 33.3949C158.881 33.4227 158.843 33.4383 158.803 33.4383Z" fill="#367CFF"/>
<path d="M158.803 36.1149H157.537C157.498 36.1149 157.46 36.0993 157.432 36.0715C157.404 36.0436 157.389 36.0059 157.389 35.9666C157.389 35.9272 157.404 35.8895 157.432 35.8616C157.46 35.8338 157.498 35.8182 157.537 35.8182H158.803C158.843 35.8182 158.881 35.8338 158.908 35.8616C158.936 35.8895 158.952 35.9272 158.952 35.9666C158.952 36.0059 158.936 36.0436 158.908 36.0715C158.881 36.0993 158.843 36.1149 158.803 36.1149Z" fill="#367CFF"/>
<path d="M158.803 38.7915H157.537C157.498 38.7915 157.46 38.7759 157.432 38.7481C157.404 38.7202 157.389 38.6825 157.389 38.6431C157.389 38.6038 157.404 38.5661 157.432 38.5382C157.46 38.5104 157.498 38.4948 157.537 38.4948H158.803C158.843 38.4948 158.881 38.5104 158.908 38.5382C158.936 38.5661 158.952 38.6038 158.952 38.6431C158.952 38.6825 158.936 38.7202 158.908 38.7481C158.881 38.7759 158.843 38.7915 158.803 38.7915Z" fill="#367CFF"/>
<path d="M158.803 41.4681H157.537C157.498 41.4681 157.46 41.4525 157.432 41.4247C157.404 41.3968 157.389 41.3591 157.389 41.3197C157.389 41.2804 157.404 41.2427 157.432 41.2148C157.46 41.187 157.498 41.1714 157.537 41.1714H158.803C158.843 41.1714 158.881 41.187 158.908 41.2148C158.936 41.2427 158.952 41.2804 158.952 41.3197C158.952 41.3591 158.936 41.3968 158.908 41.4247C158.881 41.4525 158.843 41.4681 158.803 41.4681Z" fill="#367CFF"/>
<path d="M158.803 44.1447H157.537C157.498 44.1447 157.46 44.1291 157.432 44.1012C157.404 44.0734 157.389 44.0357 157.389 43.9963C157.389 43.957 157.404 43.9192 157.432 43.8914C157.46 43.8636 157.498 43.848 157.537 43.848H158.803C158.843 43.848 158.881 43.8636 158.908 43.8914C158.936 43.9192 158.952 43.957 158.952 43.9963C158.952 44.0357 158.936 44.0734 158.908 44.1012C158.881 44.1291 158.843 44.1447 158.803 44.1447Z" fill="#367CFF"/>
<path d="M158.803 46.8213H157.537C157.498 46.8213 157.46 46.8057 157.432 46.7778C157.404 46.75 157.389 46.7123 157.389 46.6729C157.389 46.6336 157.404 46.5958 157.432 46.568C157.46 46.5402 157.498 46.5245 157.537 46.5245H158.803C158.843 46.5245 158.881 46.5402 158.908 46.568C158.936 46.5958 158.952 46.6336 158.952 46.6729C158.952 46.7123 158.936 46.75 158.908 46.7778C158.881 46.8057 158.843 46.8213 158.803 46.8213Z" fill="#367CFF"/>
<path d="M158.803 49.4979H157.537C157.498 49.4979 157.46 49.4822 157.432 49.4544C157.404 49.4266 157.389 49.3889 157.389 49.3495C157.389 49.3102 157.404 49.2724 157.432 49.2446C157.46 49.2168 157.498 49.2011 157.537 49.2011H158.803C158.843 49.2011 158.881 49.2168 158.908 49.2446C158.936 49.2724 158.952 49.3102 158.952 49.3495C158.952 49.3889 158.936 49.4266 158.908 49.4544C158.881 49.4822 158.843 49.4979 158.803 49.4979Z" fill="#367CFF"/>
<path d="M158.803 52.1745H157.537C157.498 52.1745 157.46 52.1588 157.432 52.131C157.404 52.1032 157.389 52.0654 157.389 52.0261C157.389 51.9867 157.404 51.949 157.432 51.9212C157.46 51.8933 157.498 51.8777 157.537 51.8777H158.803C158.843 51.8777 158.881 51.8933 158.908 51.9212C158.936 51.949 158.952 51.9867 158.952 52.0261C158.952 52.0654 158.936 52.1032 158.908 52.131C158.881 52.1588 158.843 52.1745 158.803 52.1745Z" fill="#367CFF"/>
<path d="M158.803 54.8511H157.537C157.498 54.8511 157.46 54.8354 157.432 54.8076C157.404 54.7798 157.389 54.742 157.389 54.7027C157.389 54.6633 157.404 54.6256 157.432 54.5978C157.46 54.57 157.498 54.5543 157.537 54.5543H158.803C158.843 54.5543 158.881 54.57 158.908 54.5978C158.936 54.6256 158.952 54.6633 158.952 54.7027C158.952 54.742 158.936 54.7798 158.908 54.8076C158.881 54.8354 158.843 54.8511 158.803 54.8511Z" fill="#367CFF"/>
<path d="M158.803 57.5276H157.537C157.498 57.5276 157.46 57.512 157.432 57.4842C157.404 57.4564 157.389 57.4186 157.389 57.3793C157.389 57.3399 157.404 57.3022 157.432 57.2744C157.46 57.2465 157.498 57.2309 157.537 57.2309H158.803C158.843 57.2309 158.881 57.2465 158.908 57.2744C158.936 57.3022 158.952 57.3399 158.952 57.3793C158.952 57.4186 158.936 57.4564 158.908 57.4842C158.881 57.512 158.843 57.5276 158.803 57.5276Z" fill="#367CFF"/>
<path d="M158.803 60.2042H157.537C157.498 60.2042 157.46 60.1886 157.432 60.1608C157.404 60.1329 157.389 60.0952 157.389 60.0559C157.389 60.0165 157.404 59.9788 157.432 59.9509C157.46 59.9231 157.498 59.9075 157.537 59.9075H158.803C158.843 59.9075 158.881 59.9231 158.908 59.9509C158.936 59.9788 158.952 60.0165 158.952 60.0559C158.952 60.0952 158.936 60.1329 158.908 60.1608C158.881 60.1886 158.843 60.2042 158.803 60.2042Z" fill="#367CFF"/>
<path d="M158.803 62.8808H157.537C157.498 62.8808 157.46 62.8652 157.432 62.8374C157.404 62.8095 157.389 62.7718 157.389 62.7324C157.389 62.6931 157.404 62.6554 157.432 62.6275C157.46 62.5997 157.498 62.5841 157.537 62.5841H158.803C158.843 62.5841 158.881 62.5997 158.908 62.6275C158.936 62.6554 158.952 62.6931 158.952 62.7324C158.952 62.7718 158.936 62.8095 158.908 62.8374C158.881 62.8652 158.843 62.8808 158.803 62.8808Z" fill="#367CFF"/>
<path d="M158.803 65.5577H157.537C157.498 65.5577 157.46 65.5421 157.432 65.5142C157.404 65.4864 157.389 65.4487 157.389 65.4093C157.389 65.37 157.404 65.3322 157.432 65.3044C157.46 65.2766 157.498 65.261 157.537 65.261H158.803C158.843 65.261 158.881 65.2766 158.908 65.3044C158.936 65.3322 158.952 65.37 158.952 65.4093C158.952 65.4487 158.936 65.4864 158.908 65.5142C158.881 65.5421 158.843 65.5577 158.803 65.5577Z" fill="#367CFF"/>
<path d="M167.238 33.4383H164.188C164.149 33.4383 164.111 33.4227 164.083 33.3949C164.055 33.3671 164.04 33.3293 164.04 33.29C164.04 33.2506 164.055 33.2129 164.083 33.1851C164.111 33.1572 164.149 33.1416 164.188 33.1416H167.238C167.277 33.1416 167.315 33.1572 167.343 33.1851C167.371 33.2129 167.386 33.2506 167.386 33.29C167.386 33.3293 167.371 33.3671 167.343 33.3949C167.315 33.4227 167.277 33.4383 167.238 33.4383Z" fill="#292A2E"/>
<path d="M164.563 49.4979H161.217C161.177 49.4979 161.14 49.4823 161.112 49.4544C161.084 49.4266 161.068 49.3889 161.068 49.3495C161.068 49.3102 161.084 49.2724 161.112 49.2446C161.14 49.2168 161.177 49.2011 161.217 49.2011H164.563C164.603 49.2011 164.64 49.2168 164.668 49.2446C164.696 49.2724 164.712 49.3102 164.712 49.3495C164.712 49.3889 164.696 49.4266 164.668 49.4544C164.64 49.4823 164.603 49.4979 164.563 49.4979Z" fill="#292A2E"/>
<path d="M167.238 52.1745H164.188C164.149 52.1745 164.111 52.1588 164.083 52.131C164.055 52.1032 164.04 52.0655 164.04 52.0261C164.04 51.9868 164.055 51.949 164.083 51.9212C164.111 51.8934 164.149 51.8777 164.188 51.8777H167.238C167.277 51.8777 167.315 51.8934 167.343 51.9212C167.371 51.949 167.386 51.9868 167.386 52.0261C167.386 52.0655 167.371 52.1032 167.343 52.131C167.315 52.1588 167.277 52.1745 167.238 52.1745Z" fill="#292A2E"/>
<path d="M184.473 36.1149H166.269C166.229 36.1149 166.191 36.0993 166.163 36.0715C166.136 36.0437 166.12 36.0059 166.12 35.9666C166.12 35.9272 166.136 35.8895 166.163 35.8617C166.191 35.8338 166.229 35.8182 166.269 35.8182H184.473C184.513 35.8182 184.55 35.8338 184.578 35.8617C184.606 35.8895 184.622 35.9272 184.622 35.9666C184.622 36.0059 184.606 36.0437 184.578 36.0715C184.55 36.0993 184.513 36.1149 184.473 36.1149Z" fill="#292A2E"/>
<path d="M200.546 36.1149H187.691C187.651 36.1149 187.613 36.0993 187.586 36.0715C187.558 36.0437 187.542 36.0059 187.542 35.9666C187.542 35.9272 187.558 35.8895 187.586 35.8617C187.613 35.8338 187.651 35.8182 187.691 35.8182H200.546C200.586 35.8182 200.623 35.8338 200.651 35.8617C200.679 35.8895 200.695 35.9272 200.695 35.9666C200.695 36.0059 200.679 36.0437 200.651 36.0715C200.623 36.0993 200.586 36.1149 200.546 36.1149Z" fill="#0CBC8B"/>
<path d="M207.445 36.1149H203.505C203.465 36.1149 203.428 36.0993 203.4 36.0715C203.372 36.0437 203.356 36.0059 203.356 35.9666C203.356 35.9272 203.372 35.8895 203.4 35.8617C203.428 35.8338 203.465 35.8182 203.505 35.8182H207.445C207.485 35.8182 207.522 35.8338 207.55 35.8617C207.578 35.8895 207.594 35.9272 207.594 35.9666C207.594 36.0059 207.578 36.0437 207.55 36.0715C207.522 36.0993 207.485 36.1149 207.445 36.1149Z" fill="#292A2E"/>
<path d="M193.388 41.4681H166.269C166.229 41.4681 166.191 41.4525 166.163 41.4247C166.136 41.3968 166.12 41.3591 166.12 41.3197C166.12 41.2804 166.136 41.2427 166.163 41.2148C166.191 41.187 166.229 41.1714 166.269 41.1714H193.388C193.428 41.1714 193.465 41.187 193.493 41.2148C193.521 41.2427 193.537 41.2804 193.537 41.3197C193.537 41.3591 193.521 41.3968 193.493 41.4247C193.465 41.4525 193.428 41.4681 193.388 41.4681Z" fill="#292A2E"/>
<path d="M200.546 41.4681H196.606C196.566 41.4681 196.529 41.4525 196.501 41.4247C196.473 41.3968 196.457 41.3591 196.457 41.3197C196.457 41.2804 196.473 41.2427 196.501 41.2148C196.529 41.187 196.566 41.1714 196.606 41.1714H200.546C200.586 41.1714 200.623 41.187 200.651 41.2148C200.679 41.2427 200.695 41.2804 200.695 41.3197C200.695 41.3591 200.679 41.3968 200.651 41.4247C200.623 41.4525 200.586 41.4681 200.546 41.4681Z" fill="#367CFF"/>
<path d="M169.615 38.7915H166.269C166.229 38.7915 166.191 38.7759 166.163 38.7481C166.136 38.7203 166.12 38.6825 166.12 38.6432C166.12 38.6038 166.136 38.5661 166.163 38.5382C166.191 38.5104 166.229 38.4948 166.269 38.4948H169.615C169.654 38.4948 169.692 38.5104 169.72 38.5382C169.748 38.5661 169.764 38.6038 169.764 38.6432C169.764 38.6825 169.748 38.7203 169.72 38.7481C169.692 38.7759 169.654 38.7915 169.615 38.7915Z" fill="#0CBC8B"/>
<path d="M191.631 38.7915H172.832C172.793 38.7915 172.755 38.7759 172.727 38.7481C172.699 38.7203 172.684 38.6825 172.684 38.6432C172.684 38.6038 172.699 38.5661 172.727 38.5382C172.755 38.5104 172.793 38.4948 172.832 38.4948H191.631C191.671 38.4948 191.708 38.5104 191.736 38.5382C191.764 38.5661 191.78 38.6038 191.78 38.6432C191.78 38.6825 191.764 38.7203 191.736 38.7481C191.708 38.7759 191.671 38.7915 191.631 38.7915Z" fill="#367CFF"/>
<path d="M207.471 38.7915H195.209C195.17 38.7915 195.132 38.7759 195.104 38.7481C195.076 38.7203 195.06 38.6825 195.06 38.6432C195.06 38.6038 195.076 38.5661 195.104 38.5382C195.132 38.5104 195.17 38.4948 195.209 38.4948H207.47C207.51 38.4948 207.548 38.5104 207.575 38.5382C207.603 38.5661 207.619 38.6038 207.619 38.6432C207.619 38.6825 207.603 38.7203 207.575 38.7481C207.548 38.7759 207.51 38.7915 207.47 38.7915H207.471Z" fill="#292A2E"/>
<path d="M184.473 44.1447H166.269C166.229 44.1447 166.191 44.1291 166.163 44.1012C166.136 44.0734 166.12 44.0357 166.12 43.9963C166.12 43.957 166.136 43.9192 166.163 43.8914C166.191 43.8636 166.229 43.848 166.269 43.848H184.473C184.513 43.848 184.55 43.8636 184.578 43.8914C184.606 43.9192 184.622 43.957 184.622 43.9963C184.622 44.0357 184.606 44.0734 184.578 44.1012C184.55 44.1291 184.513 44.1447 184.473 44.1447Z" fill="#292A2E"/>
<path d="M194.603 44.1447H187.691C187.651 44.1447 187.613 44.1291 187.586 44.1012C187.558 44.0734 187.542 44.0357 187.542 43.9963C187.542 43.957 187.558 43.9192 187.586 43.8914C187.613 43.8636 187.651 43.848 187.691 43.848H194.603C194.642 43.848 194.68 43.8636 194.708 43.8914C194.736 43.9192 194.751 43.957 194.751 43.9963C194.751 44.0357 194.736 44.0734 194.708 44.1012C194.68 44.1291 194.642 44.1447 194.603 44.1447Z" fill="#0CBC8B"/>
<path d="M207.445 44.1447H197.561C197.522 44.1447 197.484 44.1291 197.456 44.1012C197.428 44.0734 197.413 44.0357 197.413 43.9963C197.413 43.957 197.428 43.9192 197.456 43.8914C197.484 43.8636 197.522 43.848 197.561 43.848H207.445C207.485 43.848 207.522 43.8636 207.55 43.8914C207.578 43.9192 207.594 43.957 207.594 43.9963C207.594 44.0357 207.578 44.0734 207.55 44.1012C207.522 44.1291 207.485 44.1447 207.445 44.1447Z" fill="#292A2E"/>
<path d="M169.615 46.8213H166.269C166.229 46.8213 166.191 46.8057 166.163 46.7778C166.136 46.75 166.12 46.7123 166.12 46.6729C166.12 46.6336 166.136 46.5958 166.163 46.568C166.191 46.5402 166.229 46.5245 166.269 46.5245H169.615C169.654 46.5245 169.692 46.5402 169.72 46.568C169.748 46.5958 169.764 46.6336 169.764 46.6729C169.764 46.7123 169.748 46.75 169.72 46.7778C169.692 46.8057 169.654 46.8213 169.615 46.8213Z" fill="#367CFF"/>
<path d="M191.631 46.8213H172.832C172.793 46.8213 172.755 46.8057 172.727 46.7778C172.699 46.75 172.684 46.7123 172.684 46.6729C172.684 46.6336 172.699 46.5958 172.727 46.568C172.755 46.5402 172.793 46.5245 172.832 46.5245H191.631C191.671 46.5245 191.708 46.5402 191.736 46.568C191.764 46.5958 191.78 46.6336 191.78 46.6729C191.78 46.7123 191.764 46.75 191.736 46.7778C191.708 46.8057 191.671 46.8213 191.631 46.8213Z" fill="#0CBC8B"/>
<path d="M183.879 57.5276H165.674C165.635 57.5276 165.597 57.512 165.569 57.4842C165.541 57.4564 165.526 57.4186 165.526 57.3793C165.526 57.3399 165.541 57.3022 165.569 57.2744C165.597 57.2465 165.635 57.2309 165.674 57.2309H183.879C183.918 57.2309 183.956 57.2465 183.984 57.2744C184.012 57.3022 184.028 57.3399 184.028 57.3793C184.028 57.4186 184.012 57.4564 183.984 57.4842C183.956 57.512 183.918 57.5276 183.879 57.5276Z" fill="#292A2E"/>
<path d="M199.952 57.5276H187.096C187.057 57.5276 187.019 57.512 186.991 57.4842C186.963 57.4564 186.948 57.4186 186.948 57.3793C186.948 57.3399 186.963 57.3022 186.991 57.2744C187.019 57.2465 187.057 57.2309 187.096 57.2309H199.952C199.991 57.2309 200.029 57.2465 200.057 57.2744C200.085 57.3022 200.1 57.3399 200.1 57.3793C200.1 57.4186 200.085 57.4564 200.057 57.4842C200.029 57.512 199.991 57.5276 199.952 57.5276Z" fill="#367CFF"/>
<path d="M174.964 54.8511H165.674C165.635 54.8511 165.597 54.8354 165.569 54.8076C165.541 54.7798 165.526 54.742 165.526 54.7027C165.526 54.6633 165.541 54.6256 165.569 54.5978C165.597 54.57 165.635 54.5543 165.674 54.5543H174.964C175.003 54.5543 175.041 54.57 175.069 54.5978C175.097 54.6256 175.113 54.6633 175.113 54.7027C175.113 54.742 175.097 54.7798 175.069 54.8076C175.041 54.8354 175.003 54.8511 174.964 54.8511Z" fill="#0CBC8B"/>
<path d="M191.037 54.8511H178.181C178.142 54.8511 178.104 54.8354 178.076 54.8076C178.048 54.7798 178.033 54.742 178.033 54.7027C178.033 54.6633 178.048 54.6256 178.076 54.5978C178.104 54.57 178.142 54.5543 178.181 54.5543H191.037C191.076 54.5543 191.114 54.57 191.142 54.5978C191.17 54.6256 191.185 54.6633 191.185 54.7027C191.185 54.742 191.17 54.7798 191.142 54.8076C191.114 54.8354 191.076 54.8511 191.037 54.8511Z" fill="#367CFF"/>
<path d="M206.877 54.8511H194.615C194.575 54.8511 194.538 54.8354 194.51 54.8076C194.482 54.7798 194.466 54.742 194.466 54.7027C194.466 54.6633 194.482 54.6256 194.51 54.5978C194.538 54.57 194.575 54.5543 194.615 54.5543H206.876C206.916 54.5543 206.953 54.57 206.981 54.5978C207.009 54.6256 207.025 54.6633 207.025 54.7027C207.025 54.742 207.009 54.7798 206.981 54.8076C206.953 54.8354 206.916 54.8511 206.876 54.8511H206.877Z" fill="#292A2E"/>
<path d="M192.794 62.8811H165.674C165.635 62.8811 165.597 62.8655 165.569 62.8377C165.541 62.8098 165.526 62.7721 165.526 62.7327C165.526 62.6934 165.541 62.6557 165.569 62.6278C165.597 62.6 165.635 62.5844 165.674 62.5844H192.794C192.833 62.5844 192.871 62.6 192.899 62.6278C192.927 62.6557 192.943 62.6934 192.943 62.7327C192.943 62.7721 192.927 62.8098 192.899 62.8377C192.871 62.8655 192.833 62.8811 192.794 62.8811Z" fill="#367CFF"/>
<path d="M199.952 62.8811H196.011C195.972 62.8811 195.934 62.8655 195.906 62.8377C195.878 62.8098 195.863 62.7721 195.863 62.7327C195.863 62.6934 195.878 62.6557 195.906 62.6278C195.934 62.6 195.972 62.5844 196.011 62.5844H199.952C199.991 62.5844 200.029 62.6 200.057 62.6278C200.085 62.6557 200.1 62.6934 200.1 62.7327C200.1 62.7721 200.085 62.8098 200.057 62.8377C200.029 62.8655 199.991 62.8811 199.952 62.8811Z" fill="#292A2E"/>
<path d="M169.021 60.2045H165.674C165.635 60.2045 165.597 60.1889 165.569 60.1611C165.541 60.1333 165.526 60.0955 165.526 60.0562C165.526 60.0168 165.541 59.9791 165.569 59.9513C165.597 59.9234 165.635 59.9078 165.674 59.9078H169.021C169.06 59.9078 169.098 59.9234 169.126 59.9513C169.154 59.9791 169.169 60.0168 169.169 60.0562C169.169 60.0955 169.154 60.1333 169.126 60.1611C169.098 60.1889 169.06 60.2045 169.021 60.2045Z" fill="#367CFF"/>
<path d="M191.037 60.2045H172.238C172.199 60.2045 172.161 60.1889 172.133 60.1611C172.105 60.1333 172.089 60.0955 172.089 60.0562C172.089 60.0168 172.105 59.9791 172.133 59.9513C172.161 59.9234 172.199 59.9078 172.238 59.9078H191.037C191.076 59.9078 191.114 59.9234 191.142 59.9513C191.17 59.9791 191.185 60.0168 191.185 60.0562C191.185 60.0955 191.17 60.1333 191.142 60.1611C191.114 60.1889 191.076 60.2045 191.037 60.2045Z" fill="#292A2E"/>
<path d="M206.877 60.2045H194.615C194.575 60.2045 194.538 60.1889 194.51 60.1611C194.482 60.1333 194.466 60.0955 194.466 60.0562C194.466 60.0168 194.482 59.9791 194.51 59.9513C194.538 59.9234 194.575 59.9078 194.615 59.9078H206.876C206.916 59.9078 206.953 59.9234 206.981 59.9513C207.009 59.9791 207.025 60.0168 207.025 60.0562C207.025 60.0955 207.009 60.1333 206.981 60.1611C206.953 60.1889 206.916 60.2045 206.876 60.2045H206.877Z" fill="#0CBC8B"/>
<path d="M183.879 65.5577H165.674C165.635 65.5577 165.597 65.5421 165.569 65.5142C165.541 65.4864 165.526 65.4487 165.526 65.4093C165.526 65.37 165.541 65.3322 165.569 65.3044C165.597 65.2766 165.635 65.261 165.674 65.261H183.879C183.918 65.261 183.956 65.2766 183.984 65.3044C184.012 65.3322 184.028 65.37 184.028 65.4093C184.028 65.4487 184.012 65.4864 183.984 65.5142C183.956 65.5421 183.918 65.5577 183.879 65.5577Z" fill="#0CBC8B"/>
<path d="M194.008 65.5577H187.096C187.057 65.5577 187.019 65.5421 186.991 65.5142C186.963 65.4864 186.948 65.4487 186.948 65.4093C186.948 65.37 186.963 65.3322 186.991 65.3044C187.019 65.2766 187.057 65.261 187.096 65.261H194.008C194.048 65.261 194.086 65.2766 194.114 65.3044C194.141 65.3322 194.157 65.37 194.157 65.4093C194.157 65.4487 194.141 65.4864 194.114 65.5142C194.086 65.5421 194.048 65.5577 194.008 65.5577Z" fill="#292A2E"/>
<path d="M206.851 65.5577H196.967C196.928 65.5577 196.89 65.5421 196.862 65.5142C196.834 65.4864 196.818 65.4487 196.818 65.4093C196.818 65.37 196.834 65.3322 196.862 65.3044C196.89 65.2766 196.928 65.261 196.967 65.261H206.851C206.89 65.261 206.928 65.2766 206.956 65.3044C206.984 65.3322 206.999 65.37 206.999 65.4093C206.999 65.4487 206.984 65.4864 206.956 65.5142C206.928 65.5421 206.89 65.5577 206.851 65.5577Z" fill="#367CFF"/>
<path d="M156.126 68.4218C156.087 68.4218 156.049 68.4062 156.021 68.3784C155.993 68.3505 155.977 68.3128 155.977 68.2735V26.0893C155.977 26.05 155.993 26.0122 156.021 25.9844C156.049 25.9566 156.087 25.9409 156.126 25.9409C156.165 25.9409 156.203 25.9566 156.231 25.9844C156.259 26.0122 156.274 26.05 156.274 26.0893V68.2735C156.274 68.3128 156.259 68.3505 156.231 68.3784C156.203 68.4062 156.165 68.4218 156.126 68.4218Z" fill="#292A2E"/>
<path d="M205.889 23.2694C207.205 23.2694 208.273 22.2036 208.273 20.889C208.273 19.5743 207.205 18.5085 205.889 18.5085C204.572 18.5085 203.505 19.5743 203.505 20.889C203.505 22.2036 204.572 23.2694 205.889 23.2694Z" fill="white"/>
<path d="M149.33 27.9427H142.896C142.856 27.9427 142.819 27.9271 142.791 27.8993C142.763 27.8715 142.747 27.8337 142.747 27.7944C142.747 27.755 142.763 27.7173 142.791 27.6895C142.819 27.6616 142.856 27.646 142.896 27.646H149.33C149.369 27.646 149.407 27.6616 149.435 27.6895C149.463 27.7173 149.479 27.755 149.479 27.7944C149.479 27.8337 149.463 27.8715 149.435 27.8993C149.407 27.9271 149.369 27.9427 149.33 27.9427Z" fill="#292A2E"/>
<path d="M147.392 30.8692H142.896C142.856 30.8692 142.819 30.8536 142.791 30.8257C142.763 30.7979 142.747 30.7602 142.747 30.7208C142.747 30.6815 142.763 30.6437 142.791 30.6159C142.819 30.5881 142.856 30.5725 142.896 30.5725H147.392C147.431 30.5725 147.469 30.5881 147.497 30.6159C147.525 30.6437 147.54 30.6815 147.54 30.7208C147.54 30.7602 147.525 30.7979 147.497 30.8257C147.469 30.8536 147.431 30.8692 147.392 30.8692Z" fill="#292A2E"/>
<path d="M151.345 33.7956H142.896C142.856 33.7956 142.819 33.78 142.791 33.7522C142.763 33.7243 142.747 33.6866 142.747 33.6473C142.747 33.6079 142.763 33.5702 142.791 33.5423C142.819 33.5145 142.856 33.4989 142.896 33.4989H151.345C151.385 33.4989 151.423 33.5145 151.45 33.5423C151.478 33.5702 151.494 33.6079 151.494 33.6473C151.494 33.6866 151.478 33.7243 151.45 33.7522C151.423 33.78 151.385 33.7956 151.345 33.7956Z" fill="#292A2E"/>
<path d="M152.922 36.7221H145.867C145.828 36.7221 145.79 36.7064 145.762 36.6786C145.735 36.6508 145.719 36.6131 145.719 36.5737C145.719 36.5344 145.735 36.4966 145.762 36.4688C145.79 36.441 145.828 36.4253 145.867 36.4253H152.922C152.962 36.4253 152.999 36.441 153.027 36.4688C153.055 36.4966 153.071 36.5344 153.071 36.5737C153.071 36.6131 153.055 36.6508 153.027 36.6786C152.999 36.7064 152.962 36.7221 152.922 36.7221Z" fill="#292A2E"/>
<path d="M149.511 39.6488H145.867C145.828 39.6488 145.79 39.6332 145.762 39.6054C145.735 39.5775 145.719 39.5398 145.719 39.5004C145.719 39.4611 145.735 39.4234 145.762 39.3955C145.79 39.3677 145.828 39.3521 145.867 39.3521H149.511C149.55 39.3521 149.588 39.3677 149.616 39.3955C149.644 39.4234 149.659 39.4611 149.659 39.5004C149.659 39.5398 149.644 39.5775 149.616 39.6054C149.588 39.6332 149.55 39.6488 149.511 39.6488Z" fill="#292A2E"/>
<path d="M152.302 42.5753H145.867C145.828 42.5753 145.79 42.5596 145.762 42.5318C145.735 42.504 145.719 42.4662 145.719 42.4269C145.719 42.3875 145.735 42.3498 145.762 42.322C145.79 42.2941 145.828 42.2785 145.867 42.2785H152.302C152.341 42.2785 152.379 42.2941 152.407 42.322C152.435 42.3498 152.45 42.3875 152.45 42.4269C152.45 42.4662 152.435 42.504 152.407 42.5318C152.379 42.5596 152.341 42.5753 152.302 42.5753Z" fill="#292A2E"/>
<path d="M147.857 45.5017H142.896C142.856 45.5017 142.819 45.4861 142.791 45.4582C142.763 45.4304 142.747 45.3927 142.747 45.3533C142.747 45.314 142.763 45.2762 142.791 45.2484C142.819 45.2206 142.856 45.205 142.896 45.205H147.857C147.896 45.205 147.934 45.2206 147.962 45.2484C147.99 45.2762 148.006 45.314 148.006 45.3533C148.006 45.3927 147.99 45.4304 147.962 45.4582C147.934 45.4861 147.896 45.5017 147.857 45.5017Z" fill="#292A2E"/>
<path d="M146.152 48.4278H142.896C142.856 48.4278 142.819 48.4122 142.791 48.3844C142.763 48.3566 142.747 48.3188 142.747 48.2795C142.747 48.2401 142.763 48.2024 142.791 48.1746C142.819 48.1467 142.856 48.1311 142.896 48.1311H146.152C146.191 48.1311 146.229 48.1467 146.257 48.1746C146.284 48.2024 146.3 48.2401 146.3 48.2795C146.3 48.3188 146.284 48.3566 146.257 48.3844C146.229 48.4122 146.191 48.4278 146.152 48.4278Z" fill="#292A2E"/>
<path d="M158.601 27.3149V27.3683L160.459 28.0567C160.485 28.0675 160.508 28.086 160.524 28.1098C160.54 28.1336 160.548 28.1616 160.548 28.1902V28.2407C160.548 28.263 160.543 28.285 160.533 28.3047C160.522 28.3245 160.507 28.3412 160.488 28.3534C160.469 28.3667 160.448 28.375 160.425 28.3776C160.402 28.3802 160.379 28.377 160.357 28.3683L158.26 27.5493C158.233 27.5388 158.211 27.5208 158.195 27.4976C158.179 27.4743 158.171 27.4469 158.17 27.4187V27.2674C158.17 27.2391 158.179 27.2115 158.195 27.1882C158.21 27.1648 158.233 27.1469 158.26 27.1368L160.357 26.3148C160.375 26.309 160.393 26.306 160.411 26.3059C160.438 26.3065 160.465 26.3147 160.488 26.3297C160.507 26.3425 160.522 26.3598 160.533 26.38C160.543 26.4002 160.548 26.4227 160.548 26.4454V26.4959C160.548 26.5242 160.54 26.552 160.524 26.5754C160.508 26.5988 160.485 26.6166 160.459 26.6264L158.601 27.3149Z" fill="#367CFF"/>
<path d="M162.283 25.7095L161.172 29.1071C161.162 29.1355 161.145 29.1602 161.121 29.1778C161.097 29.1954 161.068 29.205 161.038 29.2051C161.016 29.2054 160.995 29.2004 160.976 29.1906C160.957 29.1808 160.94 29.1664 160.928 29.1487C160.915 29.1312 160.905 29.1108 160.901 29.0891C160.897 29.0675 160.898 29.0452 160.904 29.0241L162.015 25.6294C162.025 25.6005 162.043 25.5752 162.068 25.5572C162.092 25.5391 162.122 25.5291 162.152 25.5285C162.174 25.5284 162.195 25.5335 162.214 25.5433C162.233 25.5531 162.25 25.5674 162.262 25.5849C162.275 25.6024 162.284 25.6229 162.288 25.6446C162.292 25.6663 162.29 25.6886 162.283 25.7095Z" fill="#367CFF"/>
<path d="M165.012 27.2674V27.4187C165.013 27.4466 165.005 27.474 164.989 27.4972C164.974 27.5205 164.952 27.5387 164.926 27.5493L162.825 28.3683C162.804 28.3769 162.781 28.3801 162.759 28.3775C162.737 28.3749 162.715 28.3666 162.697 28.3534C162.678 28.3414 162.662 28.3247 162.652 28.305C162.641 28.2853 162.635 28.2632 162.635 28.2407V28.1902C162.635 28.1612 162.643 28.1328 162.66 28.1089C162.676 28.0851 162.7 28.0668 162.727 28.0567L164.584 27.3683V27.3148L162.727 26.6264C162.7 26.6173 162.676 26.5998 162.659 26.5763C162.643 26.5528 162.634 26.5246 162.635 26.4958V26.4454C162.635 26.4225 162.641 26.3999 162.651 26.3798C162.662 26.3596 162.678 26.3424 162.697 26.3297C162.72 26.3148 162.747 26.3066 162.774 26.3059C162.792 26.3057 162.809 26.3088 162.825 26.3148L164.926 27.1368C164.952 27.1471 164.974 27.1651 164.99 27.1885C165.005 27.2119 165.013 27.2394 165.012 27.2674Z" fill="#367CFF"/>
<path d="M122.997 0H18.3278V104.519H122.997V0Z" fill="#F4F4F4"/>
<path d="M18.3278 0H17.1281V104.519H18.3278V0Z" fill="#F4F4F4"/>
<path opacity="0.05" d="M18.3278 0H17.1281V104.519H18.3278V0Z" fill="#292A2E"/>
<path opacity="0.05" d="M43.6845 72.0222V44.6765H66.117V60.5639H100.865V88.6939H115.633V104.519H100.865H98.0197H23.363V72.0222H43.6845Z" fill="#292A2E"/>
<path opacity="0.34" d="M63.2375 47.6456H46.9019V50.6148H63.2375V47.6456Z" fill="#FFFFFA"/>
<path opacity="0.34" d="M63.2375 53.7982H46.9019V56.7674H63.2375V53.7982Z" fill="#FFFFFA"/>
<path opacity="0.34" d="M63.2375 59.9508H46.9019V62.92H63.2375V59.9508Z" fill="#FFFFFA"/>
<path opacity="0.34" d="M29.2704 74.9041H26.2595V77.8733H29.2704V74.9041Z" fill="#FFFFFA"/>
<path opacity="0.34" d="M29.2704 81.0567H26.2595V84.0259H29.2704V81.0567Z" fill="#FFFFFA"/>
<path opacity="0.34" d="M29.2704 87.2096H26.2595V90.1787H29.2704V87.2096Z" fill="#FFFFFA"/>
<path opacity="0.34" d="M34.8405 74.9041H31.8296V77.8733H34.8405V74.9041Z" fill="#FFFFFA"/>
<path opacity="0.34" d="M34.8405 81.0567H31.8296V84.0259H34.8405V81.0567Z" fill="#FFFFFA"/>
<path opacity="0.34" d="M34.8405 87.2096H31.8296V90.1787H34.8405V87.2096Z" fill="#FFFFFA"/>
<path opacity="0.34" d="M40.2602 74.9041H37.2493V77.8733H40.2602V74.9041Z" fill="#FFFFFA"/>
<path opacity="0.34" d="M40.2602 81.0567H37.2493V84.0259H40.2602V81.0567Z" fill="#FFFFFA"/>
<path opacity="0.34" d="M40.2602 87.2096H37.2493V90.1787H40.2602V87.2096Z" fill="#FFFFFA"/>
<path d="M18.3278 51.6733H39.3892V0H41.1309V51.6733H98.0197V0H99.7614V51.6733H122.997V53.4125H99.7614V104.519H98.0197V53.4125H41.1309V104.519H39.3892V53.4125H18.3278V51.6733Z" fill="white"/>
<path d="M127.167 104.393H14.1582V107.869H127.167V104.393Z" fill="#F4F4F4"/>
<path opacity="0.1" d="M127.167 104.393H14.1582V107.869H127.167V104.393Z" fill="#292A2E"/>
<path opacity="0.1" d="M14.1582 104.393H12.5265V107.869H14.1582V104.393Z" fill="#292A2E"/>
<path opacity="0.1" d="M14.1582 104.393H12.5265V107.869H14.1582V104.393Z" fill="#292A2E"/>
<path d="M17.1281 4.4499L122.997 4.4499V1.8656L17.1281 1.8656V4.4499Z" fill="white"/>
<path d="M17.1281 9.27725L122.997 9.27725V6.69295L17.1281 6.69295V9.27725Z" fill="white"/>
<path d="M17.1281 14.1043L122.997 14.1043V11.52L17.1281 11.52V14.1043Z" fill="white"/>
<path d="M17.1281 18.9314L122.997 18.9314V16.3471L17.1281 16.3471V18.9314Z" fill="white"/>
<path d="M17.1281 23.7581L122.997 23.7581V21.1738L17.1281 21.1738V23.7581Z" fill="white"/>
<path d="M28.3727 26.673H29.9592L29.9592 3.81469e-06H28.3727L28.3727 26.673Z" fill="white"/>
<path d="M29.0315 30.5036C30.2353 30.5036 31.2112 29.5291 31.2112 28.327C31.2112 27.1249 30.2353 26.1504 29.0315 26.1504C27.8277 26.1504 26.8518 27.1249 26.8518 28.327C26.8518 29.5291 27.8277 30.5036 29.0315 30.5036Z" fill="white"/>
<path d="M18.0523 249.8L17.4687 249.688L26.5905 159.173L27.1741 159.285L18.0523 249.8Z" fill="#494949"/>
<path d="M52.0179 249.8L51.4343 249.688L60.5558 159.173L61.1395 159.285L52.0179 249.8Z" fill="#494949"/>
<path d="M127.097 249.8L127.68 249.688L118.558 159.173L117.975 159.285L127.097 249.8Z" fill="#494949"/>
<path d="M93.131 249.8L93.7146 249.688L84.5931 159.173L84.0094 159.285L93.131 249.8Z" fill="#494949"/>
<path d="M81.0342 119.337L80.4451 119.416L85.7739 159.269L86.363 159.191L81.0342 119.337Z" fill="#494949"/>
<path d="M19.87 119.337L19.2808 119.415L24.6096 159.269L25.1987 159.19L19.87 119.337Z" fill="#494949"/>
<path d="M86.3116 156.311H26.4859C24.8718 156.311 23.5633 157.617 23.5633 159.229V159.229C23.5633 160.841 24.8718 162.148 26.4859 162.148H86.3116C87.9257 162.148 89.2342 160.841 89.2342 159.229V159.229C89.2342 157.617 87.9257 156.311 86.3116 156.311Z" fill="#292A2E"/>
<path opacity="0.8" d="M86.3116 156.311H26.4859C24.8718 156.311 23.5633 157.617 23.5633 159.229V159.229C23.5633 160.841 24.8718 162.148 26.4859 162.148H86.3116C87.9257 162.148 89.2342 160.841 89.2342 159.229V159.229C89.2342 157.617 87.9257 156.311 86.3116 156.311Z" fill="white"/>
<path d="M86.3116 162.444H26.4862C26.0634 162.444 25.6447 162.361 25.254 162.2C24.8634 162.038 24.5084 161.801 24.2094 161.503C23.9105 161.204 23.6733 160.85 23.5115 160.459C23.3497 160.069 23.2664 159.651 23.2664 159.229C23.2664 158.807 23.3497 158.389 23.5115 157.999C23.6733 157.609 23.9105 157.254 24.2094 156.956C24.5084 156.657 24.8634 156.42 25.254 156.259C25.6447 156.097 26.0634 156.014 26.4862 156.014H86.3116C86.7344 156.014 87.1531 156.097 87.5437 156.259C87.9344 156.42 88.2893 156.657 88.5883 156.956C88.8873 157.254 89.1245 157.609 89.2863 157.999C89.4481 158.389 89.5314 158.807 89.5314 159.229C89.5314 159.651 89.4481 160.069 89.2863 160.459C89.1245 160.85 88.8873 161.204 88.5883 161.503C88.2893 161.801 87.9344 162.038 87.5437 162.2C87.1531 162.361 86.7344 162.444 86.3116 162.444ZM26.4862 156.607C26.1414 156.607 25.8 156.675 25.4815 156.807C25.1629 156.939 24.8735 157.132 24.6297 157.375C24.3859 157.619 24.1925 157.908 24.0606 158.226C23.9286 158.544 23.8607 158.885 23.8607 159.229C23.8607 159.573 23.9286 159.914 24.0606 160.232C24.1925 160.55 24.3859 160.839 24.6297 161.083C24.8735 161.326 25.1629 161.519 25.4815 161.651C25.8 161.783 26.1414 161.851 26.4862 161.851H86.3116C86.6563 161.851 86.9977 161.783 87.3163 161.651C87.6348 161.519 87.9242 161.326 88.168 161.083C88.4118 160.839 88.6052 160.55 88.7372 160.232C88.8691 159.914 88.937 159.573 88.937 159.229C88.937 158.885 88.8691 158.544 88.7372 158.226C88.6052 157.908 88.4118 157.619 88.168 157.375C87.9242 157.132 87.6348 156.939 87.3163 156.807C86.9977 156.675 86.6563 156.607 86.3116 156.607H26.4862Z" fill="#292A2E"/>
<path d="M119.147 156.311H59.3217C57.7076 156.311 56.3991 157.617 56.3991 159.229V159.229C56.3991 160.841 57.7076 162.148 59.3217 162.148H119.147C120.762 162.148 122.07 160.841 122.07 159.229V159.229C122.07 157.617 120.762 156.311 119.147 156.311Z" fill="white"/>
<path d="M119.147 162.444H59.3217C58.8989 162.444 58.4802 162.361 58.0895 162.2C57.6989 162.038 57.3439 161.801 57.0449 161.503C56.746 161.204 56.5088 160.85 56.347 160.459C56.1852 160.069 56.1019 159.651 56.1019 159.229C56.1019 158.807 56.1852 158.389 56.347 157.999C56.5088 157.609 56.746 157.254 57.0449 156.956C57.3439 156.657 57.6989 156.42 58.0895 156.259C58.4802 156.097 58.8989 156.014 59.3217 156.014H119.147C119.57 156.014 119.989 156.097 120.38 156.259C120.77 156.42 121.125 156.657 121.424 156.956C121.723 157.254 121.96 157.609 122.122 157.999C122.284 158.389 122.367 158.807 122.367 159.229C122.367 159.651 122.284 160.069 122.122 160.459C121.96 160.85 121.723 161.204 121.424 161.503C121.125 161.801 120.77 162.038 120.38 162.2C119.989 162.361 119.57 162.444 119.147 162.444ZM59.3217 156.607C58.9769 156.607 58.6355 156.675 58.317 156.807C57.9984 156.939 57.709 157.132 57.4652 157.375C57.2214 157.619 57.028 157.908 56.8961 158.226C56.7641 158.544 56.6962 158.885 56.6962 159.229C56.6962 159.573 56.7641 159.914 56.8961 160.232C57.028 160.55 57.2214 160.839 57.4652 161.083C57.709 161.326 57.9984 161.519 58.317 161.651C58.6355 161.783 58.9769 161.851 59.3217 161.851H119.147C119.492 161.851 119.834 161.783 120.152 161.651C120.471 161.519 120.76 161.326 121.004 161.083C121.248 160.839 121.441 160.55 121.573 160.232C121.705 159.914 121.773 159.573 121.773 159.229C121.773 158.885 121.705 158.544 121.573 158.226C121.441 157.908 121.248 157.619 121.004 157.375C120.76 157.132 120.471 156.939 120.152 156.807C119.834 156.675 119.492 156.607 119.147 156.607H59.3217Z" fill="#292A2E"/>
<path d="M77.7567 119.376H19.7358C18.7871 119.376 17.8709 119.031 17.1581 118.406C16.4454 117.781 15.9847 116.918 15.8622 115.979L12.0243 86.5485C11.9525 85.9983 11.9992 85.4392 12.1611 84.9084C12.3229 84.3777 12.5963 83.8875 12.963 83.4707C13.3297 83.0538 13.7812 82.7199 14.2874 82.4912C14.7936 82.2624 15.3428 82.1442 15.8984 82.1442H73.9188C74.8674 82.1442 75.7836 82.4889 76.4964 83.114C77.2092 83.739 77.6699 84.6017 77.7924 85.541L81.63 114.972C81.7018 115.522 81.6552 116.081 81.4934 116.611C81.3316 117.142 81.0583 117.632 80.6917 118.049C80.3251 118.466 79.8737 118.8 79.3676 119.029C78.8615 119.257 78.3123 119.376 77.7567 119.376Z" fill="#292A2E"/>
<path opacity="0.8" d="M77.7567 119.376H19.7358C18.7871 119.376 17.8709 119.031 17.1581 118.406C16.4454 117.781 15.9847 116.918 15.8622 115.979L12.0243 86.5485C11.9525 85.9983 11.9992 85.4392 12.1611 84.9084C12.3229 84.3777 12.5963 83.8875 12.963 83.4707C13.3297 83.0538 13.7812 82.7199 14.2874 82.4912C14.7936 82.2624 15.3428 82.1442 15.8984 82.1442H73.9188C74.8674 82.1442 75.7836 82.4889 76.4964 83.114C77.2092 83.739 77.6699 84.6017 77.7924 85.541L81.63 114.972C81.7018 115.522 81.6552 116.081 81.4934 116.611C81.3316 117.142 81.0583 117.632 80.6917 118.049C80.3251 118.466 79.8737 118.8 79.3676 119.029C78.8615 119.257 78.3123 119.376 77.7567 119.376Z" fill="white"/>
<path d="M77.7567 119.673H19.7358C18.7156 119.67 17.7308 119.298 16.9643 118.626C16.1977 117.954 15.7014 117.027 15.5674 116.017L11.7298 86.5867C11.6525 85.9947 11.7026 85.393 11.8768 84.8219C12.0509 84.2507 12.3451 83.7232 12.7396 83.2746C13.1342 82.826 13.62 82.4667 14.1648 82.2205C14.7095 81.9744 15.3005 81.8471 15.8984 81.8472H73.9188C74.939 81.8495 75.9237 82.2212 76.6902 82.8935C77.4567 83.5657 77.953 84.4928 78.0869 85.5027L81.9248 114.933C82.002 115.525 81.9519 116.127 81.7778 116.698C81.6036 117.269 81.3095 117.796 80.915 118.245C80.5205 118.694 80.0348 119.053 79.4901 119.299C78.9455 119.545 78.3546 119.673 77.7567 119.673ZM15.8984 82.4407C15.3851 82.4407 14.8778 82.55 14.4102 82.7614C13.9425 82.9728 13.5255 83.2814 13.1868 83.6665C12.848 84.0516 12.5955 84.5044 12.446 84.9948C12.2965 85.4851 12.2534 86.0016 12.3197 86.5099L16.1576 115.94C16.2725 116.808 16.6986 117.604 17.3568 118.181C18.0149 118.758 18.8604 119.077 19.7364 119.079H77.7567C78.2699 119.079 78.7772 118.97 79.2447 118.758C79.7122 118.547 80.1292 118.238 80.4678 117.853C80.8064 117.468 81.0589 117.015 81.2084 116.525C81.3578 116.035 81.4009 115.518 81.3346 115.01L77.4976 85.5796C77.3826 84.7125 76.9565 83.9165 76.2983 83.3393C75.6402 82.7622 74.7947 82.443 73.9188 82.441L15.8984 82.4407Z" fill="#292A2E"/>
<path d="M81.0375 119.376H23.0165C22.0679 119.376 21.1517 119.031 20.439 118.406C19.7263 117.781 19.2657 116.918 19.1432 115.979L15.3041 86.5485C15.2324 85.9983 15.279 85.4393 15.4409 84.9086C15.6027 84.3779 15.8761 83.8877 16.2427 83.4709C16.6093 83.0541 17.0607 82.7201 17.5669 82.4914C18.073 82.2626 18.6222 82.1442 19.1777 82.1442H77.1999C78.1485 82.1442 79.0646 82.4889 79.7774 83.114C80.4901 83.739 80.9507 84.6017 81.0732 85.541L84.9111 114.972C84.9828 115.522 84.9362 116.081 84.7743 116.612C84.6125 117.142 84.3391 117.632 83.9725 118.049C83.6059 118.466 83.1545 118.8 82.6484 119.029C82.1422 119.257 81.5931 119.376 81.0375 119.376Z" fill="white"/>
<path d="M81.0375 119.673H23.0165C21.9963 119.67 21.0116 119.298 20.2451 118.626C19.4786 117.954 18.9824 117.027 18.8484 116.017L15.0105 86.5867C14.9333 85.9947 14.9835 85.3931 15.1577 84.822C15.3318 84.2509 15.626 83.7235 16.0205 83.2749C16.415 82.8264 16.9008 82.467 17.4454 82.2208C17.9901 81.9746 18.581 81.8472 19.1789 81.8472H77.1996C78.2198 81.8495 79.2045 82.2213 79.971 82.8935C80.7376 83.5658 81.2339 84.4928 81.3679 85.5027L85.2058 114.933C85.283 115.525 85.2328 116.127 85.0586 116.698C84.8844 117.269 84.5902 117.796 84.1957 118.245C83.8012 118.693 83.3155 119.053 82.7708 119.299C82.2262 119.545 81.6353 119.673 81.0375 119.673ZM19.1789 82.4407C18.6657 82.4409 18.1584 82.5504 17.6909 82.7619C17.2235 82.9734 16.8066 83.282 16.468 83.6671C16.1294 84.0522 15.877 84.505 15.7275 84.9953C15.5781 85.4855 15.535 86.002 15.6013 86.5102L19.4377 115.94C19.5528 116.808 19.9789 117.603 20.637 118.181C21.2952 118.758 22.1406 119.077 23.0165 119.079H81.0375C81.5508 119.079 82.0582 118.97 82.5258 118.758C82.9934 118.547 83.4105 118.238 83.7492 117.853C84.0879 117.468 84.3404 117.015 84.4899 116.525C84.6395 116.035 84.6825 115.518 84.6163 115.01L80.7783 85.5796C80.6634 84.7125 80.2373 83.9165 79.5791 83.3393C78.921 82.7621 78.0755 82.4429 77.1996 82.441L19.1789 82.4407Z" fill="#292A2E"/>
<path d="M126.139 126.095L125.548 126.155L138.075 249.999L138.667 249.939L126.139 126.095Z" fill="#494949"/>
<path d="M74.7848 36.9627C74.7848 36.9627 78.6402 34.0568 79.5956 27.3677C80.3353 22.1887 75.5509 25.5439 75.5509 25.5439C75.5509 25.5439 76.0471 21.8095 73.3221 22.1801C70.5971 22.5507 69.0726 26.4736 69.0726 26.4736" fill="#0C0C0C"/>
<path d="M59.2397 22.6172C59.2397 22.6172 45.72 24.0656 50.6076 42.3578L51.8039 42.4379L54.2324 42.6005" fill="#0C0C0C"/>
<path d="M72.5204 61.4624C72.4609 61.4547 71.8012 72.3824 59.0866 71.4308C50.2845 70.7723 47.1462 61.447 46.9444 61.447C47.8935 61.2458 49.0661 60.9399 49.5324 60.8351C50.5482 60.5996 51.4681 60.0609 52.1698 59.2906C52.8714 58.5203 53.3216 57.5549 53.4604 56.5229C53.718 54.9739 53.2821 47.0486 53.4155 45.4812L66.9268 48.4925C66.7381 51.803 65.4166 59.4769 70.047 60.8351C70.8188 61.0597 71.6488 61.2663 72.5204 61.4624Z" fill="#E98862"/>
<path opacity="0.52" d="M67.1167 57.6989C66.905 57.0177 66.7687 56.3155 66.7101 55.6048C66.5618 53.9829 66.5917 52.3498 66.7993 50.7344C64.0531 50.3644 61.4659 49.2326 59.3318 47.4676C59.081 48.3928 57.7012 52.4356 58.0837 53.3148C58.8043 54.9772 62.197 57.6989 67.1167 57.6989Z" fill="#0C0C0C"/>
<path d="M64.328 55.5359C58.9975 55.0585 52.6176 51.6955 52.5258 44.4702L52.4425 37.9509C52.3507 30.7259 56.0763 24.8205 62.8892 24.7338C69.7017 24.6475 74.8686 30.4398 74.9604 37.6651L74.9972 40.5512C74.9925 41.5424 74.9201 42.5322 74.7806 43.5135C74.4311 46.11 73.8891 50.0575 72.1248 52.7279C70.4583 55.249 67.7333 55.8407 64.328 55.5359Z" fill="#E98862"/>
<path d="M66.801 48.9323C67.901 48.9821 68.9974 48.773 70.0015 48.3219C70.0223 48.3131 70.0411 48.3002 70.0569 48.2841C70.0727 48.268 70.0852 48.249 70.0936 48.228C70.102 48.2071 70.1062 48.1848 70.106 48.1622C70.1057 48.1397 70.101 48.1174 70.0922 48.0967C70.0833 48.076 70.0705 48.0572 70.0543 48.0414C70.0382 48.0256 70.0191 48.0132 69.9982 48.0048C69.9772 47.9964 69.9548 47.9922 69.9323 47.9924C69.9097 47.9927 69.8874 47.9973 69.8666 48.0062C67.7032 48.9276 65.7387 48.7925 64.1857 47.616C64.1544 47.5911 64.1218 47.5681 64.0879 47.5468C64.0489 47.5288 64.0045 47.526 63.9635 47.539C63.9225 47.552 63.8879 47.5798 63.8664 47.6171C63.845 47.6543 63.8383 47.6982 63.8476 47.7401C63.857 47.7821 63.8818 47.819 63.917 47.8436C63.9295 47.8513 63.9494 47.867 63.9765 47.8887C64.793 48.5095 65.7765 48.8729 66.801 48.9323Z" fill="#0C0C0C"/>
<path d="M66.7497 50.5593C66.9484 50.5716 67.1479 50.5668 67.3458 50.5451C67.3911 50.5403 67.4327 50.5177 67.4613 50.4823C67.49 50.4469 67.5034 50.4016 67.4986 50.3564C67.4937 50.3111 67.4711 50.2696 67.4357 50.241C67.4002 50.2124 67.3549 50.199 67.3096 50.2038C66.1188 50.3302 65.5506 49.7854 65.5266 49.762C65.4944 49.7298 65.4507 49.7116 65.4051 49.7116C65.3595 49.7115 65.3157 49.7295 65.2835 49.7617C65.2512 49.7938 65.233 49.8375 65.233 49.883C65.2329 49.9285 65.251 49.9722 65.2832 50.0044C65.6931 50.353 66.2113 50.5491 66.7497 50.5593Z" fill="#0C0C0C"/>
<path d="M72.7105 41.9405C73.174 41.9405 73.5497 41.5653 73.5497 41.1025C73.5497 40.6397 73.174 40.2645 72.7105 40.2645C72.2471 40.2645 71.8713 40.6397 71.8713 41.1025C71.8713 41.5653 72.2471 41.9405 72.7105 41.9405Z" fill="#0C0C0C"/>
<path d="M64.5123 41.4269C64.9758 41.4269 65.3515 41.0517 65.3515 40.5889C65.3515 40.1261 64.9758 39.7509 64.5123 39.7509C64.0488 39.7509 63.6731 40.1261 63.6731 40.5889C63.6731 41.0517 64.0488 41.4269 64.5123 41.4269Z" fill="#0C0C0C"/>
<path d="M52.9769 46.6661C50.9065 46.6925 49.2002 44.502 49.1732 42.4346C49.1461 40.3672 50.8105 39.2058 52.8809 39.1797L53.9653 40.5512L54.7563 46.6436L52.9769 46.6661Z" fill="#E98862"/>
<path d="M55.0354 43.3441C55.0354 43.3441 55.7346 33.1206 58.8391 32.4891C60.9068 32.0686 65.9209 34.9974 70.565 34.1128C72.597 33.7271 74.5259 34.228 74.7221 35.1865C74.7996 35.566 76.0656 30.1122 72.8838 25.9745C70.3505 22.6792 62.0601 21.7489 58.2884 22.829C47.8451 25.8208 52.4536 39.6295 52.4536 39.6295L52.9192 43.1542L55.0354 43.3441Z" fill="#0C0C0C"/>
<path d="M68.0513 46.5189H68.0646C68.7318 46.5121 69.85 46.4266 69.8456 45.9281C69.8411 45.515 68.6643 41.069 68.5297 40.5634C68.5168 40.5214 68.4882 40.486 68.4498 40.4647C68.4113 40.4433 68.3661 40.4377 68.3236 40.449C68.2811 40.4602 68.2446 40.4875 68.2218 40.525C68.199 40.5626 68.1917 40.6075 68.2013 40.6503C68.7241 42.6195 69.5026 45.651 69.5059 45.9323C69.4414 46.051 68.7523 46.1732 68.0614 46.1803C68.0178 46.1813 67.9763 46.1989 67.9453 46.2295C67.9144 46.2601 67.8964 46.3015 67.8951 46.345C67.8938 46.3885 67.9093 46.4308 67.9383 46.4632C67.9674 46.4957 68.0078 46.5157 68.0513 46.5192V46.5189Z" fill="#0C0C0C"/>
<path d="M70.3287 36.5583C71.0299 36.3656 71.7702 36.3656 72.4713 36.5583C72.8158 36.6507 73.1444 36.7944 73.446 36.9844C73.7443 37.1704 74.0177 37.3934 74.26 37.6479C74.3064 37.6928 74.3334 37.7541 74.3351 37.8186C74.3368 37.8831 74.3132 37.9457 74.2693 37.9931C74.2253 38.0404 74.1646 38.0687 74.1 38.0718C74.0354 38.075 73.9722 38.0528 73.9239 38.0099L73.9087 37.9969C73.6843 37.7895 73.4347 37.6112 73.1658 37.466C72.9019 37.3217 72.6177 37.218 72.3227 37.1586C71.7421 37.037 71.1397 37.0707 70.5763 37.2562L70.5525 37.2645C70.4596 37.2973 70.3573 37.2919 70.2684 37.2495C70.1794 37.2071 70.1109 37.1311 70.0781 37.0383C70.0452 36.9454 70.0506 36.8434 70.0931 36.7545C70.1356 36.6657 70.2117 36.5973 70.3047 36.5645L70.3287 36.5583Z" fill="#0C0C0C"/>
<path d="M65.3637 36.9793C64.8302 36.7204 64.2377 36.6069 63.6461 36.6503C63.3458 36.6698 63.0503 36.7346 62.7695 36.8425C62.484 36.9508 62.2132 37.0943 61.9635 37.2699L61.9475 37.2805C61.8939 37.3148 61.8291 37.3272 61.7666 37.3151C61.7041 37.3029 61.6487 37.2672 61.6119 37.2153C61.5751 37.1634 61.5597 37.0994 61.569 37.0365C61.5782 36.9736 61.6114 36.9167 61.6616 36.8776C61.9357 36.6575 62.2365 36.4728 62.557 36.328C62.8814 36.1801 63.2262 36.0814 63.5798 36.0354C64.3005 35.9373 65.0343 36.0355 65.7037 36.3197C65.7943 36.359 65.8656 36.4327 65.9018 36.5246C65.938 36.6164 65.9362 36.7188 65.8968 36.8093C65.8574 36.8998 65.7836 36.971 65.6917 37.0072C65.5997 37.0433 65.4971 37.0415 65.4065 37.0022L65.386 36.9924L65.3637 36.9793Z" fill="#0C0C0C"/>
<path d="M69.3308 29.5208C70.8633 29.2011 71.7235 27.1161 71.2523 24.8638C70.781 22.6115 69.1567 21.0448 67.6243 21.3645C66.0918 21.6842 65.2315 23.7693 65.7028 26.0216C66.174 28.2739 67.7983 29.8405 69.3308 29.5208Z" fill="#0C0C0C"/>
<path d="M154.801 234.347C154.801 234.347 156.394 242.594 164.127 243.053C171.86 243.513 170.183 249.665 170.183 249.665H140.632V234.922L154.801 234.347Z" fill="#367CFF"/>
<path d="M98.5801 229.139C98.5801 229.139 96.3642 237.242 103.1 241.063C109.836 244.884 105.612 249.665 105.612 249.665L79.0949 236.638L85.6121 223.409L98.5801 229.139Z" fill="#367CFF"/>
<path d="M82.1566 226.851L104.518 156.408H63.9845C55.8421 156.408 52.4479 149.513 52.4479 141.383C52.4479 133.253 60.4524 126.126 68.5942 126.126H123.3C128.266 126.126 133.834 129.158 136.56 133.304C139.285 137.449 138.548 143.873 136.574 148.423L100.765 235.269" fill="#262626"/>
<path opacity="0.8" d="M82.1566 226.851L104.518 156.408H63.9845C55.8421 156.408 52.4479 149.513 52.4479 141.383C52.4479 133.253 60.4524 126.126 68.5942 126.126H123.3C128.266 126.126 133.834 129.158 136.56 133.304C139.285 137.449 138.548 143.873 136.574 148.423L100.765 235.269" fill="#0A0A0A"/>
<path d="M138.932 242.006L101.542 156.408L52.4473 156.404C40.9437 155.504 35.6752 149.209 35.8428 141.08C36.008 133.055 40.0774 125.128 48.0781 125.128H114.249C120.168 125.249 124.826 131.782 127.022 137.272L158.105 236.765" fill="#262626"/>
<path d="M32.4943 125.226C32.4943 125.226 30.314 139.424 33.7701 147.318C38.0846 157.172 54.2589 156.404 54.2589 156.404L53.3474 125.128L32.4943 125.226Z" fill="#262626"/>
<path d="M128.428 124.947L93.7491 117.771C92.304 117.472 90.9578 116.814 89.835 115.858C88.7122 114.902 87.8491 113.678 87.3255 112.3L73.6856 76.4086C73.2702 75.3314 73.0721 74.1829 73.1026 73.0291C73.1331 71.8752 73.3916 70.7388 73.8632 69.685C74.3348 68.6312 75.0103 67.6808 75.8508 66.8884C76.6914 66.0961 77.6804 65.4774 78.7611 65.0678C79.8418 64.6583 80.9929 64.466 82.1483 64.502C83.3036 64.538 84.4405 64.8016 85.4935 65.2776C86.5466 65.7537 87.495 66.4327 88.2845 67.2759C89.0739 68.119 89.6887 69.1096 90.0936 70.1907L102.025 101.586L131.99 107.786C131.99 107.786 129.03 125.071 128.428 124.947Z" fill="#367CFF"/>
<path d="M88.3181 85.5229C87.9178 90.2212 85.079 119.532 84.6926 125.319H32.5172C32.2174 120.1 31.2442 97.9403 30.1072 87.7339C29.0222 77.9944 28.6285 72.4364 29.8784 69.41C32.0828 64.0716 37.5991 62.1509 42.3508 61.5084C45.252 61.1164 49.6159 60.8351 49.6159 60.8351C49.6159 60.8351 49.9856 68.299 58.796 68.7144C70.7894 69.2782 69.9885 60.8351 70.0479 60.8351C71.9908 60.8351 82.567 62.2461 85.2115 63.9672C88.9469 66.3984 90.0506 69.7112 90.0942 72.7548C90.1445 76.2596 88.7721 80.1947 88.3181 85.5229Z" fill="#367CFF"/>
<path d="M86.2676 109.473H86.2551C86.2357 109.472 86.2167 109.466 86.1994 109.457C86.182 109.448 86.1666 109.436 86.154 109.421C86.1414 109.406 86.1318 109.389 86.1259 109.371C86.1199 109.352 86.1177 109.333 86.1193 109.313L87.4738 93.0655C87.4749 93.0459 87.48 93.0267 87.4887 93.0091C87.4975 92.9916 87.5097 92.976 87.5247 92.9633C87.5397 92.9506 87.5571 92.9411 87.5759 92.9353C87.5947 92.9296 87.6145 92.9277 87.634 92.9298C87.6534 92.9314 87.6724 92.9369 87.6898 92.9458C87.7071 92.9547 87.7225 92.967 87.7351 92.9819C87.7478 92.9967 87.7573 93.014 87.7633 93.0325C87.7692 93.0511 87.7714 93.0706 87.7698 93.0901L86.4153 109.338C86.4121 109.375 86.3952 109.409 86.3678 109.434C86.3405 109.459 86.3047 109.473 86.2676 109.473Z" fill="#0C0C0C"/>
<path d="M111.116 119.225L122.564 84.0837C122.766 83.4662 123.157 82.9281 123.684 82.5465C124.21 82.1649 124.843 81.9594 125.494 81.9594H175.106C175.593 81.9594 176.072 82.0743 176.505 82.2947C176.938 82.5151 177.313 82.8348 177.599 83.2277C177.884 83.6205 178.073 84.0753 178.149 84.5548C178.225 85.0344 178.186 85.5251 178.035 85.9867L163.616 121.129C163.415 121.746 163.023 122.285 162.497 122.666C161.97 123.048 161.337 123.253 160.687 123.253H114.046C113.559 123.253 113.08 123.139 112.646 122.918C112.213 122.697 111.838 122.378 111.553 121.985C111.267 121.592 111.078 121.137 111.003 120.657C110.927 120.177 110.966 119.687 111.116 119.225Z" fill="#292A2E"/>
<path d="M111.116 119.225L122.564 84.0837C122.766 83.4662 123.157 82.9281 123.684 82.5465C124.21 82.1649 124.843 81.9594 125.494 81.9594H175.106C175.593 81.9594 176.072 82.0743 176.505 82.2947C176.938 82.5151 177.313 82.8348 177.599 83.2277C177.884 83.6205 178.073 84.0753 178.149 84.5548C178.225 85.0344 178.186 85.5251 178.035 85.9867L163.616 121.129C163.415 121.746 163.023 122.285 162.497 122.666C161.97 123.048 161.337 123.253 160.687 123.253H114.046C113.559 123.253 113.08 123.139 112.646 122.918C112.213 122.697 111.838 122.378 111.553 121.985C111.267 121.592 111.078 121.137 111.003 120.657C110.927 120.177 110.966 119.687 111.116 119.225Z" fill="#292A2E"/>
<path d="M120.455 120.403H89.2336C88.4557 120.403 87.825 121.032 87.825 121.809V121.845C87.825 122.622 88.4557 123.252 89.2336 123.252H120.455C121.233 123.252 121.864 122.622 121.864 121.845V121.809C121.864 121.032 121.233 120.403 120.455 120.403Z" fill="#292A2E"/>
<path d="M120.455 120.403H89.2336C88.4557 120.403 87.825 121.032 87.825 121.809V121.845C87.825 122.622 88.4557 123.252 89.2336 123.252H120.455C121.233 123.252 121.864 122.622 121.864 121.845V121.809C121.864 121.032 121.233 120.403 120.455 120.403Z" fill="#292A2E"/>
<path d="M143.09 109.205C145.792 109.205 147.982 107.018 147.982 104.32C147.982 101.622 145.792 99.4355 143.09 99.4355C140.388 99.4355 138.198 101.622 138.198 104.32C138.198 107.018 140.388 109.205 143.09 109.205Z" fill="white"/>
<path d="M108.507 110.993L100.715 108.266L101.833 108.188C102.194 108.156 102.529 107.989 102.77 107.72C103.012 107.45 103.142 107.099 103.135 106.738C103.124 106.552 103.076 106.369 102.993 106.202C102.91 106.035 102.793 105.887 102.651 105.766C102.508 105.645 102.342 105.555 102.164 105.5C101.985 105.445 101.797 105.428 101.611 105.448L87.825 106.911L88.1816 111.335C88.2929 112.709 88.8125 114.018 89.6739 115.095C90.5354 116.173 91.6993 116.968 93.0165 117.381L98.9866 119.238C99.295 119.34 99.6293 119.333 99.933 119.218C100.237 119.102 100.491 118.886 100.653 118.605C100.794 118.348 100.849 118.052 100.811 117.762C100.772 117.471 100.641 117.201 100.437 116.99C100.45 116.981 100.461 116.969 100.47 116.955C100.478 116.941 100.484 116.926 100.486 116.91C100.488 116.894 100.487 116.877 100.483 116.862C100.479 116.846 100.471 116.832 100.461 116.819L101.561 117.164C101.904 117.279 102.278 117.259 102.607 117.11C102.937 116.96 103.197 116.691 103.335 116.357C103.448 116.054 103.451 115.72 103.342 115.416C103.233 115.111 103.021 114.855 102.741 114.692C102.754 114.685 102.765 114.675 102.775 114.664L103.227 114.806C103.536 114.908 103.87 114.901 104.174 114.786C104.477 114.671 104.732 114.454 104.894 114.173C105.065 113.861 105.108 113.495 105.015 113.152C104.922 112.809 104.7 112.516 104.395 112.333C104.397 112.324 104.399 112.314 104.399 112.305L107.644 113.44C107.805 113.499 107.977 113.525 108.148 113.516C108.319 113.508 108.487 113.466 108.642 113.393C108.797 113.319 108.936 113.216 109.051 113.088C109.166 112.961 109.254 112.812 109.311 112.65C109.367 112.489 109.391 112.317 109.382 112.146C109.372 111.975 109.328 111.808 109.253 111.654C109.177 111.5 109.072 111.362 108.944 111.249C108.815 111.136 108.665 111.049 108.503 110.994L108.507 110.993Z" fill="#E98862"/>
<path opacity="0.2" d="M104.276 112.43C104.261 112.43 104.246 112.428 104.232 112.423L101.093 111.283C101.061 111.271 101.034 111.247 101.02 111.216C101.006 111.185 101.004 111.149 101.016 111.117C101.028 111.085 101.052 111.059 101.083 111.044C101.114 111.03 101.15 111.028 101.182 111.04L104.321 112.18C104.35 112.19 104.374 112.21 104.389 112.237C104.404 112.263 104.41 112.294 104.404 112.324C104.399 112.354 104.383 112.381 104.36 112.4C104.337 112.42 104.307 112.43 104.277 112.43H104.276Z" fill="#0A0A0A"/>
<path opacity="0.2" d="M102.689 114.709C102.674 114.709 102.659 114.706 102.645 114.702L100.171 113.825C100.155 113.82 100.14 113.811 100.127 113.8C100.114 113.789 100.103 113.775 100.096 113.759C100.088 113.744 100.084 113.727 100.083 113.71C100.082 113.693 100.084 113.676 100.09 113.659C100.096 113.643 100.105 113.628 100.116 113.615C100.128 113.603 100.142 113.592 100.157 113.585C100.173 113.578 100.19 113.574 100.207 113.573C100.224 113.573 100.242 113.576 100.258 113.582L102.732 114.458C102.761 114.468 102.785 114.488 102.8 114.515C102.816 114.541 102.821 114.572 102.816 114.602C102.811 114.632 102.795 114.659 102.772 114.679C102.749 114.698 102.719 114.709 102.689 114.709Z" fill="#0A0A0A"/>
<path opacity="0.2" d="M100.359 117.021C100.343 117.021 100.328 117.018 100.313 117.013L99.1539 116.572C99.1219 116.559 99.096 116.535 99.0821 116.504C99.0681 116.472 99.0671 116.437 99.0793 116.405C99.0916 116.373 99.1161 116.347 99.1474 116.333C99.1787 116.319 99.2143 116.318 99.2464 116.33L100.405 116.772C100.434 116.782 100.457 116.803 100.472 116.829C100.487 116.855 100.492 116.886 100.487 116.916C100.481 116.946 100.466 116.972 100.442 116.992C100.419 117.011 100.39 117.022 100.359 117.021H100.359Z" fill="#0A0A0A"/>
<path d="M93.9268 104.293L61.2384 104.271L48.8721 74.1483L30.4246 81.8932L45.8529 117.644L46.0036 118C46.7584 119.738 48.0299 121.202 49.6458 122.194C51.2616 123.186 53.1439 123.658 55.0374 123.546L94.4204 121.223L93.9268 104.293Z" fill="#367CFF"/>
<path d="M54.4963 123.711C52.6637 123.707 50.8718 123.171 49.3395 122.167C47.8072 121.164 46.6009 119.736 45.868 118.059L45.7171 117.703L32.5695 87.2413L32.8423 87.1226L46.1406 117.942C46.8868 119.649 48.1386 121.087 49.7276 122.063C51.3166 123.038 53.1666 123.504 55.0288 123.398L94.2676 121.084L93.7815 104.442L61.1383 104.42L51.6289 81.2585L51.9041 81.1463L61.3371 104.123L94.07 104.145L94.5731 121.363L94.429 121.372L55.0472 123.694C54.8633 123.705 54.6788 123.711 54.4963 123.711Z" fill="#0C0C0C"/>
<path d="M18.1377 126.097L5.60128 249.94L6.1926 250L18.729 126.157L18.1377 126.097Z" fill="#494949"/>
<path d="M69.9334 126.097L57.3969 249.94L57.9883 250L70.5247 126.157L69.9334 126.097Z" fill="#494949"/>
<path d="M177.934 126.095L177.343 126.155L189.871 249.999L190.462 249.939L177.934 126.095Z" fill="#494949"/>
<path d="M189.231 123.694H7.66127C6.31646 123.694 5.22628 124.783 5.22628 126.126C5.22628 127.468 6.31646 128.557 7.66127 128.557H189.231C190.576 128.557 191.666 127.468 191.666 126.126C191.666 124.783 190.576 123.694 189.231 123.694Z" fill="#292A2E"/>
<path opacity="0.8" d="M189.231 123.694H7.66127C6.31646 123.694 5.22628 124.783 5.22628 126.126C5.22628 127.468 6.31646 128.557 7.66127 128.557H189.231C190.576 128.557 191.666 127.468 191.666 126.126C191.666 124.783 190.576 123.694 189.231 123.694Z" fill="white"/>
<path d="M189.232 128.854H7.66246C7.30129 128.857 6.94296 128.79 6.6082 128.654C6.27343 128.519 5.96887 128.318 5.71215 128.065C5.45542 127.811 5.25161 127.509 5.11252 127.176C4.97343 126.843 4.90182 126.486 4.90182 126.126C4.90182 125.765 4.97343 125.408 5.11252 125.075C5.25161 124.742 5.45542 124.44 5.71215 124.186C5.96887 123.933 6.27343 123.732 6.6082 123.597C6.94296 123.462 7.30129 123.394 7.66246 123.398H189.232C189.593 123.394 189.951 123.462 190.286 123.597C190.621 123.732 190.925 123.933 191.182 124.186C191.439 124.44 191.642 124.742 191.781 125.075C191.921 125.408 191.992 125.765 191.992 126.126C191.992 126.486 191.921 126.843 191.781 127.176C191.642 127.509 191.439 127.811 191.182 128.065C190.925 128.318 190.621 128.519 190.286 128.654C189.951 128.79 189.593 128.857 189.232 128.854ZM7.66246 123.991C7.37962 123.988 7.09893 124.04 6.83665 124.146C6.57437 124.252 6.33572 124.409 6.13453 124.607C5.93334 124.806 5.77361 125.042 5.66459 125.303C5.55557 125.564 5.49944 125.843 5.49944 126.126C5.49944 126.408 5.55557 126.688 5.66459 126.948C5.77361 127.209 5.93334 127.445 6.13453 127.644C6.33572 127.843 6.57437 127.999 6.83665 128.105C7.09893 128.211 7.37962 128.264 7.66246 128.26H189.232C189.514 128.264 189.795 128.211 190.057 128.105C190.32 127.999 190.558 127.843 190.759 127.644C190.961 127.445 191.12 127.209 191.229 126.948C191.338 126.688 191.395 126.408 191.395 126.126C191.395 125.843 191.338 125.564 191.229 125.303C191.12 125.042 190.961 124.806 190.759 124.607C190.558 124.409 190.32 124.252 190.057 124.146C189.795 124.04 189.514 123.988 189.232 123.991H7.66246Z" fill="#292A2E"/>
<path d="M189.231 123.694H61.437C60.0922 123.694 59.002 124.783 59.002 126.126C59.002 127.468 60.0922 128.557 61.437 128.557H189.231C190.576 128.557 191.666 127.468 191.666 126.126C191.666 124.783 190.576 123.694 189.231 123.694Z" fill="white"/>
<path d="M189.232 128.854H61.437C60.7173 128.846 60.0297 128.555 59.5235 128.045C59.0172 127.534 58.7333 126.844 58.7333 126.126C58.7333 125.407 59.0172 124.717 59.5235 124.207C60.0297 123.696 60.7173 123.405 61.437 123.398H189.232C189.593 123.394 189.951 123.462 190.286 123.597C190.621 123.732 190.925 123.933 191.182 124.186C191.439 124.44 191.642 124.742 191.782 125.075C191.921 125.408 191.992 125.765 191.992 126.126C191.992 126.486 191.921 126.843 191.782 127.176C191.642 127.509 191.439 127.811 191.182 128.065C190.925 128.318 190.621 128.519 190.286 128.654C189.951 128.79 189.593 128.857 189.232 128.854ZM61.437 123.991C60.8744 123.998 60.3371 124.225 59.9416 124.625C59.5461 125.025 59.3243 125.564 59.3243 126.126C59.3243 126.687 59.5461 127.227 59.9416 127.626C60.3371 128.026 60.8744 128.254 61.437 128.26H189.232C189.514 128.264 189.795 128.211 190.057 128.105C190.32 127.999 190.558 127.843 190.76 127.644C190.961 127.445 191.12 127.209 191.229 126.948C191.338 126.688 191.395 126.408 191.395 126.126C191.395 125.843 191.338 125.564 191.229 125.303C191.12 125.042 190.961 124.806 190.76 124.607C190.558 124.409 190.32 124.252 190.057 124.146C189.795 124.04 189.514 123.988 189.232 123.991H61.437Z" fill="#292A2E"/>
<path d="M194.129 210.519C194.09 210.519 194.051 210.511 194.015 210.496C193.979 210.481 193.946 210.459 193.919 210.432C193.5 210.014 192.817 202.343 190.979 179.505C190.227 170.16 189.517 161.333 188.998 155.969C188.961 155.586 188.812 155.541 188.763 155.527C188.054 155.313 185.895 157.012 184.69 158.501C184.641 158.562 184.569 158.601 184.49 158.609C184.412 158.617 184.333 158.594 184.272 158.545C184.211 158.495 184.172 158.424 184.163 158.345C184.155 158.267 184.178 158.189 184.228 158.127C185.025 157.143 187.622 154.564 188.934 154.958C189.199 155.038 189.529 155.267 189.59 155.912C190.109 161.281 190.819 170.11 191.572 179.457C192.689 193.336 193.954 209.059 194.37 210.049C194.402 210.093 194.421 210.146 194.425 210.2C194.429 210.254 194.418 210.309 194.393 210.357C194.368 210.406 194.33 210.447 194.284 210.475C194.237 210.504 194.183 210.519 194.129 210.519Z" fill="#494949"/>
<path d="M188.234 165.812C193.166 161.865 194.8 155.722 191.885 152.09C188.97 148.459 182.609 148.715 177.678 152.662C172.747 156.609 171.113 162.752 174.028 166.384C176.943 170.015 183.303 169.759 188.234 165.812Z" fill="#0CBC8B"/>
<path opacity="0.2" d="M188.234 165.812C193.166 161.865 194.8 155.722 191.885 152.09C188.97 148.459 182.609 148.715 177.678 152.662C172.747 156.609 171.113 162.752 174.028 166.384C176.943 170.015 183.303 169.759 188.234 165.812Z" fill="white"/>
<path d="M175.41 167.307C175.382 167.307 175.354 167.299 175.331 167.284C175.307 167.269 175.288 167.247 175.276 167.222C175.264 167.197 175.259 167.168 175.263 167.14C175.266 167.112 175.278 167.086 175.296 167.064L189.349 150.141C189.374 150.111 189.411 150.092 189.45 150.088C189.489 150.085 189.528 150.097 189.559 150.122C189.589 150.147 189.608 150.183 189.612 150.223C189.615 150.262 189.603 150.301 189.578 150.331L175.525 167.254C175.511 167.271 175.493 167.284 175.473 167.293C175.454 167.302 175.432 167.307 175.41 167.307Z" fill="white"/>
<path d="M197.194 206.891C197.146 206.891 197.1 206.88 197.058 206.858C197.015 206.836 196.979 206.805 196.952 206.766C196.924 206.728 196.906 206.683 196.9 206.636C196.893 206.589 196.898 206.541 196.913 206.497L202.192 191.337C202.348 190.892 202.613 190.493 202.963 190.176C203.313 189.859 203.737 189.635 204.196 189.525C204.655 189.414 205.135 189.42 205.591 189.543C206.047 189.665 206.465 189.9 206.807 190.225L209.598 192.887C209.655 192.942 209.688 193.016 209.69 193.095C209.692 193.174 209.662 193.25 209.608 193.307C209.553 193.364 209.478 193.397 209.399 193.399C209.321 193.401 209.244 193.371 209.187 193.317L206.396 190.654C206.127 190.397 205.797 190.212 205.436 190.115C205.076 190.019 204.698 190.014 204.335 190.101C203.973 190.189 203.638 190.366 203.362 190.616C203.085 190.866 202.876 191.181 202.754 191.532L197.475 206.692C197.455 206.75 197.417 206.801 197.366 206.836C197.316 206.872 197.256 206.891 197.194 206.891Z" fill="#494949"/>
<path d="M217.395 201.28C221.049 198.392 220.832 192.039 216.909 187.091C212.987 182.143 206.845 180.473 203.191 183.361C199.536 186.25 199.753 192.603 203.676 197.551C207.598 202.499 213.74 204.169 217.395 201.28Z" fill="#0CBC8B"/>
<path d="M191.732 209.552C191.665 209.552 191.601 209.529 191.548 209.488C191.496 209.447 191.459 209.389 191.443 209.324L182.583 172.337C182.522 172.085 182.393 171.855 182.21 171.671C182.027 171.488 181.796 171.358 181.544 171.297C181.292 171.235 181.028 171.245 180.781 171.323C180.533 171.402 180.313 171.548 180.143 171.744L177.412 174.895C177.386 174.925 177.355 174.95 177.32 174.967C177.285 174.985 177.247 174.996 177.208 174.999C177.169 175.002 177.129 174.997 177.092 174.985C177.055 174.973 177.02 174.953 176.991 174.927C176.961 174.902 176.937 174.871 176.919 174.835C176.902 174.8 176.891 174.762 176.889 174.723C176.886 174.684 176.891 174.645 176.904 174.607C176.917 174.57 176.936 174.536 176.962 174.507L179.693 171.356C179.935 171.077 180.248 170.87 180.6 170.758C180.951 170.646 181.327 170.633 181.686 170.72C182.044 170.808 182.372 170.992 182.632 171.253C182.892 171.515 183.075 171.842 183.161 172.201L192.02 209.188C192.038 209.264 192.025 209.344 191.983 209.411C191.942 209.478 191.876 209.525 191.8 209.544C191.778 209.549 191.755 209.552 191.732 209.552Z" fill="#494949"/>
<path d="M188.463 183.112C189.54 176.893 186.69 171.21 182.098 170.417C177.505 169.623 172.909 174.022 171.832 180.24C170.755 186.458 173.605 192.142 178.198 192.935C182.79 193.728 187.386 189.33 188.463 183.112Z" fill="#0CBC8B"/>
<path d="M194.129 210.519C194.117 210.519 194.105 210.518 194.093 210.517C194.054 210.512 194.016 210.5 193.982 210.48C193.948 210.461 193.919 210.435 193.894 210.405C193.87 210.374 193.853 210.339 193.842 210.301C193.832 210.264 193.829 210.224 193.834 210.186L199.491 164.323C199.552 163.823 199.757 163.352 200.081 162.966C200.404 162.58 200.832 162.295 201.314 162.146C201.795 161.997 202.31 161.99 202.795 162.126C203.28 162.262 203.716 162.535 204.05 162.912L210.516 170.225C210.568 170.284 210.594 170.361 210.589 170.44C210.584 170.518 210.548 170.592 210.489 170.644C210.43 170.696 210.353 170.722 210.274 170.718C210.195 170.713 210.122 170.677 210.07 170.618L203.604 163.305C203.346 163.013 203.009 162.802 202.634 162.697C202.259 162.592 201.862 162.598 201.489 162.713C201.117 162.828 200.786 163.048 200.536 163.346C200.286 163.645 200.128 164.009 200.081 164.395L194.424 210.258C194.415 210.33 194.38 210.396 194.326 210.444C194.272 210.492 194.202 210.519 194.129 210.519Z" fill="#494949"/>
<path d="M217.147 174.289C219.403 170.216 216.749 164.438 211.219 161.384C205.689 158.329 199.377 159.154 197.121 163.227C194.865 167.299 197.519 173.077 203.049 176.132C208.579 179.186 214.891 178.361 217.147 174.289Z" fill="#0CBC8B"/>
<path opacity="0.2" d="M217.395 201.28C221.049 198.392 220.832 192.039 216.909 187.091C212.987 182.143 206.845 180.473 203.191 183.361C199.536 186.25 199.753 192.603 203.676 197.551C207.598 202.499 213.74 204.169 217.395 201.28Z" fill="white"/>
<path opacity="0.5" d="M188.463 183.112C189.54 176.893 186.69 171.21 182.098 170.417C177.505 169.623 172.909 174.022 171.832 180.24C170.755 186.458 173.605 192.142 178.198 192.935C182.79 193.728 187.386 189.33 188.463 183.112Z" fill="white"/>
<path opacity="0.5" d="M217.147 174.289C219.403 170.216 216.749 164.438 211.219 161.384C205.689 158.329 199.377 159.154 197.121 163.227C194.865 167.299 197.519 173.077 203.049 176.132C208.579 179.186 214.891 178.361 217.147 174.289Z" fill="white"/>
<path d="M201.364 249.434H186.893L184.495 203.201H203.762L201.364 249.434Z" fill="#292A2E"/>
<path opacity="0.3" d="M201.364 249.434H186.893L184.495 203.201H203.762L201.364 249.434Z" fill="white"/>
<path d="M217.395 201.427C217.373 201.427 217.35 201.422 217.33 201.412C217.31 201.402 217.292 201.388 217.278 201.37L203.074 183.451C203.049 183.42 203.038 183.381 203.043 183.342C203.047 183.303 203.067 183.267 203.098 183.243C203.129 183.218 203.168 183.207 203.207 183.212C203.247 183.216 203.282 183.236 203.307 183.267L217.511 201.186C217.529 201.208 217.54 201.234 217.543 201.262C217.546 201.29 217.541 201.318 217.529 201.343C217.517 201.368 217.498 201.389 217.474 201.404C217.45 201.419 217.423 201.427 217.395 201.427Z" fill="white"/>
<path d="M216.202 175.724C216.171 175.724 216.14 175.714 216.115 175.695L197.938 162.442C197.906 162.418 197.885 162.383 197.879 162.345C197.873 162.306 197.883 162.266 197.906 162.234C197.929 162.202 197.964 162.181 198.003 162.175C198.042 162.169 198.082 162.179 198.114 162.202L216.29 175.455C216.315 175.474 216.333 175.5 216.343 175.53C216.352 175.559 216.352 175.591 216.342 175.621C216.332 175.65 216.313 175.676 216.288 175.694C216.262 175.712 216.232 175.722 216.201 175.722L216.202 175.724Z" fill="white"/>
<path d="M177.459 192.742C177.446 192.742 177.433 192.74 177.421 192.737C177.383 192.726 177.351 192.702 177.331 192.668C177.311 192.634 177.306 192.593 177.316 192.555L183.102 170.907C183.113 170.87 183.138 170.839 183.172 170.82C183.205 170.801 183.245 170.796 183.283 170.806C183.32 170.816 183.352 170.84 183.372 170.873C183.392 170.906 183.398 170.946 183.389 170.984L177.603 192.632C177.594 192.663 177.576 192.691 177.55 192.711C177.524 192.731 177.492 192.742 177.459 192.742Z" fill="white"/>
<path d="M208.35 249.85H0.208017C0.152847 249.85 0.0999375 249.828 0.0609268 249.789C0.021916 249.75 0 249.698 0 249.643C0 249.587 0.021916 249.535 0.0609268 249.496C0.0999375 249.457 0.152847 249.435 0.208017 249.435H208.35C208.405 249.435 208.458 249.457 208.497 249.496C208.536 249.535 208.558 249.587 208.558 249.643C208.558 249.698 208.536 249.75 208.497 249.789C208.458 249.828 208.405 249.85 208.35 249.85H208.35Z" fill="#292A2E"/>
<g opacity="0.65">
<path d="M208.35 249.85H0.208017C0.152847 249.85 0.0999375 249.828 0.0609268 249.789C0.021916 249.75 0 249.698 0 249.643C0 249.587 0.021916 249.535 0.0609268 249.496C0.0999375 249.457 0.152847 249.435 0.208017 249.435H208.35C208.405 249.435 208.458 249.457 208.497 249.496C208.536 249.535 208.558 249.587 208.558 249.643C208.558 249.698 208.536 249.75 208.497 249.789C208.458 249.828 208.405 249.85 208.35 249.85H208.35Z" fill="#292A2E"/>
</g>
</svg>
