<svg width="35" height="35" viewBox="0 0 35 35" fill="none" xmlns="http://www.w3.org/2000/svg">
<path d="M16.2647 21.2471C16.2647 24.1912 14.7309 26.0441 12.2809 26.0441C9.83088 26.0441 8.29706 24.1809 8.29706 21.2471C8.29706 18.2926 9.83088 16.4397 12.2809 16.4397C14.7309 16.4397 16.2647 18.2926 16.2647 21.2471ZM19.6824 10.8603L18.6118 10.9324C18.0044 10.9735 17.7368 11.1897 17.7368 11.5809C17.7368 11.9926 18.0765 12.2191 18.55 12.2191C19.1985 12.2191 19.6824 11.7971 19.6824 11.2309V10.8603ZM35 17.5C35 27.2691 27.2691 35 17.5 35C7.73088 35 0 27.2691 0 17.5C0 7.73088 7.73088 0 17.5 0C27.2691 0 35 7.73088 35 17.5ZM21.5559 10.6441C21.5559 12.0647 22.3382 12.9294 23.6147 12.9294C24.6956 12.9294 25.375 12.3221 25.4882 11.4574H24.6441C24.5309 11.9309 24.1603 12.1882 23.6147 12.1882C22.8941 12.1882 22.4515 11.6015 22.4515 10.6441C22.4515 9.69706 22.8941 9.13088 23.6147 9.13088C24.1912 9.13088 24.5515 9.46029 24.6441 9.88235H25.4882C25.375 9.03824 24.7162 8.4 23.6147 8.4C22.3382 8.38971 21.5559 9.25441 21.5559 10.6441ZM9.78971 8.48235V12.8471H10.6544V10.1706C10.6544 9.60441 11.0559 9.15147 11.5809 9.15147C12.0956 9.15147 12.425 9.46029 12.425 9.95441V12.8471H13.2691V10.0882C13.2691 9.56324 13.6294 9.15147 14.1956 9.15147C14.7618 9.15147 15.0397 9.43971 15.0397 10.0471V12.8471H15.9044V9.83088C15.9044 8.925 15.3897 8.38971 14.5044 8.38971C13.8971 8.38971 13.3926 8.69853 13.1765 9.17206H13.1044C12.9088 8.69853 12.4971 8.38971 11.9 8.38971C11.3132 8.38971 10.8706 8.67794 10.6853 9.17206H10.6235V8.47206L9.78971 8.48235ZM17.7985 21.2471C17.7985 17.4485 15.6779 15.0603 12.2809 15.0603C8.88382 15.0603 6.76324 17.4485 6.76324 21.2471C6.76324 25.0456 8.88382 27.4235 12.2809 27.4235C15.6779 27.4235 17.7985 25.0353 17.7985 21.2471ZM18.3338 12.9191C18.9103 12.9191 19.3838 12.6721 19.6515 12.2294H19.7235V12.8471H20.5574V9.86176C20.5574 8.94559 19.9397 8.4 18.8382 8.4C17.8397 8.4 17.1397 8.88382 17.0471 9.61471H17.8809C17.9735 9.29559 18.3132 9.12059 18.7971 9.12059C19.3838 9.12059 19.6926 9.38824 19.6926 9.87206V10.2529L18.5088 10.325C17.4691 10.3868 16.8824 10.8397 16.8824 11.6324C16.8721 12.4147 17.4897 12.9191 18.3338 12.9191ZM27.7735 23.8206C27.7735 22.1221 26.7853 21.1338 24.2941 20.5882L22.9662 20.3C21.3294 19.9397 20.6912 19.2912 20.6912 18.3544C20.6912 17.1397 21.8441 16.4088 23.3368 16.4088C24.9015 16.4088 25.9309 17.2118 26.0647 18.5294H27.5574C27.4853 16.5015 25.7662 15.0706 23.3779 15.0706C20.8971 15.0706 19.1574 16.4603 19.1574 18.4265C19.1574 20.125 20.1971 21.2162 22.5956 21.7412L23.9235 22.0294C25.5809 22.3897 26.25 23.0588 26.25 24.0574C26.25 25.2309 25.0662 26.0853 23.45 26.0853C21.7309 26.0853 20.5368 25.3029 20.3618 24.0162H18.8691C19.0132 26.0853 20.7529 27.4235 23.3676 27.4235C26.0338 27.4235 27.7735 26.0338 27.7735 23.8206Z" fill="#020C12"/>
</svg>
