<svg width="31" height="31" viewBox="0 0 31 31" fill="none" xmlns="http://www.w3.org/2000/svg">
<path d="M22.6309 21.8226C23.3906 22.6025 23.3906 23.8457 22.6309 24.6255L17.0155 30.3891C15.7581 31.6797 13.5688 30.7895 13.5688 28.9877L13.5688 17.4604C13.5688 15.6586 15.7581 14.7684 17.0155 16.059L22.6309 21.8226Z" fill="white"/>
<path d="M9.17743 23.4035C8.3976 24.1632 7.1544 24.1632 6.37458 23.4035L0.610935 17.7881C-0.679619 16.5307 0.210563 14.3414 2.01236 14.3414L13.5396 14.3414C15.3414 14.3414 16.2316 16.5307 14.9411 17.7881L9.17743 23.4035Z" fill="white"/>
<path d="M21.5905 8.60066C22.3704 7.8409 23.6136 7.8409 24.3934 8.60066L30.157 14.2161C31.4476 15.4734 30.5574 17.6627 28.7556 17.6627H17.2283C15.4265 17.6627 14.5363 15.4734 15.8269 14.2161L21.5905 8.60066Z" fill="white"/>
<path d="M7.59629 9.17737C6.83653 8.39754 6.83653 7.15434 7.59629 6.37451L13.2117 0.610873C14.469 -0.679681 16.6584 0.210501 16.6584 2.0123L16.6584 13.5396C16.6584 15.3414 14.469 16.2316 13.2117 14.941L7.59629 9.17737Z" fill="white"/>
</svg>
