<svg width="28" height="32" viewBox="0 0 28 32" fill="none" xmlns="http://www.w3.org/2000/svg">
<path fill-rule="evenodd" clip-rule="evenodd" d="M13.9518 0C19.1726 3.44141 23.8891 5.06953 27.937 4.68464C28.6439 19.5539 23.3635 28.3352 14.0059 32C4.96926 28.5698 -0.375809 20.1664 0.0206135 4.45911C4.77243 4.71771 9.43434 3.64948 13.9518 0ZM8.46019 17.3893C8.16469 17.1263 8.13013 16.6638 8.38281 16.3563C8.63599 16.0487 9.08074 16.013 9.37624 16.2758L12.2546 18.8474L18.5603 11.638C18.8225 11.3385 19.2685 11.3167 19.5568 11.5891C19.8445 11.8615 19.8655 12.3253 19.6036 12.625L12.8371 20.3615L12.8366 20.3609C12.5812 20.6529 12.1477 20.6828 11.8575 20.4245L8.46019 17.3893Z" fill="#0E4364"/>
</svg>
