<svg width="35" height="35" viewBox="0 0 35 35" fill="none" xmlns="http://www.w3.org/2000/svg">
<path d="M10.9597 17.4999C10.9597 21.1062 13.8936 24.0398 17.5 24.0398C21.1061 24.0398 24.0398 21.106 24.0398 17.4999C24.0398 13.8936 21.1061 10.9597 17.5 10.9597C13.8936 10.9597 10.9597 13.8936 10.9597 17.4999Z" fill="#020C12"/>
<path d="M32.5595 8.86694C32.6105 8.77731 32.6096 8.66726 32.5569 8.57856C31.0335 6.01289 28.8656 3.86377 26.2875 2.36359C23.6304 0.817279 20.5916 0 17.5 0C12.1496 0 7.16329 2.40111 3.81959 6.58769C3.7458 6.67995 3.73616 6.8079 3.79526 6.91015L8.72165 15.4427C8.77329 15.5322 8.86854 15.5861 8.96998 15.5861C8.98284 15.5861 8.99592 15.5852 9.00888 15.5835C9.12433 15.5678 9.21877 15.4838 9.24792 15.371C10.2193 11.6072 13.6127 8.97848 17.5 8.97848C17.7412 8.97848 17.9903 8.98949 18.2407 9.01084C18.2489 9.01164 18.2571 9.01198 18.2653 9.01198H32.3102C32.4133 9.01198 32.5086 8.95667 32.5595 8.86694Z" fill="#020C12"/>
<path d="M20.086 25.811C20.0147 25.7188 19.8952 25.6792 19.7823 25.7104C19.0414 25.9168 18.2736 26.0213 17.5 26.0213C14.2133 26.0213 11.1842 24.0937 9.78267 21.1105C9.77923 21.1032 9.77544 21.0961 9.77143 21.0889L2.74389 8.9172C2.69271 8.82826 2.59792 8.77376 2.49544 8.77376C2.49498 8.77376 2.49441 8.77376 2.49395 8.77376C2.3909 8.77433 2.296 8.82999 2.24551 8.91972C0.776541 11.5264 0 14.4933 0 17.4999C0 21.7177 1.52164 25.7918 4.28457 28.9717C7.02008 32.12 10.7861 34.1919 14.8891 34.8058C14.9033 34.808 14.9176 34.8089 14.9317 34.8089C15.033 34.8089 15.1283 34.755 15.18 34.6655L20.1077 26.1303C20.166 26.0293 20.1574 25.9031 20.086 25.811Z" fill="#020C12"/>
<path d="M33.5283 10.9262H23.6624C23.5458 10.9262 23.4408 10.9968 23.3969 11.1046C23.3528 11.2125 23.3784 11.3364 23.4616 11.4179C25.1123 13.0362 26.0214 15.1961 26.0214 17.4999C26.0214 19.2439 25.4951 20.9223 24.4994 22.3538C24.4948 22.3604 24.4906 22.3672 24.4866 22.3742L17.4469 34.567C17.3953 34.6563 17.3957 34.7664 17.4477 34.8554C17.4992 34.9434 17.5935 34.9974 17.6953 34.9974C17.6963 34.9974 17.6975 34.9974 17.6985 34.9974C22.3311 34.9457 26.6784 33.1027 29.9392 29.808C33.2027 26.5105 35 22.1394 35 17.4999C35 15.2947 34.5947 13.1443 33.7953 11.1083C33.7522 10.9984 33.6462 10.9262 33.5283 10.9262Z" fill="#020C12"/>
</svg>
