<svg width="38" height="39" viewBox="0 0 38 39" fill="none" xmlns="http://www.w3.org/2000/svg">
<path d="M34.8341 19.7893V13.4738H31.6682V10.3155H28.5V8.7369H31.6682V4H26.9182V7.15715H23.75V10.3155H14.25V7.15715H11.0841V4H6.33413V8.7369H9.5V10.3155H6.33413V13.4738H3.16825V19.7893H0V30.8417H4.75V24.5262H6.33413V30.8417H9.5V34H17.4183V29.2631H11.0841V27.6845H26.9182V29.2631H20.5841V34H28.5V30.8417H31.6682V24.5262H33.25V30.8417H38V19.7893H34.8341ZM14.25 18.2107H9.5V13.4738H14.25V18.2107ZM28.5 18.2107H23.75V13.4738H28.5V18.2107Z" fill="#020C12"/>
</svg>
