<svg width="45" height="45" viewBox="0 0 45 45" fill="none" xmlns="http://www.w3.org/2000/svg">
<g clip-path="url(#clip0_6_15220)">
<path d="M45.0002 20.5628C44.7008 21.5138 44.1373 22.1831 43.116 22.368C42.9135 22.4033 42.711 22.4033 42.5085 22.4209C41.8305 30.6371 37.7804 36.5021 30.3054 40.0951C30.4639 40.1039 30.5783 40.1215 30.7016 40.1215C33.026 40.1215 35.3592 40.1215 37.6836 40.1303C37.9653 40.1303 38.115 40.051 38.2559 39.7956C38.7754 38.8534 39.8055 38.4307 40.8092 38.7037C41.7953 38.9678 42.4645 39.8573 42.4645 40.8788C42.4645 41.9003 41.7689 42.7986 40.8004 43.054C39.7879 43.3093 38.7842 42.8866 38.2559 41.9532C38.1414 41.7418 38.0358 41.6273 37.7628 41.6273C34.1442 41.6361 30.5255 41.6361 26.9068 41.6361C26.8364 41.6361 26.7572 41.645 26.6251 41.6538C26.6251 41.9796 26.6251 42.3142 26.6251 42.6489C26.6163 44.0403 25.6654 44.9913 24.2743 45.0001C23.0857 45.0089 21.9059 45.0089 20.7173 45.0001C19.3349 44.9913 18.384 44.0403 18.3752 42.6489C18.3752 42.3318 18.3752 42.006 18.3752 41.6626C18.1815 41.6538 18.0231 41.645 17.8734 41.645C14.3692 41.645 10.8738 41.645 7.36957 41.6361C7.06141 41.6361 6.88532 41.7066 6.72684 41.9972C6.21617 42.9219 5.15963 43.3269 4.16472 43.0451C3.19622 42.7633 2.53587 41.8651 2.54468 40.8436C2.55349 39.8485 3.24024 38.9678 4.19994 38.7125C5.19485 38.4483 6.24259 38.8886 6.74445 39.8044C6.85891 40.007 6.94695 40.1479 7.2287 40.1479C9.64114 40.1303 12.0624 40.1391 14.4748 40.1391C14.5277 40.1391 14.5805 40.1215 14.6949 40.1127C7.2375 36.5373 3.18741 30.6723 2.49186 22.4473C2.35098 22.4385 2.17489 22.4297 2.00761 22.4121C0.880625 22.28 0.0265829 21.3553 0.000170014 20.2193C-0.0174386 19.5324 -0.00863419 18.8455 0.000170195 18.1498C0.0177789 16.8817 0.915843 15.9219 2.1925 15.8602C2.90567 15.825 3.62764 15.8338 4.34081 15.8602C5.59986 15.9042 6.50672 16.8201 6.55955 18.0794C6.58597 18.7839 6.58597 19.4884 6.55955 20.1841C6.51553 21.4522 5.61747 22.3504 4.35842 22.4209C4.27037 22.4297 4.19113 22.4297 4.10309 22.4385C4.1383 30.0559 10.0109 37.9287 18.3752 39.6371C18.3752 39.4258 18.3752 39.2232 18.3752 39.0207C18.4017 37.779 19.3261 36.8015 20.5588 36.7751C21.8442 36.7399 23.1385 36.7487 24.424 36.7751C25.6566 36.8015 26.5899 37.779 26.6251 39.0119C26.6339 39.2144 26.6251 39.417 26.6251 39.6283C33.7216 38.2457 40.6067 31.5089 40.9413 22.4473C40.8532 22.4297 40.7564 22.4121 40.6595 22.4033C39.3741 22.3328 38.4848 21.4258 38.4408 20.1313C38.4232 19.462 38.4232 18.7839 38.4408 18.1058C38.4848 16.7673 39.4269 15.8426 40.7828 15.825C41.2494 15.8162 41.7161 15.825 42.1915 15.825C43.8468 15.825 44.3839 16.1684 45.009 17.6567C45.0002 18.6254 45.0002 19.5941 45.0002 20.5628Z" fill="#FEFEFE"/>
<path d="M29.7946 1.69431e-05C30.2172 0.184948 30.6838 0.308235 31.0624 0.563617C31.8988 1.13602 32.3215 1.96381 32.3391 2.98534C32.3479 3.83074 32.3479 4.68495 32.3391 5.53035C32.3215 7.20354 31.0184 8.51567 29.3455 8.51567C24.776 8.52448 20.2152 8.52448 15.6457 8.51567C13.9728 8.51567 12.6785 7.20354 12.6521 5.53035C12.6433 4.72898 12.6433 3.9188 12.6521 3.11743C12.6609 1.56753 13.5238 0.457942 15.0382 0.0616602C15.091 0.0440478 15.1438 0.0176272 15.1966 -0.00879152C20.0743 1.51397e-05 24.9345 1.65182e-05 29.7946 1.69431e-05Z" fill="#FEFEFE"/>
<path d="M22.5044 9.98632C24.3798 9.98632 26.2551 9.98632 28.1305 9.98632C29.1518 9.98632 29.2663 10.092 29.3719 11.1223C29.7593 14.7065 30.8511 18.0617 32.6736 21.1791C33.1227 21.9452 33.1139 22.0421 32.5768 22.7378C30.0059 26.0401 27.4261 29.3425 24.8552 32.6448C24.7495 32.7857 24.6615 32.9795 24.5118 33.0411C24.2741 33.1468 23.9659 33.2525 23.7546 33.182C23.5609 33.1204 23.4113 32.8298 23.288 32.6184C23.2264 32.5039 23.2616 32.3278 23.2616 32.1869C23.2616 29.0079 23.2704 25.8288 23.2528 22.6497C23.2528 22.0861 23.4201 21.7339 23.9571 21.4785C25.2954 20.8268 25.9558 19.3386 25.6036 17.9032C25.2514 16.4677 23.9748 15.4726 22.4956 15.4726C21.0516 15.4726 19.7838 16.4853 19.4316 17.9032C19.0794 19.3386 19.731 20.8268 21.0781 21.4785C21.6063 21.7339 21.7824 22.0861 21.7824 22.6497C21.7648 25.8112 21.7736 28.9814 21.7736 32.1429C21.7736 32.2486 21.7736 32.3454 21.7736 32.4511C21.7736 32.8122 21.6063 33.0763 21.263 33.1908C20.9196 33.3053 20.629 33.1908 20.4089 32.909C19.8718 32.2309 19.3436 31.5529 18.8065 30.866C16.667 28.136 14.5275 25.3973 12.3968 22.6673C11.9301 22.0685 11.9213 21.9188 12.3087 21.2495C14.1929 18.0352 15.3287 14.5744 15.6721 10.8581C15.7337 10.2241 15.9802 9.98632 16.6406 9.98632C18.5776 9.98632 20.541 9.98632 22.5044 9.98632Z" fill="#FEFEFE"/>
</g>
<defs>
<clipPath id="clip0_6_15220">
<rect width="45" height="45" fill="white" transform="translate(45 45) rotate(-180)"/>
</clipPath>
</defs>
</svg>
