<svg width="862" height="32" viewBox="0 0 862 32" fill="none" xmlns="http://www.w3.org/2000/svg">
<g clip-path="url(#clip0_0_1023)">
<path d="M156.957 31.6957V19.3478H144.407V31.7294H137.611V0.438873H144.407V12.585H156.957V0.438873H163.653V31.7294H156.957V31.6957Z" fill="white"/>
<path d="M101.341 16.1178V19.3814H88.69L88.6564 21.6693C88.69 24.26 89.6321 25.1685 92.2565 25.1685L107.902 25.1348V31.7967C102.417 31.763 96.193 31.864 90.6415 31.763C85.4601 31.5611 82.1628 27.8938 82.0955 22.7123C82.0618 20.5254 82.0282 18.3047 82.0282 16.1178V15.9495C82.0282 13.7626 82.0618 11.6092 82.0955 9.42227C82.1628 4.24083 85.4601 0.573449 90.6415 0.371575C96.193 0.270638 102.384 0.371575 107.902 0.337929V6.99978L92.2565 6.96613C89.6321 6.96613 88.69 7.87457 88.6564 10.4653L88.69 12.7532H101.341V15.9495V16.1178Z" fill="white"/>
<path d="M109.012 16.0168C109.012 18.0692 109.248 20.2562 109.786 22.2749C111.3 28.0956 115.27 31.5275 121.495 31.7294C125.599 31.864 131.016 31.6621 135.121 31.6957V25.1348H123.244C118.567 25.1348 116.515 23.7217 115.842 19.1459C115.674 18.1365 115.708 16.0168 115.708 16.0168C115.708 15.5794 115.708 14.0317 115.842 12.9887C116.515 8.4129 118.567 6.99978 123.244 6.99978H135.121V0.40522C131.016 0.438865 125.599 0.236991 121.495 0.371574C115.27 0.573448 111.3 4.00531 109.786 9.82602C109.214 11.8784 108.978 13.9308 109.012 16.0168Z" fill="white"/>
<path d="M54.8761 0.438873H80.9179V6.99979H71.2952V31.7967H64.4651V6.99979H54.8761V0.438873Z" fill="white"/>
<path d="M51.1414 16.0505C51.9153 15.2766 52.6555 14.3682 53.1265 13.3252C55.8182 7.23531 51.9153 0.607102 45.2534 0.371582H28.0941V6.99979H44.3786C46.0609 6.99979 47.3058 8.21103 47.3395 9.79238C47.3731 11.441 46.2964 12.585 44.5469 12.7196C44.2104 12.7532 28.1278 12.7196 28.1278 12.7196V31.6621H45.2871C51.9489 31.4266 55.8518 24.7984 53.1602 18.7085C52.6891 17.7328 51.9489 16.8243 51.1414 16.0505ZM44.3786 25.0675H34.7896V19.3478C39.2645 19.3478 44.3786 19.3478 44.5469 19.3478C46.2964 19.4823 47.4067 20.6263 47.3395 22.2749C47.2722 23.8563 46.0609 25.0675 44.3786 25.0675Z" fill="#EE8022"/>
<path d="M6.99829 22.7123V31.6957H0.437378V21.602C0.538315 16.5552 3.86924 13.1233 8.94974 12.8205C11.5068 12.6859 14.0639 12.7868 16.621 12.7532C18.1014 12.7196 19.2117 11.9794 19.5481 10.8018C19.8846 9.55686 19.5818 8.4802 18.5724 7.63905C18.0341 7.20166 17.3948 6.99979 16.6883 7.03343H9.75724V0.438873H16.2172C17.664 0.438873 18.2696 0.573456 19.0435 0.741685C23.6529 1.65012 26.3109 5.21656 26.21 10.2634C26.1091 15.0075 23.1146 18.473 18.5388 19.1122C15.7798 19.516 13.0209 19.2468 10.2283 19.3141C8.14224 19.3478 6.99829 20.3235 6.99829 22.4432V22.7123Z" fill="#EE8022"/>
<path d="M6.96472 0.438873H0.403809V6.99979H6.96472V0.438873Z" fill="white"/>
</g>
<g clip-path="url(#clip1_0_1023)">
<rect width="590" height="32" transform="translate(200)" fill="white"/>
<rect x="760" y="4" width="25" height="25" fill="white"/>
<path d="M790 0H847C848.657 0 850 1.34315 850 3V29C850 30.6569 848.657 32 847 32H790V0Z" fill="#F08222"/>
<path d="M817.707 20.3162C818.098 19.9257 818.098 19.2925 817.707 18.902C817.317 18.5115 816.683 18.5115 816.293 18.902L812.293 22.902C811.902 23.2925 811.902 23.9257 812.293 24.3162C812.683 24.7068 813.317 24.7068 813.707 24.3162L817.707 20.3162Z" fill="white"/>
<path d="M821 19.6091C818.239 19.6091 816 17.3706 816 14.6091C816 11.8477 818.239 9.60913 821 9.60913C823.761 9.60913 826 11.8477 826 14.6091C826 17.3706 823.761 19.6091 821 19.6091ZM821 21.6091C824.866 21.6091 828 18.4751 828 14.6091C828 10.7431 824.866 7.60913 821 7.60913C817.134 7.60913 814 10.7431 814 14.6091C814 18.4751 817.134 21.6091 821 21.6091Z" fill="white"/>
</g>
<defs>
<clipPath id="clip0_0_1023">
<rect width="163.922" height="31.9971" fill="white" transform="translate(0 0.00146484)"/>
</clipPath>
<clipPath id="clip1_0_1023">
<rect width="650" height="32" fill="white" transform="translate(200)"/>
</clipPath>
</defs>
</svg>
