<svg width="13" height="15" viewBox="0 0 13 15" fill="none" xmlns="http://www.w3.org/2000/svg">
<path d="M6.19487 0.52445C2.87454 0.52445 0.184353 3.21464 0.184353 6.53496C0.184353 9.85529 2.87454 12.5455 6.19487 12.5455C9.51519 12.5455 12.2054 9.85529 12.2054 6.53496C12.2054 3.21464 9.51519 0.52445 6.19487 0.52445ZM6.19487 11.3822C3.50468 11.3822 1.34768 9.22515 1.34768 6.53496C1.34768 3.86901 3.50468 1.68778 6.19487 1.68778C8.86082 1.68778 11.0421 3.86901 11.0421 6.53496C11.0421 9.22515 8.86082 11.3822 6.19487 11.3822ZM4.25599 6.14719C4.668 6.14719 5.03154 5.80789 5.03154 5.37164C5.03154 4.95963 4.668 4.59609 4.25599 4.59609C3.81974 4.59609 3.48044 4.95963 3.48044 5.37164C3.48044 5.80789 3.81974 6.14719 4.25599 6.14719ZM8.13374 6.14719C8.54575 6.14719 8.90929 5.80789 8.90929 5.37164C8.90929 4.95963 8.54575 4.59609 8.13374 4.59609C7.69749 4.59609 7.35819 4.95963 7.35819 5.37164C7.35819 5.80789 7.69749 6.14719 8.13374 6.14719ZM8.23069 7.91641C7.72173 8.52231 6.97042 8.86161 6.19487 8.86161C5.39508 8.86161 4.64377 8.52231 4.15905 7.91641C3.94092 7.67405 3.57738 7.64982 3.33502 7.8437C3.09267 8.03759 3.04419 8.42537 3.26232 8.66773C3.9894 9.54022 5.05578 10.0249 6.19487 10.0249C7.30972 10.0249 8.3761 9.54022 9.10318 8.66773C9.3213 8.42537 9.29707 8.03759 9.03047 7.8437C8.78811 7.64982 8.42457 7.67405 8.23069 7.91641Z" fill="#1278A5"/>
</svg>
