<svg width="45" height="45" viewBox="0 0 45 45" fill="none" xmlns="http://www.w3.org/2000/svg">
<g clip-path="url(#clip0_0_252)">
<path d="M45 20.5627C44.7006 21.5138 44.1371 22.1831 43.1158 22.368C42.9133 22.4032 42.7108 22.4032 42.5083 22.4209C41.8304 30.6371 37.7803 36.5021 30.3052 40.095C30.4637 40.1038 30.5782 40.1214 30.7014 40.1214C33.0258 40.1214 35.359 40.1214 37.6834 40.1302C37.9652 40.1302 38.1148 40.051 38.2557 39.7956C38.7752 38.8533 39.8053 38.4306 40.809 38.7036C41.7951 38.9678 42.4643 39.8573 42.4643 40.8788C42.4643 41.9003 41.7687 42.7985 40.8002 43.0539C39.7877 43.3093 38.784 42.8866 38.2557 41.9531C38.1412 41.7418 38.0356 41.6273 37.7627 41.6273C34.144 41.6361 30.5253 41.6361 26.9067 41.6361C26.8362 41.6361 26.757 41.6449 26.6249 41.6537C26.6249 41.9796 26.6249 42.3142 26.6249 42.6488C26.6161 44.0402 25.6652 44.9913 24.2741 45.0001C23.0855 45.0089 21.9057 45.0089 20.7171 45.0001C19.3348 44.9913 18.3839 44.0402 18.3751 42.6488C18.3751 42.3318 18.3751 42.006 18.3751 41.6625C18.1814 41.6537 18.0229 41.6449 17.8732 41.6449C14.369 41.6449 10.8736 41.6449 7.36939 41.6361C7.06123 41.6361 6.88514 41.7066 6.72665 41.9972C6.21599 42.9218 5.15945 43.3269 4.16454 43.0451C3.19603 42.7633 2.53569 41.8651 2.5445 40.8436C2.5533 39.8484 3.24006 38.9678 4.19975 38.7124C5.19466 38.4482 6.24241 38.8886 6.74426 39.8044C6.85872 40.007 6.94677 40.1479 7.22851 40.1479C9.64096 40.1302 12.0622 40.1391 14.4746 40.1391C14.5275 40.1391 14.5803 40.1214 14.6948 40.1126C7.23732 36.5373 3.18723 30.6723 2.49167 22.4473C2.3508 22.4385 2.17471 22.4297 2.00743 22.412C0.880442 22.28 0.0263998 21.3553 -1.30918e-05 20.2193C-0.0176217 19.5324 -0.00881729 18.8455 -1.29109e-05 18.1498C0.0175958 16.8817 0.91566 15.9218 2.19232 15.8602C2.90549 15.825 3.62746 15.8338 4.34063 15.8602C5.59968 15.9042 6.50654 16.8201 6.55937 18.0794C6.58578 18.7839 6.58578 19.4884 6.55937 20.1841C6.51534 21.4522 5.61728 22.3504 4.35823 22.4209C4.27019 22.4297 4.19095 22.4297 4.1029 22.4385C4.13812 30.0559 10.0107 37.9287 18.3751 39.6371C18.3751 39.4257 18.3751 39.2232 18.3751 39.0207C18.4015 37.779 19.3259 36.8015 20.5586 36.7751C21.844 36.7398 23.1383 36.7486 24.4238 36.7751C25.6564 36.8015 26.5897 37.779 26.6249 39.0119C26.6337 39.2144 26.6249 39.4169 26.6249 39.6283C33.7214 38.2457 40.6065 31.5089 40.9411 22.4473C40.853 22.4297 40.7562 22.412 40.6593 22.4032C39.3739 22.3328 38.4846 21.4257 38.4406 20.1312C38.423 19.462 38.423 18.7839 38.4406 18.1058C38.4846 16.7672 39.4267 15.8426 40.7826 15.825C41.2493 15.8162 41.7159 15.825 42.1913 15.825C43.8466 15.825 44.3837 16.1684 45.0088 17.6567C45 18.6254 45 19.594 45 20.5627Z" fill="#020C12"/>
<path d="M29.7946 1.69431e-05C30.2172 0.184949 30.6838 0.308236 31.0624 0.563618C31.8989 1.13602 32.3215 1.96381 32.3391 2.98534C32.3479 3.83074 32.3479 4.68495 32.3391 5.53035C32.3215 7.20354 31.0184 8.51567 29.3456 8.51567C24.776 8.52448 20.2153 8.52448 15.6457 8.51567C13.9728 8.51567 12.6786 7.20354 12.6522 5.53035C12.6433 4.72898 12.6433 3.9188 12.6522 3.11743C12.661 1.56753 13.5238 0.457942 15.0382 0.0616612C15.091 0.0440487 15.1438 0.0176281 15.1967 -0.00879056C20.0744 1.60933e-05 24.9345 1.65182e-05 29.7946 1.69431e-05Z" fill="#020C12"/>
<path d="M22.5044 9.9863C24.3798 9.9863 26.2552 9.9863 28.1305 9.9863C29.1519 9.9863 29.2663 10.092 29.372 11.1223C29.7594 14.7065 30.8511 18.0616 32.6737 21.1791C33.1227 21.9452 33.1139 22.0421 32.5768 22.7378C30.0059 26.0401 27.4262 29.3425 24.8552 32.6448C24.7496 32.7857 24.6615 32.9794 24.5119 33.0411C24.2741 33.1468 23.966 33.2524 23.7547 33.182C23.561 33.1203 23.4113 32.8297 23.288 32.6184C23.2264 32.5039 23.2616 32.3278 23.2616 32.1869C23.2616 29.0078 23.2704 25.8288 23.2528 22.6497C23.2528 22.0861 23.4201 21.7338 23.9572 21.4785C25.2955 20.8268 25.9558 19.3385 25.6036 17.9031C25.2514 16.4677 23.9748 15.4726 22.4956 15.4726C21.0517 15.4726 19.7838 16.4853 19.4316 17.9031C19.0795 19.3385 19.731 20.8268 21.0781 21.4785C21.6064 21.7338 21.7825 22.0861 21.7825 22.6497C21.7648 25.8111 21.7736 28.9814 21.7736 32.1428C21.7736 32.2485 21.7736 32.3454 21.7736 32.4511C21.7736 32.8121 21.6064 33.0763 21.263 33.1908C20.9196 33.3053 20.6291 33.1908 20.4089 32.909C19.8719 32.2309 19.3436 31.5528 18.8065 30.8659C16.667 28.136 14.5275 25.3973 12.3968 22.6673C11.9302 22.0685 11.9214 21.9188 12.3088 21.2495C14.1929 18.0352 15.3287 14.5744 15.6721 10.8581C15.7337 10.2241 15.9803 9.9863 16.6406 9.9863C18.5776 9.9863 20.541 9.9863 22.5044 9.9863Z" fill="#020C12"/>
</g>
<defs>
<clipPath id="clip0_0_252">
<rect width="45" height="45" fill="white" transform="translate(45 45) rotate(-180)"/>
</clipPath>
</defs>
</svg>
