<svg width="38" height="38" viewBox="0 0 38 38" fill="none" xmlns="http://www.w3.org/2000/svg">
<path d="M18.9889 31.056C23.1548 31.056 26.5592 27.674 26.5592 23.4857C26.5592 19.2974 23.1772 15.9154 18.9889 15.9154C14.8006 15.9154 11.441 19.3198 11.441 23.5081C11.4408 27.674 14.8228 31.056 18.9889 31.056ZM18.5707 24.1279C17.1821 23.6426 16.3161 22.9408 16.3161 21.6941C16.3161 20.5443 17.0776 19.641 18.4738 19.3572V18.1105H19.5189V19.2976C20.3849 19.2976 21.0121 19.4767 21.475 19.7231L21.0495 21.2163C20.706 21.0744 20.1461 20.8355 19.3772 20.8355C18.6083 20.8355 18.1901 21.2163 18.1901 21.597C18.1901 22.1196 18.6754 22.3212 19.7207 22.7468C21.1467 23.2694 21.8111 23.9935 21.8111 25.1806C21.8111 26.3676 21.0869 27.271 19.5565 27.6144V28.8014H18.5113V27.6516C17.608 27.6516 16.6971 27.4128 16.2567 27.1664L16.6375 25.6358C17.1227 25.8747 17.8842 26.1585 18.6905 26.1585C19.5565 26.1585 19.9821 25.7777 19.9821 25.2551C19.9821 24.7324 19.5712 24.516 18.5707 24.1279ZM0.296875 10.4648C0.296875 12.4952 1.72559 14.2206 3.5625 14.855V32.3303H0.296875V35.0022H37.7031V32.3303H34.4375V14.8518C36.3509 14.2662 37.6584 12.5664 37.7031 10.4648V9.27734H0.296875V10.4648ZM9.69148 10.3678C9.69148 11.3292 10.6942 15.0391 14.401 15.0391C17.6204 15.0391 19.0325 12.1275 19.0325 10.3678C19.0325 12.0083 20.1324 15.0357 23.7029 15.0357C26.9289 15.0357 28.3584 11.9186 28.3584 10.3678C28.3584 12.509 29.8021 14.2889 31.7656 14.8438V32.3303H6.23438V14.8577C8.22373 14.3192 9.69148 12.5274 9.69148 10.3678ZM37.7031 8.23828H0.296875L5.04688 3.48828V0.519531H33.1016V3.48828H33.0766L37.7031 8.23828Z" fill="#020C12"/>
</svg>
