<svg width="35" height="35" viewBox="0 0 35 35" fill="none" xmlns="http://www.w3.org/2000/svg">
<path d="M10.9595 17.4999C10.9595 21.1062 13.8934 24.0398 17.4998 24.0398C21.1059 24.0398 24.0396 21.106 24.0396 17.4999C24.0396 13.8936 21.1059 10.9597 17.4998 10.9597C13.8934 10.9597 10.9595 13.8936 10.9595 17.4999Z" fill="white"/>
<path d="M32.5596 8.86693C32.6105 8.77731 32.6096 8.66726 32.5569 8.57856C31.0336 6.01288 28.8656 3.86377 26.2876 2.36359C23.6304 0.817279 20.5916 0 17.5001 0C12.1496 0 7.16335 2.40111 3.81964 6.58769C3.74586 6.67995 3.73622 6.8079 3.79532 6.91015L8.72171 15.4427C8.77335 15.5322 8.8686 15.5861 8.97004 15.5861C8.98289 15.5861 8.99597 15.5852 9.00894 15.5835C9.12438 15.5678 9.21882 15.4838 9.24797 15.371C10.2194 11.6071 13.6128 8.97847 17.5001 8.97847C17.7413 8.97847 17.9904 8.98949 18.2408 9.01084C18.2489 9.01164 18.2572 9.01198 18.2653 9.01198H32.3102C32.4134 9.01198 32.5086 8.95667 32.5596 8.86693Z" fill="white"/>
<path d="M20.086 25.8109C20.0147 25.7188 19.8951 25.6792 19.7823 25.7104C19.0414 25.9167 18.2736 26.0213 17.5 26.0213C14.2133 26.0213 11.1842 24.0936 9.78267 21.1105C9.77923 21.1032 9.77544 21.096 9.77143 21.0889L2.74389 8.91719C2.6927 8.82825 2.59792 8.77374 2.49544 8.77374C2.49498 8.77374 2.49441 8.77374 2.49395 8.77374C2.3909 8.77432 2.296 8.82997 2.24551 8.91971C0.776541 11.5263 0 14.4933 0 17.4999C0 21.7177 1.52164 25.7918 4.28457 28.9717C7.02008 32.12 10.7861 34.1919 14.8891 34.8058C14.9033 34.808 14.9176 34.8089 14.9317 34.8089C15.033 34.8089 15.1283 34.755 15.18 34.6655L20.1077 26.1303C20.166 26.0293 20.1574 25.9031 20.086 25.8109Z" fill="white"/>
<path d="M33.5285 10.9262H23.6626C23.5461 10.9262 23.4411 10.9968 23.3971 11.1047C23.353 11.2125 23.3786 11.3365 23.4618 11.4179C25.1126 13.0362 26.0216 15.1961 26.0216 17.4999C26.0216 19.2439 25.4954 20.9223 24.4997 22.3538C24.4951 22.3604 24.4908 22.3672 24.4868 22.3742L17.4471 34.567C17.3956 34.6563 17.3959 34.7664 17.4479 34.8554C17.4994 34.9434 17.5938 34.9974 17.6955 34.9974C17.6966 34.9974 17.6977 34.9974 17.6988 34.9974C22.3314 34.9457 26.6786 33.1027 29.9395 29.808C33.203 26.5105 35.0002 22.1394 35.0002 17.4999C35.0002 15.2947 34.5949 13.1443 33.7956 11.1083C33.7524 10.9984 33.6465 10.9262 33.5285 10.9262Z" fill="white"/>
</svg>
