<svg width="14" height="13" viewBox="0 0 14 13" fill="none" xmlns="http://www.w3.org/2000/svg">
<path d="M12.7889 7.31486L13.9273 2.27681C14 1.91349 13.7336 1.55017 13.346 1.55017H3.85125L3.63325 0.484431C3.56059 0.217996 3.31838 3.27177e-06 3.05194 3.27177e-06H0.581363C0.242264 3.27177e-06 4.99248e-05 0.266438 4.99248e-05 0.581316V0.968858C4.99248e-05 1.30796 0.242264 1.55017 0.581363 1.55017H2.25264L3.97235 9.88232C3.56059 10.1245 3.29416 10.5605 3.29416 11.0449C3.29416 11.7958 3.89969 12.4013 4.65055 12.4013C5.37719 12.4013 6.00695 11.7958 6.00695 11.0449C6.00695 10.6816 5.8374 10.3425 5.59519 10.0761H10.6575C10.4152 10.3425 10.2699 10.6816 10.2699 11.0449C10.2699 11.7958 10.8754 12.4013 11.6263 12.4013C12.3529 12.4013 12.9827 11.7958 12.9827 11.0449C12.9827 10.5121 12.6678 10.0519 12.2076 9.83388L12.3287 9.25257C12.4256 8.88924 12.135 8.52592 11.7716 8.52592H5.28031L5.11076 7.75084H12.2076C12.4741 7.75084 12.7163 7.58129 12.7889 7.31486Z" fill="#FEFEFE"/>
</svg>
