<svg width="29" height="16" viewBox="0 0 29 16" fill="none" xmlns="http://www.w3.org/2000/svg">
<path d="M20.6769 11.9631C21.3169 11.9631 21.8585 11.4708 21.8585 10.7815C21.8585 10.1415 21.3169 9.6 20.6769 9.6C20.0369 9.6 19.4954 10.1415 19.4954 10.7815C19.4954 11.4708 20.0369 11.9631 20.6769 11.9631ZM7.63077 11.9631C8.27077 11.9631 8.81231 11.4708 8.81231 10.7815C8.81231 10.1415 8.27077 9.6 7.63077 9.6C6.99077 9.6 6.44923 10.1415 6.44923 10.7815C6.44923 11.4708 6.99077 11.9631 7.63077 11.9631ZM21.12 4.87385C25.1569 7.08923 27.9138 11.1754 28.3569 16H0C0.393846 11.1754 3.15077 7.08923 7.18769 4.87385L4.82462 0.787692C4.77538 0.689231 4.77538 0.590769 4.77538 0.492308C4.77538 0.246154 4.97231 0 5.26769 0C5.46462 0 5.61231 0.147692 5.71077 0.295385L8.07385 4.43077C9.94462 3.59385 12.0123 3.15077 14.1785 3.15077C16.3446 3.15077 18.3631 3.59385 20.2338 4.43077L22.5969 0.295385C22.6954 0.147692 22.8431 0 23.04 0C23.3354 0 23.5323 0.246154 23.5323 0.492308C23.5323 0.590769 23.5323 0.689231 23.4831 0.787692L21.12 4.87385Z" fill="#696969"/>
</svg>
