<svg width="299" height="299" viewBox="0 0 299 299" fill="none" xmlns="http://www.w3.org/2000/svg">
<path style="mix-blend-mode:overlay" opacity="0.43" d="M243.377 205.934H58.6167L127.677 56.4678H174.317L243.377 205.934Z" fill="url(#paint0_linear_95_5922)"/>
<path d="M54.5859 167.97L56.9277 156.81L69.2369 154.019" stroke="#283035" stroke-width="2" stroke-linecap="round" stroke-linejoin="round"/>
<path d="M45.8832 210.731H60.5641C61.0733 210.731 61.5651 210.546 61.9472 210.209C62.3297 209.872 62.576 209.408 62.6403 208.903L66.5617 178.135H39.8867L43.8084 208.903C43.8727 209.408 44.1191 209.872 44.5009 210.208C44.8827 210.545 45.3743 210.731 45.8832 210.731Z" fill="#EAD57D"/>
<path d="M43.9675 178.136L47.0789 206.552C47.1429 207.136 47.4203 207.677 47.8584 208.069C48.2961 208.462 48.8633 208.679 49.4514 208.679H62.6705L62.6421 208.903C62.5778 209.408 62.3315 209.873 61.949 210.209C61.5669 210.546 61.0751 210.731 60.5659 210.731H45.885C45.3758 210.731 44.8839 210.546 44.5018 210.209C44.1197 209.873 43.8733 209.408 43.809 208.903L39.8867 178.136H43.9675Z" fill="#E5C66E"/>
<path d="M45.8832 210.731H60.5641C61.0733 210.731 61.5651 210.546 61.9472 210.209C62.3297 209.872 62.576 209.408 62.6403 208.903L66.5617 178.135H39.8867L43.8084 208.903C43.8727 209.408 44.1191 209.872 44.5009 210.208C44.8827 210.545 45.3743 210.731 45.8832 210.731Z" stroke="#283035" stroke-linecap="round" stroke-linejoin="round"/>
<path d="M65.5558 201.874L67.4523 186.993H38.9956L40.8922 201.874H65.5558Z" fill="#5CBF84"/>
<path d="M65.5558 201.874L67.4523 186.993H38.9956L40.8922 201.874H65.5558Z" fill="#4FB277"/>
<path d="M65.4377 200.155L67.0281 186.993H43.1655L44.6306 199.11C44.6656 199.398 44.8046 199.664 45.0217 199.856C45.2388 200.048 45.519 200.154 45.809 200.155H65.4377Z" fill="#5CBF84"/>
<path d="M65.5558 201.874L67.4523 186.993H38.9956L40.8922 201.874H65.5558Z" stroke="#283035" stroke-linecap="round" stroke-linejoin="round"/>
<path d="M38.1728 178.136H68.2755C70.0919 178.136 71.5645 176.664 71.5645 174.847C71.5645 173.031 70.0919 171.558 68.2755 171.558H38.1728C36.3564 171.558 34.8838 173.031 34.8838 174.847C34.8838 176.664 36.3564 178.136 38.1728 178.136Z" fill="#5CBF84"/>
<path d="M38.1728 178.136H68.2755C70.0919 178.136 71.5645 176.664 71.5645 174.847C71.5645 173.031 70.0919 171.558 68.2755 171.558H38.1728C36.3564 171.558 34.8838 173.031 34.8838 174.847C34.8838 176.664 36.3564 178.136 38.1728 178.136Z" fill="#4FB277"/>
<path d="M41.574 176.716H68.9851C70.4093 176.716 71.564 175.561 71.564 174.137C71.564 172.713 70.4093 171.558 68.9851 171.558H41.574C40.1499 171.558 38.9951 172.713 38.9951 174.137C38.9951 175.561 40.1499 176.716 41.574 176.716Z" fill="#5CBF84"/>
<path d="M38.1728 178.136H68.2755C70.0919 178.136 71.5645 176.664 71.5645 174.847C71.5645 173.031 70.0919 171.558 68.2755 171.558H38.1728C36.3564 171.558 34.8838 173.031 34.8838 174.847C34.8838 176.664 36.3564 178.136 38.1728 178.136Z" stroke="#283035" stroke-linecap="round" stroke-linejoin="round"/>
<path d="M41.2637 171.558H65.1837L64.7104 167.97H41.7373L41.2637 171.558Z" fill="#5CBF84"/>
<path d="M41.7373 167.97H48.7554L47.0942 171.558H41.2637L41.7373 167.97Z" fill="#54AF79"/>
<path d="M41.2637 171.558H65.1837L64.7104 167.97H41.7373L41.2637 171.558Z" stroke="#283035" stroke-linecap="round" stroke-linejoin="round"/>
<path d="M92.8993 130.32H193.895C195.252 130.32 196.553 130.859 197.513 131.819C198.473 132.778 199.012 134.08 199.012 135.437V202.08H87.7837V135.437C87.7837 134.08 88.3228 132.778 89.282 131.819C90.2415 130.859 91.5424 130.32 92.8993 130.32Z" fill="#D2DCE6"/>
<path d="M92.8993 130.32H193.895C195.252 130.32 196.553 130.859 197.513 131.819C198.473 132.778 199.012 134.08 199.012 135.437V202.08H87.7837V135.437C87.7837 134.08 88.3228 132.778 89.282 131.819C90.2415 130.859 91.5424 130.32 92.8993 130.32Z" stroke="#283035" stroke-linecap="round" stroke-linejoin="round"/>
<path d="M190.64 193.793V138.777H96.1558V193.793H190.64Z" fill="#FF5C5C"/>
<path opacity="0.3" d="M150.997 185.016H166.545" stroke="white" stroke-width="6" stroke-linecap="round" stroke-linejoin="round"/>
<g opacity="0.3">
<path opacity="0.3" d="M188.902 167.914C189.201 167.895 189.498 167.978 189.745 168.148C189.991 168.318 190.173 168.567 190.262 168.854V165.429C189.933 165.333 189.593 165.283 189.251 165.281H188.902C188.15 165.281 187.774 165.658 187.774 166.41V166.812C187.774 167.538 188.15 167.914 188.902 167.914Z" fill="white"/>
<path opacity="0.3" d="M190.262 184.332C190.172 184.617 189.989 184.864 189.743 185.033C189.496 185.202 189.2 185.283 188.902 185.265C188.15 185.265 187.774 185.64 187.774 186.392V186.795C187.774 187.547 188.15 187.923 188.902 187.924H189.251C189.593 187.922 189.933 187.872 190.262 187.776V184.332Z" fill="white"/>
</g>
<path d="M190.64 193.793V138.777H96.1558V193.793H190.64Z" stroke="#283035" stroke-linecap="round" stroke-linejoin="round"/>
<path d="M75.5105 202.124H211.286C211.604 202.124 211.908 202.25 212.132 202.474C212.356 202.699 212.482 203.003 212.482 203.32V204.753C212.482 206.338 211.852 207.859 210.731 208.981C209.609 210.103 208.088 210.733 206.502 210.733H80.2945C78.7086 210.733 77.1875 210.103 76.066 208.981C74.9444 207.859 74.3145 206.338 74.3145 204.753V203.32C74.3145 203.003 74.4403 202.699 74.6649 202.474C74.8891 202.25 75.1932 202.124 75.5105 202.124Z" fill="#E5E5E5"/>
<path d="M206.501 208.04H80.2933C78.8593 208.039 77.4734 207.523 76.3886 206.585C75.3038 205.647 74.5928 204.35 74.3847 202.931C74.3396 203.056 74.3159 203.188 74.3145 203.32V204.752C74.3145 206.339 74.9444 207.86 76.066 208.981C77.1875 210.102 78.7086 210.732 80.2945 210.732H206.502C208.088 210.732 209.609 210.102 210.731 208.981C211.852 207.86 212.482 206.339 212.482 204.752V203.32C212.481 203.188 212.457 203.056 212.412 202.931C212.204 204.351 211.492 205.648 210.407 206.586C209.322 207.524 207.935 208.04 206.501 208.04Z" fill="#CFD1D0"/>
<path d="M75.5105 202.124H211.286C211.604 202.124 211.908 202.25 212.132 202.474C212.356 202.699 212.482 203.003 212.482 203.32V204.753C212.482 206.338 211.852 207.859 210.731 208.981C209.609 210.103 208.088 210.733 206.502 210.733H80.2945C78.7086 210.733 77.1875 210.103 76.066 208.981C74.9444 207.859 74.3145 206.338 74.3145 204.753V203.32C74.3145 203.003 74.4403 202.699 74.6649 202.474C74.8891 202.25 75.1932 202.124 75.5105 202.124Z" stroke="#283035" stroke-linecap="round" stroke-linejoin="round"/>
<path d="M130.84 202.08H155.956C155.956 202.715 155.704 203.323 155.255 203.771C154.807 204.22 154.198 204.472 153.564 204.472H133.232C132.597 204.472 131.989 204.22 131.54 203.771C131.092 203.323 130.84 202.715 130.84 202.08Z" fill="#686B6D"/>
<path d="M130.84 202.08H155.956C155.956 202.715 155.704 203.323 155.255 203.771C154.807 204.22 154.198 204.472 153.564 204.472H133.232C132.597 204.472 131.989 204.22 131.54 203.771C131.092 203.323 130.84 202.715 130.84 202.08Z" stroke="#283035" stroke-linecap="round" stroke-linejoin="round"/>
<path d="M143.163 136.828C144.483 136.828 145.555 135.757 145.555 134.436C145.555 133.115 144.483 132.044 143.163 132.044C141.842 132.044 140.771 133.115 140.771 134.436C140.771 135.757 141.842 136.828 143.163 136.828Z" fill="#686B6D"/>
<path d="M143.163 136.828C144.483 136.828 145.555 135.757 145.555 134.436C145.555 133.115 144.483 132.044 143.163 132.044C141.842 132.044 140.771 133.115 140.771 134.436C140.771 135.757 141.842 136.828 143.163 136.828Z" stroke="#283035" stroke-linecap="round" stroke-linejoin="round"/>
<path d="M215.619 210.761C215.633 208.471 216.552 206.279 218.176 204.665C219.8 203.05 221.997 202.144 224.287 202.144C226.577 202.144 228.774 203.05 230.398 204.665C232.022 206.279 232.941 208.471 232.955 210.761H215.619Z" fill="#E5E5E5"/>
<path d="M224.287 208.023C225.527 208.035 226.754 207.781 227.888 207.279C229.021 206.777 230.034 206.038 230.858 205.112C230.045 204.165 229.037 203.405 227.902 202.884C226.768 202.363 225.535 202.093 224.287 202.093C223.039 202.093 221.805 202.363 220.671 202.884C219.537 203.405 218.529 204.165 217.716 205.112C218.54 206.038 219.553 206.777 220.686 207.279C221.82 207.781 223.047 208.035 224.287 208.023Z" fill="#CFD1D0"/>
<path d="M215.619 210.761C215.633 208.471 216.552 206.279 218.176 204.665C219.8 203.05 221.997 202.144 224.287 202.144C226.577 202.144 228.774 203.05 230.398 204.665C232.022 206.279 232.941 208.471 232.955 210.761H215.619Z" stroke="#283035" stroke-linecap="round" stroke-linejoin="round"/>
<g style="mix-blend-mode:multiply" opacity="0.14">
<path d="M157.572 149.435H112.129C110.807 149.435 109.735 150.507 109.735 151.829V187.106C109.735 188.429 110.807 189.501 112.129 189.501H157.572C158.895 189.501 159.967 188.429 159.967 187.106V151.829C159.967 150.507 158.895 149.435 157.572 149.435Z" fill="black"/>
</g>
<path d="M155.231 147.342H109.787C108.465 147.342 107.393 148.414 107.393 149.736V185.013C107.393 186.336 108.465 187.408 109.787 187.408H155.231C156.553 187.408 157.625 186.336 157.625 185.013V149.736C157.625 148.414 156.553 147.342 155.231 147.342Z" fill="#353F49"/>
<path d="M155.231 147.342H109.787C108.465 147.342 107.393 148.414 107.393 149.736V185.013C107.393 186.336 108.465 187.408 109.787 187.408H155.231C156.553 187.408 157.625 186.336 157.625 185.013V149.736C157.625 148.414 156.553 147.342 155.231 147.342Z" stroke="#283035" stroke-linecap="round" stroke-linejoin="round"/>
<path d="M109.787 147.342H155.231C155.866 147.342 156.475 147.594 156.924 148.043C157.373 148.492 157.625 149.101 157.625 149.736V153.322H107.393V149.736C107.393 149.101 107.645 148.492 108.094 148.043C108.543 147.594 109.152 147.342 109.787 147.342Z" fill="#EAEEEF"/>
<path d="M109.787 147.342H155.231C155.866 147.342 156.475 147.594 156.924 148.043C157.373 148.492 157.625 149.101 157.625 149.736V153.322H107.393V149.736C107.393 149.101 107.645 148.492 108.094 148.043C108.543 147.594 109.152 147.342 109.787 147.342Z" stroke="#283035" stroke-linecap="round" stroke-linejoin="round"/>
<path opacity="0.35" d="M111.679 151.266C112.195 151.266 112.613 150.848 112.613 150.331C112.613 149.815 112.195 149.397 111.679 149.397C111.162 149.397 110.744 149.815 110.744 150.331C110.744 150.848 111.162 151.266 111.679 151.266Z" fill="#283035"/>
<path opacity="0.35" d="M114.618 151.266C115.135 151.266 115.553 150.848 115.553 150.331C115.553 149.815 115.135 149.397 114.618 149.397C114.102 149.397 113.684 149.815 113.684 150.331C113.684 150.848 114.102 151.266 114.618 151.266Z" fill="#283035"/>
<path opacity="0.35" d="M117.409 151.266C117.926 151.266 118.344 150.848 118.344 150.331C118.344 149.815 117.926 149.397 117.409 149.397C116.893 149.397 116.475 149.815 116.475 150.331C116.475 150.848 116.893 151.266 117.409 151.266Z" fill="#283035"/>
<path d="M109.735 155.415H113.024" stroke="#46BB86" stroke-width="3" stroke-miterlimit="10"/>
<path d="M114.22 155.415H123.19" stroke="#46BB86" stroke-width="3" stroke-miterlimit="10"/>
<path d="M109.735 157.807H123.19" stroke="#389ABE" stroke-width="3" stroke-miterlimit="10"/>
<path d="M112.426 160.198H119.004" stroke="#E5C689" stroke-width="3" stroke-miterlimit="10"/>
<path d="M120.2 160.198H127.376" stroke="#F2F3F4" stroke-width="3" stroke-miterlimit="10"/>
<path d="M116.014 162.591H129.768" stroke="#F2F3F4" stroke-width="3" stroke-miterlimit="10"/>
<path d="M116.014 164.983H126.18" stroke="#FFA49F" stroke-width="3" stroke-miterlimit="10"/>
<path d="M112.426 167.375H127.376" stroke="#F2F3F4" stroke-width="3" stroke-miterlimit="10"/>
<path d="M109.735 169.468H117.808" stroke="#389ABE" stroke-width="3" stroke-miterlimit="10"/>
<g opacity="0.3">
<path opacity="0.3" d="M179.293 181.051C179.293 179.869 178.837 179.037 177.923 178.527C177.279 178.177 177.01 177.909 177.01 177.291V176.245C177.01 175.52 177.333 175.358 177.896 174.982C178.837 174.579 179.293 173.72 179.293 172.431V170.148C179.293 168.321 179.965 166.978 180.932 166.414C181.655 165.899 182.515 165.609 183.403 165.582H183.752C184.504 165.582 184.88 165.958 184.88 166.71V167.111C184.88 167.836 184.504 168.212 183.752 168.212C182.705 168.212 182.194 168.964 182.194 170.495V173.315C182.221 174 182.05 174.678 181.702 175.268C181.355 175.859 180.845 176.337 180.233 176.646L179.992 176.726V176.78C180.267 176.861 180.523 176.999 180.744 177.183C181.415 177.586 182.194 178.526 182.194 180.164V183.307C182.194 184.811 182.704 185.563 183.752 185.563C184.504 185.563 184.88 185.939 184.88 186.691V187.094C184.88 187.846 184.504 188.222 183.752 188.222H183.403C182.515 188.195 181.655 187.905 180.932 187.389C179.965 186.825 179.293 185.456 179.293 183.656V181.051Z" fill="white"/>
</g>
<path d="M44.5278 195.451L45.1258 194.869C47.3949 196.709 50.2274 197.713 53.1486 197.713C56.0698 197.713 58.9023 196.709 61.1714 194.869L61.9189 195.6" stroke="#283035" stroke-linecap="round" stroke-linejoin="round"/>
<path d="M51.3154 192.436C51.3154 192.097 51.1806 191.771 50.9405 191.531C50.7004 191.291 50.3748 191.156 50.0354 191.156C49.696 191.156 49.3704 191.291 49.1303 191.531C48.8902 191.771 48.7554 192.097 48.7554 192.436V193.609" stroke="#283035" stroke-linecap="round" stroke-linejoin="round"/>
<path d="M55.1318 192.436C55.1318 192.097 55.2667 191.771 55.5068 191.531C55.7469 191.291 56.0725 191.156 56.4119 191.156C56.7512 191.156 57.0768 191.291 57.3169 191.531C57.557 191.771 57.6919 192.097 57.6919 192.436V193.609" stroke="#283035" stroke-linecap="round" stroke-linejoin="round"/>
<path d="M271.632 207.482L268.67 207.894L270.563 210.649L271.632 207.482Z" fill="#E5E5E5"/>
<path d="M271.632 207.482L268.67 207.894L270.563 210.649L271.632 207.482Z" stroke="#283035" stroke-linecap="round" stroke-linejoin="round"/>
<path d="M263.312 171.891H240.05C238.547 171.891 237.329 173.109 237.329 174.612V208.04C237.329 209.543 238.547 210.761 240.05 210.761H263.312C264.814 210.761 266.033 209.543 266.033 208.04V174.612C266.033 173.109 264.814 171.891 263.312 171.891Z" fill="#E5E5E5"/>
<path d="M263.312 171.891H262.967C263.017 172.097 263.042 172.307 263.043 172.519V205.947C263.043 206.668 262.756 207.361 262.246 207.871C261.736 208.381 261.043 208.668 260.322 208.668H237.406C237.547 209.263 237.886 209.794 238.365 210.174C238.845 210.553 239.439 210.76 240.051 210.761H263.314C264.035 210.761 264.727 210.474 265.238 209.964C265.748 209.454 266.035 208.761 266.035 208.04V174.612C266.035 174.254 265.964 173.9 265.827 173.57C265.69 173.24 265.49 172.94 265.237 172.687C264.984 172.434 264.684 172.234 264.354 172.097C264.023 171.961 263.67 171.891 263.312 171.891Z" fill="#CFD1D0"/>
<path d="M263.312 171.891H240.05C238.547 171.891 237.329 173.109 237.329 174.612V208.04C237.329 209.543 238.547 210.761 240.05 210.761H263.312C264.814 210.761 266.033 209.543 266.033 208.04V174.612C266.033 173.109 264.814 171.891 263.312 171.891Z" stroke="#283035" stroke-linecap="round" stroke-linejoin="round"/>
<path d="M256.464 169.635H254.072V168.738C254.072 168.104 253.82 167.495 253.372 167.047C252.923 166.598 252.315 166.346 251.68 166.346C251.046 166.346 250.437 166.598 249.989 167.047C249.54 167.495 249.288 168.104 249.288 168.738V169.635H246.896C246.262 169.635 245.653 169.887 245.205 170.336C244.756 170.784 244.504 171.393 244.504 172.027C244.504 172.662 244.756 173.27 245.205 173.719C245.653 174.167 246.262 174.419 246.896 174.419H256.464C257.099 174.419 257.707 174.167 258.156 173.719C258.604 173.27 258.856 172.662 258.856 172.027C258.856 171.393 258.604 170.784 258.156 170.336C257.707 169.887 257.099 169.635 256.464 169.635Z" fill="#F7B66F"/>
<path d="M257.576 169.91C257.673 170.265 257.687 170.637 257.616 170.998C257.546 171.358 257.393 171.698 257.17 171.989C256.946 172.281 256.659 172.517 256.329 172.679C255.999 172.842 255.636 172.926 255.269 172.924H245.701C245.314 172.924 244.932 172.83 244.589 172.65C244.726 173.157 245.026 173.605 245.443 173.925C245.86 174.245 246.371 174.419 246.897 174.419H256.465C256.999 174.419 257.518 174.239 257.939 173.91C258.359 173.58 258.657 173.119 258.785 172.6C258.913 172.081 258.863 171.534 258.644 171.047C258.425 170.559 258.049 170.159 257.576 169.91Z" fill="#EDA762"/>
<path d="M252.877 167.243V168.14H253.994C253.911 167.817 253.761 167.515 253.554 167.253C253.347 166.992 253.087 166.777 252.792 166.621C252.848 166.824 252.876 167.033 252.877 167.243Z" fill="#EDA762"/>
<path d="M256.464 169.635H254.072V168.738C254.072 168.104 253.82 167.495 253.372 167.047C252.923 166.598 252.315 166.346 251.68 166.346C251.046 166.346 250.437 166.598 249.989 167.047C249.54 167.495 249.288 168.104 249.288 168.738V169.635H246.896C246.262 169.635 245.653 169.887 245.205 170.336C244.756 170.784 244.504 171.393 244.504 172.027C244.504 172.662 244.756 173.27 245.205 173.719C245.653 174.167 246.262 174.419 246.896 174.419H256.464C257.099 174.419 257.707 174.167 258.156 173.719C258.604 173.27 258.856 172.662 258.856 172.027C258.856 171.393 258.604 170.784 258.156 170.336C257.707 169.887 257.099 169.635 256.464 169.635Z" stroke="#283035" stroke-linecap="round" stroke-linejoin="round"/>
<path d="M251.681 183.09C253.057 183.09 254.172 181.975 254.172 180.599C254.172 179.223 253.057 178.107 251.681 178.107C250.305 178.107 249.189 179.223 249.189 180.599C249.189 181.975 250.305 183.09 251.681 183.09Z" fill="#8EAFBF"/>
<path d="M251.681 183.09C253.057 183.09 254.172 181.975 254.172 180.599C254.172 179.223 253.057 178.107 251.681 178.107C250.305 178.107 249.189 179.223 249.189 180.599C249.189 181.975 250.305 183.09 251.681 183.09Z" stroke="#283035" stroke-linecap="round" stroke-linejoin="round"/>
<path d="M242.179 188.273H248.159" stroke="#283035" stroke-linecap="round" stroke-linejoin="round"/>
<path d="M242.179 196.396H248.159" stroke="#283035" stroke-linecap="round" stroke-linejoin="round"/>
<path d="M242.179 204.519H248.159" stroke="#283035" stroke-linecap="round" stroke-linejoin="round"/>
<path d="M252.11 187.953L253.669 190.027L258.335 186.52" stroke="#8BAFC1" stroke-linecap="round" stroke-linejoin="round"/>
<path d="M252.11 196.076L253.669 198.15L258.335 194.642" stroke="#8BAFC1" stroke-linecap="round" stroke-linejoin="round"/>
<path d="M268.994 188.529L266.032 188.941L268.67 207.894L271.631 207.482L268.994 188.529Z" fill="#3BBC88"/>
<path d="M268.994 188.529L266.032 188.941L268.67 207.894L271.631 207.482L268.994 188.529Z" stroke="#283035" stroke-linecap="round" stroke-linejoin="round"/>
<path d="M267.9 185.518L266.124 185.766L266.536 188.726L268.312 188.479L267.9 185.518Z" fill="#E5E5E5"/>
<path d="M267.9 185.518L266.124 185.766L266.536 188.726L268.312 188.479L267.9 185.518Z" stroke="#283035" stroke-linecap="round" stroke-linejoin="round"/>
<path d="M271.671 196.008C271.336 195.456 271.099 194.851 270.97 194.219C270.639 192.594 271.455 191.666 271.014 190.741C270.838 190.372 270.753 189.869 269.432 189.678" stroke="#283035" stroke-linecap="round" stroke-linejoin="round"/>
<path d="M275.304 210.761H283.003" stroke="#283035" stroke-linecap="round" stroke-linejoin="round"/>
<path d="M70.0654 210.761H271.94" stroke="#283035" stroke-linecap="round" stroke-linejoin="round"/>
<path d="M34.3101 210.761H66.562" stroke="#283035" stroke-linecap="round" stroke-linejoin="round"/>
<path d="M24.0195 210.761H30.9465" stroke="#283035" stroke-linecap="round" stroke-linejoin="round"/>
<path d="M150.997 68.0471C154.961 68.0471 158.173 64.8343 158.173 60.8711C158.173 56.9078 154.961 53.6951 150.997 53.6951C147.034 53.6951 143.821 56.9078 143.821 60.8711C143.821 64.8343 147.034 68.0471 150.997 68.0471Z" fill="white"/>
<path d="M130.397 62.491C130.032 62.4899 129.672 62.4112 129.339 62.2605C129.007 62.1095 128.71 61.8901 128.469 61.6162C128.228 61.3423 128.047 61.0203 127.94 60.6716C127.832 60.323 127.799 59.9552 127.844 59.5931C129.239 47.7503 139.073 38.571 150.997 38.571C162.921 38.571 172.755 47.7503 174.149 59.5931C174.194 59.9555 174.162 60.323 174.054 60.6719C173.946 61.0206 173.766 61.3426 173.525 61.6165C173.283 61.8904 172.987 62.1098 172.654 62.2608C172.322 62.4115 171.961 62.4899 171.596 62.491H130.397Z" fill="#F7B66F"/>
<path d="M154.585 38.8533C154.508 38.841 154.43 38.8324 154.353 38.821C154.081 38.7809 153.808 38.7448 153.533 38.7143C153.408 38.7002 153.282 38.6889 153.157 38.6769C152.929 38.6554 152.701 38.6359 152.473 38.6228C152.34 38.615 152.208 38.6051 152.075 38.5989C151.718 38.5821 151.357 38.571 150.998 38.571C150.64 38.571 150.281 38.5818 149.926 38.5989C149.761 38.6066 149.599 38.6195 149.435 38.6305C149.259 38.6428 149.082 38.6554 148.907 38.6718C148.692 38.6912 148.478 38.7146 148.264 38.7403C148.16 38.7528 148.055 38.7669 147.952 38.7809C137.181 40.223 128.718 49.1969 127.766 60.3834C127.742 60.6507 127.774 60.9201 127.86 61.1745C127.946 61.4287 128.084 61.6625 128.265 61.8605C128.446 62.0587 128.666 62.2172 128.912 62.3257C129.158 62.4342 129.423 62.4904 129.691 62.491H172.304C172.57 62.4919 172.834 62.4375 173.078 62.3314C173.322 62.2255 173.542 62.0701 173.723 61.8751C173.904 61.6799 174.043 61.4496 174.131 61.1982C174.218 60.947 174.253 60.6803 174.233 60.4148C173.309 49.4008 165.108 40.5199 154.585 38.8533ZM135.755 55.8918C136.773 52.1959 138.67 48.8016 141.287 46C143.903 43.1984 147.16 41.0731 150.777 39.8056C154.398 41.0704 157.658 43.1948 160.277 45.9967C162.897 48.7986 164.797 52.1941 165.815 55.8918C165.944 56.3696 165.962 56.871 165.865 57.3566C165.769 57.8422 165.562 58.2994 165.261 58.692C164.959 59.0845 164.571 59.4024 164.127 59.6203C163.682 59.8386 163.193 59.951 162.698 59.9495H138.872C138.377 59.9513 137.888 59.8386 137.444 59.6206C137 59.4024 136.611 59.0848 136.31 58.6923C136.008 58.2994 135.801 57.8425 135.705 57.3569C135.609 56.871 135.626 56.3696 135.755 55.8918Z" fill="#EFAA65"/>
<path d="M130.417 62.491C130.05 62.4901 129.687 62.4109 129.352 62.2593C129.017 62.1074 128.718 61.8865 128.475 61.6105C128.232 61.3348 128.05 61.0107 127.942 60.6594C127.833 60.308 127.801 59.9379 127.846 59.5731C129.25 47.7387 139.08 38.571 150.997 38.571C162.914 38.571 172.744 47.7387 174.147 59.5731C174.192 59.9379 174.16 60.308 174.051 60.6594C173.943 61.0107 173.761 61.3348 173.518 61.6108C173.275 61.8865 172.976 62.1077 172.641 62.2593C172.307 62.4112 171.943 62.4901 171.576 62.491H130.417Z" stroke="#283035" stroke-linecap="round" stroke-linejoin="round"/>
<path d="M150.997 0V38.571" stroke="#283035" stroke-linejoin="round"/>
<defs>
<linearGradient id="paint0_linear_95_5922" x1="150.997" y1="54.3894" x2="150.997" y2="211.209" gradientUnits="userSpaceOnUse">
<stop stop-color="white"/>
<stop offset="0.093" stop-color="white" stop-opacity="0.864"/>
<stop offset="0.284" stop-color="white" stop-opacity="0.605"/>
<stop offset="0.466" stop-color="white" stop-opacity="0.389"/>
<stop offset="0.633" stop-color="white" stop-opacity="0.221"/>
<stop offset="0.784" stop-color="white" stop-opacity="0.1"/>
<stop offset="0.911" stop-color="white" stop-opacity="0.026"/>
<stop offset="1" stop-color="white" stop-opacity="0"/>
</linearGradient>
</defs>
</svg>
