<svg width="406" height="349" viewBox="0 0 406 349" fill="none" xmlns="http://www.w3.org/2000/svg">
<path d="M0.441541 160.536C0.834647 159.757 1.45984 159.12 2.23076 158.712C3.00168 158.304 3.88026 158.146 4.74513 158.259C4.73744 158.207 4.74262 158.153 4.76022 158.104C4.77782 158.054 4.8073 158.009 4.84609 157.974C4.88489 157.938 4.93183 157.912 4.98281 157.899C5.03379 157.885 5.08728 157.885 5.1386 157.897L2.22094 155.806C1.34808 155.208 0.720905 154.315 0.455325 153.292C0.189744 152.268 0.303712 151.183 0.776165 150.236C1.273 149.317 2.09364 148.615 3.07888 148.266C4.06412 147.918 5.14371 147.947 6.10823 148.35C6.1012 148.309 6.12843 148.269 6.13457 148.227L4.93572 147.367C4.11562 146.801 3.51642 145.968 3.23953 145.011C2.96264 144.054 3.02508 143.03 3.41628 142.113C3.67331 141.543 4.05359 141.038 4.52968 140.633C5.00578 140.228 5.56583 139.934 6.16943 139.771C6.77303 139.609 7.40513 139.583 8.02014 139.694C8.63515 139.806 9.21774 140.052 9.72588 140.416L12.4925 142.399C12.5004 142.383 12.4925 142.363 12.5039 142.349C12.5153 142.334 12.5443 142.327 12.5601 142.311C11.925 141.596 11.5516 140.687 11.5012 139.732C11.4507 138.778 11.7263 137.834 12.2826 137.057C13.5877 134.955 16.6028 135.388 18.391 136.667L34.6735 147.909L31.7629 143.01C31.1766 142.067 30.9701 140.937 31.1854 139.847C31.4006 138.758 32.0214 137.791 32.9222 137.142C33.3984 136.823 33.9345 136.605 34.498 136.5C35.0614 136.395 35.6403 136.406 36.1993 136.533C36.7582 136.659 37.2855 136.898 37.749 137.236C38.2124 137.573 38.6022 138.001 38.8946 138.494L54.7854 165.246C56.6494 168.385 57.2164 172.126 56.3659 175.676C55.5154 179.226 53.3145 182.304 50.2306 184.257C46.6539 186.521 42.4824 187.666 38.2507 187.545C34.0191 187.424 29.9201 186.041 26.4791 183.575L1.88719 165.951C1.07219 165.342 0.486153 164.477 0.22382 163.494C-0.038513 162.512 0.0381958 161.47 0.441541 160.536Z" fill="#F08222"/>
<g opacity="0.25">
<path d="M28.6059 153.515C28.5457 153.597 28.4558 153.652 28.3555 153.668C28.2552 153.685 28.1525 153.661 28.0693 153.603L12.5983 142.888C12.5176 142.827 12.4635 142.738 12.4474 142.638C12.4313 142.539 12.4544 142.437 12.512 142.354C12.5695 142.271 12.657 142.213 12.756 142.194C12.855 142.174 12.9578 142.193 13.0428 142.248L28.5129 152.963C28.5976 153.022 28.6556 153.112 28.6741 153.213C28.6925 153.315 28.6699 153.42 28.6112 153.505L28.6059 153.515Z" fill="#0C0C0C"/>
</g>
<g opacity="0.25">
<path d="M24.0675 160.468C24.0074 160.55 23.9176 160.605 23.8175 160.622C23.7174 160.638 23.6148 160.615 23.5317 160.556L6.26642 148.601C6.22431 148.572 6.18836 148.535 6.16063 148.492C6.13289 148.449 6.11392 148.401 6.10478 148.35C6.09565 148.3 6.09653 148.248 6.10739 148.198C6.11824 148.148 6.13886 148.1 6.16805 148.058C6.22918 147.976 6.31916 147.921 6.41977 147.903C6.52037 147.885 6.62409 147.905 6.70995 147.961L23.9796 159.919C24.0644 159.978 24.1224 160.068 24.1409 160.169C24.1593 160.271 24.1367 160.376 24.078 160.461L24.0675 160.468Z" fill="#0C0C0C"/>
</g>
<g opacity="0.25">
<path d="M19.1966 168.028C19.1363 168.11 19.0464 168.165 18.9461 168.181C18.8459 168.198 18.7431 168.174 18.6599 168.116L4.88757 158.579C4.84558 158.55 4.80976 158.513 4.78214 158.47C4.75452 158.427 4.73565 158.379 4.72659 158.329C4.71754 158.278 4.71849 158.227 4.72938 158.177C4.74027 158.127 4.7609 158.079 4.79008 158.037C4.81926 157.995 4.85642 157.96 4.89945 157.932C4.94247 157.904 4.99052 157.886 5.04084 157.876C5.09116 157.867 5.14277 157.868 5.19272 157.879C5.24267 157.89 5.28999 157.911 5.33198 157.94L19.1035 167.478C19.1455 167.507 19.1815 167.544 19.2092 167.587C19.2369 167.63 19.2559 167.678 19.265 167.729C19.2742 167.779 19.2733 167.831 19.2624 167.881C19.2516 167.931 19.231 167.978 19.2018 168.02L19.1966 168.028Z" fill="#0C0C0C"/>
</g>
<path d="M57.9053 150.281L113.357 226.197L172.46 150.281L215.217 194.143L134.46 298.728L133.933 299.473C130.7 303.9 126.394 307.431 121.419 309.734C116.444 312.036 110.965 313.035 105.498 312.635C100.031 312.234 94.7557 310.449 90.1693 307.447C85.5829 304.444 81.8364 300.323 79.2827 295.473L10.3919 184.185L57.9053 150.281Z" fill="#0D5078"/>
<path d="M117.933 235.755C118.034 235.755 118.134 235.728 118.222 235.679C118.311 235.629 118.385 235.558 118.438 235.471C118.49 235.385 118.52 235.286 118.524 235.185C118.528 235.083 118.506 234.983 118.46 234.892L113.886 225.928C113.808 225.8 113.684 225.706 113.54 225.665C113.395 225.624 113.241 225.639 113.108 225.708C112.974 225.776 112.871 225.893 112.82 226.034C112.769 226.175 112.773 226.33 112.832 226.468L117.407 235.432C117.456 235.529 117.531 235.61 117.624 235.667C117.717 235.724 117.824 235.755 117.933 235.755Z" fill="#0C0C0C"/>
<path d="M307.118 43.4249C307.118 43.4249 314.516 70.4585 322.702 79.1474C346.272 104.162 357.962 135.317 343.606 155.754C329.249 176.191 215.926 199.476 199.469 162.527C185.615 131.422 200.421 124.761 198.733 97.1232C197.969 84.6165 197.485 58.1643 197.485 58.1643" fill="#292A2E"/>
<path d="M218.55 141.955C218.749 141.928 220.965 178.7 263.683 175.495C293.257 173.279 303.801 141.903 304.479 141.903C301.29 141.225 295.921 140.239 294.505 139.484C289.851 136.982 284.086 134.378 282.585 125.335C281.72 120.122 283.188 93.4532 282.736 88.1835L237.341 98.3145C237.976 109.453 242.414 135.273 226.855 139.842C224.266 140.599 221.477 141.293 218.55 141.955Z" fill="#F08222"/>
<path opacity="0.52" d="M236.704 129.29C237.415 126.998 237.873 124.636 238.07 122.244C238.569 116.787 238.469 111.292 237.773 105.857C247 104.611 255.692 100.803 262.862 94.8648C263.705 97.9774 268.341 111.579 267.058 114.538C264.629 120.132 253.23 129.29 236.704 129.29Z" fill="#0C0C0C"/>
<path d="M246.402 122.466C264.285 120.597 285.552 108.967 285.504 84.6556L285.461 62.7187C285.413 38.4069 272.605 18.7228 249.715 18.7685C226.823 18.8133 209.753 38.5562 209.8 62.868L209.82 72.5801C209.837 81.9083 214.495 125.801 246.402 122.466Z" fill="#F08222"/>
<path opacity="0.52" d="M233.187 91.2694C233.172 91.2703 233.158 91.2703 233.143 91.2694C232.215 91.265 231.287 91.209 230.365 91.1017C228.985 90.9322 227.151 90.5668 227.149 89.3513C227.149 87.9653 230.911 73.0152 231.341 71.3113C231.357 71.2352 231.388 71.1632 231.433 71.0995C231.478 71.0359 231.535 70.9818 231.601 70.9407C231.667 70.8996 231.74 70.8722 231.817 70.8602C231.894 70.8482 231.972 70.8519 232.048 70.8709C232.123 70.8899 232.194 70.924 232.256 70.971C232.318 71.0181 232.37 71.0771 232.408 71.1447C232.447 71.2122 232.471 71.2868 232.48 71.364C232.489 71.4412 232.483 71.5195 232.461 71.5941C230.853 77.9625 228.303 88.4159 228.305 89.3486C228.53 89.7377 230.839 90.118 233.141 90.1145C233.288 90.1165 233.43 90.1752 233.536 90.2783C233.642 90.3815 233.704 90.5213 233.71 90.669C233.716 90.8168 233.665 90.9612 233.568 91.0725C233.471 91.1839 233.334 91.2537 233.187 91.2677V91.2694Z" fill="#0C0C0C"/>
<path opacity="0.52" d="M237.417 97.1784C241.109 96.9461 244.805 97.5851 248.205 99.0438C248.275 99.0727 248.339 99.115 248.393 99.1686C248.447 99.2221 248.489 99.2857 248.519 99.3557C248.548 99.4258 248.563 99.5009 248.563 99.5769C248.564 99.6528 248.549 99.728 248.52 99.7983C248.491 99.8685 248.449 99.9324 248.395 99.9862C248.342 100.04 248.278 100.083 248.208 100.112C248.138 100.141 248.063 100.157 247.987 100.157C247.911 100.157 247.836 100.142 247.766 100.114C240.443 97.1415 233.852 97.7115 228.707 101.76C228.603 101.846 228.495 101.926 228.383 101.999C228.251 102.074 228.096 102.095 227.95 102.056C227.803 102.017 227.678 101.923 227.6 101.793C227.523 101.663 227.499 101.508 227.535 101.361C227.571 101.214 227.663 101.087 227.791 101.007C227.832 100.98 227.899 100.926 227.992 100.852C230.698 98.717 233.98 97.4378 237.417 97.1784Z" fill="#0C0C0C"/>
<path d="M304.545 66.7151L284.047 66.8732C267.889 63.6727 258.386 38.5801 258.386 38.5801C258.386 38.5801 243.566 59.8206 197.486 58.1659C197.486 58.1659 194.56 -5.09515 263.206 0.330007C285.339 2.07955 304.485 20.3847 308.026 49.0686C310.506 69.169 304.545 66.7151 304.545 66.7151Z" fill="#292A2E"/>
<path d="M284.097 92.0674C291.054 92.0542 296.678 84.602 296.664 77.6442C296.65 70.6864 291.004 66.8624 284.047 66.8764L280.472 71.5445L278.116 92.0797L284.097 92.0674Z" fill="#F08222"/>
<path d="M225.153 60.8667C222.953 59.9772 220.554 59.6957 218.207 60.0516C217.05 60.22 215.925 60.561 214.87 61.0634C213.824 61.5562 212.844 62.1788 211.954 62.9166C211.837 63.0157 211.761 63.1559 211.744 63.3085C211.726 63.4611 211.768 63.6146 211.859 63.7379C211.951 63.8611 212.086 63.9446 212.238 63.9716C212.389 63.9985 212.545 63.9667 212.673 63.8827L212.712 63.8555C213.545 63.2276 214.454 62.7068 215.417 62.3053C216.368 61.9032 217.375 61.6474 218.403 61.5465C220.438 61.3318 222.494 61.6587 224.362 62.4941L224.423 62.5231C224.531 62.5847 224.651 62.6233 224.776 62.6364C224.9 62.6495 225.025 62.6368 225.144 62.5992C225.263 62.5615 225.373 62.4997 225.467 62.4176C225.561 62.3355 225.637 62.2349 225.69 62.1221C225.743 62.0093 225.773 61.8867 225.777 61.7619C225.78 61.6372 225.758 61.5131 225.712 61.3973C225.665 61.2815 225.595 61.1765 225.506 61.089C225.418 61.0015 225.311 60.9333 225.195 60.8886L225.153 60.8667Z" fill="#0C0C0C"/>
<path d="M243.609 61.647C245.47 60.7955 247.523 60.4513 249.56 60.6493C250.586 60.7424 251.593 60.9897 252.546 61.3826C253.512 61.7761 254.425 62.2895 255.263 62.9108L255.301 62.9363C255.431 63.0285 255.591 63.066 255.748 63.0407C255.904 63.0154 256.045 62.9293 256.139 62.8012C256.232 62.673 256.272 62.5131 256.248 62.3561C256.225 62.199 256.141 62.0576 256.014 61.9623C255.117 61.232 254.132 60.6176 253.082 60.1337C252.023 59.6402 250.896 59.3086 249.738 59.15C247.388 58.8147 244.992 59.118 242.8 60.0283C242.684 60.0704 242.579 60.1354 242.489 60.2195C242.4 60.3036 242.329 60.405 242.28 60.5175C242.23 60.63 242.205 60.7513 242.204 60.8741C242.203 60.9968 242.227 61.1184 242.275 61.2315C242.323 61.3447 242.393 61.4469 242.481 61.5322C242.569 61.6174 242.674 61.6838 242.789 61.7273C242.904 61.7708 243.026 61.7906 243.149 61.7854C243.271 61.7802 243.392 61.7501 243.502 61.6971L243.537 61.6821L243.609 61.647Z" fill="#0C0C0C"/>
<path d="M283.956 66.6315L284.044 66.0448C257.235 61.8378 258.657 36.0417 258.677 35.7818L258.086 35.7414C258.068 36.0066 256.599 62.3384 283.956 66.6315Z" fill="#0C0C0C"/>
<path opacity="0.1" d="M251.325 89.5942C254.281 89.3518 256.534 87.3972 256.356 85.2284C256.178 83.0597 253.637 81.4982 250.681 81.7406C247.725 81.983 245.473 83.9376 245.65 86.1063C245.828 88.275 248.369 89.8366 251.325 89.5942Z" fill="#0C0C0C"/>
<path opacity="0.1" d="M219.108 87.3295C219.279 89.4962 217.027 91.4486 214.072 91.6945C213.561 91.7368 213.047 91.7253 212.538 91.6603C211.892 89.1668 211.391 86.7419 211.008 84.4838C211.769 84.1206 212.591 83.9028 213.432 83.8418C216.387 83.595 218.927 85.1557 219.108 87.3295Z" fill="#0C0C0C"/>
<path d="M165.472 222.908C166.817 238.717 173.363 328.554 174.657 348.025H352.948C353.956 330.465 358.482 262.457 362.298 228.116C365.943 195.347 373.101 173.447 367.854 163.759C359.29 147.926 352.546 141.308 329.008 138.776C317.844 137.612 306.573 137.971 295.505 139.842C295.505 139.842 294.264 164.955 264.662 166.353C224.367 168.254 227.046 139.91 226.858 139.842C218.552 136.805 192.918 135.236 180.185 143.644C155.892 159.684 162.619 189.409 165.472 222.908Z" fill="#0D5078"/>
<path d="M219.504 74.9716C221.061 74.9716 222.324 73.7094 222.324 72.1523C222.324 70.5953 221.061 69.333 219.504 69.333C217.947 69.333 216.685 70.5953 216.685 72.1523C216.685 73.7094 217.947 74.9716 219.504 74.9716Z" fill="#0C0C0C"/>
<path d="M247.157 73.4508C248.714 73.4508 249.976 72.1886 249.976 70.6315C249.976 69.0745 248.714 67.8122 247.157 67.8122C245.6 67.8122 244.338 69.0745 244.338 70.6315C244.338 72.1886 245.6 73.4508 247.157 73.4508Z" fill="#0C0C0C"/>
<path d="M166.835 233.168L165.652 233.236L167.076 258.338L168.26 258.271L166.835 233.168Z" fill="#0C0C0C"/>
<path d="M358.66 270.125C358.833 270.125 359 270.059 359.128 269.942C359.255 269.824 359.334 269.663 359.348 269.49L361.226 246.288C361.233 246.198 361.223 246.107 361.195 246.02C361.167 245.934 361.122 245.854 361.064 245.785C361.005 245.716 360.933 245.659 360.852 245.617C360.771 245.576 360.683 245.551 360.593 245.543C360.502 245.536 360.411 245.547 360.325 245.575C360.238 245.602 360.158 245.647 360.089 245.706C360.02 245.765 359.963 245.836 359.922 245.917C359.88 245.998 359.855 246.086 359.848 246.177L357.97 269.378C357.963 269.469 357.973 269.56 358.001 269.646C358.029 269.733 358.074 269.813 358.132 269.882C358.191 269.951 358.263 270.008 358.344 270.049C358.425 270.091 358.513 270.116 358.603 270.123C358.623 270.125 358.641 270.125 358.66 270.125Z" fill="#292A2E"/>
<path d="M154.709 288.404L181.176 279.127L177.376 278.864C176.152 278.755 175.014 278.184 174.193 277.269C173.373 276.353 172.93 275.16 172.956 273.93C172.991 273.296 173.155 272.675 173.437 272.107C173.72 271.538 174.115 271.032 174.599 270.621C175.084 270.21 175.647 269.903 176.254 269.716C176.861 269.53 177.5 269.47 178.132 269.539L224.957 274.515L223.74 289.563C223.362 294.237 221.597 298.691 218.671 302.355C215.745 306.019 211.791 308.725 207.316 310.127L187.038 316.444C185.991 316.792 184.856 316.768 183.824 316.376C182.792 315.983 181.928 315.247 181.377 314.29C180.898 313.416 180.711 312.412 180.843 311.424C180.975 310.436 181.42 309.516 182.112 308.799C182.067 308.767 182.029 308.727 182.001 308.68C181.972 308.633 181.953 308.58 181.946 308.526C181.938 308.471 181.942 308.416 181.956 308.363C181.971 308.31 181.996 308.26 182.03 308.218L178.292 309.389C177.126 309.781 175.855 309.715 174.736 309.206C173.617 308.696 172.733 307.781 172.263 306.645C171.879 305.614 171.87 304.481 172.239 303.445C172.607 302.409 173.329 301.536 174.277 300.98C174.234 300.957 174.195 300.928 174.162 300.892L172.626 301.373C171.579 301.722 170.443 301.698 169.411 301.306C168.379 300.913 167.515 300.176 166.964 299.22C166.383 298.159 166.234 296.914 166.55 295.747C166.867 294.579 167.623 293.579 168.66 292.957C168.652 292.926 168.647 292.895 168.646 292.863L157.624 296.727C156.525 297.097 155.324 297.019 154.282 296.51C153.24 296 152.441 295.101 152.057 294.007C151.673 292.912 151.736 291.711 152.232 290.662C152.728 289.614 153.618 288.803 154.707 288.406L154.709 288.404Z" fill="#F08222"/>
<path opacity="0.2" d="M169.082 293.293C169.133 293.293 169.184 293.284 169.232 293.267L179.894 289.39C179.95 289.372 180.002 289.343 180.046 289.304C180.091 289.265 180.127 289.218 180.153 289.165C180.179 289.112 180.194 289.054 180.197 288.995C180.2 288.936 180.191 288.877 180.171 288.822C180.151 288.767 180.12 288.716 180.079 288.673C180.039 288.63 179.991 288.595 179.937 288.571C179.883 288.547 179.825 288.534 179.766 288.533C179.706 288.532 179.648 288.543 179.593 288.565L168.932 292.442C168.835 292.478 168.754 292.546 168.703 292.635C168.652 292.725 168.634 292.829 168.652 292.93C168.669 293.032 168.722 293.124 168.801 293.19C168.88 293.256 168.979 293.293 169.082 293.293Z" fill="#0A0A0A"/>
<path opacity="0.2" d="M174.471 301.044C174.521 301.045 174.571 301.036 174.618 301.019L183.021 298.037C183.077 298.019 183.129 297.99 183.174 297.952C183.219 297.914 183.255 297.867 183.281 297.814C183.308 297.761 183.323 297.704 183.326 297.645C183.33 297.586 183.322 297.527 183.302 297.472C183.282 297.416 183.252 297.365 183.212 297.322C183.172 297.279 183.124 297.244 183.07 297.219C183.017 297.195 182.959 297.181 182.9 297.18C182.841 297.178 182.783 297.188 182.728 297.21L174.324 300.192C174.227 300.226 174.145 300.294 174.093 300.384C174.04 300.473 174.021 300.578 174.039 300.68C174.056 300.782 174.109 300.874 174.188 300.941C174.268 301.007 174.368 301.044 174.471 301.044Z" fill="#0A0A0A"/>
<path opacity="0.2" d="M182.384 308.909C182.438 308.909 182.491 308.899 182.541 308.88L186.476 307.379C186.582 307.336 186.666 307.252 186.711 307.147C186.756 307.043 186.758 306.924 186.718 306.818C186.677 306.711 186.596 306.624 186.493 306.576C186.389 306.528 186.271 306.522 186.163 306.559L182.228 308.06C182.132 308.097 182.052 308.166 182.002 308.255C181.952 308.345 181.934 308.449 181.953 308.55C181.971 308.651 182.025 308.742 182.104 308.808C182.182 308.873 182.282 308.909 182.384 308.909Z" fill="#0A0A0A"/>
<path d="M205.34 321.161L369.437 348.366C374.496 348.917 379.613 348.288 384.388 346.528C389.163 344.769 393.465 341.927 396.957 338.225C400.449 334.524 403.036 330.063 404.515 325.194C405.994 320.325 406.324 315.179 405.48 310.161L371.058 173.389C370.34 169.124 368.79 165.042 366.495 161.376C364.199 157.71 361.205 154.532 357.681 152.023C350.565 146.957 341.728 144.925 333.114 146.374C324.5 147.823 316.815 152.635 311.748 159.751C306.682 166.867 304.65 175.704 306.099 184.318L332.365 278.608L213.126 262.319L205.34 321.161Z" fill="#0D5078"/>
<path d="M353.755 281.674C353.865 281.673 353.971 281.631 354.052 281.556C354.133 281.48 354.182 281.377 354.19 281.267C354.198 281.157 354.165 281.048 354.096 280.962C354.028 280.875 353.929 280.818 353.82 280.801L333.366 277.737C333.309 277.727 333.251 277.729 333.195 277.743C333.138 277.756 333.085 277.781 333.039 277.815C332.992 277.85 332.953 277.893 332.923 277.943C332.894 277.993 332.875 278.048 332.867 278.106C332.85 278.221 332.879 278.338 332.948 278.431C333.017 278.525 333.121 278.587 333.236 278.604L353.689 281.667C353.711 281.671 353.733 281.673 353.755 281.674Z" fill="#0C0C0C"/>
<path d="M364.868 348.999C364.925 349.003 364.983 348.995 365.038 348.977C365.093 348.958 365.143 348.929 365.187 348.891C365.23 348.852 365.266 348.806 365.291 348.754C365.317 348.702 365.332 348.646 365.335 348.588C365.339 348.531 365.332 348.473 365.313 348.418C365.294 348.364 365.265 348.313 365.227 348.27C365.189 348.226 365.143 348.191 365.091 348.165C365.039 348.14 364.983 348.124 364.925 348.121L206.259 320.829L213.95 262.862L332.365 278.609C332.433 278.618 332.503 278.611 332.568 278.588C332.633 278.566 332.691 278.528 332.739 278.479C332.787 278.429 332.822 278.369 332.843 278.304C332.863 278.238 332.868 278.168 332.856 278.1L320.042 222.82C320.033 222.763 320.013 222.708 319.983 222.659C319.952 222.609 319.912 222.567 319.865 222.533C319.818 222.499 319.765 222.475 319.708 222.463C319.652 222.45 319.593 222.449 319.536 222.459C319.479 222.469 319.425 222.49 319.376 222.52C319.327 222.551 319.284 222.591 319.251 222.638C319.217 222.685 319.194 222.738 319.181 222.795C319.168 222.851 319.166 222.909 319.176 222.966L331.891 277.66L213.62 261.928C213.562 261.92 213.503 261.923 213.447 261.938C213.39 261.953 213.337 261.98 213.291 262.016C213.245 262.052 213.207 262.097 213.179 262.148C213.15 262.2 213.132 262.256 213.126 262.314L205.34 321.159C205.327 321.273 205.36 321.388 205.431 321.478C205.502 321.568 205.605 321.627 205.719 321.642L364.811 348.993C364.83 348.996 364.849 348.998 364.868 348.999Z" fill="#0C0C0C"/>
<path d="M211.588 334.86L173.955 219.175C173.293 217.142 172.006 215.371 170.276 214.114C168.546 212.858 166.463 212.181 164.325 212.181H11.0032C9.40445 212.181 7.82837 212.559 6.40392 213.285C4.97947 214.011 3.74715 215.064 2.80782 216.358C1.86848 217.651 1.24882 219.149 0.999552 220.728C0.750287 222.307 0.878501 223.923 1.3737 225.443L39.0073 341.125C39.6688 343.158 40.9566 344.929 42.6863 346.185C44.4161 347.442 46.499 348.118 48.6368 348.118H201.96C203.558 348.118 205.134 347.74 206.557 347.014C207.981 346.289 209.213 345.236 210.153 343.943C211.092 342.65 211.711 341.152 211.961 339.574C212.211 337.995 212.083 336.38 211.588 334.86Z" fill="#292A2E"/>
<path d="M283.523 338.737H180.889C178.331 338.737 176.258 340.81 176.258 343.367V343.487C176.258 346.044 178.331 348.117 180.889 348.117H283.523C286.08 348.117 288.153 346.044 288.153 343.487V343.367C288.153 340.81 286.08 338.737 283.523 338.737Z" fill="#292A2E"/>
<path d="M283.11 338.028H172.836C170.05 338.028 167.791 340.287 167.791 343.073V343.074C167.791 345.86 170.05 348.119 172.836 348.119H283.11C285.896 348.119 288.154 345.86 288.154 343.074V343.073C288.154 340.287 285.896 338.028 283.11 338.028Z" fill="white"/>
<path d="M283.109 348.997H172.836C171.277 348.978 169.789 348.346 168.693 347.237C167.598 346.128 166.984 344.632 166.984 343.073C166.984 341.515 167.598 340.019 168.693 338.91C169.789 337.801 171.277 337.169 172.836 337.15H283.109C284.667 337.169 286.155 337.801 287.251 338.91C288.346 340.019 288.961 341.515 288.961 343.073C288.961 344.632 288.346 346.128 287.251 347.237C286.155 348.346 284.667 348.978 283.109 348.997ZM172.836 338.906C171.741 338.922 170.697 339.368 169.928 340.148C169.16 340.928 168.729 341.979 168.729 343.073C168.729 344.168 169.16 345.219 169.928 345.999C170.697 346.779 171.741 347.225 172.836 347.24H283.109C284.203 347.225 285.248 346.779 286.016 345.999C286.785 345.219 287.216 344.168 287.216 343.073C287.216 341.979 286.785 340.928 286.016 340.148C285.248 339.368 284.203 338.922 283.109 338.906H172.836Z" fill="#292A2E"/>
<path d="M211.588 334.86L173.955 219.175C173.293 217.142 172.006 215.371 170.276 214.114C168.546 212.858 166.463 212.181 164.325 212.181H11.0032C9.40445 212.181 7.82837 212.559 6.40392 213.285C4.97947 214.011 3.74715 215.064 2.80782 216.358C1.86848 217.651 1.24882 219.149 0.999552 220.728C0.750287 222.307 0.878501 223.923 1.3737 225.443L39.0073 341.125C39.6688 343.158 40.9566 344.929 42.6863 346.185C44.4161 347.442 46.499 348.118 48.6368 348.118H201.96C203.558 348.118 205.134 347.74 206.557 347.014C207.981 346.289 209.213 345.236 210.153 343.943C211.092 342.65 211.711 341.152 211.961 339.574C212.211 337.995 212.083 336.38 211.588 334.86Z" fill="white"/>
<path d="M201.96 348.996H48.6367C46.3127 349 44.0474 348.267 42.167 346.901C40.2866 345.535 38.8881 343.608 38.1728 341.397L0.538387 225.712C0.00189674 224.06 -0.136158 222.305 0.135516 220.59C0.407191 218.875 1.08088 217.249 2.1015 215.844C3.12213 214.439 4.46072 213.296 6.00785 212.508C7.55497 211.719 9.26671 211.308 11.0031 211.308H164.33C166.654 211.304 168.919 212.037 170.8 213.403C172.68 214.769 174.079 216.696 174.794 218.907L212.424 334.588C212.96 336.24 213.098 337.995 212.826 339.709C212.554 341.424 211.881 343.051 210.86 344.455C209.84 345.86 208.501 347.003 206.954 347.792C205.407 348.58 203.696 348.992 201.96 348.992V348.996ZM11.0031 213.06C9.54343 213.06 8.10441 213.405 6.8038 214.068C5.50319 214.731 4.37794 215.692 3.52012 216.873C2.66231 218.054 2.09629 219.421 1.86838 220.863C1.64048 222.305 1.75716 223.78 2.20888 225.168L39.8433 340.853C40.4438 342.712 41.6189 344.332 43.1992 345.479C44.7796 346.627 46.6835 347.244 48.6367 347.24H201.96C203.419 347.24 204.858 346.894 206.158 346.231C207.459 345.569 208.584 344.608 209.441 343.427C210.299 342.246 210.865 340.878 211.093 339.437C211.321 337.995 211.204 336.52 210.753 335.132L173.119 219.446C172.519 217.588 171.344 215.969 169.765 214.821C168.185 213.674 166.282 213.057 164.33 213.06H11.0031Z" fill="#292A2E"/>
<path d="M102.445 297.755C111.326 297.755 118.525 290.555 118.525 281.674C118.525 272.793 111.326 265.594 102.445 265.594C93.5636 265.594 86.3641 272.793 86.3641 281.674C86.3641 290.555 93.5636 297.755 102.445 297.755Z" fill="white"/>
<path d="M102.445 298.633C99.0904 298.633 95.8115 297.638 93.0226 295.775C90.2338 293.911 88.0601 291.262 86.7766 288.164C85.493 285.065 85.1572 281.655 85.8117 278.365C86.4661 275.075 88.0813 272.054 90.4532 269.682C92.825 267.31 95.8468 265.695 99.1366 265.041C102.426 264.387 105.836 264.723 108.935 266.006C112.034 267.29 114.682 269.464 116.546 272.253C118.409 275.042 119.403 278.321 119.403 281.675C119.398 286.171 117.609 290.481 114.43 293.66C111.251 296.839 106.941 298.628 102.445 298.633ZM102.445 266.472C99.4378 266.472 96.4987 267.363 93.9987 269.034C91.4987 270.704 89.5502 273.078 88.3996 275.856C87.2489 278.634 86.9478 281.691 87.5343 284.639C88.1209 287.588 89.5686 290.297 91.6946 292.423C93.8206 294.549 96.5293 295.997 99.4782 296.584C102.427 297.171 105.484 296.87 108.262 295.719C111.039 294.569 113.414 292.62 115.084 290.121C116.755 287.621 117.647 284.682 117.647 281.675C117.642 277.644 116.039 273.78 113.189 270.93C110.339 268.08 106.475 266.476 102.445 266.472Z" fill="#292A2E"/>
</svg>
