<svg width="15" height="12" viewBox="0 0 15 12" fill="none" xmlns="http://www.w3.org/2000/svg">
<path d="M14.6192 9.82418H9.11168C9.08901 10.2775 8.7717 10.5495 8.36374 10.5495H7.00385C6.57321 10.5495 6.23324 10.1641 6.25591 9.82418H0.839011C0.635027 9.82418 0.476374 10.0055 0.476374 10.1868V10.5495C0.476374 11.3654 1.11099 12 1.92692 12H13.5313C14.3246 12 14.9819 11.3654 14.9819 10.5495V10.1868C14.9819 10.0055 14.8005 9.82418 14.6192 9.82418ZM13.5313 1.48352C13.5313 0.894231 13.0327 0.395604 12.4434 0.395604H3.01484C2.40288 0.395604 1.92692 0.894231 1.92692 1.48352V9.0989H13.5313V1.48352ZM12.0808 7.64835H3.37747V1.84615H12.0808V7.64835Z" fill="#F08222"/>
</svg>
