<svg width="217" height="137" viewBox="0 0 217 137" fill="none" xmlns="http://www.w3.org/2000/svg">
<g style="mix-blend-mode:multiply" opacity="0.33">
<g style="mix-blend-mode:multiply" opacity="0.33">
<path d="M211.009 50.8062H120.064C117.033 50.8062 114.576 53.2707 114.576 56.3108V63.1829C114.576 66.2229 117.033 68.6872 120.064 68.6872H211.009C214.04 68.6872 216.497 66.2229 216.497 63.1829V56.3108C216.497 53.2707 214.04 50.8062 211.009 50.8062Z" fill="#4E4E4E"/>
<path d="M211.009 50.8062H120.064C117.033 50.8062 114.576 53.2707 114.576 56.3108V63.1829C114.576 66.2229 117.033 68.6872 120.064 68.6872H211.009C214.04 68.6872 216.497 66.2229 216.497 63.1829V56.3108C216.497 53.2707 214.04 50.8062 211.009 50.8062Z" stroke="black" stroke-linecap="round" stroke-linejoin="round"/>
</g>
<g style="mix-blend-mode:multiply" opacity="0.33">
<path d="M211.009 50.8062H120.064C117.033 50.8062 114.576 53.2707 114.576 56.3108V63.1829C114.576 66.2229 117.033 68.6872 120.064 68.6872H211.009C214.04 68.6872 216.497 66.2229 216.497 63.1829V56.3108C216.497 53.2707 214.04 50.8062 211.009 50.8062Z" fill="#4E4E4E"/>
</g>
<g style="mix-blend-mode:multiply" opacity="0.17">
<path d="M120.064 50.8062H211.01C212.465 50.8062 213.861 51.3862 214.89 52.4185C215.919 53.4508 216.498 54.8509 216.498 56.3108V64.3467C216.498 65.2381 216.145 66.0931 215.516 66.7234C214.888 67.3537 214.035 67.708 213.146 67.708H117.928C117.039 67.708 116.187 67.3537 115.558 66.7234C114.93 66.0931 114.576 65.2381 114.576 64.3467V56.3108C114.576 54.8509 115.155 53.4508 116.184 52.4185C117.213 51.3862 118.609 50.8062 120.065 50.8062H120.064Z" fill="#4E4E4E"/>
</g>
<g style="mix-blend-mode:multiply" opacity="0.33">
<path d="M211.009 50.8062H120.064C117.033 50.8062 114.576 53.2707 114.576 56.3108V63.1829C114.576 66.2229 117.033 68.6872 120.064 68.6872H211.009C214.04 68.6872 216.497 66.2229 216.497 63.1829V56.3108C216.497 53.2707 214.04 50.8062 211.009 50.8062Z" fill="#4E4E4E"/>
<path d="M211.009 50.8062H120.064C117.033 50.8062 114.576 53.2707 114.576 56.3108V63.1829C114.576 66.2229 117.033 68.6872 120.064 68.6872H211.009C214.04 68.6872 216.497 66.2229 216.497 63.1829V56.3108C216.497 53.2707 214.04 50.8062 211.009 50.8062Z" stroke="#46505C" stroke-linecap="round" stroke-linejoin="round"/>
</g>
<g style="mix-blend-mode:multiply" opacity="0.33">
<path d="M209.442 66.559V52.8206H121.632V66.559H209.442Z" fill="#4E4E4E"/>
</g>
<g style="mix-blend-mode:multiply" opacity="0.33">
<path d="M209.442 66.559V52.8206H121.632V66.559H209.442Z" fill="#4E4E4E"/>
<path d="M209.442 66.559V52.8206H121.632V66.559H209.442Z" stroke="#46505C" stroke-linecap="round" stroke-linejoin="round"/>
</g>
<g style="mix-blend-mode:multiply" opacity="0.33">
<path d="M211.01 68.6871H120.064C117.033 68.6871 114.576 71.1516 114.576 74.1917V130.81C114.576 133.85 117.033 136.314 120.064 136.314H211.01C214.041 136.314 216.498 133.85 216.498 130.81V74.1917C216.498 71.1516 214.041 68.6871 211.01 68.6871Z" fill="#4E4E4E"/>
</g>
<g style="mix-blend-mode:multiply" opacity="0.33">
<path d="M214.93 130.81V74.1915C214.93 72.02 213.174 70.2596 211.009 70.2596H120.064C117.899 70.2596 116.144 72.02 116.144 74.1915V130.81C116.144 132.981 117.899 134.741 120.064 134.741H211.009C213.174 134.741 214.93 132.981 214.93 130.81Z" fill="#4E4E4E"/>
<path d="M214.93 130.81V74.1915C214.93 72.02 213.174 70.2596 211.009 70.2596H120.064C117.899 70.2596 116.144 72.02 116.144 74.1915V130.81C116.144 132.981 117.899 134.741 120.064 134.741H211.009C213.174 134.741 214.93 132.981 214.93 130.81Z" stroke="#E6F3FF" stroke-miterlimit="10"/>
</g>
<g style="mix-blend-mode:multiply" opacity="0.33">
<path d="M159.245 133.239H171.828C172.244 133.239 172.643 133.404 172.937 133.699C173.231 133.994 173.396 134.394 173.396 134.812V136.313H157.677V134.812C157.677 134.394 157.842 133.994 158.136 133.699C158.43 133.404 158.829 133.239 159.245 133.239Z" fill="#4E4E4E"/>
</g>
<g style="mix-blend-mode:multiply" opacity="0.33">
<path d="M211.01 68.6871H120.064C117.033 68.6871 114.576 71.1516 114.576 74.1917V130.81C114.576 133.85 117.033 136.314 120.064 136.314H211.01C214.041 136.314 216.498 133.85 216.498 130.81V74.1917C216.498 71.1516 214.041 68.6871 211.01 68.6871Z" fill="#4E4E4E"/>
<path d="M211.01 68.6871H120.064C117.033 68.6871 114.576 71.1516 114.576 74.1917V130.81C114.576 133.85 117.033 136.314 120.064 136.314H211.01C214.041 136.314 216.498 133.85 216.498 130.81V74.1917C216.498 71.1516 214.041 68.6871 211.01 68.6871Z" stroke="#46505C" stroke-linecap="round" stroke-linejoin="round"/>
</g>
<g style="mix-blend-mode:multiply" opacity="0.33">
<path d="M209.441 73.9638H121.631C120.982 73.9638 120.455 74.4919 120.455 75.1432V108.957C120.455 109.608 120.982 110.136 121.631 110.136H209.441C210.09 110.136 210.617 109.608 210.617 108.957V75.1432C210.617 74.4919 210.09 73.9638 209.441 73.9638Z" fill="#4E4E4E"/>
</g>
<g style="mix-blend-mode:multiply" opacity="0.33">
<path d="M137.738 101.29H133.034C132.817 101.29 132.642 101.466 132.642 101.683V106.401C132.642 106.619 132.817 106.795 133.034 106.795H137.738C137.954 106.795 138.13 106.619 138.13 106.401V101.683C138.13 101.466 137.954 101.29 137.738 101.29Z" fill="#4E4E4E"/>
<path d="M137.738 101.29H133.034C132.817 101.29 132.642 101.466 132.642 101.683V106.401C132.642 106.619 132.817 106.795 133.034 106.795H137.738C137.954 106.795 138.13 106.619 138.13 106.401V101.683C138.13 101.466 137.954 101.29 137.738 101.29Z" stroke="#626C84" stroke-linecap="round" stroke-linejoin="round"/>
</g>
<g style="mix-blend-mode:multiply" opacity="0.33">
<path d="M129.255 101.29H124.551C124.334 101.29 124.159 101.466 124.159 101.683V106.401C124.159 106.619 124.334 106.795 124.551 106.795H129.255C129.471 106.795 129.647 106.619 129.647 106.401V101.683C129.647 101.466 129.471 101.29 129.255 101.29Z" fill="#4E4E4E"/>
<path d="M129.255 101.29H124.551C124.334 101.29 124.159 101.466 124.159 101.683V106.401C124.159 106.619 124.334 106.795 124.551 106.795H129.255C129.471 106.795 129.647 106.619 129.647 106.401V101.683C129.647 101.466 129.471 101.29 129.255 101.29Z" stroke="#626C84" stroke-linecap="round" stroke-linejoin="round"/>
</g>
<g style="mix-blend-mode:multiply" opacity="0.33">
<path d="M180.149 101.29H141.516C141.299 101.29 141.124 101.466 141.124 101.683V106.401C141.124 106.619 141.299 106.795 141.516 106.795H180.149C180.366 106.795 180.542 106.619 180.542 106.401V101.683C180.542 101.466 180.366 101.29 180.149 101.29Z" fill="#4E4E4E"/>
<path d="M180.149 101.29H141.516C141.299 101.29 141.124 101.466 141.124 101.683V106.401C141.124 106.619 141.299 106.795 141.516 106.795H180.149C180.366 106.795 180.542 106.619 180.542 106.401V101.683C180.542 101.466 180.366 101.29 180.149 101.29Z" stroke="#626C84" stroke-linecap="round" stroke-linejoin="round"/>
</g>
<g style="mix-blend-mode:multiply" opacity="0.33">
<path d="M188.633 101.29H183.928C183.712 101.29 183.536 101.466 183.536 101.683V106.401C183.536 106.619 183.712 106.795 183.928 106.795H188.633C188.849 106.795 189.025 106.619 189.025 106.401V101.683C189.025 101.466 188.849 101.29 188.633 101.29Z" fill="#4E4E4E"/>
<path d="M188.633 101.29H183.928C183.712 101.29 183.536 101.466 183.536 101.683V106.401C183.536 106.619 183.712 106.795 183.928 106.795H188.633C188.849 106.795 189.025 106.619 189.025 106.401V101.683C189.025 101.466 188.849 101.29 188.633 101.29Z" stroke="#626C84" stroke-linecap="round" stroke-linejoin="round"/>
</g>
<g style="mix-blend-mode:multiply" opacity="0.33">
<path d="M201.035 104.386H197.899C197.682 104.386 197.507 104.562 197.507 104.779V106.401C197.507 106.618 197.682 106.794 197.899 106.794H201.035C201.251 106.794 201.427 106.618 201.427 106.401V104.779C201.427 104.562 201.251 104.386 201.035 104.386Z" fill="#4E4E4E"/>
<path d="M201.035 104.386H197.899C197.682 104.386 197.507 104.562 197.507 104.779V106.401C197.507 106.618 197.682 106.794 197.899 106.794H201.035C201.251 106.794 201.427 106.618 201.427 106.401V104.779C201.427 104.562 201.251 104.386 201.035 104.386Z" stroke="#626C84" stroke-linecap="round" stroke-linejoin="round"/>
</g>
<g style="mix-blend-mode:multiply" opacity="0.33">
<path d="M201.035 101.29H197.899C197.682 101.29 197.507 101.466 197.507 101.683V103.305C197.507 103.522 197.682 103.698 197.899 103.698H201.035C201.251 103.698 201.427 103.522 201.427 103.305V101.683C201.427 101.466 201.251 101.29 201.035 101.29Z" fill="#4E4E4E"/>
<path d="M201.035 101.29H197.899C197.682 101.29 197.507 101.466 197.507 101.683V103.305C197.507 103.522 197.682 103.698 197.899 103.698H201.035C201.251 103.698 201.427 103.522 201.427 103.305V101.683C201.427 101.466 201.251 101.29 201.035 101.29Z" stroke="#626C84" stroke-linecap="round" stroke-linejoin="round"/>
</g>
<g style="mix-blend-mode:multiply" opacity="0.33">
<path d="M206.523 104.386H203.387C203.17 104.386 202.995 104.562 202.995 104.779V106.401C202.995 106.618 203.17 106.794 203.387 106.794H206.523C206.739 106.794 206.915 106.618 206.915 106.401V104.779C206.915 104.562 206.739 104.386 206.523 104.386Z" fill="#4E4E4E"/>
<path d="M206.523 104.386H203.387C203.17 104.386 202.995 104.562 202.995 104.779V106.401C202.995 106.618 203.17 106.794 203.387 106.794H206.523C206.739 106.794 206.915 106.618 206.915 106.401V104.779C206.915 104.562 206.739 104.386 206.523 104.386Z" stroke="#626C84" stroke-linecap="round" stroke-linejoin="round"/>
</g>
<g style="mix-blend-mode:multiply" opacity="0.33">
<path d="M195.547 104.386H192.411C192.194 104.386 192.018 104.562 192.018 104.779V106.401C192.018 106.618 192.194 106.794 192.411 106.794H195.547C195.763 106.794 195.939 106.618 195.939 106.401V104.779C195.939 104.562 195.763 104.386 195.547 104.386Z" fill="#4E4E4E"/>
<path d="M195.547 104.386H192.411C192.194 104.386 192.018 104.562 192.018 104.779V106.401C192.018 106.618 192.194 106.794 192.411 106.794H195.547C195.763 106.794 195.939 106.618 195.939 106.401V104.779C195.939 104.562 195.763 104.386 195.547 104.386Z" stroke="#626C84" stroke-linecap="round" stroke-linejoin="round"/>
</g>
<g style="mix-blend-mode:multiply" opacity="0.33">
<path d="M136.953 93.4575H124.551C124.334 93.4575 124.159 93.6336 124.159 93.8507V98.5687C124.159 98.7859 124.334 98.962 124.551 98.962H136.953C137.17 98.962 137.346 98.7859 137.346 98.5687V93.8507C137.346 93.6336 137.17 93.4575 136.953 93.4575Z" fill="#4E4E4E"/>
<path d="M136.953 93.4575H124.551C124.334 93.4575 124.159 93.6336 124.159 93.8507V98.5687C124.159 98.7859 124.334 98.962 124.551 98.962H136.953C137.17 98.962 137.346 98.7859 137.346 98.5687V93.8507C137.346 93.6336 137.17 93.4575 136.953 93.4575Z" stroke="#626C84" stroke-linecap="round" stroke-linejoin="round"/>
</g>
<g style="mix-blend-mode:multiply" opacity="0.33">
<path d="M145.506 93.4575H140.802C140.586 93.4575 140.41 93.6336 140.41 93.8507V98.5687C140.41 98.7859 140.586 98.962 140.802 98.962H145.506C145.723 98.962 145.899 98.7859 145.899 98.5687V93.8507C145.899 93.6336 145.723 93.4575 145.506 93.4575Z" fill="#4E4E4E"/>
<path d="M145.506 93.4575H140.802C140.586 93.4575 140.41 93.6336 140.41 93.8507V98.5687C140.41 98.7859 140.586 98.962 140.802 98.962H145.506C145.723 98.962 145.899 98.7859 145.899 98.5687V93.8507C145.899 93.6336 145.723 93.4575 145.506 93.4575Z" stroke="#626C84" stroke-linecap="round" stroke-linejoin="round"/>
</g>
<g style="mix-blend-mode:multiply" opacity="0.33">
<path d="M153.989 93.4575H149.285C149.069 93.4575 148.893 93.6336 148.893 93.8507V98.5687C148.893 98.7859 149.069 98.962 149.285 98.962H153.989C154.206 98.962 154.381 98.7859 154.381 98.5687V93.8507C154.381 93.6336 154.206 93.4575 153.989 93.4575Z" fill="#4E4E4E"/>
<path d="M153.989 93.4575H149.285C149.069 93.4575 148.893 93.6336 148.893 93.8507V98.5687C148.893 98.7859 149.069 98.962 149.285 98.962H153.989C154.206 98.962 154.381 98.7859 154.381 98.5687V93.8507C154.381 93.6336 154.206 93.4575 153.989 93.4575Z" stroke="#626C84" stroke-linecap="round" stroke-linejoin="round"/>
</g>
<g style="mix-blend-mode:multiply" opacity="0.33">
<path d="M162.471 93.4575H157.767C157.551 93.4575 157.375 93.6336 157.375 93.8507V98.5687C157.375 98.7859 157.551 98.962 157.767 98.962H162.471C162.688 98.962 162.863 98.7859 162.863 98.5687V93.8507C162.863 93.6336 162.688 93.4575 162.471 93.4575Z" fill="#4E4E4E"/>
<path d="M162.471 93.4575H157.767C157.551 93.4575 157.375 93.6336 157.375 93.8507V98.5687C157.375 98.7859 157.551 98.962 157.767 98.962H162.471C162.688 98.962 162.863 98.7859 162.863 98.5687V93.8507C162.863 93.6336 162.688 93.4575 162.471 93.4575Z" stroke="#626C84" stroke-linecap="round" stroke-linejoin="round"/>
</g>
<g style="mix-blend-mode:multiply" opacity="0.33">
<path d="M170.954 93.4575H166.249C166.033 93.4575 165.858 93.6336 165.858 93.8507V98.5687C165.858 98.7859 166.033 98.962 166.249 98.962H170.954C171.17 98.962 171.346 98.7859 171.346 98.5687V93.8507C171.346 93.6336 171.17 93.4575 170.954 93.4575Z" fill="#4E4E4E"/>
<path d="M170.954 93.4575H166.249C166.033 93.4575 165.858 93.6336 165.858 93.8507V98.5687C165.858 98.7859 166.033 98.962 166.249 98.962H170.954C171.17 98.962 171.346 98.7859 171.346 98.5687V93.8507C171.346 93.6336 171.17 93.4575 170.954 93.4575Z" stroke="#626C84" stroke-linecap="round" stroke-linejoin="round"/>
</g>
<g style="mix-blend-mode:multiply" opacity="0.33">
<path d="M179.436 93.4575H174.732C174.516 93.4575 174.34 93.6336 174.34 93.8507V98.5687C174.34 98.7859 174.516 98.962 174.732 98.962H179.436C179.653 98.962 179.828 98.7859 179.828 98.5687V93.8507C179.828 93.6336 179.653 93.4575 179.436 93.4575Z" fill="#4E4E4E"/>
<path d="M179.436 93.4575H174.732C174.516 93.4575 174.34 93.6336 174.34 93.8507V98.5687C174.34 98.7859 174.516 98.962 174.732 98.962H179.436C179.653 98.962 179.828 98.7859 179.828 98.5687V93.8507C179.828 93.6336 179.653 93.4575 179.436 93.4575Z" stroke="#626C84" stroke-linecap="round" stroke-linejoin="round"/>
</g>
<g style="mix-blend-mode:multiply" opacity="0.33">
<path d="M187.919 93.4575H183.215C182.998 93.4575 182.823 93.6336 182.823 93.8507V98.5687C182.823 98.7859 182.998 98.962 183.215 98.962H187.919C188.136 98.962 188.311 98.7859 188.311 98.5687V93.8507C188.311 93.6336 188.136 93.4575 187.919 93.4575Z" fill="#4E4E4E"/>
<path d="M187.919 93.4575H183.215C182.998 93.4575 182.823 93.6336 182.823 93.8507V98.5687C182.823 98.7859 182.998 98.962 183.215 98.962H187.919C188.136 98.962 188.311 98.7859 188.311 98.5687V93.8507C188.311 93.6336 188.136 93.4575 187.919 93.4575Z" stroke="#626C84" stroke-linecap="round" stroke-linejoin="round"/>
</g>
<g style="mix-blend-mode:multiply" opacity="0.33">
<path d="M206.523 93.4575H192.411C192.194 93.4575 192.018 93.6336 192.018 93.8507V98.5687C192.018 98.7859 192.194 98.962 192.411 98.962H206.523C206.739 98.962 206.915 98.7859 206.915 98.5687V93.8507C206.915 93.6336 206.739 93.4575 206.523 93.4575Z" fill="#4E4E4E"/>
<path d="M206.523 93.4575H192.411C192.194 93.4575 192.018 93.6336 192.018 93.8507V98.5687C192.018 98.7859 192.194 98.962 192.411 98.962H206.523C206.739 98.962 206.915 98.7859 206.915 98.5687V93.8507C206.915 93.6336 206.739 93.4575 206.523 93.4575Z" stroke="#626C84" stroke-linecap="round" stroke-linejoin="round"/>
</g>
<g style="mix-blend-mode:multiply" opacity="0.33">
<path d="M142.442 85.4055H137.738C137.521 85.4055 137.346 85.5814 137.346 85.7986V90.5168C137.346 90.734 137.521 90.9099 137.738 90.9099H142.442C142.658 90.9099 142.834 90.734 142.834 90.5168V85.7986C142.834 85.5814 142.658 85.4055 142.442 85.4055Z" fill="#4E4E4E"/>
<path d="M142.442 85.4055H137.738C137.521 85.4055 137.346 85.5814 137.346 85.7986V90.5168C137.346 90.734 137.521 90.9099 137.738 90.9099H142.442C142.658 90.9099 142.834 90.734 142.834 90.5168V85.7986C142.834 85.5814 142.658 85.4055 142.442 85.4055Z" stroke="#626C84" stroke-linecap="round" stroke-linejoin="round"/>
</g>
<g style="mix-blend-mode:multiply" opacity="0.33">
<path d="M133.959 85.4055H124.551C124.334 85.4055 124.159 85.5814 124.159 85.7986V90.5168C124.159 90.734 124.334 90.9099 124.551 90.9099H133.959C134.175 90.9099 134.351 90.734 134.351 90.5168V85.7986C134.351 85.5814 134.175 85.4055 133.959 85.4055Z" fill="#4E4E4E"/>
<path d="M133.959 85.4055H124.551C124.334 85.4055 124.159 85.5814 124.159 85.7986V90.5168C124.159 90.734 124.334 90.9099 124.551 90.9099H133.959C134.175 90.9099 134.351 90.734 134.351 90.5168V85.7986C134.351 85.5814 134.175 85.4055 133.959 85.4055Z" stroke="#626C84" stroke-linecap="round" stroke-linejoin="round"/>
</g>
<g style="mix-blend-mode:multiply" opacity="0.33">
<path d="M150.924 85.4055H146.22C146.004 85.4055 145.828 85.5814 145.828 85.7986V90.5168C145.828 90.734 146.004 90.9099 146.22 90.9099H150.924C151.141 90.9099 151.316 90.734 151.316 90.5168V85.7986C151.316 85.5814 151.141 85.4055 150.924 85.4055Z" fill="#4E4E4E"/>
<path d="M150.924 85.4055H146.22C146.004 85.4055 145.828 85.5814 145.828 85.7986V90.5168C145.828 90.734 146.004 90.9099 146.22 90.9099H150.924C151.141 90.9099 151.316 90.734 151.316 90.5168V85.7986C151.316 85.5814 151.141 85.4055 150.924 85.4055Z" stroke="#626C84" stroke-linecap="round" stroke-linejoin="round"/>
</g>
<g style="mix-blend-mode:multiply" opacity="0.33">
<path d="M159.407 85.4055H154.703C154.486 85.4055 154.311 85.5814 154.311 85.7986V90.5168C154.311 90.734 154.486 90.9099 154.703 90.9099H159.407C159.623 90.9099 159.799 90.734 159.799 90.5168V85.7986C159.799 85.5814 159.623 85.4055 159.407 85.4055Z" fill="#4E4E4E"/>
<path d="M159.407 85.4055H154.703C154.486 85.4055 154.311 85.5814 154.311 85.7986V90.5168C154.311 90.734 154.486 90.9099 154.703 90.9099H159.407C159.623 90.9099 159.799 90.734 159.799 90.5168V85.7986C159.799 85.5814 159.623 85.4055 159.407 85.4055Z" stroke="#626C84" stroke-linecap="round" stroke-linejoin="round"/>
</g>
<g style="mix-blend-mode:multiply" opacity="0.33">
<path d="M167.889 85.4055H163.185C162.968 85.4055 162.793 85.5814 162.793 85.7986V90.5168C162.793 90.734 162.968 90.9099 163.185 90.9099H167.889C168.106 90.9099 168.281 90.734 168.281 90.5168V85.7986C168.281 85.5814 168.106 85.4055 167.889 85.4055Z" fill="#4E4E4E"/>
<path d="M167.889 85.4055H163.185C162.968 85.4055 162.793 85.5814 162.793 85.7986V90.5168C162.793 90.734 162.968 90.9099 163.185 90.9099H167.889C168.106 90.9099 168.281 90.734 168.281 90.5168V85.7986C168.281 85.5814 168.106 85.4055 167.889 85.4055Z" stroke="#626C84" stroke-linecap="round" stroke-linejoin="round"/>
</g>
<g style="mix-blend-mode:multiply" opacity="0.33">
<path d="M176.371 85.4055H171.667C171.451 85.4055 171.275 85.5814 171.275 85.7986V90.5168C171.275 90.734 171.451 90.9099 171.667 90.9099H176.371C176.588 90.9099 176.763 90.734 176.763 90.5168V85.7986C176.763 85.5814 176.588 85.4055 176.371 85.4055Z" fill="#4E4E4E"/>
<path d="M176.371 85.4055H171.667C171.451 85.4055 171.275 85.5814 171.275 85.7986V90.5168C171.275 90.734 171.451 90.9099 171.667 90.9099H176.371C176.588 90.9099 176.763 90.734 176.763 90.5168V85.7986C176.763 85.5814 176.588 85.4055 176.371 85.4055Z" stroke="#626C84" stroke-linecap="round" stroke-linejoin="round"/>
</g>
<g style="mix-blend-mode:multiply" opacity="0.33">
<path d="M184.854 85.4055H180.15C179.934 85.4055 179.758 85.5814 179.758 85.7986V90.5168C179.758 90.734 179.934 90.9099 180.15 90.9099H184.854C185.071 90.9099 185.246 90.734 185.246 90.5168V85.7986C185.246 85.5814 185.071 85.4055 184.854 85.4055Z" fill="#4E4E4E"/>
<path d="M184.854 85.4055H180.15C179.934 85.4055 179.758 85.5814 179.758 85.7986V90.5168C179.758 90.734 179.934 90.9099 180.15 90.9099H184.854C185.071 90.9099 185.246 90.734 185.246 90.5168V85.7986C185.246 85.5814 185.071 85.4055 184.854 85.4055Z" stroke="#626C84" stroke-linecap="round" stroke-linejoin="round"/>
</g>
<g style="mix-blend-mode:multiply" opacity="0.33">
<path d="M193.336 85.4055H188.632C188.416 85.4055 188.24 85.5814 188.24 85.7986V90.5168C188.24 90.734 188.416 90.9099 188.632 90.9099H193.336C193.553 90.9099 193.728 90.734 193.728 90.5168V85.7986C193.728 85.5814 193.553 85.4055 193.336 85.4055Z" fill="#4E4E4E"/>
<path d="M193.336 85.4055H188.632C188.416 85.4055 188.24 85.5814 188.24 85.7986V90.5168C188.24 90.734 188.416 90.9099 188.632 90.9099H193.336C193.553 90.9099 193.728 90.734 193.728 90.5168V85.7986C193.728 85.5814 193.553 85.4055 193.336 85.4055Z" stroke="#626C84" stroke-linecap="round" stroke-linejoin="round"/>
</g>
<g style="mix-blend-mode:multiply" opacity="0.33">
<path d="M206.523 85.4055H197.114C196.898 85.4055 196.722 85.5814 196.722 85.7986V90.5168C196.722 90.734 196.898 90.9099 197.114 90.9099H206.523C206.739 90.9099 206.915 90.734 206.915 90.5168V85.7986C206.915 85.5814 206.739 85.4055 206.523 85.4055Z" fill="#4E4E4E"/>
<path d="M206.523 85.4055H197.114C196.898 85.4055 196.722 85.5814 196.722 85.7986V90.5168C196.722 90.734 196.898 90.9099 197.114 90.9099H206.523C206.739 90.9099 206.915 90.734 206.915 90.5168V85.7986C206.915 85.5814 206.739 85.4055 206.523 85.4055Z" stroke="#626C84" stroke-linecap="round" stroke-linejoin="round"/>
</g>
<g style="mix-blend-mode:multiply" opacity="0.33">
<path d="M137.841 77.6994H133.137C132.92 77.6994 132.745 77.8755 132.745 78.0927V82.8107C132.745 83.0279 132.92 83.204 133.137 83.204H137.841C138.057 83.204 138.233 83.0279 138.233 82.8107V78.0927C138.233 77.8755 138.057 77.6994 137.841 77.6994Z" fill="#4E4E4E"/>
<path d="M137.841 77.6994H133.137C132.92 77.6994 132.745 77.8755 132.745 78.0927V82.8107C132.745 83.0279 132.92 83.204 133.137 83.204H137.841C138.057 83.204 138.233 83.0279 138.233 82.8107V78.0927C138.233 77.8755 138.057 77.6994 137.841 77.6994Z" stroke="#626C84" stroke-linecap="round" stroke-linejoin="round"/>
</g>
<g style="mix-blend-mode:multiply" opacity="0.33">
<path d="M129.255 77.6994H124.551C124.334 77.6994 124.159 77.8755 124.159 78.0927V82.8107C124.159 83.0279 124.334 83.204 124.551 83.204H129.255C129.471 83.204 129.647 83.0279 129.647 82.8107V78.0927C129.647 77.8755 129.471 77.6994 129.255 77.6994Z" fill="#4E4E4E"/>
<path d="M129.255 77.6994H124.551C124.334 77.6994 124.159 77.8755 124.159 78.0927V82.8107C124.159 83.0279 124.334 83.204 124.551 83.204H129.255C129.471 83.204 129.647 83.0279 129.647 82.8107V78.0927C129.647 77.8755 129.471 77.6994 129.255 77.6994Z" stroke="#626C84" stroke-linecap="round" stroke-linejoin="round"/>
</g>
<g style="mix-blend-mode:multiply" opacity="0.33">
<path d="M146.426 77.6994H141.722C141.505 77.6994 141.33 77.8755 141.33 78.0927V82.8107C141.33 83.0279 141.505 83.204 141.722 83.204H146.426C146.642 83.204 146.818 83.0279 146.818 82.8107V78.0927C146.818 77.8755 146.642 77.6994 146.426 77.6994Z" fill="#4E4E4E"/>
<path d="M146.426 77.6994H141.722C141.505 77.6994 141.33 77.8755 141.33 78.0927V82.8107C141.33 83.0279 141.505 83.204 141.722 83.204H146.426C146.642 83.204 146.818 83.0279 146.818 82.8107V78.0927C146.818 77.8755 146.642 77.6994 146.426 77.6994Z" stroke="#626C84" stroke-linecap="round" stroke-linejoin="round"/>
</g>
<g style="mix-blend-mode:multiply" opacity="0.33">
<path d="M155.011 77.6994H150.306C150.09 77.6994 149.915 77.8755 149.915 78.0927V82.8107C149.915 83.0279 150.09 83.204 150.306 83.204H155.011C155.227 83.204 155.403 83.0279 155.403 82.8107V78.0927C155.403 77.8755 155.227 77.6994 155.011 77.6994Z" fill="#4E4E4E"/>
<path d="M155.011 77.6994H150.306C150.09 77.6994 149.915 77.8755 149.915 78.0927V82.8107C149.915 83.0279 150.09 83.204 150.306 83.204H155.011C155.227 83.204 155.403 83.0279 155.403 82.8107V78.0927C155.403 77.8755 155.227 77.6994 155.011 77.6994Z" stroke="#626C84" stroke-linecap="round" stroke-linejoin="round"/>
</g>
<g style="mix-blend-mode:multiply" opacity="0.33">
<path d="M163.596 77.6994H158.892C158.676 77.6994 158.5 77.8755 158.5 78.0927V82.8107C158.5 83.0279 158.676 83.204 158.892 83.204H163.596C163.813 83.204 163.988 83.0279 163.988 82.8107V78.0927C163.988 77.8755 163.813 77.6994 163.596 77.6994Z" fill="#4E4E4E"/>
<path d="M163.596 77.6994H158.892C158.676 77.6994 158.5 77.8755 158.5 78.0927V82.8107C158.5 83.0279 158.676 83.204 158.892 83.204H163.596C163.813 83.204 163.988 83.0279 163.988 82.8107V78.0927C163.988 77.8755 163.813 77.6994 163.596 77.6994Z" stroke="#626C84" stroke-linecap="round" stroke-linejoin="round"/>
</g>
<g style="mix-blend-mode:multiply" opacity="0.33">
<path d="M172.181 77.6994H167.477C167.261 77.6994 167.085 77.8755 167.085 78.0927V82.8107C167.085 83.0279 167.261 83.204 167.477 83.204H172.181C172.398 83.204 172.573 83.0279 172.573 82.8107V78.0927C172.573 77.8755 172.398 77.6994 172.181 77.6994Z" fill="#4E4E4E"/>
<path d="M172.181 77.6994H167.477C167.261 77.6994 167.085 77.8755 167.085 78.0927V82.8107C167.085 83.0279 167.261 83.204 167.477 83.204H172.181C172.398 83.204 172.573 83.0279 172.573 82.8107V78.0927C172.573 77.8755 172.398 77.6994 172.181 77.6994Z" stroke="#626C84" stroke-linecap="round" stroke-linejoin="round"/>
</g>
<g style="mix-blend-mode:multiply" opacity="0.33">
<path d="M180.767 77.6994H176.063C175.847 77.6994 175.671 77.8755 175.671 78.0927V82.8107C175.671 83.0279 175.847 83.204 176.063 83.204H180.767C180.984 83.204 181.159 83.0279 181.159 82.8107V78.0927C181.159 77.8755 180.984 77.6994 180.767 77.6994Z" fill="#4E4E4E"/>
<path d="M180.767 77.6994H176.063C175.847 77.6994 175.671 77.8755 175.671 78.0927V82.8107C175.671 83.0279 175.847 83.204 176.063 83.204H180.767C180.984 83.204 181.159 83.0279 181.159 82.8107V78.0927C181.159 77.8755 180.984 77.6994 180.767 77.6994Z" stroke="#626C84" stroke-linecap="round" stroke-linejoin="round"/>
</g>
<g style="mix-blend-mode:multiply" opacity="0.33">
<path d="M189.352 77.6994H184.648C184.432 77.6994 184.256 77.8755 184.256 78.0927V82.8107C184.256 83.0279 184.432 83.204 184.648 83.204H189.352C189.569 83.204 189.744 83.0279 189.744 82.8107V78.0927C189.744 77.8755 189.569 77.6994 189.352 77.6994Z" fill="#4E4E4E"/>
<path d="M189.352 77.6994H184.648C184.432 77.6994 184.256 77.8755 184.256 78.0927V82.8107C184.256 83.0279 184.432 83.204 184.648 83.204H189.352C189.569 83.204 189.744 83.0279 189.744 82.8107V78.0927C189.744 77.8755 189.569 77.6994 189.352 77.6994Z" stroke="#626C84" stroke-linecap="round" stroke-linejoin="round"/>
</g>
<g style="mix-blend-mode:multiply" opacity="0.33">
<path d="M197.937 77.6994H193.233C193.017 77.6994 192.841 77.8755 192.841 78.0927V82.8107C192.841 83.0279 193.017 83.204 193.233 83.204H197.937C198.154 83.204 198.329 83.0279 198.329 82.8107V78.0927C198.329 77.8755 198.154 77.6994 197.937 77.6994Z" fill="#4E4E4E"/>
<path d="M197.937 77.6994H193.233C193.017 77.6994 192.841 77.8755 192.841 78.0927V82.8107C192.841 83.0279 193.017 83.204 193.233 83.204H197.937C198.154 83.204 198.329 83.0279 198.329 82.8107V78.0927C198.329 77.8755 198.154 77.6994 197.937 77.6994Z" stroke="#626C84" stroke-linecap="round" stroke-linejoin="round"/>
</g>
<g style="mix-blend-mode:multiply" opacity="0.33">
<path d="M206.523 77.6994H201.819C201.603 77.6994 201.427 77.8755 201.427 78.0927V82.8107C201.427 83.0279 201.603 83.204 201.819 83.204H206.523C206.74 83.204 206.915 83.0279 206.915 82.8107V78.0927C206.915 77.8755 206.74 77.6994 206.523 77.6994Z" fill="#4E4E4E"/>
<path d="M206.523 77.6994H201.819C201.603 77.6994 201.427 77.8755 201.427 78.0927V82.8107C201.427 83.0279 201.603 83.204 201.819 83.204H206.523C206.74 83.204 206.915 83.0279 206.915 82.8107V78.0927C206.915 77.8755 206.74 77.6994 206.523 77.6994Z" stroke="#626C84" stroke-linecap="round" stroke-linejoin="round"/>
</g>
<g style="mix-blend-mode:multiply" opacity="0.33">
<path d="M137.738 101.29H133.034C132.817 101.29 132.642 101.466 132.642 101.683V106.401C132.642 106.619 132.817 106.795 133.034 106.795H137.738C137.954 106.795 138.13 106.619 138.13 106.401V101.683C138.13 101.466 137.954 101.29 137.738 101.29Z" fill="#4E4E4E"/>
</g>
<g style="mix-blend-mode:multiply" opacity="0.33">
<path d="M129.255 101.29H124.551C124.334 101.29 124.159 101.466 124.159 101.683V106.401C124.159 106.619 124.334 106.795 124.551 106.795H129.255C129.471 106.795 129.647 106.619 129.647 106.401V101.683C129.647 101.466 129.471 101.29 129.255 101.29Z" fill="#4E4E4E"/>
</g>
<g style="mix-blend-mode:multiply" opacity="0.33">
<path d="M180.149 101.29H141.516C141.299 101.29 141.124 101.466 141.124 101.683V106.401C141.124 106.619 141.299 106.795 141.516 106.795H180.149C180.366 106.795 180.542 106.619 180.542 106.401V101.683C180.542 101.466 180.366 101.29 180.149 101.29Z" fill="#4E4E4E"/>
</g>
<g style="mix-blend-mode:multiply" opacity="0.33">
<path d="M188.633 101.29H183.928C183.712 101.29 183.536 101.466 183.536 101.683V106.401C183.536 106.619 183.712 106.795 183.928 106.795H188.633C188.849 106.795 189.025 106.619 189.025 106.401V101.683C189.025 101.466 188.849 101.29 188.633 101.29Z" fill="#4E4E4E"/>
</g>
<g style="mix-blend-mode:multiply" opacity="0.33">
<path d="M201.035 104.386H197.899C197.682 104.386 197.507 104.562 197.507 104.779V106.401C197.507 106.618 197.682 106.794 197.899 106.794H201.035C201.251 106.794 201.427 106.618 201.427 106.401V104.779C201.427 104.562 201.251 104.386 201.035 104.386Z" fill="#4E4E4E"/>
</g>
<g style="mix-blend-mode:multiply" opacity="0.33">
<path d="M201.035 101.29H197.899C197.682 101.29 197.507 101.466 197.507 101.683V103.305C197.507 103.522 197.682 103.698 197.899 103.698H201.035C201.251 103.698 201.427 103.522 201.427 103.305V101.683C201.427 101.466 201.251 101.29 201.035 101.29Z" fill="#4E4E4E"/>
</g>
<g style="mix-blend-mode:multiply" opacity="0.33">
<path d="M206.523 104.386H203.387C203.17 104.386 202.995 104.562 202.995 104.779V106.401C202.995 106.618 203.17 106.794 203.387 106.794H206.523C206.739 106.794 206.915 106.618 206.915 106.401V104.779C206.915 104.562 206.739 104.386 206.523 104.386Z" fill="#4E4E4E"/>
</g>
<g style="mix-blend-mode:multiply" opacity="0.33">
<path d="M195.547 104.386H192.411C192.194 104.386 192.018 104.562 192.018 104.779V106.401C192.018 106.618 192.194 106.794 192.411 106.794H195.547C195.763 106.794 195.939 106.618 195.939 106.401V104.779C195.939 104.562 195.763 104.386 195.547 104.386Z" fill="#4E4E4E"/>
</g>
<g style="mix-blend-mode:multiply" opacity="0.33">
<path d="M136.953 93.4575H124.551C124.334 93.4575 124.159 93.6336 124.159 93.8507V98.5687C124.159 98.7859 124.334 98.962 124.551 98.962H136.953C137.17 98.962 137.346 98.7859 137.346 98.5687V93.8507C137.346 93.6336 137.17 93.4575 136.953 93.4575Z" fill="#4E4E4E"/>
</g>
<g style="mix-blend-mode:multiply" opacity="0.33">
<path d="M145.506 93.4575H140.802C140.586 93.4575 140.41 93.6336 140.41 93.8507V98.5687C140.41 98.7859 140.586 98.962 140.802 98.962H145.506C145.723 98.962 145.899 98.7859 145.899 98.5687V93.8507C145.899 93.6336 145.723 93.4575 145.506 93.4575Z" fill="#4E4E4E"/>
</g>
<g style="mix-blend-mode:multiply" opacity="0.33">
<path d="M153.989 93.4575H149.285C149.069 93.4575 148.893 93.6336 148.893 93.8507V98.5687C148.893 98.7859 149.069 98.962 149.285 98.962H153.989C154.206 98.962 154.381 98.7859 154.381 98.5687V93.8507C154.381 93.6336 154.206 93.4575 153.989 93.4575Z" fill="#4E4E4E"/>
</g>
<g style="mix-blend-mode:multiply" opacity="0.33">
<path d="M162.471 93.4575H157.767C157.551 93.4575 157.375 93.6336 157.375 93.8507V98.5687C157.375 98.7859 157.551 98.962 157.767 98.962H162.471C162.688 98.962 162.863 98.7859 162.863 98.5687V93.8507C162.863 93.6336 162.688 93.4575 162.471 93.4575Z" fill="#4E4E4E"/>
</g>
<g style="mix-blend-mode:multiply" opacity="0.33">
<path d="M170.954 93.4575H166.249C166.033 93.4575 165.858 93.6336 165.858 93.8507V98.5687C165.858 98.7859 166.033 98.962 166.249 98.962H170.954C171.17 98.962 171.346 98.7859 171.346 98.5687V93.8507C171.346 93.6336 171.17 93.4575 170.954 93.4575Z" fill="#4E4E4E"/>
</g>
<g style="mix-blend-mode:multiply" opacity="0.33">
<path d="M179.436 93.4575H174.732C174.516 93.4575 174.34 93.6336 174.34 93.8507V98.5687C174.34 98.7859 174.516 98.962 174.732 98.962H179.436C179.653 98.962 179.828 98.7859 179.828 98.5687V93.8507C179.828 93.6336 179.653 93.4575 179.436 93.4575Z" fill="#4E4E4E"/>
</g>
<g style="mix-blend-mode:multiply" opacity="0.33">
<path d="M187.919 93.4575H183.215C182.998 93.4575 182.823 93.6336 182.823 93.8507V98.5687C182.823 98.7859 182.998 98.962 183.215 98.962H187.919C188.136 98.962 188.311 98.7859 188.311 98.5687V93.8507C188.311 93.6336 188.136 93.4575 187.919 93.4575Z" fill="#4E4E4E"/>
</g>
<g style="mix-blend-mode:multiply" opacity="0.33">
<path d="M206.523 93.4575H192.411C192.194 93.4575 192.018 93.6336 192.018 93.8507V98.5687C192.018 98.7859 192.194 98.962 192.411 98.962H206.523C206.739 98.962 206.915 98.7859 206.915 98.5687V93.8507C206.915 93.6336 206.739 93.4575 206.523 93.4575Z" fill="#4E4E4E"/>
</g>
<g style="mix-blend-mode:multiply" opacity="0.33">
<path d="M142.442 85.4055H137.738C137.521 85.4055 137.346 85.5814 137.346 85.7986V90.5168C137.346 90.734 137.521 90.9099 137.738 90.9099H142.442C142.658 90.9099 142.834 90.734 142.834 90.5168V85.7986C142.834 85.5814 142.658 85.4055 142.442 85.4055Z" fill="#4E4E4E"/>
</g>
<g style="mix-blend-mode:multiply" opacity="0.33">
<path d="M133.959 85.4055H124.551C124.334 85.4055 124.159 85.5814 124.159 85.7986V90.5168C124.159 90.734 124.334 90.9099 124.551 90.9099H133.959C134.175 90.9099 134.351 90.734 134.351 90.5168V85.7986C134.351 85.5814 134.175 85.4055 133.959 85.4055Z" fill="#4E4E4E"/>
</g>
<g style="mix-blend-mode:multiply" opacity="0.33">
<path d="M150.924 85.4055H146.22C146.004 85.4055 145.828 85.5814 145.828 85.7986V90.5168C145.828 90.734 146.004 90.9099 146.22 90.9099H150.924C151.141 90.9099 151.316 90.734 151.316 90.5168V85.7986C151.316 85.5814 151.141 85.4055 150.924 85.4055Z" fill="#4E4E4E"/>
</g>
<g style="mix-blend-mode:multiply" opacity="0.33">
<path d="M159.407 85.4055H154.703C154.486 85.4055 154.311 85.5814 154.311 85.7986V90.5168C154.311 90.734 154.486 90.9099 154.703 90.9099H159.407C159.623 90.9099 159.799 90.734 159.799 90.5168V85.7986C159.799 85.5814 159.623 85.4055 159.407 85.4055Z" fill="#4E4E4E"/>
</g>
<g style="mix-blend-mode:multiply" opacity="0.33">
<path d="M167.889 85.4055H163.185C162.968 85.4055 162.793 85.5814 162.793 85.7986V90.5168C162.793 90.734 162.968 90.9099 163.185 90.9099H167.889C168.106 90.9099 168.281 90.734 168.281 90.5168V85.7986C168.281 85.5814 168.106 85.4055 167.889 85.4055Z" fill="#4E4E4E"/>
</g>
<g style="mix-blend-mode:multiply" opacity="0.33">
<path d="M176.371 85.4055H171.667C171.451 85.4055 171.275 85.5814 171.275 85.7986V90.5168C171.275 90.734 171.451 90.9099 171.667 90.9099H176.371C176.588 90.9099 176.763 90.734 176.763 90.5168V85.7986C176.763 85.5814 176.588 85.4055 176.371 85.4055Z" fill="#4E4E4E"/>
</g>
<g style="mix-blend-mode:multiply" opacity="0.33">
<path d="M184.854 85.4055H180.15C179.934 85.4055 179.758 85.5814 179.758 85.7986V90.5168C179.758 90.734 179.934 90.9099 180.15 90.9099H184.854C185.071 90.9099 185.246 90.734 185.246 90.5168V85.7986C185.246 85.5814 185.071 85.4055 184.854 85.4055Z" fill="#4E4E4E"/>
</g>
<g style="mix-blend-mode:multiply" opacity="0.33">
<path d="M193.336 85.4055H188.632C188.416 85.4055 188.24 85.5814 188.24 85.7986V90.5168C188.24 90.734 188.416 90.9099 188.632 90.9099H193.336C193.553 90.9099 193.728 90.734 193.728 90.5168V85.7986C193.728 85.5814 193.553 85.4055 193.336 85.4055Z" fill="#4E4E4E"/>
</g>
<g style="mix-blend-mode:multiply" opacity="0.33">
<path d="M206.523 85.4055H197.114C196.898 85.4055 196.722 85.5814 196.722 85.7986V90.5168C196.722 90.734 196.898 90.9099 197.114 90.9099H206.523C206.739 90.9099 206.915 90.734 206.915 90.5168V85.7986C206.915 85.5814 206.739 85.4055 206.523 85.4055Z" fill="#4E4E4E"/>
</g>
<g style="mix-blend-mode:multiply" opacity="0.33">
<path d="M137.841 77.6994H133.137C132.92 77.6994 132.745 77.8755 132.745 78.0927V82.8107C132.745 83.0279 132.92 83.204 133.137 83.204H137.841C138.057 83.204 138.233 83.0279 138.233 82.8107V78.0927C138.233 77.8755 138.057 77.6994 137.841 77.6994Z" fill="#4E4E4E"/>
</g>
<g style="mix-blend-mode:multiply" opacity="0.33">
<path d="M129.255 77.6994H124.551C124.334 77.6994 124.159 77.8755 124.159 78.0927V82.8107C124.159 83.0279 124.334 83.204 124.551 83.204H129.255C129.471 83.204 129.647 83.0279 129.647 82.8107V78.0927C129.647 77.8755 129.471 77.6994 129.255 77.6994Z" fill="#4E4E4E"/>
</g>
<g style="mix-blend-mode:multiply" opacity="0.33">
<path d="M146.426 77.6994H141.722C141.505 77.6994 141.33 77.8755 141.33 78.0927V82.8107C141.33 83.0279 141.505 83.204 141.722 83.204H146.426C146.642 83.204 146.818 83.0279 146.818 82.8107V78.0927C146.818 77.8755 146.642 77.6994 146.426 77.6994Z" fill="#4E4E4E"/>
</g>
<g style="mix-blend-mode:multiply" opacity="0.33">
<path d="M155.011 77.6994H150.306C150.09 77.6994 149.915 77.8755 149.915 78.0927V82.8107C149.915 83.0279 150.09 83.204 150.306 83.204H155.011C155.227 83.204 155.403 83.0279 155.403 82.8107V78.0927C155.403 77.8755 155.227 77.6994 155.011 77.6994Z" fill="#4E4E4E"/>
</g>
<g style="mix-blend-mode:multiply" opacity="0.33">
<path d="M163.596 77.6994H158.892C158.676 77.6994 158.5 77.8755 158.5 78.0927V82.8107C158.5 83.0279 158.676 83.204 158.892 83.204H163.596C163.813 83.204 163.988 83.0279 163.988 82.8107V78.0927C163.988 77.8755 163.813 77.6994 163.596 77.6994Z" fill="#4E4E4E"/>
</g>
<g style="mix-blend-mode:multiply" opacity="0.33">
<path d="M172.181 77.6994H167.477C167.261 77.6994 167.085 77.8755 167.085 78.0927V82.8107C167.085 83.0279 167.261 83.204 167.477 83.204H172.181C172.398 83.204 172.573 83.0279 172.573 82.8107V78.0927C172.573 77.8755 172.398 77.6994 172.181 77.6994Z" fill="#4E4E4E"/>
</g>
<g style="mix-blend-mode:multiply" opacity="0.33">
<path d="M180.767 77.6994H176.063C175.847 77.6994 175.671 77.8755 175.671 78.0927V82.8107C175.671 83.0279 175.847 83.204 176.063 83.204H180.767C180.984 83.204 181.159 83.0279 181.159 82.8107V78.0927C181.159 77.8755 180.984 77.6994 180.767 77.6994Z" fill="#4E4E4E"/>
</g>
<g style="mix-blend-mode:multiply" opacity="0.33">
<path d="M189.352 77.6994H184.648C184.432 77.6994 184.256 77.8755 184.256 78.0927V82.8107C184.256 83.0279 184.432 83.204 184.648 83.204H189.352C189.569 83.204 189.744 83.0279 189.744 82.8107V78.0927C189.744 77.8755 189.569 77.6994 189.352 77.6994Z" fill="#4E4E4E"/>
</g>
<g style="mix-blend-mode:multiply" opacity="0.33">
<path d="M197.937 77.6994H193.233C193.017 77.6994 192.841 77.8755 192.841 78.0927V82.8107C192.841 83.0279 193.017 83.204 193.233 83.204H197.937C198.154 83.204 198.329 83.0279 198.329 82.8107V78.0927C198.329 77.8755 198.154 77.6994 197.937 77.6994Z" fill="#4E4E4E"/>
</g>
<g style="mix-blend-mode:multiply" opacity="0.33">
<path d="M206.523 77.6994H201.819C201.603 77.6994 201.427 77.8755 201.427 78.0927V82.8107C201.427 83.0279 201.603 83.204 201.819 83.204H206.523C206.74 83.204 206.915 83.0279 206.915 82.8107V78.0927C206.915 77.8755 206.74 77.6994 206.523 77.6994Z" fill="#4E4E4E"/>
</g>
<g style="mix-blend-mode:multiply" opacity="0.33">
<path d="M132.216 65.1551H198.857V70.442C198.857 70.8589 198.692 71.259 198.398 71.5539C198.104 71.8489 197.705 72.0147 197.289 72.0147H133.784C133.368 72.0147 132.969 71.8489 132.675 71.5539C132.381 71.259 132.216 70.8589 132.216 70.442V65.1551Z" fill="#4E4E4E"/>
</g>
<g style="mix-blend-mode:multiply" opacity="0.25">
<path d="M197.289 70.4412H133.784C133.368 70.4412 132.969 70.2755 132.675 69.9807C132.381 69.6856 132.216 69.2857 132.216 68.8686V70.4412C132.216 70.8584 132.381 71.2585 132.675 71.5534C132.969 71.8482 133.368 72.0139 133.784 72.0139H197.289C197.705 72.0139 198.104 71.8482 198.398 71.5534C198.692 71.2585 198.857 70.8584 198.857 70.4412V68.8686C198.857 69.2857 198.692 69.6856 198.398 69.9807C198.104 70.2755 197.705 70.4412 197.289 70.4412Z" fill="#4E4E4E"/>
</g>
<g style="mix-blend-mode:multiply" opacity="0.33">
<path d="M132.216 65.1551H198.857V70.442C198.857 70.8589 198.692 71.259 198.398 71.5539C198.104 71.8489 197.705 72.0147 197.289 72.0147H133.784C133.368 72.0147 132.969 71.8489 132.675 71.5539C132.381 71.259 132.216 70.8589 132.216 70.442V65.1551Z" fill="#4E4E4E"/>
<path d="M132.216 65.1551H198.857V70.442C198.857 70.8589 198.692 71.259 198.398 71.5539C198.104 71.8489 197.705 72.0147 197.289 72.0147H133.784C133.368 72.0147 132.969 71.8489 132.675 71.5539C132.381 71.259 132.216 70.8589 132.216 70.442V65.1551Z" stroke="#46505C" stroke-linecap="round" stroke-linejoin="round"/>
</g>
<g style="mix-blend-mode:multiply" opacity="0.33">
<path d="M179.257 112.103H151.817C151.384 112.103 151.033 112.455 151.033 112.889V131.369C151.033 131.803 151.384 132.155 151.817 132.155H179.257C179.69 132.155 180.041 131.803 180.041 131.369V112.889C180.041 112.455 179.69 112.103 179.257 112.103Z" fill="#4E4E4E"/>
</g>
<g style="mix-blend-mode:multiply" opacity="0.33">
<path d="M179.257 112.103H151.817C151.384 112.103 151.033 112.455 151.033 112.889V131.369C151.033 131.803 151.384 132.155 151.817 132.155H179.257C179.69 132.155 180.041 131.803 180.041 131.369V112.889C180.041 112.455 179.69 112.103 179.257 112.103Z" fill="#4E4E4E"/>
<path d="M179.257 112.103H151.817C151.384 112.103 151.033 112.455 151.033 112.889V131.369C151.033 131.803 151.384 132.155 151.817 132.155H179.257C179.69 132.155 180.041 131.803 180.041 131.369V112.889C180.041 112.455 179.69 112.103 179.257 112.103Z" stroke="#626C84" stroke-linecap="round" stroke-linejoin="round"/>
</g>
</g>
<path d="M207.893 0.502264H116.947C113.916 0.502264 111.459 2.96679 111.459 6.00685V59.4796C111.459 62.5196 113.916 64.9841 116.947 64.9841H207.893C210.923 64.9841 213.381 62.5196 213.381 59.4796V6.00685C213.381 2.96679 210.923 0.502264 207.893 0.502264Z" stroke="black" stroke-linecap="round" stroke-linejoin="round"/>
<path d="M207.893 0.502264H116.947C113.916 0.502264 111.459 2.96679 111.459 6.00685V59.4796C111.459 62.5196 113.916 64.9841 116.947 64.9841H207.893C210.923 64.9841 213.381 62.5196 213.381 59.4796V6.00685C213.381 2.96679 210.923 0.502264 207.893 0.502264Z" fill="#626C84"/>
<path d="M207.893 0.502264H116.947C113.916 0.502264 111.459 2.96679 111.459 6.00685V59.4796C111.459 62.5196 113.916 64.9841 116.947 64.9841H207.893C210.923 64.9841 213.381 62.5196 213.381 59.4796V6.00685C213.381 2.96679 210.923 0.502264 207.893 0.502264Z" fill="black"/>
<g style="mix-blend-mode:multiply" opacity="0.17">
<path d="M207.893 0.502264H116.947C113.916 0.502264 111.459 2.96679 111.459 6.00685V55.9473C111.459 58.9873 113.916 61.4519 116.947 61.4519H207.893C210.923 61.4519 213.381 58.9873 213.381 55.9473V6.00685C213.381 2.96679 210.923 0.502264 207.893 0.502264Z" fill="black"/>
</g>
<path opacity="0.1" d="M116.947 2.07346H207.893C209.348 2.07346 210.744 2.65324 211.773 3.68556C212.802 4.71787 213.381 6.11798 213.381 7.57805V59.4778V6.00514C213.381 4.54531 212.802 3.14521 211.773 2.11289C210.744 1.08057 209.348 0.500793 207.893 0.500793H116.947C115.491 0.500793 114.096 1.08057 113.066 2.11289C112.037 3.14521 111.459 4.54531 111.459 6.00514V7.57805C111.459 6.11798 112.037 4.71787 113.066 3.68556C114.096 2.65324 115.491 2.07346 116.947 2.07346Z" fill="white"/>
<g opacity="0.1">
<path opacity="0.1" d="M142.516 64.9841H148.815L195.524 0.502264H189.225L142.516 64.9841Z" fill="white"/>
<path opacity="0.1" d="M152.449 64.9841H154.387L201.096 0.502264H199.158L152.449 64.9841Z" fill="white"/>
</g>
<path d="M207.893 0.502264H116.947C113.916 0.502264 111.459 2.96679 111.459 6.00685V59.4796C111.459 62.5196 113.916 64.9841 116.947 64.9841H207.893C210.923 64.9841 213.381 62.5196 213.381 59.4796V6.00685C213.381 2.96679 210.923 0.502264 207.893 0.502264Z" stroke="black" stroke-linecap="round" stroke-linejoin="round"/>
<path d="M206.324 57.3087V7.76793H118.515V57.3087H206.324Z" fill="#2C9ACB"/>
<g opacity="0.06">
<path opacity="0.06" d="M148.468 57.3087H154.768L190.653 7.76793H184.354L148.468 57.3087Z" fill="white"/>
<path opacity="0.06" d="M158.401 57.3087H160.34L196.226 7.76793H194.288L158.401 57.3087Z" fill="white"/>
</g>
<path d="M206.324 57.3087V7.76793H118.515V57.3087H206.324Z" stroke="#46505C" stroke-linecap="round" stroke-linejoin="round"/>
<path d="M207.893 64.9839H116.947C113.916 64.9839 111.459 67.4484 111.459 70.4885V127.107C111.459 130.147 113.916 132.611 116.947 132.611H207.893C210.923 132.611 213.381 130.147 213.381 127.107V70.4885C213.381 67.4484 210.923 64.9839 207.893 64.9839Z" fill="#E6F3FF"/>
<path d="M211.813 127.107V70.4886C211.813 68.3172 210.058 66.5569 207.893 66.5569H116.947C114.782 66.5569 113.027 68.3172 113.027 70.4886V127.107C113.027 129.278 114.782 131.039 116.947 131.039H207.893C210.058 131.039 211.813 129.278 211.813 127.107Z" fill="#CFD1D0" stroke="#E6F3FF" stroke-miterlimit="10"/>
<path d="M156.128 129.537H168.711C169.127 129.537 169.526 129.702 169.82 129.997C170.114 130.292 170.279 130.692 170.279 131.109V132.611H154.56V131.109C154.56 130.692 154.725 130.292 155.019 129.997C155.313 129.702 155.712 129.537 156.128 129.537Z" fill="#E6F3FF"/>
<path d="M207.893 64.9839H116.947C113.916 64.9839 111.459 67.4484 111.459 70.4885V127.107C111.459 130.147 113.916 132.611 116.947 132.611H207.893C210.923 132.611 213.381 130.147 213.381 127.107V70.4885C213.381 67.4484 210.923 64.9839 207.893 64.9839Z" stroke="#46505C" stroke-linecap="round" stroke-linejoin="round"/>
<path d="M206.325 70.2601H118.515C117.866 70.2601 117.339 70.7882 117.339 71.4397V105.253C117.339 105.905 117.866 106.433 118.515 106.433H206.325C206.974 106.433 207.501 105.905 207.501 105.253V71.4397C207.501 70.7882 206.974 70.2601 206.325 70.2601Z" fill="#E6F3FF"/>
<path d="M134.621 97.5859H129.916C129.7 97.5859 129.524 97.762 129.524 97.9792V102.697C129.524 102.914 129.7 103.091 129.916 103.091H134.621C134.837 103.091 135.012 102.914 135.012 102.697V97.9792C135.012 97.762 134.837 97.5859 134.621 97.5859Z" fill="#626C84"/>
<path d="M126.138 97.5859H121.434C121.217 97.5859 121.042 97.762 121.042 97.9792V102.697C121.042 102.914 121.217 103.091 121.434 103.091H126.138C126.355 103.091 126.53 102.914 126.53 102.697V97.9792C126.53 97.762 126.355 97.5859 126.138 97.5859Z" fill="#626C84"/>
<path d="M177.033 97.5859H138.399C138.183 97.5859 138.007 97.762 138.007 97.9792V102.697C138.007 102.914 138.183 103.091 138.399 103.091H177.033C177.25 103.091 177.425 102.914 177.425 102.697V97.9792C177.425 97.762 177.25 97.5859 177.033 97.5859Z" fill="#626C84"/>
<path d="M185.515 97.5859H180.811C180.595 97.5859 180.419 97.762 180.419 97.9792V102.697C180.419 102.914 180.595 103.091 180.811 103.091H185.515C185.732 103.091 185.907 102.914 185.907 102.697V97.9792C185.907 97.762 185.732 97.5859 185.515 97.5859Z" fill="#626C84"/>
<path d="M197.918 100.682H194.782C194.565 100.682 194.39 100.859 194.39 101.076V102.697C194.39 102.915 194.565 103.091 194.782 103.091H197.918C198.134 103.091 198.31 102.915 198.31 102.697V101.076C198.31 100.859 198.134 100.682 197.918 100.682Z" fill="#626C84"/>
<path d="M197.918 97.5859H194.782C194.565 97.5859 194.39 97.762 194.39 97.9792V99.601C194.39 99.8182 194.565 99.9943 194.782 99.9943H197.918C198.134 99.9943 198.31 99.8182 198.31 99.601V97.9792C198.31 97.762 198.134 97.5859 197.918 97.5859Z" fill="#626C84"/>
<path d="M203.406 100.682H200.27C200.054 100.682 199.878 100.859 199.878 101.076V102.697C199.878 102.915 200.054 103.091 200.27 103.091H203.406C203.623 103.091 203.798 102.915 203.798 102.697V101.076C203.798 100.859 203.623 100.682 203.406 100.682Z" fill="#626C84"/>
<path d="M192.43 100.682H189.294C189.078 100.682 188.902 100.859 188.902 101.076V102.697C188.902 102.915 189.078 103.091 189.294 103.091H192.43C192.647 103.091 192.822 102.915 192.822 102.697V101.076C192.822 100.859 192.647 100.682 192.43 100.682Z" fill="#626C84"/>
<path d="M133.837 89.7542H121.434C121.217 89.7542 121.042 89.9303 121.042 90.1475V94.8658C121.042 95.083 121.217 95.2588 121.434 95.2588H133.837C134.053 95.2588 134.229 95.083 134.229 94.8658V90.1475C134.229 89.9303 134.053 89.7542 133.837 89.7542Z" fill="#626C84"/>
<path d="M142.39 89.7542H137.686C137.469 89.7542 137.294 89.9303 137.294 90.1475V94.8658C137.294 95.083 137.469 95.2588 137.686 95.2588H142.39C142.606 95.2588 142.782 95.083 142.782 94.8658V90.1475C142.782 89.9303 142.606 89.7542 142.39 89.7542Z" fill="#626C84"/>
<path d="M150.872 89.7542H146.168C145.952 89.7542 145.776 89.9303 145.776 90.1475V94.8658C145.776 95.083 145.952 95.2588 146.168 95.2588H150.872C151.088 95.2588 151.264 95.083 151.264 94.8658V90.1475C151.264 89.9303 151.088 89.7542 150.872 89.7542Z" fill="#626C84"/>
<path d="M159.355 89.7542H154.651C154.435 89.7542 154.259 89.9303 154.259 90.1475V94.8658C154.259 95.083 154.435 95.2588 154.651 95.2588H159.355C159.572 95.2588 159.747 95.083 159.747 94.8658V90.1475C159.747 89.9303 159.572 89.7542 159.355 89.7542Z" fill="#626C84"/>
<path d="M167.837 89.7542H163.133C162.916 89.7542 162.741 89.9303 162.741 90.1475V94.8658C162.741 95.083 162.916 95.2588 163.133 95.2588H167.837C168.053 95.2588 168.229 95.083 168.229 94.8658V90.1475C168.229 89.9303 168.053 89.7542 167.837 89.7542Z" fill="#626C84"/>
<path d="M176.32 89.7542H171.616C171.4 89.7542 171.224 89.9303 171.224 90.1475V94.8658C171.224 95.083 171.4 95.2588 171.616 95.2588H176.32C176.537 95.2588 176.712 95.083 176.712 94.8658V90.1475C176.712 89.9303 176.537 89.7542 176.32 89.7542Z" fill="#626C84"/>
<path d="M184.802 89.7542H180.098C179.882 89.7542 179.706 89.9303 179.706 90.1475V94.8658C179.706 95.083 179.882 95.2588 180.098 95.2588H184.802C185.019 95.2588 185.194 95.083 185.194 94.8658V90.1475C185.194 89.9303 185.019 89.7542 184.802 89.7542Z" fill="#626C84"/>
<path d="M203.406 89.7542H189.294C189.078 89.7542 188.902 89.9303 188.902 90.1475V94.8658C188.902 95.083 189.078 95.2588 189.294 95.2588H203.406C203.623 95.2588 203.798 95.083 203.798 94.8658V90.1475C203.798 89.9303 203.623 89.7542 203.406 89.7542Z" fill="#626C84"/>
<path d="M139.325 81.7018H134.62C134.404 81.7018 134.228 81.8779 134.228 82.0951V86.8131C134.228 87.0303 134.404 87.2064 134.62 87.2064H139.325C139.541 87.2064 139.716 87.0303 139.716 86.8131V82.0951C139.716 81.8779 139.541 81.7018 139.325 81.7018Z" fill="#626C84"/>
<path d="M130.842 81.7018H121.434C121.217 81.7018 121.042 81.8779 121.042 82.0951V86.8131C121.042 87.0303 121.217 87.2064 121.434 87.2064H130.842C131.059 87.2064 131.234 87.0303 131.234 86.8131V82.0951C131.234 81.8779 131.059 81.7018 130.842 81.7018Z" fill="#626C84"/>
<path d="M147.807 81.7018H143.103C142.887 81.7018 142.711 81.8779 142.711 82.0951V86.8131C142.711 87.0303 142.887 87.2064 143.103 87.2064H147.807C148.024 87.2064 148.199 87.0303 148.199 86.8131V82.0951C148.199 81.8779 148.024 81.7018 147.807 81.7018Z" fill="#626C84"/>
<path d="M156.289 81.7018H151.585C151.368 81.7018 151.193 81.8779 151.193 82.0951V86.8131C151.193 87.0303 151.368 87.2064 151.585 87.2064H156.289C156.505 87.2064 156.681 87.0303 156.681 86.8131V82.0951C156.681 81.8779 156.505 81.7018 156.289 81.7018Z" fill="#626C84"/>
<path d="M164.772 81.7018H160.068C159.852 81.7018 159.676 81.8779 159.676 82.0951V86.8131C159.676 87.0303 159.852 87.2064 160.068 87.2064H164.772C164.989 87.2064 165.164 87.0303 165.164 86.8131V82.0951C165.164 81.8779 164.989 81.7018 164.772 81.7018Z" fill="#626C84"/>
<path d="M173.255 81.7018H168.551C168.334 81.7018 168.158 81.8779 168.158 82.0951V86.8131C168.158 87.0303 168.334 87.2064 168.551 87.2064H173.255C173.471 87.2064 173.647 87.0303 173.647 86.8131V82.0951C173.647 81.8779 173.471 81.7018 173.255 81.7018Z" fill="#626C84"/>
<path d="M181.737 81.7018H177.033C176.816 81.7018 176.641 81.8779 176.641 82.0951V86.8131C176.641 87.0303 176.816 87.2064 177.033 87.2064H181.737C181.953 87.2064 182.129 87.0303 182.129 86.8131V82.0951C182.129 81.8779 181.953 81.7018 181.737 81.7018Z" fill="#626C84"/>
<path d="M190.22 81.7018H185.515C185.299 81.7018 185.123 81.8779 185.123 82.0951V86.8131C185.123 87.0303 185.299 87.2064 185.515 87.2064H190.22C190.436 87.2064 190.612 87.0303 190.612 86.8131V82.0951C190.612 81.8779 190.436 81.7018 190.22 81.7018Z" fill="#626C84"/>
<path d="M203.406 81.7018H193.998C193.781 81.7018 193.605 81.8779 193.605 82.0951V86.8131C193.605 87.0303 193.781 87.2064 193.998 87.2064H203.406C203.622 87.2064 203.798 87.0303 203.798 86.8131V82.0951C203.798 81.8779 203.622 81.7018 203.406 81.7018Z" fill="#626C84"/>
<path d="M134.724 73.9952H130.019C129.803 73.9952 129.628 74.1711 129.628 74.3883V79.1065C129.628 79.3237 129.803 79.4996 130.019 79.4996H134.724C134.94 79.4996 135.116 79.3237 135.116 79.1065V74.3883C135.116 74.1711 134.94 73.9952 134.724 73.9952Z" fill="#626C84"/>
<path d="M126.138 73.9952H121.434C121.217 73.9952 121.042 74.1711 121.042 74.3883V79.1065C121.042 79.3237 121.217 79.4996 121.434 79.4996H126.138C126.355 79.4996 126.53 79.3237 126.53 79.1065V74.3883C126.53 74.1711 126.355 73.9952 126.138 73.9952Z" fill="#626C84"/>
<path d="M143.309 73.9952H138.605C138.388 73.9952 138.213 74.1711 138.213 74.3883V79.1065C138.213 79.3237 138.388 79.4996 138.605 79.4996H143.309C143.525 79.4996 143.701 79.3237 143.701 79.1065V74.3883C143.701 74.1711 143.525 73.9952 143.309 73.9952Z" fill="#626C84"/>
<path d="M151.894 73.9952H147.19C146.973 73.9952 146.798 74.1711 146.798 74.3883V79.1065C146.798 79.3237 146.973 79.4996 147.19 79.4996H151.894C152.111 79.4996 152.286 79.3237 152.286 79.1065V74.3883C152.286 74.1711 152.111 73.9952 151.894 73.9952Z" fill="#626C84"/>
<path d="M160.479 73.9952H155.775C155.558 73.9952 155.383 74.1711 155.383 74.3883V79.1065C155.383 79.3237 155.558 79.4996 155.775 79.4996H160.479C160.695 79.4996 160.871 79.3237 160.871 79.1065V74.3883C160.871 74.1711 160.695 73.9952 160.479 73.9952Z" fill="#626C84"/>
<path d="M169.065 73.9952H164.361C164.144 73.9952 163.968 74.1711 163.968 74.3883V79.1065C163.968 79.3237 164.144 79.4996 164.361 79.4996H169.065C169.281 79.4996 169.457 79.3237 169.457 79.1065V74.3883C169.457 74.1711 169.281 73.9952 169.065 73.9952Z" fill="#626C84"/>
<path d="M177.65 73.9952H172.946C172.729 73.9952 172.554 74.1711 172.554 74.3883V79.1065C172.554 79.3237 172.729 79.4996 172.946 79.4996H177.65C177.866 79.4996 178.042 79.3237 178.042 79.1065V74.3883C178.042 74.1711 177.866 73.9952 177.65 73.9952Z" fill="#626C84"/>
<path d="M186.236 73.9952H181.531C181.315 73.9952 181.139 74.1711 181.139 74.3883V79.1065C181.139 79.3237 181.315 79.4996 181.531 79.4996H186.236C186.452 79.4996 186.628 79.3237 186.628 79.1065V74.3883C186.628 74.1711 186.452 73.9952 186.236 73.9952Z" fill="#626C84"/>
<path d="M194.82 73.9952H190.116C189.9 73.9952 189.724 74.1711 189.724 74.3883V79.1065C189.724 79.3237 189.9 79.4996 190.116 79.4996H194.82C195.037 79.4996 195.212 79.3237 195.212 79.1065V74.3883C195.212 74.1711 195.037 73.9952 194.82 73.9952Z" fill="#626C84"/>
<path d="M203.405 73.9952H198.701C198.485 73.9952 198.309 74.1711 198.309 74.3883V79.1065C198.309 79.3237 198.485 79.4996 198.701 79.4996H203.405C203.622 79.4996 203.798 79.3237 203.798 79.1065V74.3883C203.798 74.1711 203.622 73.9952 203.405 73.9952Z" fill="#626C84"/>
<path d="M129.099 61.4518H195.741V66.7385C195.741 67.1557 195.575 67.5556 195.281 67.8506C194.987 68.1455 194.588 68.3112 194.172 68.3112H130.667C130.252 68.3112 129.853 68.1455 129.559 67.8506C129.265 67.5556 129.099 67.1557 129.099 66.7385V61.4518Z" fill="#626C84"/>
<path opacity="0.12" d="M195.741 61.4518H129.099V62.2382H195.741V61.4518Z" fill="white"/>
<g style="mix-blend-mode:multiply" opacity="0.25">
<path d="M194.172 66.7383H130.667C130.252 66.7383 129.853 66.5725 129.559 66.2775C129.265 65.9826 129.099 65.5825 129.099 65.1654V66.7383C129.099 67.1552 129.265 67.5553 129.559 67.8501C129.853 68.1452 130.252 68.3109 130.667 68.3109H194.172C194.588 68.3109 194.987 68.1452 195.281 67.8501C195.575 67.5553 195.741 67.1552 195.741 66.7383V65.1654C195.741 65.5825 195.575 65.9826 195.281 66.2775C194.987 66.5725 194.588 66.7383 194.172 66.7383Z" fill="#626C84"/>
</g>
<path d="M129.099 61.4518H195.741V66.7385C195.741 67.1557 195.575 67.5556 195.281 67.8506C194.987 68.1455 194.588 68.3112 194.172 68.3112H130.667C130.252 68.3112 129.853 68.1455 129.559 67.8506C129.265 67.5556 129.099 67.1557 129.099 66.7385V61.4518Z" stroke="#46505C" stroke-linecap="round" stroke-linejoin="round"/>
<path d="M176.14 108.399H148.7C148.267 108.399 147.916 108.751 147.916 109.185V127.665C147.916 128.099 148.267 128.451 148.7 128.451H176.14C176.573 128.451 176.924 128.099 176.924 127.665V109.185C176.924 108.751 176.573 108.399 176.14 108.399Z" fill="#E6F3FF"/>
<path d="M176.14 108.399H148.7C148.267 108.399 147.916 108.751 147.916 109.185V127.665C147.916 128.099 148.267 128.451 148.7 128.451H176.14C176.573 128.451 176.924 128.099 176.924 127.665V109.185C176.924 108.751 176.573 108.399 176.14 108.399Z" stroke="#626C84" stroke-linecap="round" stroke-linejoin="round"/>
<path opacity="0.52" d="M162.42 5.6713C163.069 5.6713 163.596 5.14322 163.596 4.49168C163.596 3.84038 163.069 3.3123 162.42 3.3123C161.771 3.3123 161.244 3.84038 161.244 4.49168C161.244 5.14322 161.771 5.6713 162.42 5.6713Z" fill="white"/>
<path d="M162.42 5.6713C163.069 5.6713 163.596 5.14322 163.596 4.49168C163.596 3.84038 163.069 3.3123 162.42 3.3123C161.771 3.3123 161.244 3.84038 161.244 4.49168C161.244 5.14322 161.771 5.6713 162.42 5.6713Z" stroke="#46505C" stroke-width="1.66667" stroke-linecap="round" stroke-linejoin="round"/>
<path d="M186.865 12.7793H182.161C181.945 12.7793 181.769 12.9554 181.769 13.1726C181.769 13.3898 181.945 13.5656 182.161 13.5656H186.865C187.082 13.5656 187.257 13.3898 187.257 13.1726C187.257 12.9554 187.082 12.7793 186.865 12.7793Z" fill="white"/>
<path d="M197.047 12.7793H192.343C192.127 12.7793 191.952 12.9554 191.952 13.1726C191.952 13.3898 192.127 13.5656 192.343 13.5656H197.047C197.264 13.5656 197.44 13.3898 197.44 13.1726C197.44 12.9554 197.264 12.7793 197.047 12.7793Z" fill="white"/>
<path d="M176.684 12.7793H171.98C171.763 12.7793 171.588 12.9554 171.588 13.1726C171.588 13.3898 171.763 13.5656 171.98 13.5656H176.684C176.9 13.5656 177.076 13.3898 177.076 13.1726C177.076 12.9554 176.9 12.7793 176.684 12.7793Z" fill="white"/>
<path d="M126.055 15.2791C127.102 15.2791 127.951 14.4276 127.951 13.3773C127.951 12.3271 127.102 11.4756 126.055 11.4756C125.008 11.4756 124.159 12.3271 124.159 13.3773C124.159 14.4276 125.008 15.2791 126.055 15.2791Z" fill="white"/>
<g opacity="0.72">
<path opacity="0.72" d="M182.238 34.2001H142.554V35.6332H182.238V34.2001Z" fill="white"/>
<path opacity="0.72" d="M177.22 29.4438H147.573V30.8977H177.22V29.4438Z" fill="white"/>
</g>
<path d="M169.243 45.3411H157.949C156.762 45.3411 155.8 46.3059 155.8 47.4962C155.8 48.6862 156.762 49.6512 157.949 49.6512H169.243C170.429 49.6512 171.391 48.6862 171.391 47.4962C171.391 46.3059 170.429 45.3411 169.243 45.3411Z" stroke="white" stroke-width="1.66667" stroke-miterlimit="10"/>
<path d="M93.442 88.0857C93.2029 88.4214 92.9197 88.7541 92.715 89.1098C89.9771 93.8695 87.2391 98.6291 84.275 103.303C84.2646 103.161 84.2002 103.034 84.2512 102.905C85.3231 98.2867 84.254 94.0763 81.8013 90.0353C77.0098 82.1547 72.2744 74.2163 67.5196 66.3118C67.438 66.1742 67.3833 66.0296 67.2695 65.8281C74.0216 61.8362 80.7369 57.8681 87.4889 53.8762C88.3889 55.3462 89.2566 56.7524 90.0973 58.1655C92.2955 61.8106 94.567 65.4079 96.6475 69.0978C98.1119 71.6628 99.0593 74.4476 98.7707 77.4648C98.7218 78.0688 98.5845 78.6668 98.4817 79.2847C96.8133 82.225 95.1276 85.1554 93.442 88.0857Z" fill="#F08222"/>
<path d="M72.3584 25.1368C74.9337 29.0395 77.5262 32.9523 80.0916 36.8723C80.3196 37.234 80.5576 37.5785 80.8274 37.9874C83.242 37.022 85.5752 36.0783 88.1082 35.0668C87.9347 35.4483 87.8675 35.6848 87.7486 35.8914C84.3932 41.8443 81.0278 47.8143 77.6723 53.7672C77.4148 54.2149 77.2094 54.532 76.5616 54.501C69.3147 54.2502 62.0552 54.0611 54.7984 53.8276C54.6826 53.8293 54.5522 53.7767 54.2173 53.7204C56.2855 52.4395 58.2055 51.2564 60.1824 50.0144C59.9987 49.6555 59.8567 49.3436 59.6877 49.039C57.4211 44.8789 55.1816 40.7116 52.8952 36.5859C52.5815 36.0139 52.5876 35.6042 52.9218 35.0632C54.7041 32.1245 56.3586 29.0887 59.0357 26.8291C62.256 24.1038 66.0012 23.06 70.206 24.0502C70.2848 24.0729 70.3932 24.0439 70.4918 24.0322C71.1017 24.4085 71.7386 24.7776 72.3584 25.1368Z" fill="white"/>
<path d="M17.7361 42.1432C17.8443 41.9148 17.8868 41.7602 17.9641 41.6258C20.8128 36.7139 23.6093 31.7717 26.5529 26.9371C28.0334 24.5248 29.9976 22.4825 32.7746 21.4486C33.61 21.1264 34.548 20.9084 35.4571 20.9424C44.3601 21.2858 53.2516 21.6897 62.1432 22.0936C62.3927 22.1038 62.6499 22.1409 62.8956 22.2384C60.718 22.8356 58.732 23.7455 56.9764 25.1024C55.1183 26.5567 53.6917 28.3506 52.5225 30.3833C47.9845 38.1913 43.4389 45.9724 38.8835 53.7703C38.8062 53.9047 38.6941 54.0189 38.5704 54.1936C31.6308 50.1948 24.7182 46.1892 17.7361 42.1432Z" fill="#F08222"/>
<path d="M3.30611 85.1763C5.10523 86.6071 6.99883 87.7957 9.18516 88.5145C11.3616 89.2503 13.5828 89.441 15.8746 89.353C24.9017 89.0108 33.9358 88.6955 42.9698 88.3802C43.1535 88.3725 43.3344 88.4088 43.5952 88.4229C43.8112 96.2681 44.0202 104.086 44.249 111.871C44.1493 111.927 44.0931 111.986 44.0397 112.001C38.3101 112.221 32.5846 112.512 26.8608 112.644C24.0908 112.706 21.3288 112.248 19 110.647C18.0239 109.967 17.0988 109.043 16.5036 108.013C12.2053 100.68 7.97999 93.2978 3.72806 85.9233C3.57852 85.6767 3.44579 85.4399 3.30611 85.1763Z" fill="#F08222"/>
<path d="M60.5996 87.2418C63.4223 87.2745 66.146 87.3186 68.8524 87.3526C71.2372 87.3835 73.622 87.4144 76.0142 87.4725C76.3358 87.4757 76.8035 87.5864 76.9348 87.7998C78.897 90.9749 80.8766 94.16 81.6123 97.8608C82.3108 101.426 81.5643 104.771 79.4619 107.744C78.3081 109.388 76.6317 110.294 74.5959 110.42C70.5242 110.671 66.4549 110.877 62.3931 111.111C62.0344 111.132 61.6758 111.154 61.2453 111.179C60.9435 113.752 60.6366 116.253 60.3175 118.976C60.0401 118.655 59.8619 118.483 59.7479 118.28C56.1108 112.394 52.4812 106.535 48.8812 100.625C48.6929 100.31 48.6453 99.71 48.8133 99.4181C52.4835 93.1181 56.1785 86.8553 59.8834 80.5754C59.9328 80.4895 60.007 80.4409 60.217 80.1962C60.3702 82.6207 60.4787 84.8818 60.5996 87.2418Z" fill="white"/>
<path d="M33.3938 75.0308C31.182 73.9241 29.2076 72.955 27.1484 71.9367C26.9597 72.2648 26.7898 72.5601 26.6294 72.8389C24.4365 76.7298 22.2435 80.6206 20.0581 84.5377C19.7448 85.1216 19.379 85.3252 18.7099 85.3093C15.3269 85.2955 11.9382 85.4096 8.62948 84.3234C5.07208 83.1588 2.47108 80.8423 0.890486 77.4987C-0.150076 75.2992 0.386748 73.2263 1.39094 71.2055C2.97087 67.9874 4.48298 64.7299 6.029 61.4922C6.1064 61.3183 6.15741 61.151 6.25752 60.8591C4.23638 59.3817 2.19828 57.8945 6.54815e-05 56.2926C0.410963 56.2464 0.639036 56.2036 0.874635 56.187C7.56354 55.995 14.2694 55.8128 20.9583 55.6207C21.4201 55.604 21.7668 55.63 22.0661 56.1315C25.7234 62.2313 29.4166 68.3082 33.0833 74.3916C33.1718 74.5522 33.2188 74.667 33.3938 75.0308Z" fill="white"/>
</svg>
