<svg width="102" height="98" viewBox="0 0 102 98" fill="none" xmlns="http://www.w3.org/2000/svg">
<g style="mix-blend-mode:multiply" opacity="0.33">
<g style="mix-blend-mode:multiply" opacity="0.33">
<path d="M3.34845 77.0135L5.50918 73.9272C5.53858 73.8852 5.58361 73.8564 5.63419 73.8475C5.68476 73.8386 5.73685 73.8502 5.77885 73.8796L7.98428 75.4215C8.02645 75.4509 8.05502 75.496 8.06409 75.5464C8.073 75.5969 8.0614 75.649 8.032 75.691L5.87126 78.7774C5.65855 79.0813 5.3336 79.2883 4.96799 79.3529C4.60255 79.4175 4.22635 79.3342 3.92224 79.1217L3.69289 78.9612C3.38877 78.7487 3.1816 78.424 3.11692 78.0588C3.0524 77.6935 3.13573 77.3175 3.34845 77.0135Z" fill="#4E4E4E"/>
<path d="M3.34845 77.0135L5.50918 73.9272C5.53858 73.8852 5.58361 73.8564 5.63419 73.8475C5.68476 73.8386 5.73685 73.8502 5.77885 73.8796L7.98428 75.4215C8.02645 75.4509 8.05502 75.496 8.06409 75.5464C8.07299 75.5969 8.0614 75.649 8.032 75.691L5.87126 78.7774C5.65855 79.0813 5.3336 79.2883 4.96799 79.3529C4.60255 79.4175 4.22635 79.3342 3.92224 79.1217L3.69289 78.9612C3.38877 78.7487 3.1816 78.424 3.11692 78.0588C3.0524 77.6935 3.13573 77.3175 3.34845 77.0135Z" stroke="#46505C" stroke-linecap="round" stroke-linejoin="round"/>
</g>
<g style="mix-blend-mode:multiply" opacity="0.33">
<path d="M3.34845 77.0135L5.50918 73.9272C5.53858 73.8852 5.58361 73.8564 5.63419 73.8475C5.68476 73.8386 5.73685 73.8502 5.77885 73.8796L7.98428 75.4215C8.02645 75.4509 8.05502 75.496 8.06409 75.5464C8.073 75.5969 8.0614 75.649 8.032 75.691L5.87126 78.7774C5.65855 79.0813 5.3336 79.2883 4.96799 79.3529C4.60255 79.4175 4.22635 79.3342 3.92224 79.1217L3.69289 78.9612C3.38877 78.7487 3.1816 78.424 3.11692 78.0588C3.0524 77.6935 3.13573 77.3175 3.34845 77.0135Z" fill="#4E4E4E"/>
<path d="M3.34845 77.0135L5.50918 73.9272C5.53858 73.8852 5.58361 73.8564 5.63419 73.8475C5.68476 73.8386 5.73685 73.8502 5.77885 73.8796L7.98428 75.4215C8.02645 75.4509 8.05502 75.496 8.06409 75.5464C8.07299 75.5969 8.0614 75.649 8.032 75.691L5.87126 78.7774C5.65855 79.0813 5.3336 79.2883 4.96799 79.3529C4.60255 79.4175 4.22635 79.3342 3.92224 79.1217L3.69289 78.9612C3.38877 78.7487 3.1816 78.424 3.11692 78.0588C3.0524 77.6935 3.13573 77.3175 3.34845 77.0135Z" stroke="#46505C" stroke-linecap="round" stroke-linejoin="round"/>
</g>
<g style="mix-blend-mode:multiply" opacity="0.33">
<path d="M11.6456 77.0653C16.6836 77.0653 20.7679 72.9837 20.7679 67.949C20.7679 62.9141 16.6836 58.8326 11.6456 58.8326C6.60734 58.8326 2.52311 62.9141 2.52311 67.949C2.52311 72.9837 6.60734 77.0653 11.6456 77.0653Z" fill="#4E4E4E"/>
<path d="M11.6456 77.0653C16.6836 77.0653 20.7679 72.9837 20.7679 67.949C20.7679 62.9141 16.6836 58.8326 11.6456 58.8326C6.60734 58.8326 2.52311 62.9141 2.52311 67.949C2.52311 72.9837 6.60734 77.0653 11.6456 77.0653Z" stroke="#46505C" stroke-linecap="round" stroke-linejoin="round"/>
</g>
<g style="mix-blend-mode:multiply" opacity="0.33">
<path d="M11.6456 77.0653C16.6836 77.0653 20.7679 72.9837 20.7679 67.949C20.7679 62.9141 16.6836 58.8326 11.6456 58.8326C6.60734 58.8326 2.52311 62.9141 2.52311 67.949C2.52311 72.9837 6.60734 77.0653 11.6456 77.0653Z" fill="#4E4E4E"/>
<path d="M11.6456 77.0653C16.6836 77.0653 20.7679 72.9837 20.7679 67.949C20.7679 62.9141 16.6836 58.8326 11.6456 58.8326C6.60734 58.8326 2.52311 62.9141 2.52311 67.949C2.52311 72.9837 6.60734 77.0653 11.6456 77.0653Z" stroke="#46505C" stroke-linecap="round" stroke-linejoin="round"/>
</g>
<g style="mix-blend-mode:multiply" opacity="0.33">
<path d="M11.6456 75.0443C15.5668 75.0443 18.7457 71.8676 18.7457 67.9489C18.7457 64.0302 15.5668 60.8534 11.6456 60.8534C7.72415 60.8534 4.54522 64.0302 4.54522 67.9489C4.54522 71.8676 7.72415 75.0443 11.6456 75.0443Z" fill="#4E4E4E"/>
<path d="M11.6456 75.0443C15.5668 75.0443 18.7457 71.8676 18.7457 67.9489C18.7457 64.0302 15.5668 60.8534 11.6456 60.8534C7.72415 60.8534 4.54522 64.0302 4.54522 67.9489C4.54522 71.8676 7.72415 75.0443 11.6456 75.0443Z" stroke="#46505C" stroke-linecap="round" stroke-linejoin="round"/>
</g>
<g style="mix-blend-mode:multiply" opacity="0.33">
<path d="M11.6456 75.0443C15.5668 75.0443 18.7457 71.8676 18.7457 67.9489C18.7457 64.0302 15.5668 60.8534 11.6456 60.8534C7.72415 60.8534 4.54522 64.0302 4.54522 67.9489C4.54522 71.8676 7.72415 75.0443 11.6456 75.0443Z" fill="#4E4E4E"/>
<path d="M11.6456 75.0443C15.5668 75.0443 18.7457 71.8676 18.7457 67.9489C18.7457 64.0302 15.5668 60.8534 11.6456 60.8534C7.72415 60.8534 4.54522 64.0302 4.54522 67.9489C4.54522 71.8676 7.72415 75.0443 11.6456 75.0443Z" stroke="#46505C" stroke-linecap="round" stroke-linejoin="round"/>
</g>
<g style="mix-blend-mode:multiply" opacity="0.33">
<path d="M7.00403 66.476C7.09896 66.2623 7.20179 66.0526 7.30647 65.8474C7.78247 64.9151 8.35189 63.9485 9.26054 63.3772C10.0321 62.892 11.1109 62.7019 11.9472 63.1312C12.6725 63.5036 13.1095 64.2689 13.7714 64.7452C14.2173 65.0183 14.6807 65.2617 15.1585 65.4741C15.6411 65.6912 16.0228 66.0835 16.2263 66.5714C16.4504 67.2554 16.081 67.9853 16.0774 68.7049C16.0761 69.1021 16.1865 69.4916 16.3958 69.8292C16.5279 69.9871 16.6129 70.179 16.6408 70.383C16.6206 70.5135 16.5654 70.6363 16.4807 70.7378C16.3962 70.8393 16.2854 70.9159 16.1606 70.9594C15.4252 71.3067 14.5663 71.1814 13.7576 71.094C12.9489 71.0068 12.0534 70.9883 11.414 71.4909C11.1523 71.732 10.9098 71.9933 10.689 72.2722C10.5956 72.412 10.4726 72.5294 10.3286 72.6161C10.1846 72.7028 10.0232 72.7566 9.856 72.7736C9.68865 72.7907 9.51979 72.7705 9.36118 72.7146C9.20257 72.6588 9.05841 72.5686 8.93878 72.4504C8.35911 71.9654 7.8564 71.3955 7.44727 70.76C7.01747 70.2225 6.71369 69.5955 6.55878 68.9249C6.41344 68.0924 6.65573 67.2593 7.00403 66.476Z" fill="#4E4E4E"/>
<path d="M7.00403 66.476C7.09896 66.2623 7.20179 66.0526 7.30647 65.8474C7.78247 64.9151 8.35189 63.9485 9.26054 63.3772C10.0321 62.892 11.1109 62.7019 11.9472 63.1312C12.6725 63.5036 13.1095 64.2689 13.7714 64.7452C14.2173 65.0183 14.6807 65.2617 15.1585 65.4741C15.6411 65.6912 16.0228 66.0835 16.2263 66.5714C16.4504 67.2554 16.081 67.9853 16.0774 68.705C16.0761 69.1021 16.1865 69.4916 16.3958 69.8292C16.5279 69.9871 16.6129 70.179 16.6408 70.383C16.6206 70.5135 16.5654 70.6363 16.4807 70.7378C16.3962 70.8393 16.2854 70.9159 16.1606 70.9594C15.4252 71.3067 14.5663 71.1814 13.7576 71.094C12.9489 71.0068 12.0534 70.9883 11.414 71.4909C11.1523 71.732 10.9098 71.9933 10.689 72.2722C10.5956 72.412 10.4726 72.5294 10.3286 72.6161C10.1846 72.7028 10.0232 72.7566 9.856 72.7736C9.68865 72.7907 9.51979 72.7705 9.36118 72.7146C9.20257 72.6588 9.05841 72.5686 8.93878 72.4504C8.35911 71.9654 7.8564 71.3955 7.44727 70.76C7.01747 70.2225 6.71369 69.5955 6.55878 68.9249C6.41344 68.0924 6.65573 67.2593 7.00403 66.476Z" stroke="#46505C" stroke-linecap="round" stroke-linejoin="round"/>
</g>
<g style="mix-blend-mode:multiply" opacity="0.33">
<path d="M13.0815 73.3206C13.3249 73.3206 13.5223 73.1234 13.5223 72.8801C13.5223 72.6368 13.3249 72.4397 13.0815 72.4397C12.838 72.4397 12.6407 72.6368 12.6407 72.8801C12.6407 73.1234 12.838 73.3206 13.0815 73.3206Z" fill="#4E4E4E"/>
<path d="M13.0815 73.3206C13.3249 73.3206 13.5223 73.1234 13.5223 72.8801C13.5223 72.6368 13.3249 72.4397 13.0815 72.4397C12.838 72.4397 12.6407 72.6368 12.6407 72.8801C12.6407 73.1234 12.838 73.3206 13.0815 73.3206Z" stroke="#46505C" stroke-linecap="round" stroke-linejoin="round"/>
</g>
<g style="mix-blend-mode:multiply" opacity="0.33">
<path d="M11.9343 73.3477C12.1028 73.3477 12.2396 73.2111 12.2396 73.0427C12.2396 72.8742 12.1028 72.7376 11.9343 72.7376C11.7657 72.7376 11.6291 72.8742 11.6291 73.0427C11.6291 73.2111 11.7657 73.3477 11.9343 73.3477Z" fill="#4E4E4E"/>
<path d="M11.9343 73.3477C12.1028 73.3477 12.2396 73.2111 12.2396 73.0427C12.2396 72.8742 12.1028 72.7376 11.9343 72.7376C11.7657 72.7376 11.6291 72.8742 11.6291 73.0427C11.6291 73.2111 11.7657 73.3477 11.9343 73.3477Z" stroke="#46505C" stroke-linecap="round" stroke-linejoin="round"/>
</g>
<g style="mix-blend-mode:multiply" opacity="0.33">
<path d="M14.123 72.7469C14.2757 72.7469 14.3997 72.623 14.3997 72.4703C14.3997 72.3177 14.2757 72.1939 14.123 72.1939C13.9703 72.1939 13.8463 72.3177 13.8463 72.4703C13.8463 72.623 13.9703 72.7469 14.123 72.7469Z" fill="#4E4E4E"/>
<path d="M14.123 72.7469C14.2757 72.7469 14.3997 72.623 14.3997 72.4703C14.3997 72.3177 14.2757 72.1939 14.123 72.1939C13.9703 72.1939 13.8463 72.3177 13.8463 72.4703C13.8463 72.623 13.9703 72.7469 14.123 72.7469Z" stroke="#46505C" stroke-linecap="round" stroke-linejoin="round"/>
</g>
<g style="mix-blend-mode:multiply" opacity="0.33">
<path d="M10.9688 73.3551C11.0782 73.3551 11.1671 73.2664 11.1671 73.157C11.1671 73.0474 11.0782 72.9589 10.9688 72.9589C10.8593 72.9589 10.7706 73.0474 10.7706 73.157C10.7706 73.2664 10.8593 73.3551 10.9688 73.3551Z" fill="#4E4E4E"/>
<path d="M10.9688 73.3551C11.0782 73.3551 11.1671 73.2664 11.1671 73.157C11.1671 73.0474 11.0782 72.9589 10.9688 72.9589C10.8593 72.9589 10.7706 73.0474 10.7706 73.157C10.7706 73.2664 10.8593 73.3551 10.9688 73.3551Z" stroke="#46505C" stroke-linecap="round" stroke-linejoin="round"/>
</g>
<g style="mix-blend-mode:multiply" opacity="0.33">
<path d="M14.9969 72.2992C15.0638 72.2992 15.1179 72.2451 15.1179 72.1783C15.1179 72.1116 15.0638 72.0573 14.9969 72.0573C14.9302 72.0573 14.8759 72.1116 14.8759 72.1783C14.8759 72.2451 14.9302 72.2992 14.9969 72.2992Z" fill="#4E4E4E"/>
<path d="M14.9969 72.2992C15.0638 72.2992 15.1179 72.2451 15.1179 72.1783C15.1179 72.1116 15.0638 72.0573 14.9969 72.0573C14.9302 72.0573 14.8759 72.1116 14.8759 72.1783C14.8759 72.2451 14.9302 72.2992 14.9969 72.2992Z" stroke="#46505C" stroke-linecap="round" stroke-linejoin="round"/>
</g>
<g style="mix-blend-mode:multiply" opacity="0.33">
<path d="M6.13586 66.5563C6.29279 66.5563 6.41981 66.4293 6.41981 66.2725C6.41981 66.1157 6.29279 65.9887 6.13586 65.9887C5.9791 65.9887 5.85191 66.1157 5.85191 66.2725C5.85191 66.4293 5.9791 66.5563 6.13586 66.5563Z" fill="#4E4E4E"/>
<path d="M6.13586 66.5563C6.29279 66.5563 6.41981 66.4293 6.41981 66.2725C6.41981 66.1157 6.29279 65.9887 6.13586 65.9887C5.9791 65.9887 5.85191 66.1157 5.85191 66.2725C5.85191 66.4293 5.9791 66.5563 6.13586 66.5563Z" stroke="#46505C" stroke-linecap="round" stroke-linejoin="round"/>
</g>
<g style="mix-blend-mode:multiply" opacity="0.33">
<path d="M13.8661 63.2377C14.0136 63.2377 14.1333 63.1183 14.1333 62.9707C14.1333 62.8234 14.0136 62.7038 13.8661 62.7038C13.7186 62.7038 13.599 62.8234 13.599 62.9707C13.599 63.1183 13.7186 63.2377 13.8661 63.2377Z" fill="#4E4E4E"/>
<path d="M13.8661 63.2377C14.0136 63.2377 14.1333 63.1183 14.1333 62.9707C14.1333 62.8234 14.0136 62.7038 13.8661 62.7038C13.7186 62.7038 13.599 62.8234 13.599 62.9707C13.599 63.1183 13.7186 63.2377 13.8661 63.2377Z" stroke="#46505C" stroke-linecap="round" stroke-linejoin="round"/>
</g>
<g style="mix-blend-mode:multiply" opacity="0.33">
<path d="M15.6026 64.5278C15.7362 64.5278 15.8446 64.4196 15.8446 64.2861C15.8446 64.1525 15.7362 64.0443 15.6026 64.0443C15.469 64.0443 15.3607 64.1525 15.3607 64.2861C15.3607 64.4196 15.469 64.5278 15.6026 64.5278Z" fill="#4E4E4E"/>
<path d="M15.6026 64.5278C15.7362 64.5278 15.8446 64.4196 15.8446 64.2861C15.8446 64.1525 15.7362 64.0443 15.6026 64.0443C15.469 64.0443 15.3607 64.1525 15.3607 64.2861C15.3607 64.4196 15.469 64.5278 15.6026 64.5278Z" stroke="#46505C" stroke-linecap="round" stroke-linejoin="round"/>
</g>
<g style="mix-blend-mode:multiply" opacity="0.33">
<path d="M15.8012 65.0771C15.8597 65.0771 15.9071 65.0297 15.9071 64.9712C15.9071 64.9127 15.8597 64.8654 15.8012 64.8654C15.7428 64.8654 15.6954 64.9127 15.6954 64.9712C15.6954 65.0297 15.7428 65.0771 15.8012 65.0771Z" fill="#4E4E4E"/>
<path d="M15.8012 65.0771C15.8597 65.0771 15.9071 65.0297 15.9071 64.9712C15.9071 64.9127 15.8597 64.8654 15.8012 64.8654C15.7428 64.8654 15.6954 64.9127 15.6954 64.9712C15.6954 65.0297 15.7428 65.0771 15.8012 65.0771Z" stroke="#46505C" stroke-linecap="round" stroke-linejoin="round"/>
</g>
</g>
<path d="M1.36618 74.7658L3.52826 71.6787C3.55783 71.6365 3.60269 71.608 3.65326 71.5989C3.70401 71.59 3.75609 71.6016 3.7981 71.631L6.00419 73.1741C6.04637 73.2035 6.0751 73.2485 6.08401 73.2991C6.09291 73.3497 6.08132 73.4018 6.05191 73.4438L3.88967 76.531C3.67679 76.8349 3.35167 77.0419 2.98606 77.1064C2.62028 77.171 2.24391 77.0878 1.9398 76.8749L1.71028 76.7144C1.40617 76.5016 1.199 76.1768 1.13431 75.8113C1.06979 75.4459 1.15313 75.0697 1.36618 74.7658Z" fill="white" stroke="#E6F3FF" stroke-miterlimit="10"/>
<path opacity="0.18" d="M3.79808 71.6317C3.7559 71.6025 3.70382 71.5909 3.65324 71.6C3.60267 71.6089 3.55781 71.6376 3.5284 71.6796L2.55473 73.0693C2.92807 73.4248 3.32762 73.7516 3.75019 74.0472C4.17259 74.3424 4.6165 74.6057 5.07805 74.8348L6.05172 73.4446C6.06634 73.4238 6.07676 73.4003 6.08231 73.3756C6.08785 73.3507 6.08835 73.325 6.08398 73.3C6.07945 73.2749 6.07021 73.2511 6.05643 73.2296C6.04282 73.2082 6.02501 73.1896 6.00417 73.1751L3.79808 71.6317Z" fill="#4E4E4E" stroke="#46505C" stroke-linecap="round" stroke-linejoin="round"/>
<path d="M1.36618 74.7658L3.52826 71.6787C3.55783 71.6365 3.60269 71.608 3.65326 71.5989C3.70401 71.59 3.75609 71.6016 3.7981 71.631L6.0042 73.1741C6.04637 73.2035 6.0751 73.2485 6.08401 73.2991C6.09291 73.3497 6.08132 73.4018 6.05191 73.4438L3.88967 76.531C3.67679 76.8349 3.35167 77.0419 2.98606 77.1064C2.62028 77.171 2.24391 77.0878 1.9398 76.8749L1.71028 76.7144C1.40617 76.5016 1.199 76.1768 1.13431 75.8113C1.06979 75.4459 1.15313 75.0697 1.36618 74.7658Z" stroke="#46505C" stroke-linecap="round" stroke-linejoin="round"/>
<path d="M9.6233 74.7775C14.6614 74.7775 18.7456 70.696 18.7456 65.6611C18.7456 60.6264 14.6614 56.5449 9.6233 56.5449C4.58506 56.5449 0.501002 60.6264 0.501002 65.6611C0.501002 70.696 4.58506 74.7775 9.6233 74.7775Z" fill="white" stroke="#E6F3FF" stroke-miterlimit="10"/>
<path d="M9.6233 74.7775C14.6614 74.7775 18.7456 70.696 18.7456 65.6611C18.7456 60.6264 14.6614 56.5449 9.6233 56.5449C4.58506 56.5449 0.501002 60.6264 0.501002 65.6611C0.501002 70.696 4.58506 74.7775 9.6233 74.7775Z" stroke="#46505C" stroke-linecap="round" stroke-linejoin="round"/>
<path d="M9.6231 72.7566C13.5445 72.7566 16.7233 69.5798 16.7233 65.6611C16.7233 61.7424 13.5445 58.5654 9.6231 58.5654C5.70169 58.5654 2.52293 61.7424 2.52293 65.6611C2.52293 69.5798 5.70169 72.7566 9.6231 72.7566Z" fill="#845B5B"/>
<path d="M9.6231 72.7566C13.5445 72.7566 16.7233 69.5798 16.7233 65.6611C16.7233 61.7424 13.5445 58.5654 9.6231 58.5654C5.70169 58.5654 2.52293 61.7424 2.52293 65.6611C2.52293 69.5798 5.70169 72.7566 9.6231 72.7566Z" stroke="#46505C" stroke-linecap="round" stroke-linejoin="round"/>
<g style="mix-blend-mode:multiply" opacity="0.33">
<path d="M4.98162 64.1881C5.07655 63.9745 5.17938 63.7647 5.28405 63.5595C5.76022 62.6274 6.32981 61.6609 7.23812 61.0895C8.01001 60.6041 9.08869 60.4144 9.92476 60.8433C10.6501 61.2157 11.0873 61.9813 11.749 62.4573C12.195 62.7299 12.6586 62.973 13.1365 63.1849C13.6187 63.4019 14.0004 63.7938 14.2042 64.2814C14.4284 64.9655 14.0589 65.6954 14.055 66.4149C14.0538 66.8121 14.1641 67.2015 14.3734 67.5391C14.5056 67.6969 14.5907 67.8889 14.6187 68.0929C14.5987 68.2234 14.5433 68.3462 14.4588 68.4479C14.3741 68.5496 14.2634 68.6262 14.1385 68.6697C13.4028 69.0166 12.544 68.8915 11.7352 68.8039C10.9265 68.7164 10.0313 68.6984 9.39163 69.2008C9.13003 69.4419 8.88757 69.7032 8.66663 69.9821C8.57338 70.1219 8.45022 70.2393 8.30623 70.326C8.16223 70.4126 8.00093 70.4665 7.83359 70.4835C7.66641 70.5006 7.49738 70.4804 7.33894 70.4247C7.18032 70.3689 7.036 70.2786 6.91637 70.1607C6.33687 69.6753 5.83398 69.1052 5.42502 68.4697C4.9954 67.9328 4.69212 67.3062 4.53721 66.6363C4.38968 65.8046 4.63365 64.9714 4.98162 64.1881Z" fill="#845B5B"/>
</g>
<g style="mix-blend-mode:multiply" opacity="0.33">
<path d="M11.0592 71.0325C11.3027 71.0325 11.4999 70.8353 11.4999 70.592C11.4999 70.3487 11.3027 70.1514 11.0592 70.1514C10.8158 70.1514 10.6183 70.3487 10.6183 70.592C10.6183 70.8353 10.8158 71.0325 11.0592 71.0325Z" fill="#845B5B"/>
</g>
<g style="mix-blend-mode:multiply" opacity="0.33">
<path d="M9.91196 71.0598C10.0805 71.0598 10.2173 70.9232 10.2173 70.7546C10.2173 70.5863 10.0805 70.4497 9.91196 70.4497C9.74344 70.4497 9.60667 70.5863 9.60667 70.7546C9.60667 70.9232 9.74344 71.0598 9.91196 71.0598Z" fill="#845B5B"/>
</g>
<g style="mix-blend-mode:multiply" opacity="0.33">
<path d="M12.1008 70.459C12.2535 70.459 12.3773 70.3352 12.3773 70.1825C12.3773 70.0297 12.2535 69.9061 12.1008 69.9061C11.9479 69.9061 11.8241 70.0297 11.8241 70.1825C11.8241 70.3352 11.9479 70.459 12.1008 70.459Z" fill="#845B5B"/>
</g>
<g style="mix-blend-mode:multiply" opacity="0.33">
<path d="M8.94634 71.0675C9.05589 71.0675 9.14461 70.9788 9.14461 70.8692C9.14461 70.7598 9.05589 70.6711 8.94634 70.6711C8.83679 70.6711 8.74808 70.7598 8.74808 70.8692C8.74808 70.9788 8.83679 71.0675 8.94634 71.0675Z" fill="#845B5B"/>
</g>
<g style="mix-blend-mode:multiply" opacity="0.33">
<path d="M12.9746 70.0113C13.0415 70.0113 13.0956 69.9572 13.0956 69.8904C13.0956 69.8235 13.0415 69.7694 12.9746 69.7694C12.9077 69.7694 12.8536 69.8235 12.8536 69.8904C12.8536 69.9572 12.9077 70.0113 12.9746 70.0113Z" fill="#845B5B"/>
</g>
<g style="mix-blend-mode:multiply" opacity="0.33">
<path d="M4.11363 64.2684C4.27039 64.2684 4.39759 64.1414 4.39759 63.9846C4.39759 63.8278 4.27039 63.7008 4.11363 63.7008C3.9567 63.7008 3.82968 63.8278 3.82968 63.9846C3.82968 64.1414 3.9567 64.2684 4.11363 64.2684Z" fill="#845B5B"/>
</g>
<g style="mix-blend-mode:multiply" opacity="0.33">
<path d="M11.8438 60.9497C11.9913 60.9497 12.111 60.8302 12.111 60.6827C12.111 60.5353 11.9913 60.4157 11.8438 60.4157C11.6963 60.4157 11.5767 60.5353 11.5767 60.6827C11.5767 60.8302 11.6963 60.9497 11.8438 60.9497Z" fill="#845B5B"/>
</g>
<g style="mix-blend-mode:multiply" opacity="0.33">
<path d="M13.5803 62.2397C13.7139 62.2397 13.8223 62.1315 13.8223 61.9979C13.8223 61.8643 13.7139 61.7561 13.5803 61.7561C13.4467 61.7561 13.3384 61.8643 13.3384 61.9979C13.3384 62.1315 13.4467 62.2397 13.5803 62.2397Z" fill="#845B5B"/>
</g>
<g style="mix-blend-mode:multiply" opacity="0.33">
<path d="M13.7789 62.7888C13.8374 62.7888 13.8848 62.7414 13.8848 62.6829C13.8848 62.6245 13.8374 62.5771 13.7789 62.5771C13.7205 62.5771 13.6731 62.6245 13.6731 62.6829C13.6731 62.7414 13.7205 62.7888 13.7789 62.7888Z" fill="#845B5B"/>
</g>
<path d="M10.2455 66.8066C10.5548 66.8066 10.8055 66.5561 10.8055 66.247C10.8055 65.938 10.5548 65.6873 10.2455 65.6873C9.93619 65.6873 9.6855 65.938 9.6855 66.247C9.6855 66.5561 9.93619 66.8066 10.2455 66.8066Z" fill="#845B5B"/>
<path d="M8.42126 65.0771C8.96262 65.0771 9.40133 64.6386 9.40133 64.0977C9.40133 63.5567 8.96262 63.1182 8.42126 63.1182C7.87991 63.1182 7.44121 63.5567 7.44121 64.0977C7.44121 64.6386 7.87991 65.0771 8.42126 65.0771Z" fill="#845B5B"/>
<g style="mix-blend-mode:multiply" opacity="0.33">
<g style="mix-blend-mode:multiply" opacity="0.33">
<path d="M97.5782 36.3048H32.6106C30.4453 36.3048 28.69 38.0589 28.69 40.2227V45.1139C28.69 47.2777 30.4453 49.0316 32.6106 49.0316H97.5782C99.7433 49.0316 101.499 47.2777 101.499 45.1139V40.2227C101.499 38.0589 99.7433 36.3048 97.5782 36.3048Z" fill="#4E4E4E"/>
<path d="M97.5782 36.3048H32.6106C30.4453 36.3048 28.69 38.0589 28.69 40.2227V45.1139C28.69 47.2777 30.4453 49.0316 32.6106 49.0316H97.5782C99.7433 49.0316 101.499 47.2777 101.499 45.1139V40.2227C101.499 38.0589 99.7433 36.3048 97.5782 36.3048Z" stroke="black" stroke-linecap="round" stroke-linejoin="round"/>
</g>
<g style="mix-blend-mode:multiply" opacity="0.33">
<path d="M97.5782 36.3048H32.6106C30.4453 36.3048 28.69 38.0589 28.69 40.2227V45.1139C28.69 47.2777 30.4453 49.0316 32.6106 49.0316H97.5782C99.7433 49.0316 101.499 47.2777 101.499 45.1139V40.2227C101.499 38.0589 99.7433 36.3048 97.5782 36.3048Z" fill="#4E4E4E"/>
</g>
<g style="mix-blend-mode:multiply" opacity="0.17">
<path d="M32.6106 36.3048H97.5783C98.618 36.3048 99.6152 36.7176 100.35 37.4524C101.086 38.1871 101.499 39.1837 101.499 40.2227V45.9423C101.499 46.5767 101.246 47.1853 100.798 47.6339C100.349 48.0825 99.7397 48.3347 99.1047 48.3347H31.0845C30.4495 48.3347 29.8406 48.0825 29.3917 47.6339C28.9427 47.1853 28.6904 46.5767 28.6904 45.9423V40.2227C28.6904 39.1837 29.1035 38.1871 29.8388 37.4524C30.5739 36.7176 31.571 36.3048 32.6109 36.3048H32.6106Z" fill="#4E4E4E"/>
</g>
<g style="mix-blend-mode:multiply" opacity="0.33">
<path d="M97.5782 36.3048H32.6106C30.4453 36.3048 28.69 38.0589 28.69 40.2227V45.1139C28.69 47.2777 30.4453 49.0316 32.6106 49.0316H97.5782C99.7433 49.0316 101.499 47.2777 101.499 45.1139V40.2227C101.499 38.0589 99.7433 36.3048 97.5782 36.3048Z" fill="#4E4E4E"/>
<path d="M97.5782 36.3048H32.6106C30.4453 36.3048 28.69 38.0589 28.69 40.2227V45.1139C28.69 47.2777 30.4453 49.0316 32.6106 49.0316H97.5782C99.7433 49.0316 101.499 47.2777 101.499 45.1139V40.2227C101.499 38.0589 99.7433 36.3048 97.5782 36.3048Z" stroke="#46505C" stroke-linecap="round" stroke-linejoin="round"/>
</g>
<g style="mix-blend-mode:multiply" opacity="0.33">
<path d="M96.4581 47.5168V37.7386H33.7308V47.5168H96.4581Z" fill="#4E4E4E"/>
</g>
<g style="mix-blend-mode:multiply" opacity="0.33">
<path d="M96.4581 47.5168V37.7386H33.7308V47.5168H96.4581Z" fill="#4E4E4E"/>
<path d="M96.4581 47.5168V37.7386H33.7308V47.5168H96.4581Z" stroke="#46505C" stroke-linecap="round" stroke-linejoin="round"/>
</g>
<g style="mix-blend-mode:multiply" opacity="0.33">
<path d="M97.5785 49.0315H32.6109C30.4457 49.0315 28.6904 50.7857 28.6904 52.9494V93.2474C28.6904 95.4112 30.4457 97.1651 32.6109 97.1651H97.5785C99.7437 97.1651 101.499 95.4112 101.499 93.2474V52.9494C101.499 50.7857 99.7437 49.0315 97.5785 49.0315Z" fill="#4E4E4E"/>
</g>
<g style="mix-blend-mode:multiply" opacity="0.33">
<path d="M100.379 93.2474V52.9494C100.379 51.4038 99.125 50.1508 97.5784 50.1508H32.6109C31.0643 50.1508 29.8105 51.4038 29.8105 52.9494V93.2474C29.8105 94.7928 31.0643 96.0458 32.6109 96.0458H97.5784C99.125 96.0458 100.379 94.7928 100.379 93.2474Z" fill="#4E4E4E"/>
<path d="M100.379 93.2474V52.9494C100.379 51.4038 99.125 50.1508 97.5784 50.1508H32.6109C31.0643 50.1508 29.8105 51.4038 29.8105 52.9494V93.2474C29.8105 94.7928 31.0643 96.0458 32.6109 96.0458H97.5784C99.125 96.0458 100.379 94.7928 100.379 93.2474Z" stroke="#E6F3FF" stroke-miterlimit="10"/>
</g>
<g style="mix-blend-mode:multiply" opacity="0.33">
<path d="M60.6 94.9763H69.589C69.8861 94.9763 70.1709 95.0941 70.3811 95.3041C70.5911 95.514 70.7091 95.7988 70.7091 96.0957V97.1646H59.4798V96.0957C59.4798 95.7988 59.5978 95.514 59.808 95.3041C60.018 95.0941 60.3029 94.9763 60.6 94.9763Z" fill="#4E4E4E"/>
</g>
<g style="mix-blend-mode:multiply" opacity="0.33">
<path d="M97.5785 49.0315H32.6109C30.4457 49.0315 28.6904 50.7857 28.6904 52.9494V93.2474C28.6904 95.4112 30.4457 97.1651 32.6109 97.1651H97.5785C99.7437 97.1651 101.499 95.4112 101.499 93.2474V52.9494C101.499 50.7857 99.7437 49.0315 97.5785 49.0315Z" fill="#4E4E4E"/>
<path d="M97.5785 49.0315H32.6109C30.4457 49.0315 28.6904 50.7857 28.6904 52.9494V93.2474C28.6904 95.4112 30.4457 97.1651 32.6109 97.1651H97.5785C99.7437 97.1651 101.499 95.4112 101.499 93.2474V52.9494C101.499 50.7857 99.7437 49.0315 97.5785 49.0315Z" stroke="#46505C" stroke-linecap="round" stroke-linejoin="round"/>
</g>
<g style="mix-blend-mode:multiply" opacity="0.33">
<path d="M96.4581 52.7874H33.7306C33.2667 52.7874 32.8905 53.1633 32.8905 53.6268V77.6938C32.8905 78.1574 33.2667 78.5333 33.7306 78.5333H96.4581C96.922 78.5333 97.2982 78.1574 97.2982 77.6938V53.6268C97.2982 53.1633 96.922 52.7874 96.4581 52.7874Z" fill="#4E4E4E"/>
</g>
<g style="mix-blend-mode:multiply" opacity="0.33">
<path d="M45.2357 72.2367H41.8753C41.7208 72.2367 41.5954 72.3619 41.5954 72.5164V75.8747C41.5954 76.0292 41.7208 76.1546 41.8753 76.1546H45.2357C45.3905 76.1546 45.5158 76.0292 45.5158 75.8747V72.5164C45.5158 72.3619 45.3905 72.2367 45.2357 72.2367Z" fill="#4E4E4E"/>
<path d="M45.2357 72.2367H41.8753C41.7208 72.2367 41.5954 72.3619 41.5954 72.5164V75.8747C41.5954 76.0292 41.7208 76.1546 41.8753 76.1546H45.2357C45.3905 76.1546 45.5158 76.0292 45.5158 75.8747V72.5164C45.5158 72.3619 45.3905 72.2367 45.2357 72.2367Z" stroke="#626C84" stroke-linecap="round" stroke-linejoin="round"/>
</g>
<g style="mix-blend-mode:multiply" opacity="0.33">
<path d="M39.1761 72.2367H35.8157C35.6612 72.2367 35.5358 72.3619 35.5358 72.5164V75.8747C35.5358 76.0292 35.6612 76.1546 35.8157 76.1546H39.1761C39.3309 76.1546 39.4562 76.0292 39.4562 75.8747V72.5164C39.4562 72.3619 39.3309 72.2367 39.1761 72.2367Z" fill="#4E4E4E"/>
<path d="M39.1761 72.2367H35.8157C35.6612 72.2367 35.5358 72.3619 35.5358 72.5164V75.8747C35.5358 76.0292 35.6612 76.1546 35.8157 76.1546H39.1761C39.3309 76.1546 39.4562 76.0292 39.4562 75.8747V72.5164C39.4562 72.3619 39.3309 72.2367 39.1761 72.2367Z" stroke="#626C84" stroke-linecap="round" stroke-linejoin="round"/>
</g>
<g style="mix-blend-mode:multiply" opacity="0.33">
<path d="M75.5332 72.2367H47.9348C47.7802 72.2367 47.6549 72.3619 47.6549 72.5164V75.8747C47.6549 76.0292 47.7802 76.1546 47.9348 76.1546H75.5332C75.6878 76.1546 75.8133 76.0292 75.8133 75.8747V72.5164C75.8133 72.3619 75.6878 72.2367 75.5332 72.2367Z" fill="#4E4E4E"/>
<path d="M75.5332 72.2367H47.9348C47.7802 72.2367 47.6549 72.3619 47.6549 72.5164V75.8747C47.6549 76.0292 47.7802 76.1546 47.9348 76.1546H75.5332C75.6878 76.1546 75.8133 76.0292 75.8133 75.8747V72.5164C75.8133 72.3619 75.6878 72.2367 75.5332 72.2367Z" stroke="#626C84" stroke-linecap="round" stroke-linejoin="round"/>
</g>
<g style="mix-blend-mode:multiply" opacity="0.33">
<path d="M81.5928 72.2367H78.2324C78.0779 72.2367 77.9524 72.3619 77.9524 72.5164V75.8747C77.9524 76.0292 78.0779 76.1546 78.2324 76.1546H81.5928C81.7476 76.1546 81.8729 76.0292 81.8729 75.8747V72.5164C81.8729 72.3619 81.7476 72.2367 81.5928 72.2367Z" fill="#4E4E4E"/>
<path d="M81.5928 72.2367H78.2324C78.0779 72.2367 77.9524 72.3619 77.9524 72.5164V75.8747C77.9524 76.0292 78.0779 76.1546 78.2324 76.1546H81.5928C81.7476 76.1546 81.8729 76.0292 81.8729 75.8747V72.5164C81.8729 72.3619 81.7476 72.2367 81.5928 72.2367Z" stroke="#626C84" stroke-linecap="round" stroke-linejoin="round"/>
</g>
<g style="mix-blend-mode:multiply" opacity="0.33">
<path d="M90.4529 74.4404H88.2125C88.0579 74.4404 87.9326 74.5658 87.9326 74.7202V75.8747C87.9326 76.0292 88.0579 76.1544 88.2125 76.1544H90.4529C90.6074 76.1544 90.7328 76.0292 90.7328 75.8747V74.7202C90.7328 74.5658 90.6074 74.4404 90.4529 74.4404Z" fill="#4E4E4E"/>
<path d="M90.4529 74.4404H88.2125C88.0579 74.4404 87.9326 74.5658 87.9326 74.7202V75.8747C87.9326 76.0292 88.0579 76.1544 88.2125 76.1544H90.4529C90.6074 76.1544 90.7328 76.0292 90.7328 75.8747V74.7202C90.7328 74.5658 90.6074 74.4404 90.4529 74.4404Z" stroke="#626C84" stroke-linecap="round" stroke-linejoin="round"/>
</g>
<g style="mix-blend-mode:multiply" opacity="0.33">
<path d="M90.4529 72.2367H88.2125C88.0579 72.2367 87.9326 72.3619 87.9326 72.5164V73.6709C87.9326 73.8255 88.0579 73.9507 88.2125 73.9507H90.4529C90.6074 73.9507 90.7328 73.8255 90.7328 73.6709V72.5164C90.7328 72.3619 90.6074 72.2367 90.4529 72.2367Z" fill="#4E4E4E"/>
<path d="M90.4529 72.2367H88.2125C88.0579 72.2367 87.9326 72.3619 87.9326 72.5164V73.6709C87.9326 73.8255 88.0579 73.9507 88.2125 73.9507H90.4529C90.6074 73.9507 90.7328 73.8255 90.7328 73.6709V72.5164C90.7328 72.3619 90.6074 72.2367 90.4529 72.2367Z" stroke="#626C84" stroke-linecap="round" stroke-linejoin="round"/>
</g>
<g style="mix-blend-mode:multiply" opacity="0.33">
<path d="M94.3733 74.4404H92.1331C91.9784 74.4404 91.853 74.5658 91.853 74.7202V75.8747C91.853 76.0292 91.9784 76.1544 92.1331 76.1544H94.3733C94.528 76.1544 94.6534 76.0292 94.6534 75.8747V74.7202C94.6534 74.5658 94.528 74.4404 94.3733 74.4404Z" fill="#4E4E4E"/>
<path d="M94.3733 74.4404H92.1331C91.9784 74.4404 91.853 74.5658 91.853 74.7202V75.8747C91.853 76.0292 91.9784 76.1544 92.1331 76.1544H94.3733C94.528 76.1544 94.6534 76.0292 94.6534 75.8747V74.7202C94.6534 74.5658 94.528 74.4404 94.3733 74.4404Z" stroke="#626C84" stroke-linecap="round" stroke-linejoin="round"/>
</g>
<g style="mix-blend-mode:multiply" opacity="0.33">
<path d="M86.5323 74.4404H84.2921C84.1374 74.4404 84.012 74.5658 84.012 74.7202V75.8747C84.012 76.0292 84.1374 76.1544 84.2921 76.1544H86.5323C86.6871 76.1544 86.8124 76.0292 86.8124 75.8747V74.7202C86.8124 74.5658 86.6871 74.4404 86.5323 74.4404Z" fill="#4E4E4E"/>
<path d="M86.5323 74.4404H84.2921C84.1374 74.4404 84.012 74.5658 84.012 74.7202V75.8747C84.012 76.0292 84.1374 76.1544 84.2921 76.1544H86.5323C86.6871 76.1544 86.8124 76.0292 86.8124 75.8747V74.7202C86.8124 74.5658 86.6871 74.4404 86.5323 74.4404Z" stroke="#626C84" stroke-linecap="round" stroke-linejoin="round"/>
</g>
<g style="mix-blend-mode:multiply" opacity="0.33">
<path d="M44.6758 66.662H35.8157C35.6612 66.662 35.5358 66.7873 35.5358 66.9419V70.2999C35.5358 70.4545 35.6612 70.5798 35.8157 70.5798H44.6758C44.8303 70.5798 44.9559 70.4545 44.9559 70.2999V66.9419C44.9559 66.7873 44.8303 66.662 44.6758 66.662Z" fill="#4E4E4E"/>
<path d="M44.6758 66.662H35.8157C35.6612 66.662 35.5358 66.7873 35.5358 66.9419V70.2999C35.5358 70.4545 35.6612 70.5798 35.8157 70.5798H44.6758C44.8303 70.5798 44.9559 70.4545 44.9559 70.2999V66.9419C44.9559 66.7873 44.8303 66.662 44.6758 66.662Z" stroke="#626C84" stroke-linecap="round" stroke-linejoin="round"/>
</g>
<g style="mix-blend-mode:multiply" opacity="0.33">
<path d="M50.7858 66.662H47.4254C47.2708 66.662 47.1453 66.7873 47.1453 66.9419V70.2999C47.1453 70.4545 47.2708 70.5798 47.4254 70.5798H50.7858C50.9403 70.5798 51.0658 70.4545 51.0658 70.2999V66.9419C51.0658 66.7873 50.9403 66.662 50.7858 66.662Z" fill="#4E4E4E"/>
<path d="M50.7858 66.662H47.4254C47.2708 66.662 47.1453 66.7873 47.1453 66.9419V70.2999C47.1453 70.4545 47.2708 70.5798 47.4254 70.5798H50.7858C50.9403 70.5798 51.0658 70.4545 51.0658 70.2999V66.9419C51.0658 66.7873 50.9403 66.662 50.7858 66.662Z" stroke="#626C84" stroke-linecap="round" stroke-linejoin="round"/>
</g>
<g style="mix-blend-mode:multiply" opacity="0.33">
<path d="M56.8454 66.662H53.485C53.3303 66.662 53.2049 66.7873 53.2049 66.9419V70.2999C53.2049 70.4545 53.3303 70.5798 53.485 70.5798H56.8454C57 70.5798 57.1255 70.4545 57.1255 70.2999V66.9419C57.1255 66.7873 57 66.662 56.8454 66.662Z" fill="#4E4E4E"/>
<path d="M56.8454 66.662H53.485C53.3303 66.662 53.2049 66.7873 53.2049 66.9419V70.2999C53.2049 70.4545 53.3303 70.5798 53.485 70.5798H56.8454C57 70.5798 57.1255 70.4545 57.1255 70.2999V66.9419C57.1255 66.7873 57 66.662 56.8454 66.662Z" stroke="#626C84" stroke-linecap="round" stroke-linejoin="round"/>
</g>
<g style="mix-blend-mode:multiply" opacity="0.33">
<path d="M62.9049 66.662H59.5445C59.3898 66.662 59.2644 66.7873 59.2644 66.9419V70.2999C59.2644 70.4545 59.3898 70.5798 59.5445 70.5798H62.9049C63.0595 70.5798 63.185 70.4545 63.185 70.2999V66.9419C63.185 66.7873 63.0595 66.662 62.9049 66.662Z" fill="#4E4E4E"/>
<path d="M62.9049 66.662H59.5445C59.3898 66.662 59.2644 66.7873 59.2644 66.9419V70.2999C59.2644 70.4545 59.3898 70.5798 59.5445 70.5798H62.9049C63.0595 70.5798 63.185 70.4545 63.185 70.2999V66.9419C63.185 66.7873 63.0595 66.662 62.9049 66.662Z" stroke="#626C84" stroke-linecap="round" stroke-linejoin="round"/>
</g>
<g style="mix-blend-mode:multiply" opacity="0.33">
<path d="M68.9643 66.662H65.6039C65.4494 66.662 65.324 66.7873 65.324 66.9419V70.2999C65.324 70.4545 65.4494 70.5798 65.6039 70.5798H68.9643C69.1191 70.5798 69.2444 70.4545 69.2444 70.2999V66.9419C69.2444 66.7873 69.1191 66.662 68.9643 66.662Z" fill="#4E4E4E"/>
<path d="M68.9643 66.662H65.6039C65.4494 66.662 65.324 66.7873 65.324 66.9419V70.2999C65.324 70.4545 65.4494 70.5798 65.6039 70.5798H68.9643C69.1191 70.5798 69.2444 70.4545 69.2444 70.2999V66.9419C69.2444 66.7873 69.1191 66.662 68.9643 66.662Z" stroke="#626C84" stroke-linecap="round" stroke-linejoin="round"/>
</g>
<g style="mix-blend-mode:multiply" opacity="0.33">
<path d="M75.0238 66.662H71.6634C71.5088 66.662 71.3835 66.7873 71.3835 66.9419V70.2999C71.3835 70.4545 71.5088 70.5798 71.6634 70.5798H75.0238C75.1785 70.5798 75.3039 70.4545 75.3039 70.2999V66.9419C75.3039 66.7873 75.1785 66.662 75.0238 66.662Z" fill="#4E4E4E"/>
<path d="M75.0238 66.662H71.6634C71.5088 66.662 71.3835 66.7873 71.3835 66.9419V70.2999C71.3835 70.4545 71.5088 70.5798 71.6634 70.5798H75.0238C75.1785 70.5798 75.3039 70.4545 75.3039 70.2999V66.9419C75.3039 66.7873 75.1785 66.662 75.0238 66.662Z" stroke="#626C84" stroke-linecap="round" stroke-linejoin="round"/>
</g>
<g style="mix-blend-mode:multiply" opacity="0.33">
<path d="M81.0834 66.662H77.723C77.5684 66.662 77.4431 66.7873 77.4431 66.9419V70.2999C77.4431 70.4545 77.5684 70.5798 77.723 70.5798H81.0834C81.2382 70.5798 81.3635 70.4545 81.3635 70.2999V66.9419C81.3635 66.7873 81.2382 66.662 81.0834 66.662Z" fill="#4E4E4E"/>
<path d="M81.0834 66.662H77.723C77.5684 66.662 77.4431 66.7873 77.4431 66.9419V70.2999C77.4431 70.4545 77.5684 70.5798 77.723 70.5798H81.0834C81.2382 70.5798 81.3635 70.4545 81.3635 70.2999V66.9419C81.3635 66.7873 81.2382 66.662 81.0834 66.662Z" stroke="#626C84" stroke-linecap="round" stroke-linejoin="round"/>
</g>
<g style="mix-blend-mode:multiply" opacity="0.33">
<path d="M94.3733 66.662H84.2921C84.1374 66.662 84.012 66.7873 84.012 66.9419V70.2999C84.012 70.4545 84.1374 70.5798 84.2921 70.5798H94.3733C94.5279 70.5798 94.6534 70.4545 94.6534 70.2999V66.9419C94.6534 66.7873 94.5279 66.662 94.3733 66.662Z" fill="#4E4E4E"/>
<path d="M94.3733 66.662H84.2921C84.1374 66.662 84.012 66.7873 84.012 66.9419V70.2999C84.012 70.4545 84.1374 70.5798 84.2921 70.5798H94.3733C94.5279 70.5798 94.6534 70.4545 94.6534 70.2999V66.9419C94.6534 66.7873 94.5279 66.662 94.3733 66.662Z" stroke="#626C84" stroke-linecap="round" stroke-linejoin="round"/>
</g>
<g style="mix-blend-mode:multiply" opacity="0.33">
<path d="M48.5962 60.9308H45.2358C45.0812 60.9308 44.9558 61.056 44.9558 61.2106V64.5688C44.9558 64.7234 45.0812 64.8485 45.2358 64.8485H48.5962C48.7509 64.8485 48.8762 64.7234 48.8762 64.5688V61.2106C48.8762 61.056 48.7509 60.9308 48.5962 60.9308Z" fill="#4E4E4E"/>
<path d="M48.5962 60.9308H45.2358C45.0812 60.9308 44.9558 61.056 44.9558 61.2106V64.5688C44.9558 64.7234 45.0812 64.8485 45.2358 64.8485H48.5962C48.7509 64.8485 48.8762 64.7234 48.8762 64.5688V61.2106C48.8762 61.056 48.7509 60.9308 48.5962 60.9308Z" stroke="#626C84" stroke-linecap="round" stroke-linejoin="round"/>
</g>
<g style="mix-blend-mode:multiply" opacity="0.33">
<path d="M42.5365 60.9308H35.8157C35.6612 60.9308 35.5358 61.056 35.5358 61.2106V64.5688C35.5358 64.7234 35.6612 64.8485 35.8157 64.8485H42.5365C42.6913 64.8485 42.8166 64.7234 42.8166 64.5688V61.2106C42.8166 61.056 42.6913 60.9308 42.5365 60.9308Z" fill="#4E4E4E"/>
<path d="M42.5365 60.9308H35.8157C35.6612 60.9308 35.5358 61.056 35.5358 61.2106V64.5688C35.5358 64.7234 35.6612 64.8485 35.8157 64.8485H42.5365C42.6913 64.8485 42.8166 64.7234 42.8166 64.5688V61.2106C42.8166 61.056 42.6913 60.9308 42.5365 60.9308Z" stroke="#626C84" stroke-linecap="round" stroke-linejoin="round"/>
</g>
<g style="mix-blend-mode:multiply" opacity="0.33">
<path d="M54.6556 60.9308H51.2952C51.1406 60.9308 51.0153 61.056 51.0153 61.2106V64.5688C51.0153 64.7234 51.1406 64.8485 51.2952 64.8485H54.6556C54.8103 64.8485 54.9357 64.7234 54.9357 64.5688V61.2106C54.9357 61.056 54.8103 60.9308 54.6556 60.9308Z" fill="#4E4E4E"/>
<path d="M54.6556 60.9308H51.2952C51.1406 60.9308 51.0153 61.056 51.0153 61.2106V64.5688C51.0153 64.7234 51.1406 64.8485 51.2952 64.8485H54.6556C54.8103 64.8485 54.9357 64.7234 54.9357 64.5688V61.2106C54.9357 61.056 54.8103 60.9308 54.6556 60.9308Z" stroke="#626C84" stroke-linecap="round" stroke-linejoin="round"/>
</g>
<g style="mix-blend-mode:multiply" opacity="0.33">
<path d="M60.7152 60.9308H57.3548C57.2001 60.9308 57.0747 61.056 57.0747 61.2106V64.5688C57.0747 64.7234 57.2001 64.8485 57.3548 64.8485H60.7152C60.8698 64.8485 60.9951 64.7234 60.9951 64.5688V61.2106C60.9951 61.056 60.8698 60.9308 60.7152 60.9308Z" fill="#4E4E4E"/>
<path d="M60.7152 60.9308H57.3548C57.2001 60.9308 57.0747 61.056 57.0747 61.2106V64.5688C57.0747 64.7234 57.2001 64.8485 57.3548 64.8485H60.7152C60.8698 64.8485 60.9951 64.7234 60.9951 64.5688V61.2106C60.9951 61.056 60.8698 60.9308 60.7152 60.9308Z" stroke="#626C84" stroke-linecap="round" stroke-linejoin="round"/>
</g>
<g style="mix-blend-mode:multiply" opacity="0.33">
<path d="M66.7747 60.9308H63.4143C63.2596 60.9308 63.1342 61.056 63.1342 61.2106V64.5688C63.1342 64.7234 63.2596 64.8485 63.4143 64.8485H66.7747C66.9293 64.8485 67.0546 64.7234 67.0546 64.5688V61.2106C67.0546 61.056 66.9293 60.9308 66.7747 60.9308Z" fill="#4E4E4E"/>
<path d="M66.7747 60.9308H63.4143C63.2596 60.9308 63.1342 61.056 63.1342 61.2106V64.5688C63.1342 64.7234 63.2596 64.8485 63.4143 64.8485H66.7747C66.9293 64.8485 67.0546 64.7234 67.0546 64.5688V61.2106C67.0546 61.056 66.9293 60.9308 66.7747 60.9308Z" stroke="#626C84" stroke-linecap="round" stroke-linejoin="round"/>
</g>
<g style="mix-blend-mode:multiply" opacity="0.33">
<path d="M72.8343 60.9308H69.4739C69.3192 60.9308 69.1938 61.056 69.1938 61.2106V64.5688C69.1938 64.7234 69.3192 64.8485 69.4739 64.8485H72.8343C72.9889 64.8485 73.1142 64.7234 73.1142 64.5688V61.2106C73.1142 61.056 72.9889 60.9308 72.8343 60.9308Z" fill="#4E4E4E"/>
<path d="M72.8343 60.9308H69.4739C69.3192 60.9308 69.1938 61.056 69.1938 61.2106V64.5688C69.1938 64.7234 69.3192 64.8485 69.4739 64.8485H72.8343C72.9889 64.8485 73.1142 64.7234 73.1142 64.5688V61.2106C73.1142 61.056 72.9889 60.9308 72.8343 60.9308Z" stroke="#626C84" stroke-linecap="round" stroke-linejoin="round"/>
</g>
<g style="mix-blend-mode:multiply" opacity="0.33">
<path d="M78.8938 60.9308H75.5334C75.3788 60.9308 75.2533 61.056 75.2533 61.2106V64.5688C75.2533 64.7234 75.3788 64.8485 75.5334 64.8485H78.8938C79.0485 64.8485 79.1739 64.7234 79.1739 64.5688V61.2106C79.1739 61.056 79.0485 60.9308 78.8938 60.9308Z" fill="#4E4E4E"/>
<path d="M78.8938 60.9308H75.5334C75.3788 60.9308 75.2533 61.056 75.2533 61.2106V64.5688C75.2533 64.7234 75.3788 64.8485 75.5334 64.8485H78.8938C79.0485 64.8485 79.1739 64.7234 79.1739 64.5688V61.2106C79.1739 61.056 79.0485 60.9308 78.8938 60.9308Z" stroke="#626C84" stroke-linecap="round" stroke-linejoin="round"/>
</g>
<g style="mix-blend-mode:multiply" opacity="0.33">
<path d="M84.9533 60.9308H81.5929C81.4383 60.9308 81.3128 61.056 81.3128 61.2106V64.5688C81.3128 64.7234 81.4383 64.8485 81.5929 64.8485H84.9533C85.1078 64.8485 85.2333 64.7234 85.2333 64.5688V61.2106C85.2333 61.056 85.1078 60.9308 84.9533 60.9308Z" fill="#4E4E4E"/>
<path d="M84.9533 60.9308H81.5929C81.4383 60.9308 81.3128 61.056 81.3128 61.2106V64.5688C81.3128 64.7234 81.4383 64.8485 81.5929 64.8485H84.9533C85.1078 64.8485 85.2333 64.7234 85.2333 64.5688V61.2106C85.2333 61.056 85.1078 60.9308 84.9533 60.9308Z" stroke="#626C84" stroke-linecap="round" stroke-linejoin="round"/>
</g>
<g style="mix-blend-mode:multiply" opacity="0.33">
<path d="M94.3733 60.9308H87.6525C87.4978 60.9308 87.3724 61.056 87.3724 61.2106V64.5688C87.3724 64.7234 87.4978 64.8485 87.6525 64.8485H94.3733C94.5279 64.8485 94.6534 64.7234 94.6534 64.5688V61.2106C94.6534 61.056 94.5279 60.9308 94.3733 60.9308Z" fill="#4E4E4E"/>
<path d="M94.3733 60.9308H87.6525C87.4978 60.9308 87.3724 61.056 87.3724 61.2106V64.5688C87.3724 64.7234 87.4978 64.8485 87.6525 64.8485H94.3733C94.5279 64.8485 94.6534 64.7234 94.6534 64.5688V61.2106C94.6534 61.056 94.5279 60.9308 94.3733 60.9308Z" stroke="#626C84" stroke-linecap="round" stroke-linejoin="round"/>
</g>
<g style="mix-blend-mode:multiply" opacity="0.33">
<path d="M45.3092 55.446H41.9488C41.7942 55.446 41.6689 55.5714 41.6689 55.7259V59.084C41.6689 59.2386 41.7942 59.3639 41.9488 59.3639H45.3092C45.4639 59.3639 45.5893 59.2386 45.5893 59.084V55.7259C45.5893 55.5714 45.4639 55.446 45.3092 55.446Z" fill="#4E4E4E"/>
<path d="M45.3092 55.446H41.9488C41.7942 55.446 41.6689 55.5714 41.6689 55.7259V59.084C41.6689 59.2386 41.7942 59.3639 41.9488 59.3639H45.3092C45.4639 59.3639 45.5893 59.2386 45.5893 59.084V55.7259C45.5893 55.5714 45.4639 55.446 45.3092 55.446Z" stroke="#626C84" stroke-linecap="round" stroke-linejoin="round"/>
</g>
<g style="mix-blend-mode:multiply" opacity="0.33">
<path d="M39.1761 55.446H35.8157C35.6612 55.446 35.5358 55.5714 35.5358 55.7259V59.084C35.5358 59.2386 35.6612 59.3639 35.8157 59.3639H39.1761C39.3309 59.3639 39.4562 59.2386 39.4562 59.084V55.7259C39.4562 55.5714 39.3309 55.446 39.1761 55.446Z" fill="#4E4E4E"/>
<path d="M39.1761 55.446H35.8157C35.6612 55.446 35.5358 55.5714 35.5358 55.7259V59.084C35.5358 59.2386 35.6612 59.3639 35.8157 59.3639H39.1761C39.3309 59.3639 39.4562 59.2386 39.4562 59.084V55.7259C39.4562 55.5714 39.3309 55.446 39.1761 55.446Z" stroke="#626C84" stroke-linecap="round" stroke-linejoin="round"/>
</g>
<g style="mix-blend-mode:multiply" opacity="0.33">
<path d="M51.4422 55.446H48.0818C47.9273 55.446 47.8019 55.5714 47.8019 55.7259V59.084C47.8019 59.2386 47.9273 59.3639 48.0818 59.3639H51.4422C51.597 59.3639 51.7223 59.2386 51.7223 59.084V55.7259C51.7223 55.5714 51.597 55.446 51.4422 55.446Z" fill="#4E4E4E"/>
<path d="M51.4422 55.446H48.0818C47.9273 55.446 47.8019 55.5714 47.8019 55.7259V59.084C47.8019 59.2386 47.9273 59.3639 48.0818 59.3639H51.4422C51.597 59.3639 51.7223 59.2386 51.7223 59.084V55.7259C51.7223 55.5714 51.597 55.446 51.4422 55.446Z" stroke="#626C84" stroke-linecap="round" stroke-linejoin="round"/>
</g>
<g style="mix-blend-mode:multiply" opacity="0.33">
<path d="M57.5751 55.446H54.2147C54.0601 55.446 53.9348 55.5714 53.9348 55.7259V59.084C53.9348 59.2386 54.0601 59.3639 54.2147 59.3639H57.5751C57.7299 59.3639 57.8552 59.2386 57.8552 59.084V55.7259C57.8552 55.5714 57.7299 55.446 57.5751 55.446Z" fill="#4E4E4E"/>
<path d="M57.5751 55.446H54.2147C54.0601 55.446 53.9348 55.5714 53.9348 55.7259V59.084C53.9348 59.2386 54.0601 59.3639 54.2147 59.3639H57.5751C57.7299 59.3639 57.8552 59.2386 57.8552 59.084V55.7259C57.8552 55.5714 57.7299 55.446 57.5751 55.446Z" stroke="#626C84" stroke-linecap="round" stroke-linejoin="round"/>
</g>
<g style="mix-blend-mode:multiply" opacity="0.33">
<path d="M63.7081 55.446H60.3477C60.1932 55.446 60.0677 55.5714 60.0677 55.7259V59.084C60.0677 59.2386 60.1932 59.3639 60.3477 59.3639H63.7081C63.8629 59.3639 63.9882 59.2386 63.9882 59.084V55.7259C63.9882 55.5714 63.8629 55.446 63.7081 55.446Z" fill="#4E4E4E"/>
<path d="M63.7081 55.446H60.3477C60.1932 55.446 60.0677 55.5714 60.0677 55.7259V59.084C60.0677 59.2386 60.1932 59.3639 60.3477 59.3639H63.7081C63.8629 59.3639 63.9882 59.2386 63.9882 59.084V55.7259C63.9882 55.5714 63.8629 55.446 63.7081 55.446Z" stroke="#626C84" stroke-linecap="round" stroke-linejoin="round"/>
</g>
<g style="mix-blend-mode:multiply" opacity="0.33">
<path d="M69.8413 55.446H66.4809C66.3263 55.446 66.2008 55.5714 66.2008 55.7259V59.084C66.2008 59.2386 66.3263 59.3639 66.4809 59.3639H69.8413C69.996 59.3639 70.1213 59.2386 70.1213 59.084V55.7259C70.1213 55.5714 69.996 55.446 69.8413 55.446Z" fill="#4E4E4E"/>
<path d="M69.8413 55.446H66.4809C66.3263 55.446 66.2008 55.5714 66.2008 55.7259V59.084C66.2008 59.2386 66.3263 59.3639 66.4809 59.3639H69.8413C69.996 59.3639 70.1213 59.2386 70.1213 59.084V55.7259C70.1213 55.5714 69.996 55.446 69.8413 55.446Z" stroke="#626C84" stroke-linecap="round" stroke-linejoin="round"/>
</g>
<g style="mix-blend-mode:multiply" opacity="0.33">
<path d="M75.9743 55.446H72.6139C72.4593 55.446 72.3338 55.5714 72.3338 55.7259V59.084C72.3338 59.2386 72.4593 59.3639 72.6139 59.3639H75.9743C76.1291 59.3639 76.2544 59.2386 76.2544 59.084V55.7259C76.2544 55.5714 76.1291 55.446 75.9743 55.446Z" fill="#4E4E4E"/>
<path d="M75.9743 55.446H72.6139C72.4593 55.446 72.3338 55.5714 72.3338 55.7259V59.084C72.3338 59.2386 72.4593 59.3639 72.6139 59.3639H75.9743C76.1291 59.3639 76.2544 59.2386 76.2544 59.084V55.7259C76.2544 55.5714 76.1291 55.446 75.9743 55.446Z" stroke="#626C84" stroke-linecap="round" stroke-linejoin="round"/>
</g>
<g style="mix-blend-mode:multiply" opacity="0.33">
<path d="M82.1072 55.446H78.7468C78.5922 55.446 78.4667 55.5714 78.4667 55.7259V59.084C78.4667 59.2386 78.5922 59.3639 78.7468 59.3639H82.1072C82.2619 59.3639 82.3873 59.2386 82.3873 59.084V55.7259C82.3873 55.5714 82.2619 55.446 82.1072 55.446Z" fill="#4E4E4E"/>
<path d="M82.1072 55.446H78.7468C78.5922 55.446 78.4667 55.5714 78.4667 55.7259V59.084C78.4667 59.2386 78.5922 59.3639 78.7468 59.3639H82.1072C82.2619 59.3639 82.3873 59.2386 82.3873 59.084V55.7259C82.3873 55.5714 82.2619 55.446 82.1072 55.446Z" stroke="#626C84" stroke-linecap="round" stroke-linejoin="round"/>
</g>
<g style="mix-blend-mode:multiply" opacity="0.33">
<path d="M88.2402 55.446H84.8798C84.7252 55.446 84.5997 55.5714 84.5997 55.7259V59.084C84.5997 59.2386 84.7252 59.3639 84.8798 59.3639H88.2402C88.395 59.3639 88.5203 59.2386 88.5203 59.084V55.7259C88.5203 55.5714 88.395 55.446 88.2402 55.446Z" fill="#4E4E4E"/>
<path d="M88.2402 55.446H84.8798C84.7252 55.446 84.5997 55.5714 84.5997 55.7259V59.084C84.5997 59.2386 84.7252 59.3639 84.8798 59.3639H88.2402C88.395 59.3639 88.5203 59.2386 88.5203 59.084V55.7259C88.5203 55.5714 88.395 55.446 88.2402 55.446Z" stroke="#626C84" stroke-linecap="round" stroke-linejoin="round"/>
</g>
<g style="mix-blend-mode:multiply" opacity="0.33">
<path d="M94.3733 55.446H91.0129C90.8581 55.446 90.7328 55.5714 90.7328 55.7259V59.084C90.7328 59.2386 90.8581 59.3639 91.0129 59.3639H94.3733C94.5278 59.3639 94.6534 59.2386 94.6534 59.084V55.7259C94.6534 55.5714 94.5278 55.446 94.3733 55.446Z" fill="#4E4E4E"/>
<path d="M94.3733 55.446H91.0129C90.8581 55.446 90.7328 55.5714 90.7328 55.7259V59.084C90.7328 59.2386 90.8581 59.3639 91.0129 59.3639H94.3733C94.5278 59.3639 94.6534 59.2386 94.6534 59.084V55.7259C94.6534 55.5714 94.5278 55.446 94.3733 55.446Z" stroke="#626C84" stroke-linecap="round" stroke-linejoin="round"/>
</g>
<g style="mix-blend-mode:multiply" opacity="0.33">
<path d="M45.2357 72.2367H41.8753C41.7208 72.2367 41.5954 72.3619 41.5954 72.5164V75.8747C41.5954 76.0292 41.7208 76.1546 41.8753 76.1546H45.2357C45.3905 76.1546 45.5158 76.0292 45.5158 75.8747V72.5164C45.5158 72.3619 45.3905 72.2367 45.2357 72.2367Z" fill="#4E4E4E"/>
</g>
<g style="mix-blend-mode:multiply" opacity="0.33">
<path d="M39.1761 72.2367H35.8157C35.6612 72.2367 35.5358 72.3619 35.5358 72.5164V75.8747C35.5358 76.0292 35.6612 76.1546 35.8157 76.1546H39.1761C39.3309 76.1546 39.4562 76.0292 39.4562 75.8747V72.5164C39.4562 72.3619 39.3309 72.2367 39.1761 72.2367Z" fill="#4E4E4E"/>
</g>
<g style="mix-blend-mode:multiply" opacity="0.33">
<path d="M75.5332 72.2367H47.9348C47.7802 72.2367 47.6549 72.3619 47.6549 72.5164V75.8747C47.6549 76.0292 47.7802 76.1546 47.9348 76.1546H75.5332C75.6878 76.1546 75.8133 76.0292 75.8133 75.8747V72.5164C75.8133 72.3619 75.6878 72.2367 75.5332 72.2367Z" fill="#4E4E4E"/>
</g>
<g style="mix-blend-mode:multiply" opacity="0.33">
<path d="M81.5928 72.2367H78.2324C78.0779 72.2367 77.9524 72.3619 77.9524 72.5164V75.8747C77.9524 76.0292 78.0779 76.1546 78.2324 76.1546H81.5928C81.7476 76.1546 81.8729 76.0292 81.8729 75.8747V72.5164C81.8729 72.3619 81.7476 72.2367 81.5928 72.2367Z" fill="#4E4E4E"/>
</g>
<g style="mix-blend-mode:multiply" opacity="0.33">
<path d="M90.4529 74.4404H88.2125C88.0579 74.4404 87.9326 74.5658 87.9326 74.7202V75.8747C87.9326 76.0292 88.0579 76.1544 88.2125 76.1544H90.4529C90.6074 76.1544 90.7328 76.0292 90.7328 75.8747V74.7202C90.7328 74.5658 90.6074 74.4404 90.4529 74.4404Z" fill="#4E4E4E"/>
</g>
<g style="mix-blend-mode:multiply" opacity="0.33">
<path d="M90.4529 72.2367H88.2125C88.0579 72.2367 87.9326 72.3619 87.9326 72.5164V73.6709C87.9326 73.8255 88.0579 73.9507 88.2125 73.9507H90.4529C90.6074 73.9507 90.7328 73.8255 90.7328 73.6709V72.5164C90.7328 72.3619 90.6074 72.2367 90.4529 72.2367Z" fill="#4E4E4E"/>
</g>
<g style="mix-blend-mode:multiply" opacity="0.33">
<path d="M94.3733 74.4404H92.1331C91.9784 74.4404 91.853 74.5658 91.853 74.7202V75.8747C91.853 76.0292 91.9784 76.1544 92.1331 76.1544H94.3733C94.528 76.1544 94.6534 76.0292 94.6534 75.8747V74.7202C94.6534 74.5658 94.528 74.4404 94.3733 74.4404Z" fill="#4E4E4E"/>
</g>
<g style="mix-blend-mode:multiply" opacity="0.33">
<path d="M86.5323 74.4404H84.2921C84.1374 74.4404 84.012 74.5658 84.012 74.7202V75.8747C84.012 76.0292 84.1374 76.1544 84.2921 76.1544H86.5323C86.6871 76.1544 86.8124 76.0292 86.8124 75.8747V74.7202C86.8124 74.5658 86.6871 74.4404 86.5323 74.4404Z" fill="#4E4E4E"/>
</g>
<g style="mix-blend-mode:multiply" opacity="0.33">
<path d="M44.6758 66.662H35.8157C35.6612 66.662 35.5358 66.7873 35.5358 66.9419V70.2999C35.5358 70.4545 35.6612 70.5798 35.8157 70.5798H44.6758C44.8303 70.5798 44.9559 70.4545 44.9559 70.2999V66.9419C44.9559 66.7873 44.8303 66.662 44.6758 66.662Z" fill="#4E4E4E"/>
</g>
<g style="mix-blend-mode:multiply" opacity="0.33">
<path d="M50.7858 66.662H47.4254C47.2708 66.662 47.1453 66.7873 47.1453 66.9419V70.2999C47.1453 70.4545 47.2708 70.5798 47.4254 70.5798H50.7858C50.9403 70.5798 51.0658 70.4545 51.0658 70.2999V66.9419C51.0658 66.7873 50.9403 66.662 50.7858 66.662Z" fill="#4E4E4E"/>
</g>
<g style="mix-blend-mode:multiply" opacity="0.33">
<path d="M56.8454 66.662H53.485C53.3303 66.662 53.2049 66.7873 53.2049 66.9419V70.2999C53.2049 70.4545 53.3303 70.5798 53.485 70.5798H56.8454C57 70.5798 57.1255 70.4545 57.1255 70.2999V66.9419C57.1255 66.7873 57 66.662 56.8454 66.662Z" fill="#4E4E4E"/>
</g>
<g style="mix-blend-mode:multiply" opacity="0.33">
<path d="M62.9049 66.662H59.5445C59.3898 66.662 59.2644 66.7873 59.2644 66.9419V70.2999C59.2644 70.4545 59.3898 70.5798 59.5445 70.5798H62.9049C63.0595 70.5798 63.185 70.4545 63.185 70.2999V66.9419C63.185 66.7873 63.0595 66.662 62.9049 66.662Z" fill="#4E4E4E"/>
</g>
<g style="mix-blend-mode:multiply" opacity="0.33">
<path d="M68.9643 66.662H65.6039C65.4494 66.662 65.324 66.7873 65.324 66.9419V70.2999C65.324 70.4545 65.4494 70.5798 65.6039 70.5798H68.9643C69.1191 70.5798 69.2444 70.4545 69.2444 70.2999V66.9419C69.2444 66.7873 69.1191 66.662 68.9643 66.662Z" fill="#4E4E4E"/>
</g>
<g style="mix-blend-mode:multiply" opacity="0.33">
<path d="M75.0238 66.662H71.6634C71.5088 66.662 71.3835 66.7873 71.3835 66.9419V70.2999C71.3835 70.4545 71.5088 70.5798 71.6634 70.5798H75.0238C75.1785 70.5798 75.3039 70.4545 75.3039 70.2999V66.9419C75.3039 66.7873 75.1785 66.662 75.0238 66.662Z" fill="#4E4E4E"/>
</g>
<g style="mix-blend-mode:multiply" opacity="0.33">
<path d="M81.0834 66.662H77.723C77.5684 66.662 77.4431 66.7873 77.4431 66.9419V70.2999C77.4431 70.4545 77.5684 70.5798 77.723 70.5798H81.0834C81.2382 70.5798 81.3635 70.4545 81.3635 70.2999V66.9419C81.3635 66.7873 81.2382 66.662 81.0834 66.662Z" fill="#4E4E4E"/>
</g>
<g style="mix-blend-mode:multiply" opacity="0.33">
<path d="M94.3733 66.662H84.2921C84.1374 66.662 84.012 66.7873 84.012 66.9419V70.2999C84.012 70.4545 84.1374 70.5798 84.2921 70.5798H94.3733C94.5279 70.5798 94.6534 70.4545 94.6534 70.2999V66.9419C94.6534 66.7873 94.5279 66.662 94.3733 66.662Z" fill="#4E4E4E"/>
</g>
<g style="mix-blend-mode:multiply" opacity="0.33">
<path d="M48.5962 60.9308H45.2358C45.0812 60.9308 44.9558 61.056 44.9558 61.2106V64.5688C44.9558 64.7234 45.0812 64.8485 45.2358 64.8485H48.5962C48.7509 64.8485 48.8762 64.7234 48.8762 64.5688V61.2106C48.8762 61.056 48.7509 60.9308 48.5962 60.9308Z" fill="#4E4E4E"/>
</g>
<g style="mix-blend-mode:multiply" opacity="0.33">
<path d="M42.5365 60.9308H35.8157C35.6612 60.9308 35.5358 61.056 35.5358 61.2106V64.5688C35.5358 64.7234 35.6612 64.8485 35.8157 64.8485H42.5365C42.6913 64.8485 42.8166 64.7234 42.8166 64.5688V61.2106C42.8166 61.056 42.6913 60.9308 42.5365 60.9308Z" fill="#4E4E4E"/>
</g>
<g style="mix-blend-mode:multiply" opacity="0.33">
<path d="M54.6556 60.9308H51.2952C51.1406 60.9308 51.0153 61.056 51.0153 61.2106V64.5688C51.0153 64.7234 51.1406 64.8485 51.2952 64.8485H54.6556C54.8103 64.8485 54.9357 64.7234 54.9357 64.5688V61.2106C54.9357 61.056 54.8103 60.9308 54.6556 60.9308Z" fill="#4E4E4E"/>
</g>
<g style="mix-blend-mode:multiply" opacity="0.33">
<path d="M60.7152 60.9308H57.3548C57.2001 60.9308 57.0747 61.056 57.0747 61.2106V64.5688C57.0747 64.7234 57.2001 64.8485 57.3548 64.8485H60.7152C60.8698 64.8485 60.9951 64.7234 60.9951 64.5688V61.2106C60.9951 61.056 60.8698 60.9308 60.7152 60.9308Z" fill="#4E4E4E"/>
</g>
<g style="mix-blend-mode:multiply" opacity="0.33">
<path d="M66.7747 60.9308H63.4143C63.2596 60.9308 63.1342 61.056 63.1342 61.2106V64.5688C63.1342 64.7234 63.2596 64.8485 63.4143 64.8485H66.7747C66.9293 64.8485 67.0546 64.7234 67.0546 64.5688V61.2106C67.0546 61.056 66.9293 60.9308 66.7747 60.9308Z" fill="#4E4E4E"/>
</g>
<g style="mix-blend-mode:multiply" opacity="0.33">
<path d="M72.8343 60.9308H69.4739C69.3192 60.9308 69.1938 61.056 69.1938 61.2106V64.5688C69.1938 64.7234 69.3192 64.8485 69.4739 64.8485H72.8343C72.9889 64.8485 73.1142 64.7234 73.1142 64.5688V61.2106C73.1142 61.056 72.9889 60.9308 72.8343 60.9308Z" fill="#4E4E4E"/>
</g>
<g style="mix-blend-mode:multiply" opacity="0.33">
<path d="M78.8938 60.9308H75.5334C75.3788 60.9308 75.2533 61.056 75.2533 61.2106V64.5688C75.2533 64.7234 75.3788 64.8485 75.5334 64.8485H78.8938C79.0485 64.8485 79.1739 64.7234 79.1739 64.5688V61.2106C79.1739 61.056 79.0485 60.9308 78.8938 60.9308Z" fill="#4E4E4E"/>
</g>
<g style="mix-blend-mode:multiply" opacity="0.33">
<path d="M84.9533 60.9308H81.5929C81.4383 60.9308 81.3128 61.056 81.3128 61.2106V64.5688C81.3128 64.7234 81.4383 64.8485 81.5929 64.8485H84.9533C85.1078 64.8485 85.2333 64.7234 85.2333 64.5688V61.2106C85.2333 61.056 85.1078 60.9308 84.9533 60.9308Z" fill="#4E4E4E"/>
</g>
<g style="mix-blend-mode:multiply" opacity="0.33">
<path d="M94.3733 60.9308H87.6525C87.4978 60.9308 87.3724 61.056 87.3724 61.2106V64.5688C87.3724 64.7234 87.4978 64.8485 87.6525 64.8485H94.3733C94.5279 64.8485 94.6534 64.7234 94.6534 64.5688V61.2106C94.6534 61.056 94.5279 60.9308 94.3733 60.9308Z" fill="#4E4E4E"/>
</g>
<g style="mix-blend-mode:multiply" opacity="0.33">
<path d="M45.3092 55.446H41.9488C41.7942 55.446 41.6689 55.5714 41.6689 55.7259V59.084C41.6689 59.2386 41.7942 59.3639 41.9488 59.3639H45.3092C45.4639 59.3639 45.5893 59.2386 45.5893 59.084V55.7259C45.5893 55.5714 45.4639 55.446 45.3092 55.446Z" fill="#4E4E4E"/>
</g>
<g style="mix-blend-mode:multiply" opacity="0.33">
<path d="M39.1761 55.446H35.8157C35.6612 55.446 35.5358 55.5714 35.5358 55.7259V59.084C35.5358 59.2386 35.6612 59.3639 35.8157 59.3639H39.1761C39.3309 59.3639 39.4562 59.2386 39.4562 59.084V55.7259C39.4562 55.5714 39.3309 55.446 39.1761 55.446Z" fill="#4E4E4E"/>
</g>
<g style="mix-blend-mode:multiply" opacity="0.33">
<path d="M51.4422 55.446H48.0818C47.9273 55.446 47.8019 55.5714 47.8019 55.7259V59.084C47.8019 59.2386 47.9273 59.3639 48.0818 59.3639H51.4422C51.597 59.3639 51.7223 59.2386 51.7223 59.084V55.7259C51.7223 55.5714 51.597 55.446 51.4422 55.446Z" fill="#4E4E4E"/>
</g>
<g style="mix-blend-mode:multiply" opacity="0.33">
<path d="M57.5751 55.446H54.2147C54.0601 55.446 53.9348 55.5714 53.9348 55.7259V59.084C53.9348 59.2386 54.0601 59.3639 54.2147 59.3639H57.5751C57.7299 59.3639 57.8552 59.2386 57.8552 59.084V55.7259C57.8552 55.5714 57.7299 55.446 57.5751 55.446Z" fill="#4E4E4E"/>
</g>
<g style="mix-blend-mode:multiply" opacity="0.33">
<path d="M63.7081 55.446H60.3477C60.1932 55.446 60.0677 55.5714 60.0677 55.7259V59.084C60.0677 59.2386 60.1932 59.3639 60.3477 59.3639H63.7081C63.8629 59.3639 63.9882 59.2386 63.9882 59.084V55.7259C63.9882 55.5714 63.8629 55.446 63.7081 55.446Z" fill="#4E4E4E"/>
</g>
<g style="mix-blend-mode:multiply" opacity="0.33">
<path d="M69.8413 55.446H66.4809C66.3263 55.446 66.2008 55.5714 66.2008 55.7259V59.084C66.2008 59.2386 66.3263 59.3639 66.4809 59.3639H69.8413C69.996 59.3639 70.1213 59.2386 70.1213 59.084V55.7259C70.1213 55.5714 69.996 55.446 69.8413 55.446Z" fill="#4E4E4E"/>
</g>
<g style="mix-blend-mode:multiply" opacity="0.33">
<path d="M75.9743 55.446H72.6139C72.4593 55.446 72.3338 55.5714 72.3338 55.7259V59.084C72.3338 59.2386 72.4593 59.3639 72.6139 59.3639H75.9743C76.1291 59.3639 76.2544 59.2386 76.2544 59.084V55.7259C76.2544 55.5714 76.1291 55.446 75.9743 55.446Z" fill="#4E4E4E"/>
</g>
<g style="mix-blend-mode:multiply" opacity="0.33">
<path d="M82.1072 55.446H78.7468C78.5922 55.446 78.4667 55.5714 78.4667 55.7259V59.084C78.4667 59.2386 78.5922 59.3639 78.7468 59.3639H82.1072C82.2619 59.3639 82.3873 59.2386 82.3873 59.084V55.7259C82.3873 55.5714 82.2619 55.446 82.1072 55.446Z" fill="#4E4E4E"/>
</g>
<g style="mix-blend-mode:multiply" opacity="0.33">
<path d="M88.2402 55.446H84.8798C84.7252 55.446 84.5997 55.5714 84.5997 55.7259V59.084C84.5997 59.2386 84.7252 59.3639 84.8798 59.3639H88.2402C88.395 59.3639 88.5203 59.2386 88.5203 59.084V55.7259C88.5203 55.5714 88.395 55.446 88.2402 55.446Z" fill="#4E4E4E"/>
</g>
<g style="mix-blend-mode:multiply" opacity="0.33">
<path d="M94.3733 55.446H91.0129C90.8581 55.446 90.7328 55.5714 90.7328 55.7259V59.084C90.7328 59.2386 90.8581 59.3639 91.0129 59.3639H94.3733C94.5278 59.3639 94.6534 59.2386 94.6534 59.084V55.7259C94.6534 55.5714 94.5278 55.446 94.3733 55.446Z" fill="#4E4E4E"/>
</g>
<g style="mix-blend-mode:multiply" opacity="0.33">
<path d="M41.2915 46.5176H88.8972V50.2806C88.8972 50.5773 88.7791 50.8621 88.569 51.0719C88.359 51.282 88.074 51.3999 87.777 51.3999H42.4117C42.1146 51.3999 41.8296 51.282 41.6196 51.0719C41.4096 50.8621 41.2915 50.5773 41.2915 50.2806V46.5176Z" fill="#4E4E4E"/>
</g>
<g style="mix-blend-mode:multiply" opacity="0.25">
<path d="M87.777 50.2801H42.4117C42.1146 50.2801 41.8296 50.1621 41.6196 49.9523C41.4096 49.7422 41.2915 49.4576 41.2915 49.1607V50.2801C41.2915 50.577 41.4096 50.8618 41.6196 51.0716C41.8296 51.2815 42.1146 51.3994 42.4117 51.3994H87.777C88.074 51.3994 88.359 51.2815 88.569 51.0716C88.7791 50.8618 88.8972 50.577 88.8972 50.2801V49.1607C88.8972 49.4576 88.7791 49.7422 88.569 49.9523C88.359 50.1621 88.074 50.2801 87.777 50.2801Z" fill="#4E4E4E"/>
</g>
<g style="mix-blend-mode:multiply" opacity="0.33">
<path d="M41.2915 46.5176H88.8972V50.2806C88.8972 50.5773 88.7791 50.8621 88.569 51.0719C88.359 51.282 88.074 51.3999 87.777 51.3999H42.4117C42.1146 51.3999 41.8296 51.282 41.6196 51.0719C41.4096 50.8621 41.2915 50.5773 41.2915 50.2806V46.5176Z" fill="#4E4E4E"/>
<path d="M41.2915 46.5176H88.8972V50.2806C88.8972 50.5773 88.7791 50.8621 88.569 51.0719C88.359 51.282 88.074 51.3999 87.777 51.3999H42.4117C42.1146 51.3999 41.8296 51.282 41.6196 51.0719C41.4096 50.8621 41.2915 50.5773 41.2915 50.2806V46.5176Z" stroke="#46505C" stroke-linecap="round" stroke-linejoin="round"/>
</g>
<g style="mix-blend-mode:multiply" opacity="0.33">
<path d="M74.8958 79.9324H55.2936C54.9842 79.9324 54.7334 80.1831 54.7334 80.4922V93.645C54.7334 93.954 54.9842 94.2046 55.2936 94.2046H74.8958C75.2051 94.2046 75.4559 93.954 75.4559 93.645V80.4922C75.4559 80.1831 75.2051 79.9324 74.8958 79.9324Z" fill="#4E4E4E"/>
</g>
<g style="mix-blend-mode:multiply" opacity="0.33">
<path d="M74.8958 79.9324H55.2936C54.9842 79.9324 54.7334 80.1831 54.7334 80.4922V93.645C54.7334 93.954 54.9842 94.2046 55.2936 94.2046H74.8958C75.2051 94.2046 75.4559 93.954 75.4559 93.645V80.4922C75.4559 80.1831 75.2051 79.9324 74.8958 79.9324Z" fill="#4E4E4E"/>
<path d="M74.8958 79.9324H55.2936C54.9842 79.9324 54.7334 80.1831 54.7334 80.4922V93.645C54.7334 93.954 54.9842 94.2046 55.2936 94.2046H74.8958C75.2051 94.2046 75.4559 93.954 75.4559 93.645V80.4922C75.4559 80.1831 75.2051 79.9324 74.8958 79.9324Z" stroke="#626C84" stroke-linecap="round" stroke-linejoin="round"/>
</g>
</g>
<path d="M95.352 0.501002H30.3843C28.219 0.501002 26.4637 2.25513 26.4637 4.41889V42.478C26.4637 44.6418 28.219 46.3959 30.3843 46.3959H95.352C97.5171 46.3959 99.2724 44.6418 99.2724 42.478V4.41889C99.2724 2.25513 97.5171 0.501002 95.352 0.501002Z" stroke="black" stroke-linecap="round" stroke-linejoin="round"/>
<path d="M95.352 0.501002H30.3843C28.219 0.501002 26.4637 2.25513 26.4637 4.41889V42.478C26.4637 44.6418 28.219 46.3959 30.3843 46.3959H95.352C97.5171 46.3959 99.2724 44.6418 99.2724 42.478V4.41889C99.2724 2.25513 97.5171 0.501002 95.352 0.501002Z" fill="#626C84"/>
<path d="M95.352 0.501002H30.3843C28.219 0.501002 26.4637 2.25513 26.4637 4.41889V42.478C26.4637 44.6418 28.219 46.3959 30.3843 46.3959H95.352C97.5171 46.3959 99.2724 44.6418 99.2724 42.478V4.41889C99.2724 2.25513 97.5171 0.501002 95.352 0.501002Z" fill="#626C84"/>
<g style="mix-blend-mode:multiply" opacity="0.17">
<path d="M95.352 0.501002H30.3843C28.219 0.501002 26.4637 2.25513 26.4637 4.41889V39.964C26.4637 42.1277 28.219 43.8818 30.3843 43.8818H95.352C97.5171 43.8818 99.2724 42.1277 99.2724 39.964V4.41889C99.2724 2.25513 97.5171 0.501002 95.352 0.501002Z" fill="#626C84"/>
</g>
<path opacity="0.1" d="M30.3843 1.6194H95.352C96.3917 1.6194 97.3889 2.03206 98.1241 2.76681C98.8594 3.50156 99.2724 4.49808 99.2724 5.53728V42.4769V4.41777C99.2724 3.37874 98.8594 2.38221 98.1241 1.64746C97.3889 0.912712 96.3917 0.500054 95.352 0.500054H30.3843C29.3444 0.500054 28.3474 0.912712 27.6121 1.64746C26.8769 2.38221 26.4637 3.37874 26.4637 4.41777V5.53728C26.4637 4.49808 26.8769 3.50156 27.6121 2.76681C28.3474 2.03206 29.3444 1.6194 30.3843 1.6194Z" fill="white"/>
<g opacity="0.1">
<path opacity="0.1" d="M48.6499 46.3959H53.1498L86.5165 0.501002H82.0168L48.6499 46.3959Z" fill="white"/>
<path opacity="0.1" d="M55.7457 46.3959H57.1302L90.4972 0.500971H89.1124L55.7457 46.3959Z" fill="white"/>
</g>
<path d="M95.352 0.501002H30.3843C28.219 0.501002 26.4637 2.25513 26.4637 4.41889V42.478C26.4637 44.6418 28.219 46.3959 30.3843 46.3959H95.352C97.5171 46.3959 99.2724 44.6418 99.2724 42.478V4.41889C99.2724 2.25513 97.5171 0.501002 95.352 0.501002Z" stroke="#46505C" stroke-linecap="round" stroke-linejoin="round"/>
<path d="M94.2318 40.9331V5.6725H31.5045V40.9331H94.2318Z" fill="#F08222"/>
<g opacity="0.06">
<path opacity="0.06" d="M52.9015 40.9331H57.4014L83.0367 5.6725H78.5368L52.9015 40.9331Z" fill="white"/>
<path opacity="0.06" d="M59.9973 40.9331H61.3819L87.0174 5.67247H85.6329L59.9973 40.9331Z" fill="white"/>
</g>
<path d="M94.2318 40.9331V5.6725H31.5045V40.9331H94.2318Z" stroke="#46505C" stroke-linecap="round" stroke-linejoin="round"/>
<path d="M95.352 46.3959H30.3843C28.219 46.3959 26.4637 48.1501 26.4637 50.3138V90.6117C26.4637 92.7754 28.219 94.5296 30.3843 94.5296H95.352C97.5171 94.5296 99.2724 92.7754 99.2724 90.6117V50.3138C99.2724 48.1501 97.5171 46.3959 95.352 46.3959Z" fill="#E6F3FF"/>
<path d="M98.1522 90.6119V50.3139C98.1522 48.7684 96.8985 47.5155 95.3519 47.5155H30.3843C28.8377 47.5155 27.584 48.7684 27.584 50.3139V90.6119C27.584 92.1575 28.8377 93.4104 30.3843 93.4104H95.3519C96.8985 93.4104 98.1522 92.1575 98.1522 90.6119Z" fill="white" stroke="#E6F3FF" stroke-miterlimit="10"/>
<path d="M58.3734 92.3411H67.3624C67.6595 92.3411 67.9443 92.4591 68.1545 92.6689C68.3645 92.879 68.4825 93.1636 68.4825 93.4605V94.5296H57.2532V93.4605C57.2532 93.1636 57.3711 92.879 57.5813 92.6689C57.7914 92.4591 58.0763 92.3411 58.3734 92.3411Z" fill="#E6F3FF"/>
<path d="M95.352 46.3959H30.3843C28.219 46.3959 26.4637 48.1501 26.4637 50.3138V90.6117C26.4637 92.7754 28.219 94.5296 30.3843 94.5296H95.352C97.5171 94.5296 99.2724 92.7754 99.2724 90.6117V50.3138C99.2724 48.1501 97.5171 46.3959 95.352 46.3959Z" stroke="#46505C" stroke-linecap="round" stroke-linejoin="round"/>
<path d="M94.2318 50.1512H31.5043C31.0404 50.1512 30.6642 50.5271 30.6642 50.9908V75.0576C30.6642 75.5213 31.0404 75.8972 31.5043 75.8972H94.2318C94.6957 75.8972 95.0719 75.5213 95.0719 75.0576V50.9908C95.0719 50.5271 94.6957 50.1512 94.2318 50.1512Z" fill="#E6F3FF"/>
<path d="M43.0093 69.6005H39.649C39.4942 69.6005 39.3689 69.7258 39.3689 69.8804V73.2384C39.3689 73.393 39.4942 73.5184 39.649 73.5184H43.0093C43.1639 73.5184 43.2893 73.393 43.2893 73.2384V69.8804C43.2893 69.7258 43.1639 69.6005 43.0093 69.6005Z" fill="#626C84"/>
<path d="M36.9499 69.6005H33.5895C33.4347 69.6005 33.3094 69.7258 33.3094 69.8804V73.2384C33.3094 73.393 33.4347 73.5184 33.5895 73.5184H36.9499C37.1045 73.5184 37.23 73.393 37.23 73.2384V69.8804C37.23 69.7258 37.1045 69.6005 36.9499 69.6005Z" fill="#626C84"/>
<path d="M73.307 69.6005H45.7086C45.554 69.6005 45.4287 69.7258 45.4287 69.8804V73.2384C45.4287 73.393 45.554 73.5184 45.7086 73.5184H73.307C73.4616 73.5184 73.5871 73.393 73.5871 73.2384V69.8804C73.5871 69.7258 73.4616 69.6005 73.307 69.6005Z" fill="#626C84"/>
<path d="M79.3665 69.6005H76.0061C75.8515 69.6005 75.726 69.7258 75.726 69.8804V73.2384C75.726 73.393 75.8515 73.5184 76.0061 73.5184H79.3665C79.521 73.5184 79.6465 73.393 79.6465 73.2384V69.8804C79.6465 69.7258 79.521 69.6005 79.3665 69.6005Z" fill="#626C84"/>
<path d="M88.2263 71.8044H85.9859C85.8314 71.8044 85.706 71.9297 85.706 72.0843V73.2386C85.706 73.3932 85.8314 73.5185 85.9859 73.5185H88.2263C88.3809 73.5185 88.5064 73.3932 88.5064 73.2386V72.0843C88.5064 71.9297 88.3809 71.8044 88.2263 71.8044Z" fill="#626C84"/>
<path d="M88.2263 69.6005H85.9859C85.8314 69.6005 85.706 69.7258 85.706 69.8804V71.0347C85.706 71.1893 85.8314 71.3146 85.9859 71.3146H88.2263C88.3809 71.3146 88.5064 71.1893 88.5064 71.0347V69.8804C88.5064 69.7258 88.3809 69.6005 88.2263 69.6005Z" fill="#626C84"/>
<path d="M92.1467 71.8044H89.9065C89.7518 71.8044 89.6264 71.9297 89.6264 72.0843V73.2386C89.6264 73.3932 89.7518 73.5185 89.9065 73.5185H92.1467C92.3013 73.5185 92.4268 73.3932 92.4268 73.2386V72.0843C92.4268 71.9297 92.3013 71.8044 92.1467 71.8044Z" fill="#626C84"/>
<path d="M84.3057 71.8044H82.0655C81.911 71.8044 81.7855 71.9297 81.7855 72.0843V73.2386C81.7855 73.3932 81.911 73.5185 82.0655 73.5185H84.3057C84.4605 73.5185 84.5858 73.3932 84.5858 73.2386V72.0843C84.5858 71.9297 84.4605 71.8044 84.3057 71.8044Z" fill="#626C84"/>
<path d="M42.4495 64.0263H33.5895C33.4347 64.0263 33.3094 64.1516 33.3094 64.3062V67.6644C33.3094 67.819 33.4347 67.9442 33.5895 67.9442H42.4495C42.6041 67.9442 42.7294 67.819 42.7294 67.6644V64.3062C42.7294 64.1516 42.6041 64.0263 42.4495 64.0263Z" fill="#626C84"/>
<path d="M48.5595 64.0263H45.1991C45.0444 64.0263 44.919 64.1516 44.919 64.3062V67.6644C44.919 67.819 45.0444 67.9442 45.1991 67.9442H48.5595C48.7141 67.9442 48.8394 67.819 48.8394 67.6644V64.3062C48.8394 64.1516 48.7141 64.0263 48.5595 64.0263Z" fill="#626C84"/>
<path d="M54.6188 64.0263H51.2584C51.1038 64.0263 50.9783 64.1516 50.9783 64.3062V67.6644C50.9783 67.819 51.1038 67.9442 51.2584 67.9442H54.6188C54.7734 67.9442 54.8989 67.819 54.8989 67.6644V64.3062C54.8989 64.1516 54.7734 64.0263 54.6188 64.0263Z" fill="#626C84"/>
<path d="M60.6785 64.0263H57.3181C57.1635 64.0263 57.0382 64.1516 57.0382 64.3062V67.6644C57.0382 67.819 57.1635 67.9442 57.3181 67.9442H60.6785C60.8332 67.9442 60.9586 67.819 60.9586 67.6644V64.3062C60.9586 64.1516 60.8332 64.0263 60.6785 64.0263Z" fill="#626C84"/>
<path d="M66.7378 64.0263H63.3774C63.2228 64.0263 63.0975 64.1516 63.0975 64.3062V67.6644C63.0975 67.819 63.2228 67.9442 63.3774 67.9442H66.7378C66.8925 67.9442 67.0179 67.819 67.0179 67.6644V64.3062C67.0179 64.1516 66.8925 64.0263 66.7378 64.0263Z" fill="#626C84"/>
<path d="M72.7974 64.0263H69.437C69.2824 64.0263 69.1571 64.1516 69.1571 64.3062V67.6644C69.1571 67.819 69.2824 67.9442 69.437 67.9442H72.7974C72.9521 67.9442 73.0775 67.819 73.0775 67.6644V64.3062C73.0775 64.1516 72.9521 64.0263 72.7974 64.0263Z" fill="#626C84"/>
<path d="M78.8568 64.0263H75.4964C75.3419 64.0263 75.2165 64.1516 75.2165 64.3062V67.6644C75.2165 67.819 75.3419 67.9442 75.4964 67.9442H78.8568C79.0116 67.9442 79.1369 67.819 79.1369 67.6644V64.3062C79.1369 64.1516 79.0116 64.0263 78.8568 64.0263Z" fill="#626C84"/>
<path d="M92.1467 64.0263H82.0655C81.911 64.0263 81.7855 64.1516 81.7855 64.3062V67.6644C81.7855 67.819 81.911 67.9442 82.0655 67.9442H92.1467C92.3013 67.9442 92.4268 67.819 92.4268 67.6644V64.3062C92.4268 64.1516 92.3013 64.0263 92.1467 64.0263Z" fill="#626C84"/>
<path d="M46.3697 58.2949H43.0093C42.8546 58.2949 42.7292 58.4203 42.7292 58.5749V61.9329C42.7292 62.0875 42.8546 62.2128 43.0093 62.2128H46.3697C46.5243 62.2128 46.6496 62.0875 46.6496 61.9329V58.5749C46.6496 58.4203 46.5243 58.2949 46.3697 58.2949Z" fill="#626C84"/>
<path d="M40.3103 58.2949H33.5895C33.4347 58.2949 33.3094 58.4203 33.3094 58.5749V61.9329C33.3094 62.0875 33.4347 62.2128 33.5895 62.2128H40.3103C40.4649 62.2128 40.5904 62.0875 40.5904 61.9329V58.5749C40.5904 58.4203 40.4649 58.2949 40.3103 58.2949Z" fill="#626C84"/>
<path d="M52.4294 58.2949H49.069C48.9144 58.2949 48.7891 58.4203 48.7891 58.5749V61.9329C48.7891 62.0875 48.9144 62.2128 49.069 62.2128H52.4294C52.5841 62.2128 52.7095 62.0875 52.7095 61.9329V58.5749C52.7095 58.4203 52.5841 58.2949 52.4294 58.2949Z" fill="#626C84"/>
<path d="M58.4885 58.2949H55.1281C54.9735 58.2949 54.8482 58.4203 54.8482 58.5749V61.9329C54.8482 62.0875 54.9735 62.2128 55.1281 62.2128H58.4885C58.6432 62.2128 58.7686 62.0875 58.7686 61.9329V58.5749C58.7686 58.4203 58.6432 58.2949 58.4885 58.2949Z" fill="#626C84"/>
<path d="M64.5483 58.2949H61.1879C61.0331 58.2949 60.9078 58.4203 60.9078 58.5749V61.9329C60.9078 62.0875 61.0331 62.2128 61.1879 62.2128H64.5483C64.7028 62.2128 64.8282 62.0875 64.8282 61.9329V58.5749C64.8282 58.4203 64.7028 58.2949 64.5483 58.2949Z" fill="#626C84"/>
<path d="M70.6079 58.2949H67.2475C67.0929 58.2949 66.9674 58.4203 66.9674 58.5749V61.9329C66.9674 62.0875 67.0929 62.2128 67.2475 62.2128H70.6079C70.7627 62.2128 70.888 62.0875 70.888 61.9329V58.5749C70.888 58.4203 70.7627 58.2949 70.6079 58.2949Z" fill="#626C84"/>
<path d="M76.6672 58.2949H73.3068C73.1522 58.2949 73.0267 58.4203 73.0267 58.5749V61.9329C73.0267 62.0875 73.1522 62.2128 73.3068 62.2128H76.6672C76.822 62.2128 76.9473 62.0875 76.9473 61.9329V58.5749C76.9473 58.4203 76.822 58.2949 76.6672 58.2949Z" fill="#626C84"/>
<path d="M82.7268 58.2949H79.3664C79.2118 58.2949 79.0863 58.4203 79.0863 58.5749V61.9329C79.0863 62.0875 79.2118 62.2128 79.3664 62.2128H82.7268C82.8814 62.2128 83.0069 62.0875 83.0069 61.9329V58.5749C83.0069 58.4203 82.8814 58.2949 82.7268 58.2949Z" fill="#626C84"/>
<path d="M92.1467 58.2949H85.4259C85.2713 58.2949 85.1458 58.4203 85.1458 58.5749V61.9329C85.1458 62.0875 85.2713 62.2128 85.4259 62.2128H92.1467C92.3013 62.2128 92.4268 62.0875 92.4268 61.9329V58.5749C92.4268 58.4203 92.3013 58.2949 92.1467 58.2949Z" fill="#626C84"/>
<path d="M43.0829 52.8098H39.7225C39.568 52.8098 39.4426 52.935 39.4426 53.0896V56.4478C39.4426 56.6023 39.568 56.7275 39.7225 56.7275H43.0829C43.2377 56.7275 43.363 56.6023 43.363 56.4478V53.0896C43.363 52.935 43.2377 52.8098 43.0829 52.8098Z" fill="#626C84"/>
<path d="M36.9499 52.8098H33.5895C33.4347 52.8098 33.3094 52.935 33.3094 53.0896V56.4478C33.3094 56.6023 33.4347 56.7275 33.5895 56.7275H36.9499C37.1045 56.7275 37.23 56.6023 37.23 56.4478V53.0896C37.23 52.935 37.1045 52.8098 36.9499 52.8098Z" fill="#626C84"/>
<path d="M49.216 52.8098H45.8556C45.7008 52.8098 45.5755 52.935 45.5755 53.0896V56.4478C45.5755 56.6023 45.7008 56.7275 45.8556 56.7275H49.216C49.3706 56.7275 49.4959 56.6023 49.4959 56.4478V53.0896C49.4959 52.935 49.3706 52.8098 49.216 52.8098Z" fill="#626C84"/>
<path d="M55.3489 52.8098H51.9885C51.8339 52.8098 51.7085 52.935 51.7085 53.0896V56.4478C51.7085 56.6023 51.8339 56.7275 51.9885 56.7275H55.3489C55.5036 56.7275 55.6289 56.6023 55.6289 56.4478V53.0896C55.6289 52.935 55.5036 52.8098 55.3489 52.8098Z" fill="#626C84"/>
<path d="M61.4819 52.8098H58.1216C57.9668 52.8098 57.8415 52.935 57.8415 53.0896V56.4478C57.8415 56.6023 57.9668 56.7275 58.1216 56.7275H61.4819C61.6365 56.7275 61.7619 56.6023 61.7619 56.4478V53.0896C61.7619 52.935 61.6365 52.8098 61.4819 52.8098Z" fill="#626C84"/>
<path d="M67.6146 52.8098H64.2542C64.0997 52.8098 63.9741 52.935 63.9741 53.0896V56.4478C63.9741 56.6023 64.0997 56.7275 64.2542 56.7275H67.6146C67.7694 56.7275 67.8947 56.6023 67.8947 56.4478V53.0896C67.8947 52.935 67.7694 52.8098 67.6146 52.8098Z" fill="#626C84"/>
<path d="M73.7477 52.8098H70.3873C70.2325 52.8098 70.1072 52.935 70.1072 53.0896V56.4478C70.1072 56.6023 70.2325 56.7275 70.3873 56.7275H73.7477C73.9023 56.7275 74.0276 56.6023 74.0276 56.4478V53.0896C74.0276 52.935 73.9023 52.8098 73.7477 52.8098Z" fill="#626C84"/>
<path d="M79.8806 52.8098H76.5202C76.3656 52.8098 76.2401 52.935 76.2401 53.0896V56.4478C76.2401 56.6023 76.3656 56.7275 76.5202 56.7275H79.8806C80.0354 56.7275 80.1607 56.6023 80.1607 56.4478V53.0896C80.1607 52.935 80.0354 52.8098 79.8806 52.8098Z" fill="#626C84"/>
<path d="M86.0137 52.8098H82.6533C82.4985 52.8098 82.3732 52.935 82.3732 53.0896V56.4478C82.3732 56.6023 82.4985 56.7275 82.6533 56.7275H86.0137C86.1682 56.7275 86.2936 56.6023 86.2936 56.4478V53.0896C86.2936 52.935 86.1682 52.8098 86.0137 52.8098Z" fill="#626C84"/>
<path d="M92.1467 52.8098H88.7863C88.6317 52.8098 88.5062 52.935 88.5062 53.0896V56.4478C88.5062 56.6023 88.6317 56.7275 88.7863 56.7275H92.1467C92.3013 56.7275 92.4268 56.6023 92.4268 56.4478V53.0896C92.4268 52.935 92.3013 52.8098 92.1467 52.8098Z" fill="#626C84"/>
<path d="M39.0652 43.8819H86.6709V47.6447C86.6709 47.9416 86.5528 48.2262 86.3428 48.4362C86.1328 48.6461 85.8478 48.764 85.5507 48.764H40.1854C39.8883 48.764 39.6034 48.6461 39.3934 48.4362C39.1833 48.2262 39.0652 47.9416 39.0652 47.6447V43.8819Z" fill="#626C84"/>
<path opacity="0.12" d="M86.6709 43.8819H39.0652V44.4415H86.6709V43.8819Z" fill="white"/>
<g style="mix-blend-mode:multiply" opacity="0.25">
<path d="M85.5507 47.6445H40.1854C39.8883 47.6445 39.6034 47.5266 39.3934 47.3165C39.1833 47.1067 39.0652 46.8219 39.0652 46.525V47.6445C39.0652 47.9412 39.1833 48.226 39.3934 48.4359C39.6034 48.6459 39.8883 48.7638 40.1854 48.7638H85.5507C85.8478 48.7638 86.1328 48.6459 86.3428 48.4359C86.5528 48.226 86.6709 47.9412 86.6709 47.6445V46.525C86.6709 46.8219 86.5528 47.1067 86.3428 47.3165C86.1328 47.5266 85.8478 47.6445 85.5507 47.6445Z" fill="#626C84"/>
</g>
<path d="M39.0652 43.8819H86.6709V47.6447C86.6709 47.9416 86.5528 48.2262 86.3428 48.4362C86.1328 48.6461 85.8478 48.764 85.5507 48.764H40.1854C39.8883 48.764 39.6034 48.6461 39.3934 48.4362C39.1833 48.2262 39.0652 47.9416 39.0652 47.6447V43.8819Z" stroke="#46505C" stroke-linecap="round" stroke-linejoin="round"/>
<path d="M72.6692 77.2965H53.0668C52.7575 77.2965 52.5068 77.547 52.5068 77.8562V91.0089C52.5068 91.3181 52.7575 91.5686 53.0668 91.5686H72.6692C72.9785 91.5686 73.2292 91.3181 73.2292 91.0089V77.8562C73.2292 77.547 72.9785 77.2965 72.6692 77.2965Z" fill="#E6F3FF"/>
<path d="M72.6692 77.2965H53.0668C52.7575 77.2965 52.5068 77.547 52.5068 77.8562V91.0089C52.5068 91.3181 52.7575 91.5686 53.0668 91.5686H72.6692C72.9785 91.5686 73.2292 91.3181 73.2292 91.0089V77.8562C73.2292 77.547 72.9785 77.2965 72.6692 77.2965Z" stroke="#626C84" stroke-linecap="round" stroke-linejoin="round"/>
<path opacity="0.52" d="M62.8681 4.18033C63.332 4.18033 63.7082 3.80447 63.7082 3.34073C63.7082 2.87717 63.332 2.50131 62.8681 2.50131C62.4042 2.50131 62.028 2.87717 62.028 3.34073C62.028 3.80447 62.4042 4.18033 62.8681 4.18033Z" fill="white"/>
<path d="M62.8681 4.18033C63.332 4.18033 63.7082 3.80447 63.7082 3.34073C63.7082 2.87717 63.332 2.50131 62.8681 2.50131C62.4042 2.50131 62.028 2.87717 62.028 3.34073C62.028 3.80447 62.4042 4.18033 62.8681 4.18033Z" stroke="#46505C" stroke-width="1.66667" stroke-linecap="round" stroke-linejoin="round"/>
<path d="M80.3309 9.23905H76.9705C76.8159 9.23905 76.6906 9.36439 76.6906 9.51897C76.6906 9.67355 76.8159 9.79872 76.9705 9.79872H80.3309C80.4856 9.79872 80.6109 9.67355 80.6109 9.51897C80.6109 9.36439 80.4856 9.23905 80.3309 9.23905Z" fill="white"/>
<path d="M87.6044 9.23905H84.244C84.0895 9.23905 83.9641 9.36439 83.9641 9.51897C83.9641 9.67355 84.0895 9.79872 84.244 9.79872H87.6044C87.7592 9.79872 87.8845 9.67355 87.8845 9.51897C87.8845 9.36439 87.7592 9.23905 87.6044 9.23905Z" fill="white"/>
<path d="M73.0578 9.23905H69.6974C69.5427 9.23905 69.4173 9.36439 69.4173 9.51897C69.4173 9.67355 69.5427 9.79872 69.6974 9.79872H73.0578C73.2124 9.79872 73.3377 9.67355 73.3377 9.51897C73.3377 9.36439 73.2124 9.23905 73.0578 9.23905Z" fill="white"/>
<path d="M36.8902 11.0186C37.6384 11.0186 38.2448 10.4125 38.2448 9.66501C38.2448 8.91749 37.6384 8.31145 36.8902 8.31145C36.1422 8.31145 35.5358 8.91749 35.5358 9.66501C35.5358 10.4125 36.1422 11.0186 36.8902 11.0186Z" fill="white"/>
<g opacity="0.72">
<path opacity="0.72" d="M77.0259 24.4854H48.6771V25.5055H77.0259V24.4854Z" fill="white"/>
<path opacity="0.72" d="M73.4411 21.1H52.2624V22.1348H73.4411V21.1Z" fill="white"/>
</g>
<path d="M67.742 32.4152H59.674C58.8264 32.4152 58.1392 33.1019 58.1392 33.9491C58.1392 34.796 58.8264 35.4829 59.674 35.4829H67.742C68.5897 35.4829 69.2769 34.796 69.2769 33.9491C69.2769 33.1019 68.5897 32.4152 67.742 32.4152Z" stroke="white" stroke-width="1.66667" stroke-miterlimit="10"/>
</svg>
