<svg width="19" height="22" viewBox="0 0 19 22" fill="none" xmlns="http://www.w3.org/2000/svg">
<path d="M15.3511 11.5867C15.3511 9.77778 16.1822 8.45778 17.7956 7.43111C16.8667 6.11111 15.4978 5.42667 13.6889 5.28C11.9289 5.13333 10.0222 6.25778 9.33778 6.25778C8.60444 6.25778 6.94222 5.32889 5.62222 5.32889C2.88444 5.37778 0 7.48 0 11.8311C0 13.1022 0.195556 14.4222 0.684444 15.7911C1.32 17.6 3.56889 22 5.91556 21.9022C7.13778 21.9022 8.01778 21.0222 9.63111 21.0222C11.1956 21.0222 11.9778 21.9022 13.3467 21.9022C15.7422 21.9022 17.7956 17.8933 18.3822 16.0844C15.2044 14.5689 15.3511 11.6844 15.3511 11.5867ZM12.6133 3.56889C13.9333 2.00444 13.7867 0.537778 13.7867 0C12.6133 0.0977778 11.2444 0.831111 10.4622 1.71111C9.58222 2.68889 9.09333 3.91111 9.19111 5.23111C10.4622 5.32889 11.6356 4.69333 12.6133 3.56889Z" fill="#696969"/>
</svg>
