<svg width="24" height="30" viewBox="0 0 24 30" fill="none" xmlns="http://www.w3.org/2000/svg">
<path d="M12 13.3333C13.3562 13.3333 14.682 12.9423 15.8096 12.2098C16.9373 11.4773 17.8162 10.4361 18.3352 9.21789C18.8542 7.99972 18.99 6.65927 18.7254 5.36607C18.4608 4.07286 17.8077 2.88497 16.8488 1.95262C15.8898 1.02027 14.6679 0.385336 13.3378 0.128101C12.0076 -0.129134 10.6289 0.00288854 9.37591 0.507473C8.12293 1.01206 7.05199 1.86654 6.29852 2.96287C5.54505 4.0592 5.14288 5.34813 5.14288 6.66667C5.14288 8.43478 5.86533 10.1305 7.15129 11.3807C8.43726 12.631 10.1814 13.3333 12 13.3333Z" fill="#231F20"/>
<path d="M22.2857 30C22.7404 30 23.1764 29.8244 23.4979 29.5118C23.8194 29.1992 24 28.7753 24 28.3333C24 25.2391 22.7357 22.2716 20.4853 20.0837C18.2348 17.8958 15.1826 16.6666 12 16.6666C8.8174 16.6666 5.76515 17.8958 3.51472 20.0837C1.26428 22.2716 4.74244e-08 25.2391 0 28.3333C0 28.7753 0.180612 29.1992 0.502103 29.5118C0.823594 29.8244 1.25963 30 1.71429 30H22.2857Z" fill="#231F20"/>
</svg>
