<svg width="36" height="31" viewBox="0 0 36 31" fill="none" xmlns="http://www.w3.org/2000/svg">
<path d="M7.89415 26.8255C6.48179 24.345 5.12997 21.9452 3.77814 19.5655C2.58773 17.4681 1.39732 15.3708 0.22708 13.2533C0.0656676 12.971 -0.0755666 12.5071 0.0454924 12.2853C1.8412 8.97796 3.63691 5.65046 6.52215 3.14979C9.3065 0.74995 12.6356 -0.278553 16.3279 0.0642813C18.3657 0.245782 20.0202 1.25412 21.1703 2.96829C23.4704 6.39663 25.7302 9.84513 28.0101 13.2735C28.2119 13.576 28.4136 13.8785 28.6558 14.2415C31.0769 13.213 33.4376 12.2248 36 11.1358C35.8588 11.5391 35.7982 11.7811 35.6772 11.9828C32.3481 18.1135 29.0391 24.224 25.6696 30.3345C25.488 30.6572 24.9836 31 24.6406 31C17.2157 30.9597 9.81091 30.879 2.38597 30.7983C2.28508 30.7983 2.20438 30.758 1.88155 30.6975C3.93956 29.3463 5.8765 28.1162 7.89415 26.8255Z" fill="#E2E3DE"/>
</svg>
