<svg width="14" height="13" viewBox="0 0 14 13" fill="none" xmlns="http://www.w3.org/2000/svg">
<path d="M12.7889 7.31487L13.9273 2.27681C14 1.91348 13.7336 1.55016 13.346 1.55016H3.8512L3.63321 0.484417C3.56054 0.217981 3.31833 -1.22389e-05 3.05189 -1.22389e-05H0.581303C0.242203 -1.22389e-05 -1.21177e-05 0.266424 -1.21177e-05 0.581303V0.968847C-1.21177e-05 1.30795 0.242203 1.55016 0.581303 1.55016H2.25258L3.97231 9.88235C3.56054 10.1246 3.29411 10.5606 3.29411 11.045C3.29411 11.7958 3.89965 12.4014 4.65051 12.4014C5.37716 12.4014 6.00691 11.7958 6.00691 11.045C6.00691 10.6817 5.83736 10.3426 5.59515 10.0761H10.6574C10.4152 10.3426 10.2699 10.6817 10.2699 11.045C10.2699 11.7958 10.8754 12.4014 11.6263 12.4014C12.3529 12.4014 12.9827 11.7958 12.9827 11.045C12.9827 10.5121 12.6678 10.0519 12.2076 9.83391L12.3287 9.25259C12.4256 8.88927 12.1349 8.52595 11.7716 8.52595H5.28027L5.11072 7.75086H12.2076C12.474 7.75086 12.7163 7.58131 12.7889 7.31487Z" fill="#020C12"/>
</svg>
