<svg width="14" height="13" viewBox="0 0 14 13" fill="none" xmlns="http://www.w3.org/2000/svg">
<path d="M12.7889 7.31503L13.9273 2.2769C14 1.91357 13.7336 1.55024 13.346 1.55024H3.85107L3.63307 0.484486C3.56041 0.218046 3.31819 4.98045e-05 3.05175 4.98045e-05H0.581125C0.24202 4.98045e-05 -0.000198248 0.26649 -0.000198248 0.581373V0.968922C-0.000198248 1.30803 0.24202 1.55024 0.581125 1.55024H2.25243L3.97218 9.88254C3.56041 10.1248 3.29397 10.5608 3.29397 11.0452C3.29397 11.7961 3.89951 12.4016 4.65039 12.4016C5.37704 12.4016 6.00681 11.7961 6.00681 11.0452C6.00681 10.6819 5.83725 10.3428 5.59504 10.0763H10.6574C10.4152 10.3428 10.2698 10.6819 10.2698 11.0452C10.2698 11.7961 10.8754 12.4016 11.6263 12.4016C12.3529 12.4016 12.9827 11.7961 12.9827 11.0452C12.9827 10.5123 12.6678 10.0521 12.2076 9.8341L12.3287 9.25278C12.4256 8.88945 12.1349 8.52612 11.7716 8.52612H5.28015L5.1106 7.75102H12.2076C12.474 7.75102 12.7162 7.58147 12.7889 7.31503Z" fill="#F08222"/>
</svg>
