<svg width="20" height="22" viewBox="0 0 20 22" fill="none" xmlns="http://www.w3.org/2000/svg">
<path fill-rule="evenodd" clip-rule="evenodd" d="M9.96545 0C13.6946 2.36597 17.0635 3.4853 19.9548 3.22069C20.4598 13.4433 16.688 19.4804 10.0041 22C3.54944 19.6417 -0.268433 13.8644 0.0147238 3.06564C3.40884 3.24342 6.73875 2.50902 9.96545 0ZM6.04293 11.9552C5.83186 11.7743 5.80718 11.4564 5.98766 11.2449C6.1685 11.0335 6.48618 11.009 6.69725 11.1896L8.75322 12.9576L13.2572 8.00114C13.4445 7.79525 13.7631 7.78021 13.969 7.96748C14.1745 8.15475 14.1895 8.47362 14.0024 8.67969L9.16928 13.9985L9.16892 13.9981C8.98647 14.1988 8.67684 14.2194 8.46953 14.0418L6.04293 11.9552Z" fill="black"/>
</svg>
