<svg width="48" height="48" viewBox="0 0 48 48" fill="none" xmlns="http://www.w3.org/2000/svg">
<rect x="12" y="6" width="6" height="6" fill="white"/>
<rect x="18" width="6" height="6" fill="white"/>
<rect x="18" y="42" width="6" height="6" fill="white"/>
<rect x="12" y="12" width="24" height="6" fill="white"/>
<rect x="12" y="36" width="18" height="6" fill="white"/>
<rect x="6" y="18" width="30" height="6" fill="white"/>
<rect x="6" y="24" width="36" height="6" fill="white"/>
<rect x="6" y="30" width="30" height="6" fill="white"/>
<rect x="24" width="6" height="6" fill="white"/>
<rect x="18" y="6" width="6" height="6" fill="white"/>
<rect x="6" y="12" width="6" height="6" fill="white"/>
<rect y="18" width="6" height="6" fill="white"/>
<rect x="42" y="18" width="6" height="6" fill="white"/>
<rect y="24" width="6" height="6" fill="white"/>
<rect x="42" y="24" width="6" height="6" fill="white"/>
<rect x="24" y="42" width="6" height="6" fill="white"/>
<rect x="24" y="6" width="6" height="6" fill="white"/>
<rect x="30" y="36" width="6" height="6" fill="white"/>
<rect x="30" y="6" width="6" height="6" fill="white"/>
<rect x="36" y="30" width="6" height="6" fill="white"/>
<rect x="36" y="12" width="6" height="6" fill="white"/>
<rect x="36" y="18" width="6" height="6" fill="white"/>
</svg>
