<svg width="862" height="32" viewBox="0 0 862 32" fill="none" xmlns="http://www.w3.org/2000/svg">
<g clip-path="url(#clip0_0_944)">
<path d="M156.957 31.6958V19.3479H144.407V31.7295H137.611V0.438965H144.407V12.5851H156.957V0.438965H163.653V31.7295H156.957V31.6958Z" fill="white"/>
<path d="M101.341 16.1176V19.3812H88.6901L88.6564 21.6692C88.6901 24.2599 89.6322 25.1683 92.2565 25.1683L107.902 25.1347V31.7965C102.418 31.7629 96.1931 31.8638 90.6415 31.7629C85.4601 31.561 82.1628 27.8936 82.0955 22.7122C82.0619 20.5252 82.0282 18.3046 82.0282 16.1176V15.9494C82.0282 13.7624 82.0619 11.6091 82.0955 9.42212C82.1628 4.24068 85.4601 0.573297 90.6415 0.371422C96.1931 0.270485 102.384 0.371422 107.902 0.337777V6.99963L92.2565 6.96598C89.6322 6.96598 88.6901 7.87441 88.6564 10.4651L88.6901 12.753H101.341V15.9494V16.1176Z" fill="white"/>
<path d="M109.012 16.0168C109.012 18.0692 109.248 20.2561 109.786 22.2749C111.3 28.0956 115.27 31.5274 121.495 31.7293C125.599 31.8639 131.016 31.662 135.121 31.6957V25.1348H123.244C118.567 25.1348 116.515 23.7216 115.842 19.1458C115.674 18.1364 115.708 16.0168 115.708 16.0168C115.708 15.5794 115.708 14.0317 115.842 12.9887C116.515 8.41284 118.567 6.99972 123.244 6.99972H135.121V0.405159C131.016 0.438804 125.599 0.23693 121.495 0.371513C115.27 0.573387 111.3 4.00525 109.786 9.82596C109.214 11.8783 108.978 13.9307 109.012 16.0168Z" fill="white"/>
<path d="M54.8761 0.438965H80.9179V6.99988H71.2952V31.7968H64.4652V6.99988H54.8761V0.438965Z" fill="white"/>
<path d="M51.1415 16.0505C51.9153 15.2766 52.6555 14.3682 53.1266 13.3252C55.8182 7.23531 51.9153 0.607102 45.2535 0.371582H28.0942V6.99979H44.3787C46.061 6.99979 47.3059 8.21103 47.3395 9.79238C47.3731 11.441 46.2965 12.585 44.5469 12.7196C44.2105 12.7532 28.1278 12.7196 28.1278 12.7196V31.6621H45.2871C51.949 31.4266 55.8519 24.7984 53.1602 18.7085C52.6892 17.7328 51.949 16.8243 51.1415 16.0505ZM44.3787 25.0675H34.7897V19.3478C39.2645 19.3478 44.3787 19.3478 44.5469 19.3478C46.2965 19.4823 47.4068 20.6263 47.3395 22.2749C47.2722 23.8563 46.061 25.0675 44.3787 25.0675Z" fill="#EE8022"/>
<path d="M6.99831 22.7124V31.6958H0.437393V21.6021C0.53833 16.5553 3.86926 13.1234 8.94976 12.8206C11.5068 12.686 14.0639 12.7869 16.621 12.7533C18.1014 12.7196 19.2117 11.9794 19.5482 10.8018C19.8846 9.55695 19.5818 8.48029 18.5724 7.63915C18.0341 7.20175 17.3948 6.99988 16.6883 7.03352H9.75725V0.438965H16.2172C17.664 0.438965 18.2696 0.573548 19.0435 0.741776C23.6529 1.65021 26.3109 5.21666 26.21 10.2635C26.1091 15.0076 23.1146 18.4731 18.5388 19.1123C15.7798 19.5161 13.0209 19.2469 10.2283 19.3142C8.14226 19.3479 6.99831 20.3236 6.99831 22.4433V22.7124Z" fill="#EE8022"/>
<path d="M6.96466 0.438965H0.403748V6.99988H6.96466V0.438965Z" fill="white"/>
</g>
<g clip-path="url(#clip1_0_944)">
<rect width="590" height="32" transform="translate(200)" fill="white"/>
<rect x="760" y="4" width="25" height="25" fill="white"/>
<path d="M790 0H847C848.657 0 850 1.34315 850 3V29C850 30.6569 848.657 32 847 32H790V0Z" fill="#F08222"/>
<path d="M817.707 20.316C818.098 19.9255 818.098 19.2923 817.707 18.9018C817.317 18.5113 816.683 18.5113 816.293 18.9018L812.293 22.9018C811.902 23.2923 811.902 23.9255 812.293 24.316C812.683 24.7065 813.317 24.7065 813.707 24.316L817.707 20.316Z" fill="white"/>
<path d="M821 19.6089C818.239 19.6089 816 17.3703 816 14.6089C816 11.8475 818.239 9.60889 821 9.60889C823.761 9.60889 826 11.8475 826 14.6089C826 17.3703 823.761 19.6089 821 19.6089ZM821 21.6089C824.866 21.6089 828 18.4749 828 14.6089C828 10.7429 824.866 7.60889 821 7.60889C817.134 7.60889 814 10.7429 814 14.6089C814 18.4749 817.134 21.6089 821 21.6089Z" fill="white"/>
</g>
<defs>
<clipPath id="clip0_0_944">
<rect width="163.922" height="31.9971" fill="white" transform="translate(0 0.00146484)"/>
</clipPath>
<clipPath id="clip1_0_944">
<rect width="650" height="32" fill="white" transform="translate(200)"/>
</clipPath>
</defs>
</svg>
