<svg width="16" height="13" viewBox="0 0 16 13" fill="none" xmlns="http://www.w3.org/2000/svg">
<path d="M15.1939 2.90667L13.6061 0.366212C13.4595 0.146365 13.2153 -0.000200054 12.9466 -0.000200054H3.07786C2.80916 -0.000200054 2.54046 0.146365 2.39389 0.366212L0.830534 2.90667C7.63795e-09 4.22575 0.732824 6.03339 2.24733 6.22881C2.36947 6.25323 2.46718 6.25323 2.58931 6.25323C3.32214 6.25323 3.95725 5.93568 4.39695 5.44713C4.83664 5.93568 5.47176 6.25323 6.20458 6.25323C6.91298 6.25323 7.54809 5.93568 7.98779 5.44713C8.42748 5.93568 9.08702 6.25323 9.79542 6.25323C10.5282 6.25323 11.1634 5.93568 11.6031 5.44713C12.0427 5.93568 12.6779 6.25323 13.4107 6.25323C13.5328 6.25323 13.6305 6.25323 13.7527 6.22881C15.2672 6.03339 16 4.22575 15.1939 2.90667ZM13.4107 7.03491C13.1664 7.03491 12.9221 7.01049 12.7023 6.96163V9.37995H3.32214V6.96163C3.07786 7.01049 2.83359 7.03491 2.58931 7.03491C2.44275 7.03491 2.29618 7.03491 2.14962 7.01049C2.00305 6.98606 1.88092 6.96163 1.75878 6.9372V11.725C1.75878 12.1647 2.10076 12.5067 2.54046 12.5067H13.484C13.8992 12.5067 14.2656 12.1647 14.2656 11.725V6.9372C14.1191 6.96163 13.9969 7.01049 13.8504 7.01049C13.7038 7.03491 13.5573 7.03491 13.4107 7.03491Z" fill="black"/>
</svg>
