<svg width="34" height="31" viewBox="0 0 34 31" fill="none" xmlns="http://www.w3.org/2000/svg">
<path d="M0.0199531 19.016C2.11502 14.808 4.21009 10.58 6.32512 6.37205C6.52465 5.99133 6.70422 5.61061 6.92371 5.16978C4.86854 3.54671 2.87324 1.98375 0.71831 0.28053C1.13732 0.240454 1.37676 0.18034 1.6162 0.18034C8.48005 0.120226 15.3638 0.0601137 22.2277 0C22.7465 0 23.1256 0.0200379 23.4249 0.601137C26.8568 7.05335 30.3486 13.4855 33.8005 19.9377C33.8603 20.0379 33.8803 20.1782 34 20.4988C31.8451 19.3366 29.8498 18.2545 27.7747 17.1525C27.5552 17.4931 27.3556 17.7736 27.1761 18.0742C24.7019 22.1419 22.2077 26.1896 19.7735 30.2572C19.4343 30.8183 19.0751 31.0187 18.4366 30.9986C14.9847 30.9185 11.5129 30.9986 8.2007 29.7964C4.21009 28.3536 1.41667 25.6085 0.159624 21.4406C0.139671 21.3604 0.0598592 21.2803 0 21.2001C0.0199531 20.4787 0.0199531 19.7373 0.0199531 19.016Z" fill="#E2E3DE"/>
</svg>
