<svg width="47" height="47" viewBox="0 0 47 47" fill="none" xmlns="http://www.w3.org/2000/svg">
<g clip-path="url(#clip0_159_4274)">
<path d="M47.0002 21.4767C46.6875 22.47 46.099 23.169 45.0323 23.3622C44.8208 23.399 44.6093 23.399 44.3978 23.4174C43.6897 31.9988 39.4596 38.1244 31.6523 41.877C31.8179 41.8862 31.9374 41.9046 32.0661 41.9046C34.4938 41.9046 36.9307 41.9046 39.3585 41.9138C39.6527 41.9138 39.809 41.8311 39.9562 41.5643C40.4987 40.5802 41.5747 40.1387 42.623 40.4238C43.6529 40.6997 44.3518 41.6287 44.3518 42.6956C44.3518 43.7626 43.6253 44.7007 42.6138 44.9675C41.5563 45.2342 40.5079 44.7927 39.9562 43.8177C39.8366 43.597 39.7263 43.4774 39.4412 43.4774C35.6617 43.4866 31.8822 43.4866 28.1027 43.4866C28.0292 43.4866 27.9464 43.4958 27.8085 43.505C27.8085 43.8453 27.8085 44.1949 27.8085 44.5444C27.7993 45.9976 26.8061 46.9909 25.3532 47.0001C24.1117 47.0093 22.8795 47.0093 21.638 47.0001C20.1943 46.9909 19.2011 45.9976 19.1919 44.5444C19.1919 44.2132 19.1919 43.8729 19.1919 43.5142C18.9896 43.505 18.8241 43.4958 18.6678 43.4958C15.0078 43.4958 11.3571 43.4958 7.69713 43.4866C7.37527 43.4866 7.19136 43.5602 7.02583 43.8637C6.49247 44.8295 5.38897 45.2526 4.34984 44.9583C3.3383 44.6639 2.64861 43.7258 2.6578 42.6588C2.667 41.6195 3.38428 40.6997 4.38662 40.433C5.42576 40.1571 6.52006 40.617 7.04422 41.5735C7.16377 41.7851 7.25573 41.9322 7.55 41.9322C10.0697 41.9138 12.5985 41.923 15.1182 41.923C15.1734 41.923 15.2285 41.9046 15.3481 41.8954C7.55919 38.1612 3.3291 32.0356 2.60263 23.4449C2.4555 23.4357 2.27158 23.4266 2.09686 23.4082C0.91979 23.2702 0.0277922 22.3044 0.000204442 21.1179C-0.0181862 20.4005 -0.00899267 19.6831 0.000204631 18.9565C0.0185954 17.632 0.956572 16.6295 2.28997 16.5651C3.03483 16.5283 3.7889 16.5375 4.53376 16.5651C5.84877 16.6111 6.79594 17.5676 6.85111 18.8829C6.8787 19.6187 6.8787 20.3545 6.85111 21.0812C6.80514 22.4056 5.86716 23.3438 4.55215 23.4174C4.46019 23.4266 4.37743 23.4266 4.28547 23.4357C4.32226 31.3917 10.4559 39.6144 19.1919 41.3988C19.1919 41.178 19.1919 40.9665 19.1919 40.7549C19.2195 39.4581 20.1851 38.4371 21.4725 38.4095C22.8151 38.3727 24.1669 38.3819 25.5095 38.4095C26.7969 38.4371 27.7717 39.4581 27.8085 40.7457C27.8177 40.9573 27.8085 41.1688 27.8085 41.3896C35.2203 39.9455 42.4115 32.9093 42.7609 23.4449C42.669 23.4266 42.5678 23.4082 42.4667 23.399C41.1241 23.3254 40.1953 22.378 40.1493 21.026C40.1309 20.3269 40.1309 19.6187 40.1493 18.9105C40.1953 17.5125 41.1792 16.5467 42.5954 16.5283C43.0828 16.5191 43.5702 16.5283 44.0667 16.5283C45.7955 16.5283 46.3565 16.887 47.0094 18.4414C47.0002 19.4532 47.0002 20.4649 47.0002 21.4767Z" fill="black"/>
<path d="M31.1188 3.58176e-06C31.5602 0.193154 32.0475 0.321921 32.443 0.588653C33.3166 1.1865 33.758 2.05108 33.7764 3.11801C33.7856 4.00098 33.7856 4.89315 33.7764 5.77613C33.758 7.52368 32.397 8.89413 30.6498 8.89413C25.8771 8.90333 21.1137 8.90333 16.341 8.89413C14.5938 8.89413 13.242 7.52368 13.2144 5.77613C13.2052 4.93914 13.2052 4.09296 13.2144 3.25597C13.2236 1.63718 14.1248 0.478281 15.7065 0.0643867C15.7617 0.0459922 15.8169 0.0183977 15.872 -0.00919594C20.9665 2.69422e-06 26.0427 3.13799e-06 31.1188 3.58176e-06Z" fill="black"/>
<path d="M23.5046 10.4301C25.4633 10.4301 27.4221 10.4301 29.3808 10.4301C30.4475 10.4301 30.567 10.5405 30.6774 11.6166C31.082 15.3601 32.2223 18.8644 34.1258 22.1204C34.5948 22.9206 34.5856 23.0217 34.0247 23.7483C31.3395 27.1975 28.6451 30.6466 25.9599 34.0957C25.8496 34.2429 25.7576 34.4452 25.6013 34.5096C25.353 34.62 25.0311 34.7303 24.8104 34.6568C24.6081 34.5924 24.4518 34.2888 24.323 34.0681C24.2587 33.9485 24.2955 33.7646 24.2955 33.6174C24.2955 30.2971 24.3047 26.9767 24.2863 23.6564C24.2863 23.0677 24.461 22.6998 25.0219 22.4331C26.4197 21.7525 27.1094 20.198 26.7416 18.6988C26.3737 17.1996 25.0403 16.1603 23.4954 16.1603C21.9873 16.1603 20.6631 17.218 20.2953 18.6988C19.9274 20.198 20.6079 21.7525 22.0149 22.4331C22.5666 22.6998 22.7506 23.0677 22.7506 23.6564C22.7322 26.9583 22.7414 30.2695 22.7414 33.5714C22.7414 33.6818 22.7414 33.783 22.7414 33.8934C22.7414 34.2705 22.5666 34.5464 22.208 34.666C21.8494 34.7855 21.5459 34.666 21.316 34.3716C20.7551 33.6634 20.2033 32.9552 19.6424 32.2378C17.4078 29.3865 15.1732 26.526 12.9478 23.6748C12.4604 23.0493 12.4512 22.893 12.8558 22.1939C14.8237 18.8368 16.01 15.2221 16.3686 11.3407C16.433 10.6785 16.6905 10.4301 17.3802 10.4301C19.4033 10.4301 21.4539 10.4301 23.5046 10.4301Z" fill="black"/>
</g>
<defs>
<clipPath id="clip0_159_4274">
<rect width="47" height="47" fill="white" transform="translate(47 47) rotate(-180)"/>
</clipPath>
</defs>
</svg>
