<svg width="13" height="14" viewBox="0 0 13 14" fill="none" xmlns="http://www.w3.org/2000/svg">
<path d="M0.875 12.6875C0.875 13.4258 1.44922 14 2.1875 14H10.0625C10.7734 14 11.375 13.4258 11.375 12.6875V3.5H0.875V12.6875ZM8.3125 5.6875C8.3125 5.46875 8.50391 5.25 8.75 5.25C8.96875 5.25 9.1875 5.46875 9.1875 5.6875V11.8125C9.1875 12.0586 8.96875 12.25 8.75 12.25C8.50391 12.25 8.3125 12.0586 8.3125 11.8125V5.6875ZM5.6875 5.6875C5.6875 5.46875 5.87891 5.25 6.125 5.25C6.34375 5.25 6.5625 5.46875 6.5625 5.6875V11.8125C6.5625 12.0586 6.34375 12.25 6.125 12.25C5.87891 12.25 5.6875 12.0586 5.6875 11.8125V5.6875ZM3.0625 5.6875C3.0625 5.46875 3.25391 5.25 3.5 5.25C3.71875 5.25 3.9375 5.46875 3.9375 5.6875V11.8125C3.9375 12.0586 3.71875 12.25 3.5 12.25C3.25391 12.25 3.0625 12.0586 3.0625 11.8125V5.6875ZM11.8125 0.875H8.53125L8.25781 0.382812C8.14844 0.164062 7.92969 0 7.68359 0H4.53906C4.29297 0 4.07422 0.164062 3.96484 0.382812L3.71875 0.875H0.4375C0.191406 0.875 0 1.09375 0 1.3125V2.1875C0 2.43359 0.191406 2.625 0.4375 2.625H11.8125C12.0312 2.625 12.25 2.43359 12.25 2.1875V1.3125C12.25 1.09375 12.0312 0.875 11.8125 0.875Z" fill="black" fill-opacity="0.5"/>
</svg>
