<svg width="128" height="264" viewBox="0 0 128 264" fill="none" xmlns="http://www.w3.org/2000/svg">
<path d="M59.5747 160.977C59.4714 160.977 59.3691 160.957 59.2738 160.917C59.1784 160.878 59.0918 160.82 59.019 160.747C57.9115 159.644 56.1061 139.399 51.244 79.1226C49.2547 54.459 47.3754 31.1628 46.0039 17.0054C45.9064 15.9943 45.5126 15.8769 45.3837 15.8385C43.506 15.2738 37.7974 19.759 34.6102 23.6874C34.4791 23.849 34.289 23.9521 34.0816 23.974C33.8742 23.9959 33.6665 23.9347 33.5044 23.8041C33.3422 23.6734 33.2387 23.484 33.2168 23.2773C33.1948 23.0707 33.2561 22.8638 33.3873 22.7022C35.4953 20.1052 42.3647 13.2971 45.8356 14.3379C46.5352 14.5478 47.4076 15.154 47.5688 16.855C48.9419 31.0249 50.8211 54.3274 52.8113 78.9973C55.7658 115.626 59.1125 157.123 60.2129 159.737C60.2972 159.854 60.3474 159.992 60.3581 160.135C60.3688 160.279 60.3396 160.423 60.2737 160.551C60.2077 160.679 60.1075 160.786 59.9842 160.862C59.8609 160.937 59.7192 160.976 59.5747 160.977Z" fill="#494949"/>
<path d="M43.9845 42.9841C57.0269 32.5669 61.3497 16.3527 53.6397 6.76862C45.9297 -2.81546 29.1065 -2.14011 16.064 8.27706C3.02156 18.6942 -1.30126 34.9084 6.40875 44.4925C14.1188 54.0766 30.942 53.4012 43.9845 42.9841Z" fill="#0CBC8B"/>
<path opacity="0.2" d="M43.9845 42.9841C57.0269 32.5669 61.3497 16.3527 53.6397 6.76862C45.9297 -2.81546 29.1065 -2.14011 16.064 8.27706C3.02156 18.6942 -1.30126 34.9084 6.40875 44.4925C14.1188 54.0766 30.942 53.4012 43.9845 42.9841Z" fill="white"/>
<path d="M10.066 46.9311C9.9914 46.9311 9.91833 46.91 9.85535 46.8701C9.79238 46.8303 9.74207 46.7735 9.71033 46.7062C9.67859 46.6389 9.66673 46.564 9.67613 46.4903C9.68552 46.4165 9.71579 46.347 9.76339 46.2897L46.9334 1.62629C47 1.54632 47.0957 1.49599 47.1996 1.48637C47.3034 1.47675 47.4068 1.50861 47.4871 1.57497C47.5673 1.64134 47.6178 1.73675 47.6275 1.84022C47.6372 1.94369 47.6052 2.04675 47.5386 2.12672L10.3686 46.7902C10.3316 46.8344 10.2853 46.8699 10.233 46.8943C10.1807 46.9186 10.1237 46.9312 10.066 46.9311Z" fill="white"/>
<path d="M67.6812 151.402C67.5557 151.402 67.4322 151.372 67.3207 151.315C67.2093 151.258 67.1133 151.174 67.0406 151.073C66.968 150.971 66.9209 150.853 66.9033 150.729C66.8856 150.606 66.898 150.479 66.9392 150.361L80.9022 110.352C81.3133 109.177 82.0139 108.123 82.9396 107.287C83.8654 106.451 84.9869 105.86 86.2012 105.568C87.4156 105.276 88.6842 105.292 89.8906 105.615C91.0971 105.938 92.203 106.558 93.107 107.417L100.489 114.443C100.64 114.586 100.727 114.784 100.732 114.991C100.737 115.199 100.659 115.4 100.514 115.551C100.37 115.701 100.172 115.788 99.9639 115.793C99.7554 115.798 99.5535 115.72 99.4027 115.576L92.0215 108.549C91.3079 107.871 90.4348 107.382 89.4823 107.127C88.5298 106.872 87.5283 106.859 86.5696 107.09C85.6108 107.32 84.7255 107.787 83.9946 108.447C83.2637 109.107 82.7107 109.939 82.3862 110.867L68.4247 150.877C68.371 151.03 68.2705 151.164 68.1372 151.258C68.004 151.352 67.8445 151.403 67.6812 151.402Z" fill="#494949"/>
<path d="M121.11 136.594C130.776 128.971 130.202 112.204 119.827 99.1445C109.453 86.085 93.2075 81.6781 83.5418 89.3015C73.8761 96.9249 74.4505 113.692 84.8248 126.751C95.1991 139.811 111.445 144.218 121.11 136.594Z" fill="#0CBC8B"/>
<path d="M53.2356 158.425C53.0591 158.425 52.8877 158.366 52.7491 158.257C52.6105 158.148 52.5128 157.995 52.4717 157.824L29.0367 60.2059C28.8764 59.5407 28.5352 58.9324 28.0505 58.4478C27.5658 57.9633 26.9564 57.6213 26.2893 57.4595C25.6223 57.2976 24.9233 57.3221 24.2693 57.5303C23.6153 57.7384 23.0316 58.1223 22.5822 58.6396L15.359 66.9568C15.2918 67.0357 15.2096 67.1005 15.1171 67.1476C15.0246 67.1946 14.9236 67.2229 14.8201 67.2308C14.7165 67.2388 14.6124 67.2262 14.5138 67.1938C14.4151 67.1614 14.3239 67.1098 14.2454 67.0421C14.1669 66.9743 14.1026 66.8918 14.0563 66.7991C14.01 66.7065 13.9826 66.6057 13.9756 66.5024C13.9687 66.3991 13.9823 66.2955 14.0158 66.1976C14.0493 66.0996 14.1019 66.0092 14.1706 65.9317L21.393 57.6151C22.0318 56.8797 22.8617 56.334 23.7915 56.0382C24.7214 55.7424 25.7152 55.7079 26.6634 55.9384C27.6117 56.169 28.4778 56.6557 29.1664 57.3451C29.8549 58.0344 30.3393 58.8997 30.5662 59.8456L53.9965 157.463C54.0438 157.665 54.0091 157.877 53.9001 158.053C53.7911 158.229 53.6167 158.355 53.4148 158.403C53.3561 158.417 53.296 158.425 53.2356 158.425Z" fill="#494949"/>
<path d="M44.5895 88.6434C47.4378 72.2314 39.8998 57.2302 27.7529 55.1372C15.6059 53.0442 3.44991 64.6519 0.60163 81.0639C-2.24665 97.4759 5.29139 112.477 17.4383 114.57C29.5852 116.663 41.7412 105.055 44.5895 88.6434Z" fill="#0CBC8B"/>
<path d="M59.5758 160.977C59.5435 160.977 59.5113 160.975 59.4792 160.971C59.3767 160.959 59.2776 160.926 59.1877 160.876C59.0978 160.825 59.0188 160.757 58.9553 160.676C58.8917 160.595 58.8448 160.502 58.8172 160.403C58.7896 160.304 58.7819 160.2 58.7946 160.098L73.7566 39.0534C73.9196 37.7348 74.4614 36.4912 75.3168 35.472C76.1722 34.4529 77.3047 33.7016 78.5783 33.3084C79.852 32.9153 81.2124 32.8969 82.4962 33.2557C83.78 33.6145 84.9325 34.3352 85.8152 35.331L102.917 54.6307C103.055 54.7864 103.125 54.9905 103.112 55.1979C103.099 55.4052 103.004 55.599 102.847 55.7365C102.691 55.874 102.486 55.944 102.278 55.9311C102.07 55.9182 101.876 55.8233 101.738 55.6676L84.6362 36.3679C83.9541 35.5981 83.0634 35.0411 82.0712 34.7637C81.079 34.4863 80.0276 34.5004 79.0432 34.8042C78.0588 35.108 77.1835 35.6887 76.5224 36.4764C75.8613 37.2641 75.4427 38.2253 75.3168 39.2445L60.3555 160.289C60.3321 160.479 60.24 160.653 60.0963 160.78C59.9527 160.907 59.7676 160.977 59.5758 160.977Z" fill="#494949"/>
<path d="M120.457 65.3565C126.423 54.6082 119.403 39.3596 104.776 31.2978C90.1494 23.236 73.455 25.4138 67.4883 36.1621C61.5215 46.9105 68.5419 62.1591 83.1687 70.2209C97.7955 78.2827 114.49 76.1049 120.457 65.3565Z" fill="#0CBC8B"/>
<path opacity="0.2" d="M121.11 136.594C130.776 128.971 130.202 112.204 119.827 99.1445C109.453 86.085 93.2075 81.6781 83.5418 89.3015C73.8761 96.9249 74.4505 113.692 84.8248 126.751C95.1991 139.811 111.445 144.218 121.11 136.594Z" fill="white"/>
<path opacity="0.5" d="M44.5895 88.6434C47.4378 72.2314 39.8998 57.2302 27.7529 55.1372C15.6059 53.0442 3.44991 64.6519 0.60163 81.0639C-2.24665 97.4759 5.29139 112.477 17.4383 114.57C29.5852 116.663 41.7412 105.055 44.5895 88.6434Z" fill="white"/>
<path opacity="0.5" d="M120.457 65.3565C126.423 54.6082 119.403 39.3596 104.776 31.2978C90.1494 23.236 73.455 25.4138 67.4883 36.1621C61.5215 46.9105 68.5419 62.1591 83.1687 70.2209C97.7955 78.2827 114.49 76.1049 120.457 65.3565Z" fill="white"/>
<path d="M78.7117 263.683H40.4374L34.0945 141.662H85.0538L78.7117 263.683Z" fill="#292A2E"/>
<path opacity="0.3" d="M78.7117 263.683H40.4374L34.0945 141.662H85.0538L78.7117 263.683Z" fill="white"/>
<path d="M121.112 136.981C121.053 136.981 120.994 136.967 120.941 136.942C120.887 136.916 120.841 136.878 120.804 136.832L83.2337 89.5395C83.169 89.4581 83.1393 89.3544 83.1513 89.2512C83.1634 89.148 83.216 89.0538 83.2978 88.9893C83.3795 88.9248 83.4835 88.8953 83.5871 88.9073C83.6906 88.9192 83.7852 88.9717 83.8499 89.0531L121.42 136.346C121.466 136.403 121.495 136.473 121.503 136.546C121.511 136.619 121.498 136.693 121.466 136.76C121.434 136.826 121.384 136.882 121.321 136.921C121.258 136.96 121.186 136.981 121.112 136.981Z" fill="white"/>
<path d="M117.957 69.1453C117.874 69.1444 117.792 69.117 117.726 69.0669L69.65 34.089C69.5658 34.0277 69.5094 33.9356 69.4933 33.8329C69.4773 33.7303 69.5028 33.6255 69.5643 33.5415C69.6258 33.4576 69.7183 33.4015 69.8213 33.3855C69.9243 33.3695 70.0295 33.3949 70.1137 33.4562L118.189 68.4349C118.255 68.4842 118.304 68.553 118.329 68.6314C118.353 68.7099 118.352 68.7941 118.326 68.872C118.3 68.95 118.25 69.0178 118.183 69.0659C118.116 69.1139 118.036 69.1398 117.953 69.1398L117.957 69.1453Z" fill="white"/>
<path d="M15.4848 114.059C15.4506 114.059 15.4165 114.054 15.3835 114.045C15.283 114.018 15.1973 113.953 15.1451 113.863C15.0929 113.773 15.0786 113.667 15.1052 113.566L30.4091 56.4317C30.4382 56.334 30.5044 56.2514 30.5936 56.2015C30.6828 56.1516 30.7881 56.1384 30.887 56.1646C30.9858 56.1908 31.0705 56.2544 31.1231 56.3419C31.1756 56.4293 31.1919 56.5338 31.1684 56.633L15.8645 113.768C15.8423 113.851 15.793 113.925 15.7244 113.978C15.6557 114.03 15.5715 114.059 15.4848 114.059Z" fill="white"/>
</svg>
