<svg width="29" height="36" viewBox="0 0 29 36" fill="none" xmlns="http://www.w3.org/2000/svg">
<path d="M8.95771 0C13.7241 0 18.4974 0 23.2637 0C24.49 0.38043 24.8848 1.26106 24.8779 2.51507C24.8502 11.5679 24.8641 20.6278 24.8641 29.6806C24.8641 31.1319 24.0881 31.9209 22.6679 31.9209C15.8509 31.9209 9.03392 31.9209 2.21691 31.9209C0.77592 31.9209 0 31.1319 0 29.6595C0 22.9456 0 16.2317 0 9.51781C0 9.391 0.00692785 9.27123 0.0138557 9.1092C0.19398 9.1092 0.346393 9.1092 0.491878 9.1092C2.30005 9.1092 4.10822 9.12329 5.91639 9.11624C6.23507 9.11624 6.5676 9.09511 6.87243 9.01057C8.17487 8.65127 8.95079 7.61566 8.95079 6.22074C8.96464 4.14951 8.95771 2.07123 8.95771 0ZM12.8235 18.4931C10.7728 18.4931 8.72217 18.4931 6.67152 18.4931C6.42905 18.4931 6.18657 18.4791 5.9441 18.5002C5.54921 18.5284 5.27902 18.7538 5.13354 19.1131C4.98805 19.4654 5.07812 19.7824 5.32059 20.0571C5.54228 20.3108 5.84018 20.3812 6.16579 20.3812C10.6135 20.3812 15.0542 20.3812 19.5019 20.3742C19.6266 20.3742 19.7582 20.3601 19.876 20.3319C20.5203 20.1699 20.7836 19.4301 20.3956 18.8877C20.1808 18.5847 19.8829 18.4861 19.5227 18.4861C17.2919 18.4931 15.0612 18.4931 12.8235 18.4931ZM12.8304 15.2665C14.3822 15.2665 15.941 15.2665 17.4928 15.2665C18.2203 15.2665 18.9408 15.2736 19.6682 15.2595C20.1046 15.2524 20.4857 14.9284 20.5619 14.5268C20.645 14.0971 20.4441 13.6673 20.0284 13.4912C19.8344 13.4137 19.6058 13.3926 19.3911 13.3926C15.0127 13.3855 10.6412 13.3855 6.26278 13.3926C6.12422 13.3926 5.98567 13.3926 5.84711 13.4137C5.18203 13.5194 4.85642 14.2732 5.23053 14.8368C5.44529 15.1609 5.75012 15.2665 6.11729 15.2665C8.36192 15.2665 10.5927 15.2665 12.8304 15.2665ZM9.40802 25.1648C10.5234 25.1648 11.6388 25.1718 12.7542 25.1648C13.4193 25.1577 13.8557 24.6293 13.7241 24.0094C13.6271 23.5585 13.2322 23.2767 12.678 23.2767C10.5026 23.2767 8.32728 23.2767 6.15193 23.2767C5.51457 23.2767 5.07812 23.6571 5.07119 24.2067C5.06426 24.7773 5.49379 25.1577 6.15886 25.1648C7.24653 25.1718 8.32728 25.1718 9.40802 25.1648Z" fill="white"/>
<path d="M29 6.04462C29 15.3722 29 24.6998 29 34.0274C28.9861 34.0626 28.9653 34.0908 28.9584 34.126C28.7021 35.4575 28.0509 36 26.7207 36C19.9245 36 13.1352 36 6.33897 36C6.11035 36 5.87481 36 5.65312 35.9436C4.35761 35.6125 3.92115 34.5346 4.16363 33.0481C4.29526 33.0481 4.43381 33.0481 4.56544 33.0481C10.6135 33.0481 16.6545 33.0481 22.7026 33.0481C23.4508 33.0481 24.1436 32.8861 24.7394 32.4211C25.633 31.7307 25.9794 30.7867 25.9794 29.6665C25.9725 21.29 25.9725 12.9135 25.9725 4.53699C25.9725 4.38904 25.9725 4.2411 25.9725 4.09315C26.4159 4.09315 26.8108 4.06497 27.1987 4.1002C27.8638 4.1636 28.3834 4.49472 28.6952 5.09354C28.8476 5.38239 28.903 5.72759 29 6.04462Z" fill="white"/>
<path d="M7.84925 3.64932C7.84925 4.49472 7.84925 5.33308 7.84925 6.17848C7.84233 7.28454 7.17725 7.982 6.08958 7.98904C4.39918 8.00313 2.70186 7.99609 1.01146 7.98904C0.602719 7.98904 0.256326 7.86928 0.0969852 7.44658C-0.0623555 7.03797 0.103913 6.72799 0.387955 6.43914C2.36239 4.43131 4.33683 2.42349 6.31127 0.408614C6.60224 0.112724 6.93478 -0.0563564 7.32966 0.112724C7.72455 0.281804 7.85618 0.62701 7.84925 1.05676C7.8354 1.91625 7.84925 2.78278 7.84925 3.64932Z" fill="white"/>
</svg>
