<svg width="51" height="48" viewBox="0 0 51 48" fill="none" xmlns="http://www.w3.org/2000/svg">
<rect x="18" y="3" width="15" height="3" fill="white"/>
<rect x="21" width="3" height="3" fill="white"/>
<rect x="27" width="3" height="3" fill="white"/>
<rect x="24" width="3" height="3" fill="white"/>
<rect x="12" y="9" width="24" height="3" fill="white"/>
<rect x="15" y="6" width="21" height="3" fill="white"/>
<rect y="21" width="51" height="3" fill="white"/>
<rect y="24" width="3" height="3" fill="white"/>
<rect x="24" y="45" width="3" height="3" fill="white"/>
<rect x="21" y="45" width="3" height="3" fill="white"/>
<rect x="27" y="45" width="3" height="3" fill="white"/>
<rect x="3" y="27" width="3" height="3" fill="white"/>
<rect x="9" y="12" width="33" height="3" fill="white"/>
<rect x="12" y="36" width="24" height="3" fill="white"/>
<rect x="15" y="39" width="21" height="3" fill="white"/>
<rect x="6" y="27" width="42" height="3" fill="white"/>
<rect x="9" y="24" width="42" height="3" fill="white"/>
<rect x="6" y="30" width="39" height="3" fill="white"/>
<rect x="6" y="15" width="36" height="3" fill="white"/>
<rect x="3" y="18" width="45" height="3" fill="white"/>
<rect x="3" y="24" width="6" height="3" fill="white"/>
<rect x="18" y="42" width="15" height="3" fill="white"/>
<rect x="36" y="36" width="3" height="3" fill="white"/>
<rect x="36" y="9" width="3" height="3" fill="white"/>
<rect x="42" y="15" width="3" height="3" fill="white"/>
<rect x="9" y="33" width="33" height="3" fill="white"/>
</svg>
