<svg width="39" height="38" viewBox="0 0 39 38" fill="none" xmlns="http://www.w3.org/2000/svg">
<path d="M19.2175 33.0936C23.5005 33.0936 27.0006 29.6165 27.0006 25.3104C27.0006 21.0044 23.5235 17.5273 19.2175 17.5273C14.9114 17.5273 11.4574 21.0274 11.4574 25.3335C11.4572 29.6165 14.9343 33.0936 19.2175 33.0936ZM18.7876 25.9706C17.3599 25.4717 16.4696 24.7502 16.4696 23.4684C16.4696 22.2863 17.2525 21.3577 18.6879 21.0659V19.7841H19.7624V21.0045C20.6528 21.0045 21.2976 21.1887 21.7735 21.4421L21.336 22.9772C20.9829 22.8313 20.4072 22.5857 19.6167 22.5857C18.8262 22.5857 18.3963 22.9772 18.3963 23.3686C18.3963 23.906 18.8952 24.1132 19.9698 24.5507C21.436 25.0881 22.1191 25.8325 22.1191 27.0529C22.1191 28.2734 21.3745 29.2022 19.8011 29.5551V30.7756H18.7265V29.5935C17.7977 29.5935 16.8613 29.3479 16.4085 29.0946L16.8 27.521C17.2989 27.7666 18.0817 28.0583 18.9107 28.0583C19.8011 28.0583 20.2386 27.6669 20.2386 27.1296C20.2386 26.5922 19.8162 26.3697 18.7876 25.9706ZM0 10.2249C0 12.3123 1.46888 14.0862 3.35743 14.7385V35.253H0V38H38.4578V35.253H35.1004V14.7351C37.0676 14.1331 38.4119 12.3856 38.4578 10.2249V9.00402H0V10.2249ZM9.65872 10.1251C9.65872 11.1136 10.6896 14.9277 14.5006 14.9277C17.8106 14.9277 19.2623 11.9343 19.2623 10.1251C19.2623 11.8117 20.3932 14.9242 24.0641 14.9242C27.3808 14.9242 28.8504 11.7196 28.8504 10.1251C28.8504 12.3265 30.3347 14.1564 32.3534 14.7269V35.253H6.10442V14.7413C8.1497 14.1876 9.65872 12.3454 9.65872 10.1251ZM38.4578 7.93574H0L4.88353 3.05221V0H33.7269V3.05221H33.7013L38.4578 7.93574Z" fill="black"/>
</svg>
