<svg width="234" height="234" viewBox="0 0 234 234" fill="none" xmlns="http://www.w3.org/2000/svg">
<path style="mix-blend-mode:overlay" opacity="0.43" d="M190.469 161.166H45.8741L99.9213 44.1922H136.422L190.469 161.166Z" fill="url(#paint0_linear_6_12458)"/>
<path d="M42.7195 131.455L44.5522 122.721L54.1855 120.537" stroke="#283035" stroke-width="2" stroke-linecap="round" stroke-linejoin="round"/>
<path d="M35.9085 164.92H47.3979C47.7964 164.92 48.1813 164.775 48.4804 164.511C48.7796 164.248 48.9725 163.884 49.0228 163.489L52.0917 139.41H31.2156L34.2848 163.489C34.3351 163.884 34.5279 164.248 34.8267 164.511C35.1255 164.774 35.5102 164.92 35.9085 164.92Z" fill="#EAD57D"/>
<path d="M34.4092 139.411L36.8442 161.649C36.8943 162.107 37.1115 162.53 37.4543 162.837C37.7969 163.144 38.2408 163.314 38.701 163.314H49.0464L49.0242 163.489C48.9739 163.885 48.7811 164.248 48.4818 164.512C48.1827 164.775 47.7978 164.92 47.3993 164.92H35.9099C35.5114 164.92 35.1265 164.775 34.8274 164.511C34.5283 164.248 34.3355 163.885 34.2852 163.489L31.2156 139.411H34.4092Z" fill="#E5C66E"/>
<path d="M35.9085 164.92H47.3979C47.7964 164.92 48.1813 164.775 48.4804 164.511C48.7796 164.248 48.9725 163.884 49.0228 163.489L52.0917 139.41H31.2156L34.2848 163.489C34.3351 163.884 34.5279 164.248 34.8267 164.511C35.1255 164.774 35.5102 164.92 35.9085 164.92Z" stroke="#283035" stroke-linecap="round" stroke-linejoin="round"/>
<path d="M51.3045 157.988L52.7888 146.343H30.5183L32.0025 157.988H51.3045Z" fill="#5CBF84"/>
<path d="M51.3045 157.988L52.7888 146.343H30.5183L32.0025 157.988H51.3045Z" fill="#4FB277"/>
<path d="M51.2123 156.643L52.457 146.343H33.7819L34.9285 155.826C34.9559 156.051 35.0647 156.258 35.2346 156.409C35.4044 156.56 35.6237 156.643 35.8507 156.643H51.2123Z" fill="#5CBF84"/>
<path d="M51.3045 157.988L52.7888 146.343H30.5183L32.0025 157.988H51.3045Z" stroke="#283035" stroke-linecap="round" stroke-linejoin="round"/>
<path d="M29.8743 139.411H53.433C54.8545 139.411 56.007 138.259 56.007 136.837C56.007 135.415 54.8545 134.263 53.433 134.263H29.8743C28.4528 134.263 27.3003 135.415 27.3003 136.837C27.3003 138.259 28.4528 139.411 29.8743 139.411Z" fill="#5CBF84"/>
<path d="M29.8743 139.411H53.433C54.8545 139.411 56.007 138.259 56.007 136.837C56.007 135.415 54.8545 134.263 53.433 134.263H29.8743C28.4528 134.263 27.3003 135.415 27.3003 136.837C27.3003 138.259 28.4528 139.411 29.8743 139.411Z" fill="#4FB277"/>
<path d="M32.5363 138.299H53.9885C55.103 138.299 56.0067 137.396 56.0067 136.281C56.0067 135.167 55.103 134.263 53.9885 134.263H32.5363C31.4217 134.263 30.518 135.167 30.518 136.281C30.518 137.396 31.4217 138.299 32.5363 138.299Z" fill="#5CBF84"/>
<path d="M29.8743 139.411H53.433C54.8545 139.411 56.007 138.259 56.007 136.837C56.007 135.415 54.8545 134.263 53.433 134.263H29.8743C28.4528 134.263 27.3003 135.415 27.3003 136.837C27.3003 138.259 28.4528 139.411 29.8743 139.411Z" stroke="#283035" stroke-linecap="round" stroke-linejoin="round"/>
<path d="M32.2934 134.263H51.0134L50.643 131.455H32.6641L32.2934 134.263Z" fill="#5CBF84"/>
<path d="M32.6641 131.455H38.1565L36.8564 134.263H32.2934L32.6641 131.455Z" fill="#54AF79"/>
<path d="M32.2934 134.263H51.0134L50.643 131.455H32.6641L32.2934 134.263Z" stroke="#283035" stroke-linecap="round" stroke-linejoin="round"/>
<path d="M72.7038 101.99H151.744C152.806 101.99 153.824 102.412 154.576 103.162C155.326 103.913 155.748 104.932 155.748 105.994V158.15H68.7003V105.994C68.7003 104.932 69.1222 103.914 69.8729 103.163C70.6238 102.412 71.6419 101.99 72.7038 101.99Z" fill="#D2DCE6"/>
<path d="M72.7038 101.99H151.744C152.806 101.99 153.824 102.412 154.576 103.162C155.326 103.913 155.748 104.932 155.748 105.994V158.15H68.7003V105.994C68.7003 104.932 69.1222 103.914 69.8729 103.163C70.6238 102.412 71.6419 101.99 72.7038 101.99Z" stroke="#283035" stroke-linecap="round" stroke-linejoin="round"/>
<path d="M149.196 151.664V108.608H75.2523V151.664H149.196Z" fill="#FF5C5C"/>
<path opacity="0.3" d="M118.172 144.795H130.34" stroke="white" stroke-width="6" stroke-linecap="round" stroke-linejoin="round"/>
<g opacity="0.3">
<path opacity="0.3" d="M147.836 131.411C148.071 131.396 148.303 131.461 148.496 131.594C148.689 131.728 148.831 131.922 148.9 132.146V129.466C148.644 129.391 148.377 129.352 148.11 129.351H147.836C147.248 129.351 146.953 129.645 146.954 130.234V130.549C146.954 131.117 147.248 131.411 147.836 131.411Z" fill="white"/>
<path opacity="0.3" d="M148.9 144.26C148.83 144.483 148.687 144.676 148.494 144.808C148.301 144.941 148.07 145.004 147.836 144.99C147.248 144.99 146.953 145.284 146.954 145.872V146.188C146.954 146.776 147.248 147.07 147.836 147.071H148.11C148.377 147.069 148.644 147.031 148.9 146.956V144.26Z" fill="white"/>
</g>
<path d="M149.196 151.664V108.608H75.2523V151.664H149.196Z" stroke="#283035" stroke-linecap="round" stroke-linejoin="round"/>
<path d="M59.0951 158.184H165.354C165.603 158.184 165.841 158.283 166.016 158.458C166.192 158.634 166.29 158.872 166.29 159.12V160.241C166.29 161.482 165.797 162.673 164.92 163.55C164.042 164.428 162.852 164.921 161.61 164.921H62.8391C61.5979 164.921 60.4076 164.428 59.5298 163.55C58.6521 162.673 58.1591 161.482 58.1591 160.241V159.12C58.1591 158.872 58.2576 158.634 58.4333 158.458C58.6088 158.283 58.8468 158.184 59.0951 158.184Z" fill="#E5E5E5"/>
<path d="M161.61 162.814H62.8381C61.7159 162.813 60.6313 162.409 59.7823 161.675C58.9334 160.941 58.3769 159.926 58.214 158.816C58.1787 158.913 58.1602 159.016 58.1591 159.12V160.241C58.1591 161.482 58.6521 162.673 59.5298 163.55C60.4076 164.428 61.5979 164.921 62.8391 164.921H161.61C162.852 164.921 164.042 164.428 164.92 163.55C165.797 162.673 166.29 161.482 166.29 160.241V159.12C166.289 159.016 166.271 158.913 166.235 158.816C166.073 159.927 165.516 160.942 164.666 161.676C163.817 162.41 162.732 162.814 161.61 162.814Z" fill="#CFD1D0"/>
<path d="M59.0951 158.184H165.354C165.603 158.184 165.841 158.283 166.016 158.458C166.192 158.634 166.29 158.872 166.29 159.12V160.241C166.29 161.482 165.797 162.673 164.92 163.55C164.042 164.428 162.852 164.921 161.61 164.921H62.8391C61.5979 164.921 60.4076 164.428 59.5298 163.55C58.6521 162.673 58.1591 161.482 58.1591 160.241V159.12C58.1591 158.872 58.2576 158.634 58.4333 158.458C58.6088 158.283 58.8468 158.184 59.0951 158.184Z" stroke="#283035" stroke-linecap="round" stroke-linejoin="round"/>
<path d="M102.396 158.15H122.052C122.052 158.646 121.855 159.122 121.504 159.473C121.153 159.825 120.677 160.022 120.18 160.022H104.268C103.772 160.022 103.296 159.825 102.945 159.473C102.594 159.122 102.396 158.646 102.396 158.15Z" fill="#686B6D"/>
<path d="M102.396 158.15H122.052C122.052 158.646 121.855 159.122 121.504 159.473C121.153 159.825 120.677 160.022 120.18 160.022H104.268C103.772 160.022 103.296 159.825 102.945 159.473C102.594 159.122 102.396 158.646 102.396 158.15Z" stroke="#283035" stroke-linecap="round" stroke-linejoin="round"/>
<path d="M112.04 107.083C113.074 107.083 113.912 106.245 113.912 105.211C113.912 104.177 113.074 103.339 112.04 103.339C111.006 103.339 110.168 104.177 110.168 105.211C110.168 106.245 111.006 107.083 112.04 107.083Z" fill="#686B6D"/>
<path d="M112.04 107.083C113.074 107.083 113.912 106.245 113.912 105.211C113.912 104.177 113.074 103.339 112.04 103.339C111.006 103.339 110.168 104.177 110.168 105.211C110.168 106.245 111.006 107.083 112.04 107.083Z" stroke="#283035" stroke-linecap="round" stroke-linejoin="round"/>
<path d="M168.745 164.943C168.756 163.151 169.475 161.436 170.746 160.172C172.017 158.909 173.737 158.199 175.529 158.199C177.321 158.199 179.041 158.909 180.312 160.172C181.583 161.436 182.302 163.151 182.312 164.943H168.745Z" fill="#E5E5E5"/>
<path d="M175.529 162.801C176.499 162.81 177.46 162.611 178.347 162.218C179.234 161.826 180.027 161.247 180.671 160.522C180.035 159.781 179.246 159.187 178.359 158.779C177.471 158.371 176.506 158.16 175.529 158.16C174.552 158.16 173.587 158.371 172.699 158.779C171.812 159.187 171.023 159.781 170.386 160.522C171.031 161.247 171.824 161.826 172.711 162.218C173.598 162.612 174.559 162.81 175.529 162.801Z" fill="#CFD1D0"/>
<path d="M168.745 164.943C168.756 163.151 169.475 161.436 170.746 160.172C172.017 158.909 173.737 158.199 175.529 158.199C177.321 158.199 179.041 158.909 180.312 160.172C181.583 161.436 182.302 163.151 182.312 164.943H168.745Z" stroke="#283035" stroke-linecap="round" stroke-linejoin="round"/>
<g style="mix-blend-mode:multiply" opacity="0.14">
<path d="M123.318 116.949H87.7535C86.7185 116.949 85.8796 117.788 85.8796 118.823V146.431C85.8796 147.466 86.7185 148.305 87.7535 148.305H123.318C124.353 148.305 125.192 147.466 125.192 146.431V118.823C125.192 117.788 124.353 116.949 123.318 116.949Z" fill="black"/>
</g>
<path d="M121.485 115.311H85.9206C84.8856 115.311 84.0468 116.15 84.0468 117.185V144.793C84.0468 145.828 84.8856 146.667 85.9206 146.667H121.485C122.52 146.667 123.359 145.828 123.359 144.793V117.185C123.359 116.15 122.52 115.311 121.485 115.311Z" fill="#353F49"/>
<path d="M121.485 115.311H85.9206C84.8856 115.311 84.0468 116.15 84.0468 117.185V144.793C84.0468 145.828 84.8856 146.667 85.9206 146.667H121.485C122.52 146.667 123.359 145.828 123.359 144.793V117.185C123.359 116.15 122.52 115.311 121.485 115.311Z" stroke="#283035" stroke-linecap="round" stroke-linejoin="round"/>
<path d="M85.9204 115.311H121.485C121.982 115.311 122.459 115.508 122.81 115.86C123.161 116.211 123.359 116.688 123.359 117.185V119.991H84.0468V117.185C84.0468 116.688 84.2442 116.211 84.5955 115.86C84.947 115.508 85.4234 115.311 85.9204 115.311Z" fill="#EAEEEF"/>
<path d="M85.9204 115.311H121.485C121.982 115.311 122.459 115.508 122.81 115.86C123.161 116.211 123.359 116.688 123.359 117.185V119.991H84.0468V117.185C84.0468 116.688 84.2442 116.211 84.5955 115.86C84.947 115.508 85.4234 115.311 85.9204 115.311Z" stroke="#283035" stroke-linecap="round" stroke-linejoin="round"/>
<path opacity="0.35" d="M87.4006 118.382C87.8045 118.382 88.1319 118.055 88.1319 117.651C88.1319 117.247 87.8045 116.919 87.4006 116.919C86.9967 116.919 86.6694 117.247 86.6694 117.651C86.6694 118.055 86.9967 118.382 87.4006 118.382Z" fill="#283035"/>
<path opacity="0.35" d="M89.7016 118.382C90.1055 118.382 90.4328 118.055 90.4328 117.651C90.4328 117.247 90.1055 116.919 89.7016 116.919C89.2977 116.919 88.9703 117.247 88.9703 117.651C88.9703 118.055 89.2977 118.382 89.7016 118.382Z" fill="#283035"/>
<path opacity="0.35" d="M91.8857 118.382C92.2896 118.382 92.617 118.055 92.617 117.651C92.617 117.247 92.2896 116.919 91.8857 116.919C91.4818 116.919 91.1545 117.247 91.1545 117.651C91.1545 118.055 91.4818 118.382 91.8857 118.382Z" fill="#283035"/>
<path d="M85.8796 121.629H88.4536" stroke="#46BB86" stroke-width="3" stroke-miterlimit="10"/>
<path d="M89.3896 121.629H96.4096" stroke="#46BB86" stroke-width="3" stroke-miterlimit="10"/>
<path d="M85.8796 123.501H96.4096" stroke="#389ABE" stroke-width="3" stroke-miterlimit="10"/>
<path d="M87.9857 125.373H93.1337" stroke="#E5C689" stroke-width="3" stroke-miterlimit="10"/>
<path d="M94.0696 125.373H99.6856" stroke="#F2F3F4" stroke-width="3" stroke-miterlimit="10"/>
<path d="M90.7936 127.245H101.558" stroke="#F2F3F4" stroke-width="3" stroke-miterlimit="10"/>
<path d="M90.7936 129.117H98.7496" stroke="#FFA49F" stroke-width="3" stroke-miterlimit="10"/>
<path d="M87.9857 130.989H99.6857" stroke="#F2F3F4" stroke-width="3" stroke-miterlimit="10"/>
<path d="M85.8796 132.627H92.1976" stroke="#389ABE" stroke-width="3" stroke-miterlimit="10"/>
<g opacity="0.3">
<path opacity="0.3" d="M140.316 141.692C140.316 140.767 139.959 140.116 139.244 139.716C138.74 139.443 138.53 139.233 138.53 138.75V137.931C138.53 137.363 138.782 137.237 139.223 136.943C139.959 136.627 140.316 135.955 140.316 134.946V133.159C140.316 131.73 140.842 130.679 141.599 130.237C142.165 129.834 142.838 129.607 143.532 129.586H143.806C144.394 129.586 144.688 129.88 144.689 130.469V130.783C144.689 131.35 144.394 131.644 143.806 131.644C142.987 131.644 142.587 132.233 142.587 133.431V135.638C142.607 136.174 142.474 136.704 142.202 137.167C141.93 137.629 141.531 138.003 141.052 138.245L140.863 138.308V138.35C141.079 138.413 141.279 138.521 141.451 138.665C141.977 138.98 142.587 139.716 142.587 140.998V143.457C142.587 144.634 142.986 145.223 143.806 145.223C144.394 145.223 144.688 145.517 144.689 146.106V146.421C144.689 147.01 144.394 147.304 143.806 147.304H143.532C142.838 147.283 142.165 147.056 141.599 146.652C140.842 146.211 140.316 145.139 140.316 143.731V141.692Z" fill="white"/>
</g>
<path d="M34.848 152.962L35.316 152.506C37.0918 153.946 39.3085 154.732 41.5947 154.732C43.8809 154.732 46.0975 153.946 47.8734 152.506L48.4584 153.078" stroke="#283035" stroke-linecap="round" stroke-linejoin="round"/>
<path d="M40.16 150.602C40.16 150.337 40.0545 150.082 39.8666 149.894C39.6787 149.706 39.4238 149.601 39.1582 149.601C38.8927 149.601 38.6378 149.706 38.4499 149.894C38.262 150.082 38.1565 150.337 38.1565 150.602V151.52" stroke="#283035" stroke-linecap="round" stroke-linejoin="round"/>
<path d="M43.1468 150.602C43.1468 150.337 43.2523 150.082 43.4402 149.894C43.6281 149.706 43.883 149.601 44.1485 149.601C44.4141 149.601 44.669 149.706 44.8569 149.894C45.0448 150.082 45.1503 150.337 45.1503 150.602V151.52" stroke="#283035" stroke-linecap="round" stroke-linejoin="round"/>
<path d="M212.581 162.377L210.263 162.7L211.745 164.856L212.581 162.377Z" fill="#E5E5E5"/>
<path d="M212.581 162.377L210.263 162.7L211.745 164.856L212.581 162.377Z" stroke="#283035" stroke-linecap="round" stroke-linejoin="round"/>
<path d="M206.07 134.523H187.865C186.689 134.523 185.735 135.477 185.735 136.653V162.814C185.735 163.99 186.689 164.943 187.865 164.943H206.07C207.246 164.943 208.199 163.99 208.199 162.814V136.653C208.199 135.477 207.246 134.523 206.07 134.523Z" fill="#E5E5E5"/>
<path d="M206.07 134.523H205.8C205.839 134.684 205.859 134.849 205.859 135.015V161.176C205.859 161.741 205.635 162.282 205.236 162.681C204.836 163.081 204.295 163.305 203.73 163.305H185.796C185.906 163.771 186.171 164.187 186.547 164.484C186.922 164.781 187.387 164.943 187.866 164.943H206.071C206.636 164.943 207.178 164.719 207.577 164.319C207.976 163.92 208.201 163.379 208.201 162.814V136.653C208.201 136.373 208.146 136.096 208.039 135.837C207.931 135.579 207.774 135.344 207.577 135.146C207.379 134.949 207.144 134.792 206.885 134.685C206.627 134.578 206.35 134.523 206.07 134.523Z" fill="#CFD1D0"/>
<path d="M206.07 134.523H187.865C186.689 134.523 185.735 135.477 185.735 136.653V162.814C185.735 163.99 186.689 164.943 187.865 164.943H206.07C207.246 164.943 208.199 163.99 208.199 162.814V136.653C208.199 135.477 207.246 134.523 206.07 134.523Z" stroke="#283035" stroke-linecap="round" stroke-linejoin="round"/>
<path d="M200.711 132.758H198.839V132.056C198.839 131.559 198.642 131.083 198.291 130.732C197.94 130.381 197.464 130.184 196.967 130.184C196.471 130.184 195.995 130.381 195.644 130.732C195.293 131.083 195.095 131.559 195.095 132.056V132.758H193.223C192.727 132.758 192.251 132.955 191.9 133.306C191.549 133.657 191.351 134.133 191.351 134.63C191.351 135.127 191.549 135.603 191.9 135.954C192.251 136.305 192.727 136.502 193.223 136.502H200.711C201.208 136.502 201.684 136.305 202.035 135.954C202.386 135.603 202.583 135.127 202.583 134.63C202.583 134.133 202.386 133.657 202.035 133.306C201.684 132.955 201.208 132.758 200.711 132.758Z" fill="#F7B66F"/>
<path d="M201.581 132.973C201.657 133.251 201.668 133.542 201.613 133.824C201.558 134.106 201.438 134.372 201.263 134.6C201.088 134.829 200.863 135.014 200.605 135.14C200.347 135.267 200.063 135.333 199.775 135.332H192.287C191.984 135.332 191.686 135.258 191.418 135.117C191.525 135.514 191.759 135.865 192.086 136.115C192.412 136.366 192.812 136.502 193.223 136.502H200.711C201.13 136.502 201.536 136.361 201.865 136.103C202.194 135.845 202.427 135.484 202.527 135.078C202.627 134.672 202.589 134.244 202.417 133.863C202.245 133.481 201.951 133.168 201.581 132.973Z" fill="#EDA762"/>
<path d="M197.903 130.886V131.588H198.778C198.713 131.335 198.595 131.099 198.433 130.894C198.271 130.689 198.068 130.521 197.837 130.399C197.881 130.558 197.903 130.721 197.903 130.886Z" fill="#EDA762"/>
<path d="M200.711 132.758H198.839V132.056C198.839 131.559 198.642 131.083 198.291 130.732C197.94 130.381 197.464 130.184 196.967 130.184C196.471 130.184 195.995 130.381 195.644 130.732C195.293 131.083 195.095 131.559 195.095 132.056V132.758H193.223C192.727 132.758 192.251 132.955 191.9 133.306C191.549 133.657 191.351 134.133 191.351 134.63C191.351 135.127 191.549 135.603 191.9 135.954C192.251 136.305 192.727 136.502 193.223 136.502H200.711C201.208 136.502 201.684 136.305 202.035 135.954C202.386 135.603 202.583 135.127 202.583 134.63C202.583 134.133 202.386 133.657 202.035 133.306C201.684 132.955 201.208 132.758 200.711 132.758Z" stroke="#283035" stroke-linecap="round" stroke-linejoin="round"/>
<path d="M196.967 143.288C198.044 143.288 198.917 142.415 198.917 141.338C198.917 140.261 198.044 139.388 196.967 139.388C195.891 139.388 195.017 140.261 195.017 141.338C195.017 142.415 195.891 143.288 196.967 143.288Z" fill="#8EAFBF"/>
<path d="M196.967 143.288C198.044 143.288 198.917 142.415 198.917 141.338C198.917 140.261 198.044 139.388 196.967 139.388C195.891 139.388 195.017 140.261 195.017 141.338C195.017 142.415 195.891 143.288 196.967 143.288Z" stroke="#283035" stroke-linecap="round" stroke-linejoin="round"/>
<path d="M189.532 147.344H194.212" stroke="#283035" stroke-linecap="round" stroke-linejoin="round"/>
<path d="M189.532 153.701H194.212" stroke="#283035" stroke-linecap="round" stroke-linejoin="round"/>
<path d="M189.532 160.058H194.212" stroke="#283035" stroke-linecap="round" stroke-linejoin="round"/>
<path d="M197.304 147.094L198.524 148.717L202.175 145.972" stroke="#8BAFC1" stroke-linecap="round" stroke-linejoin="round"/>
<path d="M197.304 153.451L198.524 155.074L202.175 152.329" stroke="#8BAFC1" stroke-linecap="round" stroke-linejoin="round"/>
<path d="M210.517 147.544L208.199 147.867L210.263 162.7L212.581 162.378L210.517 147.544Z" fill="#3BBC88"/>
<path d="M210.517 147.544L208.199 147.867L210.263 162.7L212.581 162.378L210.517 147.544Z" stroke="#283035" stroke-linecap="round" stroke-linejoin="round"/>
<path d="M209.661 145.188L208.271 145.382L208.594 147.699L209.984 147.505L209.661 145.188Z" fill="#E5E5E5"/>
<path d="M209.661 145.188L208.271 145.382L208.594 147.699L209.984 147.505L209.661 145.188Z" stroke="#283035" stroke-linecap="round" stroke-linejoin="round"/>
<path d="M212.612 153.398C212.35 152.966 212.165 152.492 212.063 151.997C211.805 150.726 212.443 149.999 212.098 149.276C211.96 148.987 211.894 148.593 210.86 148.444" stroke="#283035" stroke-linecap="round" stroke-linejoin="round"/>
<path d="M215.456 164.943H221.481" stroke="#283035" stroke-linecap="round" stroke-linejoin="round"/>
<path d="M54.8339 164.943H212.823" stroke="#283035" stroke-linecap="round" stroke-linejoin="round"/>
<path d="M26.8515 164.943H52.0921" stroke="#283035" stroke-linecap="round" stroke-linejoin="round"/>
<path d="M18.7979 164.943H24.219" stroke="#283035" stroke-linecap="round" stroke-linejoin="round"/>
<path d="M118.172 53.2542C121.273 53.2542 123.788 50.7399 123.788 47.6382C123.788 44.5365 121.273 42.0222 118.172 42.0222C115.07 42.0222 112.556 44.5365 112.556 47.6382C112.556 50.7399 115.07 53.2542 118.172 53.2542Z" fill="white"/>
<path d="M102.05 48.906C101.764 48.905 101.482 48.8435 101.222 48.7256C100.962 48.6074 100.73 48.4356 100.541 48.2213C100.352 48.0069 100.211 47.7549 100.127 47.4821C100.043 47.2092 100.017 46.9214 100.052 46.638C101.144 37.3698 108.84 30.186 118.172 30.186C127.504 30.186 135.2 37.3698 136.291 46.638C136.326 46.9217 136.301 47.2092 136.216 47.4823C136.132 47.7552 135.991 48.0072 135.802 48.2215C135.613 48.4359 135.381 48.6076 135.121 48.7258C134.861 48.8437 134.578 48.905 134.293 48.906H102.05Z" fill="#F7B66F"/>
<path d="M120.98 30.4069C120.919 30.3973 120.858 30.3905 120.798 30.3816C120.585 30.3502 120.371 30.3219 120.156 30.2981C120.058 30.2871 119.96 30.2782 119.862 30.2688C119.683 30.252 119.505 30.2368 119.326 30.2265C119.222 30.2204 119.119 30.2127 119.015 30.2077C118.735 30.1946 118.453 30.186 118.173 30.186C117.892 30.186 117.611 30.1944 117.333 30.2077C117.204 30.2138 117.077 30.2239 116.949 30.2325C116.811 30.2421 116.673 30.252 116.536 30.2648C116.367 30.28 116.2 30.2983 116.033 30.3184C115.951 30.3282 115.869 30.3392 115.788 30.3502C107.359 31.4788 100.736 38.5019 99.9905 47.2565C99.972 47.4657 99.9971 47.6765 100.064 47.8757C100.132 48.0746 100.24 48.2576 100.381 48.4125C100.523 48.5676 100.695 48.6916 100.888 48.7766C101.08 48.8615 101.287 48.9055 101.497 48.906H134.847C135.055 48.9067 135.261 48.8641 135.452 48.781C135.643 48.6982 135.815 48.5765 135.957 48.4239C136.099 48.2711 136.207 48.091 136.276 47.8942C136.345 47.6976 136.372 47.4889 136.356 47.2811C135.633 38.6615 129.215 31.7112 120.98 30.4069ZM106.243 43.7414C107.039 40.8489 108.524 38.1925 110.572 35.9999C112.619 33.8074 115.168 32.1441 117.999 31.1522C120.833 32.142 123.384 33.8046 125.434 35.9974C127.484 38.1902 128.971 40.8475 129.768 43.7414C129.869 44.1153 129.883 44.5077 129.807 44.8877C129.732 45.2677 129.57 45.6255 129.334 45.9328C129.098 46.24 128.795 46.4888 128.447 46.6593C128.099 46.8302 127.716 46.9181 127.329 46.917H108.683C108.295 46.9184 107.913 46.8302 107.565 46.6596C107.217 46.4888 106.913 46.2402 106.677 45.933C106.441 45.6255 106.279 45.268 106.204 44.888C106.129 44.5077 106.142 44.1153 106.243 43.7414Z" fill="#EFAA65"/>
<path d="M102.066 48.906C101.778 48.9053 101.494 48.8433 101.232 48.7246C100.97 48.6058 100.736 48.4328 100.546 48.2168C100.355 48.0011 100.213 47.7474 100.128 47.4725C100.043 47.1975 100.018 46.9078 100.053 46.6224C101.152 37.3606 108.845 30.186 118.172 30.186C127.498 30.186 135.191 37.3606 136.289 46.6224C136.324 46.9078 136.299 47.1975 136.214 47.4725C136.129 47.7474 135.987 48.0011 135.797 48.2171C135.607 48.4328 135.373 48.606 135.111 48.7246C134.849 48.8435 134.564 48.9053 134.277 48.906H102.066Z" stroke="#283035" stroke-linecap="round" stroke-linejoin="round"/>
<path d="M118.172 0V30.186" stroke="#283035" stroke-linejoin="round"/>
<defs>
<linearGradient id="paint0_linear_6_12458" x1="118.172" y1="42.5657" x2="118.172" y2="165.294" gradientUnits="userSpaceOnUse">
<stop stop-color="white"/>
<stop offset="0.093" stop-color="white" stop-opacity="0.864"/>
<stop offset="0.284" stop-color="white" stop-opacity="0.605"/>
<stop offset="0.466" stop-color="white" stop-opacity="0.389"/>
<stop offset="0.633" stop-color="white" stop-opacity="0.221"/>
<stop offset="0.784" stop-color="white" stop-opacity="0.1"/>
<stop offset="0.911" stop-color="white" stop-opacity="0.026"/>
<stop offset="1" stop-color="white" stop-opacity="0"/>
</linearGradient>
</defs>
</svg>
