<svg width="38" height="39" viewBox="0 0 38 39" fill="none" xmlns="http://www.w3.org/2000/svg">
<path d="M34.8341 20.3123V13.8127H31.6682V10.5623H28.5V8.93771H31.6682V4.06271H26.9182V7.31189H23.75V10.5623H14.25V7.31189H11.0841V4.06271H6.33413V8.93771H9.5V10.5623H6.33413V13.8127H3.16825V20.3123H0V31.6869H4.75V25.1873H6.33413V31.6869H9.5V34.9373H17.4183V30.0623H11.0841V28.4377H26.9182V30.0623H20.5841V34.9373H28.5V31.6869H31.6682V25.1873H33.25V31.6869H38V20.3123H34.8341ZM14.25 18.6877H9.5V13.8127H14.25V18.6877ZM28.5 18.6877H23.75V13.8127H28.5V18.6877Z" fill="black"/>
</svg>
