<svg width="37" height="32" viewBox="0 0 37 32" fill="none" xmlns="http://www.w3.org/2000/svg">
<path d="M36.8099 11.968C36.7156 12.1346 36.5895 12.2807 36.439 12.3983C36.2884 12.5158 36.1163 12.6023 35.9325 12.6529C35.7486 12.7035 35.5567 12.7172 35.3676 12.6932C35.1785 12.6692 34.9959 12.6079 34.8304 12.5129L18.4469 3.13661L2.17084 12.5129C1.83681 12.7049 1.4406 12.7556 1.06936 12.654C0.698131 12.5523 0.382287 12.3065 0.191314 11.9707C0.000340311 11.6349 -0.0501184 11.2366 0.0510377 10.8634C0.152194 10.4901 0.396678 10.1726 0.730708 9.98064L3.85186 8.18276V1.65461C3.85325 1.32366 3.98481 1.00671 4.21783 0.772943C4.45086 0.539175 4.76642 0.40758 5.09561 0.406888H8.29532C8.62497 0.407583 8.94092 0.53954 9.17402 0.773876C9.40712 1.00821 9.53838 1.32584 9.53907 1.65724V4.90552L17.7243 0.19367C17.9433 0.0672224 18.1914 0.000464097 18.444 2.41108e-06C18.6966 -0.000459275 18.9449 0.0653912 19.1644 0.191038L36.2653 9.97801C36.4311 10.0726 36.5768 10.1992 36.694 10.3504C36.8111 10.5017 36.8974 10.6747 36.948 10.8595C36.9986 11.0443 37.0125 11.2374 36.9888 11.4276C36.9651 11.6178 36.9043 11.8015 36.8099 11.968ZM33.1467 14.4345V30.7496C33.1461 31.081 33.0148 31.3987 32.7817 31.633C32.5486 31.8673 32.2326 31.9993 31.903 32H5.09561C4.76596 31.9993 4.45001 31.8673 4.21691 31.633C3.98382 31.3987 3.85256 31.081 3.85186 30.7496V14.4293L18.4469 6.02689L33.1467 14.4345ZM15.3886 17.0932H9.53907V23.0475H15.3886V17.0932ZM27.4595 17.0932H21.61V23.0475H27.4595V17.0932Z" fill="black"/>
</svg>
