<svg width="13" height="15" viewBox="0 0 13 15" fill="none" xmlns="http://www.w3.org/2000/svg">
<path d="M8.6625 4.575C8.30156 2.28047 7.39922 0.65625 6.39375 0.65625C5.3625 0.65625 4.48594 2.28047 4.09922 4.575H8.6625ZM3.91875 7.05C3.91875 7.64297 3.94453 8.18438 3.99609 8.7H8.76562C8.81719 8.18438 8.84297 7.64297 8.84297 7.05C8.84297 6.48281 8.81719 5.94141 8.76562 5.4H3.99609C3.94453 5.94141 3.91875 6.48281 3.91875 7.05ZM12.2719 4.575C11.55 2.84766 10.0547 1.48125 8.19844 0.939844C8.84297 1.81641 9.25547 3.13125 9.4875 4.575H12.2719ZM4.56328 0.939844C2.70703 1.48125 1.21172 2.84766 0.489844 4.575H3.27422C3.50625 3.13125 3.91875 1.81641 4.56328 0.939844ZM12.5555 5.4H9.59062C9.64219 5.94141 9.69375 6.50859 9.69375 7.05C9.69375 7.61719 9.64219 8.15859 9.59062 8.7H12.5555C12.6844 8.18438 12.7617 7.64297 12.7617 7.05C12.7617 6.48281 12.6844 5.94141 12.5555 5.4ZM3.09375 7.05C3.09375 6.50859 3.11953 5.94141 3.17109 5.4H0.20625C0.0773437 5.94141 0 6.48281 0 7.05C0 7.64297 0.0773437 8.18438 0.20625 8.7H3.17109C3.11953 8.15859 3.09375 7.61719 3.09375 7.05ZM4.09922 9.525C4.48594 11.8453 5.3625 13.4437 6.39375 13.4437C7.39922 13.4437 8.30156 11.8453 8.6625 9.525H4.09922ZM8.19844 13.1859C10.0547 12.6445 11.55 11.2781 12.2719 9.525H9.4875C9.28125 10.9945 8.84297 12.3094 8.19844 13.1859ZM0.489844 9.525C1.21172 11.2781 2.70703 12.6445 4.56328 13.1859C3.91875 12.3094 3.50625 10.9945 3.27422 9.525H0.489844Z" fill="#FEFEFE"/>
</svg>
