<svg width="224" height="238" viewBox="0 0 224 238" fill="none" xmlns="http://www.w3.org/2000/svg">
<path d="M210.577 55.0181L147.422 55.0181C146.221 55.0181 145.07 54.543 144.221 53.6972C143.372 52.8514 142.896 51.7043 142.896 50.5082V4.69647C142.896 3.50092 143.372 2.35433 144.221 1.50894C145.069 0.663556 146.22 0.188626 147.42 0.188626L210.579 0.188626C211.779 0.188626 212.93 0.663556 213.778 1.50894C214.627 2.35433 215.103 3.50092 215.103 4.69647V50.5082C215.103 51.7043 214.627 52.8514 213.778 53.6972C212.929 54.543 211.778 55.0181 210.577 55.0181Z" fill="white"/>
<path d="M142.706 50.508V4.69628C142.706 3.45075 143.203 2.25623 144.087 1.37551C144.971 0.494785 146.17 0 147.42 0H210.579C211.829 0 213.028 0.494785 213.912 1.37551C214.796 2.25623 215.293 3.45075 215.293 4.69628V50.508C215.293 51.125 215.171 51.7359 214.934 52.306C214.697 52.876 214.349 53.394 213.912 53.8302C213.474 54.2665 212.954 54.6126 212.382 54.8487C211.81 55.0848 211.197 55.2064 210.577 55.2064H147.422C146.802 55.2064 146.189 55.0848 145.617 54.8487C145.045 54.6126 144.525 54.2665 144.087 53.8302C143.65 53.394 143.302 52.876 143.065 52.306C142.828 51.7359 142.706 51.125 142.706 50.508ZM147.42 0.37686C146.27 0.37718 145.168 0.832401 144.355 1.64241C143.542 2.45243 143.086 3.55091 143.086 4.69628V50.508C143.086 51.6541 143.543 52.7533 144.356 53.5638C145.169 54.3742 146.273 54.8295 147.423 54.8295H210.577C211.728 54.8295 212.831 54.3742 213.644 53.5638C214.457 52.7533 214.914 51.6541 214.914 50.508V4.69628C214.914 3.5507 214.458 2.45204 213.645 1.64199C212.832 0.83194 211.729 0.37686 210.579 0.37686H147.42Z" fill="#292A2E"/>
<path d="M142.896 4.69584V8.51297H215.103V4.69584C215.103 3.50028 214.626 2.35369 213.778 1.50831C212.929 0.662921 211.779 0.187989 210.579 0.187989H147.42C146.825 0.187989 146.237 0.304589 145.688 0.531134C145.139 0.757678 144.641 1.08973 144.221 1.50832C143.801 1.92692 143.467 2.42386 143.24 2.97078C143.013 3.5177 142.896 4.10387 142.896 4.69584Z" fill="#292A2E"/>
<path d="M167.556 14.6829H164.148C164.108 14.6829 164.07 14.667 164.041 14.6387C164.013 14.6104 163.997 14.5721 163.997 14.5321C163.997 14.4921 164.013 14.4538 164.041 14.4255C164.07 14.3972 164.108 14.3814 164.148 14.3814H167.556C167.596 14.3814 167.634 14.3972 167.663 14.4255C167.691 14.4538 167.707 14.4921 167.707 14.5321C167.707 14.5721 167.691 14.6104 167.663 14.6387C167.634 14.667 167.596 14.6829 167.556 14.6829Z" fill="#292A2E"/>
<path d="M161.691 14.6829H160.402C160.362 14.6829 160.323 14.667 160.295 14.6387C160.267 14.6104 160.251 14.5721 160.251 14.5321C160.251 14.4921 160.267 14.4538 160.295 14.4255C160.323 14.3972 160.362 14.3814 160.402 14.3814H161.691C161.731 14.3814 161.77 14.3972 161.798 14.4255C161.827 14.4538 161.843 14.4921 161.843 14.5321C161.843 14.5721 161.827 14.6104 161.798 14.6387C161.77 14.667 161.731 14.6829 161.691 14.6829Z" fill="#367CFF"/>
<path d="M161.691 17.4021H160.402C160.362 17.4021 160.323 17.3862 160.295 17.3579C160.267 17.3297 160.251 17.2913 160.251 17.2514C160.251 17.2114 160.267 17.173 160.295 17.1448C160.323 17.1165 160.362 17.1006 160.402 17.1006H161.691C161.731 17.1006 161.77 17.1165 161.798 17.1448C161.827 17.173 161.843 17.2114 161.843 17.2514C161.843 17.2913 161.827 17.3297 161.798 17.3579C161.77 17.3862 161.731 17.4021 161.691 17.4021Z" fill="#367CFF"/>
<path d="M161.691 20.1218H160.402C160.362 20.1218 160.323 20.1059 160.295 20.0777C160.267 20.0494 160.251 20.0111 160.251 19.9711C160.251 19.9311 160.267 19.8928 160.295 19.8645C160.323 19.8362 160.362 19.8203 160.402 19.8203H161.691C161.731 19.8203 161.77 19.8362 161.798 19.8645C161.827 19.8928 161.843 19.9311 161.843 19.9711C161.843 20.0111 161.827 20.0494 161.798 20.0777C161.77 20.1059 161.731 20.1218 161.691 20.1218Z" fill="#367CFF"/>
<path d="M161.691 22.8411H160.402C160.362 22.8411 160.323 22.8252 160.295 22.7969C160.267 22.7686 160.251 22.7303 160.251 22.6903C160.251 22.6503 160.267 22.612 160.295 22.5837C160.323 22.5555 160.362 22.5396 160.402 22.5396H161.691C161.731 22.5396 161.77 22.5555 161.798 22.5837C161.827 22.612 161.843 22.6503 161.843 22.6903C161.843 22.7303 161.827 22.7686 161.798 22.7969C161.77 22.8252 161.731 22.8411 161.691 22.8411Z" fill="#367CFF"/>
<path d="M161.691 25.5603H160.402C160.362 25.5603 160.323 25.5444 160.295 25.5162C160.267 25.4879 160.251 25.4495 160.251 25.4096C160.251 25.3696 160.267 25.3312 160.295 25.303C160.323 25.2747 160.362 25.2588 160.402 25.2588H161.691C161.731 25.2588 161.77 25.2747 161.798 25.303C161.827 25.3312 161.843 25.3696 161.843 25.4096C161.843 25.4495 161.827 25.4879 161.798 25.5162C161.77 25.5444 161.731 25.5603 161.691 25.5603Z" fill="#367CFF"/>
<path d="M161.691 28.28H160.402C160.362 28.28 160.323 28.2642 160.295 28.2359C160.267 28.2076 160.251 28.1693 160.251 28.1293C160.251 28.0893 160.267 28.051 160.295 28.0227C160.323 27.9944 160.362 27.9785 160.402 27.9785H161.691C161.731 27.9785 161.77 27.9944 161.798 28.0227C161.827 28.051 161.843 28.0893 161.843 28.1293C161.843 28.1693 161.827 28.2076 161.798 28.2359C161.77 28.2642 161.731 28.28 161.691 28.28Z" fill="#367CFF"/>
<path d="M161.691 30.9993H160.402C160.362 30.9993 160.323 30.9834 160.295 30.9551C160.267 30.9269 160.251 30.8885 160.251 30.8485C160.251 30.8086 160.267 30.7702 160.295 30.7419C160.323 30.7137 160.362 30.6978 160.402 30.6978H161.691C161.731 30.6978 161.77 30.7137 161.798 30.7419C161.827 30.7702 161.843 30.8086 161.843 30.8485C161.843 30.8885 161.827 30.9269 161.798 30.9551C161.77 30.9834 161.731 30.9993 161.691 30.9993Z" fill="#367CFF"/>
<path d="M161.691 33.719H160.402C160.362 33.719 160.323 33.7031 160.295 33.6749C160.267 33.6466 160.251 33.6082 160.251 33.5683C160.251 33.5283 160.267 33.4899 160.295 33.4617C160.323 33.4334 160.362 33.4175 160.402 33.4175H161.691C161.731 33.4175 161.77 33.4334 161.798 33.4617C161.827 33.4899 161.843 33.5283 161.843 33.5683C161.843 33.6082 161.827 33.6466 161.798 33.6749C161.77 33.7031 161.731 33.719 161.691 33.719Z" fill="#367CFF"/>
<path d="M161.691 36.4383H160.402C160.362 36.4383 160.323 36.4224 160.295 36.3941C160.267 36.3658 160.251 36.3275 160.251 36.2875C160.251 36.2475 160.267 36.2092 160.295 36.1809C160.323 36.1526 160.362 36.1368 160.402 36.1368H161.691C161.731 36.1368 161.77 36.1526 161.798 36.1809C161.827 36.2092 161.843 36.2475 161.843 36.2875C161.843 36.3275 161.827 36.3658 161.798 36.3941C161.77 36.4224 161.731 36.4383 161.691 36.4383Z" fill="#367CFF"/>
<path d="M161.691 39.1575H160.402C160.362 39.1575 160.323 39.1416 160.295 39.1133C160.267 39.0851 160.251 39.0467 160.251 39.0067C160.251 38.9668 160.267 38.9284 160.295 38.9002C160.323 38.8719 160.362 38.856 160.402 38.856H161.691C161.731 38.856 161.77 38.8719 161.798 38.9002C161.827 38.9284 161.843 38.9668 161.843 39.0067C161.843 39.0467 161.827 39.0851 161.798 39.1133C161.77 39.1416 161.731 39.1575 161.691 39.1575Z" fill="#367CFF"/>
<path d="M161.691 41.8772H160.402C160.362 41.8772 160.323 41.8613 160.295 41.8331C160.267 41.8048 160.251 41.7665 160.251 41.7265C160.251 41.6865 160.267 41.6482 160.295 41.6199C160.323 41.5916 160.362 41.5757 160.402 41.5757H161.691C161.731 41.5757 161.77 41.5916 161.798 41.6199C161.827 41.6482 161.843 41.6865 161.843 41.7265C161.843 41.7665 161.827 41.8048 161.798 41.8331C161.77 41.8613 161.731 41.8772 161.691 41.8772Z" fill="#367CFF"/>
<path d="M161.691 44.5965H160.402C160.362 44.5965 160.323 44.5806 160.295 44.5523C160.267 44.524 160.251 44.4857 160.251 44.4457C160.251 44.4057 160.267 44.3674 160.295 44.3391C160.323 44.3109 160.362 44.295 160.402 44.295H161.691C161.731 44.295 161.77 44.3109 161.798 44.3391C161.827 44.3674 161.843 44.4057 161.843 44.4457C161.843 44.4857 161.827 44.524 161.798 44.5523C161.77 44.5806 161.731 44.5965 161.691 44.5965Z" fill="#367CFF"/>
<path d="M161.691 47.3157H160.402C160.362 47.3157 160.323 47.2998 160.295 47.2716C160.267 47.2433 160.251 47.2049 160.251 47.165C160.251 47.125 160.267 47.0866 160.295 47.0584C160.323 47.0301 160.362 47.0142 160.402 47.0142H161.691C161.731 47.0142 161.77 47.0301 161.798 47.0584C161.827 47.0866 161.843 47.125 161.843 47.165C161.843 47.2049 161.827 47.2433 161.798 47.2716C161.77 47.2998 161.731 47.3157 161.691 47.3157Z" fill="#367CFF"/>
<path d="M161.691 50.0354H160.402C160.362 50.0354 160.323 50.0196 160.295 49.9913C160.267 49.963 160.251 49.9247 160.251 49.8847C160.251 49.8447 160.267 49.8064 160.295 49.7781C160.323 49.7498 160.362 49.7339 160.402 49.7339H161.691C161.731 49.7339 161.77 49.7498 161.798 49.7781C161.827 49.8064 161.843 49.8447 161.843 49.8847C161.843 49.9247 161.827 49.963 161.798 49.9913C161.77 50.0196 161.731 50.0354 161.691 50.0354Z" fill="#367CFF"/>
<path d="M170.279 17.4026H167.174C167.134 17.4026 167.096 17.3867 167.067 17.3584C167.039 17.3302 167.023 17.2918 167.023 17.2518C167.023 17.2119 167.039 17.1735 167.067 17.1452C167.096 17.117 167.134 17.1011 167.174 17.1011H170.279C170.319 17.1011 170.357 17.117 170.386 17.1452C170.414 17.1735 170.43 17.2119 170.43 17.2518C170.43 17.2918 170.414 17.3302 170.386 17.3584C170.357 17.3867 170.319 17.4026 170.279 17.4026Z" fill="#292A2E"/>
<path d="M167.556 33.719H164.148C164.108 33.719 164.07 33.7031 164.041 33.6749C164.013 33.6466 163.997 33.6082 163.997 33.5683C163.997 33.5283 164.013 33.4899 164.041 33.4617C164.07 33.4334 164.108 33.4175 164.148 33.4175H167.556C167.596 33.4175 167.634 33.4334 167.663 33.4617C167.691 33.4899 167.707 33.5283 167.707 33.5683C167.707 33.6082 167.691 33.6466 167.663 33.6749C167.634 33.7031 167.596 33.719 167.556 33.719Z" fill="#292A2E"/>
<path d="M170.279 36.4383H167.174C167.134 36.4383 167.096 36.4224 167.067 36.3941C167.039 36.3658 167.023 36.3275 167.023 36.2875C167.023 36.2475 167.039 36.2092 167.067 36.1809C167.096 36.1526 167.134 36.1368 167.174 36.1368H170.279C170.319 36.1368 170.357 36.1526 170.386 36.1809C170.414 36.2092 170.43 36.2475 170.43 36.2875C170.43 36.3275 170.414 36.3658 170.386 36.3941C170.357 36.4224 170.319 36.4383 170.279 36.4383Z" fill="#292A2E"/>
<path d="M187.828 20.1218H169.292C169.252 20.1218 169.214 20.1059 169.185 20.0777C169.157 20.0494 169.141 20.0111 169.141 19.9711C169.141 19.9311 169.157 19.8928 169.185 19.8645C169.214 19.8362 169.252 19.8203 169.292 19.8203H187.828C187.868 19.8203 187.907 19.8362 187.935 19.8645C187.963 19.8928 187.979 19.9311 187.979 19.9711C187.979 20.0111 187.963 20.0494 187.935 20.0777C187.907 20.1059 187.868 20.1218 187.828 20.1218Z" fill="#292A2E"/>
<path d="M204.193 20.1218H191.104C191.064 20.1218 191.025 20.1059 190.997 20.0777C190.969 20.0494 190.953 20.0111 190.953 19.9711C190.953 19.9311 190.969 19.8928 190.997 19.8645C191.025 19.8362 191.064 19.8203 191.104 19.8203H204.193C204.233 19.8203 204.272 19.8362 204.3 19.8645C204.328 19.8928 204.344 19.9311 204.344 19.9711C204.344 20.0111 204.328 20.0494 204.3 20.0777C204.272 20.1059 204.233 20.1218 204.193 20.1218Z" fill="#0CBC8B"/>
<path d="M211.218 20.1218H207.205C207.165 20.1218 207.127 20.1059 207.099 20.0777C207.07 20.0494 207.054 20.0111 207.054 19.9711C207.054 19.9311 207.07 19.8928 207.099 19.8645C207.127 19.8362 207.165 19.8203 207.205 19.8203H211.218C211.258 19.8203 211.296 19.8362 211.325 19.8645C211.353 19.8928 211.369 19.9311 211.369 19.9711C211.369 20.0111 211.353 20.0494 211.325 20.0777C211.296 20.1059 211.258 20.1218 211.218 20.1218Z" fill="#292A2E"/>
<path d="M196.905 25.5608H169.292C169.252 25.5608 169.214 25.5449 169.185 25.5166C169.157 25.4884 169.141 25.45 169.141 25.4101C169.141 25.3701 169.157 25.3317 169.185 25.3035C169.214 25.2752 169.252 25.2593 169.292 25.2593H196.905C196.945 25.2593 196.984 25.2752 197.012 25.3035C197.04 25.3317 197.056 25.3701 197.056 25.4101C197.056 25.45 197.04 25.4884 197.012 25.5166C196.984 25.5449 196.945 25.5608 196.905 25.5608Z" fill="#292A2E"/>
<path d="M204.193 25.5608H200.181C200.141 25.5608 200.102 25.5449 200.074 25.5166C200.046 25.4884 200.03 25.45 200.03 25.4101C200.03 25.3701 200.046 25.3317 200.074 25.3035C200.102 25.2752 200.141 25.2593 200.181 25.2593H204.193C204.233 25.2593 204.272 25.2752 204.3 25.3035C204.328 25.3317 204.344 25.3701 204.344 25.4101C204.344 25.45 204.328 25.4884 204.3 25.5166C204.272 25.5449 204.233 25.5608 204.193 25.5608Z" fill="#367CFF"/>
<path d="M172.699 22.8416H169.292C169.252 22.8416 169.214 22.8257 169.185 22.7974C169.157 22.7691 169.141 22.7308 169.141 22.6908C169.141 22.6508 169.157 22.6125 169.185 22.5842C169.214 22.556 169.252 22.5401 169.292 22.5401H172.699C172.739 22.5401 172.778 22.556 172.806 22.5842C172.835 22.6125 172.851 22.6508 172.851 22.6908C172.851 22.7308 172.835 22.7691 172.806 22.7974C172.778 22.8257 172.739 22.8416 172.699 22.8416Z" fill="#0CBC8B"/>
<path d="M195.116 22.8416H175.975C175.935 22.8416 175.897 22.8257 175.868 22.7974C175.84 22.7691 175.824 22.7308 175.824 22.6908C175.824 22.6508 175.84 22.6125 175.868 22.5842C175.897 22.556 175.935 22.5401 175.975 22.5401H195.116C195.156 22.5401 195.195 22.556 195.223 22.5842C195.251 22.6125 195.267 22.6508 195.267 22.6908C195.267 22.7308 195.251 22.7691 195.223 22.7974C195.195 22.8257 195.156 22.8416 195.116 22.8416Z" fill="#367CFF"/>
<path d="M211.244 22.8416H198.759C198.719 22.8416 198.68 22.8257 198.652 22.7974C198.624 22.7691 198.608 22.7308 198.608 22.6908C198.608 22.6508 198.624 22.6125 198.652 22.5842C198.68 22.556 198.719 22.5401 198.759 22.5401H211.243C211.283 22.5401 211.322 22.556 211.35 22.5842C211.379 22.6125 211.395 22.6508 211.395 22.6908C211.395 22.7308 211.379 22.7691 211.35 22.7974C211.322 22.8257 211.283 22.8416 211.243 22.8416H211.244Z" fill="#292A2E"/>
<path d="M187.828 28.28H169.292C169.252 28.28 169.214 28.2642 169.185 28.2359C169.157 28.2076 169.141 28.1693 169.141 28.1293C169.141 28.0893 169.157 28.051 169.185 28.0227C169.214 27.9944 169.252 27.9785 169.292 27.9785H187.828C187.868 27.9785 187.907 27.9944 187.935 28.0227C187.963 28.051 187.979 28.0893 187.979 28.1293C187.979 28.1693 187.963 28.2076 187.935 28.2359C187.907 28.2642 187.868 28.28 187.828 28.28Z" fill="#292A2E"/>
<path d="M198.142 28.28H191.104C191.064 28.28 191.025 28.2642 190.997 28.2359C190.969 28.2076 190.953 28.1693 190.953 28.1293C190.953 28.0893 190.969 28.051 190.997 28.0227C191.025 27.9944 191.064 27.9785 191.104 27.9785H198.142C198.182 27.9785 198.22 27.9944 198.249 28.0227C198.277 28.051 198.293 28.0893 198.293 28.1293C198.293 28.1693 198.277 28.2076 198.249 28.2359C198.22 28.2642 198.182 28.28 198.142 28.28Z" fill="#0CBC8B"/>
<path d="M211.218 28.28H201.154C201.114 28.28 201.075 28.2642 201.047 28.2359C201.019 28.2076 201.003 28.1693 201.003 28.1293C201.003 28.0893 201.019 28.051 201.047 28.0227C201.075 27.9944 201.114 27.9785 201.154 27.9785H211.218C211.258 27.9785 211.296 27.9944 211.325 28.0227C211.353 28.051 211.369 28.0893 211.369 28.1293C211.369 28.1693 211.353 28.2076 211.325 28.2359C211.296 28.2642 211.258 28.28 211.218 28.28Z" fill="#292A2E"/>
<path d="M172.699 30.9998H169.292C169.252 30.9998 169.214 30.9839 169.185 30.9556C169.157 30.9273 169.141 30.889 169.141 30.849C169.141 30.809 169.157 30.7707 169.185 30.7424C169.214 30.7142 169.252 30.6983 169.292 30.6983H172.699C172.739 30.6983 172.778 30.7142 172.806 30.7424C172.835 30.7707 172.851 30.809 172.851 30.849C172.851 30.889 172.835 30.9273 172.806 30.9556C172.778 30.9839 172.739 30.9998 172.699 30.9998Z" fill="#367CFF"/>
<path d="M195.116 30.9998H175.975C175.935 30.9998 175.897 30.9839 175.868 30.9556C175.84 30.9273 175.824 30.889 175.824 30.849C175.824 30.809 175.84 30.7707 175.868 30.7424C175.897 30.7142 175.935 30.6983 175.975 30.6983H195.116C195.156 30.6983 195.195 30.7142 195.223 30.7424C195.251 30.7707 195.267 30.809 195.267 30.849C195.267 30.889 195.251 30.9273 195.223 30.9556C195.195 30.9839 195.156 30.9998 195.116 30.9998Z" fill="#0CBC8B"/>
<path d="M187.223 41.8772H168.687C168.647 41.8772 168.608 41.8613 168.58 41.8331C168.552 41.8048 168.536 41.7665 168.536 41.7265C168.536 41.6865 168.552 41.6482 168.58 41.6199C168.608 41.5916 168.647 41.5757 168.687 41.5757H187.223C187.263 41.5757 187.301 41.5916 187.33 41.6199C187.358 41.6482 187.374 41.6865 187.374 41.7265C187.374 41.7665 187.358 41.8048 187.33 41.8331C187.301 41.8613 187.263 41.8772 187.223 41.8772Z" fill="#292A2E"/>
<path d="M203.588 41.8772H190.499C190.459 41.8772 190.42 41.8613 190.392 41.8331C190.363 41.8048 190.347 41.7665 190.347 41.7265C190.347 41.6865 190.363 41.6482 190.392 41.6199C190.42 41.5916 190.459 41.5757 190.499 41.5757H203.588C203.628 41.5757 203.667 41.5916 203.695 41.6199C203.723 41.6482 203.739 41.6865 203.739 41.7265C203.739 41.7665 203.723 41.8048 203.695 41.8331C203.667 41.8613 203.628 41.8772 203.588 41.8772Z" fill="#367CFF"/>
<path d="M178.146 39.158H168.687C168.647 39.158 168.608 39.1421 168.58 39.1138C168.552 39.0856 168.536 39.0472 168.536 39.0072C168.536 38.9673 168.552 38.9289 168.58 38.9006C168.608 38.8724 168.647 38.8565 168.687 38.8565H178.146C178.186 38.8565 178.224 38.8724 178.253 38.9006C178.281 38.9289 178.297 38.9673 178.297 39.0072C178.297 39.0472 178.281 39.0856 178.253 39.1138C178.224 39.1421 178.186 39.158 178.146 39.158Z" fill="#0CBC8B"/>
<path d="M194.511 39.158H181.422C181.381 39.158 181.343 39.1421 181.315 39.1138C181.286 39.0856 181.27 39.0472 181.27 39.0072C181.27 38.9673 181.286 38.9289 181.315 38.9006C181.343 38.8724 181.381 38.8565 181.422 38.8565H194.511C194.551 38.8565 194.589 38.8724 194.618 38.9006C194.646 38.9289 194.662 38.9673 194.662 39.0072C194.662 39.0472 194.646 39.0856 194.618 39.1138C194.589 39.1421 194.551 39.158 194.511 39.158Z" fill="#367CFF"/>
<path d="M210.639 39.158H198.154C198.114 39.158 198.075 39.1421 198.047 39.1138C198.018 39.0856 198.002 39.0472 198.002 39.0072C198.002 38.9673 198.018 38.9289 198.047 38.9006C198.075 38.8724 198.114 38.8565 198.154 38.8565H210.638C210.678 38.8565 210.717 38.8724 210.745 38.9006C210.773 38.9289 210.789 38.9673 210.789 39.0072C210.789 39.0472 210.773 39.0856 210.745 39.1138C210.717 39.1421 210.678 39.158 210.638 39.158H210.639Z" fill="#292A2E"/>
<path d="M196.3 47.3162H168.687C168.647 47.3162 168.608 47.3003 168.58 47.272C168.552 47.2438 168.536 47.2054 168.536 47.1655C168.536 47.1255 168.552 47.0871 168.58 47.0589C168.608 47.0306 168.647 47.0147 168.687 47.0147H196.3C196.34 47.0147 196.378 47.0306 196.407 47.0589C196.435 47.0871 196.451 47.1255 196.451 47.1655C196.451 47.2054 196.435 47.2438 196.407 47.272C196.378 47.3003 196.34 47.3162 196.3 47.3162Z" fill="#367CFF"/>
<path d="M203.588 47.3162H199.576C199.536 47.3162 199.497 47.3003 199.469 47.272C199.44 47.2438 199.425 47.2054 199.425 47.1655C199.425 47.1255 199.44 47.0871 199.469 47.0589C199.497 47.0306 199.536 47.0147 199.576 47.0147H203.588C203.628 47.0147 203.667 47.0306 203.695 47.0589C203.723 47.0871 203.739 47.1255 203.739 47.1655C203.739 47.2054 203.723 47.2438 203.695 47.272C203.667 47.3003 203.628 47.3162 203.588 47.3162Z" fill="#292A2E"/>
<path d="M172.094 44.597H168.687C168.647 44.597 168.608 44.5811 168.58 44.5528C168.552 44.5245 168.536 44.4862 168.536 44.4462C168.536 44.4062 168.552 44.3679 168.58 44.3396C168.608 44.3113 168.647 44.2955 168.687 44.2955H172.094C172.134 44.2955 172.173 44.3113 172.201 44.3396C172.23 44.3679 172.246 44.4062 172.246 44.4462C172.246 44.4862 172.23 44.5245 172.201 44.5528C172.173 44.5811 172.134 44.597 172.094 44.597Z" fill="#367CFF"/>
<path d="M194.511 44.597H175.37C175.33 44.597 175.292 44.5811 175.263 44.5528C175.235 44.5245 175.219 44.4862 175.219 44.4462C175.219 44.4062 175.235 44.3679 175.263 44.3396C175.292 44.3113 175.33 44.2955 175.37 44.2955H194.511C194.551 44.2955 194.589 44.3113 194.618 44.3396C194.646 44.3679 194.662 44.4062 194.662 44.4462C194.662 44.4862 194.646 44.5245 194.618 44.5528C194.589 44.5811 194.551 44.597 194.511 44.597Z" fill="#292A2E"/>
<path d="M210.639 44.597H198.154C198.114 44.597 198.075 44.5811 198.047 44.5528C198.018 44.5245 198.002 44.4862 198.002 44.4462C198.002 44.4062 198.018 44.3679 198.047 44.3396C198.075 44.3113 198.114 44.2955 198.154 44.2955H210.638C210.678 44.2955 210.717 44.3113 210.745 44.3396C210.773 44.3679 210.789 44.4062 210.789 44.4462C210.789 44.4862 210.773 44.5245 210.745 44.5528C210.717 44.5811 210.678 44.597 210.638 44.597H210.639Z" fill="#0CBC8B"/>
<path d="M187.223 50.0359H168.687C168.647 50.0359 168.608 50.02 168.58 49.9918C168.552 49.9635 168.536 49.9252 168.536 49.8852C168.536 49.8452 168.552 49.8069 168.58 49.7786C168.608 49.7503 168.647 49.7344 168.687 49.7344H187.223C187.263 49.7344 187.301 49.7503 187.33 49.7786C187.358 49.8069 187.374 49.8452 187.374 49.8852C187.374 49.9252 187.358 49.9635 187.33 49.9918C187.301 50.02 187.263 50.0359 187.223 50.0359Z" fill="#0CBC8B"/>
<path d="M197.536 50.0359H190.499C190.459 50.0359 190.42 50.02 190.392 49.9918C190.363 49.9635 190.347 49.9252 190.347 49.8852C190.347 49.8452 190.363 49.8069 190.392 49.7786C190.42 49.7503 190.459 49.7344 190.499 49.7344H197.536C197.577 49.7344 197.615 49.7503 197.643 49.7786C197.672 49.8069 197.688 49.8452 197.688 49.8852C197.688 49.9252 197.672 49.9635 197.643 49.9918C197.615 50.02 197.577 50.0359 197.536 50.0359Z" fill="#292A2E"/>
<path d="M210.612 50.0359H200.549C200.509 50.0359 200.47 50.02 200.442 49.9918C200.414 49.9635 200.398 49.9252 200.398 49.8852C200.398 49.8452 200.414 49.8069 200.442 49.7786C200.47 49.7503 200.509 49.7344 200.549 49.7344H210.612C210.653 49.7344 210.691 49.7503 210.719 49.7786C210.748 49.8069 210.764 49.8452 210.764 49.8852C210.764 49.9252 210.748 49.9635 210.719 49.9918C210.691 50.02 210.653 50.0359 210.612 50.0359Z" fill="#367CFF"/>
<path d="M158.965 52.9459C158.925 52.9459 158.886 52.93 158.858 52.9017C158.83 52.8735 158.814 52.8351 158.814 52.7951V9.93591C158.814 9.89593 158.83 9.85759 158.858 9.82932C158.886 9.80105 158.925 9.78517 158.965 9.78517C159.005 9.78517 159.044 9.80105 159.072 9.82932C159.1 9.85759 159.116 9.89593 159.116 9.93591V52.7951C159.116 52.8351 159.1 52.8735 159.072 52.9017C159.044 52.93 159.005 52.9459 158.965 52.9459Z" fill="#292A2E"/>
<path d="M209.633 7.07096C210.973 7.07096 212.06 5.98815 212.06 4.65242C212.06 3.3167 210.973 2.23389 209.633 2.23389C208.292 2.23389 207.205 3.3167 207.205 4.65242C207.205 5.98815 208.292 7.07096 209.633 7.07096Z" fill="white"/>
<path d="M152.046 11.8191H145.494C145.454 11.8191 145.416 11.8032 145.387 11.7749C145.359 11.7467 145.343 11.7083 145.343 11.6683C145.343 11.6284 145.359 11.59 145.387 11.5617C145.416 11.5335 145.454 11.5176 145.494 11.5176H152.046C152.086 11.5176 152.124 11.5335 152.153 11.5617C152.181 11.59 152.197 11.6284 152.197 11.6683C152.197 11.7083 152.181 11.7467 152.153 11.7749C152.124 11.8032 152.086 11.8191 152.046 11.8191Z" fill="#292A2E"/>
<path d="M150.072 14.7922H145.494C145.454 14.7922 145.416 14.7763 145.387 14.7481C145.359 14.7198 145.343 14.6815 145.343 14.6415C145.343 14.6015 145.359 14.5632 145.387 14.5349C145.416 14.5066 145.454 14.4907 145.494 14.4907H150.072C150.112 14.4907 150.15 14.5066 150.179 14.5349C150.207 14.5632 150.223 14.6015 150.223 14.6415C150.223 14.6815 150.207 14.7198 150.179 14.7481C150.15 14.7763 150.112 14.7922 150.072 14.7922Z" fill="#292A2E"/>
<path d="M154.098 17.7659H145.494C145.454 17.7659 145.416 17.75 145.387 17.7217C145.359 17.6934 145.343 17.6551 145.343 17.6151C145.343 17.5751 145.359 17.5368 145.387 17.5085C145.416 17.4803 145.454 17.4644 145.494 17.4644H154.098C154.138 17.4644 154.176 17.4803 154.205 17.5085C154.233 17.5368 154.249 17.5751 154.249 17.6151C154.249 17.6551 154.233 17.6934 154.205 17.7217C154.176 17.75 154.138 17.7659 154.098 17.7659Z" fill="#292A2E"/>
<path d="M155.703 20.739H148.52C148.48 20.739 148.441 20.7231 148.413 20.6949C148.385 20.6666 148.369 20.6282 148.369 20.5883C148.369 20.5483 148.385 20.5099 148.413 20.4817C148.441 20.4534 148.48 20.4375 148.52 20.4375H155.703C155.743 20.4375 155.782 20.4534 155.81 20.4817C155.838 20.5099 155.854 20.5483 155.854 20.5883C155.854 20.6282 155.838 20.6666 155.81 20.6949C155.782 20.7231 155.743 20.739 155.703 20.739Z" fill="#292A2E"/>
<path d="M152.23 23.7126H148.52C148.48 23.7126 148.441 23.6968 148.413 23.6685C148.385 23.6402 148.369 23.6019 148.369 23.5619C148.369 23.5219 148.385 23.4836 148.413 23.4553C148.441 23.427 148.48 23.4112 148.52 23.4112H152.23C152.27 23.4112 152.308 23.427 152.336 23.4553C152.365 23.4836 152.381 23.5219 152.381 23.5619C152.381 23.6019 152.365 23.6402 152.336 23.6685C152.308 23.6968 152.27 23.7126 152.23 23.7126Z" fill="#292A2E"/>
<path d="M155.071 26.6858H148.52C148.48 26.6858 148.441 26.6699 148.413 26.6416C148.385 26.6134 148.369 26.575 148.369 26.5351C148.369 26.4951 148.385 26.4567 148.413 26.4285C148.441 26.4002 148.48 26.3843 148.52 26.3843H155.071C155.111 26.3843 155.15 26.4002 155.178 26.4285C155.207 26.4567 155.223 26.4951 155.223 26.5351C155.223 26.575 155.207 26.6134 155.178 26.6416C155.15 26.6699 155.111 26.6858 155.071 26.6858Z" fill="#292A2E"/>
<path d="M150.546 29.6589H145.494C145.454 29.6589 145.416 29.6431 145.387 29.6148C145.359 29.5865 145.343 29.5482 145.343 29.5082C145.343 29.4682 145.359 29.4299 145.387 29.4016C145.416 29.3733 145.454 29.3575 145.494 29.3575H150.546C150.586 29.3575 150.624 29.3733 150.653 29.4016C150.681 29.4299 150.697 29.4682 150.697 29.5082C150.697 29.5482 150.681 29.5865 150.653 29.6148C150.624 29.6431 150.586 29.6589 150.546 29.6589Z" fill="#292A2E"/>
<path d="M148.809 32.6321H145.494C145.454 32.6321 145.416 32.6162 145.387 32.5879C145.359 32.5597 145.343 32.5213 145.343 32.4814C145.343 32.4414 145.359 32.403 145.387 32.3748C145.416 32.3465 145.454 32.3306 145.494 32.3306H148.809C148.849 32.3306 148.888 32.3465 148.916 32.3748C148.945 32.403 148.961 32.4414 148.961 32.4814C148.961 32.5213 148.945 32.5597 148.916 32.5879C148.888 32.6162 148.849 32.6321 148.809 32.6321Z" fill="#292A2E"/>
<path d="M161.485 11.1813V11.2356L163.377 11.935C163.404 11.946 163.427 11.9648 163.443 11.989C163.459 12.0132 163.468 12.0416 163.467 12.0707V12.122C163.468 12.1446 163.463 12.167 163.452 12.187C163.441 12.2071 163.426 12.2241 163.407 12.2365C163.388 12.25 163.365 12.2584 163.342 12.2611C163.319 12.2637 163.295 12.2605 163.273 12.2516L161.138 11.4195C161.111 11.4089 161.088 11.3906 161.072 11.367C161.056 11.3433 161.047 11.3154 161.047 11.2868V11.1331C161.047 11.1044 161.055 11.0763 161.071 11.0526C161.088 11.0289 161.111 11.0107 161.138 11.0004L163.273 10.1653C163.291 10.1594 163.309 10.1563 163.328 10.1563C163.356 10.1568 163.383 10.1652 163.407 10.1804C163.426 10.1934 163.441 10.211 163.452 10.2315C163.463 10.2521 163.468 10.2749 163.467 10.298V10.3492C163.468 10.378 163.46 10.4063 163.443 10.43C163.427 10.4538 163.404 10.4719 163.377 10.4819L161.485 11.1813Z" fill="#367CFF"/>
<path d="M165.234 9.55013L164.102 13.0022C164.093 13.031 164.075 13.0561 164.051 13.074C164.026 13.0919 163.997 13.1016 163.966 13.1017C163.944 13.102 163.923 13.0969 163.903 13.087C163.884 13.077 163.867 13.0623 163.854 13.0444C163.841 13.0266 163.832 13.0058 163.827 12.9839C163.823 12.9619 163.824 12.9393 163.83 12.9178L164.962 9.46873C164.971 9.43937 164.99 9.41373 165.015 9.39536C165.04 9.377 165.07 9.36681 165.101 9.36622C165.123 9.36614 165.144 9.3713 165.164 9.38127C165.183 9.39124 165.2 9.40572 165.213 9.42351C165.226 9.44133 165.235 9.46216 165.239 9.48422C165.243 9.50627 165.241 9.52889 165.234 9.55013Z" fill="#367CFF"/>
<path d="M168.013 11.1331V11.2869C168.013 11.3152 168.005 11.343 167.989 11.3667C167.974 11.3903 167.951 11.4087 167.925 11.4195L165.786 12.2516C165.765 12.2604 165.742 12.2636 165.719 12.2609C165.696 12.2583 165.674 12.2499 165.656 12.2365C165.636 12.2243 165.62 12.2074 165.609 12.1873C165.598 12.1673 165.592 12.1448 165.592 12.122V12.0707C165.592 12.0412 165.601 12.0124 165.618 11.9881C165.634 11.9639 165.658 11.9453 165.686 11.9351L167.577 11.2356V11.1813L165.686 10.4819C165.658 10.4727 165.634 10.4548 165.617 10.4309C165.6 10.4071 165.592 10.3784 165.592 10.3492V10.298C165.592 10.2747 165.598 10.2518 165.609 10.2313C165.62 10.2108 165.636 10.1933 165.656 10.1804C165.679 10.1653 165.707 10.1569 165.734 10.1563C165.752 10.1561 165.769 10.1591 165.786 10.1653L167.925 11.0004C167.952 11.0109 167.974 11.0292 167.99 11.053C168.006 11.0767 168.014 11.1047 168.013 11.1331Z" fill="#367CFF"/>
<path d="M18.3806 237.226L17.7863 237.112L27.0741 145.149L27.6683 145.263L18.3806 237.226Z" fill="#494949"/>
<path d="M52.9638 237.226L52.3696 237.112L61.657 145.149L62.2513 145.263L52.9638 237.226Z" fill="#494949"/>
<path d="M129.408 237.226L130.002 237.112L120.714 145.149L120.12 145.263L129.408 237.226Z" fill="#494949"/>
<path d="M94.8245 237.226L95.4188 237.112L86.1314 145.149L85.5371 145.263L94.8245 237.226Z" fill="#494949"/>
<path d="M82.5078 104.676L81.908 104.756L87.3337 145.247L87.9335 145.167L82.5078 104.676Z" fill="#494949"/>
<path d="M20.2313 104.676L19.6314 104.755L25.0571 145.247L25.6569 145.167L20.2313 104.676Z" fill="#494949"/>
<path d="M87.8811 142.241H26.9675C25.3241 142.241 23.9918 143.568 23.9918 145.206V145.206C23.9918 146.844 25.3241 148.171 26.9675 148.171H87.8811C89.5246 148.171 90.8569 146.844 90.8569 145.206V145.206C90.8569 143.568 89.5246 142.241 87.8811 142.241Z" fill="#292A2E"/>
<path opacity="0.8" d="M87.8811 142.241H26.9675C25.3241 142.241 23.9918 143.568 23.9918 145.206V145.206C23.9918 146.844 25.3241 148.171 26.9675 148.171H87.8811C89.5246 148.171 90.8569 146.844 90.8569 145.206V145.206C90.8569 143.568 89.5246 142.241 87.8811 142.241Z" fill="white"/>
<path d="M87.8811 148.473H26.9678C26.5373 148.473 26.111 148.388 25.7133 148.224C25.3155 148.06 24.9541 147.819 24.6497 147.516C24.3453 147.213 24.1038 146.853 23.939 146.456C23.7743 146.06 23.6895 145.635 23.6895 145.206C23.6895 144.777 23.7743 144.353 23.939 143.956C24.1038 143.56 24.3453 143.2 24.6497 142.896C24.9541 142.593 25.3155 142.352 25.7133 142.188C26.111 142.024 26.5373 141.94 26.9678 141.94H87.8811C88.3117 141.94 88.738 142.024 89.1357 142.188C89.5335 142.352 89.8949 142.593 90.1993 142.896C90.5037 143.2 90.7452 143.56 90.9099 143.956C91.0747 144.353 91.1595 144.777 91.1595 145.206C91.1595 145.635 91.0747 146.06 90.9099 146.456C90.7452 146.853 90.5037 147.213 90.1993 147.516C89.8949 147.819 89.5335 148.06 89.1357 148.224C88.738 148.388 88.3117 148.473 87.8811 148.473ZM26.9678 142.543C26.6168 142.543 26.2692 142.612 25.9449 142.745C25.6205 142.879 25.3258 143.075 25.0776 143.323C24.8294 143.57 24.6325 143.864 24.4981 144.187C24.3638 144.51 24.2946 144.856 24.2946 145.206C24.2946 145.556 24.3638 145.902 24.4981 146.226C24.6325 146.549 24.8294 146.842 25.0776 147.09C25.3258 147.337 25.6205 147.533 25.9449 147.667C26.2692 147.801 26.6168 147.87 26.9678 147.87H87.8811C88.2322 147.87 88.5798 147.801 88.9041 147.667C89.2285 147.533 89.5232 147.337 89.7714 147.09C90.0196 146.842 90.2165 146.549 90.3509 146.226C90.4852 145.902 90.5544 145.556 90.5544 145.206C90.5544 144.856 90.4852 144.51 90.3509 144.187C90.2165 143.864 90.0196 143.57 89.7714 143.323C89.5232 143.075 89.2285 142.879 88.9041 142.745C88.5798 142.612 88.2322 142.543 87.8811 142.543H26.9678Z" fill="#292A2E"/>
<path d="M121.314 142.241H60.4004C58.7569 142.241 57.4246 143.568 57.4246 145.206V145.206C57.4246 146.844 58.7569 148.171 60.4004 148.171H121.314C122.958 148.171 124.29 146.844 124.29 145.206V145.206C124.29 143.568 122.958 142.241 121.314 142.241Z" fill="white"/>
<path d="M121.314 148.473H60.4004C59.9699 148.473 59.5436 148.388 59.1459 148.224C58.7481 148.06 58.3867 147.819 58.0823 147.516C57.7779 147.213 57.5364 146.853 57.3716 146.456C57.2069 146.06 57.1221 145.635 57.1221 145.206C57.1221 144.777 57.2069 144.353 57.3716 143.956C57.5364 143.56 57.7779 143.2 58.0823 142.896C58.3867 142.593 58.7481 142.352 59.1459 142.188C59.5436 142.024 59.9699 141.94 60.4004 141.94H121.314C121.745 141.94 122.171 142.024 122.569 142.188C122.966 142.352 123.328 142.593 123.632 142.896C123.937 143.2 124.178 143.56 124.343 143.956C124.508 144.353 124.592 144.777 124.592 145.206C124.592 145.635 124.508 146.06 124.343 146.456C124.178 146.853 123.937 147.213 123.632 147.516C123.328 147.819 122.966 148.06 122.569 148.224C122.171 148.388 121.745 148.473 121.314 148.473ZM60.4004 142.543C60.0494 142.543 59.7018 142.612 59.3774 142.745C59.0531 142.879 58.7584 143.075 58.5102 143.323C58.262 143.57 58.065 143.864 57.9307 144.187C57.7964 144.51 57.7272 144.856 57.7272 145.206C57.7272 145.556 57.7964 145.902 57.9307 146.226C58.065 146.549 58.262 146.842 58.5102 147.09C58.7584 147.337 59.0531 147.533 59.3774 147.667C59.7018 147.801 60.0494 147.87 60.4004 147.87H121.314C121.665 147.87 122.013 147.801 122.337 147.667C122.661 147.533 122.956 147.337 123.204 147.09C123.453 146.842 123.649 146.549 123.784 146.226C123.918 145.902 123.987 145.556 123.987 145.206C123.987 144.856 123.918 144.51 123.784 144.187C123.649 143.864 123.453 143.57 123.204 143.323C122.956 143.075 122.661 142.879 122.337 142.745C122.013 142.612 121.665 142.543 121.314 142.543H60.4004Z" fill="#292A2E"/>
<path d="M79.1707 104.715H20.0946C19.1288 104.715 18.1959 104.365 17.4701 103.73C16.7444 103.095 16.2754 102.218 16.1506 101.264L12.2429 71.3625C12.1699 70.8035 12.2174 70.2354 12.3822 69.6962C12.547 69.1569 12.8254 68.6589 13.1987 68.2354C13.5721 67.8119 14.0318 67.4727 14.5472 67.2403C15.0626 67.0079 15.6218 66.8877 16.1875 66.8878H75.263C76.2289 66.8878 77.1618 67.238 77.8875 67.873C78.6132 68.5081 79.0823 69.3846 79.207 70.3389L83.1144 100.24C83.1875 100.799 83.1401 101.367 82.9753 101.907C82.8106 102.446 82.5323 102.944 82.159 103.367C81.7858 103.791 81.3262 104.13 80.8109 104.363C80.2955 104.595 79.7364 104.715 79.1707 104.715Z" fill="#292A2E"/>
<path opacity="0.8" d="M79.1707 104.715H20.0946C19.1288 104.715 18.1959 104.365 17.4701 103.73C16.7444 103.095 16.2754 102.218 16.1506 101.264L12.2429 71.3625C12.1699 70.8035 12.2174 70.2354 12.3822 69.6962C12.547 69.1569 12.8254 68.6589 13.1987 68.2354C13.5721 67.8119 14.0318 67.4727 14.5472 67.2403C15.0626 67.0079 15.6218 66.8877 16.1875 66.8878H75.263C76.2289 66.8878 77.1618 67.238 77.8875 67.873C78.6132 68.5081 79.0823 69.3846 79.207 70.3389L83.1144 100.24C83.1875 100.799 83.1401 101.367 82.9753 101.907C82.8106 102.446 82.5323 102.944 82.159 103.367C81.7858 103.791 81.3262 104.13 80.8109 104.363C80.2955 104.595 79.7364 104.715 79.1707 104.715Z" fill="white"/>
<path d="M79.1707 105.017H20.0946C19.0559 105.014 18.0533 104.637 17.2728 103.954C16.4923 103.271 15.9869 102.329 15.8505 101.303L11.9431 71.4014C11.8644 70.7999 11.9154 70.1886 12.0927 69.6083C12.27 69.028 12.5696 68.4921 12.9713 68.0363C13.373 67.5805 13.8677 67.2154 14.4224 66.9653C14.977 66.7152 15.5788 66.5859 16.1875 66.586H75.263C76.3018 66.5883 77.3044 66.966 78.0848 67.649C78.8653 68.332 79.3706 69.274 79.5069 70.3L83.4146 100.202C83.4932 100.803 83.4422 101.414 83.2649 101.995C83.0876 102.575 82.7881 103.111 82.3865 103.566C81.9848 104.022 81.4902 104.387 80.9356 104.637C80.3811 104.887 79.7794 105.017 79.1707 105.017ZM16.1875 67.189C15.6649 67.189 15.1483 67.3001 14.6722 67.5149C14.1961 67.7296 13.7714 68.0431 13.4265 68.4344C13.0817 68.8257 12.8245 69.2858 12.6723 69.7839C12.5201 70.2821 12.4762 70.8069 12.5437 71.3233L16.4514 101.225C16.5684 102.106 17.0023 102.915 17.6724 103.501C18.3425 104.087 19.2034 104.412 20.0953 104.414H79.1707C79.6933 104.414 80.2098 104.302 80.6858 104.088C81.1618 103.873 81.5864 103.559 81.9311 103.168C82.2759 102.777 82.5329 102.317 82.6851 101.819C82.8373 101.32 82.8812 100.796 82.8137 100.279L78.9069 70.3781C78.7898 69.4972 78.3559 68.6885 77.6858 68.102C77.0157 67.5156 76.1549 67.1913 75.263 67.1893L16.1875 67.189Z" fill="#292A2E"/>
<path d="M82.5111 104.715H23.435C22.4692 104.715 21.5363 104.365 20.8107 103.73C20.085 103.095 19.616 102.218 19.4913 101.264L15.5824 71.3625C15.5094 70.8035 15.5568 70.2355 15.7216 69.6963C15.8864 69.1571 16.1647 68.6592 16.538 68.2357C16.9113 67.8122 17.3709 67.4729 17.8863 67.2404C18.4016 67.008 18.9608 66.8878 19.5264 66.8878H78.6037C79.5695 66.8878 80.5024 67.238 81.2281 67.873C81.9538 68.5081 82.4227 69.3846 82.5474 70.3389L86.4551 100.24C86.5282 100.799 86.4807 101.367 86.3159 101.907C86.1511 102.446 85.8728 102.944 85.4995 103.367C85.1262 103.791 84.6666 104.13 84.1513 104.363C83.6359 104.595 83.0768 104.715 82.5111 104.715Z" fill="white"/>
<path d="M82.5111 105.017H23.435C22.3963 105.014 21.3937 104.637 20.6133 103.954C19.8328 103.271 19.3276 102.329 19.1912 101.303L15.2835 71.4014C15.2049 70.7999 15.256 70.1887 15.4333 69.6084C15.6106 69.0282 15.9101 68.4923 16.3118 68.0366C16.7135 67.5809 17.2081 67.2157 17.7627 66.9656C18.3172 66.7155 18.9189 66.586 19.5276 66.586H78.6034C79.6422 66.5884 80.6448 66.9661 81.4253 67.6491C82.2058 68.3321 82.7111 69.274 82.8476 70.3L86.7553 100.202C86.8338 100.803 86.7827 101.414 86.6053 101.994C86.428 102.575 86.1285 103.111 85.7268 103.566C85.3251 104.022 84.8305 104.387 84.276 104.637C83.7215 104.887 83.1198 105.017 82.5111 105.017ZM19.5276 67.189C19.0051 67.1892 18.4886 67.3005 18.0126 67.5154C17.5367 67.7302 17.1122 68.0438 16.7674 68.4351C16.4227 68.8263 16.1657 69.2864 16.0135 69.7845C15.8613 70.2826 15.8175 70.8073 15.885 71.3236L19.7912 101.225C19.9084 102.106 20.3422 102.915 21.0123 103.501C21.6824 104.087 22.5432 104.412 23.435 104.414H82.5111C83.0337 104.414 83.5504 104.303 84.0265 104.088C84.5026 103.873 84.9272 103.56 85.2721 103.168C85.617 102.777 85.8741 102.317 86.0264 101.819C86.1786 101.321 86.2225 100.796 86.155 100.279L82.2473 70.3781C82.1302 69.4971 81.6964 68.6884 81.0263 68.102C80.3562 67.5155 79.4953 67.1912 78.6034 67.1893L19.5276 67.189Z" fill="#292A2E"/>
<path d="M128.433 111.543L127.831 111.603L140.586 237.429L141.188 237.368L128.433 111.543Z" fill="#494949"/>
<path d="M76.1447 20.9835C76.1447 20.9835 80.0703 18.031 81.043 11.2349C81.7961 5.97302 76.9247 9.38195 76.9247 9.38195C76.9247 9.38195 77.43 5.58772 74.6555 5.96428C71.8809 6.34084 70.3287 10.3265 70.3287 10.3265" fill="#0C0C0C"/>
<path d="M60.3169 6.40821C60.3169 6.40821 46.5515 7.87977 51.5278 26.4647L52.746 26.5461L55.2186 26.7113" fill="#0C0C0C"/>
<path d="M73.8391 45.8752C73.7786 45.8673 73.1069 56.9699 60.1611 56.003C51.1989 55.334 48.0035 45.8595 47.7981 45.8595C48.7645 45.6551 49.9584 45.3442 50.4331 45.2378C51.4674 44.9986 52.404 44.4512 53.1185 43.6686C53.8329 42.886 54.2912 41.9051 54.4325 40.8566C54.6948 39.2828 54.251 31.2307 54.3868 29.6382L68.1438 32.6977C67.9517 36.0611 66.6062 43.8579 71.3208 45.2378C72.1066 45.466 72.9517 45.6759 73.8391 45.8752Z" fill="#F08222"/>
<path opacity="0.52" d="M68.3372 42.0513C68.1217 41.3593 67.9829 40.6458 67.9233 39.9237C67.7723 38.2759 67.8027 36.6166 68.014 34.9754C65.2179 34.5994 62.5837 33.4495 60.4107 31.6563C60.1554 32.5963 58.7505 36.7038 59.1399 37.5971C59.8737 39.286 63.3281 42.0513 68.3372 42.0513Z" fill="#0C0C0C"/>
<path d="M65.4978 39.8537C60.0703 39.3686 53.5744 35.9518 53.4809 28.6109L53.3962 21.9872C53.3027 14.6465 57.0961 8.64663 64.0328 8.5586C70.9692 8.47086 76.23 14.3559 76.3235 21.6968L76.361 24.6291C76.3562 25.6362 76.2825 26.6418 76.1405 27.6389C75.7847 30.2769 75.2328 34.2876 73.4364 37.0007C71.7396 39.5621 68.965 40.1633 65.4978 39.8537Z" fill="#F08222"/>
<path d="M68.0158 33.1446C69.1358 33.1952 70.2521 32.9827 71.2745 32.5244C71.2957 32.5154 71.3148 32.5024 71.3309 32.486C71.347 32.4696 71.3597 32.4503 71.3682 32.429C71.3768 32.4078 71.3811 32.3851 71.3808 32.3622C71.3806 32.3393 71.3758 32.3166 71.3668 32.2956C71.3578 32.2745 71.3447 32.2554 71.3283 32.2394C71.3119 32.2234 71.2924 32.2107 71.2711 32.2022C71.2498 32.1937 71.227 32.1894 71.204 32.1896C71.181 32.1899 71.1583 32.1946 71.1372 32.2036C68.9344 33.1397 66.9342 33.0026 65.3529 31.8072C65.3211 31.7819 65.2878 31.7585 65.2534 31.7369C65.2136 31.7186 65.1684 31.7157 65.1267 31.7289C65.0849 31.7421 65.0497 31.7705 65.0278 31.8083C65.006 31.8461 64.9992 31.8907 65.0087 31.9333C65.0183 31.9759 65.0435 32.0134 65.0794 32.0384C65.0921 32.0462 65.1124 32.0622 65.1399 32.0842C65.9713 32.715 66.9727 33.0842 68.0158 33.1446Z" fill="#0C0C0C"/>
<path d="M67.9635 34.7974C68.1659 34.8098 68.3689 34.805 68.5705 34.7829C68.6166 34.7781 68.6589 34.7551 68.6881 34.7192C68.7172 34.6832 68.7309 34.6372 68.726 34.5912C68.7211 34.5452 68.6981 34.5031 68.662 34.474C68.6259 34.4449 68.5797 34.4313 68.5335 34.4362C67.3211 34.5647 66.7426 34.0111 66.7181 33.9873C66.6853 33.9546 66.6408 33.9361 66.5944 33.9361C66.548 33.936 66.5035 33.9543 66.4706 33.987C66.4378 34.0197 66.4193 34.064 66.4192 34.1102C66.4191 34.1565 66.4375 34.2009 66.4703 34.2336C66.8877 34.5878 67.4153 34.787 67.9635 34.7974Z" fill="#0C0C0C"/>
<path d="M74.0328 26.0407C74.5047 26.0407 74.8872 25.6595 74.8872 25.1893C74.8872 24.7191 74.5047 24.3379 74.0328 24.3379C73.5609 24.3379 73.1783 24.7191 73.1783 25.1893C73.1783 25.6595 73.5609 26.0407 74.0328 26.0407Z" fill="#0C0C0C"/>
<path d="M65.6854 25.5187C66.1573 25.5187 66.5399 25.1376 66.5399 24.6674C66.5399 24.1971 66.1573 23.8159 65.6854 23.8159C65.2135 23.8159 64.831 24.1971 64.831 24.6674C64.831 25.1376 65.2135 25.5187 65.6854 25.5187Z" fill="#0C0C0C"/>
<path d="M53.9402 30.8421C51.8322 30.8689 50.0949 28.6434 50.0673 26.5429C50.0398 24.4424 51.7345 23.2624 53.8425 23.2359L54.9466 24.6293L55.752 30.8192L53.9402 30.8421Z" fill="#F08222"/>
<path d="M56.0361 27.4668C56.0361 27.4668 56.7481 17.0797 59.9091 16.4381C62.0143 16.0109 67.1196 18.9866 71.8482 18.0878C73.9172 17.6959 75.8812 18.2048 76.0809 19.1786C76.1598 19.5642 77.4488 14.0232 74.2092 9.81923C71.6298 6.4712 63.1886 5.52604 59.3484 6.62345C48.7151 9.66306 53.4074 23.6928 53.4074 23.6928L53.8815 27.2739L56.0361 27.4668Z" fill="#0C0C0C"/>
<path d="M69.2888 30.6924H69.3024C69.9816 30.6855 71.1202 30.5987 71.1157 30.0922C71.1111 29.6725 69.913 25.1553 69.7759 24.6416C69.7628 24.5989 69.7336 24.563 69.6945 24.5413C69.6554 24.5196 69.6093 24.5139 69.566 24.5253C69.5228 24.5368 69.4856 24.5645 69.4624 24.6026C69.4392 24.6407 69.4317 24.6864 69.4416 24.7299C69.9738 26.7306 70.7665 29.8106 70.7698 30.0964C70.7042 30.217 70.0025 30.3412 69.299 30.3484C69.2547 30.3494 69.2124 30.3672 69.1809 30.3984C69.1494 30.4295 69.1311 30.4715 69.1297 30.5157C69.1284 30.5599 69.1442 30.6029 69.1738 30.6358C69.2034 30.6688 69.2445 30.6892 69.2888 30.6927V30.6924Z" fill="#0C0C0C"/>
<path d="M71.6077 20.5722C72.3216 20.3764 73.0753 20.3764 73.7892 20.5722C74.1399 20.6661 74.4745 20.812 74.7816 21.0051C75.0853 21.1941 75.3637 21.4206 75.6104 21.6792C75.6576 21.7249 75.6851 21.7871 75.6869 21.8527C75.6886 21.9182 75.6646 21.9818 75.6198 22.0299C75.5751 22.078 75.5132 22.1067 75.4475 22.1099C75.3818 22.1131 75.3174 22.0906 75.2682 22.047L75.2527 22.0338C75.0243 21.8231 74.7701 21.6419 74.4963 21.4944C74.2276 21.3478 73.9382 21.2425 73.6379 21.1821C73.0468 21.0586 72.4333 21.0928 71.8597 21.2813L71.8355 21.2897C71.7409 21.3231 71.6368 21.3176 71.5462 21.2745C71.4556 21.2313 71.3859 21.1541 71.3524 21.0598C71.319 20.9655 71.3245 20.8618 71.3678 20.7716C71.411 20.6813 71.4885 20.6118 71.5832 20.5785L71.6077 20.5722Z" fill="#0C0C0C"/>
<path d="M66.5523 21C66.0091 20.737 65.4058 20.6216 64.8034 20.6657C64.4977 20.6855 64.1968 20.7513 63.9109 20.861C63.6202 20.971 63.3445 21.1169 63.0903 21.2952L63.074 21.306C63.0194 21.3409 62.9534 21.3534 62.8898 21.3411C62.8262 21.3288 62.7697 21.2925 62.7323 21.2398C62.6948 21.1871 62.6791 21.122 62.6886 21.0581C62.698 20.9942 62.7318 20.9363 62.7829 20.8966C63.062 20.673 63.3683 20.4854 63.6945 20.3382C64.0248 20.1879 64.3759 20.0877 64.736 20.041C65.4698 19.9413 66.2169 20.0411 66.8985 20.3298C66.9907 20.3698 67.0633 20.4447 67.1002 20.5379C67.1371 20.6312 67.1352 20.7353 67.0951 20.8273C67.055 20.9192 66.9799 20.9915 66.8862 21.0283C66.7926 21.065 66.6882 21.0632 66.5959 21.0232L66.575 21.0133L66.5523 21Z" fill="#0C0C0C"/>
<path d="M70.5916 13.4223C72.1519 13.0975 73.0278 10.9791 72.548 8.69075C72.0682 6.4024 70.4143 4.81065 68.854 5.13548C67.2937 5.46031 66.4177 7.57871 66.8976 9.86706C67.3774 12.1554 69.0312 13.7472 70.5916 13.4223Z" fill="#0C0C0C"/>
<path d="M157.616 221.526C157.616 221.526 159.238 229.905 167.111 230.372C174.985 230.839 173.278 237.09 173.278 237.09H143.189V222.11L157.616 221.526Z" fill="#0E4364"/>
<path d="M100.373 216.236C100.373 216.236 98.1165 224.468 104.975 228.35C111.833 232.232 107.532 237.09 107.532 237.09L80.5332 223.854L87.1689 210.413L100.373 216.236Z" fill="#0E4364"/>
<path d="M83.6506 213.91L106.419 142.34H65.1481C56.8576 142.34 53.4017 135.335 53.4017 127.075C53.4017 118.815 61.5517 111.573 69.8416 111.573H125.542C130.598 111.573 136.268 114.655 139.043 118.866C141.818 123.078 141.068 129.604 139.057 134.227L102.597 222.463" fill="#262626"/>
<path opacity="0.8" d="M83.6506 213.91L106.419 142.34H65.1481C56.8576 142.34 53.4017 135.335 53.4017 127.075C53.4017 118.815 61.5517 111.573 69.8416 111.573H125.542C130.598 111.573 136.268 114.655 139.043 118.866C141.818 123.078 141.068 129.604 139.057 134.227L102.597 222.463" fill="#0A0A0A"/>
<path d="M141.459 229.308L103.389 142.34L53.4011 142.337C41.6882 141.422 36.324 135.025 36.4946 126.767C36.6628 118.613 40.8062 110.56 48.9524 110.56H116.326C122.354 110.683 127.096 117.32 129.332 122.898L160.98 223.983" fill="#262626"/>
<path d="M33.0852 110.659C33.0852 110.659 30.8653 125.084 34.3842 133.104C38.7772 143.117 55.2455 142.337 55.2455 142.337L54.3175 110.56L33.0852 110.659Z" fill="#262626"/>
<path d="M130.764 110.376L95.4539 103.085C93.9825 102.781 92.6119 102.113 91.4686 101.141C90.3254 100.169 89.4466 98.9262 88.9135 97.5264L75.0255 61.0605C74.6026 59.9661 74.4009 58.7992 74.4319 57.6269C74.463 56.4546 74.7262 55.2999 75.2064 54.2293C75.6866 53.1586 76.3743 52.193 77.2302 51.388C78.086 50.583 79.093 49.9543 80.1934 49.5383C81.2937 49.1222 82.4658 48.9268 83.6421 48.9634C84.8185 49 85.976 49.2678 87.0482 49.7514C88.1204 50.235 89.0861 50.925 89.8899 51.7816C90.6937 52.6383 91.3197 53.6447 91.732 54.7431L103.881 86.6405L134.391 92.9398C134.391 92.9398 131.376 110.502 130.764 110.376Z" fill="#0E4364"/>
<path d="M89.9241 70.3207C89.5165 75.0942 86.6261 104.874 86.2327 110.754H33.1085C32.8032 105.451 31.8123 82.9368 30.6547 72.5671C29.55 62.6717 29.1491 57.0248 30.4217 53.9499C32.6662 48.5262 38.2828 46.5746 43.1209 45.9219C46.0749 45.5237 50.5182 45.2378 50.5182 45.2378C50.5182 45.2378 50.8946 52.8212 59.8652 53.2433C72.0766 53.8161 71.2612 45.2378 71.3217 45.2378C73.2999 45.2378 84.0684 46.6714 86.761 48.4201C90.5643 50.8901 91.6881 54.256 91.7326 57.3483C91.7837 60.9092 90.3864 64.9072 89.9241 70.3207Z" fill="#0E4364"/>
<path d="M87.8364 94.6544H87.8237C87.8038 94.6528 87.7846 94.6473 87.7669 94.6382C87.7492 94.6291 87.7335 94.6167 87.7207 94.6016C87.7078 94.5865 87.6981 94.569 87.692 94.5501C87.686 94.5312 87.6837 94.5114 87.6854 94.4916L89.0645 77.984C89.0656 77.9641 89.0708 77.9446 89.0797 77.9267C89.0886 77.9089 89.1011 77.893 89.1163 77.8801C89.1316 77.8673 89.1493 77.8576 89.1684 77.8518C89.1876 77.8459 89.2077 77.844 89.2276 77.8462C89.2474 77.8478 89.2667 77.8533 89.2844 77.8624C89.302 77.8715 89.3177 77.8839 89.3306 77.899C89.3434 77.9141 89.3532 77.9316 89.3592 77.9505C89.3653 77.9694 89.3675 77.9892 89.3659 78.009L87.9867 94.5166C87.9835 94.5542 87.9663 94.5892 87.9384 94.6147C87.9106 94.6402 87.8742 94.6543 87.8364 94.6544Z" fill="#0C0C0C"/>
<path d="M113.137 104.562L124.793 68.8586C124.998 68.2312 125.397 67.6845 125.933 67.2968C126.468 66.9091 127.114 66.7003 127.776 66.7003H178.291C178.786 66.7002 179.274 66.817 179.715 67.041C180.156 67.2649 180.537 67.5897 180.828 67.9889C181.119 68.388 181.311 68.85 181.388 69.3373C181.466 69.8245 181.426 70.323 181.273 70.7921L166.591 106.497C166.386 107.124 165.987 107.671 165.452 108.058C164.916 108.446 164.271 108.655 163.609 108.655H116.119C115.624 108.655 115.136 108.538 114.695 108.314C114.254 108.09 113.872 107.765 113.581 107.366C113.29 106.967 113.098 106.505 113.021 106.017C112.944 105.53 112.984 105.031 113.137 104.562Z" fill="#292A2E"/>
<path d="M113.137 104.562L124.793 68.8586C124.998 68.2312 125.397 67.6845 125.933 67.2968C126.468 66.9091 127.114 66.7003 127.776 66.7003H178.291C178.786 66.7002 179.274 66.817 179.715 67.041C180.156 67.2649 180.537 67.5897 180.828 67.9889C181.119 68.388 181.311 68.85 181.388 69.3373C181.466 69.8245 181.426 70.323 181.273 70.7921L166.591 106.497C166.386 107.124 165.987 107.671 165.452 108.058C164.916 108.446 164.271 108.655 163.609 108.655H116.119C115.624 108.655 115.136 108.538 114.695 108.314C114.254 108.09 113.872 107.765 113.581 107.366C113.29 106.967 113.098 106.505 113.021 106.017C112.944 105.53 112.984 105.031 113.137 104.562Z" fill="#292A2E"/>
<path d="M122.646 105.758H90.8563C90.0642 105.758 89.4221 106.398 89.4221 107.187V107.224C89.4221 108.014 90.0642 108.653 90.8563 108.653H122.646C123.438 108.653 124.08 108.014 124.08 107.224V107.187C124.08 106.398 123.438 105.758 122.646 105.758Z" fill="#292A2E"/>
<path d="M122.646 105.758H90.8563C90.0642 105.758 89.4221 106.398 89.4221 107.187V107.224C89.4221 108.014 90.0642 108.653 90.8563 108.653H122.646C123.438 108.653 124.08 108.014 124.08 107.224V107.187C124.08 106.398 123.438 105.758 122.646 105.758Z" fill="#292A2E"/>
<path d="M145.692 94.3817C148.443 94.3817 150.673 92.1598 150.673 89.419C150.673 86.6781 148.443 84.4562 145.692 84.4562C142.941 84.4562 140.712 86.6781 140.712 89.419C140.712 92.1598 142.941 94.3817 145.692 94.3817Z" fill="white"/>
<path d="M110.48 96.1982L102.546 93.4272L103.685 93.3488C104.052 93.3163 104.393 93.146 104.639 92.8724C104.885 92.5988 105.018 92.2424 105.01 91.8751C105 91.6858 104.951 91.5005 104.866 91.3307C104.781 91.1609 104.662 91.0101 104.517 90.8874C104.372 90.7648 104.203 90.6729 104.021 90.6174C103.839 90.5619 103.648 90.5439 103.459 90.5646L89.4221 92.0509L89.7852 96.5455C89.8985 97.9414 90.4276 99.2719 91.3047 100.366C92.1817 101.461 93.3668 102.269 94.708 102.688L100.787 104.575C101.101 104.679 101.441 104.672 101.75 104.555C102.06 104.437 102.319 104.217 102.484 103.932C102.627 103.671 102.683 103.371 102.644 103.075C102.604 102.78 102.471 102.506 102.264 102.291C102.277 102.282 102.288 102.27 102.297 102.256C102.305 102.242 102.311 102.226 102.313 102.21C102.316 102.193 102.315 102.177 102.31 102.161C102.306 102.145 102.298 102.13 102.288 102.118L103.408 102.468C103.757 102.585 104.138 102.565 104.473 102.413C104.809 102.26 105.074 101.987 105.215 101.648C105.33 101.34 105.332 101.001 105.221 100.692C105.111 100.382 104.894 100.122 104.609 99.9559C104.623 99.9489 104.634 99.9395 104.644 99.9282L105.104 100.072C105.418 100.176 105.759 100.169 106.068 100.052C106.377 99.9346 106.636 99.7144 106.802 99.4286C106.976 99.112 107.02 98.7405 106.925 98.392C106.83 98.0436 106.604 97.7452 106.293 97.5594C106.296 97.5502 106.297 97.5406 106.297 97.5311L109.602 98.6848C109.766 98.7441 109.94 98.7703 110.115 98.7619C110.289 98.7535 110.46 98.7108 110.618 98.6362C110.776 98.5615 110.917 98.4564 111.034 98.327C111.151 98.1975 111.241 98.0463 111.298 97.882C111.356 97.7178 111.381 97.5437 111.371 97.37C111.36 97.1962 111.316 97.0262 111.239 96.8697C111.163 96.7132 111.056 96.5734 110.925 96.4584C110.794 96.3433 110.641 96.2553 110.476 96.1994L110.48 96.1982Z" fill="#F08222"/>
<path opacity="0.2" d="M106.172 97.6584C106.157 97.6583 106.142 97.6556 106.127 97.6506L102.931 96.4926C102.899 96.4806 102.872 96.4561 102.857 96.4245C102.842 96.3929 102.841 96.3567 102.853 96.324C102.865 96.2913 102.89 96.2647 102.921 96.2501C102.953 96.2354 102.989 96.2339 103.022 96.2459L106.218 97.404C106.247 97.4145 106.272 97.4349 106.287 97.4616C106.303 97.4883 106.308 97.5197 106.303 97.5501C106.298 97.5805 106.282 97.608 106.258 97.6278C106.234 97.6476 106.204 97.6585 106.173 97.6584H106.172Z" fill="#0A0A0A"/>
<path opacity="0.2" d="M104.556 99.9738C104.541 99.9738 104.526 99.9713 104.512 99.9663L101.993 99.0757C101.976 99.0703 101.961 99.0615 101.948 99.0501C101.935 99.0386 101.924 99.0246 101.916 99.009C101.908 98.9933 101.904 98.9762 101.903 98.9588C101.902 98.9413 101.904 98.9238 101.91 98.9074C101.916 98.8909 101.925 98.8757 101.937 98.8628C101.949 98.8499 101.963 98.8394 101.979 98.8321C101.995 98.8248 102.012 98.8206 102.029 98.82C102.047 98.8194 102.064 98.8223 102.081 98.8285L104.6 99.7191C104.629 99.7294 104.654 99.7497 104.67 99.7764C104.685 99.8031 104.691 99.8344 104.686 99.8649C104.681 99.8953 104.665 99.923 104.641 99.9429C104.617 99.9629 104.587 99.9738 104.556 99.9738Z" fill="#0A0A0A"/>
<path opacity="0.2" d="M102.184 102.323C102.168 102.323 102.152 102.32 102.137 102.315L100.957 101.866C100.924 101.854 100.898 101.829 100.884 101.797C100.87 101.765 100.869 101.729 100.881 101.697C100.894 101.664 100.919 101.638 100.95 101.624C100.982 101.61 101.019 101.609 101.051 101.621L102.231 102.069C102.26 102.08 102.284 102.101 102.299 102.128C102.315 102.154 102.32 102.186 102.314 102.216C102.309 102.246 102.293 102.273 102.269 102.293C102.245 102.313 102.215 102.323 102.184 102.323H102.184Z" fill="#0A0A0A"/>
<path d="M95.6348 89.3912L62.352 89.3689L49.7608 58.7642L30.9778 66.6331L46.6867 102.956L46.8401 103.318C47.6087 105.083 48.9033 106.571 50.5486 107.579C52.1938 108.587 54.1103 109.066 56.0383 108.953L96.1374 106.593L95.6348 89.3912Z" fill="#0E4364"/>
<path d="M55.4873 109.12C53.6214 109.116 51.7969 108.572 50.2367 107.552C48.6766 106.532 47.4483 105.081 46.7021 103.377L46.5484 103.016L33.1618 72.0667L33.4395 71.9461L46.9796 103.259C47.7394 104.993 49.0139 106.454 50.6318 107.445C52.2497 108.436 54.1334 108.91 56.0295 108.802L95.9819 106.451L95.4869 89.5424L62.2501 89.5201L52.5678 65.9881L52.848 65.8741L62.4525 89.2186L95.7807 89.2412L96.2929 106.734L96.1462 106.743L56.0483 109.103C55.861 109.114 55.6731 109.12 55.4873 109.12Z" fill="#0C0C0C"/>
<path d="M18.4675 111.545L5.70312 237.369L6.3052 237.43L19.0696 111.605L18.4675 111.545Z" fill="#494949"/>
<path d="M71.2051 111.545L58.4407 237.369L59.0428 237.43L71.8072 111.605L71.2051 111.545Z" fill="#494949"/>
<path d="M181.17 111.543L180.568 111.603L193.324 237.429L193.926 237.368L181.17 111.543Z" fill="#494949"/>
<path d="M192.672 109.103H7.80058C6.43132 109.103 5.32131 110.209 5.32131 111.573C5.32131 112.938 6.43132 114.044 7.80058 114.044H192.672C194.042 114.044 195.152 112.938 195.152 111.573C195.152 110.209 194.042 109.103 192.672 109.103Z" fill="#292A2E"/>
<path opacity="0.8" d="M192.672 109.103H7.80058C6.43132 109.103 5.32131 110.209 5.32131 111.573C5.32131 112.938 6.43132 114.044 7.80058 114.044H192.672C194.042 114.044 195.152 112.938 195.152 111.573C195.152 110.209 194.042 109.103 192.672 109.103Z" fill="white"/>
<path d="M192.673 114.345H7.80179C7.43405 114.349 7.06921 114.28 6.72835 114.142C6.3875 114.005 6.0774 113.801 5.81601 113.543C5.55461 113.286 5.3471 112.979 5.20548 112.641C5.06386 112.303 4.99094 111.94 4.99094 111.573C4.99094 111.207 5.06386 110.844 5.20548 110.506C5.3471 110.168 5.55461 109.861 5.81601 109.603C6.0774 109.345 6.3875 109.142 6.72835 109.004C7.06921 108.867 7.43405 108.798 7.80179 108.802H192.673C193.04 108.798 193.405 108.867 193.746 109.004C194.087 109.142 194.397 109.345 194.658 109.603C194.92 109.861 195.127 110.168 195.269 110.506C195.411 110.844 195.484 111.207 195.484 111.573C195.484 111.94 195.411 112.303 195.269 112.641C195.127 112.979 194.92 113.286 194.658 113.543C194.397 113.801 194.087 114.005 193.746 114.142C193.405 114.28 193.04 114.349 192.673 114.345ZM7.80179 109.405C7.5138 109.401 7.22801 109.455 6.96096 109.562C6.69391 109.67 6.45092 109.829 6.24607 110.031C6.04122 110.232 5.87859 110.473 5.76759 110.737C5.65659 111.002 5.59943 111.286 5.59943 111.573C5.59943 111.86 5.65659 112.144 5.76759 112.409C5.87859 112.674 6.04122 112.914 6.24607 113.116C6.45092 113.318 6.69391 113.477 6.96096 113.584C7.22801 113.692 7.5138 113.745 7.80179 113.742H192.673C192.961 113.745 193.246 113.692 193.513 113.584C193.781 113.477 194.024 113.318 194.228 113.116C194.433 112.914 194.596 112.674 194.707 112.409C194.818 112.144 194.875 111.86 194.875 111.573C194.875 111.286 194.818 111.002 194.707 110.737C194.596 110.473 194.433 110.232 194.228 110.031C194.024 109.829 193.781 109.67 193.513 109.562C193.246 109.455 192.961 109.401 192.673 109.405H7.80179Z" fill="#292A2E"/>
<path d="M192.672 109.103H62.5541C61.1849 109.103 60.0749 110.209 60.0749 111.573C60.0749 112.938 61.1849 114.044 62.5541 114.044H192.672C194.042 114.044 195.152 112.938 195.152 111.573C195.152 110.209 194.042 109.103 192.672 109.103Z" fill="white"/>
<path d="M192.673 114.345H62.5541C61.8214 114.337 61.1213 114.042 60.6059 113.523C60.0904 113.004 59.8013 112.303 59.8013 111.573C59.8013 110.843 60.0904 110.142 60.6059 109.624C61.1213 109.105 61.8214 108.809 62.5541 108.802H192.673C193.04 108.798 193.405 108.867 193.746 109.004C194.087 109.142 194.397 109.345 194.658 109.603C194.92 109.861 195.127 110.168 195.269 110.506C195.411 110.844 195.484 111.207 195.484 111.573C195.484 111.94 195.411 112.303 195.269 112.641C195.127 112.979 194.92 113.286 194.658 113.543C194.397 113.801 194.087 114.005 193.746 114.142C193.405 114.28 193.04 114.349 192.673 114.345ZM62.5541 109.405C61.9813 109.411 61.4343 109.643 61.0316 110.049C60.6289 110.455 60.4031 111.002 60.4031 111.573C60.4031 112.144 60.6289 112.692 61.0316 113.098C61.4343 113.504 61.9813 113.735 62.5541 113.742H192.673C192.961 113.745 193.246 113.692 193.514 113.584C193.781 113.477 194.024 113.318 194.228 113.116C194.433 112.914 194.596 112.674 194.707 112.409C194.818 112.144 194.875 111.86 194.875 111.573C194.875 111.286 194.818 111.002 194.707 110.737C194.596 110.473 194.433 110.232 194.228 110.031C194.024 109.829 193.781 109.67 193.514 109.562C193.246 109.455 192.961 109.401 192.673 109.405H62.5541Z" fill="#292A2E"/>
<path d="M197.659 197.317C197.619 197.317 197.58 197.309 197.543 197.294C197.506 197.279 197.473 197.257 197.445 197.229C197.019 196.804 196.324 189.011 194.452 165.807C193.686 156.312 192.963 147.344 192.435 141.894C192.397 141.505 192.246 141.46 192.196 141.445C191.473 141.227 189.276 142.954 188.049 144.466C187.998 144.529 187.925 144.568 187.845 144.577C187.765 144.585 187.686 144.562 187.623 144.511C187.561 144.461 187.521 144.388 187.512 144.308C187.504 144.229 187.528 144.149 187.578 144.087C188.389 143.087 191.034 140.466 192.37 140.867C192.639 140.948 192.975 141.181 193.037 141.836C193.566 147.291 194.289 156.261 195.055 165.758C196.193 179.859 197.481 195.834 197.905 196.84C197.937 196.885 197.957 196.938 197.961 196.993C197.965 197.048 197.954 197.104 197.928 197.153C197.903 197.202 197.864 197.244 197.817 197.273C197.769 197.302 197.715 197.317 197.659 197.317Z" fill="#494949"/>
<path d="M191.657 151.895C196.678 147.885 198.342 141.643 195.374 137.953C192.406 134.264 185.93 134.524 180.909 138.534C175.888 142.544 174.224 148.786 177.192 152.475C180.16 156.165 186.637 155.905 191.657 151.895Z" fill="#0CBC8B"/>
<path opacity="0.2" d="M191.657 151.895C196.678 147.885 198.342 141.643 195.374 137.953C192.406 134.264 185.93 134.524 180.909 138.534C175.888 142.544 174.224 148.786 177.192 152.475C180.16 156.165 186.637 155.905 191.657 151.895Z" fill="white"/>
<path d="M178.6 153.414C178.571 153.414 178.543 153.406 178.519 153.391C178.495 153.375 178.475 153.353 178.463 153.327C178.451 153.302 178.446 153.273 178.45 153.244C178.454 153.216 178.465 153.189 178.484 153.167L192.793 135.974C192.818 135.943 192.855 135.923 192.895 135.92C192.935 135.916 192.975 135.928 193.006 135.954C193.037 135.979 193.056 136.016 193.06 136.056C193.063 136.096 193.051 136.135 193.025 136.166L178.717 153.36C178.702 153.377 178.685 153.391 178.664 153.4C178.644 153.409 178.622 153.414 178.6 153.414Z" fill="white"/>
<path d="M200.78 193.631C200.731 193.631 200.684 193.62 200.641 193.597C200.598 193.575 200.561 193.543 200.533 193.504C200.505 193.465 200.487 193.42 200.48 193.372C200.474 193.324 200.478 193.276 200.494 193.23L205.869 177.829C206.028 177.376 206.297 176.97 206.654 176.649C207.01 176.327 207.442 176.099 207.909 175.987C208.377 175.874 208.865 175.881 209.329 176.005C209.794 176.129 210.22 176.368 210.568 176.699L213.409 179.403C213.467 179.459 213.501 179.534 213.503 179.614C213.505 179.694 213.475 179.772 213.419 179.83C213.364 179.888 213.288 179.921 213.207 179.923C213.127 179.925 213.049 179.895 212.991 179.839L210.15 177.135C209.875 176.873 209.539 176.685 209.172 176.587C208.806 176.489 208.42 176.484 208.051 176.573C207.682 176.661 207.341 176.841 207.06 177.095C206.778 177.349 206.566 177.669 206.441 178.027L201.066 193.429C201.045 193.488 201.007 193.539 200.955 193.575C200.904 193.612 200.843 193.631 200.78 193.631Z" fill="#494949"/>
<path d="M221.348 187.931C225.069 184.996 224.848 178.542 220.854 173.514C216.86 168.487 210.606 166.79 206.885 169.725C203.165 172.66 203.386 179.114 207.379 184.142C211.373 189.169 217.627 190.865 221.348 187.931Z" fill="#0CBC8B"/>
<path d="M195.219 196.334C195.151 196.334 195.085 196.312 195.032 196.27C194.978 196.228 194.941 196.169 194.925 196.103L185.903 158.524C185.842 158.268 185.71 158.034 185.524 157.847C185.337 157.661 185.102 157.529 184.846 157.467C184.589 157.405 184.32 157.414 184.068 157.494C183.816 157.574 183.592 157.722 183.419 157.921L180.638 161.123C180.612 161.153 180.58 161.178 180.545 161.197C180.509 161.215 180.47 161.226 180.43 161.229C180.391 161.232 180.35 161.227 180.313 161.214C180.275 161.202 180.239 161.182 180.209 161.156C180.179 161.13 180.154 161.098 180.136 161.062C180.119 161.027 180.108 160.988 180.105 160.948C180.103 160.908 180.108 160.869 180.121 160.831C180.134 160.793 180.154 160.758 180.18 160.728L182.961 157.527C183.207 157.244 183.526 157.034 183.884 156.92C184.242 156.806 184.625 156.793 184.99 156.881C185.355 156.97 185.688 157.158 185.953 157.423C186.218 157.688 186.405 158.021 186.492 158.386L195.512 195.964C195.53 196.042 195.517 196.123 195.475 196.191C195.433 196.259 195.365 196.307 195.288 196.326C195.265 196.332 195.242 196.334 195.219 196.334Z" fill="#494949"/>
<path d="M191.89 169.472C192.987 163.154 190.085 157.379 185.409 156.573C180.733 155.767 176.053 160.236 174.957 166.554C173.86 172.872 176.762 178.647 181.438 179.452C186.114 180.258 190.794 175.789 191.89 169.472Z" fill="#0CBC8B"/>
<path d="M197.659 197.317C197.647 197.317 197.634 197.316 197.622 197.315C197.583 197.31 197.545 197.297 197.51 197.278C197.475 197.258 197.445 197.232 197.42 197.201C197.396 197.17 197.378 197.134 197.367 197.096C197.357 197.058 197.354 197.018 197.359 196.979L203.118 150.381C203.181 149.874 203.39 149.395 203.719 149.003C204.048 148.61 204.484 148.321 204.975 148.17C205.465 148.019 205.989 148.011 206.483 148.15C206.977 148.288 207.421 148.565 207.76 148.948L214.344 156.378C214.397 156.438 214.424 156.517 214.419 156.596C214.414 156.676 214.377 156.751 214.317 156.804C214.257 156.857 214.178 156.884 214.098 156.879C214.018 156.874 213.943 156.837 213.89 156.777L207.307 149.348C207.044 149.051 206.701 148.837 206.319 148.73C205.937 148.623 205.532 148.629 205.153 148.746C204.775 148.863 204.438 149.086 204.183 149.389C203.929 149.693 203.767 150.063 203.719 150.455L197.96 197.052C197.95 197.125 197.915 197.192 197.86 197.241C197.804 197.29 197.733 197.317 197.659 197.317Z" fill="#494949"/>
<path d="M221.096 160.507C223.393 156.37 220.69 150.499 215.06 147.396C209.429 144.293 203.002 145.131 200.705 149.269C198.408 153.406 201.111 159.276 206.742 162.38C212.372 165.483 218.799 164.645 221.096 160.507Z" fill="#0CBC8B"/>
<path opacity="0.2" d="M221.348 187.931C225.069 184.996 224.848 178.542 220.854 173.514C216.86 168.487 210.606 166.79 206.885 169.725C203.165 172.66 203.386 179.114 207.379 184.142C211.373 189.169 217.627 190.865 221.348 187.931Z" fill="white"/>
<path opacity="0.5" d="M191.89 169.472C192.987 163.154 190.085 157.379 185.409 156.573C180.733 155.767 176.053 160.236 174.957 166.554C173.86 172.872 176.762 178.647 181.438 179.452C186.114 180.258 190.794 175.789 191.89 169.472Z" fill="white"/>
<path opacity="0.5" d="M221.096 160.507C223.393 156.37 220.69 150.499 215.06 147.396C209.429 144.293 203.002 145.131 200.705 149.269C198.408 153.406 201.111 159.276 206.742 162.38C212.372 165.483 218.799 164.645 221.096 160.507Z" fill="white"/>
<path d="M205.026 236.855H190.292L187.85 189.882H207.467L205.026 236.855Z" fill="#292A2E"/>
<path opacity="0.3" d="M205.026 236.855H190.292L187.85 189.882H207.467L205.026 236.855Z" fill="white"/>
<path d="M221.348 188.079C221.325 188.079 221.303 188.074 221.282 188.064C221.262 188.054 221.244 188.04 221.23 188.022L206.767 169.816C206.742 169.785 206.73 169.745 206.735 169.705C206.74 169.666 206.76 169.629 206.791 169.605C206.823 169.58 206.863 169.568 206.903 169.573C206.943 169.578 206.979 169.598 207.004 169.629L221.467 187.835C221.485 187.857 221.496 187.884 221.499 187.912C221.502 187.94 221.497 187.969 221.485 187.994C221.472 188.02 221.453 188.041 221.429 188.056C221.405 188.071 221.377 188.079 221.348 188.079Z" fill="white"/>
<path d="M220.134 161.966C220.102 161.965 220.071 161.955 220.045 161.936L201.538 148.471C201.505 148.447 201.484 148.412 201.477 148.372C201.471 148.332 201.481 148.292 201.505 148.26C201.528 148.228 201.564 148.206 201.604 148.2C201.643 148.194 201.684 148.203 201.716 148.227L220.223 161.692C220.249 161.711 220.267 161.738 220.277 161.768C220.286 161.798 220.286 161.831 220.276 161.861C220.266 161.891 220.247 161.917 220.221 161.935C220.195 161.954 220.164 161.964 220.133 161.964L220.134 161.966Z" fill="white"/>
<path d="M180.686 179.256C180.673 179.256 180.66 179.254 180.647 179.25C180.609 179.24 180.576 179.215 180.556 179.18C180.535 179.146 180.53 179.105 180.54 179.066L186.432 157.071C186.443 157.034 186.468 157.002 186.503 156.983C186.537 156.964 186.577 156.959 186.615 156.969C186.654 156.979 186.686 157.003 186.706 157.037C186.727 157.071 186.733 157.111 186.724 157.149L180.832 179.143C180.824 179.176 180.805 179.204 180.779 179.224C180.752 179.245 180.72 179.256 180.686 179.256Z" fill="white"/>
<path d="M212.139 237.278H0.2118C0.155627 237.278 0.101755 237.256 0.0620347 237.216C0.0223145 237.176 0 237.123 0 237.067C0 237.011 0.0223145 236.957 0.0620347 236.918C0.101755 236.878 0.155627 236.856 0.2118 236.856H212.139C212.195 236.856 212.249 236.878 212.288 236.918C212.328 236.957 212.35 237.011 212.35 237.067C212.35 237.123 212.328 237.176 212.288 237.216C212.249 237.256 212.195 237.278 212.139 237.278H212.139Z" fill="#292A2E"/>
<g opacity="0.65">
<path d="M212.139 237.278H0.2118C0.155627 237.278 0.101755 237.256 0.0620347 237.216C0.0223145 237.176 0 237.123 0 237.067C0 237.011 0.0223145 236.957 0.0620347 236.918C0.101755 236.878 0.155627 236.856 0.2118 236.856H212.139C212.195 236.856 212.249 236.878 212.288 236.918C212.328 236.957 212.35 237.011 212.35 237.067C212.35 237.123 212.328 237.176 212.288 237.216C212.249 237.256 212.195 237.278 212.139 237.278H212.139Z" fill="#292A2E"/>
</g>
</svg>
